<?xml version="1.0" encoding="UTF-8" standalone="no"?>
<!DOCTYPE svg PUBLIC "-//W3C//DTD SVG 20010904//EN"
              "http://www.w3.org/TR/2001/REC-SVG-20010904/DTD/svg10.dtd">

<svg xmlns="http://www.w3.org/2000/svg"
     width="9.20667in" height="4.88in"
     viewBox="0 0 1381 732">
  <path id="Selection #1"
        fill="none" stroke="black" stroke-width="1"
        d="M 1042.13,194.00
           C 1042.13,194.00 1026.74,172.28 1026.74,172.28
             1023.03,167.43 1018.40,162.62 1020.56,156.00
             1022.09,151.33 1027.23,147.85 1030.99,145.00
             1030.99,145.00 1046.96,132.13 1046.96,132.13
             1052.34,127.88 1063.27,116.46 1070.00,117.49
             1079.38,118.91 1087.16,132.12 1092.80,138.99
             1092.80,138.99 1105.96,155.01 1105.96,155.01
             1105.96,155.01 1116.50,169.72 1116.50,169.72
             1116.50,169.72 1132.83,189.09 1132.83,189.09
             1135.90,192.45 1144.13,204.73 1147.09,206.18
             1150.30,207.74 1155.87,203.26 1159.00,201.66
             1159.00,201.66 1168.00,196.88 1168.00,196.88
             1172.16,194.25 1177.55,189.60 1182.17,187.81
             1186.41,186.17 1194.12,184.46 1195.06,178.96
             1195.58,175.92 1193.00,173.49 1191.20,171.42
             1188.97,168.86 1182.36,160.04 1181.97,157.00
             1181.36,152.24 1186.66,149.10 1190.89,149.88
             1195.03,150.65 1202.52,161.59 1205.13,164.99
             1205.13,164.99 1217.96,180.04 1217.96,180.04
             1217.96,180.04 1228.62,194.72 1228.62,194.72
             1228.62,194.72 1241.98,210.17 1241.98,210.17
             1244.81,215.43 1240.86,221.42 1235.00,221.46
             1233.13,221.47 1229.14,219.66 1227.00,219.00
             1225.91,215.43 1219.04,205.83 1215.83,204.02
             1214.17,203.09 1212.80,203.15 1211.00,203.00
             1209.73,208.79 1205.96,211.72 1202.07,216.00
             1202.07,216.00 1187.00,231.99 1187.00,231.99
             1183.36,235.55 1177.70,239.18 1178.53,245.00
             1179.09,248.88 1181.36,250.38 1183.54,253.26
             1183.54,253.26 1195.61,268.17 1195.61,268.17
             1195.61,268.17 1212.67,290.72 1212.67,290.72
             1212.67,290.72 1220.45,299.42 1220.45,299.42
             1220.45,299.42 1232.87,315.04 1232.87,315.04
             1237.58,321.06 1249.86,334.02 1247.35,341.96
             1246.15,345.76 1242.83,347.69 1240.00,350.18
             1240.00,350.18 1222.13,363.91 1222.13,363.91
             1215.69,368.65 1207.19,379.06 1199.00,378.97
             1189.64,378.86 1182.95,366.65 1177.41,360.28
             1177.41,360.28 1170.09,353.00 1170.09,353.00
             1170.09,353.00 1162.40,344.08 1162.40,344.08
             1162.40,344.08 1155.09,336.99 1155.09,336.99
             1155.09,336.99 1134.86,313.80 1134.86,313.80
             1134.86,313.80 1123.61,302.05 1123.61,302.05
             1122.08,300.40 1119.10,296.81 1116.91,296.29
             1113.74,295.54 1105.04,302.82 1102.07,304.93
             1102.07,304.93 1087.91,315.67 1087.91,315.67
             1087.91,315.67 1079.00,321.43 1079.00,321.43
             1073.98,325.00 1068.69,329.63 1063.00,332.00
             1063.00,332.00 1067.78,339.63 1067.78,339.63
             1067.78,339.63 1074.10,346.59 1074.10,346.59
             1079.01,353.23 1082.69,363.66 1076.57,370.79
             1075.20,372.39 1068.99,376.90 1067.01,378.22
             1067.01,378.22 1057.96,384.27 1057.96,384.27
             1056.48,384.86 1053.62,385.21 1052.00,385.33
             1040.92,386.17 1038.46,379.54 1032.63,372.00
             1032.63,372.00 1026.04,364.28 1026.04,364.28
             1023.28,361.12 1019.69,355.01 1014.96,355.77
             1010.18,356.53 997.53,365.57 993.00,368.58
             993.00,368.58 972.00,383.23 972.00,383.23
             972.00,383.23 943.00,402.86 943.00,402.86
             943.00,402.86 922.00,417.11 922.00,417.11
             919.31,418.13 915.86,418.00 913.00,418.07
             913.00,418.07 862.00,418.07 862.00,418.07
             862.00,418.07 850.00,418.07 850.00,418.07
             850.00,418.07 842.00,418.07 842.00,418.07
             842.00,418.07 813.00,418.07 813.00,418.07
             813.00,418.07 533.00,418.07 533.00,418.07
             533.00,418.07 437.00,418.07 437.00,418.07
             437.00,418.07 426.00,418.66 426.00,418.66
             426.00,418.66 415.00,418.00 415.00,418.00
             415.00,418.00 404.00,418.00 404.00,418.00
             404.00,418.00 386.00,418.00 386.00,418.00
             386.00,418.00 218.00,418.00 218.00,418.00
             218.00,418.00 124.00,418.00 124.00,418.00
             121.00,418.04 109.02,418.24 107.11,419.32
             103.79,421.18 102.73,425.06 100.62,428.00
             97.03,433.02 91.53,439.17 86.00,442.01
             68.01,451.22 47.63,449.81 32.00,436.75
             28.56,433.87 24.31,429.88 22.26,425.83
             19.26,419.91 17.93,411.59 18.00,405.00
             18.06,399.98 18.44,398.79 19.63,394.00
             22.27,383.38 24.06,383.35 31.44,375.79
             34.10,373.06 36.60,369.99 40.00,368.14
             41.91,367.09 43.96,366.70 46.00,366.04
             57.32,362.36 53.86,362.98 66.00,363.00
             74.13,363.02 80.88,366.73 87.91,370.68
             91.43,372.65 96.69,377.92 99.11,381.17
             101.66,384.59 103.06,388.52 107.04,390.69
             110.09,392.34 114.57,392.03 118.00,391.89
             118.00,391.89 156.00,391.89 156.00,391.89
             156.00,391.89 166.00,391.89 166.00,391.89
             166.00,391.89 373.00,391.89 373.00,391.89
             373.00,391.89 384.00,391.34 384.00,391.34
             384.00,391.34 395.00,391.87 395.00,391.87
             395.00,391.87 407.00,391.87 407.00,391.87
             407.00,391.87 424.00,391.87 424.00,391.87
             424.00,391.87 572.00,391.87 572.00,391.87
             572.00,391.87 582.00,391.87 582.00,391.87
             582.00,391.87 592.00,391.87 592.00,391.87
             592.00,391.87 831.00,391.87 831.00,391.87
             831.00,391.87 843.00,391.87 843.00,391.87
             843.00,391.87 870.00,391.87 870.00,391.87
             870.00,391.87 880.00,391.87 880.00,391.87
             880.00,391.87 902.00,391.87 902.00,391.87
             916.29,391.98 922.06,385.50 933.04,377.65
             933.04,377.65 963.00,357.15 963.00,357.15
             963.00,357.15 974.00,349.72 974.00,349.72
             974.00,349.72 985.04,341.61 985.04,341.61
             988.67,339.27 995.17,335.95 997.05,331.99
             999.14,327.57 994.12,323.22 991.59,320.04
             991.59,320.04 984.96,312.68 984.96,312.68
             979.96,305.99 979.92,297.83 985.82,291.82
             992.07,285.46 1008.48,271.58 1017.55,278.71
             1017.55,278.71 1029.49,292.00 1029.49,292.00
             1031.07,293.99 1033.30,297.71 1036.00,298.09
             1038.70,298.48 1045.82,291.64 1047.96,289.72
             1047.96,289.72 1071.42,268.36 1071.42,268.36
             1074.61,265.71 1081.76,260.81 1082.92,256.98
             1084.50,251.77 1077.95,245.02 1075.03,241.00
             1075.03,241.00 1070.08,233.17 1070.08,233.17
             1070.08,233.17 1064.20,225.57 1064.20,225.57
             1064.20,225.57 1059.19,218.00 1059.19,218.00
             1055.32,212.58 1051.55,209.80 1051.00,203.00
             1046.57,201.50 1044.94,197.72 1042.13,194.00 Z
           M 1051.43,191.00
           C 1051.43,191.00 1095.88,254.00 1095.88,254.00
             1095.88,254.00 1109.46,273.00 1109.46,273.00
             1109.46,273.00 1124.83,290.00 1124.83,290.00
             1124.83,290.00 1142.00,309.00 1142.00,309.00
             1142.00,309.00 1181.99,353.00 1181.99,353.00
             1185.32,356.46 1194.25,367.50 1198.00,368.84
             1201.56,370.11 1205.43,366.26 1208.00,364.20
             1208.00,364.20 1230.09,346.12 1230.09,346.12
             1232.79,344.14 1238.36,340.85 1237.85,336.99
             1237.44,333.95 1230.38,325.71 1228.20,323.00
             1228.20,323.00 1203.40,292.00 1203.40,292.00
             1203.40,292.00 1109.80,175.00 1109.80,175.00
             1109.80,175.00 1081.63,139.42 1081.63,139.42
             1079.52,136.84 1072.65,128.05 1069.99,127.33
             1066.60,126.42 1061.47,131.71 1059.00,133.75
             1051.88,139.63 1033.70,153.58 1029.00,160.00
             1036.51,168.26 1044.78,181.69 1051.43,191.00 Z
           M 1180.00,226.00
           C 1188.15,217.83 1193.06,213.25 1200.34,204.00
             1202.69,201.02 1210.50,193.47 1205.43,190.01
             1202.01,187.68 1194.23,192.14 1191.00,193.75
             1191.00,193.75 1170.00,206.46 1170.00,206.46
             1170.00,206.46 1155.00,215.00 1155.00,215.00
             1156.59,222.53 1163.73,228.63 1168.00,235.00
             1173.79,233.71 1175.91,230.11 1180.00,226.00 Z
           M 1154.57,239.00
           C 1155.80,243.60 1153.80,249.89 1151.72,254.00
             1145.81,265.72 1134.13,273.31 1121.00,272.99
             1107.97,272.67 1104.60,263.21 1108.41,252.00
             1111.78,242.07 1121.65,233.83 1131.00,229.70
             1139.52,227.78 1151.83,228.82 1154.57,239.00 Z
           M 1141.78,253.00
           C 1144.36,249.89 1147.87,243.23 1144.40,239.72
             1141.14,236.11 1135.58,238.39 1132.00,239.72
             1121.69,244.18 1116.04,251.79 1116.00,263.00
             1128.08,265.16 1133.81,262.58 1141.78,253.00 Z
           M 1030.00,340.45
           C 1036.24,337.84 1046.46,332.73 1052.00,329.03
             1052.00,329.03 1063.00,320.89 1063.00,320.89
             1063.00,320.89 1088.00,303.86 1088.00,303.86
             1088.00,303.86 1104.98,291.80 1104.98,291.80
             1107.22,290.11 1109.97,288.19 1108.83,284.99
             1108.04,282.74 1100.06,274.98 1097.74,272.00
             1096.28,270.12 1094.27,267.01 1091.96,266.17
             1089.11,265.13 1087.01,267.29 1085.00,268.97
             1085.00,268.97 1069.17,281.89 1069.17,281.89
             1069.17,281.89 1040.00,310.00 1040.00,310.00
             1029.16,320.84 1017.20,332.72 1011.00,347.00
             1020.63,346.78 1021.61,343.95 1030.00,340.45 Z
           M 995.02,295.58
           C 992.87,297.32 990.25,298.97 990.52,302.09
             990.89,306.32 1002.18,319.07 1005.34,323.00
             1006.81,324.82 1009.08,328.49 1011.87,327.66
             1014.46,326.90 1018.28,320.37 1020.04,318.09
             1022.34,315.11 1028.70,310.29 1028.84,307.00
             1028.94,304.66 1026.38,301.76 1025.00,300.00
             1021.04,294.96 1015.71,286.30 1008.83,285.80
             1003.84,287.72 999.19,292.18 995.02,295.58 Z
           M 1037.09,363.42
           C 1037.09,363.42 1047.75,375.71 1047.75,375.71
             1053.45,379.54 1060.80,371.99 1065.00,368.74
             1067.37,366.90 1070.08,365.21 1070.58,361.99
             1071.37,356.88 1064.45,349.75 1061.45,346.00
             1059.11,343.08 1056.36,338.08 1052.00,338.84
             1049.65,339.25 1044.33,342.92 1042.00,344.25
             1042.00,344.25 1029.00,350.00 1029.00,350.00
             1030.28,355.17 1033.68,359.40 1037.09,363.42 Z" />
</svg>
