<?xml version="1.0" encoding="UTF-8" standalone="no"?>
<!DOCTYPE svg PUBLIC "-//W3C//DTD SVG 20010904//EN"
              "http://www.w3.org/TR/2001/REC-SVG-20010904/DTD/svg10.dtd">

<svg xmlns="http://www.w3.org/2000/svg"
     width="9.20667in" height="4.88in"
     viewBox="0 0 1381 732">
  <path id="Selection"
        fill="none" stroke="black" stroke-width="1"
        d="M 136.34,363.00
           C 136.34,363.00 143.54,343.00 143.54,343.00
             143.54,343.00 159.19,303.00 159.19,303.00
             159.19,303.00 181.06,245.00 181.06,245.00
             181.06,245.00 231.80,114.00 231.80,114.00
             231.80,114.00 247.58,73.00 247.58,73.00
             247.58,73.00 255.76,51.00 255.76,51.00
             257.06,47.89 265.57,36.16 268.27,34.89
             270.47,33.86 274.54,34.00 277.00,34.00
             277.00,34.00 360.00,34.00 360.00,34.00
             360.00,34.00 374.00,34.00 374.00,34.00
             382.88,34.02 385.87,35.41 386.00,45.00
             386.04,48.12 386.39,55.00 384.69,57.49
             382.23,61.09 374.88,60.99 371.00,61.00
             371.00,61.00 289.00,61.00 289.00,61.00
             289.00,61.00 312.91,124.00 312.91,124.00
             312.91,124.00 335.89,182.00 335.89,182.00
             335.89,182.00 349.46,219.00 349.46,219.00
             349.46,219.00 362.24,250.00 362.24,250.00
             362.24,250.00 375.34,286.00 375.34,286.00
             375.34,286.00 401.00,353.00 401.00,353.00
             404.61,362.06 414.25,384.70 415.00,393.00
             415.00,393.00 393.00,393.00 393.00,393.00
             393.00,393.00 385.51,391.98 385.51,391.98
             385.51,391.98 377.90,374.00 377.90,374.00
             377.90,374.00 369.25,352.00 369.25,352.00
             369.25,352.00 357.00,319.00 357.00,319.00
             357.00,319.00 345.45,288.00 345.45,288.00
             345.45,288.00 333.42,258.00 333.42,258.00
             333.42,258.00 312.55,203.00 312.55,203.00
             312.55,203.00 305.09,185.00 305.09,185.00
             305.09,185.00 302.22,176.00 302.22,176.00
             302.22,176.00 299.37,170.00 299.37,170.00
             299.37,170.00 291.58,148.00 291.58,148.00
             291.58,148.00 275.66,107.00 275.66,107.00
             275.66,107.00 270.00,92.00 270.00,92.00
             270.00,92.00 259.42,122.00 259.42,122.00
             259.42,122.00 239.45,174.00 239.45,174.00
             239.45,174.00 234.54,188.00 234.54,188.00
             234.54,188.00 195.42,289.00 195.42,289.00
             195.42,289.00 188.24,308.00 188.24,308.00
             188.24,308.00 186.12,315.00 186.12,315.00
             186.12,315.00 165.34,368.00 165.34,368.00
             165.34,368.00 156.00,393.00 156.00,393.00
             156.00,393.00 126.00,393.00 126.00,393.00
             126.47,384.64 133.17,371.19 136.34,363.00 Z
           M 568.54,347.00
           C 568.54,347.00 592.80,283.00 592.80,283.00
             592.80,283.00 642.75,153.00 642.75,153.00
             642.75,153.00 657.69,114.00 657.69,114.00
             657.69,114.00 667.06,89.00 667.06,89.00
             667.06,89.00 680.40,55.00 680.40,55.00
             680.40,55.00 683.80,47.02 683.80,47.02
             685.38,44.37 693.31,35.80 696.02,34.74
             698.23,33.87 701.61,34.00 704.00,34.00
             704.00,34.00 786.00,34.00 786.00,34.00
             791.22,34.00 807.03,32.63 810.26,36.43
             812.18,38.68 811.98,42.21 812.00,45.00
             812.02,48.10 812.46,55.13 810.83,57.58
             808.38,61.27 801.90,60.99 798.00,61.00
             798.00,61.00 715.00,61.00 715.00,61.00
             715.00,61.00 725.58,88.00 725.58,88.00
             725.58,88.00 762.54,184.00 762.54,184.00
             762.54,184.00 774.81,217.00 774.81,217.00
             774.81,217.00 794.74,267.28 794.74,267.28
             794.74,267.28 801.73,287.00 801.73,287.00
             801.73,287.00 828.89,358.00 828.89,358.00
             831.97,365.91 840.59,385.71 841.00,393.00
             841.00,393.00 811.00,393.00 811.00,393.00
             811.00,393.00 807.39,384.00 807.39,384.00
             807.39,384.00 796.42,354.00 796.42,354.00
             796.42,354.00 763.46,269.00 763.46,269.00
             763.46,269.00 749.47,231.00 749.47,231.00
             749.47,231.00 731.88,187.00 731.88,187.00
             731.88,187.00 729.73,180.00 729.73,180.00
             729.73,180.00 715.74,144.00 715.74,144.00
             715.74,144.00 696.00,92.00 696.00,92.00
             696.00,92.00 687.50,117.00 687.50,117.00
             687.50,117.00 676.09,147.00 676.09,147.00
             676.09,147.00 669.54,163.00 669.54,163.00
             669.54,163.00 653.06,206.00 653.06,206.00
             653.06,206.00 631.06,264.00 631.06,264.00
             631.06,264.00 607.14,327.00 607.14,327.00
             607.14,327.00 588.21,377.00 588.21,377.00
             588.21,377.00 581.44,391.98 581.44,391.98
             581.44,391.98 574.00,393.00 574.00,393.00
             574.00,393.00 552.00,393.00 552.00,393.00
             553.70,382.18 564.22,358.24 568.54,347.00 Z
           M 887.00,393.00
           C 884.72,393.00 881.24,393.21 879.27,391.98
             876.23,390.07 873.87,380.61 872.67,377.00
             867.45,361.35 869.43,366.61 866.69,352.00
             866.69,352.00 863.46,339.00 863.46,339.00
             863.46,339.00 862.72,330.00 862.72,330.00
             862.72,330.00 860.00,297.00 860.00,297.00
             859.81,280.17 863.36,251.47 867.24,235.00
             867.24,235.00 871.85,220.00 871.85,220.00
             871.85,220.00 874.67,208.00 874.67,208.00
             874.67,208.00 891.60,170.42 891.60,170.42
             900.04,154.95 908.13,143.64 919.06,129.96
             919.06,129.96 925.13,122.00 925.13,122.00
             933.73,112.32 943.96,104.43 953.99,96.34
             953.99,96.34 972.00,81.68 972.00,81.68
             972.00,81.68 982.00,76.55 982.00,76.55
             982.00,76.55 1005.00,63.61 1005.00,63.61
             1005.00,63.61 1020.00,57.13 1020.00,57.13
             1020.00,57.13 1028.00,53.55 1028.00,53.55
             1028.00,53.55 1040.00,50.25 1040.00,50.25
             1040.00,50.25 1050.00,46.60 1050.00,46.60
             1050.00,46.60 1077.00,41.17 1077.00,41.17
             1077.00,41.17 1097.00,39.83 1097.00,39.83
             1097.00,39.83 1121.00,38.00 1121.00,38.00
             1121.00,38.00 1131.00,38.91 1131.00,38.91
             1131.00,38.91 1151.00,40.29 1151.00,40.29
             1163.27,41.80 1189.53,48.11 1201.00,52.42
             1204.92,53.90 1221.25,59.91 1222.94,62.61
             1224.23,64.54 1223.56,67.00 1222.94,69.00
             1221.99,71.74 1216.29,84.71 1214.36,85.99
             1213.28,86.71 1212.21,86.75 1210.96,86.61
             1210.96,86.61 1194.00,80.34 1194.00,80.34
             1194.00,80.34 1156.00,69.46 1156.00,69.46
             1156.00,69.46 1147.00,68.71 1147.00,68.71
             1138.34,67.65 1134.41,66.01 1125.00,66.00
             1125.00,66.00 1112.00,66.00 1112.00,66.00
             1096.73,66.02 1065.82,71.76 1051.00,76.21
             1051.00,76.21 1029.00,84.45 1029.00,84.45
             1029.00,84.45 1001.00,97.99 1001.00,97.99
             994.19,102.16 979.62,114.44 973.00,119.99
             973.00,119.99 954.04,136.01 954.04,136.01
             954.04,136.01 938.71,155.58 938.71,155.58
             938.71,155.58 925.20,173.00 925.20,173.00
             911.41,193.66 898.78,224.69 893.42,249.00
             893.42,249.00 889.83,278.00 889.83,278.00
             889.83,278.00 888.32,296.00 888.32,296.00
             888.32,296.00 889.00,312.00 889.00,312.00
             889.09,319.17 890.01,318.31 890.83,324.00
             892.34,334.48 895.35,352.33 898.87,362.00
             901.49,369.18 909.13,386.34 910.00,393.00
             910.00,393.00 887.00,393.00 887.00,393.00 Z
           M 1070.00,125.89
           C 1073.33,126.48 1080.90,136.21 1083.33,139.28
             1083.33,139.28 1119.60,185.00 1119.60,185.00
             1119.60,185.00 1188.97,271.58 1188.97,271.58
             1188.97,271.58 1208.39,295.83 1208.39,295.83
             1208.39,295.83 1231.60,325.00 1231.60,325.00
             1233.86,327.83 1239.59,334.35 1239.41,337.99
             1239.22,341.92 1233.08,345.62 1230.17,347.78
             1224.58,351.91 1206.43,368.33 1202.00,370.05
             1195.58,372.53 1188.43,362.22 1184.72,358.00
             1184.72,358.00 1143.83,313.00 1143.83,313.00
             1143.83,313.00 1108.46,274.00 1108.46,274.00
             1108.46,274.00 1091.45,250.00 1091.45,250.00
             1091.45,250.00 1055.54,198.99 1055.54,198.99
             1055.54,198.99 1035.42,170.58 1035.42,170.58
             1033.67,168.15 1028.54,161.78 1028.91,159.00
             1029.35,155.65 1035.43,151.49 1038.00,149.39
             1044.63,143.95 1060.67,129.65 1067.00,125.89
             1067.72,125.92 1068.29,125.37 1070.00,125.89 Z
           M 1108.00,154.00
           C 1108.00,154.00 1108.00,157.00 1108.00,157.00
             1108.00,157.00 1105.00,157.00 1105.00,157.00
             1105.00,157.00 1105.00,154.00 1105.00,154.00
             1105.00,154.00 1108.00,154.00 1108.00,154.00 Z
           M 1207.44,197.00
           C 1203.09,204.61 1188.52,219.47 1182.00,226.00
             1179.60,228.40 1174.05,234.85 1170.95,235.52
             1168.27,236.10 1166.72,234.68 1165.00,232.87
             1161.87,229.56 1152.24,219.17 1155.01,214.52
             1156.94,211.27 1164.64,208.00 1168.00,206.05
             1178.60,199.93 1187.84,192.12 1200.00,188.53
             1206.15,187.59 1211.26,190.30 1207.44,197.00 Z
           M 1109.77,252.00
           C 1105.77,262.18 1108.97,271.42 1121.00,271.96
             1133.37,272.52 1145.30,263.76 1150.72,253.00
             1152.36,249.76 1154.23,244.66 1153.74,241.00
             1152.37,230.99 1141.05,229.24 1133.00,230.42
             1123.73,233.64 1113.41,242.74 1109.77,252.00 Z
           M 1115.51,255.00
           C 1118.16,245.77 1128.60,237.75 1138.00,236.57
             1149.23,235.15 1148.41,246.58 1143.58,253.00
             1135.50,263.76 1127.80,266.29 1115.00,264.00
             1115.00,261.46 1114.83,257.34 1115.51,255.00 Z
           M 1023.75,325.00
           C 1030.57,316.82 1060.62,287.04 1069.09,280.13
             1069.09,280.13 1084.00,267.97 1084.00,267.97
             1086.29,266.03 1088.71,263.71 1091.99,264.66
             1095.24,265.60 1097.51,269.50 1099.51,272.00
             1099.51,272.00 1108.69,282.00 1108.69,282.00
             1110.01,283.79 1111.04,285.62 1110.34,287.91
             1109.45,290.84 1105.41,293.14 1103.04,294.86
             1103.04,294.86 1087.00,306.28 1087.00,306.28
             1087.00,306.28 1063.00,322.57 1063.00,322.57
             1050.60,331.27 1045.45,335.42 1031.00,341.45
             1020.61,345.78 1022.18,347.96 1010.00,348.00
             1011.49,340.05 1018.60,331.19 1023.75,325.00 Z
           M 1026.00,299.00
           C 1027.59,301.03 1030.45,304.30 1030.39,307.00
             1030.33,309.39 1028.50,311.29 1026.96,312.91
             1026.96,312.91 1021.76,318.17 1021.76,318.17
             1019.51,320.88 1015.74,327.55 1012.83,328.92
             1009.34,330.56 1007.05,327.34 1005.12,324.98
             1001.31,320.32 989.69,307.41 989.26,302.04
             989.16,300.71 989.31,299.62 990.00,298.46
             991.62,295.71 1003.81,286.72 1006.99,284.95
             1015.45,282.81 1021.51,293.29 1026.00,299.00 Z
           M 1056.83,338.60
           C 1058.68,339.88 1060.97,343.16 1062.45,345.00
             1066.03,349.47 1072.42,355.83 1071.81,362.00
             1071.33,366.91 1059.53,375.78 1055.00,377.30
             1047.00,380.00 1044.35,374.35 1040.00,369.01
             1040.00,369.01 1033.33,360.91 1033.33,360.91
             1031.59,358.55 1028.01,354.27 1028.42,351.21
             1028.78,348.55 1031.86,347.37 1034.00,346.45
             1034.00,346.45 1051.00,337.71 1051.00,337.71
             1053.54,337.34 1054.50,336.99 1056.83,338.60 Z
           M 990.00,338.00
           C 990.00,338.00 990.00,341.00 990.00,341.00
             990.00,341.00 987.00,341.00 987.00,341.00
             987.00,341.00 987.00,338.00 987.00,338.00
             987.00,338.00 990.00,338.00 990.00,338.00 Z
           M 911.00,417.02
           C 914.00,417.00 921.79,416.02 923.83,417.02
             927.39,418.89 930.39,425.67 932.79,429.00
             932.79,429.00 952.01,452.00 952.01,452.00
             964.17,464.48 978.41,476.36 993.00,485.92
             993.00,485.92 1005.00,492.89 1005.00,492.89
             1014.16,498.49 1023.18,504.38 1033.00,508.69
             1043.95,513.50 1067.07,520.00 1079.00,521.70
             1079.00,521.70 1087.00,522.28 1087.00,522.28
             1094.05,523.13 1096.44,523.99 1104.00,524.00
             1104.00,524.00 1132.00,524.00 1132.00,524.00
             1140.66,523.99 1149.50,521.89 1158.00,520.20
             1158.00,520.20 1178.00,516.28 1178.00,516.28
             1178.00,516.28 1202.00,506.74 1202.00,506.74
             1202.00,506.74 1216.00,501.21 1216.00,501.21
             1216.00,501.21 1233.00,493.00 1233.00,493.00
             1233.00,493.00 1216.79,471.00 1216.79,471.00
             1213.69,466.27 1211.80,464.75 1211.00,459.00
             1211.00,459.00 1260.00,454.17 1260.00,454.17
             1260.00,454.17 1294.00,451.91 1294.00,451.91
             1294.00,451.91 1319.00,450.00 1319.00,450.00
             1318.38,456.77 1311.66,469.29 1308.48,476.00
             1308.48,476.00 1285.25,526.00 1285.25,526.00
             1285.25,526.00 1277.59,542.00 1277.59,542.00
             1276.63,543.64 1275.20,547.41 1272.96,547.41
             1270.46,547.41 1267.37,541.91 1266.00,540.00
             1260.80,532.75 1252.92,522.62 1249.00,515.00
             1233.41,526.94 1211.63,535.10 1193.00,541.03
             1193.00,541.03 1183.00,544.48 1183.00,544.48
             1183.00,544.48 1171.00,546.45 1171.00,546.45
             1171.00,546.45 1158.00,549.56 1158.00,549.56
             1158.00,549.56 1149.00,550.17 1149.00,550.17
             1119.07,553.03 1088.55,553.23 1059.00,546.64
             1059.00,546.64 1045.00,542.15 1045.00,542.15
             1045.00,542.15 1031.00,538.70 1031.00,538.70
             1021.01,535.31 1004.62,527.23 995.00,522.26
             975.80,512.33 957.56,500.19 942.04,485.09
             925.09,468.61 913.69,456.50 901.20,436.00
             897.45,429.84 892.44,424.19 891.00,417.02
             891.00,417.02 911.00,417.02 911.00,417.02 Z
           M 417.00,417.00
           C 419.37,417.00 423.52,416.75 425.47,418.17
             427.24,419.47 427.98,422.95 428.67,425.00
             428.67,425.00 433.92,438.00 433.92,438.00
             433.92,438.00 458.99,504.00 458.99,504.00
             461.61,511.41 469.39,529.37 469.91,536.00
             470.43,542.71 468.11,548.63 461.00,550.86
             459.14,551.08 455.99,551.00 454.00,550.86
             454.00,550.86 87.00,550.86 87.00,550.86
             84.49,551.00 81.40,551.11 79.01,550.35
             73.38,548.57 69.87,542.80 70.33,537.00
             70.76,531.61 79.31,511.21 81.80,505.00
             81.80,505.00 104.54,446.00 104.54,446.00
             104.54,446.00 107.58,437.00 107.58,437.00
             108.96,433.65 114.09,419.45 116.30,418.02
             118.21,416.79 121.76,417.00 124.00,417.00
             124.00,417.00 145.00,417.00 145.00,417.00
             144.55,425.10 136.11,443.49 132.81,452.00
             132.81,452.00 121.55,482.00 121.55,482.00
             121.55,482.00 106.00,524.00 106.00,524.00
             106.00,524.00 436.00,524.00 436.00,524.00
             436.00,524.00 429.09,506.00 429.09,506.00
             429.09,506.00 408.83,454.00 408.83,454.00
             405.53,445.68 396.43,424.77 396.00,417.00
             396.00,417.00 417.00,417.00 417.00,417.00 Z
           M 843.00,417.00
           C 845.28,417.00 848.76,416.79 850.73,418.02
             853.03,419.47 853.83,422.57 854.67,425.00
             854.67,425.00 860.12,439.00 860.12,439.00
             860.12,439.00 868.91,461.00 868.91,461.00
             868.91,461.00 871.10,468.00 871.10,468.00
             871.10,468.00 878.89,487.00 878.89,487.00
             878.89,487.00 885.19,505.00 885.19,505.00
             888.01,512.29 895.72,530.15 895.96,537.00
             896.12,541.79 894.70,548.03 889.82,550.13
             887.49,551.13 883.55,551.00 881.00,551.00
             881.00,551.00 586.00,551.00 586.00,551.00
             586.00,551.00 511.00,551.00 511.00,551.00
             502.07,550.88 496.67,546.50 497.53,537.00
             497.95,532.28 503.57,518.42 505.46,513.00
             505.46,513.00 531.78,444.00 531.78,444.00
             531.78,444.00 538.42,426.00 538.42,426.00
             539.26,423.81 540.76,419.34 542.65,417.99
             544.39,416.75 547.90,417.00 550.00,417.00
             550.00,417.00 572.00,417.00 572.00,417.00
             572.00,417.00 556.81,459.00 556.81,459.00
             556.81,459.00 541.46,499.00 541.46,499.00
             541.46,499.00 532.00,524.00 532.00,524.00
             532.00,524.00 748.00,524.00 748.00,524.00
             748.00,524.00 818.00,524.00 818.00,524.00
             818.00,524.00 861.00,523.00 861.00,523.00
             859.05,514.65 854.53,505.17 851.42,497.00
             851.42,497.00 834.14,452.00 834.14,452.00
             830.87,444.08 822.37,424.52 822.00,417.00
             822.00,417.00 843.00,417.00 843.00,417.00 Z
           M 203.00,665.31
           C 208.17,667.30 214.99,666.34 217.68,660.96
             223.10,650.10 203.88,648.87 198.04,645.86
             189.85,641.65 187.64,631.68 189.24,623.17
             192.29,606.95 219.07,605.15 226.77,614.33
             229.82,617.96 229.00,623.52 229.00,628.00
             220.59,626.67 208.76,613.19 201.84,626.01
             199.38,630.59 204.09,634.90 208.02,636.44
             214.13,638.84 229.76,639.35 230.90,656.00
             231.52,665.00 227.32,674.18 218.00,676.76
             215.45,677.17 209.83,677.03 207.00,676.76
             202.34,676.94 194.76,675.73 191.99,671.47
             190.55,669.25 191.00,662.81 191.00,660.00
             198.39,661.41 197.70,663.28 203.00,665.31 Z
           M 822.57,614.50
           C 825.27,616.79 828.18,620.71 829.52,624.00
             832.74,631.88 832.81,651.92 830.05,660.00
             828.34,665.01 823.96,671.35 819.54,674.29
             814.42,677.70 805.99,677.08 800.00,677.00
             790.66,676.87 787.13,674.66 782.14,667.00
             780.70,664.77 779.11,662.60 778.43,660.00
             777.30,655.75 776.95,644.69 777.00,640.00
             777.04,636.74 777.93,626.69 779.13,624.00
             782.77,615.84 787.91,612.48 796.00,609.63
             803.98,608.04 816.16,609.05 822.57,614.50 Z
           M 1071.01,670.39
           C 1065.63,678.38 1044.41,679.03 1037.09,673.89
             1027.90,667.44 1025.01,652.61 1025.01,642.00
             1025.01,632.89 1028.01,619.63 1035.43,613.73
             1043.43,607.37 1063.58,606.42 1070.26,615.33
             1072.71,618.60 1072.00,625.92 1072.00,630.00
             1063.80,628.67 1059.55,618.58 1050.00,621.20
             1032.39,626.03 1032.50,663.99 1051.00,666.43
             1059.61,667.57 1064.35,659.24 1072.00,658.00
             1072.00,660.88 1072.50,668.18 1071.01,670.39 Z
           M 1153.98,670.61
           C 1149.60,677.51 1132.07,678.48 1125.00,676.35
             1122.79,675.69 1119.02,673.60 1117.27,672.10
             1113.23,668.63 1108.83,655.40 1108.09,650.00
             1108.09,650.00 1108.09,640.00 1108.09,640.00
             1108.09,632.70 1111.55,619.36 1117.21,614.49
             1125.51,607.35 1146.71,605.98 1153.40,616.04
             1155.68,619.46 1155.00,625.91 1155.00,630.00
             1145.77,628.59 1142.79,618.79 1133.00,621.29
             1116.26,625.57 1115.55,656.82 1129.04,664.91
             1140.20,671.61 1146.90,659.31 1155.00,658.00
             1155.00,661.01 1155.48,668.25 1153.98,670.61 Z
           M 96.00,610.00
           C 99.88,610.01 103.06,609.37 105.29,613.15
             105.29,613.15 113.72,640.00 113.72,640.00
             116.58,649.51 123.59,667.20 124.00,676.00
             121.43,676.00 115.52,676.40 113.51,674.98
             110.10,672.56 110.64,663.29 105.78,659.60
             102.41,657.04 86.60,656.92 83.85,660.31
             82.11,662.46 79.63,672.87 79.00,676.00
             79.00,676.00 67.00,676.00 67.00,676.00
             67.40,667.50 69.72,663.76 72.33,656.00
             72.33,656.00 87.00,610.00 87.00,610.00
             87.00,610.00 96.00,610.00 96.00,610.00 Z
           M 143.00,610.00
           C 143.00,610.00 143.00,651.00 143.00,651.00
             143.06,655.64 143.50,660.26 147.22,663.57
             154.30,669.87 168.73,666.83 169.00,651.00
             169.00,651.00 169.00,610.00 169.00,610.00
             169.00,610.00 180.00,610.00 180.00,610.00
             180.00,610.00 180.00,655.00 180.00,655.00
             179.99,663.15 178.07,670.16 170.72,674.91
             167.20,677.19 163.01,676.99 159.00,677.00
             149.41,677.01 143.17,678.40 136.39,669.98
             131.99,664.52 131.03,658.77 131.00,652.00
             131.00,652.00 131.00,610.00 131.00,610.00
             131.00,610.00 143.00,610.00 143.00,610.00 Z
           M 280.00,610.00
           C 280.00,610.00 280.00,621.00 280.00,621.00
             280.00,621.00 262.00,621.00 262.00,621.00
             262.00,621.00 262.00,676.00 262.00,676.00
             262.00,676.00 250.00,676.00 250.00,676.00
             250.00,676.00 250.00,621.00 250.00,621.00
             246.61,621.00 235.00,621.90 233.02,619.40
             231.64,617.66 232.00,612.28 232.00,610.00
             232.00,610.00 280.00,610.00 280.00,610.00 Z
           M 323.83,613.81
           C 332.43,620.05 332.68,638.48 324.61,645.30
             321.75,647.72 315.69,648.50 312.00,649.00
             312.00,649.00 327.77,670.04 327.77,670.04
             327.77,670.04 329.00,676.00 329.00,676.00
             329.00,676.00 317.21,674.98 317.21,674.98
             317.21,674.98 311.30,667.58 311.30,667.58
             311.30,667.58 297.00,647.00 297.00,647.00
             297.00,647.00 297.00,676.00 297.00,676.00
             297.00,676.00 286.00,676.00 286.00,676.00
             286.00,676.00 286.00,610.00 286.00,610.00
             295.93,610.00 315.96,608.12 323.83,613.81 Z
           M 363.00,610.00
           C 365.15,610.00 368.71,609.77 370.49,611.02
             373.13,612.87 375.26,621.74 376.43,625.00
             376.43,625.00 385.69,653.00 385.69,653.00
             388.85,662.03 391.52,665.64 392.00,676.00
             389.54,676.00 383.58,676.42 381.70,675.01
             378.45,672.57 378.02,662.54 374.57,659.60
             372.69,657.98 370.33,658.05 368.00,658.00
             364.71,657.94 354.71,657.49 352.28,659.02
             349.00,661.08 346.79,672.10 346.00,676.00
             346.00,676.00 335.00,676.00 335.00,676.00
             335.44,666.47 337.77,662.70 340.67,654.00
             340.67,654.00 354.00,610.00 354.00,610.00
             354.00,610.00 363.00,610.00 363.00,610.00 Z
           M 412.00,610.00
           C 412.00,610.00 412.00,665.00 412.00,665.00
             412.00,665.00 436.00,665.00 436.00,665.00
             436.00,665.00 436.00,676.00 436.00,676.00
             436.00,676.00 401.00,676.00 401.00,676.00
             401.00,676.00 401.00,610.00 401.00,610.00
             401.00,610.00 412.00,610.00 412.00,610.00 Z
           M 454.00,610.00
           C 454.00,610.00 454.00,676.00 454.00,676.00
             454.00,676.00 443.00,676.00 443.00,676.00
             443.00,676.00 443.00,610.00 443.00,610.00
             443.00,610.00 454.00,610.00 454.00,610.00 Z
           M 490.00,610.00
           C 492.18,610.00 495.73,609.78 497.57,611.02
             499.99,612.66 502.29,621.87 503.41,625.00
             503.41,625.00 514.02,657.00 514.02,657.00
             516.58,665.17 518.58,666.82 519.00,676.00
             519.00,676.00 508.70,675.01 508.70,675.01
             508.70,675.01 500.72,659.02 500.72,659.02
             500.72,659.02 477.00,658.00 477.00,658.00
             477.00,658.00 473.00,676.00 473.00,676.00
             473.00,676.00 462.00,676.00 462.00,676.00
             462.85,665.89 465.92,659.32 469.00,650.00
             469.00,650.00 481.00,610.00 481.00,610.00
             481.00,610.00 490.00,610.00 490.00,610.00 Z
           M 536.00,610.00
           C 544.58,610.16 545.51,616.00 548.77,623.00
             548.77,623.00 566.00,660.00 566.00,660.00
             566.00,660.00 566.00,610.00 566.00,610.00
             566.00,610.00 577.00,610.00 577.00,610.00
             577.00,610.00 577.00,676.00 577.00,676.00
             577.00,676.00 566.00,676.00 566.00,676.00
             557.76,675.86 557.05,669.79 553.98,663.00
             553.98,663.00 537.00,627.00 537.00,627.00
             537.00,627.00 537.00,676.00 537.00,676.00
             537.00,676.00 526.00,676.00 526.00,676.00
             526.00,676.00 526.00,610.00 526.00,610.00
             526.00,610.00 536.00,610.00 536.00,610.00 Z
           M 650.00,610.00
           C 650.00,610.00 661.27,646.00 661.27,646.00
             661.27,646.00 664.43,658.00 664.43,658.00
             664.43,658.00 669.00,676.00 669.00,676.00
             666.52,676.00 660.60,676.42 658.70,675.01
             655.36,672.54 654.61,662.68 650.73,659.60
             647.45,657.01 632.76,658.00 628.00,658.00
             627.47,661.43 624.55,673.96 621.57,675.43
             619.92,676.24 614.09,676.00 612.00,676.00
             612.87,665.68 619.00,651.31 622.33,641.00
             622.33,641.00 625.24,631.00 625.24,631.00
             627.93,623.45 630.37,618.08 632.00,610.00
             632.00,610.00 650.00,610.00 650.00,610.00 Z
           M 716.00,610.00
           C 716.00,610.00 716.00,621.00 716.00,621.00
             716.00,621.00 696.00,621.00 696.00,621.00
             693.63,621.04 690.42,620.96 688.60,622.74
             685.64,625.64 686.70,633.59 690.23,635.69
             693.80,637.81 710.92,637.00 716.00,637.00
             716.00,637.00 716.00,648.00 716.00,648.00
             716.00,648.00 696.00,648.00 696.00,648.00
             693.65,648.02 690.39,647.81 688.60,649.60
             686.07,652.13 686.20,661.75 689.31,663.83
             691.41,665.22 695.52,665.00 698.00,665.00
             698.00,665.00 716.00,665.00 716.00,665.00
             716.00,665.00 716.00,676.00 716.00,676.00
             716.00,676.00 675.00,676.00 675.00,676.00
             675.00,676.00 675.00,610.00 675.00,610.00
             675.00,610.00 716.00,610.00 716.00,610.00 Z
           M 765.64,614.64
           C 772.19,620.39 771.37,637.67 765.64,643.78
             762.21,647.39 756.75,648.57 752.00,649.00
             757.51,656.76 768.03,666.82 769.00,676.00
             769.00,676.00 757.18,674.98 757.18,674.98
             757.18,674.98 749.97,666.04 749.97,666.04
             749.97,666.04 737.00,648.00 737.00,648.00
             737.00,648.00 737.00,676.00 737.00,676.00
             737.00,676.00 726.00,676.00 726.00,676.00
             726.00,676.00 726.00,610.00 726.00,610.00
             736.14,610.00 758.11,607.98 765.64,614.64 Z
           M 866.00,610.00
           C 871.01,610.06 877.92,610.95 881.70,614.56
             884.12,616.86 885.46,621.74 885.81,625.00
             886.07,627.40 885.87,629.68 885.21,632.00
             883.29,638.74 880.65,638.85 878.00,644.00
             880.95,645.21 882.87,646.20 884.57,649.09
             886.51,652.40 886.60,664.44 885.15,668.00
             884.14,670.45 882.28,672.56 879.96,673.84
             876.85,675.56 871.53,675.95 868.00,676.00
             868.00,676.00 840.00,676.00 840.00,676.00
             840.00,676.00 840.00,610.00 840.00,610.00
             840.00,610.00 866.00,610.00 866.00,610.00 Z
           M 921.00,610.00
           C 923.14,610.00 926.71,609.77 928.49,611.02
             931.09,612.84 933.46,622.70 934.42,626.00
             934.42,626.00 944.72,659.00 944.72,659.00
             946.91,666.19 948.63,667.99 949.00,676.00
             949.00,676.00 938.00,676.00 938.00,676.00
             938.00,676.00 932.44,659.60 932.44,659.60
             932.44,659.60 924.00,658.00 924.00,658.00
             924.00,658.00 908.00,658.00 908.00,658.00
             908.00,658.00 904.00,676.00 904.00,676.00
             904.00,676.00 893.00,676.00 893.00,676.00
             893.41,667.66 896.77,659.86 899.33,652.00
             899.33,652.00 912.00,610.00 912.00,610.00
             912.00,610.00 921.00,610.00 921.00,610.00 Z
           M 998.00,610.00
           C 998.00,610.00 998.00,621.00 998.00,621.00
             998.00,621.00 980.00,621.00 980.00,621.00
             980.00,621.00 980.00,676.00 980.00,676.00
             980.00,676.00 969.00,676.00 969.00,676.00
             969.00,676.00 969.00,637.00 969.00,637.00
             969.00,633.02 969.90,625.31 966.69,622.60
             963.89,620.24 954.80,621.00 951.00,621.00
             951.00,621.00 951.00,610.00 951.00,610.00
             951.00,610.00 998.00,610.00 998.00,610.00 Z
           M 1016.00,610.00
           C 1016.00,610.00 1016.00,676.00 1016.00,676.00
             1016.00,676.00 1005.00,676.00 1005.00,676.00
             1005.00,676.00 1005.00,610.00 1005.00,610.00
             1005.00,610.00 1016.00,610.00 1016.00,610.00 Z
           M 1176.00,610.00
           C 1176.00,610.00 1176.00,665.00 1176.00,665.00
             1176.00,665.00 1200.00,665.00 1200.00,665.00
             1200.00,665.00 1200.00,676.00 1200.00,676.00
             1200.00,676.00 1165.00,676.00 1165.00,676.00
             1165.00,676.00 1165.00,610.00 1165.00,610.00
             1165.00,610.00 1176.00,610.00 1176.00,610.00 Z
           M 1218.00,610.00
           C 1218.00,610.00 1218.00,638.00 1218.00,638.00
             1218.00,644.11 1217.56,651.15 1219.30,657.00
             1221.81,665.42 1231.38,669.78 1238.95,664.42
             1244.68,660.35 1244.99,652.36 1245.00,646.00
             1245.00,646.00 1245.00,610.00 1245.00,610.00
             1245.00,610.00 1256.00,610.00 1256.00,610.00
             1256.00,610.00 1256.00,652.00 1256.00,652.00
             1255.99,659.40 1255.34,666.24 1249.81,671.82
             1247.99,673.65 1245.46,675.47 1243.00,676.30
             1240.76,677.06 1238.34,676.99 1236.00,677.00
             1227.03,677.05 1217.68,678.33 1211.70,669.96
             1208.33,665.24 1207.07,657.70 1207.00,652.00
             1207.00,652.00 1207.00,610.00 1207.00,610.00
             1207.00,610.00 1218.00,610.00 1218.00,610.00 Z
           M 1305.98,612.07
           C 1308.35,613.18 1310.29,614.78 1311.69,617.09
             1313.49,620.66 1313.67,632.39 1311.69,635.99
             1310.35,638.86 1307.45,640.97 1305.00,643.00
             1308.20,644.72 1311.27,646.64 1312.98,650.00
             1315.43,654.84 1314.90,669.67 1307.95,673.70
             1304.69,675.59 1299.71,675.95 1296.00,676.00
             1296.00,676.00 1268.00,676.00 1268.00,676.00
             1268.00,676.00 1268.00,610.00 1268.00,610.00
             1276.61,610.00 1299.16,608.87 1305.98,612.07 Z
           M 788.72,650.00
           C 789.03,652.37 789.09,654.75 790.01,657.00
             792.41,662.87 798.64,667.01 805.00,666.62
             816.30,665.92 819.12,657.51 820.28,648.00
             821.77,635.77 819.39,620.58 804.00,620.39
             788.69,622.75 787.02,637.12 788.72,650.00 Z
           M 313.92,638.23
           C 319.46,635.28 320.49,626.90 313.92,622.93
             309.80,620.41 301.87,621.00 297.00,621.00
             297.00,621.00 297.00,640.00 297.00,640.00
             301.90,640.00 309.58,640.52 313.92,638.23 Z
           M 754.89,637.70
           C 760.92,634.05 759.50,626.29 753.96,622.93
             749.79,620.41 741.87,621.00 737.00,621.00
             737.00,621.00 737.00,640.00 737.00,640.00
             742.16,640.00 750.42,640.41 754.89,637.70 Z
           M 851.60,623.31
           C 850.46,625.64 850.59,634.27 852.74,636.02
             854.98,637.82 865.29,637.03 868.00,636.02
             876.37,632.95 874.52,625.59 870.77,623.31
             866.88,620.94 857.67,620.54 853.31,621.60
             852.56,622.24 852.34,621.80 851.60,623.31 Z
           M 1287.00,637.00
           C 1289.50,637.00 1292.60,637.08 1295.00,636.44
             1303.04,634.31 1303.42,627.21 1298.85,623.56
             1295.60,620.96 1290.00,620.90 1286.00,621.02
             1283.70,621.08 1280.77,621.05 1279.79,623.43
             1278.18,626.20 1279.45,633.91 1279.79,637.00
             1279.79,637.00 1287.00,637.00 1287.00,637.00 Z
           M 633.00,647.00
           C 633.00,647.00 649.00,647.00 649.00,647.00
             649.00,647.00 641.00,622.00 641.00,622.00
             638.06,626.81 633.82,641.22 633.00,647.00 Z
           M 88.00,647.00
           C 88.00,647.00 104.00,647.00 104.00,647.00
             104.00,647.00 96.00,623.00 96.00,623.00
             93.25,627.24 88.46,641.95 88.00,647.00 Z
           M 355.00,647.00
           C 355.00,647.00 371.00,647.00 371.00,647.00
             371.00,647.00 364.00,624.00 364.00,624.00
             360.81,628.12 355.86,641.75 355.00,647.00 Z
           M 482.00,646.00
           C 482.00,646.00 498.00,647.00 498.00,647.00
             498.00,647.00 491.00,624.00 491.00,624.00
             487.83,628.11 483.23,640.74 482.00,646.00 Z
           M 913.00,647.00
           C 913.00,647.00 929.00,647.00 929.00,647.00
             929.00,647.00 922.00,624.00 922.00,624.00
             918.65,628.34 914.00,641.46 913.00,647.00 Z
           M 874.06,653.21
           C 871.05,646.07 857.34,647.00 851.00,647.00
             851.00,647.00 851.00,666.00 851.00,666.00
             863.44,666.00 861.99,666.84 874.06,663.00
             874.39,660.01 875.35,656.05 874.06,653.21 Z
           M 1286.00,666.00
           C 1289.11,666.00 1291.93,666.04 1295.00,665.37
             1304.71,663.24 1303.62,653.83 1300.44,650.70
             1297.11,647.42 1283.56,645.68 1280.60,648.02
             1278.90,649.37 1279.04,652.05 1279.00,654.00
             1279.00,654.00 1279.00,666.00 1279.00,666.00
             1279.00,666.00 1286.00,666.00 1286.00,666.00 Z" />
</svg>
