<svg xmlns:dc="http://purl.org/dc/elements/1.1/" xmlns:cc="http://creativecommons.org/ns#" xmlns:rdf="http://www.w3.org/1999/02/22-rdf-syntax-ns#" xmlns:svg="http://www.w3.org/2000/svg" xmlns="http://www.w3.org/2000/svg" version="1.1" width="1391" height="743" id="svg2"><defs id="defs4" /><metadata id="metadata7"><rdf:RDF><cc:Work rdf:about=""><dc:format>image/svg+xml</dc:format><dc:type rdf:resource="http://purl.org/dc/dcmitype/StillImage" /><dc:title></dc:title></cc:Work></rdf:RDF></metadata><g transform="translate(-143.28,-292.36)" id="layer1"><rect width="1391.42" height="740" x="0" y="3" transform="translate(143.28,292.36)" id="rect3167" style="fill:#032e9e;fill-opacity:1;stroke:none" /><path d="m 303.74,682.45 c 0,0 6.99,-19.44 6.99,-19.44 0,0 15.21,-38.88 15.21,-38.88 0,0 21.25,-56.37 21.25,-56.37 0,0 49.31,-127.33 49.31,-127.33 0,0 15.33,-39.85 15.33,-39.85 0,0 7.95,-21.38 7.95,-21.38 1.26,-3.02 9.53,-14.42 12.15,-15.65 2.13,-1.00 6.09,-0.86 8.48,-0.86 0,0 80.67,0 80.67,0 0,0 13.60,0 13.60,0 8.63,0.01 11.53,1.37 11.66,10.69 0.03,3.03 0.37,9.72 -1.27,12.14 -2.39,3.49 -9.53,3.40 -13.30,3.41 0,0 -79.70,0 -79.70,0 0,0 23.24,61.23 23.24,61.23 0,0 22.33,56.37 22.33,56.37 0,0 13.19,35.96 13.19,35.96 0,0 12.42,30.13 12.42,30.13 0,0 12.73,34.99 12.73,34.99 0,0 24.94,65.12 24.94,65.12 3.50,8.80 12.87,30.81 13.60,38.88 0,0 -21.38,0 -21.38,0 0,0 -7.28,-0.99 -7.28,-0.99 0,0 -7.39,-17.47 -7.39,-17.47 0,0 -8.40,-21.38 -8.40,-21.38 0,0 -11.90,-32.07 -11.90,-32.07 0,0 -11.22,-30.13 -11.22,-30.13 0,0 -11.69,-29.16 -11.69,-29.16 0,0 -20.28,-53.46 -20.28,-53.46 0,0 -7.25,-17.49 -7.25,-17.49 0,0 -2.78,-8.74 -2.78,-8.74 0,0 -2.77,-5.83 -2.77,-5.83 0,0 -7.57,-21.38 -7.57,-21.38 0,0 -15.47,-39.85 -15.47,-39.85 0,0 -5.50,-14.58 -5.50,-14.58 0,0 -10.28,29.16 -10.28,29.16 0,0 -19.41,50.54 -19.41,50.54 0,0 -4.77,13.60 -4.77,13.60 0,0 -38.02,98.17 -38.02,98.17 0,0 -6.97,18.46 -6.97,18.46 0,0 -2.06,6.80 -2.06,6.80 0,0 -20.19,51.51 -20.19,51.51 0,0 -9.07,24.3 -9.07,24.3 0,0 -29.16,0 -29.16,0 0.45,-8.12 6.96,-21.19 10.05,-29.16 z m 420.09,-15.55 c 0,0 23.58,-62.20 23.58,-62.20 0,0 48.55,-126.36 48.55,-126.36 0,0 14.52,-37.90 14.52,-37.90 0,0 9.10,-24.3 9.10,-24.3 0,0 12.96,-33.04 12.96,-33.04 0,0 3.30,-7.75 3.30,-7.75 1.53,-2.57 9.24,-10.90 11.87,-11.93 2.14,-0.84 5.43,-0.71 7.75,-0.71 0,0 79.70,0 79.70,0 5.07,0 20.44,-1.33 23.58,2.36 1.86,2.18 1.67,5.61 1.69,8.33 0.02,3.01 0.44,9.84 -1.13,12.22 -2.38,3.58 -8.67,3.31 -12.47,3.32 0,0 -80.67,0 -80.67,0 0,0 10.28,26.24 10.28,26.24 0,0 35.92,93.31 35.92,93.31 0,0 11.92,32.07 11.92,32.07 0,0 19.37,48.87 19.37,48.87 0,0 6.79,19.16 6.79,19.16 0,0 26.39,69.01 26.39,69.01 2.99,7.68 11.37,26.93 11.77,34.02 0,0 -29.16,0 -29.16,0 0,0 -3.50,-8.74 -3.50,-8.74 0,0 -10.66,-29.16 -10.66,-29.16 0,0 -32.03,-82.62 -32.03,-82.62 0,0 -13.59,-36.93 -13.59,-36.93 0,0 -17.09,-42.76 -17.09,-42.76 0,0 -2.08,-6.80 -2.08,-6.80 0,0 -13.59,-34.99 -13.59,-34.99 0,0 -19.18,-50.54 -19.18,-50.54 0,0 -8.26,24.3 -8.26,24.3 0,0 -11.09,29.16 -11.09,29.16 0,0 -6.36,15.55 -6.36,15.55 0,0 -16.01,41.79 -16.01,41.79 0,0 -21.38,56.37 -21.38,56.37 0,0 -23.25,61.23 -23.25,61.23 0,0 -18.39,48.6 -18.39,48.6 0,0 -6.58,14.56 -6.58,14.56 0,0 -7.23,0.99 -7.23,0.99 0,0 -21.38,0 -21.38,0 1.65,-10.51 11.87,-33.78 16.07,-44.71 z m 309.54,44.71 c -2.21,0 -5.59,0.20 -7.51,-0.99 -2.95,-1.85 -5.24,-11.05 -6.41,-14.56 -5.07,-15.21 -3.14,-10.09 -5.81,-24.3 0,0 -3.13,-12.63 -3.13,-12.63 0,0 -0.71,-8.74 -0.71,-8.74 0,0 -2.64,-32.07 -2.64,-32.07 -0.18,-16.35 3.26,-44.25 7.03,-60.26 0,0 4.48,-14.58 4.48,-14.58 0,0 2.74,-11.66 2.74,-11.66 0,0 16.45,-36.52 16.45,-36.52 8.20,-15.03 16.06,-26.03 26.69,-39.32 0,0 5.90,-7.73 5.90,-7.73 8.35,-9.40 18.30,-17.07 28.05,-24.94 0,0 17.50,-14.24 17.50,-14.24 0,0 9.72,-4.98 9.72,-4.98 0,0 22.35,-12.57 22.35,-12.57 0,0 14.58,-6.29 14.58,-6.29 0,0 7.77,-3.47 7.77,-3.47 0,0 11.66,-3.20 11.66,-3.20 0,0 9.72,-3.54 9.72,-3.54 0,0 26.24,-5.27 26.24,-5.27 0,0 19.44,-1.30 19.44,-1.30 0,0 23.32,-1.77 23.32,-1.77 0,0 9.72,0.88 9.72,0.88 0,0 19.44,1.34 19.44,1.34 11.92,1.46 37.45,7.60 48.6,11.79 3.81,1.43 19.68,7.28 21.32,9.90 1.25,1.87 0.60,4.26 0,6.21 -0.92,2.66 -6.46,15.27 -8.33,16.51 -1.04,0.69 -2.08,0.73 -3.30,0.60 0,0 -16.48,-6.09 -16.48,-6.09 0,0 -36.93,-10.57 -36.93,-10.57 0,0 -8.74,-0.72 -8.74,-0.72 -8.41,-1.03 -12.23,-2.62 -21.38,-2.63 0,0 -12.63,0 -12.63,0 -14.84,0.01 -44.88,5.59 -59.29,9.92 0,0 -21.38,8.00 -21.38,8.00 0,0 -27.21,13.16 -27.21,13.16 -6.61,4.05 -20.78,15.98 -27.21,21.38 0,0 -18.42,15.57 -18.42,15.57 0,0 -14.90,19.02 -14.90,19.02 0,0 -13.13,16.93 -13.13,16.93 -13.40,20.08 -25.68,50.24 -30.89,73.87 0,0 -3.48,28.18 -3.48,28.18 0,0 -1.46,17.49 -1.46,17.49 0,0 0.66,15.55 0.66,15.55 0.08,6.96 0.98,6.13 1.77,11.66 1.46,10.18 4.39,27.53 7.81,36.93 2.54,6.97 9.97,23.65 10.81,30.13 0,0 -22.35,0 -22.35,0 z m 177.87,-259.63 c 3.23,0.57 10.59,10.03 12.95,13.01 0,0 35.25,44.43 35.25,44.43 0,0 67.42,84.15 67.42,84.15 0,0 18.87,23.57 18.87,23.57 0,0 22.56,28.35 22.56,28.35 2.19,2.75 7.76,9.08 7.59,12.62 -0.18,3.81 -6.15,7.41 -8.98,9.51 -5.43,4.01 -23.07,19.97 -27.38,21.64 -6.24,2.41 -13.19,-7.61 -16.79,-11.71 0,0 -39.74,-43.74 -39.74,-43.74 0,0 -34.37,-37.90 -34.37,-37.90 0,0 -16.53,-23.32 -16.53,-23.32 0,0 -34.90,-49.58 -34.90,-49.58 0,0 -19.55,-27.61 -19.55,-27.61 -1.70,-2.36 -6.68,-8.55 -6.32,-11.25 0.42,-3.25 6.33,-7.29 8.83,-9.34 6.44,-5.28 22.03,-19.18 28.18,-22.84 0.69,0.02 1.25,-0.50 2.91,0 z m 36.93,27.32 c 0,0 0,2.91 0,2.91 0,0 -2.91,0 -2.91,0 0,0 0,-2.91 0,-2.91 0,0 2.91,0 2.91,0 z m 96.65,41.79 c -4.22,7.39 -18.39,21.84 -24.72,28.18 -2.33,2.33 -7.72,8.60 -10.74,9.25 -2.60,0.56 -4.11,-0.81 -5.78,-2.57 -3.04,-3.21 -12.40,-13.31 -9.71,-17.83 1.87,-3.15 9.36,-6.33 12.62,-8.23 10.30,-5.94 19.28,-13.53 31.10,-17.02 5.97,-0.91 10.94,1.72 7.23,8.23 z m -94.93,53.46 c -3.88,9.89 -0.77,18.87 10.91,19.40 12.02,0.54 23.61,-7.97 28.88,-18.42 1.59,-3.14 3.41,-8.10 2.93,-11.66 -1.33,-9.72 -12.33,-11.43 -20.15,-10.28 -9.01,3.12 -19.04,11.97 -22.57,20.97 z m 5.57,2.91 c 2.57,-8.97 12.72,-16.76 21.86,-17.91 10.91,-1.38 10.11,9.72 5.42,15.96 -7.85,10.45 -15.33,12.91 -27.77,10.69 0,-2.46 -0.16,-6.47 0.49,-8.74 z m -89.19,68.04 c 6.62,-7.95 35.83,-36.89 44.07,-43.61 0,0 14.49,-11.81 14.49,-11.81 2.22,-1.88 4.57,-4.14 7.76,-3.21 3.15,0.91 5.36,4.70 7.30,7.13 0,0 8.92,9.72 8.92,9.72 1.28,1.73 2.28,3.51 1.60,5.74 -0.86,2.84 -4.79,5.08 -7.09,6.75 0,0 -15.59,11.10 -15.59,11.10 0,0 -23.32,15.83 -23.32,15.83 -12.05,8.45 -17.05,12.49 -31.10,18.35 -10.09,4.20 -8.57,6.32 -20.41,6.36 1.44,-7.72 8.35,-16.33 13.36,-22.35 z m 2.18,-25.27 c 1.54,1.97 4.32,5.15 4.26,7.77 -0.05,2.32 -1.83,4.16 -3.33,5.74 0,0 -5.05,5.11 -5.05,5.11 -2.18,2.63 -5.85,9.11 -8.67,10.44 -3.39,1.59 -5.61,-1.53 -7.49,-3.82 -3.70,-4.52 -14.99,-17.07 -15.41,-22.29 -0.09,-1.29 0.04,-2.35 0.71,-3.47 1.57,-2.67 13.42,-11.41 16.51,-13.13 8.22,-2.08 14.11,8.10 18.47,13.65 z m 29.96,38.49 c 1.79,1.24 4.02,4.43 5.46,6.22 3.47,4.34 9.69,10.52 9.09,16.52 -0.46,4.77 -11.93,13.39 -16.33,14.87 -7.77,2.62 -10.35,-2.86 -14.58,-8.05 0,0 -6.48,-7.87 -6.48,-7.87 -1.69,-2.29 -5.17,-6.45 -4.77,-9.42 0.35,-2.58 3.34,-3.73 5.42,-4.62 0,0 16.52,-8.49 16.52,-8.49 2.46,-0.35 3.40,-0.69 5.66,0.86 z m -64.95,-0.58 c 0,0 0,2.91 0,2.91 0,0 -2.91,0 -2.91,0 0,0 0,-2.91 0,-2.91 0,0 2.91,0 2.91,0 z m -76.78,76.80 c 2.91,-0.01 10.48,-0.97 12.47,0 3.46,1.81 6.37,8.40 8.70,11.64 0,0 18.68,22.35 18.68,22.35 11.81,12.13 25.66,23.67 39.84,32.97 0,0 11.66,6.77 11.66,6.77 8.90,5.44 17.67,11.16 27.21,15.35 10.64,4.67 33.11,10.99 44.71,12.64 0,0 7.77,0.56 7.77,0.56 6.85,0.82 9.17,1.66 16.52,1.67 0,0 27.21,0 27.21,0 8.41,-0.01 17.01,-2.05 25.27,-3.69 0,0 19.44,-3.81 19.44,-3.81 0,0 23.32,-9.27 23.32,-9.27 0,0 13.60,-5.37 13.60,-5.37 0,0 16.52,-7.98 16.52,-7.98 0,0 -15.75,-21.38 -15.75,-21.38 -3.01,-4.59 -4.85,-6.07 -5.62,-11.66 0,0 47.62,-4.69 47.62,-4.69 0,0 33.04,-2.19 33.04,-2.19 0,0 24.3,-1.85 24.3,-1.85 -0.60,6.58 -7.13,18.74 -10.22,25.27 0,0 -22.57,48.6 -22.57,48.6 0,0 -7.44,15.55 -7.44,15.55 -0.93,1.59 -2.32,5.25 -4.50,5.25 -2.43,0 -5.43,-5.34 -6.76,-7.20 -5.05,-7.04 -12.71,-16.89 -16.52,-24.3 -15.15,11.60 -36.32,19.53 -54.43,25.30 0,0 -9.72,3.35 -9.72,3.35 0,0 -11.66,1.91 -11.66,1.91 0,0 -12.63,3.02 -12.63,3.02 0,0 -8.74,0.59 -8.74,0.59 -29.09,2.77 -58.75,2.97 -87.48,-3.43 0,0 -13.60,-4.36 -13.60,-4.36 0,0 -13.60,-3.35 -13.60,-3.35 -9.71,-3.29 -25.64,-11.14 -34.99,-15.97 -18.66,-9.65 -36.39,-21.45 -51.47,-36.12 -16.47,-16.01 -27.55,-27.78 -39.69,-47.71 -3.64,-5.98 -8.51,-11.47 -9.91,-18.44 0,0 19.44,0 19.44,0 z m -480.16,-0.01 c 2.30,0 6.33,-0.24 8.23,1.13 1.72,1.26 2.43,4.64 3.11,6.63 0,0 5.10,12.63 5.10,12.63 0,0 24.36,64.15 24.36,64.15 2.54,7.20 10.10,24.65 10.61,31.10 0.50,6.52 -1.74,12.27 -8.66,14.44 -1.80,0.21 -4.86,0.13 -6.80,0 0,0 -356.72,0 -356.72,0 -2.43,0.13 -5.44,0.24 -7.76,-0.49 -5.47,-1.73 -8.88,-7.33 -8.43,-12.97 0.41,-5.23 8.72,-25.06 11.14,-31.10 0,0 22.10,-57.34 22.10,-57.34 0,0 2.95,-8.74 2.95,-8.74 1.34,-3.25 6.32,-17.05 8.47,-18.44 1.85,-1.19 5.30,-0.99 7.48,-0.99 0,0 20.41,0 20.41,0 -0.43,7.87 -8.64,25.74 -11.84,34.02 0,0 -10.94,29.16 -10.94,29.16 0,0 -15.11,40.82 -15.11,40.82 0,0 320.76,0 320.76,0 0,0 -6.71,-17.49 -6.71,-17.49 0,0 -19.69,-50.54 -19.69,-50.54 -3.20,-8.08 -12.05,-28.41 -12.47,-35.96 0,0 20.41,0 20.41,0 z m 414.07,0 c 2.21,0 5.59,-0.20 7.51,0.99 2.23,1.40 3.01,4.42 3.82,6.78 0,0 5.29,13.60 5.29,13.60 0,0 8.54,21.38 8.54,21.38 0,0 2.12,6.80 2.12,6.80 0,0 7.57,18.46 7.57,18.46 0,0 6.12,17.49 6.12,17.49 2.74,7.08 10.23,24.44 10.46,31.10 0.15,4.65 -1.22,10.72 -5.96,12.76 -2.26,0.97 -6.09,0.84 -8.57,0.84 0,0 -286.74,0 -286.74,0 0,0 -72.9,0 -72.9,0 -8.67,-0.11 -13.92,-4.37 -13.09,-13.60 0.40,-4.58 5.87,-18.05 7.70,-23.32 0,0 25.58,-67.06 25.58,-67.06 0,0 6.45,-17.49 6.45,-17.49 0.81,-2.12 2.27,-6.47 4.11,-7.78 1.69,-1.20 5.10,-0.96 7.14,-0.96 0,0 21.38,0 21.38,0 0,0 -14.76,40.82 -14.76,40.82 0,0 -14.92,38.88 -14.92,38.88 0,0 -9.19,24.3 -9.19,24.3 0,0 209.95,0 209.95,0 0,0 68.03,0 68.03,0 0,0 41.79,-0.97 41.79,-0.97 -1.89,-8.11 -6.28,-17.33 -9.31,-25.27 0,0 -16.79,-43.74 -16.79,-43.74 -3.17,-7.69 -11.44,-26.71 -11.80,-34.02 0,0 20.41,0 20.41,0 z m -622.08,241.35 c 5.02,1.93 11.65,1.00 14.26,-4.22 5.26,-10.55 -13.41,-11.75 -19.09,-14.67 -7.96,-4.09 -10.10,-13.78 -8.55,-22.05 2.96,-15.76 28.99,-17.51 36.47,-8.59 2.96,3.52 2.16,8.93 2.16,13.28 -8.17,-1.29 -19.67,-14.39 -26.39,-1.93 -2.39,4.45 2.18,8.64 6.00,10.13 5.93,2.33 21.13,2.82 22.23,19.01 0.60,8.74 -3.47,17.67 -12.53,20.17 -2.47,0.39 -7.94,0.26 -10.69,0 -4.52,0.17 -11.89,-1.00 -14.58,-5.14 -1.39,-2.15 -0.96,-8.41 -0.96,-11.14 7.18,1.37 6.51,3.18 11.66,5.16 z m 602.22,-49.38 c 2.62,2.22 5.45,6.03 6.75,9.23 3.12,7.65 3.19,27.13 0.51,34.99 -1.66,4.86 -5.91,11.03 -10.21,13.88 -4.97,3.31 -13.17,2.71 -18.99,2.63 -9.07,-0.12 -12.50,-2.27 -17.35,-9.72 -1.39,-2.16 -2.94,-4.27 -3.60,-6.80 -1.09,-4.13 -1.43,-14.88 -1.38,-19.44 0.03,-3.16 0.90,-12.93 2.07,-15.55 3.53,-7.93 8.53,-11.19 16.39,-13.96 7.75,-1.54 19.59,-0.56 25.82,4.73 z m 241.48,54.32 c -5.22,7.76 -25.85,8.39 -32.97,3.40 -8.93,-6.26 -11.74,-20.68 -11.74,-30.99 0,-8.85 2.91,-21.74 10.12,-27.47 7.77,-6.18 27.36,-7.10 33.85,1.55 2.38,3.17 1.69,10.29 1.69,14.25 -7.97,-1.29 -12.10,-11.10 -21.38,-8.55 -17.11,4.69 -17.01,41.59 0.97,43.96 8.36,1.10 12.97,-6.98 20.41,-8.19 0,2.79 0.48,9.89 -0.96,12.04 z m 80.64,0.21 c -4.25,6.70 -21.29,7.64 -28.16,5.57 -2.14,-0.64 -5.81,-2.67 -7.51,-4.13 -3.92,-3.37 -8.20,-16.23 -8.92,-21.48 0,0 0,-9.72 0,-9.72 0,-7.09 3.36,-20.06 8.86,-24.79 8.06,-6.94 28.67,-8.27 35.17,1.50 2.21,3.32 1.55,9.59 1.55,13.56 -8.97,-1.37 -11.86,-10.89 -21.38,-8.46 -16.27,4.16 -16.96,34.53 -3.84,42.39 10.84,6.51 17.35,-5.44 25.23,-6.71 0,2.92 0.46,9.96 -0.99,12.25 z M 264.53,922.53 c 3.77,0.01 6.86,-0.61 9.02,3.06 0,0 8.19,26.09 8.19,26.09 2.77,9.24 9.59,26.43 9.99,34.99 -2.49,0 -8.24,0.38 -10.19,-0.99 -3.31,-2.35 -2.78,-11.36 -7.51,-14.94 -3.27,-2.48 -18.64,-2.60 -21.31,0.69 -1.69,2.08 -4.10,12.20 -4.71,15.25 0,0 -11.66,0 -11.66,0 0.38,-8.26 2.64,-11.89 5.18,-19.44 0,0 14.25,-44.71 14.25,-44.71 0,0 8.74,0 8.74,0 z m 45.68,0 c 0,0 0,39.85 0,39.85 0.05,4.51 0.48,9.00 4.10,12.21 6.88,6.12 20.90,3.16 21.17,-12.21 0,0 0,-39.85 0,-39.85 0,0 10.69,0 10.69,0 0,0 0,43.73 0,43.73 -0.01,7.92 -1.87,14.73 -9.02,19.35 -3.42,2.21 -7.49,2.02 -11.39,2.03 -9.32,0.01 -15.38,1.36 -21.97,-6.82 -4.27,-5.30 -5.20,-10.89 -5.23,-17.47 0,0 0,-40.82 0,-40.82 0,0 11.66,0 11.66,0 z m 133.16,0 c 0,0 0,10.69 0,10.69 0,0 -17.49,0 -17.49,0 0,0 0,53.46 0,53.46 0,0 -11.66,0 -11.66,0 0,0 0,-53.46 0,-53.46 -3.29,0 -14.58,0.87 -16.50,-1.55 -1.34,-1.69 -0.99,-6.92 -0.99,-9.13 0,0 46.65,0 46.65,0 z m 42.60,3.70 c 8.35,6.06 8.60,23.97 0.75,30.60 -2.77,2.35 -8.67,3.11 -12.25,3.59 0,0 15.32,20.45 15.32,20.45 0,0 1.19,5.79 1.19,5.79 0,0 -11.45,-0.99 -11.45,-0.99 0,0 -5.74,-7.19 -5.74,-7.19 0,0 -13.89,-20.00 -13.89,-20.00 0,0 0,28.18 0,28.18 0,0 -10.69,0 -10.69,0 0,0 0,-64.15 0,-64.15 9.65,0 29.12,-1.82 36.77,3.70 z m 38.07,-3.70 c 2.08,0 5.55,-0.22 7.28,0.99 2.56,1.79 4.63,10.41 5.77,13.58 0,0 9.00,27.21 9.00,27.21 3.07,8.77 5.66,12.28 6.13,22.35 -2.39,0 -8.18,0.40 -10.01,-0.96 -3.15,-2.37 -3.57,-12.12 -6.93,-14.97 -1.82,-1.57 -4.12,-1.50 -6.38,-1.55 -3.19,-0.05 -12.91,-0.49 -15.27,0.99 -3.18,2.00 -5.33,12.71 -6.10,16.50 0,0 -10.69,0 -10.69,0 0.42,-9.26 2.69,-12.92 5.51,-21.38 0,0 12.95,-42.76 12.95,-42.76 0,0 8.74,0 8.74,0 z m 47.62,0 c 0,0 0,53.45 0,53.45 0,0 23.32,0 23.32,0 0,0 0,10.69 0,10.69 0,0 -34.02,0 -34.02,0 0,0 0,-64.15 0,-64.15 0,0 10.69,0 10.69,0 z m 40.82,0 c 0,0 0,64.15 0,64.15 0,0 -10.69,0 -10.69,0 0,0 0,-64.15 0,-64.15 0,0 10.69,0 10.69,0 z m 34.99,0 c 2.11,0 5.56,-0.21 7.35,0.99 2.35,1.59 4.58,10.54 5.67,13.58 0,0 10.31,31.10 10.31,31.10 2.48,7.94 4.43,9.54 4.84,18.46 0,0 -10.01,-0.96 -10.01,-0.96 0,0 -7.75,-15.54 -7.75,-15.54 0,0 -23.05,-0.99 -23.05,-0.99 0,0 -3.88,17.49 -3.88,17.49 0,0 -10.69,0 -10.69,0 0.82,-9.82 3.81,-16.21 6.80,-25.27 0,0 11.66,-38.87 11.66,-38.87 0,0 8.74,0 8.74,0 z m 44.71,0 c 8.33,0.15 9.24,5.83 12.41,12.63 0,0 16.74,35.96 16.74,35.96 0,0 0,-48.59 0,-48.59 0,0 10.69,0 10.69,0 0,0 0,64.15 0,64.15 0,0 -10.69,0 -10.69,0 -8.00,-0.13 -8.69,-6.03 -11.68,-12.63 0,0 -16.50,-34.99 -16.50,-34.99 0,0 0,47.62 0,47.62 0,0 -10.69,0 -10.69,0 0,0 0,-64.15 0,-64.15 0,0 9.72,0 9.72,0 z m 110.80,0 c 0,0 10.95,34.99 10.95,34.99 0,0 3.07,11.66 3.07,11.66 0,0 4.44,17.49 4.44,17.49 -2.41,0 -8.16,0.40 -10.01,-0.96 -3.24,-2.40 -3.97,-11.98 -7.74,-14.97 -3.18,-2.51 -17.46,-1.55 -22.09,-1.55 -0.51,3.33 -3.35,15.51 -6.24,16.94 -1.60,0.78 -7.27,0.55 -9.30,0.55 0.84,-10.03 6.80,-23.99 10.04,-34.02 0,0 2.82,-9.72 2.82,-9.72 2.61,-7.33 4.98,-12.55 6.57,-20.41 0,0 17.49,0 17.49,0 z m 64.15,0 c 0,0 0,10.69 0,10.69 0,0 -19.44,0 -19.44,0 -2.30,0.03 -5.42,-0.03 -7.19,1.69 -2.87,2.81 -1.84,10.54 1.58,12.58 3.47,2.06 20.11,1.27 25.04,1.27 0,0 0,10.69 0,10.69 0,0 -19.44,0 -19.44,0 -2.28,0.01 -5.45,-0.18 -7.19,1.55 -2.45,2.45 -2.33,11.80 0.69,13.83 2.04,1.35 6.03,1.13 8.44,1.13 0,0 17.49,0 17.49,0 0,0 0,10.69 0,10.69 0,0 -39.85,0 -39.85,0 0,0 0,-64.15 0,-64.15 0,0 39.85,0 39.85,0 z m 48.25,4.51 c 6.36,5.58 5.56,22.38 0,28.32 -3.33,3.50 -8.64,4.65 -13.25,5.07 5.35,7.54 15.58,17.32 16.52,26.24 0,0 -11.48,-0.99 -11.48,-0.99 0,0 -7.00,-8.68 -7.00,-8.68 0,0 -12.60,-17.53 -12.60,-17.53 0,0 0,27.21 0,27.21 0,0 -10.69,0 -10.69,0 0,0 0,-64.15 0,-64.15 9.85,0 31.21,-1.96 38.53,4.51 z m 97.54,-4.51 c 4.86,0.05 11.58,0.92 15.26,4.43 2.35,2.23 3.65,6.97 3.99,10.14 0.25,2.33 0.05,4.54 -0.58,6.80 -1.86,6.55 -4.43,6.65 -7.00,11.66 2.86,1.17 4.73,2.13 6.38,4.94 1.88,3.21 1.97,14.92 0.56,18.38 -0.98,2.38 -2.78,4.43 -5.04,5.67 -3.02,1.67 -8.19,2.05 -11.62,2.09 0,0 -27.21,0 -27.21,0 0,0 0,-64.15 0,-64.15 0,0 25.27,0 25.27,0 z m 53.46,0 c 2.08,0 5.55,-0.22 7.28,0.99 2.52,1.76 4.83,11.35 5.76,14.56 0,0 10.01,32.07 10.01,32.07 2.12,6.98 3.80,8.73 4.16,16.52 0,0 -10.69,0 -10.69,0 0,0 -5.40,-15.94 -5.40,-15.94 0,0 -8.20,-1.55 -8.20,-1.55 0,0 -15.55,0 -15.55,0 0,0 -3.88,17.49 -3.88,17.49 0,0 -10.69,0 -10.69,0 0.39,-8.10 3.66,-15.68 6.15,-23.32 0,0 12.31,-40.82 12.31,-40.82 0,0 8.74,0 8.74,0 z m 74.84,0 c 0,0 0,10.69 0,10.69 0,0 -17.49,0 -17.49,0 0,0 0,53.46 0,53.46 0,0 -10.69,0 -10.69,0 0,0 0,-37.90 0,-37.90 0,-3.86 0.87,-11.36 -2.24,-13.99 -2.72,-2.29 -11.55,-1.55 -15.25,-1.55 0,0 0,-10.69 0,-10.69 0,0 45.68,0 45.68,0 z m 17.49,0 c 0,0 0,64.15 0,64.15 0,0 -10.69,0 -10.69,0 0,0 0,-64.15 0,-64.15 0,0 10.69,0 10.69,0 z m 155.52,0 c 0,0 0,53.45 0,53.45 0,0 23.32,0 23.32,0 0,0 0,10.69 0,10.69 0,0 -34.02,0 -34.02,0 0,0 0,-64.15 0,-64.15 0,0 10.69,0 10.69,0 z m 40.82,0 c 0,0 0,27.21 0,27.21 0,5.93 -0.42,12.78 1.26,18.46 2.43,8.18 11.74,12.42 19.09,7.21 5.56,-3.95 5.87,-11.72 5.88,-17.90 0,0 0,-34.99 0,-34.99 0,0 10.69,0 10.69,0 0,0 0,40.82 0,40.82 -0.01,7.19 -0.64,13.84 -6.01,19.26 -1.76,1.77 -4.22,3.54 -6.61,4.35 -2.17,0.73 -4.52,0.67 -6.80,0.68 -8.71,0.04 -17.80,1.29 -23.61,-6.84 -3.27,-4.58 -4.50,-11.91 -4.56,-17.45 0,0 0,-40.82 0,-40.82 0,0 10.69,0 10.69,0 z m 85.51,2.01 c 2.30,1.07 4.18,2.63 5.55,4.87 1.74,3.47 1.92,14.87 0,18.37 -1.30,2.78 -4.12,4.84 -6.50,6.81 3.11,1.67 6.09,3.53 7.75,6.80 2.38,4.70 1.86,19.11 -4.88,23.03 -3.16,1.83 -8.00,2.18 -11.61,2.23 0,0 -27.21,0 -27.21,0 0,0 0,-64.15 0,-64.15 8.36,0 30.28,-1.09 36.91,2.01 z m -502.77,36.86 c 0.30,2.30 0.35,4.61 1.25,6.80 2.33,5.70 8.38,9.72 14.57,9.35 10.98,-0.68 13.72,-8.85 14.85,-18.09 1.44,-11.88 -0.86,-26.65 -15.82,-26.83 -14.88,2.29 -16.50,16.26 -14.85,28.78 z m -461.50,-11.44 c 5.38,-2.86 6.38,-11.01 0,-14.87 -4.00,-2.44 -11.71,-1.87 -16.44,-1.87 0,0 0,18.46 0,18.46 4.76,0 12.22,0.50 16.44,-1.72 z m 428.62,-0.51 c 5.86,-3.54 4.48,-11.09 -0.90,-14.35 -4.05,-2.44 -11.75,-1.87 -16.48,-1.87 0,0 0,18.46 0,18.46 5.01,0 13.04,0.39 17.38,-2.23 z m 94.00,-13.98 c -1.10,2.26 -0.98,10.65 1.10,12.35 2.17,1.74 12.19,0.98 14.83,0 8.13,-2.98 6.33,-10.13 2.69,-12.35 -3.78,-2.30 -12.73,-2.69 -16.97,-1.66 -0.72,0.62 -0.94,0.19 -1.66,1.66 z m 423.20,13.30 c 2.43,0 5.44,0.07 7.77,-0.54 7.81,-2.07 8.18,-8.97 3.74,-12.51 -3.15,-2.52 -8.60,-2.58 -12.49,-2.46 -2.23,0.05 -5.08,0.02 -6.03,2.34 -1.56,2.69 -0.33,10.18 0,13.19 0,0 7.00,0 7.00,0 z m -635.68,9.72 c 0,0 15.55,0 15.55,0 0,0 -7.77,-24.3 -7.77,-24.3 -2.85,4.67 -6.97,18.68 -7.77,24.3 z m -529.74,0 c 0,0 15.55,0 15.55,0 0,0 -7.77,-23.32 -7.77,-23.32 -2.67,4.12 -7.32,18.41 -7.77,23.32 z m 259.52,0 c 0,0 15.55,0 15.55,0 0,0 -6.80,-22.35 -6.80,-22.35 -3.10,4.00 -7.91,17.25 -8.74,22.35 z m 123.44,-0.97 c 0,0 15.55,0.97 15.55,0.97 0,0 -6.80,-22.35 -6.80,-22.35 -3.08,3.99 -7.55,16.27 -8.74,21.38 z m 418.93,0.97 c 0,0 15.55,0 15.55,0 0,0 -6.80,-22.35 -6.80,-22.35 -3.25,4.21 -7.77,16.97 -8.74,22.35 z m -37.84,6.03 c -2.92,-6.94 -16.25,-6.03 -22.41,-6.03 0,0 0,18.46 0,18.46 12.09,0 10.68,0.81 22.41,-2.91 0.32,-2.90 1.25,-6.75 0,-9.51 z m 400.40,12.43 c 3.02,0 5.76,0.03 8.74,-0.61 9.43,-2.07 8.37,-11.21 5.28,-14.25 -3.23,-3.18 -16.40,-4.87 -19.28,-2.60 -1.65,1.31 -1.51,3.91 -1.55,5.81 0,0 0,11.66 0,11.66 0,0 6.80,0 6.80,0 z" id="Selection" style="fill:#ffffff;fill-opacity:1;stroke:none" /><path d="m 1183.89,516.06 c 0,0 -15.02,-21.20 -15.02,-21.20 -3.62,-4.73 -8.14,-9.43 -6.03,-15.89 1.49,-4.56 6.51,-7.95 10.18,-10.74 0,0 15.59,-12.56 15.59,-12.56 5.25,-4.14 15.92,-15.30 22.49,-14.29 9.15,1.38 16.75,14.28 22.26,20.99 0,0 12.85,15.64 12.85,15.64 0,0 10.29,14.36 10.29,14.36 0,0 15.94,18.91 15.94,18.91 2.99,3.28 11.03,15.27 13.92,16.68 3.13,1.52 8.57,-2.85 11.62,-4.41 0,0 8.78,-4.66 8.78,-4.66 4.06,-2.56 9.32,-7.10 13.83,-8.85 4.14,-1.60 11.66,-3.27 12.58,-8.64 0.50,-2.96 -2.01,-5.34 -3.76,-7.36 -2.17,-2.49 -8.63,-11.11 -9.01,-14.08 -0.59,-4.64 4.57,-7.71 8.71,-6.95 4.04,0.75 11.35,11.43 13.90,14.75 0,0 12.52,14.69 12.52,14.69 0,0 10.40,14.33 10.40,14.33 0,0 13.04,15.08 13.04,15.08 2.76,5.13 -1.09,10.98 -6.81,11.02 -1.82,0.01 -5.72,-1.75 -7.81,-2.40 -1.06,-3.48 -7.77,-12.86 -10.90,-14.62 -1.62,-0.90 -2.95,-0.84 -4.71,-0.99 -1.24,5.65 -4.92,8.51 -8.71,12.69 0,0 -14.71,15.61 -14.71,15.61 -3.55,3.47 -9.08,7.02 -8.27,12.70 0.54,3.78 2.76,5.25 4.89,8.06 0,0 11.78,14.55 11.78,14.55 0,0 16.65,22.01 16.65,22.01 0,0 7.59,8.49 7.59,8.49 0,0 12.12,15.25 12.12,15.25 4.59,5.87 16.59,18.53 14.13,26.28 -1.17,3.71 -4.41,5.59 -7.17,8.02 0,0 -17.44,13.40 -17.44,13.40 -6.28,4.62 -14.58,14.79 -22.58,14.70 -9.13,-0.10 -15.67,-12.03 -21.08,-18.25 0,0 -7.14,-7.10 -7.14,-7.10 0,0 -7.50,-8.71 -7.50,-8.71 0,0 -7.13,-6.92 -7.13,-6.92 0,0 -19.75,-22.64 -19.75,-22.64 0,0 -10.98,-11.47 -10.98,-11.47 -1.49,-1.61 -4.40,-5.11 -6.54,-5.62 -3.09,-0.73 -11.59,6.37 -14.49,8.43 0,0 -13.82,10.48 -13.82,10.48 0,0 -8.70,5.62 -8.70,5.62 -4.90,3.48 -10.06,8.00 -15.62,10.32 0,0 4.66,7.45 4.66,7.45 0,0 6.17,6.79 6.17,6.79 4.79,6.48 8.38,16.66 2.41,23.63 -1.33,1.56 -7.40,5.96 -9.33,7.25 0,0 -8.83,5.90 -8.83,5.90 -1.44,0.57 -4.23,0.91 -5.81,1.03 -10.81,0.82 -13.22,-5.65 -18.91,-13.01 0,0 -6.43,-7.53 -6.43,-7.53 -2.69,-3.08 -6.20,-9.05 -10.81,-8.30 -4.66,0.74 -17.01,9.56 -21.44,12.50 0,0 -20.50,14.30 -20.50,14.30 0,0 -28.31,19.16 -28.31,19.16 0,0 -20.50,13.91 -20.50,13.91 -2.62,0.99 -5.99,0.86 -8.78,0.93 0,0 -49.79,0 -49.79,0 0,0 -11.71,0 -11.71,0 0,0 -7.81,0 -7.81,0 0,0 -28.31,0 -28.31,0 0,0 -273.41,0 -273.41,0 0,0 -93.74,0 -93.74,0 0,0 -10.74,0.57 -10.74,0.57 0,0 -10.74,-0.64 -10.74,-0.64 0,0 -10.74,0 -10.74,0 0,0 -17.57,0 -17.57,0 0,0 -164.04,0 -164.04,0 0,0 -91.78,0 -91.78,0 -2.92,0.03 -14.62,0.23 -16.49,1.28 -3.24,1.81 -4.27,5.60 -6.33,8.47 -3.50,4.90 -8.87,10.90 -14.27,13.68 -17.56,8.99 -37.46,7.61 -52.72,-5.13 -3.35,-2.81 -7.50,-6.70 -9.51,-10.66 -2.92,-5.78 -4.22,-13.90 -4.15,-20.33 0.05,-4.90 0.42,-6.06 1.59,-10.74 2.57,-10.37 4.32,-10.39 11.53,-17.78 2.59,-2.66 5.03,-5.66 8.35,-7.46 1.86,-1.02 3.86,-1.40 5.85,-2.05 11.05,-3.59 7.67,-2.98 19.52,-2.96 7.93,0.01 14.52,3.64 21.39,7.49 3.43,1.92 8.57,7.06 10.93,10.24 2.48,3.33 3.85,7.17 7.74,9.29 2.97,1.61 7.35,1.30 10.70,1.17 0,0 37.10,0 37.10,0 0,0 9.76,0 9.76,0 0,0 202.12,0 202.12,0 0,0 10.74,-0.53 10.74,-0.53 0,0 10.74,0.51 10.74,0.51 0,0 11.71,0 11.71,0 0,0 16.59,0 16.59,0 0,0 144.51,0 144.51,0 0,0 9.76,0 9.76,0 0,0 9.76,0 9.76,0 0,0 233.37,0 233.37,0 0,0 11.71,0 11.71,0 0,0 26.36,0 26.36,0 0,0 9.76,0 9.76,0 0,0 21.48,0 21.48,0 13.95,0.10 19.58,-6.22 30.30,-13.88 0,0 29.25,-20.01 29.25,-20.01 0,0 10.74,-7.25 10.74,-7.25 0,0 10.78,-7.91 10.78,-7.91 3.54,-2.28 9.89,-5.52 11.72,-9.39 2.04,-4.31 -2.86,-8.56 -5.33,-11.66 0,0 -6.47,-7.18 -6.47,-7.18 -4.88,-6.53 -4.92,-14.50 0.83,-20.36 6.10,-6.21 22.12,-19.76 30.98,-12.80 0,0 11.65,12.97 11.65,12.97 1.54,1.94 3.72,5.57 6.35,5.94 2.63,0.38 9.58,-6.29 11.67,-8.17 0,0 22.90,-20.85 22.90,-20.85 3.11,-2.58 10.09,-7.37 11.22,-11.11 1.54,-5.08 -4.85,-11.67 -7.70,-15.60 0,0 -4.83,-7.64 -4.83,-7.64 0,0 -5.74,-7.42 -5.74,-7.42 0,0 -4.89,-7.39 -4.89,-7.39 -3.77,-5.29 -7.46,-8.00 -7.99,-14.64 -4.32,-1.46 -5.91,-5.15 -8.66,-8.78 z m 9.08,-2.92 c 0,0 43.40,61.51 43.40,61.51 0,0 13.26,18.55 13.26,18.55 0,0 15.00,16.59 15.00,16.59 0,0 16.76,18.55 16.76,18.55 0,0 39.04,42.96 39.04,42.96 3.25,3.37 11.97,14.15 15.63,15.46 3.47,1.24 7.25,-2.51 9.76,-4.53 0,0 21.57,-17.65 21.57,-17.65 2.63,-1.93 8.07,-5.14 7.57,-8.91 -0.40,-2.96 -7.29,-11.01 -9.42,-13.66 0,0 -24.21,-30.27 -24.21,-30.27 0,0 -91.39,-114.24 -91.39,-114.24 0,0 -27.50,-34.74 -27.50,-34.74 -2.06,-2.51 -8.76,-11.10 -11.36,-11.80 -3.31,-0.88 -8.31,4.27 -10.73,6.26 -6.95,5.74 -24.70,19.36 -29.29,25.63 7.33,8.06 15.40,21.17 21.90,30.27 z m 125.54,34.17 c 7.95,-7.97 12.75,-12.44 19.86,-21.48 2.29,-2.90 9.92,-10.28 4.97,-13.66 -3.33,-2.27 -10.93,2.07 -14.09,3.65 0,0 -20.50,12.41 -20.50,12.41 0,0 -14.64,8.33 -14.64,8.33 1.55,7.35 8.52,13.30 12.69,19.52 5.65,-1.25 7.72,-4.77 11.71,-8.78 z m -24.83,12.69 c 1.20,4.49 -0.75,10.63 -2.78,14.64 -5.77,11.44 -17.17,18.85 -29.99,18.54 -12.72,-0.31 -16.01,-9.54 -12.29,-20.49 3.29,-9.69 12.92,-17.74 22.05,-21.77 8.31,-1.87 20.33,-0.85 23.01,9.08 z m -12.48,13.67 c 2.51,-3.03 5.94,-9.54 2.55,-12.96 -3.18,-3.52 -8.61,-1.29 -12.10,0 -10.06,4.35 -15.58,11.78 -15.62,22.73 11.79,2.10 17.39,-0.41 25.17,-9.76 z m -109.14,85.39 c 6.09,-2.54 16.07,-7.53 21.48,-11.15 0,0 10.74,-7.94 10.74,-7.94 0,0 24.41,-16.62 24.41,-16.62 0,0 16.58,-11.77 16.58,-11.77 2.18,-1.65 4.87,-3.52 3.75,-6.64 -0.77,-2.19 -8.56,-9.77 -10.82,-12.68 -1.42,-1.83 -3.38,-4.87 -5.64,-5.69 -2.78,-1.01 -4.83,1.09 -6.79,2.73 0,0 -15.45,12.61 -15.45,12.61 0,0 -28.48,27.44 -28.48,27.44 -10.58,10.58 -22.26,22.18 -28.31,36.12 9.40,-0.21 10.36,-2.97 18.55,-6.39 z m -34.15,-43.81 c -2.09,1.69 -4.65,3.31 -4.39,6.35 0.36,4.13 11.38,16.58 14.47,20.41 1.43,1.77 3.65,5.36 6.37,4.55 2.52,-0.74 6.25,-7.11 7.97,-9.34 2.24,-2.90 8.45,-7.61 8.59,-10.82 0.09,-2.28 -2.40,-5.11 -3.74,-6.83 -3.86,-4.92 -9.07,-13.37 -15.78,-13.86 -4.87,1.87 -9.41,6.22 -13.48,9.54 z m 41.07,66.24 c 0,0 10.40,12.00 10.40,12.00 5.56,3.73 12.74,-3.63 16.84,-6.80 2.31,-1.79 4.96,-3.44 5.44,-6.59 0.77,-4.98 -5.98,-11.95 -8.91,-15.61 -2.28,-2.85 -4.97,-7.73 -9.22,-6.99 -2.29,0.40 -7.48,3.98 -9.76,5.28 0,0 -12.69,5.61 -12.69,5.61 1.24,5.04 4.56,9.17 7.89,13.10 z" id="Selection #1" style="fill:#fa0100;fill-opacity:1;stroke:none" /></g></svg> 
