<?xml version="1.0" encoding="UTF-8" standalone="no"?>
<!DOCTYPE svg PUBLIC "-//W3C//DTD SVG 20010904//EN"
              "http://www.w3.org/TR/2001/REC-SVG-20010904/DTD/svg10.dtd">

<svg xmlns="http://www.w3.org/2000/svg"
     width="27.7778in" height="21.1111in"
     viewBox="0 0 2000 1520">
  <path id="White"
        fill="none" stroke="black" stroke-width="1"
        d="M 451.00,243.12
           C 451.00,243.12 458.83,243.12 458.83,243.12
             462.78,243.93 465.86,246.11 470.82,244.49
             474.10,243.42 481.81,234.85 484.67,232.00
             484.67,232.00 515.35,201.37 515.35,201.37
             515.35,201.37 521.96,196.62 521.96,196.62
             521.96,196.62 534.04,184.76 534.04,184.76
             534.04,184.76 547.26,175.22 547.26,175.22
             547.26,175.22 554.74,168.20 554.74,168.20
             554.74,168.20 617.47,123.68 617.47,123.68
             617.47,123.68 624.53,119.78 624.53,119.78
             624.53,119.78 639.51,109.79 639.51,109.79
             639.51,109.79 643.69,108.18 643.69,108.18
             643.69,108.18 648.23,105.22 648.23,105.22
             648.23,105.22 656.99,100.73 656.99,100.73
             656.99,100.73 663.80,96.37 663.80,96.37
             663.80,96.37 703.80,76.38 703.80,76.38
             703.80,76.38 709.69,74.18 709.69,74.18
             709.69,74.18 716.61,70.02 716.61,70.02
             716.61,70.02 722.57,67.92 722.57,67.92
             722.57,67.92 731.44,63.69 731.44,63.69
             731.44,63.69 738.56,61.92 738.56,61.92
             738.56,61.92 757.43,53.68 757.43,53.68
             757.43,53.68 784.87,44.58 784.87,44.58
             784.87,44.58 791.44,41.69 791.44,41.69
             791.44,41.69 797.72,40.27 797.72,40.27
             797.72,40.27 834.28,29.43 834.28,29.43
             834.28,29.43 842.83,28.53 842.83,28.53
             842.83,28.53 856.28,23.43 856.28,23.43
             856.28,23.43 866.96,22.87 866.96,22.87
             866.96,22.87 873.17,20.99 873.17,20.99
             873.17,20.99 877.91,20.99 877.91,20.99
             877.91,20.99 891.17,17.05 891.17,17.05
             891.17,17.05 898.96,17.05 898.96,17.05
             898.96,17.05 905.17,14.99 905.17,14.99
             905.17,14.99 911.91,14.99 911.91,14.99
             911.91,14.99 917.17,13.05 917.17,13.05
             917.17,13.05 926.96,13.05 926.96,13.05
             931.49,12.33 930.30,11.10 937.00,11.00
             950.91,10.80 945.30,9.89 952.09,9.06
             952.09,9.06 963.00,9.06 963.00,9.06
             972.50,8.94 968.23,7.02 979.00,7.00
             979.00,7.00 1059.00,7.00 1059.00,7.00
             1068.68,7.02 1065.55,8.21 1071.04,8.94
             1071.04,8.94 1082.00,8.94 1082.00,8.94
             1090.17,9.05 1088.01,10.27 1093.04,11.05
             1093.04,11.05 1104.83,11.05 1104.83,11.05
             1104.83,11.05 1111.04,13.05 1111.04,13.05
             1111.04,13.05 1120.83,13.05 1120.83,13.05
             1120.83,13.05 1126.09,14.99 1126.09,14.99
             1126.09,14.99 1132.83,14.99 1132.83,14.99
             1132.83,14.99 1139.04,17.05 1139.04,17.05
             1139.04,17.05 1146.83,17.05 1146.83,17.05
             1146.83,17.05 1151.17,18.54 1151.17,18.54
             1151.17,18.54 1157.72,19.43 1157.72,19.43
             1157.72,19.43 1170.09,22.99 1170.09,22.99
             1170.09,22.99 1180.83,22.99 1180.83,22.99
             1189.19,24.70 1194.49,28.38 1196.09,28.73
             1196.09,28.73 1205.72,29.43 1205.72,29.43
             1205.72,29.43 1221.16,34.54 1221.16,34.54
             1221.16,34.54 1264.57,47.68 1264.57,47.68
             1264.57,47.68 1286.27,56.27 1286.27,56.27
             1286.27,56.27 1307.39,64.02 1307.39,64.02
             1307.39,64.02 1314.32,68.16 1314.32,68.16
             1314.32,68.16 1320.56,69.69 1320.56,69.69
             1320.56,69.69 1334.49,75.79 1334.49,75.79
             1334.49,75.79 1339.81,79.15 1339.81,79.15
             1339.81,79.15 1348.19,82.39 1348.19,82.39
             1348.19,82.39 1353.51,85.74 1353.51,85.74
             1353.51,85.74 1358.49,87.79 1358.49,87.79
             1358.49,87.79 1363.80,91.16 1363.80,91.16
             1363.80,91.16 1378.99,98.78 1378.99,98.78
             1378.99,98.78 1384.31,102.18 1384.31,102.18
             1384.31,102.18 1388.49,103.79 1388.49,103.79
             1388.49,103.79 1393.51,107.73 1393.51,107.73
             1393.51,107.73 1398.49,109.79 1398.49,109.79
             1398.49,109.79 1408.53,115.68 1408.53,115.68
             1408.53,115.68 1430.23,130.28 1430.23,130.28
             1430.23,130.28 1442.52,137.68 1442.52,137.68
             1442.52,137.68 1455.48,147.77 1455.48,147.77
             1455.48,147.77 1465.26,154.20 1465.26,154.20
             1465.26,154.20 1484.74,169.22 1484.74,169.22
             1484.74,169.22 1489.96,172.76 1489.96,172.76
             1489.96,172.76 1496.74,179.22 1496.74,179.22
             1496.74,179.22 1502.65,183.37 1502.65,183.37
             1502.65,183.37 1512.04,192.62 1512.04,192.62
             1512.04,192.62 1518.65,197.37 1518.65,197.37
             1523.67,201.85 1528.38,209.22 1535.00,211.00
             1535.00,211.00 1535.00,215.00 1535.00,215.00
             1540.32,215.76 1541.68,218.34 1545.33,222.00
             1545.33,222.00 1559.33,236.00 1559.33,236.00
             1562.74,239.41 1564.29,240.06 1565.00,245.00
             1565.00,245.00 1569.00,245.00 1569.00,245.00
             1571.38,253.85 1579.75,254.27 1581.00,263.00
             1581.00,263.00 1585.00,263.00 1585.00,263.00
             1586.75,269.52 1591.97,271.65 1595.80,276.74
             1595.80,276.74 1623.80,312.74 1623.80,312.74
             1623.80,312.74 1634.23,328.52 1634.23,328.52
             1634.23,328.52 1638.32,333.48 1638.32,333.48
             1638.32,333.48 1646.78,346.23 1646.78,346.23
             1646.78,346.23 1649.72,351.76 1649.72,351.76
             1649.72,351.76 1654.32,357.48 1654.32,357.48
             1654.32,357.48 1663.72,373.77 1663.72,373.77
             1663.72,373.77 1672.78,388.23 1672.78,388.23
             1672.78,388.23 1682.32,405.47 1682.32,405.47
             1682.32,405.47 1699.23,439.00 1699.23,439.00
             1700.78,442.25 1702.49,449.85 1705.53,451.56
             1709.34,453.70 1720.52,445.07 1724.31,443.43
             1724.31,443.43 1733.81,438.39 1733.81,438.39
             1733.81,438.39 1739.69,436.18 1739.69,436.18
             1739.69,436.18 1745.81,432.39 1745.81,432.39
             1745.81,432.39 1766.87,424.58 1766.87,424.58
             1771.80,422.85 1770.92,422.11 1777.00,420.92
             1784.89,419.37 1792.20,415.90 1797.75,424.76
             1800.16,428.61 1798.36,432.20 1797.15,436.00
             1797.15,436.00 1792.62,451.73 1792.62,451.73
             1792.62,451.73 1789.42,459.13 1789.42,459.13
             1789.42,459.13 1776.21,490.49 1776.21,490.49
             1776.21,490.49 1772.84,495.80 1772.84,495.80
             1772.84,495.80 1765.22,510.99 1765.22,510.99
             1765.22,510.99 1761.82,516.31 1761.82,516.31
             1761.82,516.31 1757.23,527.00 1757.23,527.00
             1757.23,527.00 1743.49,555.17 1743.49,555.17
             1742.64,558.93 1747.04,571.21 1748.32,575.42
             1748.32,575.42 1753.26,597.91 1753.26,597.91
             1753.26,597.91 1756.57,610.28 1756.57,610.28
             1756.57,610.28 1757.26,617.91 1757.26,617.91
             1757.26,617.91 1758.76,623.17 1758.76,623.17
             1758.76,623.17 1761.26,637.91 1761.26,637.91
             1761.26,637.91 1763.01,643.17 1763.01,643.17
             1763.01,643.17 1763.01,649.91 1763.01,649.91
             1763.01,649.91 1764.95,655.17 1764.95,655.17
             1764.95,655.17 1764.95,664.96 1764.95,664.96
             1764.95,664.96 1767.01,672.09 1767.01,672.09
             1767.01,672.09 1767.01,680.96 1767.01,680.96
             1767.01,680.96 1768.88,687.17 1768.88,687.17
             1768.88,687.17 1768.88,699.00 1768.88,699.00
             1769.05,706.54 1770.23,705.01 1771.00,711.00
             1777.24,711.80 1779.06,714.46 1784.29,716.25
             1784.29,716.25 1790.56,717.69 1790.56,717.69
             1790.56,717.69 1800.27,722.27 1800.27,722.27
             1800.27,722.27 1816.57,727.68 1816.57,727.68
             1816.57,727.68 1826.27,732.27 1826.27,732.27
             1826.27,732.27 1836.57,735.68 1836.57,735.68
             1836.57,735.68 1852.27,742.27 1852.27,742.27
             1852.27,742.27 1862.57,745.68 1862.57,745.68
             1862.57,745.68 1885.44,755.92 1885.44,755.92
             1885.44,755.92 1893.39,758.02 1893.39,758.02
             1893.39,758.02 1915.43,767.92 1915.43,767.92
             1915.43,767.92 1931.39,774.02 1931.39,774.02
             1931.39,774.02 1940.27,778.27 1940.27,778.27
             1940.27,778.27 1967.43,789.92 1967.43,789.92
             1967.43,789.92 1979.00,794.77 1979.00,794.77
             1983.76,797.10 1990.53,798.09 1990.53,805.00
             1990.53,810.08 1982.96,816.75 1979.00,819.25
             1979.00,819.25 1964.49,828.21 1964.49,828.21
             1964.49,828.21 1957.81,830.85 1957.81,830.85
             1957.81,830.85 1952.49,834.21 1952.49,834.21
             1948.52,836.24 1947.58,834.97 1943.00,839.00
             1943.00,839.00 1941.00,839.00 1941.00,839.00
             1935.68,834.95 1929.38,835.01 1923.00,835.00
             1913.62,834.98 1916.90,834.17 1911.91,833.01
             1911.91,833.01 1905.17,833.01 1905.17,833.01
             1905.17,833.01 1899.91,831.01 1899.91,831.01
             1899.91,831.01 1893.17,831.01 1893.17,831.01
             1893.17,831.01 1886.96,828.95 1886.96,828.95
             1886.96,828.95 1877.17,828.95 1877.17,828.95
             1877.17,828.95 1861.91,825.07 1861.91,825.07
             1861.91,825.07 1854.09,825.07 1854.09,825.07
             1854.09,825.07 1847.91,823.07 1847.91,823.07
             1847.91,823.07 1840.09,823.07 1840.09,823.07
             1840.09,823.07 1833.91,821.01 1833.91,821.01
             1833.91,821.01 1827.17,821.01 1827.17,821.01
             1827.17,821.01 1821.91,819.01 1821.91,819.01
             1821.91,819.01 1815.17,819.01 1815.17,819.01
             1815.17,819.01 1809.91,817.01 1809.91,817.01
             1809.91,817.01 1801.17,817.01 1801.17,817.01
             1801.17,817.01 1795.91,815.01 1795.91,815.01
             1795.91,815.01 1789.17,815.01 1789.17,815.01
             1789.17,815.01 1783.91,813.13 1783.91,813.13
             1783.91,813.13 1768.94,813.13 1768.94,813.13
             1768.94,813.13 1768.94,829.91 1768.94,829.91
             1768.94,829.91 1766.95,837.04 1766.95,837.04
             1766.95,837.04 1766.95,846.83 1766.95,846.83
             1766.95,846.83 1765.01,853.04 1765.01,853.04
             1765.01,853.04 1765.01,861.91 1765.01,861.91
             1765.01,861.91 1763.01,868.09 1763.01,868.09
             1763.01,868.09 1763.01,874.83 1763.01,874.83
             1763.01,874.83 1761.26,880.09 1761.26,880.09
             1761.26,880.09 1758.76,894.83 1758.76,894.83
             1758.76,894.83 1757.01,900.09 1757.01,900.09
             1757.01,900.09 1757.01,906.83 1757.01,906.83
             1757.01,906.83 1753.46,919.16 1753.46,919.16
             1753.46,919.16 1751.26,928.09 1751.26,928.09
             1751.26,928.09 1750.57,933.72 1750.57,933.72
             1750.57,933.72 1747.46,943.16 1747.46,943.16
             1747.46,943.16 1740.58,969.72 1740.58,969.72
             1740.58,969.72 1735.46,985.17 1735.46,985.17
             1735.46,985.17 1734.31,992.56 1734.31,992.56
             1734.31,992.56 1729.75,1002.29 1729.75,1002.29
             1729.75,1002.29 1726.32,1014.57 1726.32,1014.57
             1726.32,1014.57 1719.73,1030.27 1719.73,1030.27
             1719.73,1030.27 1715.98,1041.39 1715.98,1041.39
             1715.98,1041.39 1710.45,1052.61 1710.45,1052.61
             1710.45,1052.61 1707.98,1059.39 1707.98,1059.39
             1707.98,1059.39 1702.45,1070.61 1702.45,1070.61
             1702.45,1070.61 1699.61,1078.19 1699.61,1078.19
             1699.61,1078.19 1695.82,1084.31 1695.82,1084.31
             1695.82,1084.31 1693.61,1090.19 1693.61,1090.19
             1693.61,1090.19 1689.82,1096.31 1689.82,1096.31
             1689.82,1096.31 1687.61,1102.19 1687.61,1102.19
             1687.61,1102.19 1683.82,1108.31 1683.82,1108.31
             1683.82,1108.31 1682.21,1112.49 1682.21,1112.49
             1682.21,1112.49 1679.27,1117.01 1679.27,1117.01
             1679.27,1117.01 1674.78,1125.77 1674.78,1125.77
             1674.78,1125.77 1657.72,1154.23 1657.72,1154.23
             1657.72,1154.23 1654.32,1160.52 1654.32,1160.52
             1654.32,1160.52 1650.23,1165.48 1650.23,1165.48
             1650.23,1165.48 1646.32,1172.53 1646.32,1172.53
             1646.32,1172.53 1637.72,1184.23 1637.72,1184.23
             1637.72,1184.23 1623.80,1205.26 1623.80,1205.26
             1623.80,1205.26 1617.24,1213.96 1617.24,1213.96
             1617.24,1213.96 1610.78,1220.74 1610.78,1220.74
             1610.78,1220.74 1602.32,1232.52 1602.32,1232.52
             1602.32,1232.52 1595.00,1243.00 1595.00,1243.00
             1595.00,1243.00 1591.00,1243.00 1591.00,1243.00
             1591.00,1243.00 1585.00,1255.00 1585.00,1255.00
             1585.00,1255.00 1581.00,1255.00 1581.00,1255.00
             1580.34,1259.57 1579.57,1260.34 1575.00,1261.00
             1573.67,1270.33 1561.46,1273.86 1559.00,1283.00
             1555.42,1283.98 1553.98,1285.42 1553.00,1289.00
             1549.42,1289.98 1547.98,1291.42 1547.00,1295.00
             1543.42,1295.98 1541.98,1297.42 1541.00,1301.00
             1531.86,1303.46 1528.33,1315.67 1519.00,1317.00
             1518.11,1323.17 1516.20,1321.78 1512.04,1325.38
             1512.04,1325.38 1503.96,1333.24 1503.96,1333.24
             1500.16,1336.38 1500.94,1334.43 1495.33,1340.00
             1495.33,1340.00 1470.74,1358.78 1470.74,1358.78
             1453.06,1372.69 1434.53,1385.94 1415.01,1397.27
             1415.01,1397.27 1408.49,1402.21 1408.49,1402.21
             1408.49,1402.21 1403.51,1404.26 1403.51,1404.26
             1403.51,1404.26 1379.77,1418.78 1379.77,1418.78
             1379.77,1418.78 1353.40,1432.03 1353.40,1432.03
             1353.40,1432.03 1346.49,1436.21 1346.49,1436.21
             1346.49,1436.21 1341.43,1438.08 1341.43,1438.08
             1341.43,1438.08 1333.39,1441.98 1333.39,1441.98
             1333.39,1441.98 1327.43,1444.08 1327.43,1444.08
             1323.52,1445.75 1322.13,1447.43 1320.49,1448.19
             1320.49,1448.19 1314.32,1449.84 1314.32,1449.84
             1314.32,1449.84 1309.69,1452.57 1309.69,1452.57
             1309.69,1452.57 1280.57,1464.32 1280.57,1464.32
             1280.57,1464.32 1259.13,1471.42 1259.13,1471.42
             1259.13,1471.42 1252.57,1474.32 1252.57,1474.32
             1252.57,1474.32 1225.72,1482.57 1225.72,1482.57
             1225.72,1482.57 1219.17,1483.47 1219.17,1483.47
             1219.17,1483.47 1211.71,1486.57 1211.71,1486.57
             1211.71,1486.57 1202.83,1489.01 1202.83,1489.01
             1202.83,1489.01 1196.09,1489.01 1196.09,1489.01
             1196.09,1489.01 1175.72,1494.57 1175.72,1494.57
             1175.72,1494.57 1170.09,1495.26 1170.09,1495.26
             1170.09,1495.26 1164.83,1497.01 1164.83,1497.01
             1164.83,1497.01 1160.09,1497.01 1160.09,1497.01
             1160.09,1497.01 1144.83,1501.01 1144.83,1501.01
             1144.83,1501.01 1138.09,1501.01 1138.09,1501.01
             1138.09,1501.01 1131.91,1503.07 1131.91,1503.07
             1131.91,1503.07 1126.09,1503.07 1126.09,1503.07
             1121.09,1504.17 1124.40,1504.98 1115.00,1505.00
             1103.15,1505.03 1107.13,1506.88 1099.00,1507.00
             1085.09,1507.20 1090.70,1508.11 1083.91,1508.94
             1083.91,1508.94 1072.00,1508.94 1072.00,1508.94
             1063.91,1509.14 1067.47,1510.98 1057.00,1511.00
             1057.00,1511.00 983.00,1511.00 983.00,1511.00
             973.32,1510.98 976.45,1509.79 970.96,1509.06
             970.96,1509.06 958.00,1509.06 958.00,1509.06
             948.96,1508.95 951.90,1507.14 944.00,1507.00
             930.10,1506.77 936.16,1505.99 928.96,1504.95
             928.96,1504.95 919.17,1504.95 919.17,1504.95
             919.17,1504.95 913.91,1503.01 913.91,1503.01
             913.91,1503.01 907.17,1503.01 907.17,1503.01
             907.17,1503.01 901.91,1501.01 901.91,1501.01
             901.91,1501.01 893.17,1501.01 893.17,1501.01
             893.17,1501.01 877.91,1497.01 877.91,1497.01
             877.91,1497.01 873.17,1497.01 873.17,1497.01
             873.17,1497.01 867.91,1495.26 867.91,1495.26
             867.91,1495.26 862.28,1494.57 862.28,1494.57
             862.28,1494.57 841.91,1489.26 841.91,1489.26
             841.91,1489.26 834.28,1488.57 834.28,1488.57
             834.28,1488.57 820.83,1483.47 820.83,1483.47
             820.83,1483.47 812.28,1482.57 812.28,1482.57
             812.28,1482.57 796.87,1477.42 796.87,1477.42
             796.87,1477.42 763.43,1466.32 763.43,1466.32
             763.43,1466.32 747.73,1459.73 747.73,1459.73
             747.73,1459.73 732.61,1453.98 732.61,1453.98
             732.61,1453.98 724.57,1450.08 724.57,1450.08
             724.57,1450.08 704.61,1441.98 704.61,1441.98
             704.61,1441.98 697.69,1437.82 697.69,1437.82
             697.69,1437.82 691.00,1435.23 691.00,1435.23
             691.00,1435.23 670.23,1424.78 670.23,1424.78
             670.23,1424.78 664.99,1421.27 664.99,1421.27
             664.99,1421.27 648.23,1412.78 648.23,1412.78
             648.23,1412.78 633.77,1403.72 633.77,1403.72
             633.77,1403.72 627.47,1400.32 627.47,1400.32
             627.47,1400.32 617.77,1393.72 617.77,1393.72
             617.77,1393.72 611.48,1390.32 611.48,1390.32
             611.48,1390.32 606.52,1386.23 606.52,1386.23
             606.52,1386.23 586.74,1373.80 586.74,1373.80
             586.74,1373.80 574.52,1364.23 574.52,1364.23
             574.52,1364.23 562.04,1355.24 562.04,1355.24
             562.04,1355.24 547.26,1342.78 547.26,1342.78
             547.26,1342.78 542.04,1339.24 542.04,1339.24
             542.04,1339.24 533.26,1330.78 533.26,1330.78
             533.26,1330.78 528.04,1327.24 528.04,1327.24
             528.04,1327.24 519.26,1318.78 519.26,1318.78
             519.26,1318.78 513.35,1314.63 513.35,1314.63
             513.35,1314.63 485.33,1286.67 485.33,1286.67
             485.33,1286.67 462.76,1263.96 462.76,1263.96
             462.76,1263.96 458.62,1258.04 458.62,1258.04
             458.62,1258.04 450.76,1249.96 450.76,1249.96
             450.76,1249.96 447.22,1244.74 447.22,1244.74
             447.22,1244.74 438.76,1235.96 438.76,1235.96
             438.76,1235.96 435.77,1231.48 435.77,1231.48
             435.77,1231.48 430.76,1225.96 430.76,1225.96
             430.76,1225.96 427.22,1220.74 427.22,1220.74
             427.22,1220.74 422.20,1215.26 422.20,1215.26
             422.20,1215.26 398.28,1180.23 398.28,1180.23
             398.28,1180.23 393.68,1174.52 393.68,1174.52
             393.68,1174.52 390.28,1168.23 390.28,1168.23
             390.28,1168.23 383.68,1158.53 383.68,1158.53
             383.68,1158.53 380.28,1152.24 380.28,1152.24
             380.28,1152.24 376.24,1147.24 376.24,1147.24
             376.24,1147.24 373.73,1141.51 373.73,1141.51
             373.73,1141.51 369.22,1135.76 369.22,1135.76
             369.22,1135.76 362.73,1123.01 362.73,1123.01
             362.73,1123.01 358.78,1116.99 358.78,1116.99
             358.78,1116.99 350.73,1101.01 350.73,1101.01
             350.73,1101.01 347.79,1096.49 347.79,1096.49
             347.79,1096.49 345.15,1089.81 345.15,1089.81
             345.15,1089.81 341.79,1084.49 341.79,1084.49
             341.79,1084.49 334.18,1066.31 334.18,1066.31
             334.18,1066.31 331.43,1061.69 331.43,1061.69
             331.43,1061.69 327.92,1051.43 327.92,1051.43
             327.92,1051.43 317.68,1028.57 317.68,1028.57
             317.68,1028.57 300.53,977.17 300.53,977.17
             300.53,977.17 295.43,963.72 295.43,963.72
             295.43,963.72 294.53,955.17 294.53,955.17
             294.53,955.17 289.43,941.72 289.43,941.72
             289.43,941.72 288.74,932.09 288.74,932.09
             288.74,932.09 283.43,911.72 283.43,911.72
             283.43,911.72 282.74,906.09 282.74,906.09
             282.74,906.09 281.24,900.83 281.24,900.83
             281.24,900.83 278.74,886.09 278.74,886.09
             278.74,886.09 277.05,880.83 277.05,880.83
             277.05,880.83 277.05,873.04 277.05,873.04
             277.05,873.04 274.99,866.83 274.99,866.83
             274.99,866.83 274.99,860.09 274.99,860.09
             274.99,860.09 273.05,854.83 273.05,854.83
             273.05,854.83 273.05,845.04 273.05,845.04
             273.05,845.04 271.06,837.91 271.06,837.91
             271.06,837.91 271.06,826.00 271.06,826.00
             270.87,818.27 269.12,820.71 269.00,813.00
             269.00,813.00 269.00,800.00 269.00,800.00
             268.86,791.91 267.02,795.47 267.00,785.00
             267.00,785.00 267.00,733.00 267.00,733.00
             267.02,722.23 268.94,726.50 269.00,717.00
             269.00,717.00 269.00,705.00 269.00,705.00
             269.10,698.30 270.33,699.49 270.94,694.96
             270.94,694.96 270.94,683.00 270.94,683.00
             271.10,676.30 272.33,677.49 273.05,672.96
             273.05,672.96 273.05,663.17 273.05,663.17
             273.05,663.17 274.99,657.91 274.99,657.91
             274.99,657.91 274.99,651.17 274.99,651.17
             274.99,651.17 277.05,644.96 277.05,644.96
             277.05,644.96 277.05,637.17 277.05,637.17
             277.05,637.17 278.99,631.91 278.99,631.91
             278.99,631.91 278.99,627.17 278.99,627.17
             278.99,627.17 280.74,621.91 280.74,621.91
             281.93,615.54 283.00,609.52 283.00,603.00
             283.00,603.00 139.00,603.00 139.00,603.00
             127.85,602.98 125.75,599.77 116.56,596.08
             116.56,596.08 109.44,594.31 109.44,594.31
             109.44,594.31 100.57,590.08 100.57,590.08
             100.57,590.08 79.73,581.73 79.73,581.73
             79.73,581.73 54.61,571.98 54.61,571.98
             54.61,571.98 46.57,568.08 46.57,568.08
             46.57,568.08 36.31,564.57 36.31,564.57
             31.03,562.31 20.84,553.29 17.68,548.52
             9.75,536.57 26.62,534.69 33.71,532.25
             33.71,532.25 41.17,529.22 41.17,529.22
             41.17,529.22 59.42,523.68 59.42,523.68
             59.42,523.68 65.71,522.25 65.71,522.25
             65.71,522.25 77.42,517.68 77.42,517.68
             77.42,517.68 84.83,516.53 84.83,516.53
             84.83,516.53 97.42,511.68 97.42,511.68
             97.42,511.68 104.83,510.54 104.83,510.54
             104.83,510.54 119.42,505.68 119.42,505.68
             119.42,505.68 124.84,504.54 124.84,504.54
             133.04,502.37 142.69,497.23 151.00,497.00
             150.39,488.64 147.33,489.61 142.04,485.24
             144.86,487.57 124.64,469.22 128.23,473.16
             128.23,473.16 125.22,468.74 125.22,468.74
             121.24,463.74 116.51,459.81 115.24,452.83
             114.20,447.15 116.07,442.87 116.07,441.00
             116.07,441.00 115.00,435.00 115.00,435.00
             113.60,434.80 112.88,434.86 111.51,434.19
             111.51,434.19 100.76,425.95 100.76,425.95
             100.76,425.95 97.77,421.48 97.77,421.48
             97.77,421.48 94.20,417.26 94.20,417.26
             88.47,409.60 82.82,399.38 80.75,390.07
             80.75,390.07 77.23,378.00 77.23,378.00
             77.30,374.49 79.54,374.45 81.00,369.00
             81.00,369.00 92.09,366.93 92.09,366.93
             92.09,366.93 99.91,366.93 99.91,366.93
             99.91,366.93 106.09,365.11 106.09,365.11
             106.09,365.11 119.04,367.05 119.04,367.05
             119.04,367.05 124.83,367.05 124.83,367.05
             124.83,367.05 142.60,373.57 142.60,373.57
             142.60,373.57 153.00,378.06 153.00,378.06
             153.00,378.06 171.80,370.39 171.80,370.39
             171.80,370.39 190.28,365.43 190.28,365.43
             190.28,365.43 195.91,364.74 195.91,364.74
             195.91,364.74 208.00,363.00 208.00,363.00
             208.00,363.00 220.09,360.93 220.09,360.93
             220.09,360.93 231.91,360.93 231.91,360.93
             231.91,360.93 243.99,359.02 243.99,359.02
             243.99,359.02 255.00,361.00 255.00,361.00
             253.95,357.09 248.09,348.33 245.68,344.53
             242.89,340.13 237.08,324.25 237.00,319.00
             237.00,319.00 237.00,313.00 237.00,313.00
             237.00,310.41 236.85,307.92 237.69,305.44
             240.20,298.04 248.39,294.30 255.91,295.12
             255.91,295.12 262.09,296.74 262.09,296.74
             262.09,296.74 268.58,297.68 268.58,297.68
             273.03,299.00 278.85,302.89 282.00,302.89
             286.73,302.89 289.14,299.15 293.44,297.69
             300.58,295.28 305.77,297.91 311.47,301.78
             312.96,302.79 314.54,303.49 315.77,304.84
             322.51,312.24 328.21,326.58 330.57,336.28
             331.37,339.57 330.56,340.81 332.08,344.56
             334.54,350.65 341.84,357.47 345.80,362.74
             345.80,362.74 349.29,368.00 349.29,368.00
             349.29,368.00 352.78,373.26 352.78,373.26
             355.58,376.78 356.20,376.23 359.25,381.00
             360.43,382.84 362.50,386.02 365.00,385.98
             367.46,385.95 370.44,380.54 371.78,378.53
             371.78,378.53 381.22,362.24 381.22,362.24
             381.22,362.24 386.18,355.69 386.18,355.69
             386.18,355.69 387.79,351.51 387.79,351.51
             387.79,351.51 401.77,332.52 401.77,332.52
             401.77,332.52 422.20,302.74 422.20,302.74
             422.20,302.74 434.16,287.68 434.16,287.68
             436.36,282.81 431.58,271.43 431.13,265.93
             430.99,264.23 433.09,255.05 433.81,253.51
             435.24,250.40 435.80,251.47 437.00,247.00
             443.88,245.33 443.22,243.12 451.00,243.12 Z" />
</svg>
