<?xml version="1.0" encoding="UTF-8" standalone="no"?><!-- Created with Inkscape (http://www.inkscape.org/) --><svg xmlns:dc="http://purl.org/dc/elements/1.1/" xmlns:cc="http://creativecommons.org/ns#" xmlns:rdf="http://www.w3.org/1999/02/22-rdf-syntax-ns#" xmlns:svg="http://www.w3.org/2000/svg" xmlns="http://www.w3.org/2000/svg" version="1.1" width="300" height="413" id="svg3055"><metadata id="metadata3041"><rdf:RDF><cc:Work rdf:about=""><dc:format>image/svg+xml</dc:format><dc:type rdf:resource="http://purl.org/dc/dcmitype/StillImage" /><dc:title></dc:title></cc:Work></rdf:RDF></metadata><defs id="defs4" /><g transform="translate(-281.42859,-303.00501)" id="layer1"><g transform="translate(-240,-225.71429)" id="g3100"><path d="m 521.42859,735.2193 0,-206.5 150,0 150,0 0,206.5 0,206.5 -150,0 -150,0 0,-206.5 z" id="path3116" style="fill:#ffffff" /><path d="m 543.459,737.9693 c 0.0204,-121.98591 0.36012,-181.18429 1.03312,-180.02961 0.92092,1.58006 13.41217,31.88877 38.44372,93.27961 18.89454,46.33961 30.67598,75.20595 39.73992,97.36888 10.5699,25.84529 10.73963,24.0353 -2.43964,26.01599 -21.68633,3.25921 -47.76701,12.92445 -58.41133,21.64667 -9.27314,7.59864 -12.14686,14.77154 -7.82936,19.54232 3.97665,4.39415 9.32571,4.9088 44.01135,4.23443 20.51099,-0.39879 32.42181,-0.27727 32.42181,0.33077 0,0.52862 -2.1441,3.63859 -4.76466,6.91104 -2.62056,3.27244 -13.05371,16.5249 -23.18478,29.4499 -30.87264,39.38665 -48.43892,61.46289 -49.52075,62.23469 -0.5664,0.40408 -2.94231,0.74158 -5.27981,0.75 l -4.25,0.0153 0.0304,-181.75 z m 44.96959,181.35799 c 0,-0.22062 16.30853,-15.18517 36.24118,-33.25456 19.93266,-18.06939 43.67016,-39.60422 52.75,-47.85518 9.07985,-8.25095 18.21198,-16.46345 20.29362,-18.25 l 3.78479,-3.24825 48.94615,0 48.94616,0 0.54616,2.25 c 0.30039,1.2375 0.42146,24.3 0.26905,51.25 l -0.27711,49 -105.75,0.25457 c -58.1625,0.14001 -105.75,0.074 -105.75,-0.14658 z M 713.31477,782.03652 c -0.85,-0.99947 -13.72022,-22.51722 -28.60049,-47.81722 -14.88026,-25.3 -35.95299,-61.075 -46.82829,-79.5 -45.42875,-76.96568 -61.4574,-104.39764 -61.4574,-105.18021 0,-0.45565 50.2875,-0.714 111.75,-0.57412 l 111.75,0.25433 0,78 0,78 -12.20437,0.5 c -6.71241,0.275 -12.63125,0.95 -13.15298,1.5 -0.52173,0.55 -3.49056,16.75 -6.5974,36 -3.10684,19.25 -5.97606,36.05167 -6.37604,37.33705 l -0.72725,2.33706 -23.00516,0.48016 c -21.34201,0.44545 -23.11689,0.34879 -24.55062,-1.33705 z" id="path3104" style="fill:#fe0000" /><path d="m 713.31477,782.03652 c -0.85,-0.99947 -13.72022,-22.51722 -28.60049,-47.81722 -14.88026,-25.3 -35.95299,-61.075 -46.82829,-79.5 -45.42875,-76.96568 -61.4574,-104.39764 -61.4574,-105.18021 0,-0.45565 50.2875,-0.714 111.75,-0.57412 l 111.75,0.25433 0,78 0,78 -12.20437,0.5 c -6.71241,0.275 -12.63125,0.95 -13.15298,1.5 -0.52173,0.55 -3.49056,16.75 -6.5974,36 -3.10684,19.25 -5.97606,36.05167 -6.37604,37.33705 l -0.72725,2.33706 -23.00516,0.48016 c -21.34201,0.44545 -23.11689,0.34879 -24.55062,-1.33705 z" id="path3102" style="fill:#29166f" /></g></g></svg> 
