<svg xmlns:dc="http://purl.org/dc/elements/1.1/" xmlns:cc="http://creativecommons.org/ns#" xmlns:rdf="http://www.w3.org/1999/02/22-rdf-syntax-ns#" xmlns:svg="http://www.w3.org/2000/svg" xmlns="http://www.w3.org/2000/svg" version="1.1" width="509.2" height="360.6" id="svg2"><defs id="defs4"><clipPath id="clipPath3020"><path d="m 0,0 4073.8,0 0,2885 L 0,2885 0,0 z" id="path3022" /></clipPath></defs><g transform="translate(-136.8,-349.1)" id="layer1"><g transform="matrix(1.2,0,0,-1.2,136.8,709.8)" id="g3012"><g transform="scale(0.1,0.1)" id="g3014"><g id="g3016"><g clip-path="url(#clipPath3020)" id="g3018"><path d="m 0,1265.9 c 91.3,110.8 226.2,200.4 435.9,218.8 l 1453.6,-1.1 C 1789.0,1372.8 1663.8,1273.4 1412.8,1265.3 L 0,1265.9" id="path3024" style="fill:#293c8f;fill-opacity:1;fill-rule:evenodd;stroke:none" /><path d="m 1532.3,1265.3 c 177.4,15.5 324.5,75.8 447.4,192.9 l 567.4,465.2 c 111.4,71.7 246.9,106.2 340.5,125.2 l 304.9,6.3 c -152.2,-38.4 -280.8,-111.9 -383.6,-219.3 l -462.3,-395.1 c -93.0,-93.6 -233.1,-152.7 -418.7,-175.1 l -395.7,0" id="path3026" style="fill:#293c8f;fill-opacity:1;fill-rule:evenodd;stroke:none" /><path d="m 1949.3,1265.3 c 121.1,23.5 252.1,75.8 375.0,192.9 l 567.4,465.2 c 111.4,71.7 235.4,130.3 325.6,132.1 l 319.9,-0.5 c -152.2,-38.4 -280.8,-111.9 -383.6,-219.3 l -462.3,-395.1 c -93.0,-93.6 -233.1,-152.7 -418.7,-175.1 l -323.3,0" id="path3028" style="fill:#f5f013;fill-opacity:1;fill-rule:evenodd;stroke:none" /><path d="m 2293.9,1265.3 c 121.1,23.5 252.1,75.8 375.0,192.9 l 567.4,465.2 c 111.4,71.7 205.6,124.6 303.2,132.1 l 534.1,-0.5 c -234.3,-20.1 -472.6,-111.9 -575.4,-219.3 l -462.3,-395.1 c -93.0,-93.6 -233.1,-152.7 -418.7,-175.1 l -323.3,0" id="path3030" style="fill:#eb1d27;fill-opacity:1;fill-rule:evenodd;stroke:none" /><path d="m 1099.8,696.7 147.6,119.4 101.0,0 -129.8,-122.3 -118.9,2.8" id="path3032" style="fill:#293c8f;fill-opacity:1;fill-rule:evenodd;stroke:none" /><path d="m 1337.6,901.2 105.1,0 199.2,186.6 -63.1,-189.5 184.3,0 70.0,206.7 -255.0,0 -240.6,-203.8" id="path3034" style="fill:#293c8f;fill-opacity:1;fill-rule:evenodd;stroke:none" /><path d="m 1509.9,696.7 40.2,116.0 184.3,0.5 -40.2,-116.5 -184.3,0" id="path3036" style="fill:#293c8f;fill-opacity:1;fill-rule:evenodd;stroke:none" /><path d="m 1934.9,898.3 186.0,0 52.2,157.3 106.2,0 c 33.8,4.0 51.6,-7.4 55.1,-32.1 l -25.8,-84.4 c -21.2,-51.1 -76.9,-60.3 -136.1,-64.3 l -1099.2,0 -37.3,-40.7 1249.7,0 c 102.2,11.4 178.6,37.3 197,93.0 l 34.4,110.8 c 17.8,40.2 1.1,60.3 -48.8,61.4 l -466.3,0 -67.2,-201.0" id="path3038" style="fill:#293c8f;fill-opacity:1;fill-rule:evenodd;stroke:none" /><path d="m 1863.1,696.2 46.5,116.5 184.9,0.5 -43.6,-116.5 -187.8,-0.5" id="path3040" style="fill:#293c8f;fill-opacity:1;fill-rule:evenodd;stroke:none" /><path d="m 2146.3,812.8 212.5,0.5 c 13.7,-51.6 65.4,-70.6 135.5,-78.6 l 423.2,-2.8 -34.4,-35.0 -466.9,0 c -100.5,-1.7 -181.4,10.9 -217.6,55.7 l -52.2,60.3" id="path3042" style="fill:#293c8f;fill-opacity:1;fill-rule:evenodd;stroke:none" /><path d="m 3174.9,2055.1 47.1,1.1 -20.6,37.3 -49.4,-3.4 22.9,-35.0" id="path3044" style="fill:#ffffff;fill-opacity:1;fill-rule:evenodd;stroke:none" /><path d="m 3336.3,1695.5 -33.3,-28.1 6.8,-42.5 32.7,27.5 -6.3,43.0" id="path3046" style="fill:#ffffff;fill-opacity:1;fill-rule:evenodd;stroke:none" /><path d="m 460.4,1555.6 298.2,0 c 103.4,1210.9 1686.2,1659.1 2398.1,536.9 l 43.7,7.9 C 2543.6,3379.2 569.8,3022.4 460.4,1555.6" id="path3048" style="fill:#293c8f;fill-opacity:1;fill-rule:evenodd;stroke:none" /><path d="m 476.3,1173.8 310.2,0 C 1246.3,-498.5 3486.8,109.3 3310.3,1628 l 31.6,26.4 C 3592.0,-99.6 921.4,-757.0 476.3,1173.8" id="path3050" style="fill:#293c8f;fill-opacity:1;fill-rule:evenodd;stroke:none" /></g></g></g></g></g></svg>
