<svg xmlns:dc="http://purl.org/dc/elements/1.1/" xmlns:cc="http://creativecommons.org/ns#" xmlns:rdf="http://www.w3.org/1999/02/22-rdf-syntax-ns#" xmlns:svg="http://www.w3.org/2000/svg" xmlns="http://www.w3.org/2000/svg" version="1.1" id="svg2" xml:space="preserve" width="286.55133" height="245.44652" viewBox="0 0 286.55134 245.44652"><metadata id="metadata8"><rdf:RDF><cc:Work rdf:about=""><dc:format>image/svg+xml</dc:format><dc:type rdf:resource="http://purl.org/dc/dcmitype/StillImage" /><dc:title></dc:title></cc:Work></rdf:RDF></metadata><defs id="defs6"><clipPath clipPathUnits="userSpaceOnUse" id="clipPath18"><path d="m 0,612.288 858.898,0 L 858.898,0 0,0 Z" id="path16" /></clipPath></defs><g id="g10" transform="matrix(1.3333333,0,0,-1.3333333,-423.24372,533.71252)"><g id="g12"><g id="g14" clip-path="url(#clipPath18)"><g id="g20" transform="translate(483.7351,365.0664)"><path d="m 0,0 -57.64,10.129 c 11.345,22 9.29,25.089 9.29,25.089 0,0 -3.834,-0.038 -16.12,-22.905 l 0.053,0.116 c -0.151,-0.284 -0.299,-0.57 -0.449,-0.856 l -65.018,14.597 -4.198,-3.287 62.545,-24.442 c -0.875,-1.804 -1.729,-3.594 -2.562,-5.365 l 6.068,-1.693 c 1.119,1.905 2.243,3.845 3.361,5.812 L 0.383,-3.923 Z" style="fill:#001e61;fill-opacity:1;fill-rule:nonzero;stroke:none" id="path22" /></g><g id="g24" transform="translate(405.489,339.7423)"><path d="m 0,0 -4.111,0 c -1.049,-2.447 -2,-4.706 -2.831,-6.709 l -17.477,1.278 -3.342,-4.051 18.036,-4.052 c -0.728,-1.821 -1.124,-2.847 -1.124,-2.847 l 1.478,2.79 0.07,-0.004 -1.489,-2.817 c 0,0 0.695,1.006 1.898,2.792 l 19.177,-1.143 1.11,4.361 -15.944,3.333 C -3.186,-4.982 -1.649,-2.6 0,0" style="fill:#001e61;fill-opacity:1;fill-rule:nonzero;stroke:none" id="path26" /></g><g id="g28" transform="translate(393.2468,247.6117)"><path d="m 0,0 c -9.684,-18.949 -28.194,-29.46 -44.534,-24.023 -18.709,6.226 -27.477,30.978 -19.584,55.29 0.67,2.065 1.446,4.053 2.303,5.971 -1.456,-2.825 -2.715,-5.833 -3.744,-9 -8.23,-25.355 1.447,-51.347 21.615,-58.059 19.1,-6.353 40.75,6.87 49.982,29.821 z" style="fill:#001e61;fill-opacity:1;fill-rule:nonzero;stroke:none" id="path30" /></g><g id="g32" transform="translate(379.8644,247.6117)"><path d="m 0,0 c -9.01,-12.229 -21.618,-18.526 -32.654,-14.854 -15.45,5.141 -21.957,27.84 -14.537,50.7 1.121,3.451 2.498,6.705 4.077,9.731 -2.455,-3.889 -4.523,-8.24 -6.061,-12.976 -7.526,-23.184 0.356,-46.63 17.606,-52.369 C -17.5,-24.45 -1.545,-15.896 7.942,0 Z" style="fill:#f32836;fill-opacity:1;fill-rule:nonzero;stroke:none" id="path34" /></g><g id="g36" transform="translate(383.0322,289.5193)"><path d="m 0,0 c -0.116,-1.329 -0.662,-2.855 -3.877,-2.855 l -4.638,0 0.493,5.629 5.388,0 c 1.026,0 1.751,-0.221 2.155,-0.659 C -0.084,1.687 0.077,0.974 0,0 m -7.189,12.29 4.428,0 c 1.314,0 2.219,-0.261 2.69,-0.774 0.367,-0.401 0.51,-1.005 0.437,-1.838 -0.111,-1.14 -0.637,-2.45 -3.747,-2.471 l -4.253,0 z m 2.987,-19.789 c 7.078,0.25 9,4.141 9.365,7.361 l 0.003,0.026 C 5.37,2.226 4.599,3.981 2.959,5.022 4.413,5.987 5.258,7.529 5.438,9.59 c 0.184,2.225 -0.304,3.987 -1.448,5.234 -1.273,1.388 -3.336,2.098 -6.136,2.11 l -9.428,0 -2.138,-24.434 1.091,0 z" style="fill:#001e61;fill-opacity:1;fill-rule:nonzero;stroke:none" id="path38" /></g><g id="g40" transform="translate(397.3145,301.8093)"><path d="M 0,0 5.516,0 C 6.794,0 7.696,-0.276 8.196,-0.822 8.659,-1.327 8.844,-2.147 8.747,-3.261 8.534,-5.698 7.379,-6.785 5.003,-6.785 l -5.597,0 z m -1,-11.431 3.665,0 4.447,-8.421 5.685,0 -4.67,8.849 c 2.449,0.585 4.969,2.462 5.586,7.538 0.235,2.683 -0.284,4.742 -1.542,6.121 C 10.979,3.964 9.153,4.633 6.74,4.644 l -11.125,0 -2.143,-24.496 4.791,0 z" style="fill:#001e61;fill-opacity:1;fill-rule:nonzero;stroke:none" id="path42" /></g><g id="g44" transform="translate(419.4834,306.4231)"><path d="m 0,0 -4.791,0 -2.14,-24.465 4.791,0 z" style="fill:#001e61;fill-opacity:1;fill-rule:nonzero;stroke:none" id="path46" /></g><g id="g48" transform="translate(427.5464,281.9577)"><path d="m 0,0 4.856,0 1.737,19.852 7.04,0 0.408,4.644 -19.513,0 -0.406,-4.644 7.615,0 z" style="fill:#001e61;fill-opacity:1;fill-rule:nonzero;stroke:none" id="path50" /></g><g id="g52" transform="translate(448.8057,306.4231)"><path d="m 0,0 -4.791,0 -2.142,-24.465 4.791,0 z" style="fill:#001e61;fill-opacity:1;fill-rule:nonzero;stroke:none" id="path54" /></g><g id="g56" transform="translate(467.4648,287.8874)"><path d="m 0,0 0.165,1.893 c 0.173,2.174 -0.741,5.038 -6.073,6.336 l -3.168,0.884 c -1.609,0.399 -2.573,0.95 -2.583,1.374 l 0.205,2.341 c 0.043,0.49 1.169,1.064 4.192,1.064 l 7.608,-0.071 0.381,4.363 -7.781,0.352 c -5.81,0 -8.919,-1.862 -9.24,-5.534 l -0.209,-2.414 c -0.026,-1.929 0.907,-4.507 5.49,-5.832 L -7.389,3.62 C -5.71,3.172 -4.695,2.573 -4.74,2.059 L -4.9,0.214 C -5.03,-0.8 -6.307,-1.314 -8.688,-1.314 l -8.501,0.066 -0.382,-4.365 8.869,-0.347 c 6.791,0 8.48,3.244 8.702,5.96" style="fill:#001e61;fill-opacity:1;fill-rule:nonzero;stroke:none" id="path58" /></g><g id="g60" transform="translate(475.3994,291.9294)"><path d="m 0,0 8.421,0 -0.873,-9.972 4.792,0 2.141,24.466 -4.792,0 -0.861,-9.849 -8.393,0 0.861,9.849 -4.79,0 -2.135,-24.404 4.793,0 z" style="fill:#001e61;fill-opacity:1;fill-rule:nonzero;stroke:none" id="path62" /></g><g id="g64" transform="translate(351.3228,262.0974)"><path d="m 0,0 -5.408,0 3.386,7.534 z m -0.793,14.44 -1.6,0 c -0.778,0 -1.856,-0.335 -2.566,-1.931 l -10.028,-22.534 4.953,0 2.583,5.38 8.67,0 1.577,-5.38 4.839,0 -6.044,22.39 C 1.1,14.171 -0.114,14.44 -0.793,14.44" style="fill:#001e61;fill-opacity:1;fill-rule:nonzero;stroke:none" id="path66" /></g><g id="g68" transform="translate(361.832,271.6189)"><path d="m 0,0 -1.267,-14.478 c -0.137,-1.571 0.2,-2.811 1.002,-3.686 0.841,-0.917 2.153,-1.383 3.922,-1.383 l 10e-4,0 12.374,0.263 0.384,4.382 -12.547,0 c -0.204,0 -0.301,0.031 -0.322,0.023 -0.007,0.03 -0.017,0.1 -0.006,0.228 l 0.447,5.105 10.017,0 0.388,4.433 -10.017,0 0.431,4.931 c 0.03,0.339 0.066,0.456 0.564,0.456 l 12.436,0 L 18.19,4.653 5.603,4.919 C 2.292,4.919 0.302,3.172 0,0" style="fill:#001e61;fill-opacity:1;fill-rule:nonzero;stroke:none" id="path70" /></g><g id="g72" transform="translate(392.0527,265.1374)"><path d="m 0,0 -5.597,0 0.594,6.786 5.516,0 C 1.791,6.786 2.692,6.51 3.192,5.964 3.655,5.459 3.841,4.639 3.744,3.525 3.53,1.087 2.376,0 0,0 m 1.741,11.431 -11.129,0 -2.143,-24.496 4.791,0 0.737,8.42 3.665,0 4.446,-8.42 5.685,0 -4.669,8.848 C 5.572,-3.632 8.092,-1.755 8.71,3.321 8.945,6.004 8.426,8.063 7.168,9.442 5.975,10.751 4.149,11.419 1.741,11.431" style="fill:#001e61;fill-opacity:1;fill-rule:nonzero;stroke:none" id="path74" /></g><g id="g76" transform="translate(412.9961,256.5652)"><path d="m 0,0 -2.368,0 c -0.997,0 -1.73,0.271 -2.24,0.828 -0.866,0.944 -1.188,2.755 -0.958,5.381 l 0.255,2.918 c 0.557,6.352 3.504,6.352 4.472,6.352 l 2.368,0 c 0.931,0 1.619,-0.255 2.102,-0.783 0.842,-0.919 1.167,-2.785 0.938,-5.395 L 4.314,6.383 C 3.755,0 0.929,0 0,0 m 1.621,20.003 -2.208,0 c -3.965,0 -8.853,-1.841 -9.62,-10.61 l -0.269,-3.071 c -0.337,-3.852 0.329,-6.718 1.977,-8.517 1.361,-1.485 3.362,-2.238 5.949,-2.238 l 2.208,0 c 3.966,0 8.853,1.836 9.618,10.581 l 0.269,3.071 c 0.338,3.868 -0.328,6.743 -1.981,8.547 -1.36,1.484 -3.359,2.237 -5.943,2.237" style="fill:#001e61;fill-opacity:1;fill-rule:nonzero;stroke:none" id="path78" /></g><g id="g80" transform="translate(438.4912,259.6296)"><path d="m 0,0 c -0.117,-1.328 -0.665,-2.852 -3.878,-2.852 l -4.637,0 0.493,5.63 5.388,0 c 1.026,0 1.751,-0.221 2.155,-0.659 C -0.085,1.692 0.076,0.979 0,0 m -7.19,12.294 4.428,0 c 1.315,0 2.219,-0.261 2.691,-0.774 C 0.295,11.119 0.438,10.517 0.365,9.676 0.254,8.538 -0.275,7.231 -3.381,7.211 l -4.254,0 z M 2.959,5.026 c 1.453,0.965 2.299,2.507 2.479,4.568 0.183,2.225 -0.304,3.987 -1.449,5.235 -1.272,1.388 -3.336,2.098 -6.132,2.109 l -9.432,0 -2.137,-24.435 1.091,0 8.419,10e-4 c 7.079,0.251 9,4.142 9.367,7.388 C 5.37,2.229 4.599,3.985 2.959,5.026" style="fill:#001e61;fill-opacity:1;fill-rule:nonzero;stroke:none" id="path82" /></g><g id="g84" transform="translate(458.7578,262.0974)"><path d="m 0,0 -5.407,0 3.385,7.534 z m -0.794,14.44 -1.6,0 c -0.778,0 -1.856,-0.335 -2.566,-1.931 l -10.026,-22.534 4.952,0 2.583,5.38 8.67,0 1.577,-5.38 4.839,0 -6.044,22.39 c -0.492,1.806 -1.705,2.075 -2.385,2.075" style="fill:#001e61;fill-opacity:1;fill-rule:nonzero;stroke:none" id="path86" /></g><g id="g88" transform="translate(465.6094,271.9236)"><path d="m 0,0 7.616,0 -1.736,-19.852 4.855,0 1.737,19.852 7.04,0 0.407,4.645 -19.512,0 z" style="fill:#001e61;fill-opacity:1;fill-rule:nonzero;stroke:none" id="path90" /></g><g id="g92" transform="translate(485.8164,252.072)"><path d="m 0,0 4.79,0 2.14,24.466 -4.79,0 z" style="fill:#001e61;fill-opacity:1;fill-rule:nonzero;stroke:none" id="path94" /></g><g id="g96" transform="translate(504.7939,276.5681)"><path d="m 0,0 c -6.064,0 -9.498,-4.092 -10.204,-12.161 -0.406,-4.641 0.312,-7.896 2.195,-9.951 1.413,-1.541 3.446,-2.323 6.077,-2.323 l 0.003,0 c 2.999,0.102 5.709,0.31 8.054,0.617 l 0.797,0.103 0.381,4.371 -1.198,-0.117 c -2.243,-0.219 -4.843,-0.351 -7.713,-0.391 -1.172,0 -2.041,0.327 -2.657,0.998 -1.049,1.145 -1.44,3.338 -1.163,6.519 0.676,7.721 4.177,7.721 5.321,7.721 2.873,-0.021 5.455,-0.152 7.673,-0.39 L 8.58,-5.113 8.966,-0.711 8.017,-0.586 C 5.694,-0.279 3.007,-0.082 0,0" style="fill:#001e61;fill-opacity:1;fill-rule:nonzero;stroke:none" id="path98" /></g><g id="g100" transform="translate(524.3623,271.8933)"><path d="m 0,0 7.604,-0.07 0.38,4.363 -7.78,0.352 c -5.81,0 -8.919,-1.863 -9.24,-5.535 l -0.208,-2.414 c -0.027,-1.929 0.907,-4.508 5.49,-5.832 l 3.623,-1.136 c 1.68,-0.449 2.694,-1.046 2.65,-1.561 l -0.162,-1.846 c -0.128,-1.013 -1.405,-1.528 -3.786,-1.528 l -8.503,0.068 -0.381,-4.366 8.87,-0.347 c 6.791,0 8.48,3.245 8.701,5.96 l 0.166,1.893 c 0.172,2.177 -0.744,5.043 -6.058,6.331 l -3.183,0.889 c -1.61,0.398 -2.574,0.949 -2.583,1.375 l 0.204,2.341 C -4.153,-0.573 -3.028,-0.001 0,0" style="fill:#001e61;fill-opacity:1;fill-rule:nonzero;stroke:none" id="path102" /></g><g id="g104" transform="translate(399.7679,332.9184)"><path d="M 0,0 -0.059,0.012" style="fill:#001e61;fill-opacity:1;fill-rule:nonzero;stroke:none" id="path106" /></g><g id="g108" transform="translate(384.8887,382.1008)"><path d="M 0,0 -1.408,0.433 -1.49,0.449 c 1.878,4.07 1.001,7.787 1.001,7.787 0,0 -4.086,-2.756 -6.208,-6.788 l -1.361,0.128 c -3.029,0.094 -6.552,-7.766 -8.657,-12.022 -1.38,-2.79 -13.874,-34.253 -22.317,-55.596 l -15.979,0.721 -4.513,-9.125 13.149,-5.777 3.057,3.336 c -2.122,-5.375 -3.468,-8.79 -3.468,-8.79 0,0 1.971,3.292 5.07,8.476 l -0.492,-3.856 16.065,0.136 4.438,8.973 -13.757,5.216 c 12.293,20.59 30.371,50.952 31.751,53.742 C -1.607,-8.733 2.579,-1.003 0,0" style="fill:#f32836;fill-opacity:1;fill-rule:nonzero;stroke:none" id="path110" /></g><g id="g112" transform="translate(364.6008,366.8271)"><path d="m 0,0 -47.168,-7.763 28.317,-12.441 z" style="fill:#f32836;fill-opacity:1;fill-rule:nonzero;stroke:none" id="path114" /></g><g id="g116" transform="translate(379.6763,363.878)"><path d="m 0,0 -2.694,-23.365 34.541,0.145 z" style="fill:#f32836;fill-opacity:1;fill-rule:nonzero;stroke:none" id="path118" /></g><g id="g120" transform="translate(379.2969,365.7594)"><path d="m 0,0 c -0.09,-0.155 -0.183,-0.317 -0.278,-0.481 l 36.371,-17.002 3.218,6.508 z" style="fill:#001e61;fill-opacity:1;fill-rule:nonzero;stroke:none" id="path122" /></g><g id="g124" transform="translate(350.8558,344.3797)"><path d="M 0,0 5.311,-2.333 C 9.688,8.66 13.716,18.71 15.85,23.858 l -42.137,5.257 -3.35,-6.774 45.284,1.028 z" style="fill:#001e61;fill-opacity:1;fill-rule:nonzero;stroke:none" id="path126" /></g><g id="g128" transform="translate(364.3304,340.3814)"><path d="m 0,0 6.407,0.055 8.07,24.477 C 11.454,19.317 5.978,10.059 0,0" style="fill:#001e61;fill-opacity:1;fill-rule:nonzero;stroke:none" id="path130" /></g></g></g></g></svg>
