<svg
   xmlns:dc="http://purl.org/dc/elements/1.1/"
   xmlns:cc="http://creativecommons.org/ns#"
   xmlns:rdf="http://www.w3.org/1999/02/22-rdf-syntax-ns#"
   xmlns:svg="http://www.w3.org/2000/svg"
   xmlns="http://www.w3.org/2000/svg"
   xmlns:xlink="http://www.w3.org/1999/xlink"
   version="1.1"
   width="366.015"
   height="224.821"
   id="svg3055"
   xml:space="preserve"><defs
     id="defs3059"><clipPath
       id="clipPath3071"><path
         d="m 0,179.857 292.812,0 L 292.812,0 0,0 0,179.857 z"
         id="path3073" /></clipPath><radialGradient
       cx="0"
       cy="0"
       r="1"
       fx="0"
       fy="0"
       id="radialGradient3089"
       gradientUnits="userSpaceOnUse"
       gradientTransform="matrix(107.955,0,0,-107.955,61.819,54.505)"
       spreadMethod="pad"><stop
         id="stop3091"
         style="stop-color:#ffffff;stop-opacity:1"
         offset="0" /><stop
         id="stop3093"
         style="stop-color:#1d3c85;stop-opacity:1"
         offset="0.510" /><stop
         id="stop3095"
         style="stop-color:#1d3c85;stop-opacity:1"
         offset="1" /></radialGradient><clipPath
       id="clipPath3103"><path
         d="m 0,179.857 292.812,0 L 292.812,0 0,0 0,179.857 z"
         id="path3105" /></clipPath><radialGradient
       cx="0"
       cy="0"
       r="1"
       fx="0"
       fy="0"
       id="radialGradient3127"
       gradientUnits="userSpaceOnUse"
       gradientTransform="matrix(28.301,0,0,-28.301,75.510,73.013)"
       spreadMethod="pad"><stop
         id="stop3129"
         style="stop-color:#ffffff;stop-opacity:1"
         offset="0" /><stop
         id="stop3131"
         style="stop-color:#656263;stop-opacity:1"
         offset="1" /></radialGradient><radialGradient
       cx="0"
       cy="0"
       r="1"
       fx="0"
       fy="0"
       id="radialGradient3147"
       gradientUnits="userSpaceOnUse"
       gradientTransform="matrix(20.432,0,0,-20.432,68.839,83.680)"
       spreadMethod="pad"><stop
         id="stop3149"
         style="stop-color:#ffffff;stop-opacity:1"
         offset="0" /><stop
         id="stop3151"
         style="stop-color:#1d3c85;stop-opacity:1"
         offset="0.764" /><stop
         id="stop3153"
         style="stop-color:#1d3c85;stop-opacity:1"
         offset="0.764" /><stop
         id="stop3155"
         style="stop-color:#1d3c85;stop-opacity:1"
         offset="1" /></radialGradient><clipPath
       id="clipPath3163"><path
         d="m 0,179.857 292.812,0 L 292.812,0 0,0 0,179.857 z"
         id="path3165" /></clipPath><radialGradient
       cx="0"
       cy="0"
       r="1"
       fx="0"
       fy="0"
       id="radialGradient3624"
       xlink:href="#radialGradient3089"
       gradientUnits="userSpaceOnUse"
       gradientTransform="matrix(107.955,0,0,-107.955,61.819,54.505)"
       spreadMethod="pad" /><radialGradient
       cx="0"
       cy="0"
       r="1"
       fx="0"
       fy="0"
       id="radialGradient3626"
       xlink:href="#radialGradient3127"
       gradientUnits="userSpaceOnUse"
       gradientTransform="matrix(28.301,0,0,-28.301,75.510,73.013)"
       spreadMethod="pad" /><radialGradient
       cx="0"
       cy="0"
       r="1"
       fx="0"
       fy="0"
       id="radialGradient3628"
       xlink:href="#radialGradient3147"
       gradientUnits="userSpaceOnUse"
       gradientTransform="matrix(20.432,0,0,-20.432,68.839,83.680)"
       spreadMethod="pad" /><radialGradient
       cx="0"
       cy="0"
       r="1"
       fx="0"
       fy="0"
       id="radialGradient4187"
       xlink:href="#radialGradient3089"
       gradientUnits="userSpaceOnUse"
       gradientTransform="matrix(107.955,0,0,-107.955,61.819,54.505)"
       spreadMethod="pad" /></defs><path
     d="m 365.39,224.196 -364.765,0 0,-223.571 364.765,0 0,223.571 z"
     id="path3065"
     style="fill:#ffffff;fill-opacity:1;stroke:none" /><g
     transform="matrix(1.25,0,0,-1.25,0,224.821)"
     id="g3067"><g
       clip-path="url(#clipPath3071)"
       id="g3069"><path
         d="M 292.312,0.5 0.5,0.5 l 0,178.857 291.812,0 0,-178.857 z"
         id="path3075"
         style="fill:none;stroke:#656263;stroke-width:1;stroke-linecap:butt;stroke-linejoin:miter;stroke-miterlimit:4;stroke-opacity:1" /></g></g><g
     transform="matrix(1.25,0,0,-1.25,0,224.821)"
     id="g3079"><g
       id="g3085"><g
         id="g3087"><path
           d="m 114.797,55.943 -108.227,0 0,117.856 108.227,0 0,-117.856 z"
           id="path3097"
           style="fill:url(#radialGradient4187);stroke:none" /></g></g></g><g
     transform="matrix(1.25,0,0,-1.25,0,224.821)"
     id="g3099"><g
       clip-path="url(#clipPath3103)"
       id="g3101"><g
         transform="translate(95.933,120.810)"
         id="g3107"><path
           d="M 0,0 -2.359,-1.104 -2.705,0.803 0,0 1.721,1.713 C -0.438,3.873 -6.135,2.695 -6.135,2.695 -13.766,1.068 -18.18,1.908 -18.18,1.908 c -2.781,0.789 -3.537,2.488 -3.537,2.488 -3.846,5.963 -4.019,14.686 -3.857,19.605 0.056,1.197 0.242,2.447 -0.475,3.615 -1.121,1.83 -5.486,4.131 -5.486,4.131 l -27.889,16.25 c 1.047,-4.582 12.569,-11.391 12.569,-11.391 -1.571,0.916 -23.299,10.079 -23.299,10.079 0,0 3.078,-4.163 16.097,-10.471 l -24.851,5.287 c 0.972,-1.215 11.863,-7.793 18.547,-8.719 l -20.653,1.594 c 6.698,-2.897 17.606,-5.541 17.606,-5.541 l -16,-2 c 0,0 1,-2.834 14.881,-3.428 L -75.574,19.17 c 0,0 7.332,-1.5 15.34,0.101 l -9.174,-3.935 c 0,0 6.162,-1.432 8.334,-0.166 l -3.143,-3.502 c 0,0 4.164,-0.584 5.975,0.502 l -3.666,-4 c 0,0 1.453,0.148 3.246,-0.264 2.305,-0.527 19.33,-12.506 15.254,-19.486 l -1.91,-1.949 -2.688,-2.688 c -1.447,-1.086 -1.601,-2.265 -1.601,-2.265 -1.963,-1.047 -12.567,-5.01 -12.567,-5.01 -2.226,-1.049 -1.834,-2.358 -1.834,-2.358 0.393,-0.785 2.621,0 2.621,0 -0.525,-0.654 -3.406,-2.619 -3.406,-2.619 -2.227,-1.439 1.309,-2.094 1.309,-2.094 -4.19,-3.273 -1.569,-3.796 -1.569,-3.796 -2.621,-3.143 3.795,-2.748 3.795,-2.748 1.703,0.128 12.699,8.638 12.699,8.638 0.717,0.619 1.834,1.965 1.834,1.965 1.311,0.525 4.844,0.916 4.844,0.916 l 2.358,0.656 c -2.489,-1.832 -1.44,-3.668 -1.44,-3.668 -1.178,-2.093 -1.178,-3.402 -1.178,-3.402 0.916,-0.525 1.569,0.129 1.569,0.129 -1.309,-1.963 0,-2.225 0,-2.225 0.787,-0.132 2.623,0.524 2.623,0.524 l 0.521,-1.18 c 1.311,-0.392 1.571,0.787 1.571,0.787 l 1.181,-0.523 0.258,1.049 c 1.441,0.128 1.834,-1.442 1.834,-1.442 -0.652,-1.18 -0.129,-2.224 -0.129,-2.224 0.129,0.783 0.914,1.044 0.914,1.044 0.787,-0.261 1.18,-1.832 1.18,-1.832 -1.18,-2.75 1.832,-2.357 1.832,-2.357 l 0.392,-1.309 c 1.573,-0.132 1.44,1.309 1.44,1.309 1.441,0.264 0.656,1.572 0.656,1.572 1.049,-0.392 1.049,0.916 1.049,0.916 l 0.523,-0.656 -0.523,-1.568 1.047,-0.264 0.918,-0.654 c 0.914,-1.703 1.699,-1.178 1.699,-1.178 1.834,-0.133 2.227,1.309 2.227,1.309 0.13,1.046 -0.393,3.142 -0.393,3.142 l -1.439,1.834 c -0.526,0.785 -2.491,1.832 -2.491,1.832 -1.308,0.526 -2.484,1.965 -2.484,1.965 -0.656,1.178 1.307,5.76 1.307,5.76 1.558,1.556 2.187,4.301 2.406,6.265 -1.262,-0.277 -2.342,-0.371 -3.252,-0.378 -0.524,-0.575 -1.43,-1.686 -2.18,-3.557 l -1.158,-5.512 c 0,0 -1.553,4.307 1.391,9.215 -0.653,0.127 -1.01,0.295 -1.004,0.385 3.142,0.326 6.285,1.765 6.285,1.765 1.31,0.786 4.715,3.34 4.715,3.34 l 1.701,0.653 c 3.406,0.656 4.842,1.834 5.764,2.75 0.916,0.916 2.484,3.404 2.484,3.404 0,0 0.916,0.523 2.098,1.308 1.175,0.788 7.853,3.538 7.853,3.538 0.785,0.259 3.406,0 3.406,0 l 0.262,-0.786 0.721,-0.13 c 0,0 0.98,1.375 -0.199,3.533 C 5.256,1.713 1.721,1.713 1.721,1.713 L 0,0 z"
           id="path3109"
           style="fill:#ffffff;fill-opacity:1;stroke:none" /></g><g
         transform="translate(91.759,125.144)"
         id="g3111"><path
           d="m 0,0 c -9.389,-1.973 -14.639,-0.627 -14.639,-0.627 l -1.994,2.254 c 0.426,0.695 2.276,2.986 4.647,3.701 2.84,0.858 4.252,2.174 4.252,2.174 -3.914,0.51 -3.5,2.334 -3.5,2.334 1.982,-0.484 5.166,0.666 5.166,0.666 -6.459,1.41 -5.453,4.225 -5.453,4.225 4.447,-0.934 6.953,-1.891 6.953,-1.891 -8.67,4.931 -7.246,8.018 -7.246,8.018 2.33,-1.787 9.4,-4.896 9.4,-4.896 -12.658,9.33 -11.086,13.104 -11.086,13.104 4.168,-5.303 12.545,-10.336 12.545,-10.336 -7.346,6.035 -8.08,9.185 -8.08,9.185 3.226,-2.625 8.9,-6.418 18.303,-9.998 0,0 8.337,-2.158 3.666,-4.999 C 5.268,8.246 0,0 0,0"
           id="path3113"
           style="fill:#ffffff;fill-opacity:1;stroke:none" /></g></g></g><g
     transform="matrix(1.25,0,0,-1.25,0,224.821)"
     id="g3115"><g
       id="g3117"><g
         id="g3123"><g
           id="g3125"><path
             d="m 34.785,56.754 c 0,-0.272 0.012,-0.541 0.02,-0.811 l 0,0 54.16,0 c 0.008,0.27 0.02,0.539 0.02,0.811 l 0,0 c 0,14.967 -12.136,27.1 -27.1,27.1 l 0,0 c -14.967,0 -27.1,-12.133 -27.1,-27.1"
             id="path3133"
             style="fill:url(#radialGradient3626);stroke:none" /></g></g></g></g><g
     transform="matrix(1.25,0,0,-1.25,0,224.821)"
     id="g3135"><g
       id="g3137"><g
         id="g3143"><g
           id="g3145"><path
             d="m 34.039,57.028 c 0,-0.364 0.013,-0.725 0.028,-1.085 l 0,0 1.486,0 c -0.016,0.362 -0.042,0.719 -0.042,1.085 l 0,0 c 0,0.122 0.008,0.242 0.012,0.365 l 0,0 c 0.024,0.042 0.043,0.082 0.071,0.13 l 0,0 c 0.101,-0.54 0.234,-1.064 0.381,-1.58 l 0,0 0.763,0 c -0.238,0.799 -0.433,1.622 -0.551,2.485 l 0,0 c 1.033,1.461 3.069,3.754 6.717,5.945 l 0,0 c 0.358,-3.197 1.475,-6 3.076,-8.43 l 0,0 0.819,0 c -1.729,2.507 -2.928,5.43 -3.248,8.805 l 0,0 c 2.791,1.584 6.458,3.076 11.228,4.123 l 0,0 c 0.361,-1.842 1.184,-3.633 2.385,-5.225 l 0,0 c -3.949,-2.738 -7.016,-5.321 -9.4,-7.703 l 0,0 1.132,0 c 2.27,2.215 5.122,4.598 8.743,7.116 l 0,0 c 1.325,-1.573 3.031,-2.915 5.025,-3.868 l 0,0 c -0.597,-1.082 -1.195,-2.168 -1.791,-3.248 l 0,0 0.838,0 c 0.539,0.979 1.082,1.961 1.621,2.942 l 0,0 c 0.299,-0.125 0.601,-0.246 0.915,-0.354 l 0,0 c 1.736,-0.603 3.495,-0.9 5.194,-0.929 l 0,0 c -0.025,-0.571 -0.076,-1.104 -0.113,-1.659 l 0,0 0.739,0 c 0.037,0.553 0.085,1.086 0.111,1.653 l 0,0 c 1.852,0.058 3.608,0.459 5.148,1.206 l 0,0 c 0.063,0.032 0.117,0.069 0.182,0.1 l 0,0 c 0.394,-1.021 0.736,-2.009 1.037,-2.959 l 0,0 0.771,0 c -0.332,1.059 -0.714,2.166 -1.16,3.315 l 0,0 c 1.506,0.898 2.698,2.127 3.534,3.613 l 0,0 c 2.386,-2.482 3.909,-4.867 4.887,-6.928 l 0,0 0.884,0 c -1.018,2.252 -2.68,4.899 -5.396,7.653 l 0,0 c 0.134,0.297 0.257,0.601 0.364,0.916 l 0,0 c 0.356,1.022 0.524,2.07 0.548,3.115 l 0,0 c 1.783,-0.811 3.703,-1.83 5.818,-3.065 l 0,0 c 0.094,-0.318 0.187,-0.636 0.269,-0.961 l 0,0 c 0.377,-2.614 0.389,-4.704 0.389,-4.712 l 0,0 C 87.332,57.83 87.139,56.856 86.894,55.943 l 0,0 0.702,0 c 0.111,0.436 0.213,0.885 0.299,1.352 l 0,0 c 0,-0.09 0.009,-0.177 0.009,-0.267 l 0,0 c 0,-0.366 -0.021,-0.725 -0.037,-1.085 l 0,0 1.481,0 c 0.013,0.36 0.027,0.721 0.027,1.085 l 0,0 c 0,15.257 -12.412,27.667 -27.668,27.667 l 0,0 c -15.256,0 -27.668,-12.41 -27.668,-27.667 M 54.26,82.14 c 2.363,0.701 4.861,1.085 7.447,1.085 l 0,0 c 0.928,0 1.842,-0.049 2.744,-0.145 l 0,0 c 0.49,-0.408 1.078,-1.07 1.68,-2.154 l 0,0 c -2.016,0.029 -3.937,-0.328 -5.633,-1.071 l 0,0 c -2.383,1.436 -4.496,2.063 -6.238,2.285 m 17.324,-2.183 c -1.537,0.531 -3.092,0.848 -4.61,0.949 l 0,0 c -0.445,0.87 -0.896,1.526 -1.324,2.022 l 0,0 c 3.057,-0.463 5.94,-1.455 8.553,-2.881 l 0,0 C 74.055,79.78 73.871,79.446 73.652,79.051 l 0,0 c -0.657,0.343 -1.343,0.654 -2.068,0.906 m -22.241,0.16 c 0.945,0.506 1.921,0.953 2.931,1.342 l 0,0 c 1.776,0.059 4.325,-0.299 7.378,-2.008 l 0,0 c -1.57,-0.853 -2.824,-2.031 -3.697,-3.48 l 0,0 c -3.832,0.574 -7.428,0.407 -10.582,-0.529 l 0,0 c 1.111,2.089 2.561,3.592 3.97,4.675 m 11.862,-0.703 c 1.602,0.623 3.401,0.898 5.282,0.826 l 0,0 c 0.814,-1.693 1.617,-4.204 2.193,-7.931 l 0,0 c -2.651,3.335 -5.174,5.597 -7.475,7.105 m 6.113,0.775 c 1.332,-0.122 2.694,-0.406 4.043,-0.875 l 0,0 c 0.689,-0.238 1.338,-0.532 1.961,-0.857 l 0,0 c -0.908,-1.635 -2.23,-4.022 -3.799,-6.849 l 0,0 c -0.549,3.947 -1.353,6.685 -2.205,8.581 m 6.981,-1.492 c 0.215,0.387 0.396,0.715 0.545,0.983 l 0,0 c 2.82,-1.643 5.306,-3.793 7.331,-6.33 l 0,0 c -0.894,0.092 -1.792,0.124 -2.677,0.101 l 0,0 c -1.157,2.086 -2.941,3.922 -5.199,5.246 M 56.686,75.848 c 0.871,1.349 2.101,2.439 3.65,3.201 l 0,0 c 2.317,-1.422 4.889,-3.617 7.6,-6.984 l 0,0 c -3.838,1.892 -7.643,3.158 -11.25,3.783 m -9.955,2.654 c -0.819,-0.939 -1.584,-2.041 -2.22,-3.348 l 0,0 c -0.197,-0.068 -0.398,-0.128 -0.589,-0.205 l 0,0 C 43.094,74.625 42.328,74.24 41.615,73.813 l 0,0 c 1.49,1.779 3.211,3.357 5.116,4.689 m 27.236,-0.4 c 2.041,-1.198 3.676,-2.831 4.773,-4.69 l 0,0 c -3.365,-0.205 -6.494,-1.117 -8.486,-2.011 l 0,0 c 1.531,2.764 2.822,5.095 3.713,6.701 M 44.924,74.517 c 3.139,1.069 6.764,1.319 10.664,0.768 l 0,0 c -0.179,-0.361 -0.344,-0.73 -0.477,-1.117 l 0,0 c -0.365,-1.053 -0.539,-2.143 -0.539,-3.234 l 0,0 c 0,-0.434 0.037,-0.87 0.09,-1.301 l 0,0 C 49.957,68.627 46.297,67.195 43.481,65.65 l 0,0 c -0.19,3.674 0.421,6.579 1.443,8.867 M 55.75,73.945 c 0.146,0.43 0.336,0.834 0.541,1.225 l 0,0 c 3.832,-0.629 7.902,-2.01 12.008,-4.113 l 0,0 C 63.291,70.982 58.992,70.51 55.324,69.773 l 0,0 c -0.164,1.403 -0.041,2.819 0.426,4.172 M 36.192,62.928 c 0.738,3.197 2.056,6.174 3.849,8.806 l 0,0 c 1.107,1.006 2.469,1.854 4.056,2.486 l 0,0 c -0.964,-2.359 -1.517,-5.296 -1.28,-8.948 l 0,0 c -3.428,-1.995 -5.532,-4.116 -6.747,-5.69 l 0,0 c -0.066,1.051 -0.031,2.163 0.122,3.346 m 44.773,5.51 c -0.077,1.466 -0.449,2.918 -1.094,4.281 l 0,0 c 0.981,0.012 1.971,-0.065 2.95,-0.207 l 0,0 c 1.534,-2.088 2.764,-4.411 3.632,-6.905 l 0,0 c -1.978,1.133 -3.792,2.075 -5.488,2.831 m -9.723,2.584 c 2,0.796 4.854,1.541 7.877,1.679 l 0,0 c 0.635,-1.26 1.028,-2.597 1.147,-3.957 l 0,0 c -3.264,1.385 -6.126,2.092 -9.024,2.278 M 55.447,69.016 c 3.596,0.74 7.809,1.22 12.715,1.303 l 0,0 C 64.155,68.154 60.7,66.051 57.73,64.027 l 0,0 c -1.156,1.522 -1.943,3.233 -2.283,4.989 m 15.803,1.267 c 2.89,-0.193 5.758,-0.927 9.061,-2.361 l 0,0 c 10e-4,-1.07 -0.164,-2.143 -0.526,-3.188 l 0,0 C 79.713,64.522 79.627,64.32 79.539,64.117 l 0,0 c -2.113,2.049 -4.818,4.144 -8.289,6.166 M 70.5,69.869 c 3.688,-2.115 6.521,-4.328 8.691,-6.482 l 0,0 c -0.763,-1.434 -1.871,-2.619 -3.289,-3.49 l 0,0 c -1.275,3.152 -3.017,6.56 -5.402,9.972 m -0.736,-0.226 c 2.441,-3.46 4.209,-6.917 5.489,-10.103 l 0,0 c -0.075,-0.042 -0.145,-0.087 -0.224,-0.126 l 0,0 C 73.586,58.715 71.94,58.34 70.203,58.278 l 0,0 c 0.125,3.519 0.011,7.306 -0.439,11.365 M 58.198,63.437 c 2.909,1.993 6.298,4.061 10.23,6.188 l 0,0 C 66.76,66.613 64.891,63.23 62.992,59.787 l 0,0 c -1.9,0.901 -3.529,2.165 -4.794,3.65 m 6.273,-4.263 c -0.276,0.094 -0.538,0.209 -0.801,0.316 l 0,0 c 1.885,3.418 3.74,6.775 5.396,9.768 l 0,0 c 0.418,-3.914 0.52,-7.573 0.401,-10.979 l 0,0 c -1.633,0.026 -3.324,0.315 -4.996,0.895"
             id="path3157"
             style="fill:url(#radialGradient3628);stroke:none" /></g></g></g></g><g
     transform="matrix(1.25,0,0,-1.25,43.879,196.593)"
     id="g3167"><path
       d="m 0,0 -1.139,0 c -0.132,3.879 -1.537,5.084 -4.748,5.084 l -12.373,0 0,-14.647 c 0,-3.746 0.803,-5.15 5.819,-5.15 l 0,-1.271 -16.252,0 0,1.271 c 4.146,0.268 4.882,1.137 4.882,6.555 l 0,26.217 c 0,4.281 -0.334,6.22 -5.015,6.287 l 0,1.269 29.963,0 0,-7.89 -1.137,0 c -0.068,3.879 -1.404,5.484 -5.553,5.484 l -12.707,0 0,-15.717 13.242,0 c 2.475,0 3.68,1.404 3.879,4.279 L 0,11.771 0,0 z"
       id="path3169"
       style="fill:#1d3c85;fill-opacity:1;stroke:none" /></g><g
     transform="matrix(1.25,0,0,-1.25,79.006,170.341)"
     id="g3171"><path
       d="m 0,0 -5.684,-15.584 11.571,0 L 0,0 z m -6.822,-18.527 -3.879,-10.5 c -0.467,-1.27 -1.336,-3.278 -1.336,-4.213 0,-1.807 1.738,-2.475 5.416,-2.475 l 1.07,0 0,-1.271 -15.449,0 0,1.271 c 4.348,0.067 5.082,0.803 7.223,6.621 l 12.172,33.24 -0.602,1.471 5.818,0 13.979,-37.119 c 1.338,-3.545 2.742,-4.213 6.086,-4.213 l 0,-1.271 -18.393,0 0,1.271 1.74,0 c 3.813,0 5.217,0.401 5.217,2.274 0,1.07 -0.469,2.074 -0.736,2.742 l -4.481,12.172 -13.845,0 z"
       id="path3173"
       style="fill:#1d3c85;fill-opacity:1;stroke:none" /></g><g
     transform="matrix(1.25,0,0,-1.25,143.544,216.574)"
     id="g3175"><path
       d="m 0,0 -16.252,0 0,1.271 c 4.147,0.202 5.016,1.27 5.016,5.752 l 0,28.491 c 0,3.613 -1.27,4.615 -5.016,4.816 l 0,1.27 16.252,0 0,-1.27 c -4.213,0 -5.684,-0.937 -5.684,-5.418 l 0,-28.357 C -5.684,2.609 -4.615,1.271 0,1.271 L 0,0 z"
       id="path3177"
       style="fill:#1d3c85;fill-opacity:1;stroke:none" /></g><g
     transform="matrix(1.25,0,0,-1.25,214.300,46.636)"
     id="g3179"><path
       d="m 0,0 c -0.068,-0.049 -0.115,-0.158 -0.137,-0.307 0,0 -0.495,-3.851 -0.507,-3.92 0,-0.002 -0.037,-0.238 0.078,-0.386 0.107,-0.139 0.381,-0.239 0.79,-0.278 0,0 0.085,-0.009 0.214,-0.027 l 0.637,4.93 C 0.903,0.031 0.728,0.053 0.558,0.07 0.43,0.094 0.136,0.098 0,0"
       id="path3181"
       style="fill:#656263;fill-opacity:1;stroke:none" /></g><g
     transform="matrix(1.25,0,0,-1.25,239.148,42.625)"
     id="g3183"><path
       d="m 0,0 -1.514,0.176 c -0.849,0.109 -1.212,1.031 -1.267,1.851 l -1.28,17.289 c -1.157,0.26 -2.32,0.52 -2.326,0.522 -0.618,0.146 -0.853,0.037 -0.911,-0.002 -0.09,-0.059 -0.112,-0.174 -0.121,-0.231 L -11.432,-2.201 C -7.447,-2.844 -3.365,-3.625 0.358,-4.395 0.274,-3.373 0.148,-1.828 0,0"
       id="path3185"
       style="fill:#656263;fill-opacity:1;stroke:none" /></g><g
     transform="matrix(1.25,0,0,-1.25,237.690,40.569)"
     id="g3187"><path
       d="m 0,0 c 0.123,-0.014 0.578,-0.066 1.042,-0.121 -0.578,7.096 -1.374,16.859 -1.376,16.894 -0.006,0.245 -0.18,0.352 -0.266,0.383 0,0 -0.309,0.069 -0.765,0.172 C -1.06,13.201 -0.119,0.494 -0.119,0.492 -0.105,0.314 -0.051,0.111 0,0"
       id="path3189"
       style="fill:#656263;fill-opacity:1;stroke:none" /></g><g
     transform="matrix(1.25,0,0,-1.25,270.011,57.639)"
     id="g3191"><path
       d="m 0,0 c -0.378,-0.09 -1.032,-0.129 -2.178,-0.102 -0.477,-1.753 -2.024,-7.441 -2.034,-7.474 -0.347,-1.088 -0.808,-1.756 -1.41,-2.043 l -1.077,-0.067 0.345,-0.07 c 0,0 -2.737,0.268 -2.789,0.274 -1.701,0.257 -2.239,1.668 -2.289,2.439 0,0 -0.025,5.272 -0.033,6.789 -4.153,-0.01 -8.198,0.106 -11.835,0.274 -1.295,-3.833 -7.114,-21.047 -7.116,-21.053 -0.428,-1.24 -1.021,-2.049 -1.761,-2.399 l -1.325,-0.101 0.396,-0.061 c 0,0 -3.954,-0.068 -3.966,-0.068 -1.23,-0.008 -2.17,0.344 -2.795,1.043 -0.826,0.924 -0.72,2.062 -0.71,2.14 l 1.121,16.647 c -0.748,0.359 -0.96,1.027 -0.949,1.418 l 0.435,0.947 c 0.203,0.182 0.452,0.287 0.698,0.352 l 0.157,2.338 c -1.776,0.228 -5.472,0.705 -5.448,0.701 -1.237,0.113 -1.875,0.658 -2.194,1.094 -0.509,0.699 -0.482,1.466 -0.447,1.755 -2.547,0.627 -2.629,2.079 -2.623,2.342 0.162,1.268 1.864,1.612 3.15,1.688 0.141,0.892 0.601,1.386 0.968,1.642 0.891,0.621 1.98,0.412 2,0.403 1.791,-0.192 3.68,-0.442 5.61,-0.731 0.098,0.528 0.232,1.256 0.391,2.121 -0.601,0.44 -0.698,1.026 -0.622,1.401 0.138,0.556 0.557,0.865 1.061,0.99 1.242,6.742 3.189,17.32 3.18,17.26 0.042,0.451 0.309,1.136 0.925,1.578 0.649,0.467 1.507,0.576 2.537,0.332 0,0 4.608,-1.035 4.646,-1.045 0.603,-0.158 1.753,-0.84 1.788,-2.217 L -22.29,7.188 c 5.288,-1.125 9.599,-2.163 11.427,-2.612 0.559,1.987 1.846,6.565 1.838,6.531 0.206,0.873 1.17,2.09 3,1.856 l 2.146,-0.307 -0.13,0.01 c 0.789,-0.01 2.042,-0.615 2.043,-2.193 l 0.023,-8.17 C -0.701,1.994 -0.042,1.74 0.303,1.508 2.803,1.146 20.777,-1.65 38.288,-9.594 c 15.451,-7.01 26.201,-16.041 31.941,-26.664 l 0,76.313 -171.441,0 0,-117.856 92.897,0 c 2.205,18.162 13.782,29.928 16.897,32.793 -0.591,0.74 -1.51,1.926 -2.36,3.186 0,0 0.444,0.478 0.972,0.861 l 3.126,-3.133 c 0,0 1.639,1.229 3.218,3.03 0,0 2.213,2.632 3.321,3.734 l -6.936,8.172 c 0,0 -3.379,3.722 -4.645,5.896 0,0 0.571,0.805 1.167,0.873 0,0 3.404,-2.828 5.437,-5.218 l 7.018,-7.659 c 4.425,3.957 5.625,3.252 5.625,3.252 -0.309,-2.097 -3.944,-5.146 -3.944,-5.146 l 6.5,-7.428 c 0,0 2.313,-2.764 5.137,-6.865 0,0 -0.451,-0.801 -0.983,-0.977 0,0 -3.933,3.35 -6.289,6.237 l -6.545,7.183 c 0,0 -1.364,-1 -4.085,-2.892 0,0 -2.116,-1.532 -3.479,-2.774 l 2.86,-3.715 -0.874,-0.775 c 0,0 -1.739,1.309 -3.22,2.947 -9.071,-9.41 -13.65,-19.976 -13.727,-31.582 l 65.616,0 c 2.734,6.457 4.79,13.951 4.849,22.276 C 66.573,-22.535 20.272,-5.756 0,0"
       id="path3193"
       style="fill:#656263;fill-opacity:1;stroke:none" /></g><g
     transform="matrix(1.25,0,0,-1.25,211.25,49.805)"
     id="g3195"><path
       d="M 0,0 C 0.042,0.326 0.087,0.672 0.129,1.004 -0.489,0.938 -1.017,0.811 -1.236,0.664 -1.099,0.477 -0.75,0.205 0,0"
       id="path3197"
       style="fill:#656263;fill-opacity:1;stroke:none" /></g><g
     transform="matrix(1.25,0,0,-1.25,242.45,51.880)"
     id="g3199"><path
       d="m 0,0 c -0.008,0.004 -0.739,0.348 -2.771,0.65 0,0 -4.22,0.842 -4.446,0.887 -0.206,-0.053 -1.125,-0.351 -1.283,-1.572 0,-0.002 -0.016,-0.09 -0.016,-0.225 0,-0.224 0.043,-0.582 0.268,-0.89 0.263,-0.362 0.725,-0.588 1.341,-0.672 l 6.356,-0.444 C -0.425,-2.273 0.688,-2.305 0.843,-1.188 0.854,-1.156 0.87,-1.09 0.87,-1.002 0.87,-0.762 0.743,-0.346 0,0"
       id="path3201"
       style="fill:#656263;fill-opacity:1;stroke:none" /></g><g
     transform="matrix(1.25,0,0,-1.25,231.607,54.561)"
     id="g3203"><path
       d="m 0,0 c -0.148,0.125 -0.281,0.264 -0.394,0.42 -0.607,0.85 -0.422,1.836 -0.419,1.846 0.131,1.019 0.682,1.66 1.238,2.029 C -3.49,5.033 -7.539,5.707 -11.28,6.176 L -11.92,1.23 C -10.02,0.986 -7.211,0.623 -7.222,0.625 -7.161,0.619 -4.364,0.316 0,0"
       id="path3205"
       style="fill:#656263;fill-opacity:1;stroke:none" /></g><g
     transform="matrix(1.25,0,0,-1.25,262.015,55.596)"
     id="g3207"><path
       d="m 0,0 c 0.151,-0.012 0.272,-0.018 0.421,-0.027 -0.055,0.009 -0.112,0.021 -0.166,0.031 -0.757,0.137 -1.128,0.517 -1.306,0.814 -0.174,0.291 -0.223,0.586 -0.223,0.825 0,0.173 0.024,0.298 0.046,0.39 0.018,0.119 0.754,5.09 0.931,6.283 -0.182,0.024 -0.376,0.047 -0.56,0.071 l -2.21,-7.86 -0.946,0.241 c -0.091,0.021 -4.329,1.091 -10.221,2.38 0.336,-0.402 0.451,-0.832 0.451,-1.187 0,-0.176 -0.034,-0.322 -0.074,-0.449 0.003,0.017 0.013,0.027 0.016,0.047 l -0.027,-0.112 c 0.006,0.018 0.005,0.047 0.011,0.065 C -13.941,0.955 -14.188,0.561 -14.5,0.283 -11.221,0.16 -7.683,0.088 -4.081,0.115 l 1.003,0.008 0.005,-1.002 c 0,0 0.026,-5.406 0.033,-7.16 0.221,-0.027 0.454,-0.057 0.671,-0.082 0.183,1.769 0.641,6.185 0.643,6.199 0.115,0.891 0.404,1.465 0.884,1.758 C -0.546,0.016 -0.239,0.041 0,0"
       id="path3209"
       style="fill:#656263;fill-opacity:1;stroke:none" /></g><g
     transform="matrix(1.25,0,0,-1.25,261.721,58.213)"
     id="g3211"><path
       d="m 0,0 -0.746,-7.188 c 0.414,-0.041 0.786,-0.078 0.923,-0.089 0.07,0.095 0.179,0.273 0.325,0.726 L 2.406,0.447 C 1.753,0.486 1.009,0.535 0.159,0.596 0.119,0.529 0.05,0.391 0,0"
       id="path3213"
       style="fill:#656263;fill-opacity:1;stroke:none" /></g><g
     transform="matrix(1.25,0,0,-1.25,221.781,83.445)"
     id="g3215"><path
       d="M 0,0 C 0,-0.004 -0.026,-0.391 0.217,-0.652 0.503,-0.959 1.073,-1.02 1.489,-1.018 l 1.584,0.028 c 1.048,3.068 5.539,16.23 5.535,16.217 0.447,1.416 1.383,1.634 1.819,1.548 l 1.372,-0.177 1.409,4.17 C 7.686,21.063 3.359,21.453 1.459,21.639 1.161,17.217 0.003,0.027 0,0"
       id="path3217"
       style="fill:#656263;fill-opacity:1;stroke:none" /></g><g
     transform="matrix(1.25,0,0,-1.25,265.026,44.341)"
     id="g3219"><path
       d="m 0,0 0,0.002 c 0,0 -0.08,0.025 -0.175,0.035 0,0 -0.422,0.059 -0.888,0.127 l -1.091,-7.367 -0.011,-0.176 -0.009,-0.035 c 0.012,-0.016 0.088,-0.074 0.287,-0.109 0.725,-0.131 1.356,-0.254 1.93,-0.37 C 0.037,-5.604 0.021,-0.172 0.021,-0.17 0.021,-0.17 0,-0.023 0,0"
       id="path3221"
       style="fill:#656263;fill-opacity:1;stroke:none" /></g><g
     transform="matrix(1.25,0,0,-1.25,234.322,64.998)"
     id="g3223"><path
       d="m 0,0 -5.365,-15.721 0.745,0.012 c 0,0 0.071,-0.012 0.142,-0.025 0.02,0.009 0.357,0.181 0.72,1.234 L 1.276,0.391 C 0.848,0.447 0.429,0.5 0.279,0.52 0.26,0.508 0.133,0.422 0,0"
       id="path3225"
       style="fill:#656263;fill-opacity:1;stroke:none" /></g><g
     transform="matrix(1.25,0,0,-1.25,244.714,53.648)"
     id="g3227"><path
       d="m 0,0 c -0.003,-0.02 -0.014,-0.029 -0.017,-0.047 -0.005,-0.017 -0.004,-0.047 -0.01,-0.064 L 0,0 z"
       id="path3229"
       style="fill:#ffffff;fill-opacity:1;stroke:none" /></g><g
     transform="matrix(1.25,0,0,-1.25,316.417,17.942)"
     id="g3231"><path
       d="m 0,0 c -0.315,1.23 -1.11,2.131 -2.67,2.131 -2.295,0 -3.255,-2.026 -3.255,-4.08 0,-2.055 0.96,-4.08 3.255,-4.08 1.665,0 2.58,1.244 2.73,2.804 l 1.83,0 c -0.15,-2.564 -1.965,-4.334 -4.56,-4.334 -3.21,0 -5.13,2.549 -5.13,5.61 0,3.06 1.92,5.609 5.13,5.609 C -0.255,3.646 1.65,2.311 1.875,0 L 0,0 z"
       id="path3233"
       style="fill:#ffffff;fill-opacity:1;stroke:none" /></g><path
     d="m 322.417,13.685 2.343,0 0,13.388 -2.343,0 0,-13.388 z"
     id="path3235"
     style="fill:#ffffff;fill-opacity:1;stroke:none" /><g
     transform="matrix(1.25,0,0,-1.25,327.611,13.684)"
     id="g3237"><path
       d="m 0,0 1.949,0 2.686,-8.475 0.03,0 2.744,8.475 1.905,0 -3.66,-10.711 -2.085,0 L 0,0 z"
       id="path3239"
       style="fill:#ffffff;fill-opacity:1;stroke:none" /></g><g
     transform="matrix(1.25,0,0,-1.25,343.812,21.748)"
     id="g3241"><path
       d="m 0,0 3.27,0 -1.605,4.605 -0.016,0 -0.03,0 L 0,0 z m 0.659,6.451 1.995,0 4.125,-10.711 -2.009,0 -1.005,2.836 -4.276,0 -1.005,-2.836 -1.934,0 4.109,10.711 z"
       id="path3243"
       style="fill:#ffffff;fill-opacity:1;stroke:none" /></g><g
     transform="matrix(1.25,0,0,-1.25,236.722,191.946)"
     id="g3245"><path
       d="m 0,0 3.13,0 -1.536,4.408 -0.015,0 -0.028,0 L 0,0 z m 0.632,6.174 1.909,0 3.949,-10.252 -1.924,0 -0.962,2.713 -4.092,0 -0.963,-2.713 -1.852,0 3.935,10.252 z"
       id="path3247"
       style="fill:#656263;fill-opacity:1;stroke:none" /></g><g
     transform="matrix(1.25,0,0,-1.25,247.491,184.229)"
     id="g3249"><path
       d="m 0,0 7.382,0 0,-1.551 -5.587,0 0,-2.685 5.17,0 0,-1.463 -5.17,0 0,-3.002 5.687,0 0,-1.551 -7.482,0 L 0,0 z"
       id="path3251"
       style="fill:#656263;fill-opacity:1;stroke:none" /></g><g
     transform="matrix(1.25,0,0,-1.25,262.480,190.061)"
     id="g3253"><path
       d="m 0,0 2.943,0 c 1.135,0 1.752,0.561 1.752,1.637 0,1.306 -0.846,1.566 -1.78,1.566 L 0,3.203 0,0 z m -1.795,4.666 4.897,0 c 2.24,0 3.388,-1.033 3.388,-2.771 0,-1.967 -1.364,-2.469 -1.694,-2.584 l 0,-0.03 c 0.617,-0.086 1.522,-0.545 1.522,-2.168 0,-1.191 0.172,-2.283 0.56,-2.699 l -1.924,0 c -0.273,0.445 -0.273,1.004 -0.273,1.508 0,1.881 -0.388,2.713 -2.039,2.713 l -2.642,0 0,-4.221 -1.795,0 0,10.252 z"
       id="path3255"
       style="fill:#656263;fill-opacity:1;stroke:none" /></g><g
     transform="matrix(1.25,0,0,-1.25,275.870,190.635)"
     id="g3257"><path
       d="m 0,0 c 0,-1.969 0.919,-3.906 3.116,-3.906 2.197,0 3.116,1.937 3.116,3.906 0,1.967 -0.919,3.904 -3.116,3.904 C 0.919,3.904 0,1.967 0,0 m 8.027,0 c 0,-2.93 -1.838,-5.371 -4.911,-5.371 -3.073,0 -4.911,2.441 -4.911,5.371 0,2.93 1.838,5.369 4.911,5.369 C 6.189,5.369 8.027,2.93 8.027,0"
       id="path3259"
       style="fill:#656263;fill-opacity:1;stroke:none" /></g><g
     transform="matrix(1.25,0,0,-1.25,291.630,195.213)"
     id="g3261"><path
       d="m 0,0 3.174,0 c 1.091,0 1.722,0.588 1.722,1.623 0,1.004 -0.631,1.578 -1.722,1.578 L 0,3.201 0,0 z m 0,4.494 2.93,0 c 0.861,0 1.508,0.502 1.508,1.422 0,1.033 -0.532,1.408 -1.508,1.408 l -2.93,0 0,-2.83 z m -1.795,4.293 4.983,0 c 1.838,0 3.044,-0.832 3.044,-2.541 0,-1.033 -0.531,-1.781 -1.464,-2.182 l 0,-0.029 c 1.249,-0.273 1.923,-1.25 1.923,-2.642 0,-1.61 -1.12,-2.858 -3.776,-2.858 l -4.71,0 0,10.252 z"
       id="path3263"
       style="fill:#656263;fill-opacity:1;stroke:none" /></g><g
     transform="matrix(1.25,0,0,-1.25,306.098,191.946)"
     id="g3265"><path
       d="m 0,0 3.131,0 -1.537,4.408 -0.015,0 -0.028,0 L 0,0 z m 0.632,6.174 1.91,0 3.949,-10.252 -1.925,0 -0.962,2.713 -4.092,0 -0.962,-2.713 -1.853,0 3.935,10.252 z"
       id="path3267"
       style="fill:#656263;fill-opacity:1;stroke:none" /></g><g
     transform="matrix(1.25,0,0,-1.25,314.000,184.229)"
     id="g3269"><path
       d="m 0,0 8.3,0 0,-1.551 -3.26,0 0,-8.701 -1.795,0 0,8.701 L 0,-1.551 0,0 z"
       id="path3271"
       style="fill:#656263;fill-opacity:1;stroke:none" /></g><path
     d="m 327.301,184.228 2.243,0 0,12.815 -2.243,0 0,-12.815 z"
     id="path3273"
     style="fill:#656263;fill-opacity:1;stroke:none" /><g
     transform="matrix(1.25,0,0,-1.25,342.379,188.303)"
     id="g3275"><path
       d="m 0,0 c -0.302,1.178 -1.063,2.039 -2.557,2.039 -2.196,0 -3.116,-1.937 -3.116,-3.904 0,-1.969 0.92,-3.906 3.116,-3.906 1.595,0 2.471,1.191 2.615,2.685 l 1.752,0 c -0.144,-2.457 -1.882,-4.15 -4.367,-4.15 -3.072,0 -4.911,2.441 -4.911,5.371 0,2.929 1.839,5.369 4.911,5.369 C -0.244,3.49 1.579,2.213 1.795,0 L 0,0 z"
       id="path3277"
       style="fill:#656263;fill-opacity:1;stroke:none" /></g><g
     transform="matrix(1.25,0,0,-1.25,349.594,192.771)"
     id="g3279"><path
       d="m 0,0 c 0,-1.58 1.163,-2.197 2.599,-2.197 1.58,0 2.169,0.775 2.169,1.551 0,0.789 -0.431,1.105 -0.848,1.263 C 3.202,0.891 2.269,1.076 0.861,1.465 -0.891,1.938 -1.407,3 -1.407,4.063 c 0,2.054 1.895,3.015 3.748,3.015 2.139,0 3.934,-1.133 3.934,-3.273 l -1.795,0 C 4.395,5.127 3.504,5.613 2.269,5.613 1.436,5.613 0.388,5.313 0.388,4.279 0.388,3.561 0.876,3.158 1.608,2.957 1.767,2.914 4.035,2.326 4.566,2.168 5.916,1.766 6.563,0.617 6.563,-0.445 c 0,-2.299 -2.04,-3.217 -4.079,-3.217 -2.34,0 -4.236,1.119 -4.279,3.662 L 0,0 z"
       id="path3281"
       style="fill:#656263;fill-opacity:1;stroke:none" /></g><g
     transform="matrix(1.25,0,0,-1.25,237.819,207.632)"
     id="g3283"><path
       d="m 0,0 c -0.302,1.176 -1.063,2.039 -2.557,2.039 -2.196,0 -3.116,-1.939 -3.116,-3.906 0,-1.969 0.92,-3.906 3.116,-3.906 1.595,0 2.471,1.191 2.615,2.685 l 1.752,0 c -0.144,-2.457 -1.882,-4.15 -4.367,-4.15 -3.072,0 -4.911,2.441 -4.911,5.371 0,2.93 1.839,5.371 4.911,5.371 C -0.244,3.488 1.579,2.211 1.795,0 L 0,0 z"
       id="path3285"
       style="fill:#656263;fill-opacity:1;stroke:none" /></g><g
     transform="matrix(1.25,0,0,-1.25,245.124,209.966)"
     id="g3287"><path
       d="m 0,0 c 0,-1.969 0.92,-3.906 3.116,-3.906 2.197,0 3.116,1.937 3.116,3.906 0,1.967 -0.919,3.906 -3.116,3.906 C 0.92,3.906 0,1.967 0,0 m 8.027,0 c 0,-2.93 -1.838,-5.371 -4.911,-5.371 -3.072,0 -4.911,2.441 -4.911,5.371 0,2.93 1.839,5.371 4.911,5.371 C 6.189,5.371 8.027,2.93 8.027,0"
       id="path3289"
       style="fill:#656263;fill-opacity:1;stroke:none" /></g><g
     transform="matrix(1.25,0,0,-1.25,258.606,203.557)"
     id="g3291"><path
       d="m 0,0 2.527,0 2.829,-8.027 0.029,0 2.757,8.027 2.499,0 0,-10.254 -1.709,0 0,7.912 -0.029,0 -2.843,-7.912 -1.48,0 -2.843,7.912 -0.028,0 0,-7.912 -1.709,0 L 0,0 z"
       id="path3293"
       style="fill:#656263;fill-opacity:1;stroke:none" /></g><g
     transform="matrix(1.25,0,0,-1.25,275.998,203.557)"
     id="g3295"><path
       d="m 0,0 2.527,0 2.829,-8.027 0.03,0 2.757,8.027 2.499,0 0,-10.254 -1.709,0 0,7.912 -0.03,0 -2.842,-7.912 -1.48,0 -2.843,7.912 -0.029,0 0,-7.912 -1.709,0 L 0,0 z"
       id="path3297"
       style="fill:#656263;fill-opacity:1;stroke:none" /></g><path
     d="m 293.428,203.557 2.243,0 0,12.817 -2.243,0 0,-12.817 z"
     id="path3299"
     style="fill:#656263;fill-opacity:1;stroke:none" /><g
     transform="matrix(1.25,0,0,-1.25,301.326,212.102)"
     id="g3301"><path
       d="m 0,0 c 0,-1.58 1.163,-2.197 2.599,-2.197 1.58,0 2.169,0.775 2.169,1.551 0,0.789 -0.431,1.105 -0.848,1.263 C 3.202,0.891 2.269,1.076 0.861,1.465 -0.891,1.938 -1.407,3 -1.407,4.064 c 0,2.053 1.895,3.016 3.748,3.016 2.139,0 3.934,-1.135 3.934,-3.275 l -1.795,0 C 4.394,5.127 3.504,5.615 2.269,5.615 1.436,5.615 0.388,5.313 0.388,4.279 0.388,3.561 0.876,3.158 1.608,2.957 1.766,2.914 4.035,2.326 4.566,2.168 5.916,1.766 6.563,0.617 6.563,-0.445 c 0,-2.299 -2.04,-3.217 -4.079,-3.217 -2.34,0 -4.236,1.119 -4.279,3.662 L 0,0 z"
       id="path3303"
       style="fill:#656263;fill-opacity:1;stroke:none" /></g><g
     transform="matrix(1.25,0,0,-1.25,314.394,212.102)"
     id="g3305"><path
       d="m 0,0 c 0,-1.58 1.163,-2.197 2.599,-2.197 1.58,0 2.169,0.775 2.169,1.551 0,0.789 -0.432,1.105 -0.848,1.263 C 3.202,0.891 2.269,1.076 0.861,1.465 -0.891,1.938 -1.407,3 -1.407,4.064 c 0,2.053 1.895,3.016 3.748,3.016 2.139,0 3.934,-1.135 3.934,-3.275 l -1.795,0 C 4.394,5.127 3.504,5.615 2.269,5.615 1.436,5.615 0.388,5.313 0.388,4.279 0.388,3.561 0.876,3.158 1.608,2.957 1.766,2.914 4.035,2.326 4.566,2.168 5.916,1.766 6.563,0.617 6.563,-0.445 c 0,-2.299 -2.04,-3.217 -4.079,-3.217 -2.34,0 -4.236,1.119 -4.279,3.662 L 0,0 z"
       id="path3307"
       style="fill:#656263;fill-opacity:1;stroke:none" /></g><path
     d="m 325.99,203.557 2.243,0 0,12.817 -2.243,0 0,-12.817 z"
     id="path3309"
     style="fill:#656263;fill-opacity:1;stroke:none" /><g
     transform="matrix(1.25,0,0,-1.25,333.977,209.966)"
     id="g3311"><path
       d="m 0,0 c 0,-1.969 0.92,-3.906 3.116,-3.906 2.197,0 3.116,1.937 3.116,3.906 0,1.967 -0.919,3.906 -3.116,3.906 C 0.92,3.906 0,1.967 0,0 m 8.027,0 c 0,-2.93 -1.838,-5.371 -4.911,-5.371 -3.072,0 -4.911,2.441 -4.911,5.371 0,2.93 1.839,5.371 4.911,5.371 C 6.189,5.371 8.027,2.93 8.027,0"
       id="path3313"
       style="fill:#656263;fill-opacity:1;stroke:none" /></g><g
     transform="matrix(1.25,0,0,-1.25,347.403,203.557)"
     id="g3315"><path
       d="m 0,0 1.896,0 4.681,-7.555 0.029,0 0,7.555 1.709,0 0,-10.254 -1.896,0 -4.667,7.539 -0.043,0 0,-7.539 -1.709,0 L 0,0 z"
       id="path3317"
       style="fill:#656263;fill-opacity:1;stroke:none" /></g></svg>
