<?xml version="1.0" encoding="UTF-8" standalone="no"?>
<!-- Created with Inkscape (http://www.inkscape.org/) -->

<svg
   xmlns:dc="http://purl.org/dc/elements/1.1/"
   xmlns:cc="http://creativecommons.org/ns#"
   xmlns:rdf="http://www.w3.org/1999/02/22-rdf-syntax-ns#"
   xmlns:svg="http://www.w3.org/2000/svg"
   xmlns="http://www.w3.org/2000/svg"
   version="1.1"
   width="500"
   height="194.59399"
   viewBox="0 0 500 194.594"
   id="Calque_1"
   xml:space="preserve"><metadata
   id="metadata147"><rdf:RDF><cc:Work
       rdf:about=""><dc:format>image/svg+xml</dc:format><dc:type
         rdf:resource="http://purl.org/dc/dcmitype/StillImage" /><dc:title></dc:title></cc:Work></rdf:RDF></metadata><defs
   id="defs145" />
<g
   id="g3">
	<g
   id="g5">
		<path
   d="m 360.229,88.247 c -2.133,-0.509 -3.816,-3.02 -5.02,-7.52 -0.602,-2.252 -2.123,-7.666 -1.656,-9.542 0.473,-1.877 15.791,-8.089 78.179,-29.436 -12.903,1.647 -76.602,20.109 -79.112,20.286 l -2.467,-27.602 c -0.177,-3.797 -0.364,-6.727 -0.554,-8.768 -0.184,-2.05 -0.473,-3.79 -0.843,-5.215 -0.497,-1.813 -1.062,-2.926 -1.695,-3.339 -0.645,-0.409 -1.683,-0.412 -3.132,0 -0.984,0.276 -1.847,0.678 -2.6,1.189 -0.756,0.514 -1.649,1.188 -2.666,2.042 -1.026,0.852 -2.149,1.787 -3.394,2.782 l -1.67,1.189 c -3.503,2.476 -6.515,4.995 -9.043,7.546 -2.525,2.552 -5.792,6.469 -9.79,11.75 l -27.199,39.146 c 0,0 -19.435,6.521 -20.563,6.491 0,0 -8.959,11.633 -5.158,11.022 3.796,-0.607 17.125,-5.163 17.125,-5.163 l -16.133,26.281 c -1.438,1.883 -0.196,1.745 0.179,1.883 0.49,0.178 2.029,0.178 2.569,0.116 0.365,-0.041 5.201,-0.327 5.413,-0.388 l 4.932,-0.901 21.464,-31.712 c 0,0 41.078,-14.875 43.022,-15.135 l 0.718,3.91 c 0.845,6.254 1.651,10.806 2.415,13.656 1.101,4.12 2.609,5.906 4.529,5.36 0.347,-0.102 1.757,-1.063 4.214,-2.875 l 5.2,-3.878 c 2.342,-1.618 3.473,-2.589 3.39,-2.908 l -0.654,-0.267 z M 304.335,77.945 315.326,59.769 331.118,33.702 c 0.954,-1.675 3.497,-4.863 4.065,-5.029 0.713,-0.205 1.401,0.718 1.911,2.632 0.903,3.356 0.508,6.415 1.042,12.765 l 1.579,22.424 -35.38,11.451 z"
   id="path7"
   style="fill:#0f3a6e" />
		<path
   d="m 264.682,123.582 c -0.382,0 -1.312,-0.018 -1.718,-0.164 -0.05,-0.018 -0.117,-0.03 -0.189,-0.044 -0.258,-0.049 -0.611,-0.118 -0.732,-0.437 -0.133,-0.349 0.08,-0.872 0.671,-1.646 L 278.61,95.395 c -2.282,0.772 -13.35,4.486 -16.737,5.029 -0.644,0.104 -0.922,-0.154 -1.028,-0.369 -0.894,-1.818 5.326,-9.979 6.037,-10.905 l 0.049,-0.063 0.08,0.002 c 0.939,0 13.824,-4.24 20.509,-6.483 L 314.639,43.52 c 3.978,-5.253 7.275,-9.212 9.807,-11.771 2.542,-2.564 5.592,-5.109 9.063,-7.565 l 1.67,-1.188 c 1.199,-0.958 2.291,-1.866 3.292,-2.696 l 0.094,-0.078 c 0.954,-0.802 1.854,-1.493 2.678,-2.052 0.777,-0.528 1.666,-0.936 2.645,-1.211 1.484,-0.422 2.573,-0.416 3.259,0.019 0.675,0.438 1.249,1.561 1.764,3.43 0.381,1.476 0.667,3.239 0.848,5.243 0.193,2.096 0.38,5.049 0.554,8.776 l 2.451,27.432 c 1.417,-0.239 9.404,-2.43 19.398,-5.173 20.33,-5.578 51.054,-14.007 59.552,-15.092 l 0.071,0.304 c -55.67,19.048 -77.561,27.271 -78.076,29.326 -0.428,1.718 0.896,6.638 1.531,9.002 l 0.124,0.46 c 1.182,4.42 2.83,6.912 4.904,7.407 l 0.751,0.304 0.02,0.076 c 0.054,0.206 0.152,0.587 -3.453,3.077 l -5.195,3.875 c -3.71,2.737 -4.128,2.86 -4.265,2.899 -2.036,0.576 -3.591,-1.224 -4.724,-5.47 -0.766,-2.854 -1.579,-7.455 -2.419,-13.675 l -0.688,-3.746 c -3.264,0.77 -42.439,14.952 -42.843,15.099 l -21.424,31.707 -4.997,0.912 c -0.112,0.033 -1.194,0.107 -3.574,0.263 -0.929,0.061 -1.712,0.111 -1.85,0.127 -0.206,0.025 -0.549,0.041 -0.925,0.041 l 0,0 z m 14.651,-28.766 -16.36,26.653 c -0.67,0.879 -0.687,1.227 -0.637,1.356 0.06,0.154 0.292,0.2 0.498,0.239 0.093,0.018 0.175,0.035 0.238,0.058 0.243,0.089 0.861,0.144 1.609,0.144 0.362,0 0.691,-0.014 0.887,-0.035 0.14,-0.017 0.93,-0.068 1.866,-0.128 1.341,-0.087 3.366,-0.221 3.525,-0.257 l 4.879,-0.891 21.429,-31.658 c 1.754,-0.667 41.19,-14.945 43.129,-15.203 l 0.148,-0.02 0.746,4.057 c 0.839,6.214 1.65,10.802 2.413,13.643 1.067,4.003 2.51,5.768 4.333,5.25 0.226,-0.067 1.135,-0.616 4.163,-2.852 l 5.199,-3.878 c 2.689,-1.856 3.222,-2.481 3.314,-2.682 l -0.545,-0.221 c -2.17,-0.516 -3.897,-3.084 -5.112,-7.625 l -0.124,-0.46 c -0.69,-2.573 -1.979,-7.362 -1.531,-9.159 0.465,-1.85 13.494,-7.362 76.6,-28.972 -10.36,1.809 -38.651,9.571 -57.758,14.813 -10.877,2.985 -18.738,5.141 -19.613,5.203 l -0.153,0.011 -0.015,-0.154 -2.467,-27.602 c -0.173,-3.729 -0.359,-6.677 -0.553,-8.768 -0.18,-1.987 -0.461,-3.734 -0.838,-5.191 -0.485,-1.765 -1.033,-2.858 -1.63,-3.247 -0.598,-0.379 -1.616,-0.374 -3.004,0.02 -0.945,0.266 -1.804,0.659 -2.552,1.167 -0.816,0.554 -1.708,1.238 -2.654,2.033 l -0.096,0.079 c -1,0.832 -2.094,1.74 -3.303,2.705 l -1.677,1.195 c -3.458,2.445 -6.494,4.978 -9.021,7.53 -2.521,2.548 -5.81,6.495 -9.775,11.733 l -27.196,39.14 c -0.854,0.32 -18.863,6.359 -20.609,6.555 -1.931,2.513 -6.64,9.137 -5.961,10.517 0.057,0.116 0.233,0.271 0.697,0.196 3.738,-0.598 16.965,-5.109 17.098,-5.155 l 0.413,-0.139 0,0 z M 303.981,78.225 330.983,33.62 c 0.876,-1.538 3.48,-4.901 4.157,-5.098 0.816,-0.236 1.57,0.732 2.107,2.742 0.556,2.07 0.621,4.005 0.714,6.683 0.058,1.71 0.123,3.647 0.332,6.109 l 1.588,22.548 -0.117,0.038 -35.783,11.583 0,0 z m 31.397,-49.423 c -0.049,0 -0.1,0.007 -0.15,0.021 -0.462,0.135 -2.956,3.169 -3.974,4.956 L 304.688,77.666 339.552,66.381 337.98,44.08 c -0.207,-2.467 -0.273,-4.409 -0.333,-6.123 -0.09,-2.656 -0.155,-4.576 -0.703,-6.612 -0.431,-1.616 -1.002,-2.543 -1.566,-2.543 l 0,0 z"
   id="path9"
   style="fill:#0f3a6e" />
	</g>
	<g
   id="g11">
		<g
   id="g13">
			<path
   d="m 441.246,50.708 c -0.862,-1.646 -2.821,-5.847 -4.363,-9.873 -1.554,-4.092 -2.895,-8.516 -3.387,-10.194 -0.226,-0.751 0.507,-0.969 0.507,-0.969 l 4.608,-1.79 c 0,0 0.557,-0.271 0.965,0.533 1.623,3.159 2.097,3.941 4.278,9.564 2.283,5.855 2.588,7.089 3.387,10.192 0,0 0.388,0.933 -0.377,1.246 l -4.472,1.729 c 10e-4,0 -0.766,0.282 -1.146,-0.438 z"
   id="path15"
   style="fill:#e5312b" />
		</g>
		<g
   id="g17">
			<path
   d="m 440.923,40.992 c 0,0 18.095,-3.954 25.304,-6.907 0,0 3.373,-0.529 12.3,-6.667 0,0 2.222,-1.341 1.04,-3.915 -0.915,-2.678 -3.46,-2.118 -3.46,-2.118 -10.688,1.735 -13.504,3.673 -13.504,3.673 -7.243,2.852 -23.055,12.49 -23.055,12.49 l 1.375,3.444 z"
   id="path19"
   style="fill:#e5312b" />
		</g>
		<g
   id="g21">
			<path
   d="m 468.972,54.867 c -1.808,-3.688 -6.369,-14.025 -9.861,-23.007 -3.546,-9.122 -7.182,-19.726 -8.395,-23.463 -0.54,-1.663 0.602,-2.1 0.602,-2.1 l 6.002,-2.235 c 0,0 0.835,-0.544 1.708,1.256 3.434,7.09 4.752,9.61 9.702,22.164 5.16,13.08 6.28,16.738 8.341,23.618 0,0 0.86,2.09 -0.326,2.709 l -5.785,2.129 c -10e-4,0 -1.209,0.539 -1.988,-1.071 z"
   id="path23"
   style="fill:#e5312b" />
		</g>
	</g>
	<g
   id="g25">
		<path
   d="m 143.915,123.455 c -0.971,0.044 -8.993,-3.571 -8.993,-3.571 l -0.665,-0.665 -0.127,-0.396 -0.136,-1.717 6.747,-13.225 3.438,-6.084 1.322,-2.247 1.194,-2.516 -0.271,-0.395 -4.623,-5.56 5.287,-4.232 1.59,-1.72 c 0,0 5.03,-2.353 6.48,-3.966 1.448,-1.616 6.218,-11.382 6.218,-11.382 l -14.02,6.614 -1.722,0.796 -0.927,0.267 -1.055,0.263 -0.53,0.133 c 0,0 -0.741,-0.006 -1.853,-0.262 -2.14,-0.733 -4.89,-4.499 -4.89,-4.499 0,0 -1.022,-1.037 -1.256,-1.843 -0.235,-0.797 0.459,-1.861 0.459,-1.861 l 3.701,-1.191 7.14,-3.441 12.438,-6.345 c 0,0 4.563,-2.233 5.16,-2.514 0.594,-0.279 0.924,-2.453 0.924,-2.453 0,0 6.432,-2.927 7.411,-4.032 0.971,-1.101 4.128,-8.589 8.593,-15.208 8.63,0.87 11.077,5.015 11.113,5.025 2.418,-0.761 42.004,-16.889 44.445,-15.609 2.44,1.278 10.051,8.33 10.051,8.33 0,0 0.821,1.187 -0.661,2.253 -1.486,1.055 -41.81,12.083 -61.64,23.811 -2.588,1.841 -6.033,10.596 -5.815,10.978 0.208,0.376 16.239,-6.184 18.12,-5.824 1.875,0.355 8.467,6.012 10.443,8.865 1.509,2.421 -33.249,12.223 -42.322,19.706 -2.896,1.844 -19.802,35.676 -20.768,35.717 z"
   id="path27"
   style="fill:#0f3a6e" />
	</g>
	<g
   id="g29">
		<path
   d="m 218.556,123.552 c -0.974,0.043 -8.995,-3.571 -8.995,-3.571 l -0.667,-0.658 -0.131,-0.398 -0.132,-1.714 6.747,-13.233 3.433,-6.087 1.329,-2.239 1.191,-2.521 -0.266,-0.395 -4.627,-5.556 5.29,-4.232 1.585,-1.718 c 0,0 5.037,-2.356 6.483,-3.973 1.446,-1.616 6.218,-11.375 6.218,-11.375 l -14.022,6.618 -1.72,0.799 -0.925,0.26 -1.053,0.262 -0.53,0.132 c 0,0 -0.747,-0.006 -1.856,-0.261 -2.134,-0.735 -4.891,-4.492 -4.891,-4.492 0,0 -1.011,-1.045 -1.25,-1.848 -0.234,-0.796 0.454,-1.866 0.454,-1.866 l 3.703,-1.187 7.143,-3.443 12.434,-6.344 c 0,0 4.564,-2.233 5.156,-2.517 0.598,-0.278 0.935,-2.446 0.935,-2.446 0,0 6.426,-2.934 7.402,-4.034 0.978,-1.102 4.134,-8.584 8.597,-15.21 8.628,0.872 11.08,5.017 11.108,5.027 2.423,-0.764 42.008,-16.891 44.446,-15.612 2.441,1.282 10.057,8.337 10.057,8.337 0,0 0.815,1.185 -0.661,2.248 -1.491,1.061 -41.816,12.082 -61.646,23.811 -2.588,1.84 -6.033,10.597 -5.817,10.975 0.215,0.382 16.243,-6.176 18.119,-5.819 1.882,0.354 8.476,6.007 10.45,8.861 1.511,2.425 -33.254,12.221 -42.326,19.708 -2.891,1.844 -19.8,35.672 -20.765,35.711 z"
   id="path31"
   style="fill:#0f3a6e" />
	</g>
</g>
<g
   id="g33">
	<g
   id="g35">
		<g
   id="g37">
			<path
   d="m 84.491,30.354 c -0.405,-0.575 -1.697,-0.509 -2.609,-0.719 -1.028,1.226 -1.328,3.456 -2.528,4.444 -1.083,-2.007 -1.467,-8.749 2.255,-8.43 0.273,1.141 0.454,0.837 0.211,2.46 0.885,0.141 1.775,0.283 2.663,0.425 1.661,-4.079 3.442,-7.987 6.223,-10.52 -1.104,-1.036 -4.292,-0.552 -4.837,-1.986 1.776,0.283 3.546,0.566 5.323,0.85 1,-0.178 0.599,-2.293 1.606,-2.472 2.007,0.022 1.345,1.986 1.595,3.286 1.039,0.252 5.498,1.256 3.747,1.203 -0.546,-0.014 -1.783,-0.329 -3.546,-0.564 -1.803,6.271 -1.653,13.395 -2.563,19.89 4.741,7.055 -4.146,18.735 -5.226,27.052 2.692,2.879 4.175,3.217 8.066,6.436 -0.427,1.091 -0.763,2.312 -0.909,3.793 -6.357,0.446 -9.735,1.793 -15.276,2.717 -0.243,-1.916 0.485,-4.539 0.438,-6.593 -0.876,0.112 -0.638,1.757 -1.262,2.222 -1.419,-0.986 0.647,-1.816 1.019,-2.568 1.564,-13.423 4.328,-27.711 5.61,-40.926 z"
   id="path39"
   style="fill:#e32522;fill-rule:evenodd" />
		</g>
	</g>
</g>
<g
   id="g41">
	<g
   id="g43">
		<g
   id="g45">
			<path
   d="m 50.993,89.501 c -0.455,-0.078 -0.525,-0.771 -0.727,-1.266 -0.308,-0.76 -0.875,-1.579 -0.179,-2.371 0.432,0.021 0.544,0.725 0.725,1.267 0.25,0.743 0.787,1.72 0.181,2.37 z m -0.284,-2.274 c -0.156,-0.468 -0.259,-0.988 -0.582,-1.206 -0.502,0.756 -0.026,1.462 0.243,2.125 0.19,0.464 0.292,0.955 0.582,1.208 0.396,-0.765 -0.022,-1.462 -0.243,-2.127 z"
   id="path47"
   style="fill:#e32522;fill-rule:evenodd" />
		</g>
		<g
   id="g49">
			<path
   d="m 49.896,91.858 c -0.451,-0.063 -0.612,-0.73 -0.83,-1.17 -0.214,-0.436 -0.514,-0.975 -0.574,-1.355 -0.039,-0.249 0.033,-1.058 0.397,-1.064 0.287,-0.004 0.57,0.807 0.685,1.065 0.34,0.762 0.876,1.663 0.322,2.524 z M 48.93,88.419 c -0.634,0.604 -0.134,1.41 0.192,2.076 0.23,0.461 0.427,0.945 0.683,1.209 0.583,-1.2 -0.538,-2.311 -0.875,-3.285 z"
   id="path51"
   style="fill:#e32522;fill-rule:evenodd" />
		</g>
		<g
   id="g53">
			<path
   d="m 40.11,77.52 c -0.17,-0.142 -0.337,-0.287 -0.419,-0.511 0.188,-0.033 0.355,-0.14 0.543,-0.026 0.08,0.189 0.002,0.43 -0.124,0.537 z"
   id="path55"
   style="fill:#e32522;fill-rule:evenodd" />
		</g>
		<g
   id="g57">
			<path
   d="m 38.894,79.282 c -0.293,0.313 -0.603,0.88 -1.211,0.679 -0.12,-0.287 0.024,-0.684 0.093,-0.931 0.203,0.237 0.696,0.358 1.118,0.252 z"
   id="path59"
   style="fill:#e32522;fill-rule:evenodd" />
		</g>
		<g
   id="g61">
			<path
   d="m 53.206,75.199 c -0.075,0.455 -0.508,0.955 -0.663,1.492 -1.601,1.041 -3.462,2.448 -5.242,3.684 -0.335,0.231 -1.433,1.195 -1.773,1.095 -0.197,-0.061 -0.204,-0.175 -0.329,-0.361 2.61,-2.035 5.331,-3.947 8.007,-5.91 z"
   id="path63"
   style="fill:#e32522;fill-rule:evenodd" />
		</g>
		<g
   id="g65">
			<path
   d="m 67.659,116.218 c -0.003,0.032 -0.003,0.065 -0.006,0.1 -2.566,-0.459 -5.543,-1.181 -8.273,-1.776 -0.4,-0.088 -0.883,-0.258 -1.171,-0.253 -0.37,0.012 -0.657,0.34 -0.981,-0.044 -0.005,0.451 0.367,0.927 0.326,1.389 -0.034,0.399 -0.539,1.17 -0.763,1.588 -0.764,1.425 -1.67,3.216 -2.708,4.147 -0.576,-0.291 -0.93,-0.838 -1.259,-1.438 -0.289,-0.53 -0.69,-1.285 -0.693,-1.901 -0.005,-0.549 0.283,-1.28 0.481,-1.893 0.546,-1.671 1.31,-3.64 1.873,-5.174 -2.24,-2.826 -4.641,-5.513 -6.979,-8.251 -3.428,6.68 -6.915,13.289 -10.352,19.957 -0.408,-0.252 -0.692,-0.766 -0.977,-1.223 -0.283,-0.464 -0.549,-0.967 -0.814,-1.47 -0.479,-0.908 -1.259,-2.161 -1.167,-3.303 0.053,-0.672 0.505,-1.58 0.801,-2.37 0.856,-2.283 1.784,-4.634 2.643,-6.855 1.235,-3.215 2.225,-6.378 3.722,-8.919 -0.265,-1.039 -0.62,-2 -0.885,-3.041 -0.664,0.217 -1.146,0.628 -1.766,0.898 0.277,0.513 0.156,1.203 0.295,2.029 0.08,0.459 0.268,0.841 0.142,1.141 -0.32,0.763 -1.678,0.057 -2.144,-0.401 -0.258,-0.256 -0.465,-0.628 -0.642,-0.963 -0.539,-0.353 -1.19,-0.62 -1.217,-1.288 -0.022,-0.555 0.533,-0.932 0.47,-1.603 0.627,-0.533 1.912,-0.112 2.395,0.313 0.685,-0.503 1.403,-0.968 2.041,-1.527 -0.318,-0.894 -0.508,-1.755 -0.76,-2.59 -0.257,-0.856 -0.694,-1.514 -1.071,-2.315 -0.505,-1.084 -0.736,-2.307 -1.158,-3.497 -1.538,0.367 -2.067,-0.879 -2.675,-1.655 -0.533,-0.197 -1.197,-0.545 -1.221,-1.189 -0.01,-0.274 0.211,-0.452 0.283,-0.772 0.078,-0.348 -0.06,-0.613 0.088,-0.833 0.607,-0.906 2.328,0.252 2.674,0.668 -0.187,-1.964 0.565,-3.284 1.386,-4.309 0.05,-0.532 0.114,-1.049 0.314,-1.413 0.446,0.066 0.773,0.236 1.113,0.398 2.162,-1.045 3.343,0.712 4.38,1.981 0.649,0.797 1.218,1.629 1.658,2.341 2.844,-1.981 5.55,-4.117 8.407,-6.085 2.13,-4.09 4.731,-7.671 7.196,-11.604 0.36,-0.573 0.696,-1.235 1.34,-1.264 1.481,-0.063 2.057,2.151 2.398,3.313 0.137,0.469 0.398,1.087 0.369,1.492 -0.028,0.437 -0.469,1.102 -0.72,1.688 -3.339,7.824 -6.686,15.27 -10.385,22.711 -0.27,0.542 -0.669,1.154 -0.764,1.588 -0.113,0.514 -0.083,1.122 -0.131,1.665 -0.047,0.539 -0.195,1.151 -0.176,1.615 0.032,0.684 0.618,1.947 0.858,2.647 0.899,2.632 1.715,5.4 3.237,7.334 0.502,-0.56 0.85,-1.151 1.367,-1.851 0.283,-0.386 1.001,-1.662 1.506,-1.65 0.462,0.016 0.975,1.076 1.154,1.533 0.209,0.534 0.523,1.608 0.488,2.138 -0.036,0.558 -0.437,1.154 -0.62,1.642 -0.221,0.589 -0.373,1.13 -0.62,1.644 2.023,1.15 4.245,2.118 6.39,3.159 0.743,0.917 1.089,2.198 1.303,3.601 z m -22.46,-35.11 c 0.125,0.186 0.132,0.3 0.329,0.361 0.34,0.1 1.438,-0.863 1.773,-1.095 1.779,-1.236 3.641,-2.643 5.242,-3.684 0.154,-0.538 0.588,-1.037 0.663,-1.492 -2.676,1.964 -5.397,3.876 -8.007,5.91 z m 2.196,-0.633 c -0.534,0.371 -1.109,0.739 -1.434,1.161 1.265,0.353 2.283,0.933 3.271,1.536 0.981,-2.02 2.174,-4.08 2.998,-6.101 -1.55,1.154 -3.268,2.315 -4.835,3.404 z m -4.883,15.65 c -0.558,-0.262 -0.618,-1.6 -1.426,-1.051 0.231,0.84 0.469,1.67 0.77,2.445 0.215,-0.466 0.514,-0.841 0.656,-1.394 z M 40.49,93.128 c 0.038,0.23 0.058,0.479 0.22,0.598 0.047,-0.308 -0.077,-0.461 -0.22,-0.598 z M 40.234,76.983 c -0.188,-0.114 -0.355,-0.007 -0.543,0.026 0.082,0.224 0.249,0.369 0.419,0.511 0.126,-0.107 0.204,-0.348 0.124,-0.537 z m -2.458,2.047 c -0.069,0.247 -0.213,0.645 -0.093,0.931 0.608,0.201 0.918,-0.367 1.211,-0.679 -0.422,0.106 -0.915,-0.015 -1.118,-0.252 z"
   id="path67"
   style="fill:#e32522;fill-rule:evenodd" />
		</g>
	</g>
</g>
<g
   id="g69">
	<g
   id="g71">
		<g
   id="g73">
			<path
   d="m 65.298,161.993 c 0.468,0.592 0.938,1.19 1.408,1.785 -2.613,1.975 -5.191,3.642 -7.795,5.559 1.14,1.81 2.686,3.975 4.053,5.889 0.52,0.724 1.393,1.32 1.357,2.213 -1.051,-0.074 -2.222,-1.403 -3.061,-2.42 -1.228,-1.479 -2.236,-3.415 -3.427,-4.836 -0.338,-0.172 -0.783,0.543 -1.166,0.724 -4.958,-2.226 -9.996,-3.789 -14.958,-5.996 1.152,2.156 2.531,4.139 3.909,6.194 1.365,2.028 2.618,4.256 4.125,6.219 1.717,2.239 4.083,4.25 6.066,6.237 2.013,2.015 4.137,3.774 5.786,5.874 -0.121,0.095 -0.239,0.188 -0.358,0.283 -1.348,-0.935 -3.078,-1.271 -4.701,-2.289 -1.499,-0.942 -2.973,-2.514 -4.401,-3.874 -2.884,-2.754 -6.186,-5.55 -8.823,-8.51 -1.878,-2.105 -2.901,-5.001 -4.66,-7.149 -1.703,1.331 1.002,2.771 1.555,4.186 -1.469,0.538 -2.776,-0.276 -4.143,-0.602 -0.787,0.233 -1.409,0.588 -1.97,0.198 -0.96,-0.671 -0.752,-2.331 -0.92,-3.137 1.143,-1.658 2.935,-1.136 4.376,-2.289 -2.002,-5.246 -6.764,-10.494 -11.153,-13.434 -0.916,0.754 -1.764,0.899 -2.692,1.732 -0.287,0.873 0.8,1.83 1.214,2.524 -0.756,0.57 -1.702,-0.069 -2.344,-0.28 -0.781,-0.261 -1.594,-0.438 -2.27,-0.918 -2.179,0.718 -3.19,-2.107 -2.482,-3.648 1.593,-1.271 3.005,-1.036 4.262,0.507 0.798,-0.343 1.633,-1.002 2.453,-1.545 -1.332,-1.252 -2.747,-3.124 -3.02,-4.575 0.296,-0.448 0.555,-1.116 1.192,-0.938 -0.467,-0.488 -0.396,-0.91 -0.062,-1.302 -0.792,-0.96 -0.818,-1.825 -1.187,-2.737 0.749,-0.535 1.356,0.115 2.064,-0.077 -3.447,-4.229 -2.447,-7.93 -3.132,-11.83 0.12,-0.095 0.24,-0.186 0.357,-0.281 1.258,0.028 1.979,1.339 3.25,2.657 0.633,0.655 1.394,1.181 1.743,1.721 0.812,1.262 1.224,3.189 1.811,4.752 0.62,1.651 1.233,3.248 1.718,4.638 1.123,0.169 2.021,1.146 3.07,1.448 1.372,0.396 2.82,0.023 4.075,0.269 2.885,0.561 5.48,2.146 8.23,5.303 1.245,1.43 2.301,3.438 4.039,5.126 0.437,0.427 1.274,0.506 1.766,1.51 0.535,0.389 -0.335,0.61 -0.222,0.945 0.251,0.319 0.501,0.637 0.752,0.955 0.453,0.437 1.036,-0.237 1.517,-0.034 l -0.069,0.277 0.232,0.175 c -0.332,0.349 -0.601,0.199 -0.905,0.323 0.682,1.129 1.566,2.274 2.511,3.433 2.412,1.149 5.667,-0.369 8.781,-1.114 1.079,-0.263 1.482,-0.647 2.249,0.159 z"
   id="path75"
   style="fill:#e32522;fill-rule:evenodd" />
		</g>
	</g>
</g>
<g
   id="g77">
	<path
   d="m 215.829,151.996 c 0,1.759 -0.618,3.174 -1.854,4.245 -1.184,0.996 -2.662,1.495 -4.437,1.495 H 195.53 v -3.237 h 14.008 c 0.877,0 1.64,-0.2 2.285,-0.599 0.735,-0.49 1.103,-1.152 1.103,-1.986 0,-0.834 -0.376,-1.478 -1.129,-1.932 -0.628,-0.381 -1.381,-0.571 -2.258,-0.571 h -8.658 c -1.596,0 -2.931,-0.443 -4.007,-1.333 -1.147,-0.962 -1.72,-2.23 -1.72,-3.81 0,-1.56 0.573,-2.82 1.72,-3.782 1.076,-0.888 2.411,-1.332 4.007,-1.332 h 13.847 v 3.237 H 200.88 c -0.61,0 -1.129,0.173 -1.56,0.518 -0.43,0.345 -0.645,0.806 -0.645,1.386 0,0.599 0.215,1.062 0.645,1.39 0.431,0.325 0.95,0.487 1.56,0.487 h 8.658 c 1.774,0 3.253,0.519 4.437,1.553 1.235,1.086 1.854,2.511 1.854,4.271 z"
   id="path79"
   style="fill:#0f3a6e" />
	<path
   d="m 238.791,145.847 c 0,2.03 -0.735,3.672 -2.205,4.924 -1.362,1.161 -3.074,1.74 -5.135,1.74 h -8.093 v -3.209 h 8.604 c 1.058,0 1.945,-0.317 2.662,-0.953 0.717,-0.635 1.076,-1.479 1.076,-2.53 0,-1.051 -0.359,-1.887 -1.076,-2.503 -0.716,-0.616 -1.604,-0.925 -2.662,-0.925 h -10.486 v 15.345 h -3.2 v -18.582 h 13.175 c 2.062,0 3.773,0.589 5.135,1.769 1.47,1.233 2.205,2.874 2.205,4.924 z"
   id="path81"
   style="fill:#0f3a6e" />
	<path
   d="m 264.28,148.241 c 0,2.739 -0.869,5.007 -2.608,6.801 -1.739,1.797 -3.952,2.694 -6.642,2.694 h -5.136 c -2.67,0 -4.879,-0.897 -6.627,-2.694 -1.748,-1.794 -2.621,-4.062 -2.621,-6.801 0,-2.72 0.864,-4.915 2.594,-6.585 1.729,-1.667 3.948,-2.502 6.654,-2.502 h 5.136 c 2.726,0 4.947,0.835 6.668,2.502 1.723,1.67 2.582,3.865 2.582,6.585 z m -3.174,0.271 c 0,-1.795 -0.568,-3.265 -1.707,-4.407 -1.138,-1.143 -2.594,-1.714 -4.369,-1.714 h -5.136 c -1.757,0 -3.203,0.571 -4.342,1.714 -1.138,1.143 -1.707,2.612 -1.707,4.407 0,1.778 0.568,3.221 1.707,4.327 1.139,1.106 2.585,1.659 4.342,1.659 h 5.136 c 1.775,0 3.231,-0.553 4.369,-1.659 1.139,-1.106 1.707,-2.548 1.707,-4.327 z"
   id="path83"
   style="fill:#0f3a6e" />
	<path
   d="m 288.452,157.736 h -4.732 l -5.136,-5.225 h -6.91 v -3.209 h 8.604 c 1.182,0 2.177,-0.263 2.982,-0.79 0.916,-0.616 1.374,-1.496 1.374,-2.639 0,-2.321 -1.453,-3.482 -4.356,-3.482 h -10.486 v 15.345 h -3.199 v -18.582 h 13.174 c 2.367,0 4.275,0.517 5.728,1.55 1.667,1.18 2.501,2.912 2.501,5.197 0,1.561 -0.484,2.901 -1.453,4.026 -0.896,1.053 -2.116,1.787 -3.656,2.204 l 5.565,5.605 z"
   id="path85"
   style="fill:#0f3a6e" />
	<path
   d="m 307.972,142.391 h -7.232 v 15.345 h -3.173 v -15.345 h -7.26 v -3.237 h 17.665 v 3.237 z"
   id="path87"
   style="fill:#0f3a6e" />
	<path
   d="m 329.805,151.996 c 0,1.759 -0.619,3.174 -1.856,4.245 -1.183,0.996 -2.661,1.495 -4.437,1.495 h -14.009 v -3.237 h 14.009 c 0.877,0 1.641,-0.2 2.285,-0.599 0.736,-0.49 1.104,-1.152 1.104,-1.986 0,-0.834 -0.377,-1.478 -1.129,-1.932 -0.629,-0.381 -1.383,-0.571 -2.26,-0.571 h -8.657 c -1.595,0 -2.932,-0.443 -4.007,-1.333 -1.146,-0.962 -1.72,-2.23 -1.72,-3.81 0,-1.56 0.573,-2.82 1.72,-3.782 1.075,-0.888 2.412,-1.332 4.007,-1.332 h 13.848 v 3.237 h -13.848 c -0.61,0 -1.13,0.173 -1.56,0.518 -0.432,0.345 -0.646,0.806 -0.646,1.386 0,0.599 0.214,1.062 0.646,1.39 0.43,0.325 0.949,0.487 1.56,0.487 h 8.657 c 1.775,0 3.254,0.519 4.437,1.553 1.237,1.086 1.856,2.511 1.856,4.271 z"
   id="path89"
   style="fill:#0f3a6e" />
	<path
   d="m 364.703,157.736 -4.114,-0.026 -3.093,-5.198 h -8.711 l 1.936,-3.209 h 4.867 l -3.2,-5.361 -8.279,13.769 h -4.114 l 9.975,-16.787 c 0.251,-0.437 0.601,-0.835 1.049,-1.198 0.538,-0.417 1.021,-0.625 1.452,-0.625 0.466,0 0.949,0.2 1.451,0.598 0.431,0.347 0.78,0.754 1.05,1.226 l 9.731,16.811 z"
   id="path91"
   style="fill:#0f3a6e" />
	<path
   d="M 382.1,157.736 H 366.238 V 139.154 H 382.1 v 3.237 h -12.665 v 12.107 H 382.1 v 3.238 z m -0.834,-7.809 h -10.487 v -3.237 h 10.487 v 3.237 z m -3.791,-13.795 -2.931,1.77 h -2.205 l 2.205,-1.77 h 2.931 z"
   id="path93"
   style="fill:#0f3a6e" />
	<path
   d="m 407.185,157.736 h -4.732 l -5.136,-5.225 h -6.91 v -3.209 h 8.604 c 1.183,0 2.178,-0.263 2.983,-0.79 0.915,-0.616 1.372,-1.496 1.372,-2.639 0,-2.321 -1.451,-3.482 -4.355,-3.482 h -10.486 v 15.345 h -3.198 V 139.154 H 398.5 c 2.366,0 4.275,0.517 5.727,1.55 1.667,1.18 2.501,2.912 2.501,5.197 0,1.561 -0.485,2.901 -1.452,4.026 -0.896,1.053 -2.116,1.787 -3.656,2.204 l 5.565,5.605 z"
   id="path95"
   style="fill:#0f3a6e" />
	<path
   d="m 413.853,157.736 h -3.2 v -18.582 h 3.2 v 18.582 z"
   id="path97"
   style="fill:#0f3a6e" />
	<path
   d="m 434.045,157.736 h -15.864 v -18.582 h 15.864 v 3.237 h -12.664 v 12.107 h 12.664 v 3.238 z m -0.834,-7.809 h -10.486 v -3.237 h 10.486 v 3.237 z"
   id="path99"
   style="fill:#0f3a6e" />
	<path
   d="m 455.931,156.13 c 0,1.197 -0.403,1.796 -1.21,1.796 -0.592,0 -1.254,-0.372 -1.99,-1.115 L 440.956,144.84 v 12.896 h -3.173 v -16.978 c 0,-0.435 0.116,-0.812 0.35,-1.129 0.231,-0.317 0.564,-0.476 0.994,-0.476 0.591,0 1.2,0.316 1.829,0.952 l 11.775,11.943 v -12.896 h 3.2 v 16.978 z"
   id="path101"
   style="fill:#0f3a6e" />
	<path
   d="m 479.913,151.996 c 0,1.759 -0.618,3.174 -1.854,4.245 -1.184,0.996 -2.663,1.495 -4.438,1.495 h -14.008 v -3.237 h 14.008 c 0.878,0 1.641,-0.2 2.285,-0.599 0.735,-0.49 1.103,-1.152 1.103,-1.986 0,-0.834 -0.376,-1.478 -1.13,-1.932 -0.627,-0.381 -1.38,-0.571 -2.258,-0.571 h -8.658 c -1.595,0 -2.93,-0.443 -4.005,-1.333 -1.148,-0.962 -1.723,-2.23 -1.723,-3.81 0,-1.56 0.574,-2.82 1.723,-3.782 1.075,-0.888 2.41,-1.332 4.005,-1.332 h 13.848 v 3.237 h -13.848 c -0.609,0 -1.128,0.173 -1.56,0.518 -0.429,0.345 -0.644,0.806 -0.644,1.386 0,0.599 0.215,1.062 0.644,1.39 0.432,0.325 0.95,0.487 1.56,0.487 h 8.658 c 1.774,0 3.254,0.519 4.438,1.553 1.236,1.086 1.854,2.511 1.854,4.271 z"
   id="path103"
   style="fill:#0f3a6e" />
</g>
<g
   id="g105">
	<path
   d="m 302.04,168.097 -9.342,13.652 c -0.654,0.972 -1.244,1.458 -1.771,1.458 -0.512,0 -1.095,-0.486 -1.75,-1.458 l -9.148,-13.652 h 3.666 l 7.304,11.037 7.375,-11.037 h 3.666 z"
   id="path107" />
	<path
   d="m 324.094,175.37 c 0,2.191 -0.773,4.006 -2.322,5.442 -1.547,1.438 -3.521,2.154 -5.914,2.154 h -4.574 c -2.38,0 -4.347,-0.716 -5.904,-2.154 -1.556,-1.437 -2.335,-3.251 -2.335,-5.442 0,-2.178 0.771,-3.934 2.312,-5.269 1.541,-1.337 3.517,-2.004 5.928,-2.004 h 4.574 c 2.426,0 4.405,0.667 5.938,2.004 1.532,1.335 2.297,3.091 2.297,5.269 z m -2.825,0.217 c 0,-1.438 -0.506,-2.613 -1.521,-3.526 -1.013,-0.915 -2.31,-1.374 -3.89,-1.374 h -4.574 c -1.565,0 -2.854,0.459 -3.868,1.374 -1.015,0.913 -1.521,2.089 -1.521,3.526 0,1.422 0.507,2.575 1.521,3.46 1.014,0.886 2.303,1.328 3.868,1.328 h 4.574 c 1.58,0 2.877,-0.442 3.89,-1.328 1.015,-0.884 1.521,-2.038 1.521,-3.46 z"
   id="path109" />
	<path
   d="m 339.83,182.966 h -14.105 v -14.869 h 2.85 v 12.278 h 11.256 v 2.591 z"
   id="path111" />
	<path
   d="m 351.156,170.687 h -6.44 v 12.279 h -2.828 v -12.279 h -6.465 v -2.59 h 15.733 v 2.59 z"
   id="path113" />
	<path
   d="m 356.401,182.966 h -2.851 v -14.869 h 2.851 v 14.869 z"
   id="path115" />
	<path
   d="m 378.506,182.966 h -10.394 c -2.379,0 -4.347,-0.716 -5.902,-2.154 -1.558,-1.437 -2.336,-3.251 -2.336,-5.442 0,-2.178 0.771,-3.934 2.312,-5.269 1.539,-1.337 3.517,-2.004 5.927,-2.004 h 9.22 v 2.59 h -9.22 c -1.565,0 -2.854,0.459 -3.867,1.374 -1.015,0.913 -1.521,2.089 -1.521,3.526 0,1.422 0.507,2.575 1.521,3.46 1.013,0.886 2.302,1.328 3.867,1.328 h 7.545 v -3.243 h -7.76 v -2.374 h 10.608 v 8.208 z"
   id="path117" />
	<path
   d="m 395.222,182.966 h -14.13 v -14.869 h 14.13 v 2.59 h -11.279 v 9.688 h 11.279 v 2.591 z m -0.743,-6.247 h -9.339 v -2.592 h 9.339 v 2.592 z"
   id="path119" />
</g>
<g
   id="g121">
	<g
   id="g123">
		<path
   d="m 61.929,171.578 c 1.958,1.045 5.488,3.282 7.475,4.179 1.986,0.897 3.984,1.724 5.992,2.479 2.008,0.754 4.026,1.437 6.049,2.05 2.024,0.612 4.054,1.155 6.088,1.633 2.034,0.475 4.071,0.883 6.108,1.226 2.038,0.344 4.077,0.619 6.113,0.832 2.036,0.212 4.07,0.36 6.098,0.445 2.028,0.085 4.05,0.106 6.065,0.067 2.014,-0.039 4.02,-0.139 6.015,-0.298 1.995,-0.159 3.979,-0.375 5.947,-0.65 1.969,-0.274 3.924,-0.607 5.862,-0.994 1.938,-0.387 3.858,-0.83 5.758,-1.326 1.901,-0.496 3.782,-1.049 5.639,-1.651 1.857,-0.603 3.692,-1.257 5.5,-1.963 1.808,-0.704 3.59,-1.46 5.344,-2.264 1.753,-0.805 3.476,-1.656 5.168,-2.555 1.692,-0.898 3.353,-1.845 4.978,-2.836 1.625,-0.991 3.216,-2.026 4.769,-3.106 1.553,-1.079 3.068,-2.201 4.542,-3.366 1.474,-1.165 2.908,-2.37 4.298,-3.616 1.39,-1.247 2.736,-2.532 4.036,-3.856 1.3,-1.324 2.553,-2.688 3.756,-4.087 1.203,-1.4 2.357,-2.835 3.458,-4.305 -0.025,0.025 -0.086,0.091 -0.183,0.19 -0.097,0.102 -0.228,0.237 -0.394,0.406 -0.166,0.169 -0.366,0.371 -0.601,0.604 -0.234,0.231 -0.502,0.495 -0.804,0.785 -0.302,0.29 -0.636,0.607 -1.003,0.948 -0.367,0.344 -0.767,0.709 -1.199,1.099 -0.431,0.39 -0.895,0.8 -1.39,1.23 -0.495,0.429 -1.021,0.878 -1.578,1.343 -0.556,0.465 -1.144,0.945 -1.759,1.44 -0.617,0.494 -1.264,1.003 -1.939,1.521 -0.675,0.518 -1.381,1.048 -2.115,1.584 -0.733,0.536 -1.496,1.081 -2.287,1.63 -0.791,0.549 -1.609,1.104 -2.455,1.66 -0.846,0.556 -1.719,1.115 -2.62,1.673 -0.901,0.558 -1.827,1.116 -2.78,1.669 -0.953,0.553 -1.933,1.104 -2.938,1.646 -1.005,0.546 -2.035,1.082 -3.09,1.612 -1.055,0.529 -2.134,1.051 -3.238,1.559 -1.104,0.509 -2.231,1.006 -3.382,1.49 -1.151,0.482 -2.326,0.95 -3.522,1.4 -1.196,0.45 -2.417,0.884 -3.66,1.296 -1.242,0.413 -2.506,0.805 -3.793,1.176 -1.286,0.369 -2.594,0.715 -3.922,1.035 -1.328,0.32 -2.679,0.614 -4.048,0.88 -1.37,0.267 -2.759,0.504 -4.168,0.711 -1.409,0.207 -2.837,0.381 -4.285,0.521 -1.448,0.14 -2.914,0.247 -4.399,0.316 -1.485,0.069 -2.988,0.102 -4.509,0.094 -1.521,-0.009 -3.06,-0.056 -4.615,-0.145 -1.556,-0.092 -3.128,-0.225 -4.716,-0.402 -1.589,-0.178 -3.194,-0.404 -4.814,-0.676 -1.621,-0.272 -3.257,-0.593 -4.908,-0.965 -0.788,-0.146 -1.575,-0.305 -2.36,-0.476 -0.785,-0.17 -1.568,-0.354 -2.351,-0.549 -0.783,-0.196 -1.563,-0.403 -2.342,-0.624 -0.778,-0.219 -1.555,-0.45 -2.329,-0.693 -0.774,-0.243 -1.546,-0.497 -2.316,-0.763 -0.77,-0.266 -1.537,-0.542 -2.3,-0.829 -0.763,-0.287 -1.524,-0.585 -2.282,-0.893 -0.757,-0.308 -1.511,-0.627 -2.263,-0.954 -0.75,-0.327 -1.498,-0.663 -2.24,-1.01 -0.743,-0.347 -1.482,-0.702 -2.216,-1.066 -0.734,-0.364 -1.464,-0.74 -2.19,-1.124 -0.726,-0.383 -1.446,-0.774 -2.163,-1.175"
   id="path125"
   style="fill:#0f3a6e" />
	</g>
</g>
<g
   id="g127">
	<g
   id="g129">
		<path
   d="m 62.894,120.053 c 1.398,1.724 2.84,3.386 4.321,4.984 1.481,1.6 3.002,3.135 4.56,4.61 1.557,1.476 3.151,2.888 4.777,4.239 1.627,1.353 3.287,2.643 4.976,3.872 1.689,1.228 3.407,2.396 5.152,3.504 1.745,1.108 3.516,2.154 5.309,3.142 1.794,0.986 3.61,1.912 5.445,2.78 1.837,0.866 3.692,1.67 5.563,2.416 1.872,0.747 3.758,1.435 5.658,2.063 1.9,0.63 3.812,1.2 5.733,1.711 1.92,0.512 3.851,0.966 5.787,1.36 1.937,0.396 3.878,0.734 5.822,1.015 1.945,0.282 3.892,0.505 5.836,0.671 1.946,0.167 3.89,0.275 5.831,0.328 1.94,0.054 3.876,0.049 5.804,-0.011 1.927,-0.061 3.847,-0.175 5.755,-0.346 1.908,-0.17 3.806,-0.397 5.688,-0.679 1.883,-0.281 3.751,-0.618 5.601,-1.01 1.85,-0.392 3.682,-0.837 5.493,-1.337 1.812,-0.5 3.601,-1.054 5.365,-1.663 1.766,-0.608 3.505,-1.27 5.218,-1.986 1.712,-0.715 3.396,-1.484 5.048,-2.306 1.653,-0.822 3.274,-1.697 4.861,-2.625 -0.034,0.014 -0.116,0.049 -0.243,0.104 -0.128,0.056 -0.303,0.131 -0.521,0.223 -0.218,0.092 -0.482,0.199 -0.789,0.324 -0.307,0.122 -0.656,0.262 -1.045,0.411 -0.391,0.149 -0.822,0.313 -1.293,0.487 -0.471,0.171 -0.982,0.355 -1.532,0.546 -0.548,0.189 -1.135,0.389 -1.759,0.593 -0.623,0.203 -1.282,0.412 -1.976,0.625 -0.693,0.213 -1.42,0.427 -2.18,0.644 -0.76,0.216 -1.553,0.432 -2.377,0.647 -0.823,0.217 -1.679,0.429 -2.563,0.639 -0.885,0.209 -1.799,0.414 -2.741,0.614 -0.942,0.199 -1.912,0.392 -2.907,0.575 -0.997,0.184 -2.019,0.359 -3.065,0.523 -1.046,0.164 -2.118,0.317 -3.211,0.456 -1.093,0.139 -2.21,0.266 -3.348,0.376 -1.138,0.109 -2.296,0.207 -3.474,0.284 -1.177,0.08 -2.375,0.14 -3.588,0.18 -1.214,0.04 -2.446,0.062 -3.694,0.06 -1.248,-0.003 -2.512,-0.028 -3.79,-0.079 -1.278,-0.049 -2.57,-0.124 -3.875,-0.227 -1.305,-0.103 -2.623,-0.232 -3.951,-0.392 -1.328,-0.16 -2.668,-0.349 -4.016,-0.57 -1.349,-0.222 -2.706,-0.476 -4.071,-0.764 -1.366,-0.286 -2.738,-0.606 -4.118,-0.963 -1.378,-0.356 -2.763,-0.751 -4.152,-1.184 -1.389,-0.432 -2.781,-0.904 -4.177,-1.417 -1.395,-0.513 -2.793,-1.067 -4.191,-1.666 -1.397,-0.599 -2.797,-1.24 -4.195,-1.928 -1.398,-0.688 -2.795,-1.422 -4.19,-2.204 -1.394,-0.782 -2.786,-1.612 -4.174,-2.492 -1.387,-0.882 -2.771,-1.813 -4.147,-2.797 -0.669,-0.439 -1.333,-0.892 -1.99,-1.354 -0.657,-0.463 -1.308,-0.937 -1.953,-1.419 -0.645,-0.485 -1.283,-0.98 -1.916,-1.484 -0.632,-0.506 -1.257,-1.021 -1.877,-1.546 -0.62,-0.524 -1.231,-1.057 -1.837,-1.602 -0.606,-0.543 -1.205,-1.096 -1.797,-1.657 -0.592,-0.563 -1.178,-1.132 -1.756,-1.709 -0.579,-0.579 -1.15,-1.165 -1.714,-1.759 -0.564,-0.593 -1.123,-1.194 -1.672,-1.801 -0.55,-0.607 -1.093,-1.223 -1.628,-1.845 -0.535,-0.621 -1.062,-1.251 -1.582,-1.886 -0.519,-0.636 -1.031,-1.276 -1.535,-1.923"
   id="path131"
   style="fill:#ffffff;stroke:#000000;stroke-width:0.1207" />
		<path
   d="m 70.094,116.446 c 0.504,0.646 1.013,1.282 1.529,1.91 0.516,0.629 1.037,1.248 1.564,1.86 0.527,0.611 1.06,1.215 1.599,1.807 0.538,0.595 1.081,1.18 1.63,1.755 0.582,0.612 1.167,1.214 1.759,1.805 0.591,0.59 1.188,1.17 1.789,1.737 0.6,0.567 1.207,1.124 1.817,1.67 0.61,0.545 1.225,1.08 1.843,1.603 0.619,0.522 1.242,1.032 1.869,1.531 0.627,0.498 1.257,0.984 1.891,1.459 0.634,0.476 1.272,0.938 1.913,1.389 0.641,0.451 1.285,0.888 1.933,1.313 1.257,0.898 2.532,1.763 3.825,2.589 1.292,0.828 2.602,1.62 3.928,2.376 1.326,0.756 2.669,1.476 4.028,2.158 1.359,0.685 2.734,1.332 4.125,1.942 1.39,0.611 2.796,1.185 4.216,1.723 1.42,0.538 2.856,1.039 4.305,1.503 1.449,0.464 2.913,0.892 4.39,1.28 1.478,0.391 2.968,0.742 4.472,1.057 1.203,0.254 2.415,0.484 3.637,0.691 1.221,0.206 2.452,0.388 3.69,0.546 1.239,0.158 2.486,0.295 3.741,0.405 1.254,0.11 2.518,0.197 3.788,0.259 1.271,0.064 2.547,0.102 3.832,0.117 1.285,0.016 2.575,0.007 3.873,-0.027 1.296,-0.033 2.6,-0.09 3.908,-0.17 1.309,-0.082 2.624,-0.188 3.943,-0.316 0.942,-0.091 1.885,-0.194 2.827,-0.31 0.941,-0.115 1.882,-0.242 2.822,-0.382 0.939,-0.139 1.878,-0.29 2.815,-0.454 0.938,-0.162 1.874,-0.337 2.807,-0.523 0.934,-0.187 1.866,-0.384 2.795,-0.595 0.93,-0.21 1.857,-0.432 2.782,-0.666 0.925,-0.233 1.847,-0.478 2.766,-0.734 0.919,-0.256 1.834,-0.524 2.747,-0.804 0.564,-0.173 1.106,-0.344 1.625,-0.511 0.519,-0.169 1.016,-0.334 1.489,-0.494 0.474,-0.161 0.924,-0.318 1.351,-0.471 0.428,-0.151 0.831,-0.299 1.211,-0.44 0.379,-0.143 0.735,-0.277 1.066,-0.406 0.332,-0.129 0.638,-0.251 0.92,-0.365 0.282,-0.114 0.539,-0.221 0.771,-0.317 0.231,-0.097 0.437,-0.187 0.618,-0.264 l 0,0.001 0.001,0.001 0.001,0.001 0.001,0.001 0.001,0.001 0,10e-4 h 0.001 l 10e-4,0.001 c 0.002,-0.001 0.005,-0.003 0.008,-0.004 0.002,-0.001 0.005,-0.003 0.008,-0.005 0.003,-0.001 0.005,-0.004 0.009,-0.005 0.002,-0.001 0.004,-0.003 0.008,-0.005 0.002,-10e-4 0.005,-0.003 0.008,-0.004 0.002,-0.001 0.005,-0.003 0.008,-0.006 0.003,-0.001 0.005,-0.003 0.008,-0.004 0.003,-0.001 0.005,-0.003 0.008,-0.005 l 0.02,0.034 0.02,0.033 0.02,0.034 0.02,0.034 0.02,0.034 0.02,0.034 0.02,0.033 0.02,0.034 c -1.571,0.919 -3.178,1.787 -4.82,2.606 -1.641,0.816 -3.315,1.584 -5.019,2.298 -1.705,0.715 -3.439,1.378 -5.201,1.986 -1.762,0.609 -3.55,1.168 -5.364,1.671 -1.813,0.504 -3.649,0.953 -5.506,1.35 -1.858,0.395 -3.736,0.736 -5.632,1.021 -1.896,0.286 -3.81,0.516 -5.737,0.689 -1.929,0.175 -3.871,0.292 -5.825,0.353 -0.127,0.003 -0.256,0.009 -0.384,0.011 -0.128,0.003 -0.256,0.007 -0.385,0.009 -0.128,0.003 -0.256,0.007 -0.384,0.009 -0.129,0.003 -0.257,0.005 -0.385,0.007 -0.128,0.002 -0.257,0.004 -0.385,0.005 -0.128,0.002 -0.256,0.003 -0.385,0.005 -0.128,0.001 -0.256,0.001 -0.384,0.001 -0.129,0.001 -0.256,0.001 -0.384,0.001 l 0,0 0,0 0,0 0,0 0,0 0,0 0,0 0,0 c -1.853,0 -3.705,-0.052 -5.554,-0.154 -1.849,-0.102 -3.695,-0.256 -5.537,-0.46 -1.841,-0.204 -3.676,-0.459 -5.503,-0.764 -1.827,-0.306 -3.646,-0.658 -5.453,-1.063 -1.808,-0.403 -3.604,-0.857 -5.387,-1.357 -1.783,-0.502 -3.552,-1.051 -5.304,-1.65 -1.751,-0.599 -3.487,-1.245 -5.203,-1.939 -1.716,-0.695 -3.414,-1.438 -5.088,-2.227 -1.949,-0.92 -3.857,-1.897 -5.725,-2.93 -1.868,-1.031 -3.694,-2.119 -5.478,-3.262 -1.785,-1.144 -3.528,-2.34 -5.229,-3.591 -1.701,-1.251 -3.358,-2.558 -4.973,-3.916 -1.615,-1.36 -3.186,-2.772 -4.714,-4.238 -1.527,-1.467 -3.011,-2.985 -4.451,-4.556 -1.439,-1.572 -2.833,-3.196 -4.183,-4.872"
   id="path133"
   style="fill:#ffffff;stroke:#000000;stroke-width:0.1207" />
		<path
   d="m 62.859,119.765 c 1.345,1.671 2.735,3.289 4.169,4.856 1.436,1.567 2.914,3.081 4.437,4.541 1.522,1.462 3.089,2.87 4.699,4.225 1.61,1.354 3.263,2.657 4.958,3.905 1.694,1.246 3.432,2.439 5.211,3.578 1.779,1.138 3.6,2.223 5.461,3.251 1.861,1.029 3.763,2.002 5.706,2.921 1.785,0.841 3.595,1.628 5.427,2.362 1.832,0.733 3.685,1.411 5.558,2.035 1.873,0.624 3.763,1.193 5.669,1.706 1.905,0.513 3.827,0.971 5.76,1.371 1.934,0.401 3.878,0.746 5.831,1.033 1.953,0.287 3.915,0.519 5.882,0.691 1.967,0.173 3.938,0.287 5.913,0.345 1.974,0.057 3.949,0.053 5.923,-0.007 1.833,-0.057 3.657,-0.164 5.468,-0.32 1.811,-0.157 3.61,-0.363 5.393,-0.619 1.783,-0.255 3.55,-0.561 5.3,-0.913 1.75,-0.352 3.482,-0.755 5.193,-1.203 1.711,-0.449 3.402,-0.945 5.07,-1.488 1.668,-0.543 3.312,-1.134 4.931,-1.77 1.619,-0.636 3.212,-1.318 4.777,-2.046 1.565,-0.729 3.101,-1.502 4.606,-2.319 -0.211,0.081 -0.431,0.166 -0.661,0.254 -0.229,0.087 -0.468,0.177 -0.716,0.269 -0.248,0.092 -0.505,0.185 -0.771,0.28 -0.266,0.097 -0.542,0.193 -0.826,0.293 -0.284,0.099 -0.578,0.2 -0.88,0.302 -0.303,0.103 -0.614,0.206 -0.934,0.312 -0.32,0.104 -0.65,0.211 -0.987,0.318 -0.338,0.105 -0.685,0.215 -1.041,0.322 -0.915,0.281 -1.833,0.549 -2.754,0.807 -0.921,0.256 -1.845,0.503 -2.773,0.737 -0.927,0.233 -1.857,0.455 -2.789,0.666 -0.933,0.211 -1.867,0.41 -2.803,0.597 -0.936,0.187 -1.875,0.362 -2.814,0.526 -0.941,0.163 -1.882,0.313 -2.825,0.454 -0.942,0.14 -1.886,0.268 -2.83,0.383 -0.944,0.116 -1.889,0.22 -2.834,0.31 -1.323,0.131 -2.641,0.237 -3.955,0.317 -1.313,0.083 -2.619,0.14 -3.92,0.173 -1.301,0.032 -2.596,0.042 -3.885,0.027 -1.288,-0.016 -2.569,-0.054 -3.843,-0.117 -1.274,-0.063 -2.541,-0.15 -3.8,-0.262 -1.259,-0.112 -2.51,-0.245 -3.753,-0.404 -1.243,-0.159 -2.477,-0.342 -3.702,-0.55 -1.225,-0.206 -2.442,-0.438 -3.649,-0.692 -1.509,-0.315 -3.005,-0.669 -4.488,-1.061 -1.483,-0.392 -2.952,-0.82 -4.406,-1.286 -1.455,-0.465 -2.895,-0.966 -4.32,-1.506 -1.425,-0.539 -2.836,-1.116 -4.231,-1.729 -1.396,-0.612 -2.775,-1.263 -4.138,-1.948 -1.363,-0.686 -2.711,-1.408 -4.041,-2.167 -1.331,-0.758 -2.645,-1.552 -3.941,-2.382 -1.297,-0.83 -2.576,-1.696 -3.837,-2.598 -0.649,-0.426 -1.295,-0.865 -1.938,-1.317 -0.643,-0.451 -1.283,-0.916 -1.919,-1.393 -0.636,-0.478 -1.269,-0.966 -1.897,-1.466 -0.629,-0.501 -1.254,-1.015 -1.875,-1.538 -0.621,-0.523 -1.237,-1.06 -1.85,-1.606 -0.612,-0.548 -1.22,-1.105 -1.823,-1.677 -0.604,-0.57 -1.202,-1.15 -1.796,-1.742 -0.594,-0.593 -1.183,-1.197 -1.766,-1.811 -0.55,-0.578 -1.096,-1.165 -1.635,-1.76 -0.54,-0.597 -1.075,-1.201 -1.603,-1.813 -0.529,-0.613 -1.052,-1.236 -1.569,-1.865 -0.518,-0.632 -1.029,-1.269 -1.534,-1.917"
   id="path135"
   style="fill:#ffffff;stroke:#000000;stroke-width:0.1207" />
	</g>
</g>
<g
   id="g137">
	<g
   id="g139">
		<path
   d="m 84.151,80.177 c 0.793,2.03 1.646,4.017 2.556,5.96 0.909,1.942 1.875,3.84 2.894,5.693 1.02,1.853 2.092,3.661 3.213,5.423 1.123,1.762 2.294,3.478 3.513,5.147 1.218,1.668 2.482,3.291 3.791,4.865 1.308,1.575 2.659,3.102 4.05,4.579 1.392,1.479 2.824,2.906 4.292,4.286 1.468,1.38 2.973,2.709 4.51,3.988 1.538,1.279 3.108,2.511 4.709,3.69 1.6,1.179 3.23,2.308 4.888,3.384 1.657,1.077 3.341,2.103 5.047,3.076 1.707,0.971 3.437,1.893 5.187,2.759 1.75,0.868 3.519,1.682 5.306,2.44 1.786,0.761 3.589,1.465 5.406,2.116 1.815,0.649 3.644,1.243 5.482,1.782 1.838,0.539 3.687,1.023 5.542,1.45 1.854,0.426 3.717,0.797 5.582,1.108 1.865,0.314 3.734,0.568 5.602,0.768 1.868,0.197 3.737,0.336 5.602,0.415 1.866,0.08 3.727,0.102 5.582,0.062 1.856,-0.039 3.704,-0.139 5.542,-0.299 1.839,-0.159 3.668,-0.381 5.483,-0.663 -0.037,0.001 -0.125,0.004 -0.265,0.009 -0.14,0.005 -0.329,0.01 -0.565,0.015 -0.237,0.007 -0.522,0.011 -0.852,0.014 -0.331,0.002 -0.705,0.002 -1.124,0 -0.418,-0.003 -0.879,-0.009 -1.381,-0.021 -0.501,-0.012 -1.044,-0.028 -1.624,-0.052 -0.58,-0.023 -1.199,-0.054 -1.854,-0.092 -0.655,-0.038 -1.345,-0.085 -2.068,-0.142 -0.722,-0.057 -1.478,-0.121 -2.265,-0.2 -0.787,-0.076 -1.604,-0.164 -2.449,-0.266 -0.846,-0.102 -1.72,-0.216 -2.62,-0.345 -0.9,-0.128 -1.825,-0.271 -2.774,-0.431 -0.95,-0.159 -1.922,-0.335 -2.917,-0.529 -0.994,-0.193 -2.009,-0.403 -3.042,-0.634 -1.033,-0.23 -2.086,-0.479 -3.155,-0.751 -1.069,-0.27 -2.154,-0.562 -3.253,-0.875 -1.1,-0.313 -2.213,-0.648 -3.337,-1.005 -1.125,-0.358 -2.26,-0.74 -3.405,-1.147 -1.145,-0.406 -2.299,-0.839 -3.459,-1.297 -1.161,-0.459 -2.327,-0.944 -3.499,-1.459 -1.171,-0.514 -2.346,-1.056 -3.523,-1.63 -1.177,-0.571 -2.355,-1.174 -3.533,-1.81 -1.177,-0.635 -2.355,-1.301 -3.529,-2 -1.174,-0.7 -2.344,-1.433 -3.51,-2.201 -1.167,-0.766 -2.327,-1.566 -3.479,-2.402 -1.153,-0.837 -2.297,-1.711 -3.431,-2.622 -1.134,-0.909 -2.258,-1.859 -3.369,-2.848 -1.11,-0.988 -2.209,-2.015 -3.29,-3.083 -1.082,-1.068 -2.149,-2.177 -3.199,-3.329 -1.05,-1.152 -2.082,-2.346 -3.093,-3.583 -1.012,-1.238 -2.002,-2.52 -2.972,-3.849 -0.969,-1.327 -1.915,-2.7 -2.836,-4.12 -0.461,-0.653 -0.914,-1.317 -1.356,-1.988 -0.443,-0.671 -0.875,-1.35 -1.298,-2.036 -0.423,-0.687 -0.836,-1.381 -1.24,-2.082 -0.403,-0.702 -0.797,-1.41 -1.182,-2.125 -0.385,-0.715 -0.76,-1.436 -1.125,-2.164 -0.365,-0.728 -0.72,-1.461 -1.066,-2.2 -0.346,-0.739 -0.682,-1.483 -1.009,-2.233 -0.327,-0.75 -0.645,-1.504 -0.952,-2.263 -0.309,-0.758 -1.185,-3.339 -1.474,-4.105"
   id="path141"
   style="fill:#e32522" />
	</g>
</g>
</svg>