<?xml version="1.0" encoding="utf-8"?><!-- Generator: Adobe Illustrator 14.0.0, SVG Export Plug-In . SVG Version: 6.00 Build 43363) --><!DOCTYPE svg PUBLIC "-//W3C//DTD SVG 1.1//EN" "http://www.w3.org/Graphics/SVG/1.1/DTD/svg11.dtd"><svg version="1.1" id="Calque_1" xmlns="http://www.w3.org/2000/svg" xmlns:xlink="http://www.w3.org/1999/xlink" x="0px" y="0px" width="500px" height="194.594px" viewBox="0 0 500 194.594" enable-background="new 0 0 500 194.594" xml:space="preserve"><g><path fill="#0F3A6E" d="M360.229,88.247c-2.133-0.509-3.816-3.02-5.02-7.52c-0.602-2.252-2.123-7.666-1.656-9.542 c0.473-1.877,15.791-8.089,78.179-29.436c-12.903,1.647-76.602,20.109-79.112,20.286l-2.467-27.602 c-0.177-3.797-0.364-6.727-0.554-8.768c-0.184-2.05-0.473-3.79-0.843-5.215c-0.497-1.813-1.062-2.926-1.695-3.339 c-0.645-0.409-1.683-0.412-3.132,0c-0.984,0.276-1.847,0.678-2.6,1.189c-0.756,0.514-1.649,1.188-2.666,2.042 c-1.026,0.852-2.149,1.787-3.394,2.782l-1.67,1.189c-3.503,2.476-6.515,4.995-9.043,7.546c-2.525,2.552-5.792,6.469-9.79,11.75 l-27.199,39.146c0,0-19.435,6.521-20.563,6.491c0,0-8.959,11.633-5.158,11.022c3.796-0.607,17.125-5.163,17.125-5.163 l-16.133,26.281c-1.438,1.883-0.196,1.745,0.179,1.883c0.49,0.178,2.029,0.178,2.569,0.116c0.365-0.041,5.201-0.327,5.413-0.388 l4.932-0.901l21.464-31.712c0,0,41.078-14.875,43.022-15.135l0.718,3.91c0.845,6.254,1.651,10.806,2.415,13.656 c1.101,4.12,2.609,5.906,4.529,5.36c0.347-0.102,1.757-1.063,4.214-2.875l5.2-3.878c2.342-1.618,3.473-2.589,3.39-2.908 L360.229,88.247z M304.335,77.945l10.991-18.176l15.792-26.067c0.954-1.675,3.497-4.863,4.065-5.029 c0.713-0.205,1.401,0.718,1.911,2.632c0.903,3.356,0.508,6.415,1.042,12.765l1.579,22.424L304.335,77.945z"/><path fill="#0F3A6E" d="M264.682,123.582c-0.382,0-1.312-0.018-1.718-0.164c-0.05-0.018-0.117-0.03-0.189-0.044 c-0.258-0.049-0.611-0.118-0.732-0.437c-0.133-0.349,0.08-0.872,0.671-1.646l15.896-25.896c-2.282,0.772-13.35,4.486-16.737,5.029 c-0.644,0.104-0.922-0.154-1.028-0.369c-0.894-1.818,5.326-9.979,6.037-10.905l0.049-0.063l0.08,0.002 c0.939,0,13.824-4.24,20.509-6.483l27.119-39.086c3.978-5.253,7.275-9.212,9.807-11.771c2.542-2.564,5.592-5.109,9.063-7.565 l1.67-1.188c1.199-0.958,2.291-1.866,3.292-2.696l0.094-0.078c0.954-0.802,1.854-1.493,2.678-2.052 c0.777-0.528,1.666-0.936,2.645-1.211c1.484-0.422,2.573-0.416,3.259,0.019c0.675,0.438,1.249,1.561,1.764,3.43 c0.381,1.476,0.667,3.239,0.848,5.243c0.193,2.096,0.38,5.049,0.554,8.776l2.451,27.432c1.417-0.239,9.404-2.43,19.398-5.173 c20.33-5.578,51.054-14.007,59.552-15.092l0.071,0.304c-55.67,19.048-77.561,27.271-78.076,29.326 c-0.428,1.718,0.896,6.638,1.531,9.002l0.124,0.46c1.182,4.42,2.83,6.912,4.904,7.407l0.751,0.304l0.02,0.076 c0.054,0.206,0.152,0.587-3.453,3.077l-5.195,3.875c-3.71,2.737-4.128,2.86-4.265,2.899c-2.036,0.576-3.591-1.224-4.724-5.47 c-0.766-2.854-1.579-7.455-2.419-13.675l-0.688-3.746c-3.264,0.77-42.439,14.952-42.843,15.099l-21.424,31.707l-4.997,0.912 c-0.112,0.033-1.194,0.107-3.574,0.263c-0.929,0.061-1.712,0.111-1.85,0.127C265.401,123.566,265.058,123.582,264.682,123.582 L264.682,123.582z M279.333,94.816l-16.36,26.653c-0.67,0.879-0.687,1.227-0.637,1.356c0.06,0.154,0.292,0.2,0.498,0.239 c0.093,0.018,0.175,0.035,0.238,0.058c0.243,0.089,0.861,0.144,1.609,0.144c0.362,0,0.691-0.014,0.887-0.035 c0.14-0.017,0.93-0.068,1.866-0.128c1.341-0.087,3.366-0.221,3.525-0.257l4.879-0.891l21.429-31.658 c1.754-0.667,41.19-14.945,43.129-15.203l0.148-0.02l0.746,4.057c0.839,6.214,1.65,10.802,2.413,13.643 c1.067,4.003,2.51,5.768,4.333,5.25c0.226-0.067,1.135-0.616,4.163-2.852l5.199-3.878c2.689-1.856,3.222-2.481,3.314-2.682 l-0.545-0.221c-2.17-0.516-3.897-3.084-5.112-7.625l-0.124-0.46c-0.69-2.573-1.979-7.362-1.531-9.159 c0.465-1.85,13.494-7.362,76.6-28.972c-10.36,1.809-38.651,9.571-57.758,14.813c-10.877,2.985-18.738,5.141-19.613,5.203 l-0.153,0.011l-0.015-0.154l-2.467-27.602c-0.173-3.729-0.359-6.677-0.553-8.768c-0.18-1.987-0.461-3.734-0.838-5.191 c-0.485-1.765-1.033-2.858-1.63-3.247c-0.598-0.379-1.616-0.374-3.004,0.02c-0.945,0.266-1.804,0.659-2.552,1.167 c-0.816,0.554-1.708,1.238-2.654,2.033l-0.096,0.079c-1,0.832-2.094,1.74-3.303,2.705l-1.677,1.195 c-3.458,2.445-6.494,4.978-9.021,7.53c-2.521,2.548-5.81,6.495-9.775,11.733l-27.196,39.14c-0.854,0.32-18.863,6.359-20.609,6.555 c-1.931,2.513-6.64,9.137-5.961,10.517c0.057,0.116,0.233,0.271,0.697,0.196c3.738-0.598,16.965-5.109,17.098-5.155 L279.333,94.816L279.333,94.816z M303.981,78.225l27.002-44.605c0.876-1.538,3.48-4.901,4.157-5.098 c0.816-0.236,1.57,0.732,2.107,2.742c0.556,2.07,0.621,4.005,0.714,6.683c0.058,1.71,0.123,3.647,0.332,6.109l1.588,22.548 l-0.117,0.038L303.981,78.225L303.981,78.225z M335.378,28.802c-0.049,0-0.1,0.007-0.15,0.021 c-0.462,0.135-2.956,3.169-3.974,4.956l-26.566,43.887l34.864-11.285l-1.572-22.301c-0.207-2.467-0.273-4.409-0.333-6.123 c-0.09-2.656-0.155-4.576-0.703-6.612C336.513,29.729,335.942,28.802,335.378,28.802L335.378,28.802z"/></g><g><g><path fill="#E5312B" d="M441.246,50.708c-0.862-1.646-2.821-5.847-4.363-9.873c-1.554-4.092-2.895-8.516-3.387-10.194 c-0.226-0.751,0.507-0.969,0.507-0.969l4.608-1.79c0,0,0.557-0.271,0.965,0.533c1.623,3.159,2.097,3.941,4.278,9.564 c2.283,5.855,2.588,7.089,3.387,10.192c0,0,0.388,0.933-0.377,1.246l-4.472,1.729C442.393,51.146,441.626,51.428,441.246,50.708z "/></g><g><path fill="#E5312B" d="M440.923,40.992c0,0,18.095-3.954,25.304-6.907c0,0,3.373-0.529,12.3-6.667c0,0,2.222-1.341,1.04-3.915 c-0.915-2.678-3.46-2.118-3.46-2.118c-10.688,1.735-13.504,3.673-13.504,3.673c-7.243,2.852-23.055,12.49-23.055,12.49 L440.923,40.992z"/></g><g><path fill="#E5312B" d="M468.972,54.867c-1.808-3.688-6.369-14.025-9.861-23.007c-3.546-9.122-7.182-19.726-8.395-23.463 c-0.54-1.663,0.602-2.1,0.602-2.1l6.002-2.235c0,0,0.835-0.544,1.708,1.256c3.434,7.09,4.752,9.61,9.702,22.164 c5.16,13.08,6.28,16.738,8.341,23.618c0,0,0.86,2.09-0.326,2.709l-5.785,2.129C470.959,55.938,469.751,56.477,468.972,54.867z"/></g></g><g><path fill="#0F3A6E" d="M143.915,123.455c-0.971,0.044-8.993-3.571-8.993-3.571l-0.665-0.665l-0.127-0.396l-0.136-1.717 l6.747-13.225l3.438-6.084l1.322-2.247l1.194-2.516l-0.271-0.395l-4.623-5.56l5.287-4.232l1.59-1.72c0,0,5.03-2.353,6.48-3.966 c1.448-1.616,6.218-11.382,6.218-11.382l-14.02,6.614l-1.722,0.796l-0.927,0.267l-1.055,0.263l-0.53,0.133 c0,0-0.741-0.006-1.853-0.262c-2.14-0.733-4.89-4.499-4.89-4.499s-1.022-1.037-1.256-1.843c-0.235-0.797,0.459-1.861,0.459-1.861 l3.701-1.191l7.14-3.441l12.438-6.345c0,0,4.563-2.233,5.16-2.514c0.594-0.279,0.924-2.453,0.924-2.453s6.432-2.927,7.411-4.032 c0.971-1.101,4.128-8.589,8.593-15.208c8.63,0.87,11.077,5.015,11.113,5.025c2.418-0.761,42.004-16.889,44.445-15.609 c2.44,1.278,10.051,8.33,10.051,8.33s0.821,1.187-0.661,2.253c-1.486,1.055-41.81,12.083-61.64,23.811 c-2.588,1.841-6.033,10.596-5.815,10.978c0.208,0.376,16.239-6.184,18.12-5.824c1.875,0.355,8.467,6.012,10.443,8.865 c1.509,2.421-33.249,12.223-42.322,19.706C161.787,89.582,144.881,123.414,143.915,123.455z"/></g><g><path fill="#0F3A6E" d="M218.556,123.552c-0.974,0.043-8.995-3.571-8.995-3.571l-0.667-0.658l-0.131-0.398l-0.132-1.714 l6.747-13.233l3.433-6.087l1.329-2.239l1.191-2.521l-0.266-0.395l-4.627-5.556l5.29-4.232l1.585-1.718 c0,0,5.037-2.356,6.483-3.973c1.446-1.616,6.218-11.375,6.218-11.375L221.992,72.5l-1.72,0.799l-0.925,0.26l-1.053,0.262 l-0.53,0.132c0,0-0.747-0.006-1.856-0.261c-2.134-0.735-4.891-4.492-4.891-4.492s-1.011-1.045-1.25-1.848 c-0.234-0.796,0.454-1.866,0.454-1.866l3.703-1.187l7.143-3.443l12.434-6.344c0,0,4.564-2.233,5.156-2.517 c0.598-0.278,0.935-2.446,0.935-2.446s6.426-2.934,7.402-4.034c0.978-1.102,4.134-8.584,8.597-15.21 c8.628,0.872,11.08,5.017,11.108,5.027c2.423-0.764,42.008-16.891,44.446-15.612c2.441,1.282,10.057,8.337,10.057,8.337 s0.815,1.185-0.661,2.248c-1.491,1.061-41.816,12.082-61.646,23.811c-2.588,1.84-6.033,10.597-5.817,10.975 c0.215,0.382,16.243-6.176,18.119-5.819c1.882,0.354,8.476,6.007,10.45,8.861c1.511,2.425-33.254,12.221-42.326,19.708 C236.43,89.685,219.521,123.513,218.556,123.552z"/></g></g><g><g><g><path fill-rule="evenodd" clip-rule="evenodd" fill="#E32522" d="M84.491,30.354c-0.405-0.575-1.697-0.509-2.609-0.719 c-1.028,1.226-1.328,3.456-2.528,4.444c-1.083-2.007-1.467-8.749,2.255-8.43c0.273,1.141,0.454,0.837,0.211,2.46 c0.885,0.141,1.775,0.283,2.663,0.425c1.661-4.079,3.442-7.987,6.223-10.52c-1.104-1.036-4.292-0.552-4.837-1.986 c1.776,0.283,3.546,0.566,5.323,0.85c1-0.178,0.599-2.293,1.606-2.472c2.007,0.022,1.345,1.986,1.595,3.286 c1.039,0.252,5.498,1.256,3.747,1.203c-0.546-0.014-1.783-0.329-3.546-0.564c-1.803,6.271-1.653,13.395-2.563,19.89 c4.741,7.055-4.146,18.735-5.226,27.052c2.692,2.879,4.175,3.217,8.066,6.436c-0.427,1.091-0.763,2.312-0.909,3.793 c-6.357,0.446-9.735,1.793-15.276,2.717c-0.243-1.916,0.485-4.539,0.438-6.593c-0.876,0.112-0.638,1.757-1.262,2.222 c-1.419-0.986,0.647-1.816,1.019-2.568C80.445,57.857,83.209,43.569,84.491,30.354z"/></g></g></g><g><g><g><path fill-rule="evenodd" clip-rule="evenodd" fill="#E32522" d="M50.993,89.501c-0.455-0.078-0.525-0.771-0.727-1.266 c-0.308-0.76-0.875-1.579-0.179-2.371c0.432,0.021,0.544,0.725,0.725,1.267C51.062,87.874,51.599,88.851,50.993,89.501z M50.709,87.227c-0.156-0.468-0.259-0.988-0.582-1.206c-0.502,0.756-0.026,1.462,0.243,2.125c0.19,0.464,0.292,0.955,0.582,1.208 C51.348,88.589,50.93,87.892,50.709,87.227z"/></g><g><path fill-rule="evenodd" clip-rule="evenodd" fill="#E32522" d="M49.896,91.858c-0.451-0.063-0.612-0.73-0.83-1.17 c-0.214-0.436-0.514-0.975-0.574-1.355c-0.039-0.249,0.033-1.058,0.397-1.064c0.287-0.004,0.57,0.807,0.685,1.065 C49.914,90.096,50.45,90.997,49.896,91.858z M48.93,88.419c-0.634,0.604-0.134,1.41,0.192,2.076 c0.23,0.461,0.427,0.945,0.683,1.209C50.388,90.504,49.267,89.393,48.93,88.419z"/></g><g><path fill-rule="evenodd" clip-rule="evenodd" fill="#E32522" d="M40.11,77.52c-0.17-0.142-0.337-0.287-0.419-0.511 c0.188-0.033,0.355-0.14,0.543-0.026C40.314,77.172,40.236,77.413,40.11,77.52z"/></g><g><path fill-rule="evenodd" clip-rule="evenodd" fill="#E32522" d="M38.894,79.282c-0.293,0.313-0.603,0.88-1.211,0.679 c-0.12-0.287,0.024-0.684,0.093-0.931C37.979,79.267,38.472,79.388,38.894,79.282z"/></g><g><path fill-rule="evenodd" clip-rule="evenodd" fill="#E32522" d="M53.206,75.199c-0.075,0.455-0.508,0.955-0.663,1.492 c-1.601,1.041-3.462,2.448-5.242,3.684c-0.335,0.231-1.433,1.195-1.773,1.095c-0.197-0.061-0.204-0.175-0.329-0.361 C47.809,79.074,50.53,77.162,53.206,75.199z"/></g><g><path fill-rule="evenodd" clip-rule="evenodd" fill="#E32522" d="M67.659,116.218c-0.003,0.032-0.003,0.065-0.006,0.1 c-2.566-0.459-5.543-1.181-8.273-1.776c-0.4-0.088-0.883-0.258-1.171-0.253c-0.37,0.012-0.657,0.34-0.981-0.044 c-0.005,0.451,0.367,0.927,0.326,1.389c-0.034,0.399-0.539,1.17-0.763,1.588c-0.764,1.425-1.67,3.216-2.708,4.147 c-0.576-0.291-0.93-0.838-1.259-1.438c-0.289-0.53-0.69-1.285-0.693-1.901c-0.005-0.549,0.283-1.28,0.481-1.893 c0.546-1.671,1.31-3.64,1.873-5.174c-2.24-2.826-4.641-5.513-6.979-8.251c-3.428,6.68-6.915,13.289-10.352,19.957 c-0.408-0.252-0.692-0.766-0.977-1.223c-0.283-0.464-0.549-0.967-0.814-1.47c-0.479-0.908-1.259-2.161-1.167-3.303 c0.053-0.672,0.505-1.58,0.801-2.37c0.856-2.283,1.784-4.634,2.643-6.855c1.235-3.215,2.225-6.378,3.722-8.919 c-0.265-1.039-0.62-2-0.885-3.041c-0.664,0.217-1.146,0.628-1.766,0.898c0.277,0.513,0.156,1.203,0.295,2.029 c0.08,0.459,0.268,0.841,0.142,1.141c-0.32,0.763-1.678,0.057-2.144-0.401c-0.258-0.256-0.465-0.628-0.642-0.963 c-0.539-0.353-1.19-0.62-1.217-1.288c-0.022-0.555,0.533-0.932,0.47-1.603c0.627-0.533,1.912-0.112,2.395,0.313 c0.685-0.503,1.403-0.968,2.041-1.527c-0.318-0.894-0.508-1.755-0.76-2.59c-0.257-0.856-0.694-1.514-1.071-2.315 c-0.505-1.084-0.736-2.307-1.158-3.497c-1.538,0.367-2.067-0.879-2.675-1.655c-0.533-0.197-1.197-0.545-1.221-1.189 c-0.01-0.274,0.211-0.452,0.283-0.772c0.078-0.348-0.06-0.613,0.088-0.833c0.607-0.906,2.328,0.252,2.674,0.668 c-0.187-1.964,0.565-3.284,1.386-4.309c0.05-0.532,0.114-1.049,0.314-1.413c0.446,0.066,0.773,0.236,1.113,0.398 c2.162-1.045,3.343,0.712,4.38,1.981c0.649,0.797,1.218,1.629,1.658,2.341c2.844-1.981,5.55-4.117,8.407-6.085 c2.13-4.09,4.731-7.671,7.196-11.604c0.36-0.573,0.696-1.235,1.34-1.264c1.481-0.063,2.057,2.151,2.398,3.313 c0.137,0.469,0.398,1.087,0.369,1.492c-0.028,0.437-0.469,1.102-0.72,1.688c-3.339,7.824-6.686,15.27-10.385,22.711 c-0.27,0.542-0.669,1.154-0.764,1.588c-0.113,0.514-0.083,1.122-0.131,1.665c-0.047,0.539-0.195,1.151-0.176,1.615 c0.032,0.684,0.618,1.947,0.858,2.647c0.899,2.632,1.715,5.4,3.237,7.334c0.502-0.56,0.85-1.151,1.367-1.851 c0.283-0.386,1.001-1.662,1.506-1.65c0.462,0.016,0.975,1.076,1.154,1.533c0.209,0.534,0.523,1.608,0.488,2.138 c-0.036,0.558-0.437,1.154-0.62,1.642c-0.221,0.589-0.373,1.13-0.62,1.644c2.023,1.15,4.245,2.118,6.39,3.159 C67.099,113.534,67.445,114.815,67.659,116.218z M45.199,81.108c0.125,0.186,0.132,0.3,0.329,0.361 c0.34,0.1,1.438-0.863,1.773-1.095c1.779-1.236,3.641-2.643,5.242-3.684c0.154-0.538,0.588-1.037,0.663-1.492 C50.53,77.162,47.809,79.074,45.199,81.108z M47.395,80.475c-0.534,0.371-1.109,0.739-1.434,1.161 c1.265,0.353,2.283,0.933,3.271,1.536c0.981-2.02,2.174-4.08,2.998-6.101C50.68,78.225,48.962,79.386,47.395,80.475z M42.512,96.125c-0.558-0.262-0.618-1.6-1.426-1.051c0.231,0.84,0.469,1.67,0.77,2.445C42.071,97.053,42.37,96.678,42.512,96.125 z M40.49,93.128c0.038,0.23,0.058,0.479,0.22,0.598C40.757,93.418,40.633,93.265,40.49,93.128z M40.234,76.983 c-0.188-0.114-0.355-0.007-0.543,0.026c0.082,0.224,0.249,0.369,0.419,0.511C40.236,77.413,40.314,77.172,40.234,76.983z M37.776,79.03c-0.069,0.247-0.213,0.645-0.093,0.931c0.608,0.201,0.918-0.367,1.211-0.679 C38.472,79.388,37.979,79.267,37.776,79.03z"/></g></g></g><g><g><g><path fill-rule="evenodd" clip-rule="evenodd" fill="#E32522" d="M65.298,161.993c0.468,0.592,0.938,1.19,1.408,1.785 c-2.613,1.975-5.191,3.642-7.795,5.559c1.14,1.81,2.686,3.975,4.053,5.889c0.52,0.724,1.393,1.32,1.357,2.213 c-1.051-0.074-2.222-1.403-3.061-2.42c-1.228-1.479-2.236-3.415-3.427-4.836c-0.338-0.172-0.783,0.543-1.166,0.724 c-4.958-2.226-9.996-3.789-14.958-5.996c1.152,2.156,2.531,4.139,3.909,6.194c1.365,2.028,2.618,4.256,4.125,6.219 c1.717,2.239,4.083,4.25,6.066,6.237c2.013,2.015,4.137,3.774,5.786,5.874c-0.121,0.095-0.239,0.188-0.358,0.283 c-1.348-0.935-3.078-1.271-4.701-2.289c-1.499-0.942-2.973-2.514-4.401-3.874c-2.884-2.754-6.186-5.55-8.823-8.51 c-1.878-2.105-2.901-5.001-4.66-7.149c-1.703,1.331,1.002,2.771,1.555,4.186c-1.469,0.538-2.776-0.276-4.143-0.602 c-0.787,0.233-1.409,0.588-1.97,0.198c-0.96-0.671-0.752-2.331-0.92-3.137c1.143-1.658,2.935-1.136,4.376-2.289 c-2.002-5.246-6.764-10.494-11.153-13.434c-0.916,0.754-1.764,0.899-2.692,1.732c-0.287,0.873,0.8,1.83,1.214,2.524 c-0.756,0.57-1.702-0.069-2.344-0.28c-0.781-0.261-1.594-0.438-2.27-0.918c-2.179,0.718-3.19-2.107-2.482-3.648 c1.593-1.271,3.005-1.036,4.262,0.507c0.798-0.343,1.633-1.002,2.453-1.545c-1.332-1.252-2.747-3.124-3.02-4.575 c0.296-0.448,0.555-1.116,1.192-0.938c-0.467-0.488-0.396-0.91-0.062-1.302c-0.792-0.96-0.818-1.825-1.187-2.737 c0.749-0.535,1.356,0.115,2.064-0.077c-3.447-4.229-2.447-7.93-3.132-11.83c0.12-0.095,0.24-0.186,0.357-0.281 c1.258,0.028,1.979,1.339,3.25,2.657c0.633,0.655,1.394,1.181,1.743,1.721c0.812,1.262,1.224,3.189,1.811,4.752 c0.62,1.651,1.233,3.248,1.718,4.638c1.123,0.169,2.021,1.146,3.07,1.448c1.372,0.396,2.82,0.023,4.075,0.269 c2.885,0.561,5.48,2.146,8.23,5.303c1.245,1.43,2.301,3.438,4.039,5.126c0.437,0.427,1.274,0.506,1.766,1.51 c0.535,0.389-0.335,0.61-0.222,0.945c0.251,0.319,0.501,0.637,0.752,0.955c0.453,0.437,1.036-0.237,1.517-0.034l-0.069,0.277 l0.232,0.175c-0.332,0.349-0.601,0.199-0.905,0.323c0.682,1.129,1.566,2.274,2.511,3.433c2.412,1.149,5.667-0.369,8.781-1.114 C64.128,161.571,64.531,161.187,65.298,161.993z"/></g></g></g><g><path fill="#0F3A6E" d="M215.829,151.996c0,1.759-0.618,3.174-1.854,4.245c-1.184,0.996-2.662,1.495-4.437,1.495h-14.008v-3.237 h14.008c0.877,0,1.64-0.2,2.285-0.599c0.735-0.49,1.103-1.152,1.103-1.986s-0.376-1.478-1.129-1.932 c-0.628-0.381-1.381-0.571-2.258-0.571h-8.658c-1.596,0-2.931-0.443-4.007-1.333c-1.147-0.962-1.72-2.23-1.72-3.81 c0-1.56,0.573-2.82,1.72-3.782c1.076-0.888,2.411-1.332,4.007-1.332h13.847v3.237H200.88c-0.61,0-1.129,0.173-1.56,0.518 c-0.43,0.345-0.645,0.806-0.645,1.386c0,0.599,0.215,1.062,0.645,1.39c0.431,0.325,0.95,0.487,1.56,0.487h8.658 c1.774,0,3.253,0.519,4.437,1.553C215.21,148.811,215.829,150.236,215.829,151.996z"/><path fill="#0F3A6E" d="M238.791,145.847c0,2.03-0.735,3.672-2.205,4.924c-1.362,1.161-3.074,1.74-5.135,1.74h-8.093v-3.209h8.604 c1.058,0,1.945-0.317,2.662-0.953c0.717-0.635,1.076-1.479,1.076-2.53s-0.359-1.887-1.076-2.503 c-0.716-0.616-1.604-0.925-2.662-0.925h-10.486v15.345h-3.2v-18.582h13.175c2.062,0,3.773,0.589,5.135,1.769 C238.056,142.156,238.791,143.797,238.791,145.847z"/><path fill="#0F3A6E" d="M264.28,148.241c0,2.739-0.869,5.007-2.608,6.801c-1.739,1.797-3.952,2.694-6.642,2.694h-5.136 c-2.67,0-4.879-0.897-6.627-2.694c-1.748-1.794-2.621-4.062-2.621-6.801c0-2.72,0.864-4.915,2.594-6.585 c1.729-1.667,3.948-2.502,6.654-2.502h5.136c2.726,0,4.947,0.835,6.668,2.502C263.421,143.326,264.28,145.521,264.28,148.241z M261.106,148.512c0-1.795-0.568-3.265-1.707-4.407c-1.138-1.143-2.594-1.714-4.369-1.714h-5.136c-1.757,0-3.203,0.571-4.342,1.714 c-1.138,1.143-1.707,2.612-1.707,4.407c0,1.778,0.568,3.221,1.707,4.327c1.139,1.106,2.585,1.659,4.342,1.659h5.136 c1.775,0,3.231-0.553,4.369-1.659C260.538,151.733,261.106,150.291,261.106,148.512z"/><path fill="#0F3A6E" d="M288.452,157.736h-4.732l-5.136-5.225h-6.91v-3.209h8.604c1.182,0,2.177-0.263,2.982-0.79 c0.916-0.616,1.374-1.496,1.374-2.639c0-2.321-1.453-3.482-4.356-3.482h-10.486v15.345h-3.199v-18.582h13.174 c2.367,0,4.275,0.517,5.728,1.55c1.667,1.18,2.501,2.912,2.501,5.197c0,1.561-0.484,2.901-1.453,4.026 c-0.896,1.053-2.116,1.787-3.656,2.204L288.452,157.736z"/><path fill="#0F3A6E" d="M307.972,142.391h-7.232v15.345h-3.173v-15.345h-7.26v-3.237h17.665V142.391z"/><path fill="#0F3A6E" d="M329.805,151.996c0,1.759-0.619,3.174-1.856,4.245c-1.183,0.996-2.661,1.495-4.437,1.495h-14.009v-3.237 h14.009c0.877,0,1.641-0.2,2.285-0.599c0.736-0.49,1.104-1.152,1.104-1.986s-0.377-1.478-1.129-1.932 c-0.629-0.381-1.383-0.571-2.26-0.571h-8.657c-1.595,0-2.932-0.443-4.007-1.333c-1.146-0.962-1.72-2.23-1.72-3.81 c0-1.56,0.573-2.82,1.72-3.782c1.075-0.888,2.412-1.332,4.007-1.332h13.848v3.237h-13.848c-0.61,0-1.13,0.173-1.56,0.518 c-0.432,0.345-0.646,0.806-0.646,1.386c0,0.599,0.214,1.062,0.646,1.39c0.43,0.325,0.949,0.487,1.56,0.487h8.657 c1.775,0,3.254,0.519,4.437,1.553C329.186,148.811,329.805,150.236,329.805,151.996z"/><path fill="#0F3A6E" d="M364.703,157.736l-4.114-0.026l-3.093-5.198h-8.711l1.936-3.209h4.867l-3.2-5.361l-8.279,13.769h-4.114 l9.975-16.787c0.251-0.437,0.601-0.835,1.049-1.198c0.538-0.417,1.021-0.625,1.452-0.625c0.466,0,0.949,0.2,1.451,0.598 c0.431,0.347,0.78,0.754,1.05,1.226L364.703,157.736z"/><path fill="#0F3A6E" d="M382.1,157.736h-15.862v-18.582H382.1v3.237h-12.665v12.107H382.1V157.736z M381.266,149.927h-10.487 v-3.237h10.487V149.927z M377.475,136.132l-2.931,1.77h-2.205l2.205-1.77H377.475z"/><path fill="#0F3A6E" d="M407.185,157.736h-4.732l-5.136-5.225h-6.91v-3.209h8.604c1.183,0,2.178-0.263,2.983-0.79 c0.915-0.616,1.372-1.496,1.372-2.639c0-2.321-1.451-3.482-4.355-3.482h-10.486v15.345h-3.198v-18.582H398.5 c2.366,0,4.275,0.517,5.727,1.55c1.667,1.18,2.501,2.912,2.501,5.197c0,1.561-0.485,2.901-1.452,4.026 c-0.896,1.053-2.116,1.787-3.656,2.204L407.185,157.736z"/><path fill="#0F3A6E" d="M413.853,157.736h-3.2v-18.582h3.2V157.736z"/><path fill="#0F3A6E" d="M434.045,157.736h-15.864v-18.582h15.864v3.237h-12.664v12.107h12.664V157.736z M433.211,149.927h-10.486 v-3.237h10.486V149.927z"/><path fill="#0F3A6E" d="M455.931,156.13c0,1.197-0.403,1.796-1.21,1.796c-0.592,0-1.254-0.372-1.99-1.115l-11.775-11.971v12.896 h-3.173v-16.978c0-0.435,0.116-0.812,0.35-1.129c0.231-0.317,0.564-0.476,0.994-0.476c0.591,0,1.2,0.316,1.829,0.952l11.775,11.943 v-12.896h3.2V156.13z"/><path fill="#0F3A6E" d="M479.913,151.996c0,1.759-0.618,3.174-1.854,4.245c-1.184,0.996-2.663,1.495-4.438,1.495h-14.008v-3.237 h14.008c0.878,0,1.641-0.2,2.285-0.599c0.735-0.49,1.103-1.152,1.103-1.986s-0.376-1.478-1.13-1.932 c-0.627-0.381-1.38-0.571-2.258-0.571h-8.658c-1.595,0-2.93-0.443-4.005-1.333c-1.148-0.962-1.723-2.23-1.723-3.81 c0-1.56,0.574-2.82,1.723-3.782c1.075-0.888,2.41-1.332,4.005-1.332h13.848v3.237h-13.848c-0.609,0-1.128,0.173-1.56,0.518 c-0.429,0.345-0.644,0.806-0.644,1.386c0,0.599,0.215,1.062,0.644,1.39c0.432,0.325,0.95,0.487,1.56,0.487h8.658 c1.774,0,3.254,0.519,4.438,1.553C479.295,148.811,479.913,150.236,479.913,151.996z"/></g><g><path d="M302.04,168.097l-9.342,13.652c-0.654,0.972-1.244,1.458-1.771,1.458c-0.512,0-1.095-0.486-1.75-1.458l-9.148-13.652h3.666 l7.304,11.037l7.375-11.037H302.04z"/><path d="M324.094,175.37c0,2.191-0.773,4.006-2.322,5.442c-1.547,1.438-3.521,2.154-5.914,2.154h-4.574 c-2.38,0-4.347-0.716-5.904-2.154c-1.556-1.437-2.335-3.251-2.335-5.442c0-2.178,0.771-3.934,2.312-5.269 c1.541-1.337,3.517-2.004,5.928-2.004h4.574c2.426,0,4.405,0.667,5.938,2.004C323.329,171.436,324.094,173.192,324.094,175.37z M321.269,175.587c0-1.438-0.506-2.613-1.521-3.526c-1.013-0.915-2.31-1.374-3.89-1.374h-4.574c-1.565,0-2.854,0.459-3.868,1.374 c-1.015,0.913-1.521,2.089-1.521,3.526c0,1.422,0.507,2.575,1.521,3.46c1.014,0.886,2.303,1.328,3.868,1.328h4.574 c1.58,0,2.877-0.442,3.89-1.328C320.763,178.163,321.269,177.009,321.269,175.587z"/><path d="M339.83,182.966h-14.105v-14.869h2.85v12.278h11.256V182.966z"/><path d="M351.156,170.687h-6.44v12.279h-2.828v-12.279h-6.465v-2.59h15.733V170.687z"/><path d="M356.401,182.966h-2.851v-14.869h2.851V182.966z"/><path d="M378.506,182.966h-10.394c-2.379,0-4.347-0.716-5.902-2.154c-1.558-1.437-2.336-3.251-2.336-5.442 c0-2.178,0.771-3.934,2.312-5.269c1.539-1.337,3.517-2.004,5.927-2.004h9.22v2.59h-9.22c-1.565,0-2.854,0.459-3.867,1.374 c-1.015,0.913-1.521,2.089-1.521,3.526c0,1.422,0.507,2.575,1.521,3.46c1.013,0.886,2.302,1.328,3.867,1.328h7.545v-3.243h-7.76 v-2.374h10.608V182.966z"/><path d="M395.222,182.966h-14.13v-14.869h14.13v2.59h-11.279v9.688h11.279V182.966z M394.479,176.719h-9.339v-2.592h9.339V176.719z "/></g><g><g><path fill="#0F3A6E" d="M61.929,171.578c1.958,1.045,5.488,3.282,7.475,4.179c1.986,0.897,3.984,1.724,5.992,2.479 c2.008,0.754,4.026,1.437,6.049,2.05c2.024,0.612,4.054,1.155,6.088,1.633c2.034,0.475,4.071,0.883,6.108,1.226 c2.038,0.344,4.077,0.619,6.113,0.832c2.036,0.212,4.07,0.36,6.098,0.445s4.05,0.106,6.065,0.067 c2.014-0.039,4.02-0.139,6.015-0.298c1.995-0.159,3.979-0.375,5.947-0.65c1.969-0.274,3.924-0.607,5.862-0.994 c1.938-0.387,3.858-0.83,5.758-1.326c1.901-0.496,3.782-1.049,5.639-1.651c1.857-0.603,3.692-1.257,5.5-1.963 c1.808-0.704,3.59-1.46,5.344-2.264c1.753-0.805,3.476-1.656,5.168-2.555c1.692-0.898,3.353-1.845,4.978-2.836 s3.216-2.026,4.769-3.106c1.553-1.079,3.068-2.201,4.542-3.366c1.474-1.165,2.908-2.37,4.298-3.616 c1.39-1.247,2.736-2.532,4.036-3.856c1.3-1.324,2.553-2.688,3.756-4.087c1.203-1.4,2.357-2.835,3.458-4.305 c-0.025,0.025-0.086,0.091-0.183,0.19c-0.097,0.102-0.228,0.237-0.394,0.406s-0.366,0.371-0.601,0.604 c-0.234,0.231-0.502,0.495-0.804,0.785c-0.302,0.29-0.636,0.607-1.003,0.948c-0.367,0.344-0.767,0.709-1.199,1.099 c-0.431,0.39-0.895,0.8-1.39,1.23c-0.495,0.429-1.021,0.878-1.578,1.343c-0.556,0.465-1.144,0.945-1.759,1.44 c-0.617,0.494-1.264,1.003-1.939,1.521s-1.381,1.048-2.115,1.584c-0.733,0.536-1.496,1.081-2.287,1.63s-1.609,1.104-2.455,1.66 c-0.846,0.556-1.719,1.115-2.62,1.673s-1.827,1.116-2.78,1.669c-0.953,0.553-1.933,1.104-2.938,1.646 c-1.005,0.546-2.035,1.082-3.09,1.612c-1.055,0.529-2.134,1.051-3.238,1.559c-1.104,0.509-2.231,1.006-3.382,1.49 c-1.151,0.482-2.326,0.95-3.522,1.4s-2.417,0.884-3.66,1.296c-1.242,0.413-2.506,0.805-3.793,1.176 c-1.286,0.369-2.594,0.715-3.922,1.035c-1.328,0.32-2.679,0.614-4.048,0.88c-1.37,0.267-2.759,0.504-4.168,0.711 s-2.837,0.381-4.285,0.521s-2.914,0.247-4.399,0.316c-1.485,0.069-2.988,0.102-4.509,0.094c-1.521-0.009-3.06-0.056-4.615-0.145 c-1.556-0.092-3.128-0.225-4.716-0.402c-1.589-0.178-3.194-0.404-4.814-0.676c-1.621-0.272-3.257-0.593-4.908-0.965 c-0.788-0.146-1.575-0.305-2.36-0.476c-0.785-0.17-1.568-0.354-2.351-0.549c-0.783-0.196-1.563-0.403-2.342-0.624 c-0.778-0.219-1.555-0.45-2.329-0.693s-1.546-0.497-2.316-0.763s-1.537-0.542-2.3-0.829c-0.763-0.287-1.524-0.585-2.282-0.893 c-0.757-0.308-1.511-0.627-2.263-0.954c-0.75-0.327-1.498-0.663-2.24-1.01c-0.743-0.347-1.482-0.702-2.216-1.066 s-1.464-0.74-2.19-1.124c-0.726-0.383-1.446-0.774-2.163-1.175"/></g></g><g><g><path fill="#FFFFFF" stroke="#000000" stroke-width="0.1207" d="M62.894,120.053c1.398,1.724,2.84,3.386,4.321,4.984 c1.481,1.6,3.002,3.135,4.56,4.61c1.557,1.476,3.151,2.888,4.777,4.239c1.627,1.353,3.287,2.643,4.976,3.872 c1.689,1.228,3.407,2.396,5.152,3.504s3.516,2.154,5.309,3.142c1.794,0.986,3.61,1.912,5.445,2.78 c1.837,0.866,3.692,1.67,5.563,2.416c1.872,0.747,3.758,1.435,5.658,2.063c1.9,0.63,3.812,1.2,5.733,1.711 c1.92,0.512,3.851,0.966,5.787,1.36c1.937,0.396,3.878,0.734,5.822,1.015c1.945,0.282,3.892,0.505,5.836,0.671 c1.946,0.167,3.89,0.275,5.831,0.328c1.94,0.054,3.876,0.049,5.804-0.011c1.927-0.061,3.847-0.175,5.755-0.346 c1.908-0.17,3.806-0.397,5.688-0.679c1.883-0.281,3.751-0.618,5.601-1.01s3.682-0.837,5.493-1.337 c1.812-0.5,3.601-1.054,5.365-1.663c1.766-0.608,3.505-1.27,5.218-1.986c1.712-0.715,3.396-1.484,5.048-2.306 c1.653-0.822,3.274-1.697,4.861-2.625c-0.034,0.014-0.116,0.049-0.243,0.104c-0.128,0.056-0.303,0.131-0.521,0.223 s-0.482,0.199-0.789,0.324c-0.307,0.122-0.656,0.262-1.045,0.411c-0.391,0.149-0.822,0.313-1.293,0.487 c-0.471,0.171-0.982,0.355-1.532,0.546c-0.548,0.189-1.135,0.389-1.759,0.593c-0.623,0.203-1.282,0.412-1.976,0.625 c-0.693,0.213-1.42,0.427-2.18,0.644c-0.76,0.216-1.553,0.432-2.377,0.647c-0.823,0.217-1.679,0.429-2.563,0.639 c-0.885,0.209-1.799,0.414-2.741,0.614c-0.942,0.199-1.912,0.392-2.907,0.575c-0.997,0.184-2.019,0.359-3.065,0.523 s-2.118,0.317-3.211,0.456s-2.21,0.266-3.348,0.376c-1.138,0.109-2.296,0.207-3.474,0.284c-1.177,0.08-2.375,0.14-3.588,0.18 c-1.214,0.04-2.446,0.062-3.694,0.06c-1.248-0.003-2.512-0.028-3.79-0.079c-1.278-0.049-2.57-0.124-3.875-0.227 s-2.623-0.232-3.951-0.392s-2.668-0.349-4.016-0.57c-1.349-0.222-2.706-0.476-4.071-0.764c-1.366-0.286-2.738-0.606-4.118-0.963 c-1.378-0.356-2.763-0.751-4.152-1.184c-1.389-0.432-2.781-0.904-4.177-1.417c-1.395-0.513-2.793-1.067-4.191-1.666 c-1.397-0.599-2.797-1.24-4.195-1.928c-1.398-0.688-2.795-1.422-4.19-2.204c-1.394-0.782-2.786-1.612-4.174-2.492 c-1.387-0.882-2.771-1.813-4.147-2.797c-0.669-0.439-1.333-0.892-1.99-1.354c-0.657-0.463-1.308-0.937-1.953-1.419 c-0.645-0.485-1.283-0.98-1.916-1.484c-0.632-0.506-1.257-1.021-1.877-1.546c-0.62-0.524-1.231-1.057-1.837-1.602 c-0.606-0.543-1.205-1.096-1.797-1.657c-0.592-0.563-1.178-1.132-1.756-1.709c-0.579-0.579-1.15-1.165-1.714-1.759 c-0.564-0.593-1.123-1.194-1.672-1.801c-0.55-0.607-1.093-1.223-1.628-1.845c-0.535-0.621-1.062-1.251-1.582-1.886 c-0.519-0.636-1.031-1.276-1.535-1.923"/><path fill="#FFFFFF" stroke="#000000" stroke-width="0.1207" d="M70.094,116.446c0.504,0.646,1.013,1.282,1.529,1.91 c0.516,0.629,1.037,1.248,1.564,1.86c0.527,0.611,1.06,1.215,1.599,1.807c0.538,0.595,1.081,1.18,1.63,1.755 c0.582,0.612,1.167,1.214,1.759,1.805c0.591,0.59,1.188,1.17,1.789,1.737c0.6,0.567,1.207,1.124,1.817,1.67 c0.61,0.545,1.225,1.08,1.843,1.603c0.619,0.522,1.242,1.032,1.869,1.531c0.627,0.498,1.257,0.984,1.891,1.459 c0.634,0.476,1.272,0.938,1.913,1.389s1.285,0.888,1.933,1.313c1.257,0.898,2.532,1.763,3.825,2.589 c1.292,0.828,2.602,1.62,3.928,2.376s2.669,1.476,4.028,2.158c1.359,0.685,2.734,1.332,4.125,1.942 c1.39,0.611,2.796,1.185,4.216,1.723c1.42,0.538,2.856,1.039,4.305,1.503s2.913,0.892,4.39,1.28 c1.478,0.391,2.968,0.742,4.472,1.057c1.203,0.254,2.415,0.484,3.637,0.691c1.221,0.206,2.452,0.388,3.69,0.546 c1.239,0.158,2.486,0.295,3.741,0.405c1.254,0.11,2.518,0.197,3.788,0.259c1.271,0.064,2.547,0.102,3.832,0.117 c1.285,0.016,2.575,0.007,3.873-0.027c1.296-0.033,2.6-0.09,3.908-0.17c1.309-0.082,2.624-0.188,3.943-0.316 c0.942-0.091,1.885-0.194,2.827-0.31c0.941-0.115,1.882-0.242,2.822-0.382c0.939-0.139,1.878-0.29,2.815-0.454 c0.938-0.162,1.874-0.337,2.807-0.523c0.934-0.187,1.866-0.384,2.795-0.595c0.93-0.21,1.857-0.432,2.782-0.666 c0.925-0.233,1.847-0.478,2.766-0.734s1.834-0.524,2.747-0.804c0.564-0.173,1.106-0.344,1.625-0.511 c0.519-0.169,1.016-0.334,1.489-0.494c0.474-0.161,0.924-0.318,1.351-0.471c0.428-0.151,0.831-0.299,1.211-0.44 c0.379-0.143,0.735-0.277,1.066-0.406c0.332-0.129,0.638-0.251,0.92-0.365c0.282-0.114,0.539-0.221,0.771-0.317 c0.231-0.097,0.437-0.187,0.618-0.264l0,0.001l0.001,0.001l0.001,0.001l0.001,0.001l0.001,0.001l0,0.001h0.001l0.001,0.001 c0.002-0.001,0.005-0.003,0.008-0.004c0.002-0.001,0.005-0.003,0.008-0.005c0.003-0.001,0.005-0.004,0.009-0.005 c0.002-0.001,0.004-0.003,0.008-0.005c0.002-0.001,0.005-0.003,0.008-0.004c0.002-0.001,0.005-0.003,0.008-0.006 c0.003-0.001,0.005-0.003,0.008-0.004s0.005-0.003,0.008-0.005l0.02,0.034l0.02,0.033l0.02,0.034l0.02,0.034l0.02,0.034 l0.02,0.034l0.02,0.033l0.02,0.034c-1.571,0.919-3.178,1.787-4.82,2.606c-1.641,0.816-3.315,1.584-5.019,2.298 c-1.705,0.715-3.439,1.378-5.201,1.986c-1.762,0.609-3.55,1.168-5.364,1.671c-1.813,0.504-3.649,0.953-5.506,1.35 c-1.858,0.395-3.736,0.736-5.632,1.021c-1.896,0.286-3.81,0.516-5.737,0.689c-1.929,0.175-3.871,0.292-5.825,0.353 c-0.127,0.003-0.256,0.009-0.384,0.011c-0.128,0.003-0.256,0.007-0.385,0.009c-0.128,0.003-0.256,0.007-0.384,0.009 c-0.129,0.003-0.257,0.005-0.385,0.007s-0.257,0.004-0.385,0.005c-0.128,0.002-0.256,0.003-0.385,0.005 c-0.128,0.001-0.256,0.001-0.384,0.001c-0.129,0.001-0.256,0.001-0.384,0.001l0,0l0,0l0,0l0,0l0,0l0,0l0,0l0,0 c-1.853,0-3.705-0.052-5.554-0.154s-3.695-0.256-5.537-0.46c-1.841-0.204-3.676-0.459-5.503-0.764 c-1.827-0.306-3.646-0.658-5.453-1.063c-1.808-0.403-3.604-0.857-5.387-1.357c-1.783-0.502-3.552-1.051-5.304-1.65 c-1.751-0.599-3.487-1.245-5.203-1.939c-1.716-0.695-3.414-1.438-5.088-2.227c-1.949-0.92-3.857-1.897-5.725-2.93 c-1.868-1.031-3.694-2.119-5.478-3.262c-1.785-1.144-3.528-2.34-5.229-3.591c-1.701-1.251-3.358-2.558-4.973-3.916 c-1.615-1.36-3.186-2.772-4.714-4.238c-1.527-1.467-3.011-2.985-4.451-4.556c-1.439-1.572-2.833-3.196-4.183-4.872"/><path fill="#FFFFFF" stroke="#000000" stroke-width="0.1207" d="M62.859,119.765c1.345,1.671,2.735,3.289,4.169,4.856 c1.436,1.567,2.914,3.081,4.437,4.541c1.522,1.462,3.089,2.87,4.699,4.225c1.61,1.354,3.263,2.657,4.958,3.905 c1.694,1.246,3.432,2.439,5.211,3.578c1.779,1.138,3.6,2.223,5.461,3.251c1.861,1.029,3.763,2.002,5.706,2.921 c1.785,0.841,3.595,1.628,5.427,2.362c1.832,0.733,3.685,1.411,5.558,2.035s3.763,1.193,5.669,1.706 c1.905,0.513,3.827,0.971,5.76,1.371c1.934,0.401,3.878,0.746,5.831,1.033c1.953,0.287,3.915,0.519,5.882,0.691 c1.967,0.173,3.938,0.287,5.913,0.345c1.974,0.057,3.949,0.053,5.923-0.007c1.833-0.057,3.657-0.164,5.468-0.32 c1.811-0.157,3.61-0.363,5.393-0.619c1.783-0.255,3.55-0.561,5.3-0.913c1.75-0.352,3.482-0.755,5.193-1.203 c1.711-0.449,3.402-0.945,5.07-1.488s3.312-1.134,4.931-1.77c1.619-0.636,3.212-1.318,4.777-2.046 c1.565-0.729,3.101-1.502,4.606-2.319c-0.211,0.081-0.431,0.166-0.661,0.254c-0.229,0.087-0.468,0.177-0.716,0.269 c-0.248,0.092-0.505,0.185-0.771,0.28c-0.266,0.097-0.542,0.193-0.826,0.293c-0.284,0.099-0.578,0.2-0.88,0.302 c-0.303,0.103-0.614,0.206-0.934,0.312c-0.32,0.104-0.65,0.211-0.987,0.318c-0.338,0.105-0.685,0.215-1.041,0.322 c-0.915,0.281-1.833,0.549-2.754,0.807c-0.921,0.256-1.845,0.503-2.773,0.737c-0.927,0.233-1.857,0.455-2.789,0.666 c-0.933,0.211-1.867,0.41-2.803,0.597s-1.875,0.362-2.814,0.526c-0.941,0.163-1.882,0.313-2.825,0.454 c-0.942,0.14-1.886,0.268-2.83,0.383c-0.944,0.116-1.889,0.22-2.834,0.31c-1.323,0.131-2.641,0.237-3.955,0.317 c-1.313,0.083-2.619,0.14-3.92,0.173c-1.301,0.032-2.596,0.042-3.885,0.027c-1.288-0.016-2.569-0.054-3.843-0.117 s-2.541-0.15-3.8-0.262s-2.51-0.245-3.753-0.404c-1.243-0.159-2.477-0.342-3.702-0.55c-1.225-0.206-2.442-0.438-3.649-0.692 c-1.509-0.315-3.005-0.669-4.488-1.061c-1.483-0.392-2.952-0.82-4.406-1.286c-1.455-0.465-2.895-0.966-4.32-1.506 c-1.425-0.539-2.836-1.116-4.231-1.729c-1.396-0.612-2.775-1.263-4.138-1.948c-1.363-0.686-2.711-1.408-4.041-2.167 c-1.331-0.758-2.645-1.552-3.941-2.382c-1.297-0.83-2.576-1.696-3.837-2.598c-0.649-0.426-1.295-0.865-1.938-1.317 c-0.643-0.451-1.283-0.916-1.919-1.393c-0.636-0.478-1.269-0.966-1.897-1.466c-0.629-0.501-1.254-1.015-1.875-1.538 c-0.621-0.523-1.237-1.06-1.85-1.606c-0.612-0.548-1.22-1.105-1.823-1.677c-0.604-0.57-1.202-1.15-1.796-1.742 c-0.594-0.593-1.183-1.197-1.766-1.811c-0.55-0.578-1.096-1.165-1.635-1.76c-0.54-0.597-1.075-1.201-1.603-1.813 c-0.529-0.613-1.052-1.236-1.569-1.865c-0.518-0.632-1.029-1.269-1.534-1.917"/></g></g><g><g><path fill="#E32522" d="M84.151,80.177c0.793,2.03,1.646,4.017,2.556,5.96c0.909,1.942,1.875,3.84,2.894,5.693 c1.02,1.853,2.092,3.661,3.213,5.423c1.123,1.762,2.294,3.478,3.513,5.147c1.218,1.668,2.482,3.291,3.791,4.865 c1.308,1.575,2.659,3.102,4.05,4.579c1.392,1.479,2.824,2.906,4.292,4.286s2.973,2.709,4.51,3.988 c1.538,1.279,3.108,2.511,4.709,3.69c1.6,1.179,3.23,2.308,4.888,3.384c1.657,1.077,3.341,2.103,5.047,3.076 c1.707,0.971,3.437,1.893,5.187,2.759c1.75,0.868,3.519,1.682,5.306,2.44c1.786,0.761,3.589,1.465,5.406,2.116 c1.815,0.649,3.644,1.243,5.482,1.782s3.687,1.023,5.542,1.45c1.854,0.426,3.717,0.797,5.582,1.108 c1.865,0.314,3.734,0.568,5.602,0.768c1.868,0.197,3.737,0.336,5.602,0.415c1.866,0.08,3.727,0.102,5.582,0.062 c1.856-0.039,3.704-0.139,5.542-0.299c1.839-0.159,3.668-0.381,5.483-0.663c-0.037,0.001-0.125,0.004-0.265,0.009 c-0.14,0.005-0.329,0.01-0.565,0.015c-0.237,0.007-0.522,0.011-0.852,0.014c-0.331,0.002-0.705,0.002-1.124,0 c-0.418-0.003-0.879-0.009-1.381-0.021c-0.501-0.012-1.044-0.028-1.624-0.052c-0.58-0.023-1.199-0.054-1.854-0.092 c-0.655-0.038-1.345-0.085-2.068-0.142c-0.722-0.057-1.478-0.121-2.265-0.2c-0.787-0.076-1.604-0.164-2.449-0.266 c-0.846-0.102-1.72-0.216-2.62-0.345c-0.9-0.128-1.825-0.271-2.774-0.431c-0.95-0.159-1.922-0.335-2.917-0.529 c-0.994-0.193-2.009-0.403-3.042-0.634c-1.033-0.23-2.086-0.479-3.155-0.751c-1.069-0.27-2.154-0.562-3.253-0.875 c-1.1-0.313-2.213-0.648-3.337-1.005c-1.125-0.358-2.26-0.74-3.405-1.147c-1.145-0.406-2.299-0.839-3.459-1.297 c-1.161-0.459-2.327-0.944-3.499-1.459c-1.171-0.514-2.346-1.056-3.523-1.63c-1.177-0.571-2.355-1.174-3.533-1.81 c-1.177-0.635-2.355-1.301-3.529-2c-1.174-0.7-2.344-1.433-3.51-2.201c-1.167-0.766-2.327-1.566-3.479-2.402 c-1.153-0.837-2.297-1.711-3.431-2.622c-1.134-0.909-2.258-1.859-3.369-2.848c-1.11-0.988-2.209-2.015-3.29-3.083 c-1.082-1.068-2.149-2.177-3.199-3.329c-1.05-1.152-2.082-2.346-3.093-3.583c-1.012-1.238-2.002-2.52-2.972-3.849 c-0.969-1.327-1.915-2.7-2.836-4.12c-0.461-0.653-0.914-1.317-1.356-1.988c-0.443-0.671-0.875-1.35-1.298-2.036 c-0.423-0.687-0.836-1.381-1.24-2.082c-0.403-0.702-0.797-1.41-1.182-2.125c-0.385-0.715-0.76-1.436-1.125-2.164 s-0.72-1.461-1.066-2.2c-0.346-0.739-0.682-1.483-1.009-2.233c-0.327-0.75-0.645-1.504-0.952-2.263 c-0.309-0.758-1.185-3.339-1.474-4.105"/></g></svg>
