<svg xmlns:dc="http://purl.org/dc/elements/1.1/" xmlns:cc="http://creativecommons.org/ns#" xmlns:rdf="http://www.w3.org/1999/02/22-rdf-syntax-ns#" xmlns:svg="http://www.w3.org/2000/svg" xmlns="http://www.w3.org/2000/svg" xmlns:xlink="http://www.w3.org/1999/xlink" version="1.1" id="svg2" viewBox="0 0 373.320 373.079" height="105.291" width="105.359"><defs id="defs4"><linearGradient id="linearGradient4319"><stop style="stop-color:#d4aa00;stop-opacity:0;" offset="0" id="stop4323" /><stop style="stop-color:#c88a00;stop-opacity:1" offset="1" id="stop4321" /></linearGradient><radialGradient gradientUnits="userSpaceOnUse" gradientTransform="matrix(0.310,1.172e-4,-1.131e-4,0.299,150.758,331.932)" r="50.308" fy="473.772" fx="218.512" cy="473.772" cx="218.512" id="radialGradient4325" xlink:href="#linearGradient4319" /></defs><metadata id="metadata7"><rdf:RDF><cc:Work rdf:about=""><dc:format>image/svg+xml</dc:format><dc:type rdf:resource="http://purl.org/dc/dcmitype/StillImage" /><dc:title></dc:title></cc:Work></rdf:RDF></metadata><g transform="translate(33.767,-376.212)" id="layer1"><g id="g4347"><ellipse style="opacity:1;fill:#ffffff;fill-opacity:1;fill-rule:nonzero;stroke:#ffffff;stroke-width:0.498;stroke-linecap:round;stroke-linejoin:miter;stroke-miterlimit:4;stroke-dasharray:none;stroke-dashoffset:0;stroke-opacity:1" id="path3477" cx="152.616" cy="562.219" rx="183.617" ry="183.572" /><path id="path3457" d="m 140.707,749.185 c -11.474,-0.723 -28.705,-3.246 -33.45,-4.897 -0.907,-0.315 -2.797,-0.862 -4.2,-1.214 -6.202,-1.558 -15.436,-4.535 -17.597,-5.671 -0.686,-0.360 -2.306,-1.041 -3.6,-1.512 -3.453,-1.257 -9.229,-3.747 -10.365,-4.468 -0.543,-0.344 -2.067,-1.163 -3.387,-1.820 -4.073,-2.025 -8.670,-4.548 -9.3,-5.103 -0.33,-0.291 -1.477,-1.043 -2.55,-1.671 -2.288,-1.341 -6.955,-4.411 -9.3,-6.119 -0.907,-0.660 -2.808,-2.009 -4.223,-2.996 -1.415,-0.987 -3.231,-2.415 -4.034,-3.174 -0.803,-0.758 -2.075,-1.783 -2.826,-2.277 -0.751,-0.493 -2.985,-2.342 -4.965,-4.108 -4.195,-3.741 -17.681,-17.183 -18.932,-18.869 -0.470,-0.633 -1.817,-2.189 -2.993,-3.456 -1.176,-1.267 -2.653,-3.080 -3.283,-4.029 -0.629,-0.948 -1.776,-2.422 -2.548,-3.275 -0.772,-0.852 -2.308,-2.922 -3.414,-4.599 -1.105,-1.676 -2.257,-3.283 -2.560,-3.570 -0.302,-0.286 -1.791,-2.613 -3.309,-5.171 -1.517,-2.557 -3.100,-5.099 -3.516,-5.648 -0.416,-0.548 -1.929,-3.316 -3.361,-6.15 -1.432,-2.833 -2.842,-5.509 -3.131,-5.946 -0.468,-0.707 -1.869,-3.970 -5.451,-12.705 -2.429,-5.922 -4.778,-13.270 -6.156,-19.253 -0.335,-1.455 -0.804,-3.119 -1.043,-3.696 -0.447,-1.082 -1.889,-8.174 -2.684,-13.2 -3.000,-18.987 -3.051,-44.046 -0.128,-63.150 0.812,-5.309 2.342,-12.995 2.812,-14.129 0.211,-0.511 0.611,-1.928 0.887,-3.15 1.126,-4.978 4.613,-16.329 5.381,-17.515 0.215,-0.332 0.827,-1.752 1.360,-3.155 2.281,-6.008 4.402,-10.748 7.502,-16.771 1.818,-3.531 3.564,-6.704 3.880,-7.05 0.315,-0.345 1.262,-1.843 2.103,-3.328 1.784,-3.152 3.497,-5.749 6.712,-10.181 1.277,-1.760 2.479,-3.498 2.670,-3.860 0.191,-0.362 1.001,-1.377 1.799,-2.255 0.798,-0.878 2.094,-2.491 2.879,-3.585 0.784,-1.093 2.614,-3.277 4.065,-4.852 5.464,-5.932 10.331,-11.008 12.361,-12.893 1.155,-1.072 3.066,-2.899 4.248,-4.060 1.181,-1.160 3.517,-3.257 5.190,-4.660 1.673,-1.402 3.946,-3.333 5.051,-4.292 1.105,-0.958 3.092,-2.472 4.417,-3.366 1.324,-0.893 3.130,-2.241 4.014,-2.995 0.883,-0.754 2.023,-1.586 2.532,-1.850 0.509,-0.263 2.010,-1.185 3.335,-2.048 1.325,-0.863 3.030,-1.958 3.787,-2.433 0.757,-0.475 2.107,-1.350 3,-1.944 1.751,-1.167 9.761,-5.437 14.371,-7.663 1.567,-0.756 4.065,-1.961 5.55,-2.676 3.801,-1.831 13.275,-5.231 19.2,-6.889 14.822,-4.149 21.937,-5.540 35.4,-6.921 6.317,-0.647 27.036,-0.915 34.323,-0.442 10.664,0.691 25.765,2.813 29.126,4.093 0.577,0.219 3.075,0.891 5.55,1.492 5.263,1.278 12.727,3.513 17.4,5.210 4.684,1.701 9.035,3.460 9.501,3.841 0.219,0.178 1.931,1.015 3.805,1.858 1.873,0.843 3.763,1.785 4.2,2.094 0.436,0.308 2.278,1.308 4.093,2.223 4.075,2.052 6.914,3.695 10.8,6.248 1.65,1.084 4.094,2.671 5.431,3.526 1.337,0.855 2.754,1.901 3.15,2.324 0.395,0.423 1.123,0.978 1.618,1.233 2.127,1.097 11.481,8.731 16.913,13.802 4.622,4.315 11.959,11.751 14.283,14.476 1.196,1.402 2.672,3.022 3.281,3.6 0.608,0.577 1.530,1.657 2.049,2.4 0.518,0.742 1.961,2.619 3.207,4.170 2.783,3.466 3.988,5.109 6.295,8.579 0.987,1.485 2.117,3.105 2.511,3.6 1.068,1.341 2.612,3.822 4.574,7.35 0.963,1.732 2.048,3.555 2.409,4.05 0.713,0.976 5.822,11.299 5.822,11.765 0,0.156 0.556,1.339 1.235,2.630 1.718,3.262 4.478,10.815 7.017,19.204 0.449,1.485 0.926,2.837 1.060,3.004 0.308,0.386 2.149,7.703 2.980,11.845 2.916,14.543 4.003,25.829 4.002,41.55 0,15.252 -1.045,26.411 -3.731,39.890 -1.232,6.183 -2.591,11.651 -3.430,13.806 -0.386,0.991 -1.194,3.422 -1.796,5.402 -2.070,6.808 -5.384,15.590 -6.283,16.65 -0.210,0.247 -0.483,0.781 -0.607,1.186 -0.475,1.554 -5.600,11.699 -6.451,12.770 -0.492,0.619 -0.894,1.275 -0.895,1.459 0,0.183 -0.678,1.460 -1.506,2.837 -0.828,1.376 -1.853,3.131 -2.279,3.9 -0.425,0.768 -1.165,1.936 -1.644,2.596 -0.824,1.135 -2.165,3.109 -4.890,7.2 -0.659,0.99 -1.853,2.542 -2.653,3.45 -0.799,0.907 -2.085,2.582 -2.857,3.722 -0.772,1.139 -2.363,3.097 -3.536,4.35 -1.172,1.252 -2.274,2.537 -2.448,2.854 -0.483,0.882 -5.719,6.447 -10.418,11.071 -5.804,5.711 -12.675,11.782 -15.418,13.621 -0.881,0.591 -1.663,1.232 -1.737,1.424 -0.125,0.327 -0.973,0.975 -6.710,5.125 -1.237,0.895 -2.722,1.973 -3.3,2.396 -1.154,0.845 -8.040,5.232 -8.212,5.232 -0.059,0 -0.989,0.591 -2.066,1.313 -1.077,0.722 -3.896,2.291 -6.264,3.487 -2.368,1.195 -4.508,2.342 -4.756,2.548 -0.575,0.478 -5.058,2.493 -10.05,4.516 -2.145,0.869 -4.877,1.991 -6.072,2.494 -2.660,1.118 -10.367,3.566 -15.227,4.836 -1.98,0.517 -4.352,1.194 -5.272,1.503 -3.737,1.258 -16.371,3.354 -26.377,4.376 -4.427,0.452 -27.203,0.832 -31.950,0.532 z m 30.150,-7.581 c 11.464,-1.185 20.049,-2.595 25.65,-4.213 1.155,-0.333 4.192,-1.156 6.75,-1.828 5.182,-1.361 11.955,-3.601 15.15,-5.011 1.155,-0.509 3.855,-1.625 6,-2.479 2.145,-0.853 4.912,-2.087 6.15,-2.740 1.237,-0.653 3.937,-2.076 6,-3.161 2.062,-1.085 4.484,-2.360 5.381,-2.833 0.897,-0.473 1.909,-1.109 2.25,-1.414 0.340,-0.304 1.495,-1.069 2.568,-1.700 3.015,-1.771 6.601,-4.100 7.845,-5.094 0.619,-0.495 2.629,-1.98 4.465,-3.3 1.836,-1.32 4.186,-3.142 5.221,-4.05 1.035,-0.907 2.587,-2.19 3.450,-2.85 6.245,-4.777 19.835,-18.669 25.967,-26.543 1.32,-1.695 2.812,-3.571 3.316,-4.169 1.326,-1.574 3.030,-3.953 5.083,-7.101 0.99,-1.517 2.355,-3.552 3.034,-4.522 0.678,-0.969 1.942,-3.045 2.808,-4.612 0.865,-1.567 2.065,-3.592 2.666,-4.5 0.600,-0.907 2.081,-3.675 3.290,-6.15 1.208,-2.475 2.780,-5.647 3.492,-7.05 1.509,-2.973 3.751,-8.723 5.557,-14.25 0.700,-2.145 1.451,-4.305 1.668,-4.8 1.339,-3.057 3.978,-14.104 5.234,-21.915 1.855,-11.542 2.524,-20.327 2.510,-32.984 -0.014,-12.795 -0.705,-21.702 -2.536,-32.7 -1.244,-7.468 -3.639,-17.704 -4.914,-21 -0.383,-0.99 -1.373,-3.825 -2.200,-6.3 -1.851,-5.539 -4.097,-11.300 -5.028,-12.9 -0.384,-0.66 -1.785,-3.545 -3.113,-6.412 -1.328,-2.866 -2.955,-6.003 -3.616,-6.971 -0.660,-0.967 -1.201,-1.862 -1.201,-1.987 0,-0.360 -4.345,-7.597 -5.360,-8.928 -0.503,-0.66 -2.086,-2.931 -3.519,-5.047 -1.432,-2.116 -3.231,-4.546 -3.998,-5.4 -0.766,-0.853 -1.645,-1.957 -1.954,-2.452 -0.635,-1.020 -3.020,-3.910 -4.702,-5.7 -0.620,-0.66 -1.935,-2.145 -2.921,-3.3 -3.765,-4.409 -15.863,-16.254 -17.893,-17.519 -0.495,-0.308 -1.684,-1.317 -2.643,-2.243 -0.958,-0.925 -2.646,-2.32 -3.749,-3.099 -1.103,-0.779 -2.938,-2.163 -4.077,-3.077 -2.353,-1.887 -8.404,-6.055 -9.859,-6.791 -0.533,-0.269 -1.644,-1.002 -2.469,-1.628 -1.220,-0.926 -11.284,-6.590 -11.709,-6.590 -0.065,0 -0.724,-0.383 -1.463,-0.852 -0.739,-0.468 -3.950,-1.960 -7.135,-3.315 -3.185,-1.354 -6.601,-2.852 -7.591,-3.327 -0.99,-0.475 -3.825,-1.538 -6.3,-2.362 -2.475,-0.823 -5.107,-1.721 -5.85,-1.994 -1.927,-0.710 -9.970,-2.687 -14.55,-3.577 -13.245,-2.572 -24.196,-3.580 -38.85,-3.575 -15.702,0.006 -27.191,1.134 -41.100,4.036 -4.819,1.005 -12.141,2.861 -12.907,3.272 -0.271,0.145 -2.777,1.029 -5.567,1.965 -2.790,0.935 -5.708,2.021 -6.483,2.412 -0.775,0.391 -2.885,1.312 -4.689,2.046 -6.118,2.490 -20.515,9.957 -23.001,11.931 -0.495,0.392 -1.845,1.301 -3,2.018 -3.258,2.023 -6.149,3.970 -7.374,4.964 -1.331,1.080 -5.839,4.453 -7.584,5.674 -0.682,0.477 -1.983,1.611 -2.891,2.519 -0.907,0.908 -2.392,2.200 -3.3,2.871 -2.214,1.637 -17.124,16.566 -18.119,18.142 -0.433,0.686 -0.906,1.248 -1.052,1.248 -0.302,0 -4.139,4.498 -4.989,5.85 -0.311,0.495 -1.208,1.615 -1.994,2.490 -0.785,0.874 -2.328,2.967 -3.430,4.65 -1.101,1.682 -2.439,3.549 -2.973,4.147 -0.534,0.598 -1.346,1.745 -1.805,2.55 -1.583,2.776 -3.543,5.964 -3.998,6.501 -0.613,0.725 -2.371,4.056 -4.544,8.610 -0.984,2.062 -1.926,3.952 -2.093,4.2 -0.696,1.030 -2.551,5.246 -4.224,9.6 -0.982,2.557 -1.981,5.055 -2.220,5.55 -1.295,2.686 -3.252,9.144 -4.954,16.35 -0.526,2.227 -1.218,4.962 -1.537,6.078 -1.289,4.506 -2.898,16.370 -3.545,26.143 -0.404,6.117 -0.405,20.497 -0.001,26.878 0.577,9.112 2.281,21.897 3.425,25.690 0.242,0.802 0.990,3.754 1.662,6.559 1.475,6.155 3.634,13.389 4.788,16.05 0.465,1.072 1.471,3.57 2.236,5.55 1.884,4.878 2.197,5.559 6.275,13.649 1.954,3.877 3.927,7.525 4.383,8.106 0.456,0.580 1.136,1.660 1.510,2.4 0.725,1.433 3.906,6.546 4.849,7.793 0.311,0.412 1.060,1.492 1.665,2.4 2.717,4.082 9.643,12.783 13.849,17.4 4.102,4.502 9.912,10.503 11.118,11.484 0.566,0.461 2.051,1.807 3.3,2.993 3.944,3.745 12.089,10.379 15.785,12.855 1.476,0.989 2.826,1.983 3.001,2.210 0.174,0.226 1.389,1.073 2.7,1.882 2.267,1.399 4.687,2.939 8.683,5.527 0.99,0.641 3.69,2.124 6,3.297 2.31,1.172 4.537,2.363 4.95,2.646 0.412,0.283 2.302,1.202 4.2,2.043 10.120,4.485 18.193,7.361 27.15,9.673 3.135,0.809 6.326,1.666 7.093,1.904 3.199,0.994 15.911,2.874 23.506,3.476 2.145,0.169 4.44,0.360 5.1,0.423 2.500,0.238 26.839,-0.080 29.85,-0.391 z m -30.150,-11.128 c -9.165,-0.707 -16.292,-1.630 -23.4,-3.029 -5.574,-1.097 -11.752,-2.614 -12.75,-3.129 -0.412,-0.213 -2.842,-1.031 -5.4,-1.817 -2.557,-0.786 -5.73,-1.858 -7.05,-2.382 -1.32,-0.524 -2.94,-1.125 -3.6,-1.337 -0.66,-0.211 -1.537,-0.614 -1.95,-0.895 -0.412,-0.280 -1.965,-1.024 -3.45,-1.651 -3.591,-1.517 -9.659,-4.558 -10.792,-5.407 -0.499,-0.374 -1.650,-1.057 -2.557,-1.518 -1.964,-0.996 -7.698,-4.503 -8.55,-5.228 -0.33,-0.280 -2.355,-1.689 -4.5,-3.129 -2.145,-1.440 -4.104,-2.844 -4.353,-3.119 -0.608,-0.671 -2.824,-2.422 -4.553,-3.598 -0.774,-0.526 -2.090,-1.622 -2.926,-2.436 -0.835,-0.813 -2.497,-2.280 -3.692,-3.258 -1.195,-0.978 -2.926,-2.573 -3.845,-3.543 -0.919,-0.970 -2.337,-2.381 -3.15,-3.136 -2.274,-2.112 -8.692,-8.948 -9.976,-10.627 -0.630,-0.825 -1.782,-2.175 -2.558,-3 -0.776,-0.825 -1.773,-2.04 -2.216,-2.7 -0.443,-0.66 -1.632,-2.28 -2.643,-3.6 -1.010,-1.32 -2.732,-3.75 -3.825,-5.4 -1.093,-1.65 -2.386,-3.54 -2.874,-4.2 -1.026,-1.388 -2.519,-3.827 -5.015,-8.192 -3.140,-5.492 -4.086,-7.334 -5.883,-11.457 -0.971,-2.227 -1.974,-4.368 -2.228,-4.758 -0.775,-1.186 -3.363,-8.570 -6.640,-18.941 -1.960,-6.205 -4.047,-17.833 -5.223,-29.1 -0.628,-6.020 -0.528,-30.041 0.149,-36.150 1.117,-10.057 3.418,-22.717 4.989,-27.45 0.465,-1.402 1.415,-4.372 2.110,-6.6 1.461,-4.680 4.082,-11.828 4.669,-12.731 0.221,-0.340 1.273,-2.585 2.339,-4.990 2.127,-4.800 3.399,-7.387 3.973,-8.078 0.205,-0.247 0.852,-1.395 1.437,-2.55 1.325,-2.615 4.198,-7.259 6.894,-11.140 1.130,-1.627 2.235,-3.297 2.455,-3.709 0.220,-0.412 1.272,-1.786 2.338,-3.052 1.066,-1.266 2.425,-3.036 3.020,-3.932 0.595,-0.896 1.912,-2.489 2.928,-3.540 1.015,-1.050 2.216,-2.420 2.667,-3.043 0.983,-1.357 9.085,-9.682 13.507,-13.880 4.833,-4.587 12.248,-10.705 16.182,-13.353 1.406,-0.946 2.729,-1.928 2.941,-2.183 1.146,-1.381 13.730,-8.810 20.892,-12.335 7.514,-3.697 11.969,-5.556 18.032,-7.526 2.157,-0.701 4.235,-1.441 4.616,-1.645 1.449,-0.775 11.415,-3.202 18.010,-4.384 4.267,-0.765 11.515,-1.749 15.3,-2.077 1.237,-0.107 3.775,-0.385 5.640,-0.619 4.017,-0.502 20.137,-0.581 24.059,-0.118 1.402,0.165 4.575,0.504 7.05,0.753 7.681,0.772 14.728,1.851 20.7,3.170 4.581,1.011 11.060,2.722 11.865,3.133 0.421,0.214 3.002,1.133 5.737,2.041 2.734,0.907 6.305,2.207 7.934,2.887 4.842,2.022 17.478,8.414 20.062,10.149 1.32,0.886 2.94,1.888 3.6,2.228 1.079,0.555 5.118,3.241 7.05,4.689 0.412,0.309 2.572,1.892 4.8,3.519 2.227,1.626 4.461,3.365 4.963,3.864 0.502,0.498 1.775,1.582 2.829,2.407 3.619,2.833 17.234,16.158 19.158,18.75 0.428,0.577 1.678,2.011 2.776,3.186 1.098,1.175 2.560,2.966 3.248,3.980 0.688,1.013 2.072,2.819 3.074,4.013 1.002,1.193 2.031,2.507 2.287,2.919 0.255,0.412 1.434,2.235 2.621,4.05 1.186,1.815 2.903,4.447 3.816,5.85 0.912,1.402 2.566,4.372 3.673,6.6 1.107,2.227 2.206,4.268 2.442,4.535 0.502,0.569 3.992,8.412 5.192,11.668 0.456,1.239 1.103,2.792 1.436,3.45 1.176,2.319 4.225,12.528 5.778,19.345 0.469,2.062 1.000,4.133 1.179,4.601 0.515,1.349 1.733,8.859 2.391,14.750 1.370,12.259 1.543,25.795 0.483,37.797 -0.671,7.609 -2.114,17.163 -3.006,19.905 -0.249,0.766 -1.008,3.684 -1.686,6.484 -1.608,6.635 -3.810,13.847 -5.140,16.830 -0.583,1.308 -1.161,2.716 -1.284,3.127 -0.482,1.606 -4.686,10.999 -5.297,11.836 -0.355,0.486 -1.078,1.769 -1.605,2.85 -1.450,2.973 -4.912,9.086 -5.529,9.765 -0.300,0.33 -1.279,1.828 -2.175,3.329 -0.896,1.501 -2.969,4.538 -4.607,6.75 -1.637,2.211 -3.362,4.588 -3.832,5.282 -0.469,0.694 -1.750,2.266 -2.847,3.494 -1.096,1.227 -2.803,3.214 -3.793,4.415 -4.857,5.889 -18.479,18.685 -24.15,22.685 -1.072,0.756 -2.119,1.616 -2.325,1.910 -0.206,0.294 -2.164,1.711 -4.35,3.150 -2.185,1.438 -4.311,2.919 -4.724,3.290 -0.680,0.612 -7.105,4.519 -10.05,6.110 -0.66,0.356 -1.875,1.068 -2.7,1.581 -1.449,0.901 -9.722,4.813 -11.048,5.224 -0.358,0.111 -0.989,0.433 -1.401,0.716 -0.967,0.663 -8.717,3.525 -13.35,4.930 -1.98,0.600 -3.854,1.236 -4.166,1.412 -0.729,0.413 -6.230,1.828 -10.833,2.787 -6.583,1.371 -12.351,2.238 -20.25,3.046 -5.392,0.551 -24.393,0.827 -29.550,0.429 z m 13.800,-18.298 0,-1.65 -4.875,-0.265 -4.875,-0.265 0,-2.090 0,-2.090 4.425,0.105 4.425,0.105 0.093,-1.466 c 0.051,-0.806 -0.018,-1.578 -0.153,-1.713 -0.135,-0.135 -2.101,-0.340 -4.368,-0.453 l -4.121,-0.206 0,-1.651 0,-1.651 4.620,0.190 c 5.155,0.212 4.979,0.279 4.979,-1.903 0,-0.636 -0.147,-1.248 -0.328,-1.360 -0.530,-0.327 -12.585,-0.839 -12.876,-0.546 -0.311,0.312 -0.993,17.207 -0.723,17.911 0.199,0.520 2.984,0.700 10.328,0.668 l 3.450,-0.015 0,-1.65 z m 6.562,1.261 c 0.081,-0.131 -0.044,-1.785 -0.279,-3.675 -0.234,-1.889 -0.428,-3.485 -0.429,-3.545 -0.008,-0.321 2.952,0.400 3.634,0.885 0.439,0.312 1.706,1.787 2.815,3.277 l 2.016,2.708 1.540,-0.195 c 1.723,-0.219 2.590,-0.575 2.590,-1.064 0,-0.563 -2.990,-4.391 -4.398,-5.631 l -1.343,-1.182 0.846,-0.441 c 3.099,-1.618 3.704,-5.815 1.188,-8.254 -1.173,-1.137 -2.539,-1.529 -5.292,-1.519 -2.558,0.009 -8.041,0.700 -8.399,1.058 -0.390,0.390 1.305,16.775 1.797,17.368 0.400,0.482 3.439,0.656 3.713,0.213 z m -0.839,-11.536 c -0.076,-0.371 -0.219,-1.177 -0.317,-1.791 -0.206,-1.287 -0.225,-1.278 3.353,-1.583 1.936,-0.164 2.223,-0.118 2.794,0.452 0.497,0.497 0.592,0.843 0.434,1.591 -0.110,0.525 -0.288,1.038 -0.394,1.139 -0.359,0.342 -3.000,0.865 -4.370,0.865 -1.170,0 -1.380,-0.094 -1.499,-0.675 z m -21.609,11.153 c 0.329,-0.532 -4.398,-18.576 -4.941,-18.861 -0.259,-0.136 -1.158,-0.340 -1.998,-0.453 l -1.526,-0.206 -4.473,8.020 c -2.460,4.411 -4.514,8.192 -4.566,8.401 -0.131,0.535 0.769,0.946 2.339,1.067 1.335,0.102 1.346,0.095 2.247,-1.457 0.498,-0.858 1.056,-1.624 1.241,-1.700 0.357,-0.148 6.087,0.585 6.309,0.807 0.072,0.072 0.372,0.991 0.667,2.042 l 0.536,1.911 1.625,0.346 c 2.138,0.455 2.304,0.460 2.538,0.082 z m -8.025,-8.655 c -0.776,-0.108 -1.498,-0.283 -1.604,-0.388 -0.201,-0.201 1.987,-4.428 2.295,-4.431 0.163,-0.003 1.171,4.132 1.171,4.806 0,0.160 -0.101,0.273 -0.225,0.251 -0.123,-0.022 -0.860,-0.128 -1.637,-0.237 z m 54.217,5.837 c 3.469,-1.697 5.172,-4.890 4.854,-9.099 -0.092,-1.220 -0.107,-2.158 -0.034,-2.085 0.073,0.073 0.858,2.212 1.745,4.754 1.140,3.268 1.761,4.650 2.121,4.722 0.279,0.056 2.615,-0.676 5.190,-1.627 5.004,-1.848 6.453,-2.786 7.404,-4.790 0.464,-0.978 0.464,-1.172 0.007,-2.767 -0.562,-1.956 -1.889,-3.539 -3.210,-3.830 -0.687,-0.150 -0.823,-0.299 -0.632,-0.688 0.133,-0.273 0.244,-1.350 0.246,-2.393 0.002,-1.852 -0.027,-1.925 -1.299,-3.110 -1.300,-1.213 -1.302,-1.213 -3.15,-1.019 -2.556,0.269 -10.428,2.605 -10.640,3.157 -0.093,0.242 0.251,1.662 0.765,3.154 1.273,3.697 1.444,4.492 0.648,3.014 -1.964,-3.645 -4.517,-5.338 -8.052,-5.338 -2.464,0 -4.456,0.818 -6.269,2.577 -2.019,1.959 -2.450,3.038 -2.450,6.145 0,4.925 2.011,8.559 5.471,9.884 1.617,0.619 5.364,0.280 7.283,-0.658 z m -6.123,-3.375 c -1.326,-0.653 -2.132,-2.470 -2.344,-5.284 -0.295,-3.937 1.199,-5.765 4.497,-5.496 3.111,0.253 4.146,1.552 4.338,5.446 0.101,2.065 0.021,2.588 -0.577,3.748 -0.382,0.741 -1.033,1.516 -1.446,1.720 -1.057,0.523 -3.266,0.457 -4.467,-0.134 z m 17.249,-3.034 c -0.068,-0.110 -0.327,-0.979 -0.575,-1.932 l -0.451,-1.731 0.810,-0.419 c 0.445,-0.230 1.658,-0.594 2.694,-0.808 2.452,-0.506 3.443,-0.062 3.583,1.606 0.075,0.899 -0.045,1.187 -0.669,1.596 -0.950,0.622 -5.222,1.960 -5.390,1.688 z m -2.733,-8.258 c -0.740,-1.771 -0.606,-2.149 0.976,-2.761 0.783,-0.303 2.1,-0.557 2.925,-0.565 l 1.5,-0.014 0.090,1.075 c 0.105,1.262 -0.115,1.480 -2.340,2.308 -0.907,0.337 -1.886,0.707 -2.176,0.822 -0.408,0.161 -0.627,-0.033 -0.975,-0.864 z m -77.163,4.454 c 1.522,-5.458 2.250,-8.547 2.081,-8.828 -0.333,-0.554 -2.747,-1.367 -3.046,-1.026 -0.124,0.142 -0.809,2.351 -1.520,4.908 -0.711,2.557 -1.397,4.768 -1.524,4.913 -0.127,0.144 -0.374,-0.260 -0.550,-0.9 -1.999,-7.298 -3.062,-10.774 -3.385,-11.073 -0.589,-0.545 -3.030,-1.068 -3.375,-0.723 -0.453,0.453 -4.888,17.018 -4.657,17.393 0.113,0.183 0.796,0.466 1.517,0.628 1.036,0.232 1.375,0.206 1.618,-0.127 0.169,-0.231 0.902,-2.472 1.629,-4.980 0.726,-2.507 1.414,-4.451 1.529,-4.319 0.114,0.131 0.847,2.668 1.628,5.638 0.781,2.97 1.615,5.602 1.853,5.85 0.458,0.476 2.661,1.183 3.414,1.095 0.319,-0.037 1.116,-2.451 2.788,-8.448 z m -17.376,-0.384 c 0.110,-2.424 0.286,-6.790 0.392,-9.701 l 0.191,-5.292 -1.471,-0.651 c -0.809,-0.358 -1.697,-0.677 -1.974,-0.709 -0.532,-0.061 -13.667,12.278 -13.718,12.888 -0.030,0.369 2.381,1.903 2.993,1.903 0.201,0 1.013,-0.606 1.805,-1.347 l 1.440,-1.347 2.926,1.358 c 1.609,0.747 2.997,1.429 3.084,1.516 0.087,0.087 0.115,1.086 0.063,2.221 l -0.095,2.062 1.744,0.882 c 0.959,0.485 1.895,0.824 2.080,0.753 0.212,-0.081 0.408,-1.737 0.535,-4.537 z m -5.883,-6.231 c -0.783,-0.408 -1.425,-0.845 -1.425,-0.971 0,-0.289 3.093,-3.359 3.384,-3.359 0.118,0 0.215,1.147 0.215,2.55 0,2.893 -0.014,2.905 -2.175,1.780 z m 118.725,8.602 c 0.862,-0.503 0.9,-0.610 0.9,-2.604 l 0,-2.079 2.4,-1.264 c 1.32,-0.695 2.732,-1.269 3.139,-1.275 0.483,-0.007 1.220,0.463 2.129,1.358 l 1.389,1.368 1.695,-0.831 c 1.016,-0.498 1.695,-1.025 1.695,-1.315 0,-0.266 -2.257,-2.566 -5.015,-5.112 -2.758,-2.545 -5.863,-5.420 -6.900,-6.388 l -1.884,-1.759 -1.637,0.664 c -0.900,0.365 -1.770,0.824 -1.931,1.018 -0.313,0.377 0.944,18.178 1.328,18.800 0.250,0.404 1.442,0.147 2.691,-0.581 z m 0.329,-9.708 c -0.296,-1.952 -0.431,-4.425 -0.241,-4.425 0.276,0 3.662,3.383 3.662,3.660 0,0.204 -2.759,1.739 -3.126,1.739 -0.080,0 -0.212,-0.438 -0.294,-0.975 z m -126.906,-4.575 c 2.207,-4.125 3.982,-7.676 3.945,-7.892 -0.094,-0.541 -3.003,-2.176 -3.413,-1.917 -0.429,0.271 -7.904,15.213 -7.904,15.800 0,0.534 2.023,1.672 2.804,1.577 0.393,-0.048 1.721,-2.247 4.568,-7.567 z m -8.723,2.994 c 0,-1.317 -0.090,-3.342 -0.201,-4.500 l -0.201,-2.105 1.785,-0.041 c 2.020,-0.046 2.827,-0.461 4.072,-2.093 0.733,-0.961 0.844,-1.374 0.844,-3.132 0,-1.745 -0.103,-2.133 -0.748,-2.821 -0.999,-1.064 -9.029,-6.454 -9.601,-6.445 -0.440,0.007 -9.217,13.562 -9.512,14.691 -0.106,0.406 0.186,0.768 1.077,1.330 0.672,0.424 1.423,0.772 1.667,0.772 0.244,0 1.146,-1.149 2.004,-2.553 2.091,-3.421 2.125,-3.443 3.409,-2.160 l 1.053,1.053 0.029,3.555 c 0.016,1.955 0.117,3.857 0.225,4.227 0.222,0.766 2.965,2.786 3.645,2.684 0.356,-0.053 0.45,-0.563 0.45,-2.462 z M 75.726,680.267 c -1.420,-0.512 -3.869,-2.283 -3.869,-2.798 0,-0.582 1.517,-2.793 1.914,-2.789 0.624,0.005 4.041,2.351 4.545,3.121 0.472,0.720 0.468,0.821 -0.070,1.744 -0.667,1.142 -1.051,1.252 -2.519,0.722 z m 154.842,12.402 c 0.653,-0.333 1.188,-0.753 1.188,-0.933 0,-0.180 -1.569,-3.079 -3.487,-6.443 -3.913,-6.864 -3.845,-6.381 -1.127,-7.936 0.888,-0.508 1.614,-1.134 1.614,-1.391 0,-0.748 -1.204,-2.488 -1.722,-2.488 -0.639,0 -12.077,6.839 -12.077,7.221 0,0.657 1.237,2.678 1.640,2.678 0.235,0 1.234,-0.472 2.219,-1.05 0.985,-0.577 1.971,-1.047 2.191,-1.044 0.219,0.003 1.674,2.196 3.231,4.875 4.726,8.125 4.210,7.594 6.329,6.513 z m 9.095,-5.873 c 0.766,-0.520 1.102,-0.949 1.012,-1.292 -0.164,-0.630 -8.918,-14.500 -9.325,-14.775 -0.381,-0.258 -3.185,1.288 -3.190,1.760 -0.004,0.299 7.058,11.420 9.056,14.262 0.717,1.020 1.004,1.025 2.446,0.045 z m -178.053,-3.945 c 0.151,-0.288 1.399,-4.479 2.773,-9.312 l 2.497,-8.787 -1.337,-1.174 c -0.735,-0.646 -1.591,-1.180 -1.900,-1.187 -0.716,-0.016 -16.108,8.700 -16.317,9.240 -0.085,0.222 0.451,1.010 1.199,1.758 l 1.355,1.355 1.693,-1.083 c 0.931,-0.595 1.903,-1.083 2.160,-1.083 0.66,0 4.903,3.651 4.913,4.227 0.004,0.262 -0.192,1.140 -0.438,1.95 -0.245,0.809 -0.448,1.617 -0.45,1.794 -0.004,0.347 2.914,2.828 3.326,2.828 0.136,0 0.373,-0.236 0.524,-0.525 z m -3.044,-11.056 c -0.770,-0.600 -1.324,-1.214 -1.231,-1.364 0.335,-0.543 4.172,-2.950 4.264,-2.675 0.113,0.341 -1.109,4.576 -1.415,4.900 -0.119,0.126 -0.846,-0.261 -1.617,-0.861 z m 188.074,9.338 c 3.351,-0.995 6.091,-3.788 6.349,-6.472 0.075,-0.789 -0.026,-2.120 -0.227,-2.959 -0.418,-1.744 -0.863,-1.896 -3.021,-1.033 l -1.227,0.491 0.205,2.197 c 0.202,2.164 0.192,2.211 -0.705,3.108 -0.806,0.807 -1.111,0.911 -2.664,0.911 -1.364,0 -1.992,-0.162 -2.829,-0.731 -1.257,-0.854 -2.751,-3.080 -3.283,-4.893 -0.981,-3.343 1.968,-6.188 4.989,-4.811 0.742,0.338 0.876,0.277 1.964,-0.888 0.642,-0.688 1.167,-1.435 1.167,-1.659 0,-0.224 -0.623,-0.719 -1.384,-1.100 -4.509,-2.252 -11.025,2.251 -11.047,7.635 -0.006,1.403 0.197,2.229 0.922,3.75 1.673,3.507 5.781,6.888 8.379,6.897 0.506,0.003 1.592,-0.196 2.413,-0.440 z m -196.042,-14.216 2.805,-2.660 -2.652,-2.889 c -1.458,-1.589 -2.808,-2.887 -2.998,-2.884 -0.190,0.003 -0.801,0.554 -1.358,1.225 l -1.012,1.219 1.283,1.307 c 1.264,1.288 1.276,1.319 0.781,2.075 -0.626,0.956 -0.882,0.950 -2.714,-0.064 -1.956,-1.084 -2.642,-2.075 -2.806,-4.053 -0.216,-2.609 1.188,-4.713 4.160,-6.229 2.054,-1.048 3.988,-0.567 5.643,1.402 0.912,1.086 0.965,1.272 0.811,2.844 -0.163,1.668 -0.155,1.689 1.008,2.625 0.645,0.518 1.369,0.942 1.608,0.942 0.640,0 1.400,-2.176 1.400,-4.009 0,-1.341 -0.183,-1.881 -1.146,-3.371 -1.543,-2.387 -3.671,-4.212 -5.571,-4.776 -3.910,-1.161 -8.982,1.594 -11.183,6.077 -2.433,4.957 0.500,10.739 6.731,13.270 0.780,0.317 1.641,0.583 1.912,0.592 0.271,0.009 1.755,-1.180 3.298,-2.643 z m 213.965,-2.321 c 1.943,-0.662 4.442,-3.007 5.280,-4.956 0.757,-1.760 0.671,-3.377 -0.295,-5.586 -0.640,-1.463 -1.089,-1.567 -2.656,-0.615 -1.471,0.893 -1.540,1.051 -1.056,2.423 0.678,1.923 0.543,2.853 -0.575,3.973 -1.304,1.304 -2.824,1.605 -4.436,0.878 -1.502,-0.677 -4.646,-4.003 -4.907,-5.190 -0.301,-1.371 0.324,-3.193 1.411,-4.107 0.864,-0.727 1.130,-0.792 2.685,-0.651 l 1.725,0.156 0.759,-1.358 c 1.006,-1.800 0.962,-2.128 -0.356,-2.679 -2.714,-1.134 -6.081,0.169 -8.331,3.225 -2.899,3.938 -2.452,7.438 1.484,11.627 2.828,3.010 5.979,3.983 9.270,2.862 z M 39.748,650.526 c 3.622,-2.805 6.592,-5.295 6.598,-5.533 0.015,-0.616 -1.495,-2.716 -1.953,-2.716 -0.210,0 -2.114,1.355 -4.230,3.011 -2.115,1.656 -3.889,2.885 -3.940,2.731 -0.051,-0.154 0.790,-2.689 1.871,-5.633 1.080,-2.944 1.964,-5.496 1.964,-5.672 0,-0.534 -1.824,-2.837 -2.248,-2.837 -0.527,0 -13.651,10.726 -13.651,11.157 0,0.490 1.473,2.342 1.863,2.342 0.182,0 2.007,-1.363 4.053,-3.030 2.046,-1.666 3.782,-2.970 3.856,-2.895 0.074,0.074 -0.748,2.726 -1.827,5.894 l -1.963,5.759 0.969,1.349 c 0.633,0.882 1.156,1.318 1.510,1.261 0.297,-0.048 3.505,-2.382 7.128,-5.187 z m 238.804,-1.493 c 1.817,-2.718 3.302,-5.115 3.300,-5.325 -0.004,-0.425 -1.875,-1.734 -2.467,-1.726 -0.208,0.003 -1.306,1.417 -2.439,3.142 -1.133,1.725 -2.244,3.290 -2.470,3.477 -0.322,0.267 -1.589,-0.496 -5.957,-3.592 -3.051,-2.162 -5.730,-3.932 -5.954,-3.932 -0.483,0 -2.393,2.292 -2.254,2.705 0.138,0.408 14.121,10.193 14.567,10.194 0.203,2.9e-4 1.857,-2.224 3.675,-4.942 z m -168.677,-7.875 c -0.622,-0.064 -1.567,-0.063 -2.1,0.002 -0.532,0.066 -0.023,0.119 1.131,0.118 1.155,-10e-4 1.590,-0.055 0.968,-0.120 z m 14.100,-0.562 c -0.099,-0.099 -0.358,-0.110 -0.575,-0.023 -0.239,0.095 -0.168,0.166 0.181,0.181 0.316,0.013 0.493,-0.057 0.393,-0.157 z m -96.710,-1.517 c 2.516,-1.265 9.924,-5.587 10.148,-5.92 0.279,-0.415 -1.301,-3.180 -1.818,-3.180 -0.226,-1.7e-4 -2.730,1.282 -5.565,2.849 -4.462,2.468 -5.342,2.85 -6.567,2.85 -1.273,0 -1.473,-0.096 -2.008,-0.975 -0.362,-0.594 -0.594,-1.508 -0.595,-2.343 -0.002,-1.844 0.514,-2.283 6.673,-5.680 2.763,-1.523 5.025,-2.903 5.025,-3.066 0,-0.610 -1.666,-3.233 -2.053,-3.234 -0.846,-6e-4 -10.644,5.903 -12.216,7.361 l -1.629,1.511 0,1.852 c 0,2.918 0.907,4.963 3.211,7.238 l 1.938,1.913 1.958,-0.200 c 1.161,-0.119 2.585,-0.516 3.500,-0.976 z m 258.065,-0.710 c 0.798,-0.776 1.889,-2.348 2.591,-3.735 1.199,-2.369 1.208,-2.411 0.827,-3.9 -0.735,-2.870 -1.955,-3.911 -9.126,-7.781 -2.621,-1.415 -4.813,-2.572 -4.872,-2.572 -0.201,0 -1.893,2.817 -1.893,3.153 0,0.184 2.299,1.609 5.110,3.166 2.810,1.556 5.538,3.270 6.061,3.807 0.939,0.966 0.946,0.993 0.570,2.4 -0.531,1.986 -1.346,2.772 -2.878,2.772 -0.677,0 -1.497,-0.184 -1.822,-0.410 -1.445,-1.003 -10.134,-5.567 -10.347,-5.435 -0.310,0.191 -1.794,2.726 -1.794,3.065 0,0.278 8.569,5.332 10.814,6.378 1.030,0.479 1.797,0.600 3.357,0.527 1.938,-0.090 2.079,-0.149 3.401,-1.434 z m -108.001,-2.080 c 4.582,-0.683 11.161,-2.439 12.868,-3.435 0.665,-0.388 2.145,-1.201 3.289,-1.806 2.702,-1.429 7.451,-4.746 8.249,-5.760 0.343,-0.436 1.783,-2.015 3.200,-3.507 2.741,-2.888 5.761,-7.196 7.680,-10.955 0.644,-1.262 1.496,-2.834 1.893,-3.494 0.397,-0.659 1.200,-2.684 1.784,-4.5 1.983,-6.159 3.045,-12.287 4.081,-23.550 0.624,-6.785 0.640,-7.934 0.441,-30.600 -0.302,-34.401 -0.579,-51.100 -0.854,-51.525 -0.133,-0.206 -0.418,-0.375 -0.632,-0.375 -0.435,0 -1.244,6.707 -0.913,7.571 0.199,0.520 -0.336,12.998 -1.510,35.178 -0.402,7.59 -0.874,16.905 -1.050,20.7 -0.506,10.959 -1.675,23.588 -2.347,25.364 -0.153,0.404 -0.373,1.478 -0.489,2.385 -0.444,3.476 -2.017,9.768 -3.298,13.191 -1.427,3.816 -2.659,6.445 -3.166,6.759 -0.171,0.106 -0.702,0.964 -1.178,1.908 -1.913,3.789 -8.519,11.342 -11.723,13.403 -0.740,0.476 -1.848,1.305 -2.461,1.841 -5.179,4.532 -22.182,8.579 -35.554,8.463 -3.291,-0.028 -3.636,-0.088 -5.077,-0.885 -2.522,-1.394 -4.500,-1.576 -14.910,-1.368 -5.139,0.102 -16.161,0.263 -24.493,0.358 -14.565,0.165 -15.190,0.149 -16.190,-0.405 -0.572,-0.317 -1.291,-0.914 -1.599,-1.325 -0.629,-0.843 -0.519,1.736 -1.276,-29.940 -0.246,-10.312 -0.643,-25.297 -0.883,-33.3 -0.625,-20.887 -0.653,-25.491 -0.163,-26.390 0.320,-0.588 0.363,-2.036 0.207,-7.05 -0.208,-6.684 -0.944,-17.467 -1.382,-20.246 -0.144,-0.914 -0.617,-3.957 -1.052,-6.762 -1.642,-10.601 -5.118,-25.941 -6.189,-27.316 -0.135,-0.173 -0.779,-1.793 -1.430,-3.6 -0.651,-1.806 -1.464,-3.891 -1.805,-4.633 -0.341,-0.742 -0.623,-1.495 -0.627,-1.673 -0.004,-0.198 1.537,-0.465 3.968,-0.687 4.452,-0.407 6.493,-0.771 11.923,-2.127 5.051,-1.261 9.629,-2.733 13.056,-4.197 1.562,-0.667 2.949,-1.213 3.083,-1.213 0.134,0 0.776,-0.385 1.427,-0.857 0.651,-0.471 2.399,-1.500 3.884,-2.286 3.219,-1.703 5.386,-3.198 10.2,-7.035 6.946,-5.537 14.245,-13.812 16.95,-19.216 0.412,-0.824 0.851,-1.499 0.975,-1.501 0.124,-10e-4 0.191,40.328 0.15,89.622 l -0.075,89.625 -23.7,0.15 -23.7,0.15 0.073,1.2 c 0.040,0.66 0.137,1.368 0.215,1.575 0.112,0.295 5.271,0.375 24.407,0.375 l 24.265,0 0.793,-0.735 0.793,-0.735 0,-94.604 c 0,-73.181 -0.081,-94.685 -0.36,-94.964 -0.471,-0.471 -1.882,-0.462 -2.273,0.015 -0.169,0.206 -1.375,2.474 -2.682,5.041 -2.436,4.788 -3.826,7.049 -5.169,8.407 -0.420,0.425 -1.167,1.370 -1.658,2.1 -2.058,3.052 -9.119,9.986 -12.467,12.242 -1.066,0.718 -2.571,1.830 -3.345,2.471 -1.765,1.463 -7.092,4.510 -10.443,5.974 -1.402,0.612 -3.022,1.387 -3.6,1.721 -1.463,0.847 -7.875,2.864 -12,3.774 -4.684,1.033 -9.211,1.649 -14.375,1.956 -3.651,0.216 -4.387,0.341 -4.725,0.802 -0.607,0.830 -0.490,1.429 0.588,3.022 2.121,3.131 4.893,10.925 7.868,22.123 2.522,9.491 4.463,26.022 5.112,43.534 0.110,2.97 0.285,5.535 0.390,5.7 0.104,0.165 0.352,-0.78 0.551,-2.1 0.409,-2.717 0.410,-2.862 -0.21,20.1 -0.173,6.435 -0.646,25.940 -1.049,43.346 -0.831,35.901 -0.967,33.064 1.648,34.429 l 1.35,0.704 15.9,-0.139 c 13.304,-0.117 16.904,-0.243 22.05,-0.772 3.382,-0.347 6.352,-0.694 6.6,-0.770 2.293,-0.705 15.6,-1.366 15.6,-0.774 0,0.149 0.245,0.207 0.544,0.129 0.299,-0.078 1.306,0.194 2.236,0.605 1.619,0.716 5.020,1.527 7.568,1.805 2.598,0.283 12.478,-0.144 16.221,-0.702 z M 89.304,533.376 c 0,-0.412 0.068,-0.581 0.151,-0.375 0.083,0.206 0.083,0.543 0,0.75 -0.083,0.206 -0.151,0.037 -0.151,-0.375 z m -67.979,89.535 c 4.115,-1.905 7.651,-3.632 7.858,-3.836 0.515,-0.510 -0.717,-3.498 -1.443,-3.498 -0.274,0 -1.680,0.546 -3.125,1.213 -1.444,0.667 -2.771,1.165 -2.947,1.106 -0.176,-0.058 -0.825,-1.313 -1.441,-2.788 -0.845,-2.024 -1.034,-2.761 -0.769,-3.006 0.193,-0.178 1.363,-0.761 2.601,-1.296 2.943,-1.270 3.115,-1.509 2.358,-3.274 -0.328,-0.765 -0.735,-1.477 -0.905,-1.582 -0.451,-0.279 -15.984,7.083 -16.095,7.629 -0.150,0.737 1.098,2.899 1.673,2.898 0.285,-6e-4 1.801,-0.607 3.368,-1.348 1.567,-0.741 2.995,-1.347 3.174,-1.348 0.442,-0.002 2.665,5.685 2.337,5.981 -0.143,0.129 -1.544,0.811 -3.111,1.515 -3.860,1.733 -3.821,1.685 -2.869,3.562 0.501,0.989 0.972,1.539 1.317,1.539 0.295,0 3.904,-1.559 8.019,-3.464 z m 272.518,0.014 c 0.772,-1.815 1.699,-3.868 2.059,-4.563 0.794,-1.533 0.891,-4.457 0.193,-5.807 -0.253,-0.490 -1.016,-1.293 -1.695,-1.785 -1.472,-1.066 -3.629,-1.222 -5.115,-0.369 -0.793,0.456 -0.933,0.465 -1.066,0.075 -0.083,-0.247 -0.721,-1.023 -1.417,-1.725 -1.129,-1.138 -1.416,-1.275 -2.670,-1.275 -1.550,0 -2.682,0.476 -3.684,1.550 -0.642,0.688 -4.889,9.167 -4.889,9.761 0,0.408 15.610,7.590 16.315,7.505 0.413,-0.049 0.944,-0.956 1.970,-3.367 z m -5.236,-2.450 c -0.825,-0.424 -1.558,-0.826 -1.630,-0.891 -0.206,-0.187 1.842,-4.382 2.518,-5.155 0.470,-0.539 0.807,-0.658 1.482,-0.523 1.265,0.253 1.679,0.712 1.679,1.864 0,1.208 -1.736,5.512 -2.216,5.492 -0.183,-0.008 -1.008,-0.361 -1.833,-0.786 z m -6.3,-2.845 c -0.33,-0.180 -0.904,-0.516 -1.276,-0.748 l -0.676,-0.421 0.789,-1.567 c 1.283,-2.547 1.860,-3.217 2.773,-3.217 1.799,0 2.034,1.707 0.620,4.491 -0.945,1.859 -1.199,2.026 -2.230,1.463 z m -198.512,-6.854 0.087,-1.65 -7.437,0 c -6.111,0 -7.531,0.078 -7.962,0.441 -0.660,0.555 -0.673,1.648 -0.030,2.501 0.490,0.651 0.549,0.655 7.875,0.506 l 7.380,-0.15 0.087,-1.65 z M 65.932,607.577 c -0.206,-0.083 -0.543,-0.083 -0.75,0 -0.206,0.083 -0.037,0.151 0.375,0.151 0.412,0 0.581,-0.068 0.375,-0.151 z m 20.529,-36.157 c -0.095,-0.239 -0.166,-0.168 -0.181,0.181 -0.013,0.316 0.057,0.493 0.157,0.393 0.099,-0.099 0.110,-0.358 0.023,-0.575 z m 131.706,-64.818 c -0.071,-0.371 -0.130,-0.067 -0.130,0.675 0,0.742 0.058,1.046 0.130,0.675 0.071,-0.371 0.071,-0.978 0,-1.35 z m -13.111,-5.689 c 1.732,-0.657 3.352,-1.360 3.6,-1.560 0.247,-0.200 1.462,-0.738 2.7,-1.196 1.237,-0.457 3.305,-1.243 4.594,-1.746 2.714,-1.059 2.588,-1.077 8.142,1.149 1.807,0.725 3.467,1.318 3.687,1.318 0.220,0 0.765,0.268 1.213,0.595 1.052,0.771 7.195,3.081 7.573,2.847 0.159,-0.098 0.289,-1.090 0.289,-2.204 0,-1.896 -0.056,-2.067 -0.887,-2.682 -0.488,-0.361 -0.965,-0.656 -1.061,-0.656 -0.184,0 -6.286,-4.198 -7.060,-4.857 -0.252,-0.215 -0.995,-0.786 -1.65,-1.268 -0.654,-0.482 -1.255,-0.929 -1.335,-0.995 -0.079,-0.065 -0.426,-2.611 -0.769,-5.657 -0.440,-3.901 -0.529,-5.617 -0.304,-5.805 0.289,-0.239 4.209,-1.458 9.919,-3.082 1.155,-0.328 2.313,-0.785 2.573,-1.015 0.260,-0.229 0.597,-0.414 0.75,-0.410 0.791,0.019 22.927,-6.510 23.795,-7.019 0.902,-0.529 0.953,-0.623 0.45,-0.821 -0.312,-0.122 -9.314,-0.232 -20.003,-0.244 -15.273,-0.016 -19.458,-0.101 -19.545,-0.396 -0.620,-2.093 -1.233,-5.244 -1.999,-10.275 -1.195,-7.847 -1.519,-8.279 -2.218,-2.965 -1.197,9.100 -1.924,13.413 -2.301,13.652 -0.220,0.139 -9.268,0.255 -20.107,0.258 -12.224,0.003 -19.774,0.113 -19.884,0.291 -0.097,0.157 0.198,0.481 0.657,0.718 0.753,0.388 9.707,3.036 19.584,5.791 2.062,0.575 4.29,1.294 4.95,1.599 0.66,0.304 2.415,0.916 3.9,1.361 9.478,2.836 9.450,2.826 9.448,3.527 -9e-4,0.365 -0.128,1.137 -0.283,1.714 -0.155,0.577 -0.486,2.67 -0.736,4.65 -0.440,3.484 -0.485,3.624 -1.428,4.35 -0.535,0.412 -1.618,1.317 -2.406,2.011 -0.788,0.694 -1.734,1.422 -2.101,1.619 -0.367,0.196 -1.922,1.283 -3.454,2.415 l -2.786,2.057 0,2.047 c 0,2.190 0.150,2.577 0.884,2.272 0.256,-0.106 1.883,-0.731 3.615,-1.389 z" style="fill:#f50c0b" /><path id="path3455" d="m 140.707,730.475 c -9.165,-0.707 -16.292,-1.630 -23.4,-3.029 -5.574,-1.097 -11.752,-2.614 -12.75,-3.129 -0.412,-0.213 -2.842,-1.031 -5.4,-1.817 -2.557,-0.786 -5.73,-1.858 -7.05,-2.382 -1.32,-0.524 -2.94,-1.125 -3.6,-1.337 -0.66,-0.211 -1.537,-0.614 -1.95,-0.895 -0.412,-0.280 -1.965,-1.024 -3.45,-1.651 -3.591,-1.517 -9.659,-4.558 -10.792,-5.407 -0.499,-0.374 -1.650,-1.057 -2.557,-1.518 -1.964,-0.996 -7.698,-4.503 -8.55,-5.228 -0.33,-0.280 -2.355,-1.689 -4.5,-3.129 -2.145,-1.440 -4.104,-2.844 -4.353,-3.119 -0.608,-0.671 -2.824,-2.422 -4.553,-3.598 -0.774,-0.526 -2.090,-1.622 -2.926,-2.436 -0.835,-0.813 -2.497,-2.280 -3.692,-3.258 -1.195,-0.978 -2.926,-2.573 -3.845,-3.543 -0.919,-0.970 -2.337,-2.381 -3.15,-3.136 -2.274,-2.112 -8.692,-8.948 -9.976,-10.627 -0.630,-0.825 -1.782,-2.175 -2.558,-3 -0.776,-0.825 -1.773,-2.04 -2.216,-2.7 -0.443,-0.66 -1.632,-2.28 -2.643,-3.6 -1.010,-1.32 -2.732,-3.75 -3.825,-5.4 -1.093,-1.65 -2.386,-3.54 -2.874,-4.2 -1.026,-1.388 -2.519,-3.827 -5.015,-8.192 -3.140,-5.492 -4.086,-7.334 -5.883,-11.457 -0.971,-2.227 -1.974,-4.368 -2.228,-4.758 -0.775,-1.186 -3.363,-8.570 -6.640,-18.941 -1.960,-6.205 -4.047,-17.833 -5.223,-29.1 -0.628,-6.020 -0.528,-30.041 0.149,-36.150 1.117,-10.057 3.418,-22.717 4.989,-27.45 0.465,-1.402 1.415,-4.372 2.110,-6.6 1.461,-4.680 4.082,-11.828 4.669,-12.731 0.221,-0.340 1.273,-2.585 2.339,-4.990 2.127,-4.800 3.399,-7.387 3.973,-8.078 0.205,-0.247 0.852,-1.395 1.437,-2.55 1.325,-2.615 4.198,-7.259 6.894,-11.140 1.130,-1.627 2.235,-3.297 2.455,-3.709 0.220,-0.412 1.272,-1.786 2.338,-3.052 1.066,-1.266 2.425,-3.036 3.020,-3.932 0.595,-0.896 1.912,-2.489 2.928,-3.540 1.015,-1.050 2.216,-2.420 2.667,-3.043 0.983,-1.357 9.085,-9.682 13.507,-13.880 4.833,-4.587 12.248,-10.705 16.182,-13.353 1.406,-0.946 2.729,-1.928 2.941,-2.183 1.146,-1.381 13.730,-8.810 20.892,-12.335 7.514,-3.697 11.969,-5.556 18.032,-7.526 2.157,-0.701 4.235,-1.441 4.616,-1.645 1.449,-0.775 11.415,-3.202 18.010,-4.384 4.267,-0.765 11.515,-1.749 15.3,-2.077 1.237,-0.107 3.775,-0.385 5.640,-0.619 4.017,-0.502 20.137,-0.581 24.059,-0.118 1.402,0.165 4.575,0.504 7.05,0.753 7.681,0.772 14.728,1.851 20.7,3.170 4.581,1.011 11.060,2.722 11.865,3.133 0.421,0.214 3.002,1.133 5.737,2.041 2.734,0.907 6.305,2.207 7.934,2.887 4.842,2.022 17.478,8.414 20.062,10.149 1.32,0.886 2.94,1.888 3.6,2.228 1.079,0.555 5.118,3.241 7.05,4.689 0.412,0.309 2.572,1.892 4.8,3.519 2.227,1.626 4.461,3.365 4.963,3.864 0.502,0.498 1.775,1.582 2.829,2.407 3.619,2.833 17.234,16.158 19.158,18.75 0.428,0.577 1.678,2.011 2.776,3.186 1.098,1.175 2.560,2.966 3.248,3.980 0.688,1.013 2.072,2.819 3.074,4.013 1.002,1.193 2.031,2.507 2.287,2.919 0.255,0.412 1.434,2.235 2.621,4.05 1.186,1.815 2.903,4.447 3.816,5.85 0.912,1.402 2.566,4.372 3.673,6.6 1.107,2.227 2.206,4.268 2.442,4.535 0.502,0.569 3.992,8.412 5.192,11.668 0.456,1.239 1.103,2.792 1.436,3.45 1.176,2.319 4.225,12.528 5.778,19.345 0.469,2.062 1.000,4.133 1.179,4.601 0.515,1.349 1.733,8.859 2.391,14.750 1.370,12.259 1.543,25.795 0.483,37.797 -0.671,7.609 -2.114,17.163 -3.006,19.905 -0.249,0.766 -1.008,3.684 -1.686,6.484 -1.608,6.635 -3.810,13.847 -5.140,16.830 -0.583,1.308 -1.161,2.716 -1.284,3.127 -0.482,1.606 -4.686,10.999 -5.297,11.836 -0.355,0.486 -1.078,1.769 -1.605,2.85 -1.450,2.973 -4.912,9.086 -5.529,9.765 -0.300,0.33 -1.279,1.828 -2.175,3.329 -0.896,1.501 -2.969,4.538 -4.607,6.75 -1.637,2.211 -3.362,4.588 -3.832,5.282 -0.469,0.694 -1.750,2.266 -2.847,3.494 -1.096,1.227 -2.803,3.214 -3.793,4.415 -4.857,5.889 -18.479,18.685 -24.15,22.685 -1.072,0.756 -2.119,1.616 -2.325,1.910 -0.206,0.294 -2.164,1.711 -4.35,3.150 -2.185,1.438 -4.311,2.919 -4.724,3.290 -0.680,0.612 -7.105,4.519 -10.05,6.110 -0.66,0.356 -1.875,1.068 -2.7,1.581 -1.449,0.901 -9.722,4.813 -11.048,5.224 -0.358,0.111 -0.989,0.433 -1.401,0.716 -0.967,0.663 -8.717,3.525 -13.35,4.930 -1.98,0.600 -3.854,1.236 -4.166,1.412 -0.729,0.413 -6.230,1.828 -10.833,2.787 -6.583,1.371 -12.351,2.238 -20.25,3.046 -5.392,0.551 -24.393,0.827 -29.550,0.429 z m 13.800,-18.298 0,-1.65 -4.875,-0.265 -4.875,-0.265 0,-2.090 0,-2.090 4.425,0.105 4.425,0.105 0.093,-1.466 c 0.051,-0.806 -0.018,-1.578 -0.153,-1.713 -0.135,-0.135 -2.101,-0.340 -4.368,-0.453 l -4.121,-0.206 0,-1.651 0,-1.651 4.620,0.190 c 5.155,0.212 4.979,0.279 4.979,-1.903 0,-0.636 -0.147,-1.248 -0.328,-1.360 -0.530,-0.327 -12.585,-0.839 -12.876,-0.546 -0.311,0.312 -0.993,17.207 -0.723,17.911 0.199,0.520 2.984,0.700 10.328,0.668 l 3.450,-0.015 0,-1.65 z m 6.562,1.261 c 0.081,-0.131 -0.044,-1.785 -0.279,-3.675 -0.234,-1.889 -0.428,-3.485 -0.429,-3.545 -0.008,-0.321 2.952,0.400 3.634,0.885 0.439,0.312 1.706,1.787 2.815,3.277 l 2.016,2.708 1.540,-0.195 c 1.723,-0.219 2.590,-0.575 2.590,-1.064 0,-0.563 -2.990,-4.391 -4.398,-5.631 l -1.343,-1.182 0.846,-0.441 c 3.099,-1.618 3.704,-5.815 1.188,-8.254 -1.173,-1.137 -2.539,-1.529 -5.292,-1.519 -2.558,0.009 -8.041,0.700 -8.399,1.058 -0.390,0.390 1.305,16.775 1.797,17.368 0.400,0.482 3.439,0.656 3.713,0.213 z m -0.839,-11.536 c -0.076,-0.371 -0.219,-1.177 -0.317,-1.791 -0.206,-1.287 -0.225,-1.278 3.353,-1.583 1.936,-0.164 2.223,-0.118 2.794,0.452 0.497,0.497 0.592,0.843 0.434,1.591 -0.110,0.525 -0.288,1.038 -0.394,1.139 -0.359,0.342 -3.000,0.865 -4.370,0.865 -1.170,0 -1.380,-0.094 -1.499,-0.675 z m -21.609,11.153 c 0.329,-0.532 -4.398,-18.576 -4.941,-18.861 -0.259,-0.136 -1.158,-0.340 -1.998,-0.453 l -1.526,-0.206 -4.473,8.020 c -2.460,4.411 -4.514,8.192 -4.566,8.401 -0.131,0.535 0.769,0.946 2.339,1.067 1.335,0.102 1.346,0.095 2.247,-1.457 0.498,-0.858 1.056,-1.624 1.241,-1.700 0.357,-0.148 6.087,0.585 6.309,0.807 0.072,0.072 0.372,0.991 0.667,2.042 l 0.536,1.911 1.625,0.346 c 2.138,0.455 2.304,0.460 2.538,0.082 z m -8.025,-8.655 c -0.776,-0.108 -1.498,-0.283 -1.604,-0.388 -0.201,-0.201 1.987,-4.428 2.295,-4.431 0.163,-0.003 1.171,4.132 1.171,4.806 0,0.160 -0.101,0.273 -0.225,0.251 -0.123,-0.022 -0.860,-0.128 -1.637,-0.237 z m 54.217,5.837 c 3.469,-1.697 5.172,-4.890 4.854,-9.099 -0.092,-1.220 -0.107,-2.158 -0.034,-2.085 0.073,0.073 0.858,2.212 1.745,4.754 1.140,3.268 1.761,4.650 2.121,4.722 0.279,0.056 2.615,-0.676 5.190,-1.627 5.004,-1.848 6.453,-2.786 7.404,-4.790 0.464,-0.978 0.464,-1.172 0.007,-2.767 -0.562,-1.956 -1.889,-3.539 -3.210,-3.830 -0.687,-0.150 -0.823,-0.299 -0.632,-0.688 0.133,-0.273 0.244,-1.350 0.246,-2.393 0.002,-1.852 -0.027,-1.925 -1.299,-3.110 -1.300,-1.213 -1.302,-1.213 -3.15,-1.019 -2.556,0.269 -10.428,2.605 -10.640,3.157 -0.093,0.242 0.251,1.662 0.765,3.154 1.273,3.697 1.444,4.492 0.648,3.014 -1.964,-3.645 -4.517,-5.338 -8.052,-5.338 -2.464,0 -4.456,0.818 -6.269,2.577 -2.019,1.959 -2.450,3.038 -2.450,6.145 0,4.925 2.011,8.559 5.471,9.884 1.617,0.619 5.364,0.280 7.283,-0.658 z m -6.123,-3.375 c -1.326,-0.653 -2.132,-2.470 -2.344,-5.284 -0.295,-3.937 1.199,-5.765 4.497,-5.496 3.111,0.253 4.146,1.552 4.338,5.446 0.101,2.065 0.021,2.588 -0.577,3.748 -0.382,0.741 -1.033,1.516 -1.446,1.720 -1.057,0.523 -3.266,0.457 -4.467,-0.134 z m 17.249,-3.034 c -0.068,-0.110 -0.327,-0.979 -0.575,-1.932 l -0.451,-1.731 0.810,-0.419 c 0.445,-0.230 1.658,-0.594 2.694,-0.808 2.452,-0.506 3.443,-0.062 3.583,1.606 0.075,0.899 -0.045,1.187 -0.669,1.596 -0.950,0.622 -5.222,1.960 -5.390,1.688 z m -2.733,-8.258 c -0.740,-1.771 -0.606,-2.149 0.976,-2.761 0.783,-0.303 2.1,-0.557 2.925,-0.565 l 1.5,-0.014 0.090,1.075 c 0.105,1.262 -0.115,1.480 -2.340,2.308 -0.907,0.337 -1.886,0.707 -2.176,0.822 -0.408,0.161 -0.627,-0.033 -0.975,-0.864 z m -77.163,4.454 c 1.522,-5.458 2.250,-8.547 2.081,-8.828 -0.333,-0.554 -2.747,-1.367 -3.046,-1.026 -0.124,0.142 -0.809,2.351 -1.520,4.908 -0.711,2.557 -1.397,4.768 -1.524,4.913 -0.127,0.144 -0.374,-0.260 -0.550,-0.9 -1.999,-7.298 -3.062,-10.774 -3.385,-11.073 -0.589,-0.545 -3.030,-1.068 -3.375,-0.723 -0.453,0.453 -4.888,17.018 -4.657,17.393 0.113,0.183 0.796,0.466 1.517,0.628 1.036,0.232 1.375,0.206 1.618,-0.127 0.169,-0.231 0.902,-2.472 1.629,-4.980 0.726,-2.507 1.414,-4.451 1.529,-4.319 0.114,0.131 0.847,2.668 1.628,5.638 0.781,2.97 1.615,5.602 1.853,5.85 0.458,0.476 2.661,1.183 3.414,1.095 0.319,-0.037 1.116,-2.451 2.788,-8.448 z m -17.376,-0.384 c 0.110,-2.424 0.286,-6.790 0.392,-9.701 l 0.191,-5.292 -1.471,-0.651 c -0.809,-0.358 -1.697,-0.677 -1.974,-0.709 -0.532,-0.061 -13.667,12.278 -13.718,12.888 -0.030,0.369 2.381,1.903 2.993,1.903 0.201,0 1.013,-0.606 1.805,-1.347 l 1.440,-1.347 2.926,1.358 c 1.609,0.747 2.997,1.429 3.084,1.516 0.087,0.087 0.115,1.086 0.063,2.221 l -0.095,2.062 1.744,0.882 c 0.959,0.485 1.895,0.824 2.080,0.753 0.212,-0.081 0.408,-1.737 0.535,-4.537 z m -5.883,-6.231 c -0.783,-0.408 -1.425,-0.845 -1.425,-0.971 0,-0.289 3.093,-3.359 3.384,-3.359 0.118,0 0.215,1.147 0.215,2.55 0,2.893 -0.014,2.905 -2.175,1.780 z m 118.725,8.602 c 0.862,-0.503 0.9,-0.610 0.9,-2.604 l 0,-2.079 2.4,-1.264 c 1.32,-0.695 2.732,-1.269 3.139,-1.275 0.483,-0.007 1.220,0.463 2.129,1.358 l 1.389,1.368 1.695,-0.831 c 1.016,-0.498 1.695,-1.025 1.695,-1.315 0,-0.266 -2.257,-2.566 -5.015,-5.112 -2.758,-2.545 -5.863,-5.420 -6.900,-6.388 l -1.884,-1.759 -1.637,0.664 c -0.900,0.365 -1.770,0.824 -1.931,1.018 -0.313,0.377 0.944,18.178 1.328,18.800 0.250,0.404 1.442,0.147 2.691,-0.581 z m 0.329,-9.708 c -0.296,-1.952 -0.431,-4.425 -0.241,-4.425 0.276,0 3.662,3.383 3.662,3.660 0,0.204 -2.759,1.739 -3.126,1.739 -0.080,0 -0.212,-0.438 -0.294,-0.975 z m -126.906,-4.575 c 2.207,-4.125 3.982,-7.676 3.945,-7.892 -0.094,-0.541 -3.003,-2.176 -3.413,-1.917 -0.429,0.271 -7.904,15.213 -7.904,15.800 0,0.534 2.023,1.672 2.804,1.577 0.393,-0.048 1.721,-2.247 4.568,-7.567 z m -8.723,2.994 c 0,-1.317 -0.090,-3.342 -0.201,-4.500 l -0.201,-2.105 1.785,-0.041 c 2.020,-0.046 2.827,-0.461 4.072,-2.093 0.733,-0.961 0.844,-1.374 0.844,-3.132 0,-1.745 -0.103,-2.133 -0.748,-2.821 -0.999,-1.064 -9.029,-6.454 -9.601,-6.445 -0.440,0.007 -9.217,13.562 -9.512,14.691 -0.106,0.406 0.186,0.768 1.077,1.330 0.672,0.424 1.423,0.772 1.667,0.772 0.244,0 1.146,-1.149 2.004,-2.553 2.091,-3.421 2.125,-3.443 3.409,-2.160 l 1.053,1.053 0.029,3.555 c 0.016,1.955 0.117,3.857 0.225,4.227 0.222,0.766 2.965,2.786 3.645,2.684 0.356,-0.053 0.45,-0.563 0.45,-2.462 z M 75.726,680.267 c -1.420,-0.512 -3.869,-2.283 -3.869,-2.798 0,-0.582 1.517,-2.793 1.914,-2.789 0.624,0.005 4.041,2.351 4.545,3.121 0.472,0.720 0.468,0.821 -0.070,1.744 -0.667,1.142 -1.051,1.252 -2.519,0.722 z m 154.842,12.402 c 0.653,-0.333 1.188,-0.753 1.188,-0.933 0,-0.180 -1.569,-3.079 -3.487,-6.443 -3.913,-6.864 -3.845,-6.381 -1.127,-7.936 0.888,-0.508 1.614,-1.134 1.614,-1.391 0,-0.748 -1.204,-2.488 -1.722,-2.488 -0.639,0 -12.077,6.839 -12.077,7.221 0,0.657 1.237,2.678 1.640,2.678 0.235,0 1.234,-0.472 2.219,-1.05 0.985,-0.577 1.971,-1.047 2.191,-1.044 0.219,0.003 1.674,2.196 3.231,4.875 4.726,8.125 4.210,7.594 6.329,6.513 z m 9.095,-5.873 c 0.766,-0.520 1.102,-0.949 1.012,-1.292 -0.164,-0.630 -8.918,-14.500 -9.325,-14.775 -0.381,-0.258 -3.185,1.288 -3.190,1.760 -0.004,0.299 7.058,11.420 9.056,14.262 0.717,1.020 1.004,1.025 2.446,0.045 z m -178.053,-3.945 c 0.151,-0.288 1.399,-4.479 2.773,-9.312 l 2.497,-8.787 -1.337,-1.174 c -0.735,-0.646 -1.591,-1.180 -1.900,-1.187 -0.716,-0.016 -16.108,8.700 -16.317,9.240 -0.085,0.222 0.451,1.010 1.199,1.758 l 1.355,1.355 1.693,-1.083 c 0.931,-0.595 1.903,-1.083 2.160,-1.083 0.66,0 4.903,3.651 4.913,4.227 0.004,0.262 -0.192,1.140 -0.438,1.95 -0.245,0.809 -0.448,1.617 -0.45,1.794 -0.004,0.347 2.914,2.828 3.326,2.828 0.136,0 0.373,-0.236 0.524,-0.525 z m -3.044,-11.056 c -0.770,-0.600 -1.324,-1.214 -1.231,-1.364 0.335,-0.543 4.172,-2.950 4.264,-2.675 0.113,0.341 -1.109,4.576 -1.415,4.900 -0.119,0.126 -0.846,-0.261 -1.617,-0.861 z m 188.074,9.338 c 3.351,-0.995 6.091,-3.788 6.349,-6.472 0.075,-0.789 -0.026,-2.120 -0.227,-2.959 -0.418,-1.744 -0.863,-1.896 -3.021,-1.033 l -1.227,0.491 0.205,2.197 c 0.202,2.164 0.192,2.211 -0.705,3.108 -0.806,0.807 -1.111,0.911 -2.664,0.911 -1.364,0 -1.992,-0.162 -2.829,-0.731 -1.257,-0.854 -2.751,-3.080 -3.283,-4.893 -0.981,-3.343 1.968,-6.188 4.989,-4.811 0.742,0.338 0.876,0.277 1.964,-0.888 0.642,-0.688 1.167,-1.435 1.167,-1.659 0,-0.224 -0.623,-0.719 -1.384,-1.100 -4.509,-2.252 -11.025,2.251 -11.047,7.635 -0.006,1.403 0.197,2.229 0.922,3.75 1.673,3.507 5.781,6.888 8.379,6.897 0.506,0.003 1.592,-0.196 2.413,-0.440 z m -196.042,-14.216 2.805,-2.660 -2.652,-2.889 c -1.458,-1.589 -2.808,-2.887 -2.998,-2.884 -0.190,0.003 -0.801,0.554 -1.358,1.225 l -1.012,1.219 1.283,1.307 c 1.264,1.288 1.276,1.319 0.781,2.075 -0.626,0.956 -0.882,0.950 -2.714,-0.064 -1.956,-1.084 -2.642,-2.075 -2.806,-4.053 -0.216,-2.609 1.188,-4.713 4.160,-6.229 2.054,-1.048 3.988,-0.567 5.643,1.402 0.912,1.086 0.965,1.272 0.811,2.844 -0.163,1.668 -0.155,1.689 1.008,2.625 0.645,0.518 1.369,0.942 1.608,0.942 0.640,0 1.400,-2.176 1.400,-4.009 0,-1.341 -0.183,-1.881 -1.146,-3.371 -1.543,-2.387 -3.671,-4.212 -5.571,-4.776 -3.910,-1.161 -8.982,1.594 -11.183,6.077 -2.433,4.957 0.500,10.739 6.731,13.270 0.780,0.317 1.641,0.583 1.912,0.592 0.271,0.009 1.755,-1.180 3.298,-2.643 z m 213.965,-2.321 c 1.943,-0.662 4.442,-3.007 5.280,-4.956 0.757,-1.760 0.671,-3.377 -0.295,-5.586 -0.640,-1.463 -1.089,-1.567 -2.656,-0.615 -1.471,0.893 -1.540,1.051 -1.056,2.423 0.678,1.923 0.543,2.853 -0.575,3.973 -1.304,1.304 -2.824,1.605 -4.436,0.878 -1.502,-0.677 -4.646,-4.003 -4.907,-5.190 -0.301,-1.371 0.324,-3.193 1.411,-4.107 0.864,-0.727 1.130,-0.792 2.685,-0.651 l 1.725,0.156 0.759,-1.358 c 1.006,-1.800 0.962,-2.128 -0.356,-2.679 -2.714,-1.134 -6.081,0.169 -8.331,3.225 -2.899,3.938 -2.452,7.438 1.484,11.627 2.828,3.010 5.979,3.983 9.270,2.862 z M 39.748,650.526 c 3.622,-2.805 6.592,-5.295 6.598,-5.533 0.015,-0.616 -1.495,-2.716 -1.953,-2.716 -0.210,0 -2.114,1.355 -4.230,3.011 -2.115,1.656 -3.889,2.885 -3.940,2.731 -0.051,-0.154 0.790,-2.689 1.871,-5.633 1.080,-2.944 1.964,-5.496 1.964,-5.672 0,-0.534 -1.824,-2.837 -2.248,-2.837 -0.527,0 -13.651,10.726 -13.651,11.157 0,0.490 1.473,2.342 1.863,2.342 0.182,0 2.007,-1.363 4.053,-3.030 2.046,-1.666 3.782,-2.970 3.856,-2.895 0.074,0.074 -0.748,2.726 -1.827,5.894 l -1.963,5.759 0.969,1.349 c 0.633,0.882 1.156,1.318 1.510,1.261 0.297,-0.048 3.505,-2.382 7.128,-5.187 z m 238.804,-1.493 c 1.817,-2.718 3.302,-5.115 3.300,-5.325 -0.004,-0.425 -1.875,-1.734 -2.467,-1.726 -0.208,0.003 -1.306,1.417 -2.439,3.142 -1.133,1.725 -2.244,3.290 -2.470,3.477 -0.322,0.267 -1.589,-0.496 -5.957,-3.592 -3.051,-2.162 -5.730,-3.932 -5.954,-3.932 -0.483,0 -2.393,2.292 -2.254,2.705 0.138,0.408 14.121,10.193 14.567,10.194 0.203,2.9e-4 1.857,-2.224 3.675,-4.942 z m -169.345,-7.817 c 12.103,-0.252 23.769,-1.120 25.264,-1.878 0.294,-0.149 1.412,-0.445 2.485,-0.659 2.697,-0.536 8.595,-2.173 11.948,-3.316 l 2.798,-0.954 1.851,0.779 c 3.580,1.507 5.753,1.807 12.951,1.784 5.082,-0.016 7.531,-0.163 10.65,-0.641 4.773,-0.731 11.329,-2.479 13.040,-3.477 0.665,-0.388 2.145,-1.201 3.289,-1.806 2.702,-1.429 7.451,-4.746 8.249,-5.760 0.343,-0.436 1.783,-2.015 3.200,-3.507 2.741,-2.888 5.761,-7.196 7.680,-10.955 0.644,-1.262 1.496,-2.834 1.893,-3.494 0.397,-0.659 1.200,-2.684 1.784,-4.5 1.983,-6.159 3.045,-12.287 4.081,-23.550 0.624,-6.785 0.640,-7.934 0.441,-30.600 -0.302,-34.401 -0.579,-51.100 -0.854,-51.525 -0.133,-0.206 -0.418,-0.375 -0.633,-0.375 -0.431,0 -0.504,0.548 -1.229,9.3 -1.238,14.946 -3.727,38.055 -4.364,40.528 -0.152,0.592 -0.616,3.765 -1.031,7.05 -1.148,9.097 -2.950,20.821 -4.053,26.371 -0.163,0.825 -0.504,2.58 -0.755,3.9 -0.251,1.32 -0.722,3.21 -1.045,4.2 -0.323,0.99 -1.120,3.764 -1.771,6.166 -1.609,5.938 -3.653,10.727 -5.755,13.483 -0.440,0.577 -1.168,1.725 -1.617,2.55 -1.590,2.920 -6.030,7.961 -9.149,10.388 -1.212,0.943 -4.955,3.261 -5.267,3.261 -0.068,0 -0.767,0.389 -1.553,0.864 -1.520,0.919 -5.596,2.277 -12.679,4.222 -6.676,1.833 -11.416,3.215 -12.859,3.749 -2.581,0.955 -3.733,0.937 -5.543,-0.084 -2.604,-1.469 -4.468,-1.648 -15.002,-1.438 -5.139,0.102 -16.161,0.263 -24.493,0.358 -14.565,0.165 -15.190,0.149 -16.190,-0.405 -0.572,-0.317 -1.291,-0.914 -1.599,-1.325 -0.629,-0.843 -0.519,1.736 -1.276,-29.940 -0.246,-10.312 -0.643,-25.297 -0.883,-33.3 -0.625,-20.887 -0.653,-25.491 -0.163,-26.390 0.320,-0.588 0.363,-2.036 0.207,-7.05 -0.208,-6.684 -0.944,-17.467 -1.382,-20.246 -0.144,-0.914 -0.617,-3.957 -1.052,-6.762 -1.642,-10.601 -5.118,-25.941 -6.189,-27.316 -0.135,-0.173 -0.779,-1.793 -1.430,-3.6 -0.651,-1.806 -1.464,-3.891 -1.805,-4.633 -0.341,-0.742 -0.623,-1.495 -0.627,-1.673 -0.004,-0.198 1.537,-0.465 3.968,-0.687 4.452,-0.407 6.493,-0.771 11.923,-2.127 5.051,-1.261 9.629,-2.733 13.056,-4.197 1.562,-0.667 2.949,-1.213 3.083,-1.213 0.134,0 0.776,-0.385 1.427,-0.857 0.651,-0.471 2.399,-1.500 3.884,-2.286 3.219,-1.703 5.386,-3.198 10.2,-7.035 6.946,-5.537 14.245,-13.812 16.95,-19.216 0.412,-0.824 0.851,-1.499 0.975,-1.501 0.124,-0.001 0.191,40.328 0.15,89.622 l -0.075,89.625 -23.7,0.15 -23.7,0.15 0.073,1.2 c 0.040,0.66 0.137,1.368 0.215,1.575 0.112,0.295 5.271,0.375 24.407,0.375 l 24.265,0 0.793,-0.735 0.793,-0.735 0,-94.604 c 0,-73.181 -0.081,-94.685 -0.36,-94.964 -0.471,-0.471 -1.882,-0.462 -2.273,0.015 -0.169,0.206 -1.375,2.474 -2.682,5.041 -2.436,4.788 -3.826,7.049 -5.169,8.407 -0.420,0.425 -1.167,1.370 -1.658,2.1 -2.058,3.052 -9.119,9.986 -12.467,12.242 -1.066,0.718 -2.571,1.830 -3.345,2.471 -1.765,1.463 -7.092,4.510 -10.443,5.974 -1.402,0.612 -3.022,1.387 -3.6,1.721 -1.463,0.847 -7.875,2.864 -12,3.774 -4.684,1.033 -9.211,1.649 -14.375,1.956 -3.651,0.216 -4.387,0.341 -4.725,0.802 -0.607,0.830 -0.490,1.429 0.588,3.022 2.121,3.131 4.893,10.925 7.868,22.123 1.961,7.383 3.650,19.470 4.466,31.984 0.898,13.759 1.083,19.319 0.775,23.310 -0.301,3.911 -0.732,10.350 -1.803,26.939 -0.330,5.115 -0.869,13.284 -1.197,18.153 -0.328,4.869 -0.721,10.719 -0.873,13.000 -0.151,2.281 -0.365,4.236 -0.475,4.346 -0.109,0.109 -3.461,0.199 -7.449,0.199 -7.188,0 -7.258,-0.006 -8.210,-0.720 -1.806,-1.355 -4.748,-0.881 -6.014,0.970 -0.839,1.228 -0.854,2.126 -0.053,3.146 1.639,2.083 3.831,2.433 6.007,0.959 l 1.320,-0.894 7.125,-0.005 7.125,-0.005 9e-4,0.975 c 0.002,1.955 -0.633,10.675 -1.055,14.475 -0.237,2.145 -0.519,5.327 -0.626,7.071 l -0.194,3.171 1.009,1.150 c 0.555,0.632 1.550,1.398 2.212,1.702 1.296,0.595 0.436,0.591 24.302,0.093 z m -81.941,-2.138 c 2.516,-1.265 9.924,-5.587 10.148,-5.92 0.279,-0.415 -1.301,-3.180 -1.818,-3.180 -0.226,-1.7e-4 -2.730,1.282 -5.565,2.849 -4.462,2.468 -5.342,2.85 -6.567,2.85 -1.273,0 -1.473,-0.096 -2.008,-0.975 -0.362,-0.594 -0.594,-1.508 -0.595,-2.343 -0.002,-1.844 0.514,-2.283 6.673,-5.680 2.763,-1.523 5.025,-2.903 5.025,-3.066 0,-0.610 -1.666,-3.233 -2.053,-3.234 -0.846,-6e-4 -10.644,5.903 -12.216,7.361 l -1.629,1.511 0,1.852 c 0,2.918 0.907,4.963 3.211,7.238 l 1.938,1.913 1.958,-0.200 c 1.161,-0.119 2.585,-0.516 3.500,-0.976 z m 258.065,-0.710 c 0.798,-0.776 1.889,-2.348 2.591,-3.735 1.199,-2.369 1.208,-2.411 0.827,-3.9 -0.735,-2.870 -1.955,-3.911 -9.126,-7.781 -2.621,-1.415 -4.813,-2.572 -4.872,-2.572 -0.201,0 -1.893,2.817 -1.893,3.153 0,0.184 2.299,1.609 5.110,3.166 2.810,1.556 5.538,3.270 6.061,3.807 0.939,0.966 0.946,0.993 0.570,2.4 -0.531,1.986 -1.346,2.772 -2.878,2.772 -0.677,0 -1.497,-0.184 -1.822,-0.410 -1.445,-1.003 -10.134,-5.567 -10.347,-5.435 -0.310,0.191 -1.794,2.726 -1.794,3.065 0,0.278 8.569,5.332 10.814,6.378 1.030,0.479 1.797,0.600 3.357,0.527 1.938,-0.090 2.079,-0.149 3.401,-1.434 z M 21.324,622.911 c 4.115,-1.905 7.651,-3.632 7.858,-3.836 0.515,-0.510 -0.717,-3.498 -1.443,-3.498 -0.274,0 -1.680,0.546 -3.125,1.213 -1.444,0.667 -2.771,1.165 -2.947,1.106 -0.176,-0.058 -0.825,-1.313 -1.441,-2.788 -0.845,-2.024 -1.034,-2.761 -0.769,-3.006 0.193,-0.178 1.363,-0.761 2.601,-1.296 2.943,-1.270 3.115,-1.509 2.358,-3.274 -0.328,-0.765 -0.735,-1.477 -0.905,-1.582 -0.451,-0.279 -15.984,7.083 -16.095,7.629 -0.150,0.737 1.098,2.899 1.673,2.898 0.285,-6e-4 1.801,-0.607 3.368,-1.348 1.567,-0.741 2.995,-1.347 3.174,-1.348 0.442,-0.002 2.665,5.685 2.337,5.981 -0.143,0.129 -1.544,0.811 -3.111,1.515 -3.860,1.733 -3.821,1.685 -2.869,3.562 0.501,0.989 0.972,1.539 1.317,1.539 0.295,0 3.904,-1.559 8.019,-3.464 z m 272.518,0.014 c 0.772,-1.815 1.699,-3.868 2.059,-4.563 0.794,-1.533 0.891,-4.457 0.193,-5.807 -0.253,-0.490 -1.016,-1.293 -1.695,-1.785 -1.472,-1.066 -3.629,-1.222 -5.115,-0.369 -0.793,0.456 -0.933,0.465 -1.066,0.075 -0.083,-0.247 -0.721,-1.023 -1.417,-1.725 -1.129,-1.138 -1.416,-1.275 -2.670,-1.275 -1.550,0 -2.682,0.476 -3.684,1.550 -0.642,0.688 -4.889,9.167 -4.889,9.761 0,0.408 15.610,7.590 16.315,7.505 0.413,-0.049 0.944,-0.956 1.970,-3.367 z m -5.236,-2.450 c -0.825,-0.424 -1.558,-0.826 -1.630,-0.891 -0.206,-0.187 1.842,-4.382 2.518,-5.155 0.470,-0.539 0.807,-0.658 1.482,-0.523 1.265,0.253 1.679,0.712 1.679,1.864 0,1.208 -1.736,5.512 -2.216,5.492 -0.183,-0.008 -1.008,-0.361 -1.833,-0.786 z m -6.3,-2.845 c -0.33,-0.180 -0.904,-0.516 -1.276,-0.748 l -0.676,-0.421 0.789,-1.567 c 1.283,-2.547 1.860,-3.217 2.773,-3.217 1.799,0 2.034,1.707 0.620,4.491 -0.945,1.859 -1.199,2.026 -2.230,1.463 z m -77.25,-116.718 c 1.732,-0.657 3.352,-1.360 3.6,-1.560 0.247,-0.200 1.462,-0.738 2.7,-1.196 1.237,-0.457 3.305,-1.243 4.594,-1.746 2.714,-1.059 2.588,-1.077 8.142,1.149 1.807,0.725 3.467,1.318 3.687,1.318 0.220,0 0.765,0.268 1.213,0.595 1.052,0.771 7.195,3.081 7.573,2.847 0.159,-0.098 0.289,-1.090 0.289,-2.204 0,-1.896 -0.056,-2.067 -0.887,-2.682 -0.488,-0.361 -0.965,-0.656 -1.061,-0.656 -0.184,0 -6.286,-4.198 -7.060,-4.857 -0.252,-0.215 -0.995,-0.786 -1.65,-1.268 -0.654,-0.482 -1.255,-0.929 -1.335,-0.995 -0.079,-0.065 -0.426,-2.611 -0.769,-5.657 -0.440,-3.901 -0.529,-5.617 -0.304,-5.805 0.289,-0.239 4.209,-1.458 9.919,-3.082 1.155,-0.328 2.313,-0.785 2.573,-1.015 0.260,-0.229 0.597,-0.414 0.75,-0.410 0.791,0.019 22.927,-6.510 23.795,-7.019 0.902,-0.529 0.953,-0.623 0.45,-0.821 -0.312,-0.122 -9.314,-0.232 -20.003,-0.244 -15.273,-0.016 -19.458,-0.101 -19.545,-0.396 -0.620,-2.093 -1.233,-5.244 -1.999,-10.275 -1.195,-7.847 -1.519,-8.279 -2.218,-2.965 -1.197,9.100 -1.924,13.413 -2.301,13.652 -0.220,0.139 -9.268,0.255 -20.107,0.258 -12.224,0.003 -19.774,0.113 -19.884,0.291 -0.097,0.157 0.198,0.481 0.657,0.718 0.753,0.388 9.707,3.036 19.584,5.791 2.062,0.575 4.29,1.294 4.95,1.599 0.66,0.304 2.415,0.916 3.9,1.361 9.478,2.836 9.450,2.826 9.448,3.527 -9e-4,0.365 -0.128,1.137 -0.283,1.714 -0.155,0.577 -0.486,2.67 -0.736,4.65 -0.440,3.484 -0.485,3.624 -1.428,4.35 -0.535,0.412 -1.618,1.317 -2.406,2.011 -0.788,0.694 -1.734,1.422 -2.101,1.619 -0.367,0.196 -1.922,1.283 -3.454,2.415 l -2.786,2.057 0,2.047 c 0,2.190 0.150,2.577 0.884,2.272 0.256,-0.106 1.883,-0.731 3.615,-1.389 z" style="fill:#079807" /><path style="opacity:1;fill:url(#radialGradient4325);fill-opacity:1;fill-rule:evenodd;stroke:#000000;stroke-width:1px;stroke-linecap:butt;stroke-linejoin:miter;stroke-opacity:1" d="m 199.620,506.342 18.918,-10.437 24.789,11.09 24.789,-45.664 -50.231,-20.875 -48.926,24.789 z" id="path4279" /><path style="fill:#ffcc00;fill-opacity:0.75;fill-rule:evenodd;stroke:#000000;stroke-width:1px;stroke-linecap:butt;stroke-linejoin:miter;stroke-opacity:1" d="m 0.652,611.371 25.441,-10.437 70.454,73.715 112.204,-2.609 71.106,-73.063 24.137,12.394 -28.051,52.840 -51.535,39.793 -61.321,18.918 -67.844,-11.09 -54.797,-37.184 z" id="path4345" /><path id="path3451" d="m 140.407,722.954 c -9.100,-0.727 -13.648,-1.341 -22.2,-2.996 -4.749,-0.919 -5.260,-1.055 -13.8,-3.692 -7.547,-2.330 -11.242,-3.641 -14.1,-5.002 -0.66,-0.314 -3.63,-1.695 -6.6,-3.069 -2.97,-1.374 -7.425,-3.702 -9.9,-5.174 -2.475,-1.471 -4.987,-2.920 -5.583,-3.220 -0.596,-0.299 -1.608,-0.989 -2.25,-1.534 -0.641,-0.544 -2.718,-2.010 -4.616,-3.258 -1.897,-1.247 -4.192,-2.891 -5.1,-3.654 -0.907,-0.762 -2.932,-2.419 -4.5,-3.682 -5.710,-4.600 -15.422,-13.922 -19.775,-18.979 -1.200,-1.394 -2.521,-2.879 -2.935,-3.3 -1.038,-1.054 -3.989,-4.814 -3.989,-5.083 0,-0.121 -0.952,-1.358 -2.117,-2.750 -1.164,-1.391 -2.298,-2.867 -2.519,-3.279 -0.221,-0.412 -1.327,-2.080 -2.457,-3.706 -2.408,-3.462 -6.676,-10.397 -6.693,-10.874 -0.007,-0.181 -0.607,-1.236 -1.334,-2.344 -0.727,-1.107 -2.362,-4.401 -3.634,-7.319 -2.586,-5.936 -2.650,-6.077 -3.439,-7.585 -0.719,-1.373 -3.605,-9.989 -4.663,-13.919 -0.444,-1.65 -0.950,-3.27 -1.126,-3.6 -0.175,-0.33 -0.418,-1.072 -0.540,-1.65 -0.121,-0.577 -0.636,-3.004 -1.143,-5.393 -4.355,-20.517 -4.637,-45.894 -0.748,-67.206 0.815,-4.469 1.934,-9.416 2.375,-10.5 0.234,-0.577 0.905,-2.737 1.491,-4.8 1.575,-5.551 3.691,-11.646 4.633,-13.35 0.456,-0.825 0.998,-2.017 1.205,-2.649 0.565,-1.731 4.727,-10.706 5.222,-11.263 0.237,-0.267 1.602,-2.639 3.033,-5.271 1.430,-2.632 2.985,-5.222 3.454,-5.757 0.469,-0.534 1.336,-1.796 1.927,-2.805 0.590,-1.008 1.814,-2.805 2.719,-3.992 0.904,-1.187 1.949,-2.564 2.322,-3.059 2.785,-3.698 5.688,-7.200 8.951,-10.8 3.879,-4.278 15.062,-15.296 16.074,-15.837 0.306,-0.163 1.502,-1.199 2.657,-2.301 1.155,-1.102 2.91,-2.562 3.9,-3.244 0.99,-0.682 2.745,-1.979 3.9,-2.883 2.329,-1.822 8.310,-5.888 9.776,-6.646 0.518,-0.267 1.830,-1.095 2.917,-1.839 1.947,-1.333 9.221,-5.154 11.655,-6.122 0.687,-0.273 1.667,-0.794 2.177,-1.158 2.489,-1.772 18.234,-7.488 25.557,-9.277 14.041,-3.431 26.256,-4.833 42.130,-4.836 11.074,-0.002 17.235,0.415 26.905,1.824 5.366,0.782 11.894,2.058 15.829,3.093 4.928,1.297 6.444,1.735 6.955,2.009 0.311,0.166 2.310,0.900 4.441,1.630 6.442,2.206 9.133,3.350 16.652,7.078 7.456,3.697 9.620,4.906 14.7,8.215 1.65,1.074 3.472,2.208 4.05,2.519 0.577,0.310 1.657,1.094 2.4,1.742 0.742,0.647 2.295,1.826 3.45,2.620 3.086,2.122 4.032,2.894 10.451,8.538 7.921,6.964 17.736,17.535 23.748,25.577 0.329,0.441 1.240,1.610 2.022,2.599 0.782,0.988 2.111,2.922 2.952,4.297 0.841,1.375 2.038,3.175 2.660,4.000 0.621,0.825 2.314,3.727 3.760,6.45 1.446,2.722 2.803,5.152 3.016,5.4 0.511,0.595 3.945,8.291 5.555,12.45 0.702,1.815 1.375,3.435 1.494,3.6 0.733,1.012 3.875,11.524 5.246,17.55 0.431,1.897 1.101,4.732 1.489,6.3 2.458,9.932 3.749,29.527 2.849,43.251 -0.648,9.901 -1.614,17.339 -2.935,22.598 -0.331,1.32 -0.959,3.952 -1.396,5.85 -1.399,6.080 -4.553,16.657 -5.223,17.518 -0.141,0.182 -0.872,1.953 -1.624,3.934 -1.547,4.080 -4.869,11.467 -5.461,12.146 -0.215,0.247 -1.131,1.867 -2.033,3.6 -2.173,4.170 -2.800,5.209 -6.973,11.555 -1.951,2.966 -4.121,6.037 -4.822,6.823 -0.701,0.785 -1.675,2.033 -2.165,2.773 -1.143,1.726 -3.210,4.361 -4.604,5.871 -0.601,0.651 -2.018,2.271 -3.15,3.600 -2.382,2.798 -9.494,10.111 -10.489,10.784 -0.372,0.251 -2.001,1.696 -3.621,3.209 -4.330,4.046 -9.941,8.495 -15.095,11.969 -1.402,0.945 -2.887,1.968 -3.3,2.274 -1.864,1.379 -4.825,3.261 -6.75,4.290 -1.155,0.617 -2.842,1.617 -3.75,2.222 -0.907,0.605 -3.607,2.020 -6,3.144 -2.392,1.124 -5.43,2.556 -6.75,3.182 -4.508,2.137 -12.970,5.145 -19.05,6.771 -1.072,0.286 -2.094,0.632 -2.272,0.767 -0.857,0.654 -11.735,2.828 -19.328,3.863 -10.021,1.365 -26.905,1.913 -36.150,1.174 z m 14.100,-10.777 0,-1.65 -4.875,-0.265 -4.875,-0.265 0,-2.090 0,-2.090 4.425,0.105 4.425,0.105 0.093,-1.466 c 0.051,-0.806 -0.018,-1.578 -0.153,-1.713 -0.135,-0.135 -2.101,-0.340 -4.368,-0.453 l -4.121,-0.206 0,-1.651 0,-1.651 4.620,0.190 c 5.155,0.212 4.979,0.279 4.979,-1.903 0,-0.636 -0.147,-1.248 -0.328,-1.360 -0.530,-0.327 -12.585,-0.839 -12.876,-0.546 -0.311,0.312 -0.993,17.207 -0.723,17.911 0.199,0.520 2.984,0.700 10.328,0.668 l 3.450,-0.015 0,-1.65 z m 6.562,1.261 c 0.081,-0.131 -0.044,-1.785 -0.279,-3.675 -0.234,-1.889 -0.428,-3.485 -0.429,-3.545 -0.008,-0.321 2.952,0.400 3.634,0.885 0.439,0.312 1.706,1.787 2.815,3.277 l 2.016,2.708 1.540,-0.195 c 1.723,-0.219 2.590,-0.575 2.590,-1.064 0,-0.563 -2.990,-4.391 -4.398,-5.631 l -1.343,-1.182 0.846,-0.441 c 3.099,-1.618 3.704,-5.815 1.188,-8.254 -1.173,-1.137 -2.539,-1.529 -5.292,-1.519 -2.558,0.009 -8.041,0.700 -8.399,1.058 -0.390,0.390 1.305,16.775 1.797,17.368 0.400,0.482 3.439,0.656 3.713,0.213 z m -0.839,-11.536 c -0.076,-0.371 -0.219,-1.177 -0.317,-1.791 -0.206,-1.287 -0.225,-1.278 3.353,-1.583 1.936,-0.164 2.223,-0.118 2.794,0.452 0.497,0.497 0.592,0.843 0.434,1.591 -0.110,0.525 -0.288,1.038 -0.394,1.139 -0.359,0.342 -3.000,0.865 -4.370,0.865 -1.170,0 -1.380,-0.094 -1.499,-0.675 z m -21.609,11.153 c 0.329,-0.532 -4.398,-18.576 -4.941,-18.861 -0.259,-0.136 -1.158,-0.340 -1.998,-0.453 l -1.526,-0.206 -4.473,8.020 c -2.460,4.411 -4.514,8.192 -4.566,8.401 -0.131,0.535 0.769,0.946 2.339,1.067 1.335,0.102 1.346,0.095 2.247,-1.457 0.498,-0.858 1.056,-1.624 1.241,-1.700 0.357,-0.148 6.087,0.585 6.309,0.807 0.072,0.072 0.372,0.991 0.667,2.042 l 0.536,1.911 1.625,0.346 c 2.138,0.455 2.304,0.460 2.538,0.082 z m -8.025,-8.655 c -0.776,-0.108 -1.498,-0.283 -1.604,-0.388 -0.201,-0.201 1.987,-4.428 2.295,-4.431 0.163,-0.003 1.171,4.132 1.171,4.806 0,0.160 -0.101,0.273 -0.225,0.251 -0.123,-0.022 -0.860,-0.128 -1.637,-0.237 z m 54.217,5.837 c 3.469,-1.697 5.172,-4.890 4.854,-9.099 -0.092,-1.220 -0.107,-2.158 -0.034,-2.085 0.073,0.073 0.858,2.212 1.745,4.754 1.140,3.268 1.761,4.650 2.121,4.722 0.279,0.056 2.615,-0.676 5.190,-1.627 5.004,-1.848 6.453,-2.786 7.404,-4.790 0.464,-0.978 0.464,-1.172 0.007,-2.767 -0.562,-1.956 -1.889,-3.539 -3.210,-3.830 -0.687,-0.150 -0.823,-0.299 -0.632,-0.688 0.133,-0.273 0.244,-1.350 0.246,-2.393 0.002,-1.852 -0.027,-1.925 -1.299,-3.110 -1.300,-1.213 -1.302,-1.213 -3.15,-1.019 -2.556,0.269 -10.428,2.605 -10.640,3.157 -0.093,0.242 0.251,1.662 0.765,3.154 1.273,3.697 1.444,4.492 0.648,3.014 -1.964,-3.645 -4.517,-5.338 -8.052,-5.338 -2.464,0 -4.456,0.818 -6.269,2.577 -2.019,1.959 -2.450,3.038 -2.450,6.145 0,4.925 2.011,8.559 5.471,9.884 1.617,0.619 5.364,0.280 7.283,-0.658 z m -6.123,-3.375 c -1.326,-0.653 -2.132,-2.470 -2.344,-5.284 -0.295,-3.937 1.199,-5.765 4.497,-5.496 3.111,0.253 4.146,1.552 4.338,5.446 0.101,2.065 0.021,2.588 -0.577,3.748 -0.382,0.741 -1.033,1.516 -1.446,1.720 -1.057,0.523 -3.266,0.457 -4.467,-0.134 z m 17.249,-3.034 c -0.068,-0.110 -0.327,-0.979 -0.575,-1.932 l -0.451,-1.731 0.810,-0.419 c 0.445,-0.230 1.658,-0.594 2.694,-0.808 2.452,-0.506 3.443,-0.062 3.583,1.606 0.075,0.899 -0.045,1.187 -0.669,1.596 -0.950,0.622 -5.222,1.960 -5.390,1.688 z m -2.733,-8.258 c -0.740,-1.771 -0.606,-2.149 0.976,-2.761 0.783,-0.303 2.1,-0.557 2.925,-0.565 l 1.5,-0.014 0.090,1.075 c 0.105,1.262 -0.115,1.480 -2.340,2.308 -0.907,0.337 -1.886,0.707 -2.176,0.822 -0.408,0.161 -0.627,-0.033 -0.975,-0.864 z m -77.163,4.454 c 1.522,-5.458 2.250,-8.547 2.081,-8.828 -0.333,-0.554 -2.747,-1.367 -3.046,-1.026 -0.124,0.142 -0.809,2.351 -1.520,4.908 -0.711,2.557 -1.397,4.768 -1.524,4.913 -0.127,0.144 -0.374,-0.260 -0.550,-0.9 -1.999,-7.298 -3.062,-10.774 -3.385,-11.073 -0.589,-0.545 -3.030,-1.068 -3.375,-0.723 -0.453,0.453 -4.888,17.018 -4.657,17.393 0.113,0.183 0.796,0.466 1.517,0.628 1.036,0.232 1.375,0.206 1.618,-0.127 0.169,-0.231 0.902,-2.472 1.629,-4.980 0.726,-2.507 1.414,-4.451 1.529,-4.319 0.114,0.131 0.847,2.668 1.628,5.638 0.781,2.97 1.615,5.602 1.853,5.85 0.458,0.476 2.661,1.183 3.414,1.095 0.319,-0.037 1.116,-2.451 2.788,-8.448 z m -17.376,-0.384 c 0.110,-2.424 0.286,-6.790 0.392,-9.701 l 0.191,-5.292 -1.471,-0.651 c -0.809,-0.358 -1.697,-0.677 -1.974,-0.709 -0.532,-0.061 -13.667,12.278 -13.718,12.888 -0.030,0.369 2.381,1.903 2.993,1.903 0.201,0 1.013,-0.606 1.805,-1.347 l 1.440,-1.347 2.926,1.358 c 1.609,0.747 2.997,1.429 3.084,1.516 0.087,0.087 0.115,1.086 0.063,2.221 l -0.095,2.062 1.744,0.882 c 0.959,0.485 1.895,0.824 2.080,0.753 0.212,-0.081 0.408,-1.737 0.535,-4.537 z m -5.883,-6.231 c -0.783,-0.408 -1.425,-0.845 -1.425,-0.971 0,-0.289 3.093,-3.359 3.384,-3.359 0.118,0 0.215,1.147 0.215,2.55 0,2.893 -0.014,2.905 -2.175,1.780 z m 118.725,8.602 c 0.862,-0.503 0.9,-0.610 0.9,-2.604 l 0,-2.079 2.4,-1.264 c 1.32,-0.695 2.732,-1.269 3.139,-1.275 0.483,-0.007 1.220,0.463 2.129,1.358 l 1.389,1.368 1.695,-0.831 c 1.016,-0.498 1.695,-1.025 1.695,-1.315 0,-0.266 -2.257,-2.566 -5.015,-5.112 -2.758,-2.545 -5.863,-5.420 -6.900,-6.388 l -1.884,-1.759 -1.637,0.664 c -0.900,0.365 -1.770,0.824 -1.931,1.018 -0.313,0.377 0.944,18.178 1.328,18.800 0.250,0.404 1.442,0.147 2.691,-0.581 z m 0.329,-9.708 c -0.296,-1.952 -0.431,-4.425 -0.241,-4.425 0.276,0 3.662,3.383 3.662,3.660 0,0.204 -2.759,1.739 -3.126,1.739 -0.080,0 -0.212,-0.438 -0.294,-0.975 z m -126.906,-4.575 c 2.207,-4.125 3.982,-7.676 3.945,-7.892 -0.094,-0.541 -3.003,-2.176 -3.413,-1.917 -0.429,0.271 -7.904,15.213 -7.904,15.800 0,0.534 2.023,1.672 2.804,1.577 0.393,-0.048 1.721,-2.247 4.568,-7.567 z m -8.723,2.994 c 0,-1.317 -0.090,-3.342 -0.201,-4.500 l -0.201,-2.105 1.785,-0.041 c 2.020,-0.046 2.827,-0.461 4.072,-2.093 0.733,-0.961 0.844,-1.374 0.844,-3.132 0,-1.745 -0.103,-2.133 -0.748,-2.821 -0.999,-1.064 -9.029,-6.454 -9.601,-6.445 -0.440,0.007 -9.217,13.562 -9.512,14.691 -0.106,0.406 0.186,0.768 1.077,1.330 0.672,0.424 1.423,0.772 1.667,0.772 0.244,0 1.146,-1.149 2.004,-2.553 2.091,-3.421 2.125,-3.443 3.409,-2.160 l 1.053,1.053 0.029,3.555 c 0.016,1.955 0.117,3.857 0.225,4.227 0.222,0.766 2.965,2.786 3.645,2.684 0.356,-0.053 0.45,-0.563 0.45,-2.462 z M 75.726,680.267 c -1.420,-0.512 -3.869,-2.283 -3.869,-2.798 0,-0.582 1.517,-2.793 1.914,-2.789 0.624,0.005 4.041,2.351 4.545,3.121 0.472,0.720 0.468,0.821 -0.070,1.744 -0.667,1.142 -1.051,1.252 -2.519,0.722 z m 154.842,12.402 c 0.653,-0.333 1.188,-0.753 1.188,-0.933 0,-0.180 -1.569,-3.079 -3.487,-6.443 -3.913,-6.864 -3.845,-6.381 -1.127,-7.936 0.888,-0.508 1.614,-1.134 1.614,-1.391 0,-0.748 -1.204,-2.488 -1.722,-2.488 -0.639,0 -12.077,6.839 -12.077,7.221 0,0.657 1.237,2.678 1.640,2.678 0.235,0 1.234,-0.472 2.219,-1.05 0.985,-0.577 1.971,-1.047 2.191,-1.044 0.219,0.003 1.674,2.196 3.231,4.875 4.726,8.125 4.210,7.594 6.329,6.513 z m 9.095,-5.873 c 0.766,-0.520 1.102,-0.949 1.012,-1.292 -0.164,-0.630 -8.918,-14.500 -9.325,-14.775 -0.381,-0.258 -3.185,1.288 -3.190,1.760 -0.004,0.299 7.058,11.420 9.056,14.262 0.717,1.020 1.004,1.025 2.446,0.045 z m -178.053,-3.945 c 0.151,-0.288 1.399,-4.479 2.773,-9.312 l 2.497,-8.787 -1.337,-1.174 c -0.735,-0.646 -1.591,-1.180 -1.900,-1.187 -0.716,-0.016 -16.108,8.700 -16.317,9.240 -0.085,0.222 0.451,1.010 1.199,1.758 l 1.355,1.355 1.693,-1.083 c 0.931,-0.595 1.903,-1.083 2.160,-1.083 0.66,0 4.903,3.651 4.913,4.227 0.004,0.262 -0.192,1.140 -0.438,1.95 -0.245,0.809 -0.448,1.617 -0.45,1.794 -0.004,0.347 2.914,2.828 3.326,2.828 0.136,0 0.373,-0.236 0.524,-0.525 z m -3.044,-11.056 c -0.770,-0.600 -1.324,-1.214 -1.231,-1.364 0.335,-0.543 4.172,-2.950 4.264,-2.675 0.113,0.341 -1.109,4.576 -1.415,4.900 -0.119,0.126 -0.846,-0.261 -1.617,-0.861 z m 188.074,9.338 c 3.351,-0.995 6.091,-3.788 6.349,-6.472 0.075,-0.789 -0.026,-2.120 -0.227,-2.959 -0.418,-1.744 -0.863,-1.896 -3.021,-1.033 l -1.227,0.491 0.205,2.197 c 0.202,2.164 0.192,2.211 -0.705,3.108 -0.806,0.807 -1.111,0.911 -2.664,0.911 -1.364,0 -1.992,-0.162 -2.829,-0.731 -1.257,-0.854 -2.751,-3.080 -3.283,-4.893 -0.981,-3.343 1.968,-6.188 4.989,-4.811 0.742,0.338 0.876,0.277 1.964,-0.888 0.642,-0.688 1.167,-1.435 1.167,-1.659 0,-0.224 -0.623,-0.719 -1.384,-1.100 -4.509,-2.252 -11.025,2.251 -11.047,7.635 -0.006,1.403 0.197,2.229 0.922,3.75 1.673,3.507 5.781,6.888 8.379,6.897 0.506,0.003 1.592,-0.196 2.413,-0.440 z m -196.042,-14.216 2.805,-2.660 -2.652,-2.889 c -1.458,-1.589 -2.808,-2.887 -2.998,-2.884 -0.190,0.003 -0.801,0.554 -1.358,1.225 l -1.012,1.219 1.283,1.307 c 1.264,1.288 1.276,1.319 0.781,2.075 -0.626,0.956 -0.882,0.950 -2.714,-0.064 -1.956,-1.084 -2.642,-2.075 -2.806,-4.053 -0.216,-2.609 1.188,-4.713 4.160,-6.229 2.054,-1.048 3.988,-0.567 5.643,1.402 0.912,1.086 0.965,1.272 0.811,2.844 -0.163,1.668 -0.155,1.689 1.008,2.625 0.645,0.518 1.369,0.942 1.608,0.942 0.640,0 1.400,-2.176 1.400,-4.009 0,-1.341 -0.183,-1.881 -1.146,-3.371 -1.543,-2.387 -3.671,-4.212 -5.571,-4.776 -3.910,-1.161 -8.982,1.594 -11.183,6.077 -2.433,4.957 0.500,10.739 6.731,13.270 0.780,0.317 1.641,0.583 1.912,0.592 0.271,0.009 1.755,-1.180 3.298,-2.643 z m 213.965,-2.321 c 1.943,-0.662 4.442,-3.007 5.280,-4.956 0.757,-1.760 0.671,-3.377 -0.295,-5.586 -0.640,-1.463 -1.089,-1.567 -2.656,-0.615 -1.471,0.893 -1.540,1.051 -1.056,2.423 0.678,1.923 0.543,2.853 -0.575,3.973 -1.304,1.304 -2.824,1.605 -4.436,0.878 -1.502,-0.677 -4.646,-4.003 -4.907,-5.190 -0.301,-1.371 0.324,-3.193 1.411,-4.107 0.864,-0.727 1.130,-0.792 2.685,-0.651 l 1.725,0.156 0.759,-1.358 c 1.006,-1.800 0.962,-2.128 -0.356,-2.679 -2.714,-1.134 -6.081,0.169 -8.331,3.225 -2.899,3.938 -2.452,7.438 1.484,11.627 2.828,3.010 5.979,3.983 9.270,2.862 z M 39.748,650.526 c 3.622,-2.805 6.592,-5.295 6.598,-5.533 0.015,-0.616 -1.495,-2.716 -1.953,-2.716 -0.210,0 -2.114,1.355 -4.230,3.011 -2.115,1.656 -3.889,2.885 -3.940,2.731 -0.051,-0.154 0.790,-2.689 1.871,-5.633 1.080,-2.944 1.964,-5.496 1.964,-5.672 0,-0.534 -1.824,-2.837 -2.248,-2.837 -0.527,0 -13.651,10.726 -13.651,11.157 0,0.490 1.473,2.342 1.863,2.342 0.182,0 2.007,-1.363 4.053,-3.030 2.046,-1.666 3.782,-2.970 3.856,-2.895 0.074,0.074 -0.748,2.726 -1.827,5.894 l -1.963,5.759 0.969,1.349 c 0.633,0.882 1.156,1.318 1.510,1.261 0.297,-0.048 3.505,-2.382 7.128,-5.187 z m 238.804,-1.493 c 1.817,-2.718 3.302,-5.115 3.300,-5.325 -0.004,-0.425 -1.875,-1.734 -2.467,-1.726 -0.208,0.003 -1.306,1.417 -2.439,3.142 -1.133,1.725 -2.244,3.290 -2.470,3.477 -0.322,0.267 -1.589,-0.496 -5.957,-3.592 -3.051,-2.162 -5.730,-3.932 -5.954,-3.932 -0.483,0 -2.393,2.292 -2.254,2.705 0.138,0.408 14.121,10.193 14.567,10.194 0.203,2.9e-4 1.857,-2.224 3.675,-4.942 z m -169.345,-7.817 c 12.103,-0.252 23.769,-1.120 25.264,-1.878 0.294,-0.149 1.412,-0.445 2.485,-0.659 2.702,-0.537 8.621,-2.178 11.831,-3.280 1.474,-0.506 2.856,-0.920 3.070,-0.920 0.214,0 0.576,0.438 0.803,0.975 0.535,1.260 1.650,2.434 2.927,3.082 0.558,0.283 1.218,0.690 1.466,0.905 0.766,0.663 5.097,1.590 8.4,1.796 5.515,0.344 15.721,-0.608 19.5,-1.820 0.742,-0.238 3.138,-0.984 5.323,-1.659 2.352,-0.726 5.082,-1.828 6.690,-2.702 1.494,-0.811 2.812,-1.476 2.928,-1.476 0.116,0 1.357,-0.882 2.759,-1.960 1.401,-1.078 3.078,-2.363 3.727,-2.857 1.249,-0.950 2.722,-2.631 5.028,-5.739 0.774,-1.044 1.796,-2.333 2.270,-2.864 0.474,-0.530 1.055,-1.336 1.291,-1.791 0.236,-0.454 1.118,-1.931 1.960,-3.282 0.841,-1.351 1.912,-3.378 2.380,-4.506 0.467,-1.127 1.011,-2.252 1.208,-2.499 0.700,-0.876 3.197,-8.860 3.907,-12.492 1.245,-6.374 1.681,-16.404 1.040,-23.957 -0.153,-1.815 -0.426,-5.392 -0.605,-7.95 -0.479,-6.846 -1.231,-17.210 -2.112,-29.100 -0.164,-2.227 -0.429,-5.805 -0.587,-7.95 -0.601,-8.157 -0.933,-12.418 -1.236,-15.9 -0.172,-1.98 -0.414,-5.765 -0.537,-8.411 -0.226,-4.861 -0.356,-5.538 -1.064,-5.538 -0.431,0 -0.504,0.548 -1.229,9.3 -1.238,14.946 -3.727,38.055 -4.364,40.528 -0.152,0.592 -0.616,3.765 -1.031,7.05 -1.148,9.097 -2.950,20.821 -4.053,26.371 -0.163,0.825 -0.504,2.58 -0.755,3.9 -0.251,1.32 -0.722,3.21 -1.045,4.2 -0.323,0.99 -1.120,3.764 -1.771,6.166 -1.609,5.938 -3.653,10.727 -5.755,13.483 -0.440,0.577 -1.168,1.725 -1.617,2.55 -1.590,2.920 -6.030,7.961 -9.149,10.388 -1.212,0.943 -4.955,3.261 -5.267,3.261 -0.068,0 -0.767,0.389 -1.553,0.864 -1.520,0.919 -5.596,2.277 -12.679,4.222 -6.676,1.833 -11.416,3.215 -12.859,3.749 -0.720,0.266 -1.895,0.565 -2.612,0.663 -1.226,0.168 -1.390,0.099 -2.809,-1.176 -2.369,-2.130 -5.851,-3.297 -12.318,-4.128 -1.402,-0.180 -8.22,-0.388 -15.15,-0.462 -12.766,-0.136 -21.339,-0.517 -23.25,-1.033 -1.651,-0.445 -1.864,-1.088 -2.290,-6.898 -0.211,-2.887 -0.390,-5.688 -0.397,-6.225 l -0.012,-0.975 24.256,0 24.256,0 0.793,-0.735 0.793,-0.735 0,-94.604 c 0,-73.181 -0.081,-94.685 -0.36,-94.964 -0.471,-0.471 -1.882,-0.462 -2.273,0.015 -0.169,0.206 -1.375,2.474 -2.682,5.041 -2.436,4.788 -3.826,7.049 -5.169,8.407 -0.420,0.425 -1.167,1.370 -1.658,2.1 -2.058,3.052 -9.119,9.986 -12.467,12.242 -1.066,0.718 -2.571,1.830 -3.345,2.471 -1.765,1.463 -7.092,4.510 -10.443,5.974 -1.402,0.612 -3.022,1.387 -3.6,1.721 -1.463,0.847 -7.875,2.864 -12,3.774 -4.684,1.033 -9.211,1.649 -14.375,1.956 -3.651,0.216 -4.387,0.341 -4.725,0.802 -0.607,0.830 -0.490,1.429 0.588,3.022 2.121,3.131 4.893,10.925 7.868,22.123 1.961,7.383 3.650,19.470 4.466,31.984 0.898,13.759 1.083,19.319 0.775,23.310 -0.301,3.911 -0.732,10.350 -1.803,26.939 -0.330,5.115 -0.869,13.284 -1.197,18.153 -0.328,4.869 -0.721,10.719 -0.873,13.000 -0.151,2.281 -0.365,4.236 -0.475,4.346 -0.109,0.109 -3.461,0.199 -7.449,0.199 -7.188,0 -7.258,-0.006 -8.210,-0.720 -1.806,-1.355 -4.748,-0.881 -6.014,0.970 -0.839,1.228 -0.854,2.126 -0.053,3.146 1.639,2.083 3.831,2.433 6.007,0.959 l 1.320,-0.894 7.125,-0.005 7.125,-0.005 9e-4,0.975 c 0.002,1.955 -0.633,10.675 -1.055,14.475 -0.237,2.145 -0.519,5.327 -0.626,7.071 l -0.194,3.171 1.009,1.150 c 0.555,0.632 1.550,1.398 2.212,1.702 1.296,0.595 0.436,0.591 24.302,0.093 z M 96.931,607.253 c -0.095,-1.114 -0.373,-3.511 -0.616,-5.326 -0.243,-1.815 -0.577,-4.92 -0.742,-6.9 -0.165,-1.98 -0.438,-5.22 -0.607,-7.2 -0.169,-1.98 -0.518,-6.165 -0.776,-9.3 -0.258,-3.135 -0.595,-7.117 -0.750,-8.85 -0.529,-5.931 -0.880,-9.901 -1.189,-13.425 -0.169,-1.938 -0.451,-5.145 -0.627,-7.125 -0.175,-1.98 -0.357,-7.717 -0.404,-12.75 -0.079,-8.413 -0.707,-19.327 -1.346,-23.383 -0.144,-0.916 -0.618,-3.961 -1.052,-6.766 -1.642,-10.601 -5.118,-25.941 -6.189,-27.316 -0.135,-0.173 -0.779,-1.793 -1.430,-3.6 -0.651,-1.806 -1.464,-3.891 -1.805,-4.633 -0.341,-0.742 -0.623,-1.495 -0.627,-1.673 -0.004,-0.198 1.537,-0.465 3.968,-0.687 4.452,-0.407 6.493,-0.771 11.923,-2.127 5.051,-1.261 9.629,-2.733 13.056,-4.197 1.562,-0.667 2.949,-1.213 3.083,-1.213 0.134,0 0.776,-0.385 1.427,-0.857 0.651,-0.471 2.399,-1.500 3.884,-2.286 3.219,-1.703 5.386,-3.198 10.2,-7.035 6.946,-5.537 14.245,-13.812 16.95,-19.216 0.412,-0.824 0.851,-1.499 0.975,-1.501 0.124,-10e-4 0.191,40.328 0.15,89.622 l -0.075,89.625 -23.600,0.076 -23.600,0.076 -0.174,-2.026 z m -69.665,31.824 c 2.516,-1.265 9.924,-5.587 10.148,-5.92 0.279,-0.415 -1.301,-3.180 -1.818,-3.180 -0.226,-1.7e-4 -2.730,1.282 -5.565,2.849 -4.462,2.468 -5.342,2.85 -6.567,2.85 -1.273,0 -1.473,-0.096 -2.008,-0.975 -0.362,-0.594 -0.594,-1.508 -0.595,-2.343 -0.002,-1.844 0.514,-2.283 6.673,-5.680 2.763,-1.523 5.025,-2.903 5.025,-3.066 0,-0.610 -1.666,-3.233 -2.053,-3.234 -0.846,-6e-4 -10.644,5.903 -12.216,7.361 l -1.629,1.511 0,1.852 c 0,2.918 0.907,4.963 3.211,7.238 l 1.938,1.913 1.958,-0.200 c 1.161,-0.119 2.585,-0.516 3.500,-0.976 z m 258.065,-0.710 c 0.798,-0.776 1.889,-2.348 2.591,-3.735 1.199,-2.369 1.208,-2.411 0.827,-3.9 -0.735,-2.870 -1.955,-3.911 -9.126,-7.781 -2.621,-1.415 -4.813,-2.572 -4.872,-2.572 -0.201,0 -1.893,2.817 -1.893,3.153 0,0.184 2.299,1.609 5.110,3.166 2.810,1.556 5.538,3.270 6.061,3.807 0.939,0.966 0.946,0.993 0.570,2.4 -0.531,1.986 -1.346,2.772 -2.878,2.772 -0.677,0 -1.497,-0.184 -1.822,-0.410 -1.445,-1.003 -10.134,-5.567 -10.347,-5.435 -0.310,0.191 -1.794,2.726 -1.794,3.065 0,0.278 8.569,5.332 10.814,6.378 1.030,0.479 1.797,0.600 3.357,0.527 1.938,-0.090 2.079,-0.149 3.401,-1.434 z M 21.324,622.911 c 4.115,-1.905 7.651,-3.632 7.858,-3.836 0.515,-0.510 -0.717,-3.498 -1.443,-3.498 -0.274,0 -1.680,0.546 -3.125,1.213 -1.444,0.667 -2.771,1.165 -2.947,1.106 -0.176,-0.058 -0.825,-1.313 -1.441,-2.788 -0.845,-2.024 -1.034,-2.761 -0.769,-3.006 0.193,-0.178 1.363,-0.761 2.601,-1.296 2.943,-1.270 3.115,-1.509 2.358,-3.274 -0.328,-0.765 -0.735,-1.477 -0.905,-1.582 -0.451,-0.279 -15.984,7.083 -16.095,7.629 -0.150,0.737 1.098,2.899 1.673,2.898 0.285,-6e-4 1.801,-0.607 3.368,-1.348 1.567,-0.741 2.995,-1.347 3.174,-1.348 0.442,-0.002 2.665,5.685 2.337,5.981 -0.143,0.129 -1.544,0.811 -3.111,1.515 -3.860,1.733 -3.821,1.685 -2.869,3.562 0.501,0.989 0.972,1.539 1.317,1.539 0.295,0 3.904,-1.559 8.019,-3.464 z m 272.518,0.014 c 0.772,-1.815 1.699,-3.868 2.059,-4.563 0.794,-1.533 0.891,-4.457 0.193,-5.807 -0.253,-0.490 -1.016,-1.293 -1.695,-1.785 -1.472,-1.066 -3.629,-1.222 -5.115,-0.369 -0.793,0.456 -0.933,0.465 -1.066,0.075 -0.083,-0.247 -0.721,-1.023 -1.417,-1.725 -1.129,-1.138 -1.416,-1.275 -2.670,-1.275 -1.550,0 -2.682,0.476 -3.684,1.550 -0.642,0.688 -4.889,9.167 -4.889,9.761 0,0.408 15.610,7.590 16.315,7.505 0.413,-0.049 0.944,-0.956 1.970,-3.367 z m -5.236,-2.450 c -0.825,-0.424 -1.558,-0.826 -1.630,-0.891 -0.206,-0.187 1.842,-4.382 2.518,-5.155 0.470,-0.539 0.807,-0.658 1.482,-0.523 1.265,0.253 1.679,0.712 1.679,1.864 0,1.208 -1.736,5.512 -2.216,5.492 -0.183,-0.008 -1.008,-0.361 -1.833,-0.786 z m -6.3,-2.845 c -0.33,-0.180 -0.904,-0.516 -1.276,-0.748 l -0.676,-0.421 0.789,-1.567 c 1.283,-2.547 1.860,-3.217 2.773,-3.217 1.799,0 2.034,1.707 0.620,4.491 -0.945,1.859 -1.199,2.026 -2.230,1.463 z M 205.311,500.806 c 1.872,-0.717 3.559,-1.433 3.75,-1.589 0.190,-0.156 1.291,-0.648 2.446,-1.091 1.155,-0.443 3.159,-1.219 4.454,-1.722 l 2.354,-0.916 1.608,0.507 c 0.884,0.278 3.402,1.256 5.595,2.172 7.173,2.997 9.762,4.005 10.480,4.084 0.677,0.073 0.710,-0.014 0.794,-2.066 l 0.087,-2.143 -1.351,-0.856 c -1.831,-1.160 -7.174,-4.896 -7.367,-5.151 -0.085,-0.112 -0.868,-0.677 -1.739,-1.255 -0.871,-0.577 -1.645,-1.32 -1.720,-1.65 -0.075,-0.33 -0.383,-2.865 -0.684,-5.635 -0.394,-3.622 -0.455,-5.111 -0.219,-5.307 0.180,-0.149 1.471,-0.605 2.868,-1.011 6.778,-1.972 8.947,-2.647 10.190,-3.170 0.742,-0.312 6.21,-1.956 12.15,-3.653 9.947,-2.841 13.077,-3.944 12.587,-4.434 -0.103,-0.103 -9.110,-0.255 -20.016,-0.337 l -19.828,-0.15 -0.552,-2.4 c -0.303,-1.32 -0.968,-5.032 -1.476,-8.25 -1.216,-7.698 -1.519,-8.084 -2.213,-2.815 -1.197,9.100 -1.924,13.413 -2.301,13.652 -0.220,0.139 -9.268,0.255 -20.107,0.258 -12.224,0.003 -19.774,0.113 -19.884,0.291 -0.303,0.491 1.272,1.087 7.942,3.003 3.547,1.019 8.002,2.299 9.9,2.844 1.897,0.545 5.745,1.751 8.55,2.679 2.805,0.928 6.686,2.164 8.625,2.746 3.872,1.163 3.855,1.145 3.239,3.438 -0.155,0.577 -0.486,2.67 -0.736,4.65 -0.440,3.484 -0.485,3.624 -1.428,4.35 -0.535,0.412 -1.618,1.317 -2.406,2.011 -0.788,0.694 -1.734,1.422 -2.101,1.619 -0.367,0.196 -1.922,1.283 -3.454,2.415 l -2.786,2.057 0,2.047 c 0,2.190 0.150,2.576 0.884,2.274 0.256,-0.105 1.997,-0.779 3.869,-1.496 z" style="fill:#000064" /></g></g></svg> 
