<svg><path d="m 875.89,1779.08 c -183.35,-57.70 -332.64,-137.91 -453.00,-243.37 -18.79,-16.46 -57.43,-54.80 -73.17,-72.59 -77.59,-87.71 -128.64,-181.37 -153.70,-282 -6.97,-28.02 -11.57,-54.83 -14.81,-86.5 -1.69,-16.50 -1.79,-39.42 -1.79,-403.00 l 0,-385.5 720.99,0 721.00,0 0,385.5 c 0,363.57 -0.10,386.49 -1.79,403.00 -41.03,192.85 -105.59,320.67 -241.70,441.09 -119.78,104.96 -269.99,185.82 -450.38,242.46 -14.78,4.64 -27.16,8.41 -27.5,8.37 -0.33,-0.03 -11.19,-3.39 -24.11,-7.46 z" style="fill:#ffffff;fill-opacity:1" /><path d="m 899.5,382.5 c -322.21,0 -644.43,0.43 -645.31,1.31 -1.74,1.74 -1.74,584.87 0,586.62 0.93,0.93 145.67,1.18 645.31,1.18 499.63,0 644.38,-0.25 645.31,-1.18 1.74,-1.74 1.74,-584.87 0,-586.62 -0.87,-0.87 -323.1,-1.31 -645.31,-1.31 z m 192.03,67.15 c 46.84,-0.05 79.88,12.17 104.46,38.68 20.90,22.53 31.56,53.49 30.78,89.28 l -0.28,13.5 -51.5,0 -51.5,0 -0.25,-4 c -1.56,-24.31 -7.01,-35.94 -19.59,-41.87 -18.90,-8.90 -46.07,-3.21 -63,13.18 -14.74,14.29 -26.07,38.74 -41.24,89.03 -3.66,12.14 -6.41,22.70 -6.12,23.46 0.43,1.12 7.73,1.48 39.90,1.96 21.67,0.32 40.51,1.02 41.93,1.56 2.77,1.05 12.31,16.56 11.5,18.68 -0.31,0.80 -8.97,1.33 -29.28,1.78 -31.60,0.68 -70.15,3.28 -72.03,4.84 -1.13,0.94 -6.60,22.50 -9.46,37.34 -0.76,3.96 -1.34,13.53 -1.34,22.03 0,14.95 0.00,15.03 3.28,21.68 5.81,11.80 14.98,17.67 31.21,19.96 10.15,1.43 20.38,-0.60 32,-6.34 11.09,-5.47 22.01,-16.26 30.43,-30.09 l 5.90,-9.75 53.78,0 c 31.94,0 54.00,0.38 54.34,0.93 0.99,1.60 -17.94,38.02 -26.28,50.56 -23.16,34.83 -51.17,58.95 -84.96,73.15 -12.45,5.23 -32.82,10.69 -45.71,12.25 -12.26,1.48 -42.03,1.19 -52.96,-0.5 -16.70,-2.59 -37.14,-9.56 -50.03,-17.09 -24.59,-14.36 -41.26,-34.43 -50.84,-61.09 -7.92,-22.07 -9.03,-44.29 -3.71,-75.68 1.76,-10.43 3.41,-19.29 3.65,-19.68 1.15,-1.87 -2.48,-1.79 -11.37,0.18 -20.43,4.56 -37.76,9.13 -38.87,10.28 -0.82,0.85 -1.50,22.77 -2.37,77.68 -1.07,67.49 -1.39,76.64 -2.78,77.75 -1.92,1.52 -101.76,1.82 -104.15,0.31 -1.26,-0.80 -1.08,-7.48 1.31,-51.75 1.51,-27.94 3.01,-54.3 3.34,-58.56 0.55,-7.14 0.46,-7.75 -1.28,-7.75 -2.44,9.8e-4 -24.32,10.65 -40.78,19.87 -44.17,24.74 -81.91,54.67 -109.90,87.12 -4.98,5.77 -9.79,10.81 -10.65,11.18 -2.34,1.01 -108.33,0.92 -109.93,-0.09 -1.06,-0.67 26.76,-48.65 123.37,-212.71 68.61,-116.52 125.25,-212.22 125.87,-212.62 0.62,-0.40 30.27,-0.74 65.90,-0.75 52.75,-0.01 64.86,0.23 65.28,1.31 0.27,0.72 -0.39,51.44 -1.5,112.71 -1.15,64.07 -1.63,111.77 -1.12,112.28 0.50,0.50 7.39,-0.00 16.21,-1.21 8.44,-1.15 21.32,-2.76 28.62,-3.56 7.30,-0.79 13.65,-1.67 14.12,-1.96 0.46,-0.29 1.38,-2.65 2.03,-5.28 2.43,-9.90 17.21,-58.55 22.15,-72.87 20.31,-58.90 44.33,-94.31 81.06,-119.46 28.98,-19.85 63.30,-29.86 102.37,-29.90 z M 503.68,457.5 c 26.30,0.01 52.51,0.50 52.87,1.43 0.79,2.07 -127.44,422.99 -129.31,424.43 -1.24,0.96 -13.35,1.26 -52.68,1.25 -28.31,-0.00 -51.68,-0.44 -52.46,-0.93 -1.15,-0.73 10.21,-39.14 62.84,-212.21 35.34,-116.23 64.71,-211.90 65.28,-212.59 0.76,-0.93 27.16,-1.38 53.46,-1.37 z m 916.46,0.12 c 22.53,0 23.84,0.09 23.84,1.84 0,1.01 -7.90,27.23 -17.56,58.25 -25.84,83.03 -31.55,102.14 -31,103.59 0.39,1.02 5.84,1.31 25.46,1.31 32.93,0 38.38,1.23 39.96,9.03 0.64,3.14 1.20,3.64 6.15,5.21 13.81,4.38 19.96,7.99 19.96,11.75 0,4.26 -14.49,14.84 -28.34,20.68 -6.41,2.70 -9.55,4.91 -16.31,11.31 -5.48,5.19 -10.72,9.03 -15.12,11.18 l -6.71,3.28 -26.40,0.53 -26.37,0.5 -48.37,93 c -26.61,51.15 -49.14,93.56 -50.06,94.25 -1.22,0.92 -8.28,1.25 -27,1.25 -22.20,0 -25.40,-0.20 -25.93,-1.59 -0.33,-0.87 11.99,-43.05 27.40,-93.75 15.41,-50.69 27.80,-92.49 27.56,-92.90 -0.24,-0.41 -36.11,-0.75 -79.71,-0.75 -74.27,0 -79.38,-0.11 -80.78,-1.75 -3.00,-3.52 -29.87,-52.63 -29.59,-54.09 0.16,-0.87 5.54,-3.70 12.78,-6.75 11.99,-5.04 12.60,-5.20 15,-3.65 1.37,0.88 11.21,9.01 21.87,18.03 10.66,9.01 19.94,16.58 20.62,16.84 0.67,0.26 20.08,-7.47 43.12,-17.18 60.67,-25.59 66.78,-27.43 90.40,-27.43 l 12.81,0 47.75,-79.25 c 26.25,-43.58 48.39,-80.03 49.21,-81 1.34,-1.57 3.86,-1.75 25.34,-1.75 z M 728.96,570.46 c -0.11,0.02 -0.24,0.08 -0.37,0.21 C 727.70,571.58 639,735.10 639,735.84 c 0,1.17 -0.15,1.22 16.71,-5.81 15.21,-6.34 61.55,-22.40 64.65,-22.40 0.83,0 1.85,-0.56 2.28,-1.25 0.42,-0.68 2.42,-31.17 4.46,-67.75 3.11,-55.79 3.51,-68.50 1.84,-68.15 z" style="fill:#cb0132" /><path d="m 1080.66,1793.33 c -0.36,-0.36 -0.66,-7.09 -0.66,-14.94 0,-10.33 -0.34,-14.49 -1.25,-15.05 -0.68,-0.43 -3.27,-1.01 -5.75,-1.30 -3.09,-0.36 -4.5,-0.99 -4.5,-2.02 0,-1.25 2.37,-1.54 14.25,-1.77 13.73,-0.26 14.25,-0.20 14.25,1.75 0,1.69 -0.64,2.02 -3.91,2.02 -7.23,0 -7.08,-0.33 -7.08,15.02 0,7.59 -0.27,14.52 -0.60,15.39 -0.61,1.59 -3.49,2.15 -4.72,0.91 z m 23.94,-0.91 c -0.33,-0.87 -0.60,-8.25 -0.60,-16.41 0,-8.16 0.27,-15.54 0.60,-16.41 0.42,-1.10 1.90,-1.58 4.89,-1.58 l 4.28,0 4.86,12.10 c 2.67,6.65 5.30,12.16 5.85,12.23 0.55,0.07 3.18,-5.37 5.84,-12.10 l 4.84,-12.23 4.40,0 4.40,0 0,18 0,18 -2.39,0 c -1.31,0 -2.66,-0.71 -3,-1.58 -0.33,-0.87 -0.60,-6.81 -0.60,-13.2 0,-7.74 -0.33,-11.28 -1,-10.61 -0.55,0.55 -3.13,6.37 -5.75,12.95 -6.12,15.41 -7.20,15.66 -12.42,2.95 -2.03,-4.95 -4.43,-10.8 -5.34,-13 -1.45,-3.53 -1.74,-3.76 -2.49,-2 -0.46,1.1 -0.87,7.06 -0.91,13.25 -0.07,11.17 -0.08,11.25 -2.46,11.25 -1.31,0 -2.66,-0.71 -3,-1.58 z M 875,1779.47 C 691.64,1721.76 542.35,1641.56 422,1536.09 403.20,1519.63 364.56,1481.29 348.82,1463.5 271.22,1375.78 220.17,1282.12 195.11,1181.5 188.13,1153.47 183.54,1126.66 180.29,1095 178.60,1078.49 178.5,1055.57 178.5,692 l 0,-385.5 721,0 721,0 0,385.5 c 0,363.57 -0.10,386.49 -1.79,403 -13.90,135.67 -68.86,255.84 -168.52,368.5 -15.74,17.79 -54.38,56.13 -73.17,72.59 -119.78,104.96 -269.99,185.82 -450.38,242.46 -14.78,4.64 -27.16,8.41 -27.5,8.37 -0.33,-0.03 -11.19,-3.39 -24.11,-7.46 z m 63.73,-43.34 c 70.41,-23.36 120.50,-43.79 181.76,-74.11 138.53,-68.58 248.73,-153.84 329.26,-254.77 57.88,-72.53 98.20,-152.21 118.63,-234.42 7.10,-28.59 11.22,-53.52 14.76,-89.32 0.88,-8.92 1.27,-104.94 1.54,-375.14 0.32,-332.31 0.22,-363.28 -1.24,-364.75 C 1581.99,342.13 1524.54,342 899.5,342 c -625.25,0 -682.49,0.13 -683.96,1.60 -1.47,1.47 -1.57,32.31 -1.24,364.75 0.26,269.94 0.66,366.22 1.54,375.14 5.02,50.96 12.52,87.49 26.67,130 26.80,80.52 70.56,154.48 133.33,225.33 15.76,17.79 53.70,55.43 72.15,71.57 95.49,83.56 214.23,152.46 353.5,205.14 31.34,11.85 93.15,32.34 97.73,32.39 2.18,0.02 18.53,-4.86 39.5,-11.82 z M 869.5,1694.59 C 662.20,1625.39 494.37,1518.92 385.41,1387.5 315.77,1303.49 272.31,1209.42 258.59,1113 c -3.34,-23.48 -4.39,-37.50 -5.21,-69.20 -0.54,-21.02 -0.41,-27.03 0.58,-28.25 1.14,-1.38 66.54,-1.54 645.53,-1.54 578.98,0 644.38,0.15 645.53,1.54 1.00,1.21 1.13,7.22 0.58,28.25 -0.81,31.70 -1.87,45.72 -5.21,69.20 -19.67,138.28 -99.30,268.66 -230.90,378.05 -89.98,74.79 -201.85,137.81 -330.17,186.00 -24.75,9.29 -77.25,26.95 -80.00,26.91 -1.00,-0.01 -14.41,-4.23 -29.81,-9.37 z m 184.19,-130.55 c 4.40,-2.68 6.07,-8.25 3.98,-13.26 -2.02,-4.85 -5.97,-7.30 -11.55,-7.17 -3.81,0.08 -4.95,0.64 -7.91,3.86 -3.14,3.42 -3.40,4.17 -2.93,8.36 1.00,8.92 10.38,13.10 18.41,8.21 z m -12.32,-0.81 c -4.98,-4.03 -5.76,-10.41 -1.84,-15.07 4.95,-5.88 13.14,-4.58 16.12,2.55 1.82,4.36 1.09,7.85 -2.40,11.54 -3.09,3.25 -8.51,3.69 -11.87,0.97 z m 3.80,-6.72 c 0.64,-0.66 1.82,0.01 3.48,2 2.28,2.73 2.44,2.79 1.82,0.63 -0.39,-1.36 -0.13,-3.40 0.62,-4.81 1.93,-3.61 0.14,-5.81 -4.70,-5.81 l -3.89,0 -0.30,4.87 c -0.34,5.37 0.76,9.72 1.56,6.12 0.24,-1.1 0.88,-2.45 1.41,-3 z m -0.50,-3.92 c -0.30,-0.78 0.12,-1.98 0.94,-2.66 1.20,-0.99 1.79,-0.93 3.05,0.33 0.86,0.86 1.26,2.06 0.89,2.66 -0.97,1.57 -4.24,1.35 -4.89,-0.33 z m -236.93,6.93 c 1.79,-2.74 3.26,-5.33 3.26,-5.75 0,-0.41 -8.33,-0.76 -18.53,-0.76 -14.96,0 -18.63,-0.26 -19.06,-1.40 -0.29,-0.77 1.20,-4.48 3.32,-8.25 l 3.86,-6.84 13.21,-0.27 13.21,-0.27 2.96,-4.72 C 815.04,1523.18 814.84,1523 801,1523 c -7.59,0 -12,-0.37 -12,-1.03 0,-1.28 4.46,-10.16 7.64,-15.20 l 2.37,-3.76 14.43,0 14.43,0 2.42,-3.25 c 4.16,-5.58 5.08,-7.87 3.52,-8.86 -1.47,-0.93 -50.05,-1.21 -53.42,-0.30 -1.50,0.40 -7.45,10.47 -21.75,36.85 C 747.85,1547.41 739,1564.03 739,1564.38 c 0,0.35 14.73,0.52 32.73,0.37 l 32.73,-0.26 3.26,-4.98 z m 47.39,-19.02 c 13.30,-13.48 24.82,-25.40 25.58,-26.5 1.40,-2.00 4.27,-2.74 4.27,-1.09 0,1.70 -3.99,20.29 -4.55,21.19 -0.30,0.50 -3.04,0.91 -6.07,0.91 -3.02,0 -6.38,0.47 -7.46,1.04 -1.97,1.05 -10.13,9.44 -10.73,11.02 -0.17,0.47 4.54,0.98 10.5,1.14 L 877.5,1548.5 l -0.33,8.25 -0.33,8.25 11.47,0 c 11.07,0 11.49,-0.07 12.01,-2.25 1.87,-7.82 10.91,-69.69 10.38,-71.06 -0.56,-1.46 -2.48,-1.68 -14.92,-1.70 l -14.28,-0.02 -35.71,36.27 c -19.64,19.95 -35.72,36.83 -35.75,37.52 -0.02,0.92 2.69,1.25 10.42,1.25 l 10.46,0 24.19,-24.51 z m 97.49,-2.22 c 14.37,-14.71 26.46,-26.44 26.86,-26.06 0.63,0.60 -1.65,16.04 -3.11,21.05 -0.41,1.43 -1.68,1.75 -7.00,1.75 -6.44,0 -6.53,0.03 -11.93,5.14 -2.99,2.82 -5.44,5.73 -5.44,6.46 0,0.99 2.65,1.39 10.75,1.60 12.19,0.32 11.18,-0.76 9.81,10.53 l -0.76,6.25 11.62,0 c 8.43,0 11.73,-0.34 12.01,-1.25 0.21,-0.68 0.98,-4.58 1.71,-8.65 0.81,-4.51 1.92,-7.69 2.83,-8.14 0.82,-0.40 6.45,-1.92 12.5,-3.36 21.03,-5.01 42.55,-17.89 52.90,-31.66 9.19,-12.23 12.03,-20.71 11.40,-34.00 -0.37,-7.87 -0.85,-9.66 -4.64,-17.31 -7.29,-14.72 -25.47,-31.47 -42.86,-39.49 -4.94,-2.28 -5.32,-2.31 -7.75,-0.72 -1.40,0.91 -2.54,2.10 -2.54,2.63 0,0.53 3.26,2.60 7.25,4.61 17.94,9.03 31.95,21.91 38.72,35.62 4.98,10.09 5.84,15.99 3.59,24.76 -4.04,15.77 -17.39,30.08 -36.49,39.11 -6.96,3.29 -23.38,7.87 -28.21,7.87 -3.72,0 -3.71,-0.71 0.15,-24.64 2.40,-14.84 2.76,-18.86 1.75,-19.51 -0.70,-0.44 -7.52,-0.81 -15.15,-0.82 l -13.88,-0.01 -7.77,7.75 C 949.51,1517.11 905,1563.30 905,1564.10 c 0,0.49 4.83,0.89 10.75,0.90 l 10.75,0.01 26.13,-26.75 z m 12.50,-60.82 c 2.18,-1.12 2.84,-2.03 2.38,-3.25 -0.35,-0.92 -2.03,-5.66 -3.73,-10.52 -1.69,-4.86 -3.70,-9.07 -4.45,-9.36 -0.75,-0.28 -4.26,0.20 -7.79,1.09 -7.10,1.78 -11.46,2.11 -9.97,0.74 0.52,-0.47 8.82,-4.36 18.45,-8.62 25.28,-11.20 40.19,-18.80 51,-25.98 15.63,-10.39 17.88,-14.51 7.92,-14.51 -9.21,0 -21.83,4.21 -55.30,18.46 -9.83,4.18 -19.84,8.13 -22.25,8.78 -3.52,0.94 -10.91,0.71 -38.12,-1.15 l -33.74,-2.32 -4.91,2.15 c -2.93,1.28 -4.54,2.51 -4,3.05 0.50,0.49 8.11,3.55 16.91,6.79 10.40,3.83 16,6.39 16,7.31 0,0.91 -3.88,2.72 -11,5.11 -36.82,12.37 -92.66,11.08 -104.02,-2.40 -11.52,-13.70 20.02,-33.95 65.02,-41.73 19.87,-3.43 35.20,-4.50 64,-4.45 28.31,0.05 37.02,0.68 61.55,4.48 12.46,1.93 13.85,1.97 17.25,0.55 2.03,-0.84 3.69,-1.98 3.69,-2.52 0,-1.29 -1.42,-1.68 -15,-4.07 -64.33,-11.34 -140.80,-5.30 -179.43,14.17 -14.16,7.14 -24.91,16.77 -26.16,23.45 -1.54,8.23 1.39,14.01 10.06,19.76 21.49,14.26 63.64,17.12 110.53,7.49 5.22,-1.07 14.22,-3.27 20,-4.88 l 10.5,-2.93 19.5,8.33 c 10.72,4.58 20.08,8.38 20.79,8.44 0.71,0.06 2.66,-0.59 4.33,-1.45 z M 451.75,1321.17 c 0.68,-0.43 2.30,-3.91 3.59,-7.73 l 2.34,-6.94 15.39,0 15.39,0 2.29,6.44 c 1.26,3.54 2.78,7.03 3.38,7.75 1.20,1.44 13.47,1.82 15.59,0.47 0.94,-0.59 -2.58,-11.45 -14.14,-43.55 -8.47,-23.51 -15.71,-43.06 -16.09,-43.43 -1.16,-1.16 -12.53,-0.76 -13.30,0.47 -2.17,3.51 -30.36,84.50 -29.86,85.79 0.45,1.18 2.17,1.54 7.37,1.52 3.72,-0.01 7.34,-0.37 8.03,-0.81 z m 12.49,-30.00 c -0.95,-0.60 -0.13,-4.09 3.5,-14.73 2.61,-7.66 5.20,-13.82 5.75,-13.68 1.39,0.34 9.81,25.98 9.12,27.78 -0.43,1.12 -2.47,1.46 -8.84,1.45 -4.55,-0.01 -8.84,-0.37 -9.53,-0.81 z m 111.55,29.97 c 0.91,-0.57 1.21,-2.88 1,-7.73 L 576.5,1306.5 l -19.78,-0.27 -19.78,-0.27 0.28,-10.22 L 537.5,1285.5 554,1285 l 16.5,-0.5 0.29,-6.91 c 0.21,-4.85 -0.08,-7.15 -1,-7.73 -0.71,-0.45 -8.40,-0.83 -17.08,-0.83 l -15.78,-0.01 0.28,-9.75 0.28,-9.75 19.5,-0.5 19.5,-0.5 0.29,-6.91 c 0.21,-4.85 -0.08,-7.15 -1,-7.73 -1.48,-0.94 -51.80,-1.17 -54.21,-0.24 -1.40,0.54 -1.58,5.33 -1.58,43.83 0,23.77 0.3,43.52 0.66,43.89 0.96,0.96 53.59,0.78 55.13,-0.18 z M 608,1304.5 l 0.5,-17 6,0 6,0 8.5,17 8.5,17 8.40,0.29 c 4.62,0.16 8.81,-0.11 9.32,-0.62 0.55,-0.55 -2.66,-8.06 -8.10,-18.93 l -9.02,-18.02 5.12,-3.85 c 6.56,-4.93 9.13,-9.91 9.62,-18.65 0.48,-8.63 -1.65,-14.55 -7.31,-20.21 -6.34,-6.34 -10.94,-7.52 -32.08,-8.19 -12.92,-0.41 -18.67,-0.23 -20.25,0.60 l -2.20,1.17 0,42.88 c 0,33.35 0.27,42.99 1.25,43.40 0.68,0.28 4.4,0.43 8.25,0.33 l 7,-0.19 0.5,-17 z m 0.46,-33.73 c -0.29,-0.77 -0.41,-5.88 -0.25,-11.34 L 608.5,1249.5 l 10.83,0 10.83,0 2.91,3.26 c 4.10,4.59 4.10,10.86 -3.9e-4,15.46 -2.89,3.24 -2.98,3.26 -13.49,3.60 -8.42,0.27 -10.69,0.05 -11.12,-1.07 z m 100.89,49.62 c 6.93,-2.36 15.01,-10.17 17.78,-17.19 2.05,-5.20 2.25,-7.39 2.30,-25.19 0.05,-22.41 -0.89,-26.81 -7.39,-34.20 -6.03,-6.85 -12.93,-10.09 -22.53,-10.58 -13.90,-0.70 -24.60,5.16 -30.20,16.56 L 666.5,1255.5 l 0,22.5 c 0,21.69 0.08,22.66 2.35,27 4.14,7.91 10.84,13.53 19.14,16.06 4.49,1.37 16.46,0.99 21.35,-0.67 z m -18.28,-15.08 c -7.02,-3.69 -7.53,-5.34 -7.90,-25.51 -0.37,-20.50 0.57,-25.04 6.09,-28.97 4.23,-3.01 12.44,-3.14 16.40,-0.24 5.85,4.27 6.82,8.11 6.82,26.93 0,18.68 -0.98,22.67 -6.63,26.79 -3.78,2.76 -10.57,3.22 -14.79,1.00 z m 101.37,14.36 c 10.23,-4.49 14.83,-11.46 14.86,-22.53 0.02,-7.94 -1.74,-12.49 -6.66,-17.13 l -3.63,-3.42 2.94,-3.03 c 6.54,-6.76 8.03,-18.15 3.54,-27.14 -2.77,-5.56 -6.48,-8.75 -12.79,-11.00 -4.59,-1.64 -38.26,-3.21 -43.05,-2.00 l -2.66,0.66 0,43.31 c 0,23.82 0.33,43.65 0.75,44.07 0.41,0.41 10.2,0.58 21.75,0.37 17.13,-0.31 21.72,-0.70 24.94,-2.12 z M 762,1295.5 l 0,-10.5 10.92,0 c 10.16,0 11.12,0.17 13.87,2.48 3.60,3.03 4.65,7.50 2.79,11.95 -2.36,5.65 -4.70,6.56 -16.81,6.56 L 762,1306 l 0,-10.5 z m 0.42,-27.83 c -0.28,-0.73 -0.37,-5.12 -0.21,-9.75 L 762.5,1249.5 l 10.83,0 c 10.63,0 10.88,0.05 13.25,2.80 3.53,4.11 3.32,9.93 -0.51,13.77 -2.84,2.84 -3.19,2.92 -13.03,2.92 -7.50,0 -10.24,-0.34 -10.62,-1.33 z m 67.30,53.51 c 0.67,-0.43 2.13,-3.41 3.24,-6.62 1.10,-3.21 2.51,-6.45 3.13,-7.20 1.55,-1.86 29.15,-1.96 30.62,-0.10 0.54,0.68 1.78,3.72 2.75,6.75 0.97,3.02 2.21,6.06 2.75,6.75 1.19,1.51 15.32,1.73 16.24,0.25 0.61,-0.98 -28.99,-84.69 -30.56,-86.39 -0.44,-0.49 -3.04,-1.10 -5.75,-1.36 -3.92,-0.37 -5.32,-0.08 -6.82,1.40 -2.28,2.28 -31.70,83.98 -30.95,85.95 0.59,1.54 13.07,2.01 15.33,0.58 z m 12.60,-30.73 c -0.70,-1.82 7.96,-27.94 9.26,-27.94 1.37,0 9.84,25.88 9.10,27.81 -0.92,2.39 -17.45,2.52 -18.37,0.13 z m 80.39,30.73 c 0.93,-0.59 1.30,-9.40 1.5,-36.23 L 924.5,1249.5 l 10.46,-0.28 c 6.82,-0.18 10.73,-0.70 11.23,-1.5 0.42,-0.66 0.77,-3.54 0.78,-6.39 0.02,-8.59 1.05,-8.32 -31.36,-8.32 -21.31,0 -28.66,0.31 -29.98,1.27 -1.41,1.03 -1.68,2.51 -1.44,7.75 l 0.30,6.47 11,0.5 11,0.5 0.25,35 c 0.13,19.25 0.46,35.56 0.71,36.25 0.52,1.40 13.17,1.76 15.26,0.43 z m 50.68,0.20 C 974.82,1320.85 975,1316.08 975,1277.92 975,1229.17 975.75,1233 966.14,1233 957.23,1233 958,1228.81 958,1277.44 c 0,23.77 0.3,43.52 0.66,43.89 0.83,0.83 12.61,0.88 14.75,0.06 z m 60.96,-1.43 c 6.74,-2.52 12.99,-8.42 16.18,-15.28 4.16,-8.94 3.28,-10.68 -5.40,-10.65 -6.64,0.01 -9.10,0.89 -9.75,3.48 -0.31,1.24 -2.08,3.72 -3.93,5.52 -6.43,6.23 -17.44,4.71 -21.94,-3.02 -1.85,-3.18 -2.03,-5.20 -2.03,-22.5 0,-22.29 0.60,-24.33 8.21,-27.69 7.35,-3.25 14.34,-1.14 18.27,5.50 3.34,5.64 3.66,5.80 11.34,5.48 6.50,-0.26 7.2,-0.49 7.48,-2.47 0.53,-3.78 -4.59,-12.93 -9.95,-17.75 -14.89,-13.38 -40.78,-8.60 -49.50,9.13 -2.77,5.65 -2.86,6.30 -3.19,24.45 -0.39,21.46 0.53,27.66 5.16,34.59 3.35,5.01 10.77,10.64 16.04,12.17 5.87,1.70 17.17,1.23 23.02,-0.95 z m 96.79,1.01 c 9.21,-2.55 18.74,-12.71 20.44,-21.76 0.81,-4.33 -0.41,-5.16 -7.68,-5.18 -6.17,-0.01 -7.64,0.81 -10.80,6.12 -5.41,9.08 -19.20,8.94 -24.63,-0.25 -1.81,-3.06 -2,-5.18 -2,-22.38 0,-18.06 0.11,-19.18 2.28,-22.68 2.83,-4.55 9.34,-7.38 14.68,-6.38 4.25,0.79 10.06,5.61 10.93,9.06 0.75,2.99 3.18,3.71 11.13,3.31 5.31,-0.27 5.99,-0.55 6.27,-2.56 0.47,-3.36 -4.03,-12.39 -8.35,-16.70 -6.16,-6.16 -11.39,-8.03 -22.46,-8.03 -11.23,-8e-4 -16.81,2.16 -23.63,9.19 -6.55,6.74 -7.61,10.92 -8.11,31.94 -0.49,20.94 0.42,27.13 5.07,34.09 3.35,5.01 10.77,10.64 16.04,12.17 4.33,1.25 16.37,1.28 20.81,0.05 z M 1220.5,1314 l 0,-7.5 -19,-0.5 -19,-0.5 -0.26,-35.44 c -0.19,-26.83 -0.56,-35.64 -1.5,-36.23 -1.46,-0.92 -11.87,-1.08 -14.15,-0.20 -1.40,0.54 -1.58,5.33 -1.58,43.83 0,23.77 0.30,43.53 0.68,43.90 0.37,0.37 12.86,0.56 27.75,0.41 l 27.06,-0.26 0,-7.5 z m 53.79,5.99 c 7.27,-2.72 13.02,-7.89 16.39,-14.76 l 2.81,-5.72 0.30,-31.97 c 0.27,-29.46 0.16,-32.07 -1.44,-33.25 -1.88,-1.37 -12.10,-1.72 -14.05,-0.48 -0.87,0.55 -1.27,9.20 -1.5,32.31 l -0.30,31.55 -2.73,3.58 c -6.49,8.50 -20.13,7.23 -25.00,-2.31 -1.55,-3.04 -1.74,-6.85 -1.75,-33.64 0,-28.84 -0.08,-30.26 -1.93,-31.25 -2.29,-1.23 -12.01,-1.35 -13.86,-0.17 -1.03,0.65 -1.23,7.54 -1,33.73 0.29,32.34 0.34,32.98 2.65,37.40 4.14,7.91 10.84,13.53 19.14,16.06 5.11,1.56 16.74,1.00 22.29,-1.07 z m 84.20,-0.33 c 9.21,-4.04 14.44,-12.13 14.47,-22.43 0.02,-7.56 -1.85,-12.46 -6.70,-17.44 l -3.62,-3.72 2.72,-2.52 c 8.30,-7.69 8.77,-22.32 1.01,-31.39 -5.90,-6.90 -10.83,-8.23 -32.82,-8.87 -13.75,-0.39 -19.76,-0.22 -21.35,0.62 l -2.20,1.18 0,42.26 c 0,32.46 0.28,42.56 1.25,43.54 0.96,0.98 6.09,1.19 22.25,0.90 17.24,-0.30 21.71,-0.69 25,-2.13 z m -30.89,-15.23 c -0.33,-0.87 -0.60,-4.88 -0.60,-8.91 0,-10.96 -0.54,-10.5 12.18,-10.5 10.79,0 11.01,0.04 13.89,2.92 2.39,2.39 2.92,3.76 2.92,7.57 0,3.81 -0.52,5.18 -2.92,7.57 -2.87,2.87 -3.10,2.92 -13.89,2.92 -9.08,0 -11.07,-0.27 -11.57,-1.58 z m 0,-37 c -0.33,-0.87 -0.60,-4.65 -0.60,-8.41 0,-10.29 -0.31,-10.00 10.85,-9.99 11.71,0 15.63,1.75 16.69,7.44 1.74,9.28 -2.58,12.54 -16.69,12.55 -7.87,0 -9.75,-0.28 -10.25,-1.57 z m -233.04,-78.49 c 3.26,-0.59 7.80,-2.16 10.08,-3.48 6.16,-3.57 12.14,-10.89 13.78,-16.85 3.30,-12.06 2.60,-42.19 -1.18,-50.76 -2.53,-5.73 -7.88,-11.08 -14.53,-14.54 -4.54,-2.36 -6.37,-2.71 -14.21,-2.72 -10.18,-0.01 -15.39,1.76 -21.86,7.45 -7.64,6.70 -10.60,16.92 -10.58,36.48 0.01,13.27 1.43,23.57 3.92,28.45 4.04,7.92 12.48,14.24 21.36,16.00 5.89,1.16 6.60,1.16 13.22,-0.03 z m -13.15,-16.49 c -1.70,-0.83 -4.17,-3.41 -5.49,-5.72 -2.27,-3.99 -2.39,-5.06 -2.39,-21.70 0,-15.46 0.23,-17.96 1.99,-21.47 2.48,-4.95 7.08,-7.69 12.92,-7.69 5.89,0 10.12,2.63 12.66,7.87 1.89,3.90 2.03,5.73 1.72,22.56 -0.28,15.60 -0.59,18.72 -2.13,21.06 -4.01,6.12 -12.59,8.38 -19.28,5.08 z m -595.01,14.99 C 486.72,1186.54 487,1167.46 487,1145 c 0,-22.46 -0.27,-41.54 -0.60,-42.41 -0.48,-1.25 -2.22,-1.58 -8.5,-1.58 l -7.89,0 0,43.33 c 0,23.83 0.3,43.63 0.66,44 0.36,0.36 3.91,0.66 7.89,0.66 5.66,0 7.35,-0.34 7.83,-1.58 z M 521,1163.83 c 0.27,-13.56 0.79,-24.96 1.15,-25.31 0.87,-0.87 1.81,0.47 18.71,26.98 l 14.66,23 7.48,0 7.48,0 0,-43.5 0,-43.5 -8,0 -8,0 -0.26,24.46 c -0.14,13.45 -0.64,24.84 -1.10,25.30 -0.46,0.46 -8.15,-10.66 -17.08,-24.71 L 519.79,1101 l -7.28,0 c -5.72,0 -7.42,0.33 -7.89,1.58 -0.80,2.09 -0.78,82.78 0.01,84.87 0.51,1.33 1.96,1.57 8.25,1.33 L 520.5,1188.5 521,1163.83 z m 101,-11.33 0.5,-36 11,-0.5 11,-0.5 0,-7 0,-7 -31,0 -31,0 0,7 0,7 11,0.5 11,0.5 0.25,35 c 0.13,19.25 0.46,35.58 0.73,36.29 0.35,0.94 2.59,1.21 8.24,1 L 621.5,1188.5 l 0.5,-36 z m 90.79,29.08 c 0.21,-4.85 -0.08,-7.15 -1,-7.73 -0.71,-0.45 -9.75,-0.83 -20.08,-0.83 l -18.78,-0.01 0.28,-10.25 0.28,-10.25 16.5,-0.5 16.5,-0.5 0.29,-7.22 0.29,-7.22 -16.79,-0.27 L 673.5,1136.5 l 0,-10 0,-10 19.5,-0.5 19.5,-0.5 0,-7 0,-7 -28,0 -28,0 -0.26,42.5 c -0.14,23.37 -0.04,43.06 0.22,43.76 0.37,0.98 6.58,1.20 28.26,1 L 712.5,1188.5 l 0.29,-6.91 z m 30.94,-8.08 c 0.33,-20.48 0.03,-19.66 7.03,-19.29 l 5.71,0.29 8.5,17 8.5,17 9.25,0.28 c 5.96,0.18 9.25,-0.08 9.25,-0.76 0,-0.57 -3.82,-8.68 -8.5,-18.02 -8.26,-16.49 -9.57,-20 -7.50,-20 1.90,0 9.16,-7.38 11.22,-11.42 3.19,-6.25 2.95,-15.65 -0.57,-22.86 -1.52,-3.11 -4.42,-7.03 -6.45,-8.71 -6.11,-5.05 -11.22,-5.99 -32.76,-5.99 -16.59,0 -19.29,0.21 -19.81,1.58 -0.80,2.09 -0.78,82.78 0.01,84.87 0.51,1.33 1.96,1.57 8.25,1.33 L 743.5,1188.5 l 0.24,-15 z m 0.92,-35.16 c -1.21,-1.21 -0.74,-19.85 0.53,-21.13 1.93,-1.93 16.61,-1.54 20.8,0.55 7.76,3.87 8.74,14.99 1.69,19.29 -2.58,1.57 -5.04,1.95 -12.78,1.95 -5.27,0 -9.88,-0.29 -10.25,-0.66 z m 77.10,24.91 c 0.14,-13.88 0.64,-25.25 1.10,-25.25 0.45,0 8.14,11.49 17.08,25.54 l 16.24,25.54 7.15,-0.29 7.15,-0.29 0.26,-43.79 0.26,-43.79 -8.26,0.29 -8.26,0.29 -0.5,25.40 c -0.44,22.75 -0.65,25.21 -2,23.60 -0.82,-0.99 -8.26,-12.42 -16.53,-25.40 L 820.43,1101.5 l -7.46,0 -7.46,0 -0.26,42.5 c -0.14,23.37 -0.03,43.08 0.23,43.79 0.36,0.93 2.61,1.21 8.26,1 L 821.5,1188.5 l 0.26,-25.25 z m 77.97,18.25 c 1.37,-3.85 3.01,-7.33 3.63,-7.73 0.61,-0.40 7.20,-0.73 14.62,-0.73 7.42,0 13.98,0.33 14.57,0.73 0.58,0.40 2.16,3.88 3.5,7.73 l 2.42,7 8.25,0.29 c 7.36,0.25 8.25,0.09 8.26,-1.5 0.01,-2.06 -28.89,-83.16 -30.31,-85.04 -0.57,-0.76 -3.37,-1.25 -7.23,-1.25 l -6.29,0 -1.58,4.25 c -10.44,28.03 -29.37,82.27 -28.95,82.95 0.29,0.48 4.15,0.74 8.57,0.58 l 8.03,-0.28 2.50,-7 z m 8.80,-23.42 c -0.86,-1.39 8.55,-28.20 9.76,-27.80 1.34,0.44 9.86,25.81 9.23,27.47 -0.57,1.49 -18.08,1.79 -18.99,0.32 z m 81.21,-4.48 c 0.17,-23.17 0.62,-35.35 1.34,-36.21 0.72,-0.87 4.41,-1.39 11.23,-1.58 l 10.15,-0.28 0,-7 0,-7 -30.75,-0.26 -30.75,-0.26 0,7.48 0,7.48 10.75,0.28 10.75,0.28 0.53,36 c 0.29,19.8 0.62,36.13 0.75,36.29 0.12,0.16 3.70,0.16 7.96,0 l 7.75,-0.29 0.26,-34.91 z m 50.99,-8.83 0.26,-43.75 -7.90,0 c -6.28,0 -8.02,0.32 -8.51,1.58 -0.80,2.09 -0.78,82.78 0.01,84.87 0.51,1.33 1.96,1.57 8.25,1.33 l 7.62,-0.28 0.26,-43.75 z m 111.00,19.28 c 0.14,-13.45 0.65,-24.85 1.13,-25.33 1.11,-1.11 1.52,-0.54 18.96,26.80 l 14.66,23 7.48,0 7.48,0 0,-43.5 0,-43.5 -8,0 -8,0 -0.26,24.46 c -0.14,13.45 -0.64,24.84 -1.10,25.30 -0.45,0.45 -8.16,-10.66 -17.11,-24.71 L 1150.73,1101 l -7.25,0 c -5.69,0 -7.39,0.34 -7.86,1.58 -0.80,2.09 -0.78,82.78 0.01,84.87 0.51,1.33 1.96,1.57 8.25,1.33 l 7.62,-0.28 0.26,-24.46 z M 1228.11,1187 c 0.45,-0.82 1.85,-4.2 3.10,-7.5 l 2.28,-6 14.60,-0.27 c 10.91,-0.20 14.85,0.04 15.61,1 0.55,0.70 1.80,3.75 2.77,6.77 0.97,3.02 2.21,6.06 2.75,6.75 1.38,1.74 15.62,1.71 16.30,-0.03 0.27,-0.70 -6.40,-20.39 -14.83,-43.75 l -15.32,-42.46 -6.92,0 -6.92,0 -15.27,42.5 c -8.40,23.37 -15.05,43.08 -14.78,43.79 0.73,1.93 15.52,1.23 16.63,-0.79 z m 11.27,-29.41 c -0.66,-1.74 7.94,-26.86 9.37,-27.33 1.15,-0.38 10.47,26.55 9.64,27.89 -0.29,0.47 -4.56,0.85 -9.50,0.85 -6.82,0 -9.10,-0.33 -9.51,-1.41 z m 112,29.83 c 0.93,-2.43 0.68,-10.73 -0.36,-12.41 -0.76,-1.21 -4.50,-1.59 -19.73,-2 l -18.78,-0.5 -0.5,-35.5 -0.5,-35.5 -8,0 -8,0 -0.26,42.5 c -0.14,23.37 -0.04,43.06 0.21,43.75 0.36,0.95 6.88,1.25 27.90,1.25 24.08,0 27.49,-0.19 28.03,-1.58 z" style="fill:#003164" /></svg>
