<?xml version="1.0" encoding="UTF-8" standalone="no"?>
<!-- Created with Inkscape (http://www.inkscape.org/) -->

<svg
   xmlns:dc="http://purl.org/dc/elements/1.1/"
   xmlns:cc="http://creativecommons.org/ns#"
   xmlns:rdf="http://www.w3.org/1999/02/22-rdf-syntax-ns#"
   xmlns:svg="http://www.w3.org/2000/svg"
   xmlns="http://www.w3.org/2000/svg"
   xmlns:xlink="http://www.w3.org/1999/xlink"
   version="1.1"
   width="821"
   height="1000"
   id="svg3029">
  <metadata
     id="metadata3035">
    <rdf:RDF>
      <cc:Work
         rdf:about="">
        <dc:format>image/svg+xml</dc:format>
        <dc:type
           rdf:resource="http://purl.org/dc/dcmitype/StillImage" />
        <dc:title></dc:title>
      </cc:Work>
    </rdf:RDF>
  </metadata>
  <defs
     id="defs3033" />
  <g>
    <path
       d="m 405.5,935.58919 c -5.5,-2.39844 -17.2,-7.38891 -26,-11.08993 -8.8,-3.70102 -29.5,-12.47931 -46,-19.50733 C 317,897.96392 290,886.49404 273.5,879.50331 257,872.51258 238.93668,864.81449 233.35928,862.39645 227.78189,859.9784 222.95566,858 222.63432,858 c -0.32133,0 -3.55007,-1.35838 -7.17499,-3.01863 -6.57919,-3.01333 -11.59973,-5.14436 -27.25494,-11.56871 -4.56259,-1.87233 -10.18759,-4.25609 -12.5,-5.29724 C 171.15779,836.06833 161.66624,832.02688 115.5,812.48068 99,805.49479 82.125,798.31874 78,796.5339 73.875,794.74907 63.8625,790.46847 55.75,787.02147 L 41,780.75421 41,421.3771 41,62 l 369,0 369,0 0,356.86344 0,356.86343 -6.25,2.78814 c -3.4375,1.53348 -21.1,9.51401 -39.25,17.73453 -18.15,8.22051 -35.025,15.85361 -37.5,16.96245 -2.475,1.10883 -9.675,4.39067 -16,7.29297 -6.325,2.90231 -20.725,9.43426 -32,14.51546 -11.275,5.0812 -35.35,15.96851 -53.5,24.19403 -18.15,8.22552 -42.225,19.13603 -53.5,24.24559 -11.275,5.10956 -43.916,19.92132 -72.53556,32.91503 -28.61955,12.99371 -52.24455,23.61368 -52.5,23.59993 C 415.709,939.96125 411,937.98763 405.5,935.58919 z m 23.07841,-21.95327 c 6.55688,-2.95025 13.94659,-6.29147 16.42159,-7.42494 13.09574,-5.99744 32.68148,-14.8855 71,-32.22 23.375,-10.57437 52.39657,-23.72582 64.49237,-29.22545 12.09581,-5.49963 22.89581,-10.346 24,-10.7697 1.1042,-0.42371 7.85763,-3.4681 15.00763,-6.76532 7.15,-3.29722 22.675,-10.37598 34.5,-15.73058 11.825,-5.3546 23.3,-10.5531 25.5,-11.55222 2.2,-0.99913 19.975,-9.04027 39.5,-17.86921 19.525,-8.82893 36.625,-16.63818 38,-17.35389 l 2.5,-1.30129 0.25145,-341.21166 L 760.0029,81 410.00001,81 59.997122,81 60.248561,424.74637 60.5,768.49273 l 24,10.27133 c 13.2,5.64923 27.15,11.57516 31,13.16874 3.85,1.59358 13.525,5.68272 21.5,9.08697 25.99662,11.09708 73.2029,31.0887 86.5,36.6323 7.15,2.98086 15.475,6.51478 18.5,7.85317 3.025,1.33839 11.8,5.10454 19.5,8.36923 49.13482,20.83245 117.55432,49.90605 136.5,58.00314 9.075,3.87852 16.98529,7.06772 17.57841,7.08712 0.59313,0.0194 6.44313,-2.37857 13,-5.32881 z M 411.5,898.528 c -1.65,-0.78455 -9.075,-3.97496 -16.5,-7.0898 -7.425,-3.11483 -18,-7.58862 -23.5,-9.94175 -12.0453,-5.15347 -48.94339,-20.77006 -71,-30.04972 -8.8,-3.70234 -18.925,-7.97035 -22.5,-9.48448 -15.16322,-6.42211 -68.0332,-28.82885 -86.5,-36.65943 -11,-4.66438 -26.75,-11.30888 -35,-14.76554 -8.25,-3.45666 -24.675,-10.42163 -36.5,-15.4777 C 108.175,770.0035 93.8875,764.0219 88.25,761.76712 l -10.25,-4.0996 0,-114.83665 0,-114.83664 332,0.009 332,0.009 -0.0275,112.74414 -0.0275,112.74414 -28.72249,12.93608 c -23.98996,10.80464 -53.52229,24.20578 -81.2225,36.85703 -3.025,1.38158 -14.725,6.64911 -26,11.70562 -11.275,5.05651 -23.875,10.77764 -28,12.71362 -4.125,1.93598 -9.075,4.19216 -11,5.01373 -3.52357,1.50383 -44.49024,20.04572 -94.5,42.77157 -46.15216,20.97285 -54.25025,24.50307 -56.15444,24.47958 -1.01507,-0.013 -3.19557,-0.66519 -4.84557,-1.44974 z m -43.10928,-74.12444 c 1.79474,-0.6887 5.70249,-6.97702 4.85956,-7.81995 C 372.92929,816.26262 367.98787,816 362.26935,816 l -10.39732,0 2.24813,-4 2.24812,-4 7.33056,0 c 7.19723,0 7.3666,-0.0591 9.31212,-3.25 1.08986,-1.7875 1.98325,-3.5875 1.9853,-4 C 374.99832,800.3375 371.85,800 368,800 c -3.85,0 -7,-0.24735 -7,-0.54966 0,-1.04272 3.24516,-6.95488 4.77558,-8.70034 1.22517,-1.39732 3.17271,-1.75 9.6638,-1.75 7.91266,0 8.17515,-0.0774 9.84501,-2.90429 0.94359,-1.59736 1.71561,-3.39736 1.71561,-4 0,-0.74942 -5.13562,-1.09496 -16.25,-1.09333 l -16.25,0.002 -2.9667,5.74763 c -1.63169,3.16119 -4.37539,8.22262 -6.09711,11.24762 -9.47675,16.65033 -13.58235,25.29164 -12.37182,26.03978 1.45522,0.89938 33.08189,1.22506 35.32635,0.36378 z m 30.97943,-15.70512 C 409.89346,797.9428 414.07897,794.2308 413.68842,796 c -0.30353,1.375 -0.85846,4.19169 -1.23318,6.25932 -0.50884,2.80765 -1.27119,3.90737 -3.01144,4.34414 -1.28157,0.32166 -2.78748,0.30217 -3.34646,-0.0433 -1.06205,-0.65638 -9.09734,6.01769 -9.09734,7.5562 0,0.486 2.95257,0.88364 6.56127,0.88364 l 6.56128,0 -0.67482,4.5 c -0.75116,5.00907 -1.30798,4.66146 7.88066,4.91967 2.65561,0.0746 5.00842,-0.15562 5.22846,-0.51166 0.22004,-0.35603 2.30287,-0.29939 4.6285,0.12588 8.65113,1.58197 9.78239,0.90709 25.86339,-15.42937 l 14.8683,-15.10452 -1.4229,6 c -0.78259,3.3 -1.43893,6.23545 -1.45852,6.52323 -0.0196,0.28778 -1.92097,0.59771 -4.22529,0.68872 -3.24452,0.12816 -4.82366,0.84385 -7,3.17254 C 452.26465,811.53836 451,813.36594 451,813.94577 451,814.57242 453.53781,815 457.25721,815 l 6.2572,0 -0.34885,4.38622 -0.34885,4.38623 3.84165,0.36377 c 2.1129,0.20008 5.26544,0.22566 7.00563,0.0568 2.9697,-0.2881 3.20523,-0.60677 3.83549,-5.18929 l 0.6715,-4.88235 6.99993,-1.5921 c 24.22707,-5.51033 40.93691,-24.40602 36.80692,-41.62173 -2.4835,-10.3524 -12.206,-21.10588 -24.78024,-27.40797 -4.23075,-2.12041 -5.59498,-2.41471 -6.75,-1.45612 -0.79617,0.66076 -1.44759,1.57175 -1.44759,2.02442 0,0.45266 3.14176,2.47397 6.98169,4.4918 10.30481,5.41502 19.25014,15.77672 21.42831,24.82117 0.43087,1.78911 0.0337,4.97953 -1.04803,8.41862 -2.11747,6.73199 -10.28999,15.61011 -17.93614,19.4847 -5.39217,2.73242 -16.91929,5.55566 -18.05331,4.42164 -0.37558,-0.37557 0.062,-5.1677 0.97231,-10.64917 C 483.87655,779.81238 484.47146,781 474.30357,781 l -8.69643,0 -20.55357,21.17885 c -15.77789,16.25789 -20.62212,20.7161 -20.84858,19.18725 -0.16226,-1.09539 1.04744,-10.26382 2.68822,-20.3743 1.64078,-10.11048 2.75948,-18.74474 2.486,-19.18725 C 429.10572,781.36205 425.13521,781 420.55583,781 l -8.32613,0 -20.62254,21.08305 c -11.3424,11.59568 -20.41822,21.41364 -20.16851,21.81769 0.24972,0.40405 3.29068,0.56848 6.75769,0.36539 l 6.30366,-0.36924 14.87015,-15.19845 z m 90.832,13.5472 c -0.16382,-1.13765 0.17368,-2.35988 0.75,-2.71607 0.64303,-0.39741 1.04785,0.53141 1.04785,2.40422 0,2.91991 0.17289,3.04504 4,2.89508 3.94427,-0.15455 4,-0.21018 4,-3.9928 C 500,818.0929 499.57265,817 498.5,817 c -0.825,0 -1.51368,0.7875 -1.53041,1.75 -0.0269,1.54894 -0.13687,1.56796 -0.957,0.16562 -0.56966,-0.97406 -2.4635,-1.6446 -4.91632,-1.74072 -3.92037,-0.15361 -6.11135,1.07971 -4.11258,2.31502 0.55897,0.34546 1.01631,1.76406 1.01631,3.15243 0,1.58014 0.46754,2.36487 1.25,2.09803 0.6875,-0.23446 1.11597,-1.35709 0.95215,-2.49474 z M 460.08179,775 c 1.44198,0 1.09377,-2.36326 -1.25101,-8.49056 l -2.16922,-5.66853 -3.58078,0.65736 c -4.69201,0.86136 -3.1014,-0.54032 3.91922,-3.45373 15.52801,-6.44378 32.21259,-15.98099 36.05324,-20.60869 1.09686,-1.32164 1.07713,-1.7481 -0.11754,-2.54027 -2.83531,-1.88004 -13.33711,0.73846 -26.4357,6.59141 -2.75,1.22881 -9.05,3.80857 -14,5.7328 l -9,3.49861 -18.92486,-1.46103 c -17.69452,-1.36604 -19.15729,-1.34801 -22.5,0.27724 -2.40291,1.16831 -3.08331,1.89632 -2.07514,2.22033 0.825,0.26515 4.2,1.53081 7.5,2.8126 3.3,1.28178 7.35,2.84565 9,3.47527 l 3,1.14477 -4.55036,1.81108 c -13.46459,5.35904 -45.34315,6.6821 -55.11412,2.28741 -7.57899,-3.40881 -8.13262,-7.33395 -1.7875,-12.67302 6.8362,-5.75228 19.18682,-10.4421 34.95198,-13.27209 12.07454,-2.16748 51.61078,-2.47214 63,-0.48546 4.125,0.71954 8.625,1.46945 10,1.66646 2.81658,0.40357 9,-1.27308 9,-2.44038 0,-0.92567 -7.84105,-2.66148 -18,-3.98473 -34.48388,-4.4917 -73.09472,-0.62099 -92.80176,9.30332 -20.92075,10.53552 -20.59862,22.44912 0.80176,29.65237 13.13777,4.42211 35.3929,3.74488 58.27622,-1.77336 12.08016,-2.91309 11.62258,-2.96973 25.22378,3.12248 4.4,1.97084 8.5993,3.36172 9.33179,3.09084 0.73248,-0.27087 1.74498,-0.4925 2.25,-0.4925 z M 291.78324,691.59325 c 4.83492,-2.46705 8.19009,-5.60796 12.13779,-11.36266 6.66961,-9.72253 9.89732,-26.49032 6.39672,-33.23059 -4.96863,-9.5669 -19.32866,-8.78909 -29.72796,1.61021 -9.5425,9.5425 -15.5221,30.81865 -11.07722,39.4141 3.25869,6.30162 13.65124,7.96705 22.27067,3.56894 z m -12.26861,-9.57708 c -4.10533,-4.53634 0.71433,-21.49797 7.90187,-27.80871 4.90237,-4.30434 8.06746,-4.98728 11.42055,-2.46423 2.36515,1.77967 2.66251,2.67307 2.65899,7.98886 -0.005,7.58836 -5.13893,18.44586 -10.39392,21.98166 -4.22324,2.84158 -9.17267,2.97076 -11.58749,0.30242 z m 192.10129,10.3618 c 3.6961,-1.75391 11.63041,-10.01985 13.98096,-14.56531 L 487.05136,675 l -4.9905,0 c -4.16391,0 -5.18321,0.37267 -6.15403,2.25 -3.18736,6.16357 -10.83602,8.6957 -14.39329,4.76496 -5.0857,-5.61963 3.32905,-26.96211 12.07045,-30.6145 4.10135,-1.71365 8.35543,-0.43121 8.54101,2.57479 0.0688,1.11361 0.18125,2.58725 0.25,3.27475 0.0754,0.75429 1.97275,1.3694 4.78432,1.55109 4.47177,0.28897 4.6863,0.17827 5.32946,-2.75 1.82214,-8.29616 -4.07701,-16.06167 -12.18912,-16.04551 -6.31703,0.0126 -10.65807,2.16754 -16.80989,8.34467 -7.50034,7.5312 -12.29671,17.95894 -13.19637,28.69009 -0.65377,7.79818 0.57923,11.92771 4.47682,14.99355 3.1531,2.48023 11.96481,2.66021 16.8457,0.34408 z m 62.17392,-0.29034 c 4.97668,-2.56519 12.36516,-10.59106 13.65927,-14.83763 0.63325,-2.07799 0.37343,-2.25 -3.39855,-2.25 -3.5351,0 -4.66391,0.60501 -8.39597,4.5 -4.68946,4.89419 -9.0586,5.95313 -12.08316,2.92857 -3.49081,-3.49081 -0.0974,-18.90843 5.71329,-25.95781 C 535.46837,648.96892 544,648.39174 544,655.47525 l 0,3.52475 4.92054,0 c 4.55665,0 4.96465,-0.20338 5.51686,-2.75 1.0216,-4.71136 -1.59385,-11.43554 -5.47771,-14.08286 -2.87815,-1.96182 -4.32325,-2.2722 -8.59717,-1.84654 -2.82562,0.28142 -6.56163,1.24813 -8.30226,2.14824 -11.06819,5.72358 -20.77728,24.9296 -19.86278,39.29153 0.36991,5.80937 0.75666,6.80946 3.62409,9.37151 2.71288,2.42396 4.06544,2.86812 8.73404,2.86812 3.47963,0 6.89718,-0.70776 9.23423,-1.91237 z m 82.57993,-1.09897 c 5.18072,-3.49394 8.92946,-9.87657 12.62104,-21.48866 1.7485,-5.5 4.46679,-13.96086 6.04065,-18.80191 3.1449,-9.67346 2.99843,-10.11102 -3.18626,-9.51855 L 628.5,641.5 l -6.20841,19 c -6.83163,20.90728 -8.47208,23.5 -14.86879,23.5 -6.32543,0 -6.32474,-2.25966 0.007,-21.78228 3.06343,-9.44731 5.5702,-18.05891 5.5702,-19.13688 0,-1.6686 -0.63111,-1.93177 -4.24571,-1.77039 L 604.50859,641.5 598.6628,659 c -7.23038,21.6449 -7.92448,28.64623 -3.24011,32.6827 2.64815,2.28188 3.59596,2.48446 10.08983,2.15653 5.58688,-0.28212 7.98075,-0.91063 10.85725,-2.85057 z M 147.30769,687.99898 150.11537,683 l 7.19232,-6.2e-4 7.19231,-6.2e-4 -0.34651,5.00062 -0.34652,5.00062 4.99123,0 4.99123,0 0.66034,-15.75 c 0.36319,-8.6625 0.74807,-20.21081 0.85529,-25.6629 l 0.19494,-9.91291 -4.66225,-0.36469 c -4.1618,-0.32555 -4.87228,-0.0665 -6.61878,2.4129 C 161.48284,647.60678 135,691.76699 135,692.44511 c 0,0.30519 2.1375,0.55443 4.75,0.55387 4.65843,-9.9e-4 4.80412,-0.0974 7.55769,-5 z m 13.54248,-23.39513 c 2.55741,-4.61789 4.81183,-7.9569 5.00982,-7.42002 0.198,0.53687 0.0471,4.31514 -0.33532,8.39615 L 164.82936,673 l -4.31451,0 -4.31451,0 4.64983,-8.39615 z m 53.55583,23.71801 c 0.8767,-2.57298 1.594,-4.82298 1.594,-5 C 216,683.14484 211.01968,683 204.93261,683 c -10.06556,0 -11.0218,-0.15841 -10.56376,-1.75 0.277,-0.9625 1.05355,-3.6625 1.72568,-6 l 1.22205,-4.25 9.70585,0 9.70585,0 1.63586,-4.28343 c 0.89972,-2.35589 1.63586,-4.60589 1.63586,-5 C 220,661.32246 215.725,661 210.5,661 c -5.225,0 -9.5,-0.28529 -9.5,-0.63398 0,-0.34869 0.52123,-2.37369 1.15829,-4.5 1.29814,-4.33282 0.88877,-4.20084 13.32729,-4.29674 8.66781,-0.0668 9.02983,-0.16152 10.2367,-2.67769 0.68812,-1.43462 1.36961,-3.68462 1.51442,-5 L 227.5,641.5 l -14.95818,0 -14.95818,0 -8.27616,25.5 c -4.55189,14.025 -8.28321,25.6125 -8.29182,25.75 -0.009,0.1375 7.14204,0.25 15.89034,0.25 l 15.906,0 1.594,-4.67814 z M 233.85247,683 l 3.27777,-10 5.31244,0 c 7.57435,0 8.1893,1.12018 5.62731,10.25058 -2.85277,10.16665 -2.9402,9.90404 3.18001,9.55168 3.94851,-0.22733 5.17222,-0.65956 4.93624,-1.74355 -0.17257,-0.7927 0.65687,-5.24669 1.84319,-9.89775 1.62922,-6.38746 1.9034,-9.01297 1.12063,-10.73097 -0.87566,-1.92185 -0.65875,-2.52189 1.39907,-3.87023 C 263.93525,664.3411 268,655.90116 268,651.08901 c 0,-2.76265 -0.73703,-4.83444 -2.41311,-6.78325 -2.36647,-2.75152 -2.65311,-2.81249 -14.8267,-3.15382 l -12.41358,-0.34805 -1.57783,4.34805 C 232.24148,657.62791 222,690.02124 222,691.86492 222,692.53519 223.75563,693 226.28735,693 l 4.28735,0 3.27777,-10 z m 6.39488,-20.25 c 0.25374,-0.6875 1.23805,-3.6125 2.18736,-6.5 l 1.72602,-5.25 5.79719,0 c 6.62958,0 8.64209,1.47325 7.61308,5.57314 -0.35878,1.42951 -1.73858,3.68535 -3.06621,5.01298 -2.02871,2.02871 -3.39559,2.41388 -8.56632,2.41388 -4.50134,0 -6.02864,-0.33546 -5.69112,-1.25 z m 96.43755,29.18867 c 8.8365,-3.33149 16.35622,-17.14079 12.99873,-23.87103 -1.35618,-2.71852 -1.31474,-3.09141 0.52885,-4.75865 5.92356,-5.35693 7.56725,-15.28736 3.20856,-19.38468 C 350.98479,641.63416 350.1723,641.5 338.73931,641.5 l -12.10276,0 -4.20745,13 C 315.06475,677.25403 311,690.51032 311,691.77344 c 0,1.57429 21.57928,1.7131 25.6849,0.16523 z M 323,682.33789 c 0,-0.36416 0.75718,-3.06416 1.68262,-6 L 326.36524,671 l 6.19494,0 c 8.89475,0 10.50049,2.83927 5.32602,9.41754 C 336.07855,682.7156 335.147,683 329.42742,683 325.89234,683 323,682.70205 323,682.33789 z M 330.40744,658.75 c 0.35239,-1.2375 0.91112,-3.4875 1.24163,-5 0.56334,-2.57796 0.93207,-2.75 5.89414,-2.75 6.85122,0 8.45679,0.68481 8.45679,3.60699 0,4.32392 -3.27423,6.39301 -10.11663,6.39301 -5.86635,0 -6.09042,-0.0921 -5.47593,-2.25 z m 31.13588,29.26984 2.95668,-4.98015 7.20289,-0.0198 7.20288,-0.0198 -0.59218,5 -0.59217,5 5.05397,0 5.05397,0 0.58032,-7.25 c 0.31917,-3.9875 0.69507,-15.575 0.83532,-25.75 l 0.255,-18.5 -4.83195,-0.18017 c -4.67058,-0.17416 -4.91644,-0.0406 -7.36179,4 -1.39141,2.29909 -8.14757,13.40517 -15.01369,24.68017 -6.86613,11.275 -12.71397,21.0625 -12.99521,21.75 -0.36796,0.89951 0.86268,1.25 4.38897,1.25 4.81531,0 4.9516,-0.0864 7.85699,-4.98016 z M 371.01128,672.25 c 0.006,-0.4125 2.02613,-4.125 4.48872,-8.25 l 4.47743,-7.5 2.8e-4,4.5 c 1.5e-4,2.475 -0.27865,6.1875 -0.61956,8.25 -0.5918,3.5804 -0.79483,3.75 -4.48899,3.75 -2.12804,0 -3.86408,-0.3375 -3.85788,-0.75 z m 43.92157,0.25856 6.43285,-20.48654 3.33111,-0.62492 c 1.83211,-0.3437 4.44697,-0.41161 5.8108,-0.15089 1.36383,0.26071 2.85073,-0.0255 3.30423,-0.6361 1.24849,-1.68089 3.04326,-8.42167 2.41073,-9.0542 C 435.91683,641.25016 428.37001,641 419.45187,641 l -16.21479,0 -1.55688,4.72909 c -0.85629,2.601 -1.17738,4.9635 -0.71354,5.25 0.46383,0.2865 3.13064,0.52091 5.92624,0.52091 4.0539,0 4.99069,0.30366 4.62741,1.5 -1.03496,3.4083 -7.56244,24.0638 -9.95069,31.48788 -1.41329,4.39333 -2.56962,8.10583 -2.56962,8.25 0,0.14417 2.1375,0.26102 4.75,0.25967 l 4.75,-0.002 6.43285,-20.48654 z M 437.57354,688.5 c 5.68133,-16.50433 14.42002,-45.7014 13.9204,-46.5098 -0.8771,-1.41919 -7.06665,-1.22369 -8.22553,0.2598 -0.73886,0.94584 -11.77203,34.9681 -15.90923,49.0583 -0.46705,1.59063 0.0329,1.77119 4.15324,1.5 4.47729,-0.29468 4.74501,-0.48498 6.06112,-4.3083 z m 144.26817,0.63398 C 583.71017,682.89762 583.8494,683 573.5,683 c -5.225,0 -9.5,-0.24556 -9.5,-0.54569 0,-0.64413 3.75162,-12.64341 8.67245,-27.73822 1.93353,-5.93115 3.25183,-11.47103 2.92956,-12.31084 -0.41371,-1.07812 -1.68351,-1.43557 -4.32005,-1.21609 l -3.73411,0.31084 -8.20219,25 c -4.5112,13.75 -8.23447,25.3375 -8.27392,25.75 -0.0395,0.4125 6.60703,0.75 14.76997,0.75 l 14.84171,0 1.15829,-3.86602 z m 78.25101,1.55902 c 8.18845,-4.28627 13.70748,-15.93273 10.83567,-22.86588 -1.0998,-2.65515 -1.04583,-3.18189 0.40946,-3.99631 4.33056,-2.42351 7.20549,-14.07854 4.65038,-18.8528 -0.55647,-1.03977 -2.69397,-2.35768 -4.75,-2.92868 -5.40377,-1.50073 -21.75514,-1.35781 -22.95854,0.20067 -0.93134,1.20614 -16.34169,48.47675 -16.30015,50 0.0112,0.4125 5.34968,0.75 11.86318,0.75 10.42777,0 12.36929,-0.27564 16.25,-2.307 z m -15.51726,-9.943 c 0.39063,-1.2375 1.25374,-3.825 1.91802,-5.75 l 1.20778,-3.5 6.89937,0 c 6.69307,0 6.90843,0.078 7.20232,2.61035 0.19574,1.68665 -0.6319,3.72135 -2.3389,5.75 -2.46088,2.92459 -3.0856,3.13965 -9.12033,3.13965 -6.26221,0 -6.45478,-0.0751 -5.76826,-2.25 z M 651,660.67814 c 0,-0.17702 0.7173,-2.42702 1.594,-5 L 654.188,651 l 4.97174,0 c 8.496,0 10.6862,2.38355 6.76768,7.36514 -1.85497,2.35821 -2.74743,2.63486 -8.5,2.63486 C 653.89234,661 651,660.85516 651,660.67814 z M 514.47329,625.46931 C 525.96573,620.03251 535,604.09059 535,589.24774 c 0,-7.62708 -1.80346,-11.30672 -6.68177,-13.63303 -7.02369,-3.34937 -17.04695,-0.58508 -24.40539,6.73069 -6.75646,6.71729 -12.91518,21.64695 -12.91129,31.29894 0.005,12.08949 11.09854,17.67843 23.47174,11.82497 z M 503,616 c -2.6164,-2.6164 -2.56572,-7.23471 0.1709,-15.57102 4.00527,-12.20089 14.30036,-19.93243 19.85172,-14.90851 5.62019,5.0862 -1.29855,26.46814 -10.02465,30.98058 C 509.01489,618.56078 505.37854,618.37854 503,616 z M 183.82082,601.75 c 4.49937,-13.8875 8.18033,-25.5875 8.17992,-26 -9.5e-4,-0.96463 -7.15535,-0.95188 -8.59213,0.0153 C 182.31391,576.50222 167,623.03179 167,625.62099 167,626.5802 168.31513,627 171.32008,627 l 4.32007,0 8.18067,-25.25 z m 15.26777,8.75408 c 2.8891,-9.07275 5.45101,-16.29781 5.69314,-16.05569 0.24212,0.24213 1.4269,7.55279 2.63284,16.24592 l 2.19262,15.80569 4.61514,0.30147 4.61514,0.30147 6.1456,-19.30147 c 3.38008,-10.61581 7.03933,-21.95629 8.13166,-25.20107 2.25506,-6.69868 1.73186,-7.8983 -3.23757,-7.42324 L 226.5,575.5 221.06046,592 215.62092,608.5 213.56046,593 c -1.13325,-8.525 -2.42452,-16.0625 -2.86948,-16.75 -0.97462,-1.50587 -8.30937,-1.67648 -9.21305,-0.21429 -1.29229,2.09096 -16.18772,49.48857 -15.78062,50.21429 0.2314,0.4125 2.1572,0.75 4.27955,0.75 l 3.85883,0 5.2529,-16.49592 z M 252.8411,608.25 c 3.28381,-10.3125 6.26826,-19.7625 6.63212,-21 0.5951,-2.02397 1.29186,-2.25 6.93588,-2.25 l 6.27432,0 1.2046,-4.02057 c 0.66252,-2.21131 0.92479,-4.4733 0.5828,-5.02664 -0.69122,-1.11843 -30.44591,-1.23196 -32.12777,-0.12259 -0.97171,0.64095 -3.34305,6.54192 -3.34305,8.31902 0,0.46793 2.74814,0.85078 6.10699,0.85078 5.4296,0 6.02544,0.19411 5.37175,1.75 C 249.31572,589.51817 238,625.27659 238,626.18363 c 0,0.449 1.99587,0.81637 4.43527,0.81637 l 4.43527,0 5.97056,-18.75 z m 46.00061,14.88398 C 300.72135,616.8603 300.9341,617 289.5,617 c -11.74486,0 -11.4761,0.22096 -8.906,-7.32186 L 282.188,605 l 9.70511,0 9.70511,0 1.34222,-3.75 c 0.73821,-2.0625 1.55176,-4.3125 1.80787,-5 0.35226,-0.94557 -1.87404,-1.25 -9.14132,-1.25 C 290.32314,595 286,594.74927 286,594.44282 c 0,-0.30645 0.49983,-2.54218 1.11073,-4.96828 l 1.11073,-4.41111 11.03071,-0.28171 11.03071,-0.28172 1.27212,-4.31456 c 0.99083,-3.36053 1.00419,-4.41736 0.0604,-4.77953 -0.66644,-0.25574 -7.49004,-0.33919 -15.16356,-0.18544 L 282.5,575.5 l -2.68871,8 c -7.08455,21.07934 -13.53645,42.07491 -13.13702,42.75 0.24407,0.4125 7.32098,0.75 15.72646,0.75 l 15.28269,0 1.15829,-3.86602 z m 19.82865,-5.88398 2.98545,-9.75 5.42209,-0.2593 c 8.26245,-0.39512 8.67354,0.20728 6.08993,8.924 -3.21466,10.84577 -3.17068,10.99756 3.08217,10.63756 4.82643,-0.27787 5.22423,-0.4869 4.93061,-2.5908 -0.17566,-1.2587 0.68003,-5.65508 1.90153,-9.76973 1.74423,-5.87545 1.98853,-7.99121 1.1382,-9.85747 -0.9384,-2.05957 -0.69738,-2.71962 1.80825,-4.95215 7.84148,-6.98679 9.18562,-20.39096 2.35677,-23.50239 -2.72521,-1.24169 -23.19909,-1.53977 -25.02951,-0.36441 -0.62928,0.40408 -3.4797,8.15969 -6.33426,17.23469 -2.85456,9.075 -6.47602,20.16368 -8.04768,24.6415 -1.57166,4.47783 -2.58374,8.41533 -2.24907,8.75 0.33467,0.33468 2.4876,0.6085 4.78428,0.6085 l 4.17578,0 2.98546,-9.75 z m 7.46748,-23.5 c 2.90735,-9.14001 2.48551,-8.75 9.46443,-8.75 5.87326,0 6.40554,0.18296 6.96005,2.3923 0.6964,2.77465 -1.72482,8.07234 -4.10712,8.98652 C 337.56487,596.72047 334.19664,597 330.97023,597 l -5.86619,0 1.0338,-3.25 z m 37.4114,16.25 c 2.91141,-9.075 5.50972,-15.825 5.77402,-15 0.2643,0.825 1.2294,7.125 2.14467,14 2.60078,19.53567 1.99701,18 7.07698,18 l 4.38601,0 8.09046,-25.00501 c 4.44975,-13.75276 7.82616,-25.43266 7.50314,-25.95532 -0.55956,-0.90539 -7.03659,-0.88338 -7.90397,0.0268 -0.22719,0.23842 -2.64619,7.57985 -5.37557,16.3143 -5.57545,17.84239 -5.18459,17.96072 -7.864,-2.38082 -0.97803,-7.425 -2.2051,-13.7925 -2.72682,-14.15 -0.52172,-0.3575 -2.39109,-0.65 -4.15416,-0.65 -1.76307,0 -3.66449,0.2925 -4.22539,0.65 -0.5609,0.3575 -3.35619,8.075 -6.21175,17.15 -2.85555,9.075 -6.28788,19.72082 -7.62739,23.65737 -3.40516,10.0071 -3.31907,10.52345 1.69241,10.15013 l 4.12788,-0.3075 5.29348,-16.5 z m 39.36385,11.5 3.10401,-5.5 6.95931,0 6.95932,0 -0.21787,5.25 -0.21786,5.25 4.68093,0.30197 4.68094,0.30197 0.57038,-4.30197 C 429.74596,620.43589 430.11454,608.825 430.25132,597 l 0.24868,-21.5 -4.83655,0 -4.83655,0 -5.54755,9 c -15.36467,24.92672 -25.01124,41.43477 -24.50719,41.93882 0.30864,0.30865 2.46822,0.56118 4.79905,0.56118 4.09391,0 4.34332,-0.18684 7.34188,-5.5 z M 412,606.35 c 0,-1.02425 8.43683,-15.32406 9.0492,-15.33774 0.55193,-0.0123 0.34064,3.84951 -0.64221,11.73774 -0.52219,4.19102 -0.5842,4.25 -4.46826,4.25 C 413.77243,607 412,606.7075 412,606.35 z m 44.25734,-0.30486 6.75734,-20.95009 6.14604,-0.29752 6.14604,-0.29753 1.35917,-3.93745 c 0.74754,-2.1656 0.9817,-4.31492 0.52034,-4.77628 -0.46135,-0.46135 -7.99092,-0.7145 -16.73237,-0.56255 l -15.89355,0.27628 -1.76251,4.75 -1.7625,4.75 6.09896,0 c 5.34203,0 6.03375,0.21719 5.57354,1.75 -1.8708,6.23101 -5.99865,19.31192 -8.97879,28.45319 -1.91913,5.88676 -3.24327,10.94926 -2.94253,11.25 0.30075,0.30075 2.38431,0.54574 4.63015,0.54442 l 4.08333,-0.002 6.75734,-20.95009 z M 485.14794,602.5 c 4.30064,-13.2 7.8267,-24.81337 7.8357,-25.8075 0.0136,-1.50428 -0.67951,-1.75591 -4.1318,-1.5 -2.40173,0.17804 -4.48701,0.93902 -4.95302,1.8075 -1.76649,3.29212 -15.7462,48.43793 -15.2485,49.24323 0.29328,0.47454 2.36588,0.72644 4.60576,0.55978 l 4.07253,-0.30301 7.81933,-24 z m 62.04698,8.04638 c 2.87715,-9.04949 5.39293,-16.29186 5.59062,-16.09417 0.19769,0.19769 1.23821,6.58932 2.31226,14.20361 2.80636,19.89519 2.17624,18.34418 7.45264,18.34418 2.74248,0 4.65994,-0.49028 4.88868,-1.25 0.69266,-2.30063 12.67383,-40.19187 14.13232,-44.69444 1.67975,-5.1856 0.97312,-6.32658 -3.64058,-5.8784 l -3.32345,0.32284 -5.18681,15.79977 c -2.85274,8.68987 -5.37089,15.98386 -5.59589,16.20885 -0.22499,0.225 -1.22856,-6.2099 -2.23015,-14.29977 -1.00159,-8.08987 -2.23594,-15.49635 -2.743,-16.45885 -0.95972,-1.82174 -6.26265,-2.41144 -8.55927,-0.95181 -0.66424,0.42217 -3.06877,6.60278 -5.34339,13.73469 -2.27463,7.13192 -5.82887,18.14212 -7.89832,24.46712 -2.06944,6.325 -3.57586,11.8375 -3.34759,12.25 0.22828,0.4125 2.18033,0.75 4.3379,0.75 l 3.92286,0 5.23117,-16.45362 z m 39.34432,11.18611 3.03925,-5.23249 7.245,-0.2945 7.24499,-0.2945 -0.28424,5.2945 -0.28424,5.2945 4.65286,0.30082 4.65287,0.30083 0.58699,-9.30083 C 613.71557,612.68537 614.09678,601.075 614.23986,592 l 0.26014,-16.5 -2.87083,-0.32808 c -4.91865,-0.56211 -7.34195,0.66682 -10.00226,5.07246 -1.41335,2.34059 -8.1479,13.48062 -14.96566,24.75562 -6.81777,11.275 -12.20408,20.8375 -11.96958,21.25 0.2345,0.4125 2.31231,0.74212 4.61735,0.73249 3.99401,-0.0167 4.33382,-0.26344 7.23022,-5.25 z M 596,606.25522 c 0,-0.27995 1.9125,-3.9394 4.25,-8.13211 l 4.25,-7.62311 0.30612,5.95833 c 0.47451,9.2358 -0.0781,10.42636 -4.80943,10.36106 C 597.79851,606.78905 596,606.53518 596,606.25522 z M 651.16778,622.75 c 0.68468,-2.3375 1.26453,-4.63534 1.28855,-5.10631 0.024,-0.47098 -4.11118,-0.83907 -9.18933,-0.81799 -5.07815,0.0211 -9.41326,-0.26858 -9.63358,-0.64369 -0.22031,-0.3751 2.44801,-9.42635 5.92962,-20.11389 3.4816,-10.68753 6.09433,-19.81349 5.80606,-20.27992 -0.28826,-0.46642 -2.3691,-0.71895 -4.62407,-0.56117 l -4.09996,0.28686 -3.34798,10.49306 c -1.84139,5.77118 -5.36153,16.64967 -7.82254,24.17444 -2.461,7.52476 -4.47455,14.38726 -4.47455,15.25 0,1.3525 1.99235,1.56861 14.46146,1.56861 l 14.46145,0 1.24487,-4.25 z M 77.462175,509.75 C 77.200894,509.0625 77.102517,416.7 77.24356,304.5 L 77.5,100.5 408,100 C 589.775,99.725 739.2875,99.664984 740.25,99.866631 741.9098,100.21436 742,110.81976 742,305.61663 L 742,511 409.96862,511 C 145.26354,511 77.840903,510.74654 77.462175,509.75 z M 590.6632,462.41365 c 4.48977,-0.76649 12.36477,-2.80026 17.5,-4.51949 C 642.50401,446.39719 668.21064,422.72011 686.76286,385.5 690.97656,377.04634 699,357.38754 699,355.51694 c 0,-0.31373 -6.59189,-0.44588 -14.64864,-0.29367 l -14.64863,0.27673 -5.41239,8.75 -5.4124,8.75 -9.43897,0 C 641.01626,373 640,372.8062 640,371.2 c 0,-0.99 0.37439,-2.2275 0.83198,-2.75 C 641.80924,367.33411 646,357.13024 646,355.86665 646,355.38999 641.52278,355 636.05062,355 l -9.94937,0 -4.06884,7.82082 c -7.40659,14.23639 -17.74332,23.5665 -29.5024,26.62935 -19.02259,4.95475 -32.78255,-2.25202 -39.13154,-20.49512 C 551.81081,364.39308 551.5,360.60222 551.5,345.8 c 0,-10.49145 0.40726,-18.09212 1,-18.66282 1.19024,-1.14598 30.50242,-5.34414 56.82523,-8.13864 10.35388,-1.0992 19.01638,-1.99854 19.25,-1.99854 1.17898,0 0.14768,3.47868 -2.07523,7 -3.19584,5.06254 -3.1442,6 0.33048,6 2.20921,0 3.5398,-0.98771 6.06214,-4.5 1.77741,-2.475 3.79189,-4.5 4.47663,-4.5 2.18941,0 22.70273,3.92645 23.68504,4.53355 0.52014,0.32147 0.94571,1.14433 0.94571,1.82859 0,0.68426 -4.05,10.39643 -9,21.58261 -4.95,11.18617 -9,20.52033 -9,20.74256 0,0.22224 3.00276,0.27101 6.6728,0.10838 l 6.6728,-0.29569 6.87042,-11 c 3.77873,-6.05 9.98061,-15.8375 13.78194,-21.75 l 6.91151,-10.75 6.46348,0 c 3.55491,0 7.19192,-0.27953 8.08225,-0.62118 4.68487,-1.79776 6.31036,-14.87056 2.37049,-19.06437 C 700.62981,305.0415 699.05481,304 698.32569,304 697.59656,304 697,303.79101 697,303.53559 c 0,-0.25543 2.43984,-5.41518 5.42186,-11.46613 C 710.22061,276.24471 710.1387,277 704.05618,277 l -5.0786,0 -8.73879,11.20423 c -4.80634,6.16233 -10.1529,12.78476 -11.88127,14.71652 l -3.14247,3.51228 -5.70874,-1.79952 c -6.50791,-2.05144 -9.29974,-1.65622 -13.08563,1.85242 -2.56159,2.374 -8.89746,4.37062 -10.0888,3.17928 -0.31618,-0.31618 0.6048,-2.58782 2.04663,-5.04811 C 649.82033,302.15682 651,299.88649 651,299.57193 651,299.25737 649.47841,299 647.61869,299 c -2.70437,0 -3.92866,0.71761 -6.11529,3.58443 l -2.73397,3.58442 -3.18232,-3.08442 C 633.83683,301.38799 631.37234,300 630.11047,300 c -2.1445,0 -2.27199,0.34282 -1.95239,5.25 L 628.5,310.5 597,311.63546 c -17.325,0.62451 -33.75,1.29951 -36.5,1.5 l -5,0.36454 0.16612,-4.01623 c 0.24213,-5.85366 7.72716,-27.42023 13.52995,-38.98377 10.68486,-21.29227 22.52061,-33.35142 37.77831,-38.49137 12.11972,-4.08284 27.01366,-1.77138 33.75727,5.23894 4.19034,4.35608 7.26835,12.5248 7.26835,19.28945 l 0,5.46298 34.90181,0 34.90182,0 0.69147,-5.95778 c 1.35655,-11.68815 -1.4672,-34.14857 -5.98531,-47.60779 -10.1374,-30.1988 -32.99284,-47.35139 -68.61805,-51.49658 -57.45643,-6.68539 -109.88349,26.43835 -141.22276,89.2254 -10.78546,21.60824 -17.88528,42.67259 -22.22652,65.94345 l -1.79215,9.60671 -17.1792,2.90183 -17.1792,2.90184 -0.73259,-84.50854 c -0.40293,-46.4797 -0.84824,-84.62567 -0.98959,-84.76884 -0.14134,-0.14316 -20.50961,-0.14316 -45.2628,0 l -45.00581,0.2603 3.43724,11.00323 3.43725,11.00323 -21.20424,35.49677 C 303.39297,273.88891 275.8475,320.02336 250.80116,362 237.83844,383.725 219.08024,415.1621 209.11629,431.86021 199.15233,448.55833 191,462.62083 191,463.11021 191,463.61426 207.41505,464 228.86503,464 l 37.86504,0 4.60612,-7.92739 c 11.82917,-20.35863 35.03836,-42.43025 62.44189,-59.38138 C 344.40827,390.11566 372.15168,376 374.44534,376 375.82801,376 376,380.86924 376,420.0133 l 0,44.0133 33.75,-0.2633 33.75,-0.2633 0.25813,-57.10383 0.25812,-57.10383 12.74188,-3.29056 c 7.00803,-1.8098 14.1406,-3.49237 15.85016,-3.73903 l 3.1083,-0.44848 0.0321,18.34287 c 0.0544,31.06647 5.16259,51.8143 17.28264,70.19683 13.07376,19.82902 34.64741,31.868 60.96864,34.02298 7.50102,0.61413 27.99363,-0.48324 36.6632,-1.9633 z M 325,360.42807 c 0,-0.31456 1.08964,-2.45206 2.42142,-4.75 1.33178,-2.29794 12.38072,-22.40307 24.5532,-44.67807 12.17247,-22.275 22.55783,-40.9275 23.07857,-41.45 0.5958,-0.59781 0.94681,13.18242 0.94681,37.17054 l 0,38.12055 -3.00612,0.66025 c -4.29228,0.94275 -24.76435,7.6324 -36.36317,11.8824 C 326.67299,361.0324 325,361.47031 325,360.42807 z M 176.68737,458.5 c 1.63421,-5.85135 8.97629,-30.93308 20.34448,-69.5 4.45833,-15.125 11.19055,-38.075 14.96049,-51 3.76994,-12.925 8.71354,-29.8 10.98578,-37.5 13.10232,-44.40015 16.50322,-55.92822 19.02816,-64.5 1.5391,-5.225 5.12491,-17.375 7.96846,-27 2.84355,-9.625 5.80746,-19.75 6.58646,-22.5 0.779,-2.75 2.93254,-10.175 4.78565,-16.5 l 3.36929,-11.5 -44.51433,-0.2604 c -24.48288,-0.14323 -44.74953,-0.0252 -45.03699,0.26224 -0.28745,0.28746 1.12945,6.02964 3.14869,12.76041 l 3.67133,12.23775 -3.0523,10 c -1.67876,5.5 -5.00285,16.75 -7.38685,25 -2.384,8.25 -11.85309,40.425 -21.04243,71.5 -9.18933,31.075 -19.61693,66.4 -23.17243,78.5 -3.55551,12.1 -7.80091,26.5 -9.43423,32 -1.63333,5.5 -4.73334,16.075 -6.88893,23.5 -2.15558,7.425 -5.51276,18.675 -7.4604,25 -1.94763,6.325 -3.54253,12.29291 -3.54421,13.26203 -0.003,1.65618 2.25826,1.74628 37.6424,1.5 l 37.64547,-0.26203 1.39644,-5 z m 568.9793,365.83333 C 745.3,823.96667 745,820.36667 745,816.33333 L 745,809 l -3,0 c -1.65,0 -3,-0.45 -3,-1 0,-0.57778 3.16667,-1 7.5,-1 4.33333,0 7.5,0.42222 7.5,1 0,0.55 -1.35,1 -3,1 l -3,0 0,8 c 0,7.3493 -0.55937,9.1073 -2.33333,7.33333 z m 13,0 C 758.3,823.96667 758,819.88678 758,815.26691 l 0,-8.39975 2.69462,0.31642 c 2.20716,0.25918 3.07107,1.25571 4.77554,5.50862 1.1445,2.85571 2.34657,5.45786 2.67127,5.78256 0.3247,0.3247 1.61445,-2.14803 2.86612,-5.49495 2.01655,-5.3922 2.55645,-6.05083 4.74016,-5.78256 2.28008,0.28011 2.46634,0.71413 2.49027,5.80275 0.0449,9.53709 -0.20923,12 -1.23798,12 -0.5641,0 -1,-2.83333 -1,-6.5 0,-3.575 -0.39513,-6.5 -0.87807,-6.5 -0.48295,0 -1.89139,2.70956 -3.12988,6.02125 -1.23848,3.31168 -2.59236,6.23173 -3.00861,6.48899 -1.14337,0.70664 -2.49069,-1.45135 -4.53285,-7.26024 -1.01512,-2.8875 -2.20678,-5.25 -2.64813,-5.25 -0.44135,0 -0.80246,2.925 -0.80246,6.5 0,5.9949 -0.62051,7.54616 -2.33333,5.83333 z"
       id="path3047"
       style="fill:#0057ef" />

    <path
       d="M 77.462175,509.75 C 77.200894,509.0625 77.102517,416.7 77.24356,304.5 L 77.5,100.5 408,100 C 589.775,99.725 739.2875,99.664984 740.25,99.866631 741.9098,100.21436 742,110.81976 742,305.61663 L 742,511 409.96862,511 C 145.26354,511 77.840903,510.74654 77.462175,509.75 z M 590.6632,462.41365 c 4.48977,-0.76649 12.36477,-2.80026 17.5,-4.51949 C 642.50401,446.39719 668.21064,422.72011 686.76286,385.5 690.97656,377.04634 699,357.38754 699,355.51694 c 0,-0.31373 -6.59189,-0.44588 -14.64864,-0.29367 l -14.64863,0.27673 -5.41239,8.75 -5.4124,8.75 -9.43897,0 C 641.01626,373 640,372.8062 640,371.2 c 0,-0.99 0.37439,-2.2275 0.83198,-2.75 C 641.80924,367.33411 646,357.13024 646,355.86665 646,355.38999 641.52278,355 636.05062,355 l -9.94937,0 -4.06884,7.82082 c -7.40659,14.23639 -17.74332,23.5665 -29.5024,26.62935 -19.02259,4.95475 -32.78255,-2.25202 -39.13154,-20.49512 C 551.81081,364.39308 551.5,360.60222 551.5,345.8 c 0,-10.49145 0.40726,-18.09212 1,-18.66282 1.19024,-1.14598 30.50242,-5.34414 56.82523,-8.13864 10.35388,-1.0992 19.01638,-1.99854 19.25,-1.99854 1.17898,0 0.14768,3.47868 -2.07523,7 -3.19584,5.06254 -3.1442,6 0.33048,6 2.20921,0 3.5398,-0.98771 6.06214,-4.5 1.77741,-2.475 3.79189,-4.5 4.47663,-4.5 2.18941,0 22.70273,3.92645 23.68504,4.53355 0.52014,0.32147 0.94571,1.14433 0.94571,1.82859 0,0.68426 -4.05,10.39643 -9,21.58261 -4.95,11.18617 -9,20.52033 -9,20.74256 0,0.22224 3.00276,0.27101 6.6728,0.10838 l 6.6728,-0.29569 6.87042,-11 c 3.77873,-6.05 9.98061,-15.8375 13.78194,-21.75 l 6.91151,-10.75 6.46348,0 c 3.55491,0 7.19192,-0.27953 8.08225,-0.62118 4.68487,-1.79776 6.31036,-14.87056 2.37049,-19.06437 C 700.62981,305.0415 699.05481,304 698.32569,304 697.59656,304 697,303.79101 697,303.53559 c 0,-0.25543 2.43984,-5.41518 5.42186,-11.46613 C 710.22061,276.24471 710.1387,277 704.05618,277 l -5.0786,0 -8.73879,11.20423 c -4.80634,6.16233 -10.1529,12.78476 -11.88127,14.71652 l -3.14247,3.51228 -5.70874,-1.79952 c -6.50791,-2.05144 -9.29974,-1.65622 -13.08563,1.85242 -2.56159,2.374 -8.89746,4.37062 -10.0888,3.17928 -0.31618,-0.31618 0.6048,-2.58782 2.04663,-5.04811 C 649.82033,302.15682 651,299.88649 651,299.57193 651,299.25737 649.47841,299 647.61869,299 c -2.70437,0 -3.92866,0.71761 -6.11529,3.58443 l -2.73397,3.58442 -3.18232,-3.08442 C 633.83683,301.38799 631.37234,300 630.11047,300 c -2.1445,0 -2.27199,0.34282 -1.95239,5.25 L 628.5,310.5 597,311.63546 c -17.325,0.62451 -33.75,1.29951 -36.5,1.5 l -5,0.36454 0.16612,-4.01623 c 0.24213,-5.85366 7.72716,-27.42023 13.52995,-38.98377 10.68486,-21.29227 22.52061,-33.35142 37.77831,-38.49137 12.11972,-4.08284 27.01366,-1.77138 33.75727,5.23894 4.19034,4.35608 7.26835,12.5248 7.26835,19.28945 l 0,5.46298 34.90181,0 34.90182,0 0.69147,-5.95778 c 1.35655,-11.68815 -1.4672,-34.14857 -5.98531,-47.60779 -10.1374,-30.1988 -32.99284,-47.35139 -68.61805,-51.49658 -57.45643,-6.68539 -109.88349,26.43835 -141.22276,89.2254 -10.78546,21.60824 -17.88528,42.67259 -22.22652,65.94345 l -1.79215,9.60671 -17.1792,2.90183 -17.1792,2.90184 -0.73259,-84.50854 c -0.40293,-46.4797 -0.84824,-84.62567 -0.98959,-84.76884 -0.14134,-0.14316 -20.50961,-0.14316 -45.2628,0 l -45.00581,0.2603 3.43724,11.00323 3.43725,11.00323 -21.20424,35.49677 C 303.39297,273.88891 275.8475,320.02336 250.80116,362 237.83844,383.725 219.08024,415.1621 209.11629,431.86021 199.15233,448.55833 191,462.62083 191,463.11021 191,463.61426 207.41505,464 228.86503,464 l 37.86504,0 4.60612,-7.92739 c 11.82917,-20.35863 35.03836,-42.43025 62.44189,-59.38138 C 344.40827,390.11566 372.15168,376 374.44534,376 375.82801,376 376,380.86924 376,420.0133 l 0,44.0133 33.75,-0.2633 33.75,-0.2633 0.25813,-57.10383 0.25812,-57.10383 12.74188,-3.29056 c 7.00803,-1.8098 14.1406,-3.49237 15.85016,-3.73903 l 3.1083,-0.44848 0.0321,18.34287 c 0.0544,31.06647 5.16259,51.8143 17.28264,70.19683 13.07376,19.82902 34.64741,31.868 60.96864,34.02298 7.50102,0.61413 27.99363,-0.48324 36.6632,-1.9633 z M 325,360.42807 c 0,-0.31456 1.08964,-2.45206 2.42142,-4.75 1.33178,-2.29794 12.38072,-22.40307 24.5532,-44.67807 12.17247,-22.275 22.55783,-40.9275 23.07857,-41.45 0.5958,-0.59781 0.94681,13.18242 0.94681,37.17054 l 0,38.12055 -3.00612,0.66025 c -4.29228,0.94275 -24.76435,7.6324 -36.36317,11.8824 C 326.67299,361.0324 325,361.47031 325,360.42807 z M 176.68737,458.5 c 1.63421,-5.85135 8.97629,-30.93308 20.34448,-69.5 4.45833,-15.125 11.19055,-38.075 14.96049,-51 3.76994,-12.925 8.71354,-29.8 10.98578,-37.5 13.10232,-44.40015 16.50322,-55.92822 19.02816,-64.5 1.5391,-5.225 5.12491,-17.375 7.96846,-27 2.84355,-9.625 5.80746,-19.75 6.58646,-22.5 0.779,-2.75 2.93254,-10.175 4.78565,-16.5 l 3.36929,-11.5 -44.51433,-0.2604 c -24.48288,-0.14323 -44.74953,-0.0252 -45.03699,0.26224 -0.28745,0.28746 1.12945,6.02964 3.14869,12.76041 l 3.67133,12.23775 -3.0523,10 c -1.67876,5.5 -5.00285,16.75 -7.38685,25 -2.384,8.25 -11.85309,40.425 -21.04243,71.5 -9.18933,31.075 -19.61693,66.4 -23.17243,78.5 -3.55551,12.1 -7.80091,26.5 -9.43423,32 -1.63333,5.5 -4.73334,16.075 -6.88893,23.5 -2.15558,7.425 -5.51276,18.675 -7.4604,25 -1.94763,6.325 -3.54253,12.29291 -3.54421,13.26203 -0.003,1.65618 2.25826,1.74628 37.6424,1.5 l 37.64547,-0.26203 1.39644,-5 z"
       id="path3041"
       style="fill:#fe0018" />
  </g>
</svg>
