<svg xmlns:dc="http://purl.org/dc/elements/1.1/" xmlns:cc="http://creativecommons.org/ns#" xmlns:rdf="http://www.w3.org/1999/02/22-rdf-syntax-ns#" xmlns:svg="http://www.w3.org/2000/svg" xmlns="http://www.w3.org/2000/svg" version="1.1" width="550" height="275" id="svg2"><defs id="defs4" /><g transform="translate(-100,-394.86)" id="layer1"><path d="m 122.65,658.03 c -2.36,-2.61 -2.08,-6.75 0.56,-8.61 2.98,-2.08 5.10,-1.96 7.27,0.44 1.77,1.96 3.07,2 74.15,2 l 72.34,0 0,-31 c 0,-30.33 0.04,-31 2,-31 1.95,0 2,0.66 2,33 l 0,33 -74.09,0 c -72.57,0 -74.14,0.04 -76.63,2 -3.16,2.48 -5.47,2.53 -7.61,0.17 z m 29.74,-73.57 c -0.89,-2.32 0.01,-7.91 1.35,-8.35 0.88,-0.29 1.25,1.05 1.25,4.67 0,4.80 -1.40,6.79 -2.60,3.67 z m 5.14,0.15 c -0.21,-0.68 -0.31,-2.82 -0.21,-4.75 0.25,-5.12 3.48,-5.26 7.55,-0.32 l 3.11,3.78 0,-3.81 c 0,-5.58 2.42,-4.13 2.80,1.68 0.29,4.52 0.21,4.67 -2.5,4.66 -2.10,-0.00 -3.42,-0.92 -5.30,-3.69 l -2.5,-3.68 -0.31,3.69 c -0.30,3.57 -1.84,4.99 -2.64,2.44 z m 19.12,0.58 C 176.3,584.82 176,583.02 176,581.19 c 0,-2.69 -0.39,-3.33 -2.05,-3.33 -1.13,0 -1.78,-0.45 -1.44,-1 0.33,-0.55 2.81,-1 5.5,-1 2.68,0 5.16,0.45 5.5,1 0.35,0.56 -0.48,1 -1.94,1 -2.31,0 -2.55,0.37 -2.55,4 0,3.75 -0.78,4.87 -2.33,3.33 z m 8.52,-4.08 0.30,-4.75 4.38,-0.31 c 2.41,-0.17 4.86,0.16 5.45,0.75 0.75,0.75 -0.16,1.06 -3.13,1.06 -2.31,0 -4.2,0.45 -4.2,1 0,0.55 1.8,1 4,1 2.2,0 4,0.45 4,1 0,0.55 -1.8,1 -4,1 -2.2,0 -4,0.45 -4,1 0,0.55 1.8,1 4,1 2.2,0 4,0.45 4,1 0,0.55 -2.49,1 -5.55,1 l -5.55,0 0.30,-4.75 z M 198,580.94 l 0,-5.08 4.87,0 c 5.58,0 6.81,1.09 6.70,5.91 -0.08,3.69 -2.58,5.72 -2.58,2.10 0,-1.81 -0.49,-2.09 -3.25,-1.83 -1.98,0.19 -3.25,0.86 -3.25,1.73 0,0.77 -0.56,1.60 -1.25,1.83 -0.89,0.29 -1.25,-1.04 -1.25,-4.66 z m 9,-2.08 c 0,-0.55 -1.35,-1 -3,-1 -1.65,0 -3,0.45 -3,1 0,0.55 1.35,1 3,1 1.65,0 3,-0.45 3,-1 z m 4.19,2.25 c 0.27,-4.29 0.53,-4.75 2.76,-4.75 1.66,0 3.17,1.06 4.68,3.29 l 2.22,3.29 0.31,-3.22 c 0.54,-5.56 2.81,-4.72 2.81,1.04 0,4.55 -0.22,5.08 -2.17,5.08 -1.21,0 -3.40,-1.43 -4.95,-3.25 l -2.78,-3.25 -0.04,3.25 c -0.02,2.25 -0.51,3.25 -1.59,3.25 -1.23,0 -1.49,-0.98 -1.25,-4.75 z m 15.48,1.5 c 4.40,-7.98 6.73,-8.62 10.06,-2.79 2.63,4.61 2.81,6.04 0.75,6.04 -0.82,0 -1.5,-0.45 -1.5,-1 0,-0.55 -1.54,-1 -3.44,-1 -1.89,0 -3.71,0.45 -4.05,1 -0.33,0.55 -1.29,1 -2.11,1 -1.26,0 -1.22,-0.49 0.29,-3.25 z m 7.06,-2 c -0.47,-1.41 -2.07,-1.26 -2.58,0.25 -0.18,0.55 0.41,1 1.33,1 0.91,0 1.47,-0.56 1.25,-1.25 z m 10.91,4.58 C 244.3,584.82 244,583.02 244,581.19 c 0,-2.69 -0.39,-3.33 -2.05,-3.33 -1.13,0 -1.78,-0.45 -1.44,-1 0.33,-0.55 2.81,-1 5.5,-1 2.68,0 5.16,0.45 5.5,1 0.35,0.56 -0.48,1 -1.94,1 -2.31,0 -2.55,0.37 -2.55,4 0,3.75 -0.78,4.87 -2.33,3.33 z m 8.52,-4.00 c 0.43,-6.67 2.80,-7.01 2.80,-0.41 0,3.93 -0.35,5.08 -1.55,5.08 -1.22,0 -1.49,-0.98 -1.25,-4.67 z m 5.22,3.31 c -0.30,-0.80 -0.41,-2.96 -0.23,-4.80 l 0.32,-3.34 5.5,0 5.5,0 0,4.5 0,4.5 -5.26,0.30 c -3.89,0.22 -5.40,-0.07 -5.82,-1.15 z M 267,580.86 c 0,-2.66 -0.33,-3 -3,-3 -2.66,0 -3,0.33 -3,3 0,2.66 0.33,3 3,3 2.66,0 3,-0.33 3,-3 z m 5,0.08 c 0,-4.64 0.19,-5.08 2.31,-5.08 1.44,0 3.21,1.21 4.73,3.25 l 2.41,3.25 0.51,-2.91 c 0.93,-5.22 3.01,-4.30 3.01,1.33 0,4.87 -0.11,5.08 -2.75,5.08 -1.94,-0.00 -3.33,-0.88 -4.75,-3.00 l -2,-3.00 -0.5,2.67 c -0.93,5.01 -3,3.92 -3,-1.57 z m 14.01,4.16 c 0.00,-0.41 1.03,-2.55 2.27,-4.75 3.37,-5.97 5.98,-5.85 9.17,0.43 1.99,3.92 2.23,5.06 1.10,5.06 -0.80,0 -1.73,-0.45 -2.07,-1 -0.33,-0.55 -2.16,-1 -4.05,-1 -1.89,0 -3.44,0.45 -3.44,1 0,0.55 -0.67,1 -1.5,1 -0.82,0 -1.49,-0.33 -1.48,-0.75 z m 7.96,-4 c -0.01,-0.95 -1.94,-3.97 -1.96,-3.08 -0.00,0.36 -0.28,1.38 -0.62,2.25 -0.39,1.03 -0.05,1.58 1,1.58 0.88,0 1.60,-0.33 1.59,-0.75 z m 7.21,0 c 0.36,-5.64 2.17,-6.33 2.61,-1 0.29,3.54 0.49,3.75 3.75,3.75 1.89,0 3.43,0.45 3.43,1 0,0.55 -2.27,1 -5.05,1 l -5.05,0 0.30,-4.75 z M 319,581.42 c 0,-2.44 0.45,-4.72 1.00,-5.06 1.64,-1.01 4.84,0.46 5.50,2.55 0.84,2.65 1.93,2.44 3.33,-0.61 0.83,-1.84 1.80,-2.47 3.41,-2.25 1.90,0.27 2.28,1.02 2.54,5.06 0.24,3.76 -0.01,4.75 -1.25,4.75 -1.07,0 -1.57,-1.00 -1.61,-3.25 l -0.06,-3.25 -1.61,3.25 c -0.88,1.78 -2.35,3.25 -3.25,3.25 -0.90,0 -2.36,-1.46 -3.25,-3.25 l -1.61,-3.25 -0.06,3.25 c -0.04,2.19 -0.55,3.25 -1.56,3.25 -1.10,0 -1.5,-1.16 -1.5,-4.44 z m 18.19,-0.30 c 0.16,-2.61 0.75,-4.75 1.30,-4.75 0.55,0 1.13,2.13 1.30,4.75 0.24,3.82 -0.00,4.75 -1.30,4.75 -1.29,0 -1.55,-0.92 -1.30,-4.75 z m 5,0 c 0.25,-3.93 0.66,-4.80 2.39,-5.04 1.45,-0.20 2.81,0.77 4.5,3.24 l 2.41,3.54 0.5,-3.24 c 0.74,-4.83 2.45,-3.91 2.80,1.50 0.28,4.47 0.15,4.75 -2.17,4.75 -1.60,0 -3.38,-1.14 -5.04,-3.25 l -2.56,-3.25 -0.01,3.25 c -0.00,2.26 -0.48,3.25 -1.56,3.25 -1.23,0 -1.49,-0.98 -1.25,-4.75 z m 15,0 c 0.16,-2.61 0.75,-4.75 1.30,-4.75 0.55,0 1.13,2.13 1.30,4.75 0.24,3.82 -0.00,4.75 -1.30,4.75 -1.29,0 -1.55,-0.92 -1.30,-4.75 z M 361,585.29 c 0,-0.31 1.18,-2.58 2.62,-5.05 3.33,-5.68 5.77,-5.56 9.12,0.46 2.59,4.68 2.30,6.30 -0.78,4.37 -2.35,-1.46 -6.61,-1.58 -7.46,-0.21 -0.65,1.05 -3.5,1.40 -3.5,0.42 z m 8.36,-4.92 c -0.31,-0.82 -0.92,-1.5 -1.36,-1.5 -0.43,0 -1.04,0.67 -1.36,1.5 -0.38,1.01 0.05,1.5 1.36,1.5 1.31,0 1.75,-0.48 1.36,-1.5 z m 10.63,1.5 c 0,-3.37 -0.32,-4 -2.05,-4 -1.13,0 -1.77,-0.45 -1.43,-1.01 0.74,-1.20 10.49,-1.04 10.49,0.17 0,0.46 -0.9,0.84 -2,0.84 -1.66,0 -2,0.66 -2,4 0,2.88 -0.41,4 -1.5,4 -1.08,0 -1.5,-1.11 -1.5,-4 z m 9,-1.08 c 0,-6.01 2.31,-6.50 2.81,-0.58 0.27,3.30 0.59,3.67 3.18,3.67 2.59,0 2.91,-0.36 3.18,-3.67 C 398.68,574.27 401,574.75 401,580.77 l 0,5.08 -6,0 -6,0 0,-5.08 z m 14.19,0.33 c 0.29,-4.59 0.41,-4.76 3.69,-5.07 6.48,-0.61 7.84,0.28 7.94,5.31 0.06,3.33 -0.29,4.51 -1.37,4.51 -0.80,0 -1.46,-0.9 -1.46,-2 0,-1.55 -0.66,-2 -3,-2 -2.33,0 -3,0.44 -3,2 0,1.14 -0.66,2 -1.55,2 -1.23,0 -1.49,-0.98 -1.25,-4.75 z m 8.80,-2.25 c 0,-0.55 -1.35,-1 -3,-1 -1.65,0 -3,0.45 -3,1 0,0.55 1.35,1 3,1 1.65,0 3,-0.45 3,-1 z m 5,2 0,-5 4.94,0 c 2.71,0 5.21,0.45 5.55,1 0.37,0.60 -0.98,1 -3.44,1 -2.23,0 -4.05,0.45 -4.05,1 0,0.55 1.82,1 4.05,1 2.45,0 3.81,0.39 3.44,1 -0.33,0.55 -2.16,1 -4.05,1 -1.89,0 -3.44,0.45 -3.44,1 0,0.55 1.54,1 3.44,1 1.89,0 3.71,0.45 4.05,1 0.38,0.62 -1.48,1 -4.94,1 l -5.55,0 0,-5 z m 18.70,3.25 c 0.35,-0.96 1.34,-2.87 2.19,-4.25 3.00,-4.84 5.12,-5.18 7.89,-1.25 2.91,4.14 3.67,7.25 1.76,7.25 -0.86,0 -1.56,-0.45 -1.56,-1 0,-0.55 -1.54,-1 -3.44,-1 -1.89,0 -3.71,0.45 -4.05,1 -1.10,1.78 -3.49,1.14 -2.79,-0.75 z M 444,580.92 c 0,-1.73 -1.76,-2.05 -3.00,-0.54 -1.02,1.23 -0.87,1.48 0.88,1.48 1.16,0 2.12,-0.42 2.12,-0.94 z m 6.19,0.19 0.30,-4.75 5.25,-0.14 c 2.88,-0.07 5.25,0.25 5.25,0.75 0,0.49 -1.8,0.89 -4,0.89 -2.2,0 -4,0.45 -4,1 0,0.55 1.8,1 4,1 2.2,0 4,0.45 4,1 0,0.55 -1.8,1 -4,1 -2.2,0 -4,0.45 -4,1 0,0.55 1.8,1 4,1 2.2,0 4,0.45 4,1 0,0.55 -2.49,1 -5.55,1 l -5.55,0 0.30,-4.75 z m 12.80,-0.25 0,-5 4.75,0.01 c 2.61,0.00 5.22,0.34 5.80,0.75 1.71,1.19 1.61,9.23 -0.10,9.23 -0.79,0 -1.44,-0.9 -1.44,-2 0,-1.55 -0.66,-2 -3,-2 -2.33,0 -3,0.44 -3,2 0,1.11 -0.66,2 -1.5,2 -1.13,0 -1.5,-1.22 -1.5,-5 z m 9,-2 c 0,-0.55 -1.35,-1 -3,-1 -1.65,0 -3,0.45 -3,1 0,0.55 1.35,1 3,1 1.65,0 3,-0.45 3,-1 z m 5,2.60 c 0,-4.81 0.89,-5.60 6.38,-5.60 3.76,0 5.61,1.52 5.61,4.61 0,4.62 -0.93,5.38 -6.60,5.38 l -5.39,0 0,-4.39 z m 9,-0.60 c 0,-2.66 -0.33,-3 -3,-3 -2.66,0 -3,0.33 -3,3 0,2.66 0.33,3 3,3 2.66,0 3,-0.33 3,-3 z m 4.39,3.59 c -0.29,-0.77 -0.39,-2.91 -0.21,-4.75 0.31,-3.32 0.34,-3.34 5.94,-3.56 l 5.62,-0.22 0.64,4.03 c 0.35,2.21 0.38,4.45 0.06,4.97 -0.96,1.55 -11.44,1.15 -12.06,-0.46 z M 500,582.86 c 0,-0.55 -1.57,-1 -3.5,-1 -1.92,0 -3.5,0.45 -3.5,1 0,0.55 1.57,1 3.5,1 1.92,0 3.5,-0.45 3.5,-1 z m -0.5,-4 c 0.35,-0.58 -0.63,-1 -2.38,-1 -1.65,0 -3.27,0.45 -3.61,1 -0.35,0.58 0.63,1 2.38,1 1.65,0 3.27,-0.45 3.61,-1 z m 4.5,5.98 c 0,-2.18 5.11,-8.97 6.76,-8.97 0.97,0.00 2.73,1.74 3.98,3.94 2.63,4.61 2.81,6.04 0.75,6.04 -0.82,0 -1.5,-0.45 -1.5,-1 0,-0.55 -1.54,-1 -3.44,-1 -1.89,0 -3.71,0.45 -4.05,1 -0.80,1.30 -2.5,1.28 -2.5,-0.01 z m 7.75,-4.23 c -0.47,-1.41 -2.07,-1.26 -2.58,0.25 -0.18,0.55 0.41,1 1.33,1 0.91,0 1.47,-0.56 1.25,-1.25 z m 10.25,1.25 c 0,-3.37 -0.32,-4 -2.05,-4 -1.13,0 -1.79,-0.42 -1.47,-0.94 0.74,-1.20 10.34,-1.16 11.09,0.03 0.30,0.49 -0.59,0.90 -2.00,0.90 -2.31,0 -2.55,0.37 -2.55,4 0,2.88 -0.41,4 -1.5,4 -1.08,0 -1.5,-1.11 -1.5,-4 z m 9.19,-0.75 c 0.16,-2.61 0.75,-4.75 1.30,-4.75 0.55,0 1.13,2.13 1.30,4.75 0.24,3.82 -0.00,4.75 -1.30,4.75 -1.29,0 -1.55,-0.92 -1.30,-4.75 z m 5.22,3.39 c -0.30,-0.80 -0.41,-2.96 -0.23,-4.80 0.28,-2.99 0.67,-3.37 3.70,-3.66 4.10,-0.39 8.11,0.50 8.11,1.82 0,0.56 -1.85,0.70 -4.5,0.34 l -4.5,-0.61 0,3.27 0,3.27 4.58,-0.62 c 3.41,-0.46 4.47,-0.31 4.17,0.61 -0.62,1.88 -10.62,2.23 -11.33,0.38 z m 20.46,0.60 c -0.70,-4.61 -0.62,-6.86 0.28,-7.95 1.76,-2.12 10.83,-1.46 10.83,0.78 0,0.48 -2.02,0.59 -4.5,0.25 l -4.5,-0.61 0,3.27 0,3.27 4.5,-0.61 c 3.58,-0.49 4.5,-0.31 4.5,0.86 0,1.12 -1.30,1.48 -5.5,1.48 -3.02,0 -5.55,-0.33 -5.61,-0.75 z m 13.30,-4 c 0.36,-5.64 2.17,-6.33 2.61,-1 0.29,3.54 0.49,3.75 3.75,3.75 1.89,0 3.43,0.45 3.43,1 0,0.55 -2.27,1 -5.05,1 l -5.05,0 0.30,-4.75 z m 11.22,3.39 c -0.84,-2.20 -0.05,-8.14 1.08,-8.14 0.55,0 1.13,1.68 1.31,3.75 0.29,3.53 0.50,3.75 3.68,3.75 3.18,0 3.39,-0.21 3.68,-3.75 0.42,-5.10 2.31,-4.28 2.31,1 l 0,4.25 -5.76,0.30 c -4.32,0.22 -5.90,-0.06 -6.32,-1.15 z m 13.98,-0.05 c -0.29,-0.77 -0.39,-2.91 -0.21,-4.75 l 0.32,-3.34 5.45,0 c 5.42,0 5.46,0.01 6.21,3.5 0.41,1.92 0.56,4.06 0.32,4.75 -0.63,1.82 -11.39,1.68 -12.09,-0.15 z M 605,582.86 c 0,-0.55 -1.57,-1 -3.5,-1 -1.92,0 -3.5,0.45 -3.5,1 0,0.55 1.57,1 3.5,1 1.92,0 3.5,-0.45 3.5,-1 z m -1,-4 c 0,-0.55 -1.35,-1 -3,-1 -1.65,0 -3,0.45 -3,1 0,0.55 1.35,1 3,1 1.65,0 3,-0.45 3,-1 z m -327,-15 0,-6 -11.5,0 c -10.83,0 -11.5,-0.11 -11.5,-2 0,-1.88 0.66,-2 11.56,-2 l 11.56,0 -0.36,-43.25 c -0.34,-41.66 -0.44,-43.46 -2.56,-49.15 -2.65,-7.10 -2.82,-9.86 -0.60,-9.41 3.03,0.61 7.07,14.79 7.54,26.51 l 0.20,5.19 4.07,0.67 c 2.24,0.37 6.32,1.52 9.07,2.55 l 4.99,1.88 1.68,-2.23 c 0.92,-1.22 1.90,-2.01 2.16,-1.74 1.01,1.01 7.68,13.28 7.39,13.58 -0.17,0.17 -3.22,-0.10 -6.77,-0.62 -3.55,-0.51 -7.04,-0.94 -7.74,-0.95 -0.96,-0.01 -1.02,-0.50 -0.25,-1.95 0.56,-1.06 1.03,-2.17 1.03,-2.46 0,-0.84 -10.09,-3.60 -13.18,-3.60 l -2.81,0 0,32.03 c 0,34.55 -0.35,32.01 4.73,33.52 1.90,0.56 0.35,3.28 -2.06,3.63 -1.89,0.26 -2.20,1.03 -2.46,6.05 -0.25,4.93 -0.57,5.75 -2.25,5.75 -1.71,0 -1.95,-0.71 -1.95,-6 z m 349.70,0.36 C 626.31,563.84 626,562.26 626,560.72 l 0,-2.80 -11.23,-0.28 c -9.77,-0.24 -11.28,-0.51 -11.57,-2.03 -0.30,-1.58 0.75,-1.75 11.23,-1.75 l 11.57,0 0,-2.87 c 0,-3.64 2.22,-5.76 3.91,-3.72 1.84,2.22 1.02,17.00 -0.95,17.38 -0.85,0.16 -1.86,-0.02 -2.25,-0.40 z M 204.66,557.19 C 204.3,556.82 204,555.92 204,555.19 c 0,-1.05 3.30,-1.33 15.83,-1.33 8.70,0 16.10,0.26 16.43,0.59 0.32,0.32 0.35,1.22 0.05,2 -0.42,1.11 -3.62,1.40 -15.76,1.40 -8.37,0 -15.52,-0.3 -15.89,-0.66 z M 304,555.88 c 0,-1.94 0.59,-2.02 16.07,-2.02 14.76,0 16.04,0.14 15.73,1.75 -0.30,1.56 -2.00,1.77 -16.07,2.02 C 304.51,557.90 304,557.84 304,555.88 z m 49.68,0.59 c -0.30,-0.78 -0.27,-1.69 0.05,-2.02 0.32,-0.32 7.75,-0.59 16.50,-0.59 14.61,0 15.87,0.14 15.57,1.75 -0.30,1.56 -2.00,1.77 -15.95,2.02 -12.79,0.22 -15.72,0.01 -16.16,-1.15 z m 50,0 c -0.30,-0.78 -0.27,-1.69 0.05,-2.02 0.32,-0.32 7.75,-0.59 16.50,-0.59 14.61,0 15.87,0.14 15.57,1.75 -0.30,1.56 -2.00,1.77 -15.95,2.02 -12.79,0.22 -15.72,0.01 -16.16,-1.15 z m 49.77,0.31 c -1.51,-2.44 1.75,-2.98 16.61,-2.71 12.91,0.23 15.42,0.52 15.42,1.77 0,1.25 -2.53,1.54 -15.67,1.77 -10.70,0.18 -15.89,-0.07 -16.36,-0.83 z m 50,0 c -1.51,-2.44 1.75,-2.98 16.61,-2.71 12.91,0.23 15.42,0.52 15.42,1.77 0,1.25 -2.53,1.54 -15.67,1.77 -10.70,0.18 -15.89,-0.07 -16.36,-0.83 z m 50.20,0.39 C 553.3,556.82 553,555.92 553,555.19 c 0,-1.05 3.30,-1.33 15.83,-1.33 8.70,0 16.10,0.26 16.43,0.59 0.32,0.32 0.35,1.22 0.05,2 -0.42,1.11 -3.62,1.40 -15.76,1.40 -8.37,0 -15.52,-0.3 -15.89,-0.66 z M 176.70,551.90 C 167.14,547.83 160,543.06 160,540.75 c 0,-2.66 1.17,-2.39 7.62,1.72 3.11,1.99 9.08,4.87 13.26,6.39 4.62,1.68 7.73,3.39 7.92,4.37 0.50,2.50 -4.34,1.96 -12.12,-1.34 z M 553,541.92 c -5.50,-1.11 -9.82,-3.82 -11.62,-7.29 -3.47,-6.71 -0.94,-20.72 6.37,-35.25 4.71,-9.37 7.81,-13.24 12.52,-15.64 5.06,-2.58 19.15,-4.04 33.90,-3.50 11.17,0.40 11.31,0.43 11.03,2.74 -0.15,1.28 -0.94,3.36 -1.77,4.62 -1.39,2.12 -2.18,2.28 -11.72,2.30 -13.76,0.03 -17.48,0.99 -21.46,5.56 -3.67,4.21 -8.94,17.06 -10.55,25.69 -1.00,5.40 -0.92,5.94 1.13,8.00 2.06,2.06 3.10,2.21 15.97,2.21 11.65,0 14.19,-0.28 16.55,-1.82 1.53,-1.00 3.04,-1.58 3.34,-1.27 0.30,0.30 -0.31,3.14 -1.38,6.32 -1.32,3.96 -2.70,6.15 -4.38,7.01 -2.68,1.35 -31.62,1.61 -37.95,0.33 z m -215.62,-1.51 c -0.30,-0.80 3.34,-13.26 8.11,-27.70 5.41,-16.37 8.51,-27.29 8.26,-29.04 l -0.41,-2.79 10.26,0 c 5.64,0 10.46,0.33 10.70,0.75 0.24,0.41 -3.71,13.35 -8.79,28.75 -5.29,16.05 -8.87,28.40 -8.38,28.95 1.91,2.12 0.40,2.55 -9.17,2.55 -7.85,0 -10.15,-0.31 -10.58,-1.45 z m 24.95,-0.11 c -0.53,-1.39 4.31,-11.39 22.82,-46.99 2.30,-4.43 3.94,-8.71 3.64,-9.5 -0.30,-0.78 -0.60,-1.84 -0.67,-2.34 -0.10,-0.72 12.15,-1.12 20.35,-0.66 1.89,0.10 2.17,1.46 4.04,20.03 0.85,8.50 1.69,15.59 1.86,15.76 0.16,0.16 3.36,-4.98 7.09,-11.45 3.73,-6.46 7.88,-13.48 9.21,-15.58 1.40,-2.21 2.29,-4.92 2.11,-6.44 l -0.31,-2.62 10.99,0.28 c 6.98,0.18 11.26,0.70 11.73,1.44 0.40,0.64 0.77,11.51 0.81,24.16 0.08,25.46 0.51,32.26 2.15,34.24 0.91,1.09 -0.72,1.28 -9.29,1.04 L 438.5,541.36 438.34,522.04 c -0.08,-10.62 -0.33,-19.50 -0.56,-19.72 -0.22,-0.22 -5.55,8.57 -11.84,19.55 l -11.43,19.96 -6.75,0.01 c -4.72,0.01 -6.75,-0.35 -6.77,-1.23 -0.08,-3.59 -3.88,-39.99 -4.21,-40.32 -0.21,-0.21 -4.37,8.19 -9.25,18.68 -7.55,16.24 -8.69,19.35 -7.67,20.98 1.13,1.82 0.79,1.90 -7.84,1.90 -7.30,0 -9.15,-0.30 -9.64,-1.57 z m 98.13,0.53 c -0.35,-0.57 -0.22,-1.58 0.28,-2.25 0.51,-0.66 10.36,-12.68 21.88,-26.70 11.52,-14.02 21.30,-26.08 21.74,-26.79 0.43,-0.71 0.28,-1.89 -0.31,-2.62 -1.56,-1.89 1.14,-2.17 14.93,-1.57 l 11.5,0.5 0.71,12 c 0.39,6.6 1.10,19.51 1.58,28.69 0.57,10.99 1.31,17.22 2.16,18.25 1.15,1.38 0.20,1.55 -8.85,1.55 -9.97,0 -10.16,-0.04 -11.12,-2.56 -0.53,-1.41 -0.97,-4.78 -0.97,-7.5 l 0,-4.93 -13.37,0 -13.37,0 -4.26,5.65 c -3.59,4.76 -4.08,5.94 -3.11,7.5 1.09,1.75 0.63,1.84 -8.79,1.84 -5.83,0 -10.21,-0.43 -10.59,-1.04 z m 52.86,-28.95 c -0.09,-2.47 -0.20,-7.61 -0.25,-11.43 L 513,493.49 l -3.25,4.29 c -1.78,2.36 -5.60,7.28 -8.49,10.93 -2.88,3.64 -5.24,6.98 -5.25,7.42 -0.00,0.43 3.93,0.65 8.74,0.5 l 8.75,-0.28 -0.16,-4.5 z m -371.30,10.75 c -6.70,-10.24 -11.12,-24.25 -7.64,-24.25 1.17,0 2.00,1.60 5.22,10 1.47,3.85 4.20,9.38 6.05,12.30 1.85,2.91 3.11,5.73 2.79,6.25 -1.23,2.00 -3.12,0.74 -6.43,-4.30 z m -11.68,-43.29 c -0.82,-2.16 2.03,-16.83 4.62,-23.71 1.60,-4.26 2.66,-5.75 4.09,-5.75 2.39,0 2.39,0.71 0.06,6.71 -2.03,5.23 -3.68,12.15 -4.64,19.53 -0.62,4.79 -2.87,6.53 -4.14,3.21 z M 256.97,432.29 c -3.01,-3.07 -8.28,-7.44 -11.72,-9.72 -6.20,-4.11 -7.92,-6.71 -4.42,-6.71 4.36,0 24.92,17.23 23.97,20.09 -0.85,2.56 -2.45,1.81 -7.82,-3.65 z m -108.48,2.54 c -1.99,-3.22 21.09,-21.73 25.26,-20.25 1.84,0.65 1.51,3.24 -0.5,3.98 -3.23,1.18 -12.71,8.04 -17.51,12.69 -4.90,4.73 -6.15,5.35 -7.24,3.58 z m 42.93,-23.89 c -1.22,-1.21 -0.09,-2.94 2.32,-3.55 3.75,-0.94 22.04,-0.74 25.75,0.28 1.65,0.45 3.12,1.49 3.28,2.29 0.23,1.23 -2.14,1.45 -15.32,1.42 -8.58,-0.02 -15.80,-0.22 -16.03,-0.45 z" id="path3068" style="fill:#ec0b0c" /><path d="m 122.65,658.03 c -2.36,-2.61 -2.08,-6.75 0.56,-8.61 2.98,-2.08 5.10,-1.96 7.27,0.44 1.77,1.96 3.07,2 74.15,2 l 72.34,0 0,-31 c 0,-30.33 0.04,-31 2,-31 1.95,0 2,0.66 2,33 l 0,33 -74.09,0 c -72.57,0 -74.14,0.04 -76.63,2 -3.16,2.48 -5.47,2.53 -7.61,0.17 z m 29.74,-73.57 c -0.89,-2.32 0.01,-7.91 1.35,-8.35 0.88,-0.29 1.25,1.05 1.25,4.67 0,4.80 -1.40,6.79 -2.60,3.67 z m 5.14,0.15 c -0.21,-0.68 -0.31,-2.82 -0.21,-4.75 0.25,-5.12 3.48,-5.26 7.55,-0.32 l 3.11,3.78 0,-3.81 c 0,-5.58 2.42,-4.13 2.80,1.68 0.29,4.52 0.21,4.67 -2.5,4.66 -2.10,-0.00 -3.42,-0.92 -5.30,-3.69 l -2.5,-3.68 -0.31,3.69 c -0.30,3.57 -1.84,4.99 -2.64,2.44 z m 19.12,0.58 C 176.3,584.82 176,583.02 176,581.19 c 0,-2.69 -0.39,-3.33 -2.05,-3.33 -1.13,0 -1.78,-0.45 -1.44,-1 0.33,-0.55 2.81,-1 5.5,-1 2.68,0 5.16,0.45 5.5,1 0.35,0.56 -0.48,1 -1.94,1 -2.31,0 -2.55,0.37 -2.55,4 0,3.75 -0.78,4.87 -2.33,3.33 z m 8.52,-4.08 0.30,-4.75 4.38,-0.31 c 2.41,-0.17 4.86,0.16 5.45,0.75 0.75,0.75 -0.16,1.06 -3.13,1.06 -2.31,0 -4.2,0.45 -4.2,1 0,0.55 1.8,1 4,1 2.2,0 4,0.45 4,1 0,0.55 -1.8,1 -4,1 -2.2,0 -4,0.45 -4,1 0,0.55 1.8,1 4,1 2.2,0 4,0.45 4,1 0,0.55 -2.49,1 -5.55,1 l -5.55,0 0.30,-4.75 z M 198,580.94 l 0,-5.08 4.87,0 c 5.58,0 6.81,1.09 6.70,5.91 -0.08,3.69 -2.58,5.72 -2.58,2.10 0,-1.81 -0.49,-2.09 -3.25,-1.83 -1.98,0.19 -3.25,0.86 -3.25,1.73 0,0.77 -0.56,1.60 -1.25,1.83 -0.89,0.29 -1.25,-1.04 -1.25,-4.66 z m 9,-2.08 c 0,-0.55 -1.35,-1 -3,-1 -1.65,0 -3,0.45 -3,1 0,0.55 1.35,1 3,1 1.65,0 3,-0.45 3,-1 z m 4.19,2.25 c 0.27,-4.29 0.53,-4.75 2.76,-4.75 1.66,0 3.17,1.06 4.68,3.29 l 2.22,3.29 0.31,-3.22 c 0.54,-5.56 2.81,-4.72 2.81,1.04 0,4.55 -0.22,5.08 -2.17,5.08 -1.21,0 -3.40,-1.43 -4.95,-3.25 l -2.78,-3.25 -0.04,3.25 c -0.02,2.25 -0.51,3.25 -1.59,3.25 -1.23,0 -1.49,-0.98 -1.25,-4.75 z m 15.48,1.5 c 4.40,-7.98 6.73,-8.62 10.06,-2.79 2.63,4.61 2.81,6.04 0.75,6.04 -0.82,0 -1.5,-0.45 -1.5,-1 0,-0.55 -1.54,-1 -3.44,-1 -1.89,0 -3.71,0.45 -4.05,1 -0.33,0.55 -1.29,1 -2.11,1 -1.26,0 -1.22,-0.49 0.29,-3.25 z m 7.06,-2 c -0.47,-1.41 -2.07,-1.26 -2.58,0.25 -0.18,0.55 0.41,1 1.33,1 0.91,0 1.47,-0.56 1.25,-1.25 z m 10.91,4.58 C 244.3,584.82 244,583.02 244,581.19 c 0,-2.69 -0.39,-3.33 -2.05,-3.33 -1.13,0 -1.78,-0.45 -1.44,-1 0.33,-0.55 2.81,-1 5.5,-1 2.68,0 5.16,0.45 5.5,1 0.35,0.56 -0.48,1 -1.94,1 -2.31,0 -2.55,0.37 -2.55,4 0,3.75 -0.78,4.87 -2.33,3.33 z m 8.52,-4.00 c 0.43,-6.67 2.80,-7.01 2.80,-0.41 0,3.93 -0.35,5.08 -1.55,5.08 -1.22,0 -1.49,-0.98 -1.25,-4.67 z m 5.22,3.31 c -0.30,-0.80 -0.41,-2.96 -0.23,-4.80 l 0.32,-3.34 5.5,0 5.5,0 0,4.5 0,4.5 -5.26,0.30 c -3.89,0.22 -5.40,-0.07 -5.82,-1.15 z M 267,580.86 c 0,-2.66 -0.33,-3 -3,-3 -2.66,0 -3,0.33 -3,3 0,2.66 0.33,3 3,3 2.66,0 3,-0.33 3,-3 z m 5,0.08 c 0,-4.64 0.19,-5.08 2.31,-5.08 1.44,0 3.21,1.21 4.73,3.25 l 2.41,3.25 0.51,-2.91 c 0.93,-5.22 3.01,-4.30 3.01,1.33 0,4.87 -0.11,5.08 -2.75,5.08 -1.94,-0.00 -3.33,-0.88 -4.75,-3.00 l -2,-3.00 -0.5,2.67 c -0.93,5.01 -3,3.92 -3,-1.57 z m 14.01,4.16 c 0.00,-0.41 1.03,-2.55 2.27,-4.75 3.37,-5.97 5.98,-5.85 9.17,0.43 1.99,3.92 2.23,5.06 1.10,5.06 -0.80,0 -1.73,-0.45 -2.07,-1 -0.33,-0.55 -2.16,-1 -4.05,-1 -1.89,0 -3.44,0.45 -3.44,1 0,0.55 -0.67,1 -1.5,1 -0.82,0 -1.49,-0.33 -1.48,-0.75 z m 7.96,-4 c -0.01,-0.95 -1.94,-3.97 -1.96,-3.08 -0.00,0.36 -0.28,1.38 -0.62,2.25 -0.39,1.03 -0.05,1.58 1,1.58 0.88,0 1.60,-0.33 1.59,-0.75 z m 7.21,0 c 0.36,-5.64 2.17,-6.33 2.61,-1 0.29,3.54 0.49,3.75 3.75,3.75 1.89,0 3.43,0.45 3.43,1 0,0.55 -2.27,1 -5.05,1 l -5.05,0 0.30,-4.75 z M 319,581.42 c 0,-2.44 0.45,-4.72 1.00,-5.06 1.64,-1.01 4.84,0.46 5.50,2.55 0.84,2.65 1.93,2.44 3.33,-0.61 0.83,-1.84 1.80,-2.47 3.41,-2.25 1.90,0.27 2.28,1.02 2.54,5.06 0.24,3.76 -0.01,4.75 -1.25,4.75 -1.07,0 -1.57,-1.00 -1.61,-3.25 l -0.06,-3.25 -1.61,3.25 c -0.88,1.78 -2.35,3.25 -3.25,3.25 -0.90,0 -2.36,-1.46 -3.25,-3.25 l -1.61,-3.25 -0.06,3.25 c -0.04,2.19 -0.55,3.25 -1.56,3.25 -1.10,0 -1.5,-1.16 -1.5,-4.44 z m 18.19,-0.30 c 0.16,-2.61 0.75,-4.75 1.30,-4.75 0.55,0 1.13,2.13 1.30,4.75 0.24,3.82 -0.00,4.75 -1.30,4.75 -1.29,0 -1.55,-0.92 -1.30,-4.75 z m 5,0 c 0.25,-3.93 0.66,-4.80 2.39,-5.04 1.45,-0.20 2.81,0.77 4.5,3.24 l 2.41,3.54 0.5,-3.24 c 0.74,-4.83 2.45,-3.91 2.80,1.50 0.28,4.47 0.15,4.75 -2.17,4.75 -1.60,0 -3.38,-1.14 -5.04,-3.25 l -2.56,-3.25 -0.01,3.25 c -0.00,2.26 -0.48,3.25 -1.56,3.25 -1.23,0 -1.49,-0.98 -1.25,-4.75 z m 15,0 c 0.16,-2.61 0.75,-4.75 1.30,-4.75 0.55,0 1.13,2.13 1.30,4.75 0.24,3.82 -0.00,4.75 -1.30,4.75 -1.29,0 -1.55,-0.92 -1.30,-4.75 z M 361,585.29 c 0,-0.31 1.18,-2.58 2.62,-5.05 3.33,-5.68 5.77,-5.56 9.12,0.46 2.59,4.68 2.30,6.30 -0.78,4.37 -2.35,-1.46 -6.61,-1.58 -7.46,-0.21 -0.65,1.05 -3.5,1.40 -3.5,0.42 z m 8.36,-4.92 c -0.31,-0.82 -0.92,-1.5 -1.36,-1.5 -0.43,0 -1.04,0.67 -1.36,1.5 -0.38,1.01 0.05,1.5 1.36,1.5 1.31,0 1.75,-0.48 1.36,-1.5 z m 10.63,1.5 c 0,-3.37 -0.32,-4 -2.05,-4 -1.13,0 -1.77,-0.45 -1.43,-1.01 0.74,-1.20 10.49,-1.04 10.49,0.17 0,0.46 -0.9,0.84 -2,0.84 -1.66,0 -2,0.66 -2,4 0,2.88 -0.41,4 -1.5,4 -1.08,0 -1.5,-1.11 -1.5,-4 z m 9,-1.08 c 0,-6.01 2.31,-6.50 2.81,-0.58 0.27,3.30 0.59,3.67 3.18,3.67 2.59,0 2.91,-0.36 3.18,-3.67 C 398.68,574.27 401,574.75 401,580.77 l 0,5.08 -6,0 -6,0 0,-5.08 z m 14.19,0.33 c 0.29,-4.59 0.41,-4.76 3.69,-5.07 6.48,-0.61 7.84,0.28 7.94,5.31 0.06,3.33 -0.29,4.51 -1.37,4.51 -0.80,0 -1.46,-0.9 -1.46,-2 0,-1.55 -0.66,-2 -3,-2 -2.33,0 -3,0.44 -3,2 0,1.14 -0.66,2 -1.55,2 -1.23,0 -1.49,-0.98 -1.25,-4.75 z m 8.80,-2.25 c 0,-0.55 -1.35,-1 -3,-1 -1.65,0 -3,0.45 -3,1 0,0.55 1.35,1 3,1 1.65,0 3,-0.45 3,-1 z m 5,2 0,-5 4.94,0 c 2.71,0 5.21,0.45 5.55,1 0.37,0.60 -0.98,1 -3.44,1 -2.23,0 -4.05,0.45 -4.05,1 0,0.55 1.82,1 4.05,1 2.45,0 3.81,0.39 3.44,1 -0.33,0.55 -2.16,1 -4.05,1 -1.89,0 -3.44,0.45 -3.44,1 0,0.55 1.54,1 3.44,1 1.89,0 3.71,0.45 4.05,1 0.38,0.62 -1.48,1 -4.94,1 l -5.55,0 0,-5 z m 18.70,3.25 c 0.35,-0.96 1.34,-2.87 2.19,-4.25 3.00,-4.84 5.12,-5.18 7.89,-1.25 2.91,4.14 3.67,7.25 1.76,7.25 -0.86,0 -1.56,-0.45 -1.56,-1 0,-0.55 -1.54,-1 -3.44,-1 -1.89,0 -3.71,0.45 -4.05,1 -1.10,1.78 -3.49,1.14 -2.79,-0.75 z M 444,580.92 c 0,-1.73 -1.76,-2.05 -3.00,-0.54 -1.02,1.23 -0.87,1.48 0.88,1.48 1.16,0 2.12,-0.42 2.12,-0.94 z m 6.19,0.19 0.30,-4.75 5.25,-0.14 c 2.88,-0.07 5.25,0.25 5.25,0.75 0,0.49 -1.8,0.89 -4,0.89 -2.2,0 -4,0.45 -4,1 0,0.55 1.8,1 4,1 2.2,0 4,0.45 4,1 0,0.55 -1.8,1 -4,1 -2.2,0 -4,0.45 -4,1 0,0.55 1.8,1 4,1 2.2,0 4,0.45 4,1 0,0.55 -2.49,1 -5.55,1 l -5.55,0 0.30,-4.75 z m 12.80,-0.25 0,-5 4.75,0.01 c 2.61,0.00 5.22,0.34 5.80,0.75 1.71,1.19 1.61,9.23 -0.10,9.23 -0.79,0 -1.44,-0.9 -1.44,-2 0,-1.55 -0.66,-2 -3,-2 -2.33,0 -3,0.44 -3,2 0,1.11 -0.66,2 -1.5,2 -1.13,0 -1.5,-1.22 -1.5,-5 z m 9,-2 c 0,-0.55 -1.35,-1 -3,-1 -1.65,0 -3,0.45 -3,1 0,0.55 1.35,1 3,1 1.65,0 3,-0.45 3,-1 z m 5,2.60 c 0,-4.81 0.89,-5.60 6.38,-5.60 3.76,0 5.61,1.52 5.61,4.61 0,4.62 -0.93,5.38 -6.60,5.38 l -5.39,0 0,-4.39 z m 9,-0.60 c 0,-2.66 -0.33,-3 -3,-3 -2.66,0 -3,0.33 -3,3 0,2.66 0.33,3 3,3 2.66,0 3,-0.33 3,-3 z m 4.39,3.59 c -0.29,-0.77 -0.39,-2.91 -0.21,-4.75 0.31,-3.32 0.34,-3.34 5.94,-3.56 l 5.62,-0.22 0.64,4.03 c 0.35,2.21 0.38,4.45 0.06,4.97 -0.96,1.55 -11.44,1.15 -12.06,-0.46 z M 500,582.86 c 0,-0.55 -1.57,-1 -3.5,-1 -1.92,0 -3.5,0.45 -3.5,1 0,0.55 1.57,1 3.5,1 1.92,0 3.5,-0.45 3.5,-1 z m -0.5,-4 c 0.35,-0.58 -0.63,-1 -2.38,-1 -1.65,0 -3.27,0.45 -3.61,1 -0.35,0.58 0.63,1 2.38,1 1.65,0 3.27,-0.45 3.61,-1 z m 4.5,5.98 c 0,-2.18 5.11,-8.97 6.76,-8.97 0.97,0.00 2.73,1.74 3.98,3.94 2.63,4.61 2.81,6.04 0.75,6.04 -0.82,0 -1.5,-0.45 -1.5,-1 0,-0.55 -1.54,-1 -3.44,-1 -1.89,0 -3.71,0.45 -4.05,1 -0.80,1.30 -2.5,1.28 -2.5,-0.01 z m 7.75,-4.23 c -0.47,-1.41 -2.07,-1.26 -2.58,0.25 -0.18,0.55 0.41,1 1.33,1 0.91,0 1.47,-0.56 1.25,-1.25 z m 10.25,1.25 c 0,-3.37 -0.32,-4 -2.05,-4 -1.13,0 -1.79,-0.42 -1.47,-0.94 0.74,-1.20 10.34,-1.16 11.09,0.03 0.30,0.49 -0.59,0.90 -2.00,0.90 -2.31,0 -2.55,0.37 -2.55,4 0,2.88 -0.41,4 -1.5,4 -1.08,0 -1.5,-1.11 -1.5,-4 z m 9.19,-0.75 c 0.16,-2.61 0.75,-4.75 1.30,-4.75 0.55,0 1.13,2.13 1.30,4.75 0.24,3.82 -0.00,4.75 -1.30,4.75 -1.29,0 -1.55,-0.92 -1.30,-4.75 z m 5.22,3.39 c -0.30,-0.80 -0.41,-2.96 -0.23,-4.80 0.28,-2.99 0.67,-3.37 3.70,-3.66 4.10,-0.39 8.11,0.50 8.11,1.82 0,0.56 -1.85,0.70 -4.5,0.34 l -4.5,-0.61 0,3.27 0,3.27 4.58,-0.62 c 3.41,-0.46 4.47,-0.31 4.17,0.61 -0.62,1.88 -10.62,2.23 -11.33,0.38 z m 20.46,0.60 c -0.70,-4.61 -0.62,-6.86 0.28,-7.95 1.76,-2.12 10.83,-1.46 10.83,0.78 0,0.48 -2.02,0.59 -4.5,0.25 l -4.5,-0.61 0,3.27 0,3.27 4.5,-0.61 c 3.58,-0.49 4.5,-0.31 4.5,0.86 0,1.12 -1.30,1.48 -5.5,1.48 -3.02,0 -5.55,-0.33 -5.61,-0.75 z m 13.30,-4 c 0.36,-5.64 2.17,-6.33 2.61,-1 0.29,3.54 0.49,3.75 3.75,3.75 1.89,0 3.43,0.45 3.43,1 0,0.55 -2.27,1 -5.05,1 l -5.05,0 0.30,-4.75 z m 11.22,3.39 c -0.84,-2.20 -0.05,-8.14 1.08,-8.14 0.55,0 1.13,1.68 1.31,3.75 0.29,3.53 0.50,3.75 3.68,3.75 3.18,0 3.39,-0.21 3.68,-3.75 0.42,-5.10 2.31,-4.28 2.31,1 l 0,4.25 -5.76,0.30 c -4.32,0.22 -5.90,-0.06 -6.32,-1.15 z m 13.98,-0.05 c -0.29,-0.77 -0.39,-2.91 -0.21,-4.75 l 0.32,-3.34 5.45,0 c 5.42,0 5.46,0.01 6.21,3.5 0.41,1.92 0.56,4.06 0.32,4.75 -0.63,1.82 -11.39,1.68 -12.09,-0.15 z M 605,582.86 c 0,-0.55 -1.57,-1 -3.5,-1 -1.92,0 -3.5,0.45 -3.5,1 0,0.55 1.57,1 3.5,1 1.92,0 3.5,-0.45 3.5,-1 z m -1,-4 c 0,-0.55 -1.35,-1 -3,-1 -1.65,0 -3,0.45 -3,1 0,0.55 1.35,1 3,1 1.65,0 3,-0.45 3,-1 z M 277.23,525.12 c 0.24,-41.69 0.37,-44.75 2.01,-45.07 1.19,-0.22 1.75,0.29 1.75,1.64 0,1.55 0.91,2.13 4.25,2.68 2.33,0.38 6.49,1.55 9.24,2.58 l 4.99,1.88 1.68,-2.23 c 0.92,-1.22 1.90,-2.01 2.16,-1.74 1.01,1.01 7.68,13.28 7.39,13.58 -0.17,0.17 -3.22,-0.10 -6.77,-0.62 -3.55,-0.51 -7.04,-0.94 -7.74,-0.95 -0.96,-0.01 -1.02,-0.50 -0.25,-1.95 0.56,-1.06 1.03,-2.17 1.03,-2.46 0,-0.85 -10.10,-3.60 -13.23,-3.60 l -2.87,0 0.10,34.25 c 0.15,50.79 0.33,46.75 -2.01,46.75 -1.98,0 -2.00,-0.50 -1.75,-44.73 z m 349.46,39.10 c -1.35,-1.35 -0.78,-16.05 0.66,-17.25 2.56,-2.12 3.74,1.14 3.42,9.53 -0.22,6.12 -0.63,7.89 -1.84,8.12 -0.85,0.16 -1.86,-0.02 -2.25,-0.40 z" id="path3066" style="fill:#1f1e1e" /></g></svg>
