<svg xmlns:dc="http://purl.org/dc/elements/1.1/" xmlns:cc="http://creativecommons.org/ns#" xmlns:rdf="http://www.w3.org/1999/02/22-rdf-syntax-ns#" xmlns:svg="http://www.w3.org/2000/svg" xmlns="http://www.w3.org/2000/svg" version="1.1" width="546.28748" height="395.71875" viewBox="0 0 437.02998 316.575" id="svg3170" style="fill-rule:evenodd;stroke-width:0.50099999;stroke-linejoin:bevel;overflow:visible"><defs id="defs3172"><marker markerUnits="strokeWidth" markerWidth="1" markerHeight="1" orient="auto" viewBox="0 0 1 1" id="DefaultArrow2" style="overflow:visible"><g transform="scale(0.00925926,0.00925926)" id="g3175"><path d="M -9,54 -9,-54 117,0 z" id="path3177" /></g></marker><marker markerUnits="strokeWidth" markerWidth="1" markerHeight="1" orient="auto" viewBox="0 0 1 1" id="DefaultArrow3" style="overflow:visible"><g transform="scale(0.00925926,0.00925926)" id="g3180"><path d="M -27,54 -9,0 -27,-54 135,0 z" id="path3182" /></g></marker><marker markerUnits="strokeWidth" markerWidth="1" markerHeight="1" orient="auto" viewBox="0 0 1 1" id="DefaultArrow4" style="overflow:visible"><g transform="scale(0.00925926,0.00925926)" id="g3185"><path d="m -9,0 0,-45 c 0,-6.708 11.808,-11.58 18,-9 l 108,45 c 3.916,1.631 9,4.758 9,9 0,4.242 -5.084,7.369 -9,9 L 9,54 C 2.808,56.58 -9,51.708 -9,45 z" id="path3187" /></g></marker><marker markerUnits="strokeWidth" markerWidth="1" markerHeight="1" orient="auto" viewBox="0 0 1 1" id="DefaultArrow5" style="overflow:visible"><g transform="scale(0.00925926,0.00925926)" id="g3190"><path d="M -54,0 C -54,29.807 -29.807,54 0,54 29.807,54 54,29.807 54,0 54,-29.807 29.807,-54 0,-54 -29.807,-54 -54,-29.807 -54,0 z" id="path3192" /></g></marker><marker markerUnits="strokeWidth" markerWidth="1" markerHeight="1" orient="auto" viewBox="0 0 1 1" id="DefaultArrow6" style="overflow:visible"><g transform="scale(0.00925926,0.00925926)" id="g3195"><path d="M -63,0 0,63 63,0 0,-63 z" id="path3197" /></g></marker><marker markerUnits="strokeWidth" markerWidth="1" markerHeight="1" orient="auto" viewBox="0 0 1 1" id="DefaultArrow7" style="overflow:visible"><g transform="scale(0.00925926,0.00925926)" id="g3200"><path d="m 18,-54 90,0 L 63,0 108,54 18,54 -36,0 z" id="path3202" /></g></marker><marker markerUnits="strokeWidth" markerWidth="1" markerHeight="1" orient="auto" viewBox="0 0 1 1" id="DefaultArrow8" style="overflow:visible"><g transform="scale(0.00925926,0.00925926)" id="g3205"><path d="m -36,0 54,-54 36,0 -36,36 9,0 36,-36 36,0 -36,36 9,0 36,-36 36,0 -54,54 54,54 -36,0 -36,-36 -9,0 36,36 -36,0 -36,-36 -9,0 36,36 -36,0 z" id="path3207" /></g></marker><marker markerUnits="strokeWidth" markerWidth="1" markerHeight="1" orient="auto" viewBox="0 0 1 1" id="DefaultArrow9" style="overflow:visible"><g transform="scale(0.00925926,0.00925926)" id="g3210"><path d="M 0,45 -45,0 0,-45 45,0 z M 0,63 -63,0 0,-63 63,0 z" id="path3212" /></g></marker><filter color-interpolation-filters="sRGB" id="StainedFilter"><feBlend in2="BackgroundImage" mode="multiply" in="SourceGraphic" result="blend" id="feBlend3215" /><feComposite in2="SourceAlpha" operator="in" in="blend" result="comp" id="feComposite3217" /></filter><filter color-interpolation-filters="sRGB" id="BleachFilter"><feBlend in2="BackgroundImage" mode="screen" in="SourceGraphic" result="blend" id="feBlend3220" /><feComposite in2="SourceAlpha" operator="in" in="blend" result="comp" id="feComposite3222" /></filter><filter color-interpolation-filters="sRGB" id="InvertTransparencyBitmapFilter"><feComponentTransfer id="feComponentTransfer3225"><feFuncR id="feFuncR3227" offset="-0.055" exponent=".416666666" amplitude="1.055" type="gamma" /><feFuncG id="feFuncG3229" offset="-0.055" exponent=".416666666" amplitude="1.055" type="gamma" /><feFuncB id="feFuncB3231" offset="-0.055" exponent=".416666666" amplitude="1.055" type="gamma" /></feComponentTransfer><feComponentTransfer id="feComponentTransfer3233"><feFuncR id="feFuncR3235" intercept="1" slope="-1" type="linear" /><feFuncG id="feFuncG3237" intercept="1" slope="-1" type="linear" /><feFuncB id="feFuncB3239" intercept="1" slope="-1" type="linear" /><feFuncA id="feFuncA3241" intercept="0" slope="1" type="linear" /></feComponentTransfer><feComponentTransfer id="feComponentTransfer3243"><feFuncR id="feFuncR3245" offset="0" exponent="2.4" amplitude="1" type="gamma" /><feFuncG id="feFuncG3247" offset="0" exponent="2.4" amplitude="1" type="gamma" /><feFuncB id="feFuncB3249" offset="0" exponent="2.4" amplitude="1" type="gamma" /></feComponentTransfer></filter></defs><g transform="matrix(1,0,0,-1,-95.795,-34.745)" id="Document" style="font-size:16px;fill:none;stroke:#000000;font-family:Times New Roman"><g transform="translate(0,-792)" id="Spread"><g id="Layer 1"><g id="Group"><g id="Group_1" style="fill:#000000"><g id="Group_2"><path  d="m 125.592,444.967 2.858,-4.287 180.754,105.738 5.716,0.714 6.786,1.786 4.645,1.429 6.072,3.215 2.501,1.429 12.94,-14.084 2.064,1.939 -8.351,15.565 6.922,4.439 7.859,7.501 6.071,7.503 170.396,106.808 -1.787,4.287 -161.82,-94.663 1.785,5.001 c 0.565,2.41 1.05,4.902 1.429,7.501 0.46,2.891 0.646,6.333 0.724,9.993 l -0.366,8.94 c -0.175,3.334 -0.523,6.668 -1.073,10.002 -0.711,3.335 -1.913,6.669 -3.214,10.003 -1.47,3.214 -3.007,6.707 -5.421,9.921 -1.687,2.667 -3.808,5.334 -6.073,8.002 l -6.367,5.653 -5.359,4.287 -5.716,3.572 126.815,76.446 -1.791,3.648 -138.598,-75.451 -3.572,1.073 -4.287,0.714 5.715,27.149 3.573,-1.429 3.572,-0.714 5.001,1.429 2.501,1.785 1.071,4.286 -0.647,5.936 -2.572,6.859 -5.572,10.43 -3.354,-1.791 -5.358,7.502 -9.288,-5.001 4.287,-8.573 c -0.224,-0.403 -3.928,-2.259 -3.863,-2.425 1.715,-4.286 6.036,-11.251 5.906,-11.55 -0.612,-1.402 -22.682,-31.973 -22.762,-32.108 -5.612,-1.009 -14.799,-3.302 -14.647,-3.214 0.854,0.499 -13.229,-4.399 -12.86,-4.645 -3.038,-1.032 -8.518,-5.198 -13.243,-9.903 -6.064,-6.036 -9.55,-10.524 -11.299,-14.134 l -39.043,-2.753 -5.001,9.288 -3.887,-1.972 c -1.548,2.977 -5.399,9.116 -6.472,9.116 -1.072,0 -8.575,-5.359 -8.931,-5.359 l 4.286,-10.003 -3.572,-2.143 7.145,-13.931 c 2.024,-2.179 4.049,-3.281 6.073,-3.93 2.201,0.06 4.247,0.277 6.072,0.715 1.429,0.523 2.858,1.243 4.287,2.143 1.094,1.286 1.799,2.962 2.143,5.001 l 0.715,4.287 1.428,1.428 25.364,-9.644 -1.072,-4.644 0.358,-5.001 -138.393,-86.871 1.934,-3.864 133.957,77.875 1.429,-10.717 c 0.092,-2.53 4.257,-16.285 5.359,-18.576 1.621,-3.358 3.531,-6.814 5.716,-10.358 l 6.072,-7.859 4.286,-3.93 5.44,-4.438 5.644,-3.001 6.063,-2.564 c 2.861,-1.643 5.722,-2.491 8.583,-3.152 2.711,-0.757 5.592,-1.085 8.564,-1.134 l -1.071,-1.785 -162.179,-100.737 z"  id="path3257"  style="stroke:none;marker-start:none;marker-end:none" /><path  d="m 175.152,477.569 -14.289,96.449 112.882,-38.58"  id="path3259"  style="fill:none;stroke:#000000;stroke-width:3.80999994;stroke-linecap:round;stroke-linejoin:round;stroke-miterlimit:79.84031677" /><path  d="M 235.165,598.309 175.866,476.14"  id="path3261"  style="fill:none;stroke:#000000;stroke-width:3.80999994;stroke-linecap:round;stroke-linejoin:round;stroke-miterlimit:79.84031677" /><path  d="M 355.192,664.753 480.219,655.465 412.347,725.48 384.484,600.453"  id="path3263"  style="fill:none;stroke:#000000;stroke-width:3.80999994;stroke-linecap:round;stroke-linejoin:round;stroke-miterlimit:79.84031677" /></g><ellipse cx="0" cy="0" rx="71.973999" ry="73.232002" transform="matrix(0,1,-1,0,303.394,614.926)" id="ellipse3265" style="stroke:none" /></g><ellipse cx="0" cy="0" rx="64.667" ry="64.364998" transform="matrix(0,1,-1,0,303.101,615.089)" id="ellipse3267" style="fill:#ffffff;stroke:none" /><g id="Group_3" style="stroke:none"><path d="m 284.45,582.501 c 6.253,-1.373 12.88,-1.553 19.579,-0.326 17.083,3.129 30.51,14.658 36.743,29.499 -1.392,-19.467 -18.116,-34.641 -38.177,-34.216 -6.622,0.14 -12.808,1.963 -18.145,5.043 z m -3.962,4.989 c 2.867,1.952 4.815,4.984 5.079,8.505 0.486,6.489 -4.926,12.191 -12.08,12.727 -2.503,0.188 -4.887,-0.281 -6.952,-1.248 -0.475,2.469 -0.697,5.023 -0.641,7.634 0.431,20.346 17.573,36.502 38.263,36.064 8.919,-0.19 17.046,-3.432 23.375,-8.688 -2.657,-1.897 -4.448,-4.77 -4.697,-8.088 -0.472,-6.292 4.776,-11.822 11.714,-12.342 1.444,-0.109 2.848,0.007 4.171,0.319 -4.652,-17.322 -19.415,-31.488 -38.902,-35.056 -6.621,-1.214 -13.163,-1.09 -19.33,0.173 z" id="path3270" style="fill:#000000;marker-start:none;marker-end:none" /><path d="m 289.346,613.288 c 0.575,7.668 7.905,13.377 16.36,12.743 8.456,-0.634 14.852,-7.372 14.277,-15.042 -0.576,-7.668 -7.906,-13.377 -16.361,-12.743 -8.455,0.634 -14.852,7.373 -14.276,15.042 z" id="path3272" style="fill:#ffffff;marker-start:none;marker-end:none" /></g><g id="Group_4" style="fill:#000000;fill-rule:nonzero;stroke:none"><path d="m 272.617,587.788 2.291,-1.764 -3.414,-18.477 10.203,13.248 1.909,-1.47 -11.832,-15.364 -2.9,2.233 3.189,16.925 -9.369,-12.165 -1.909,1.47 11.832,15.364 z" id="path3275" style="marker-start:none;marker-end:none" /><path d="m 264.321,601.978 6.463,-11.903 -2.106,-1.144 -17.873,2.105 4.728,-8.708 -2.014,-1.095 -6.115,11.263 2.048,1.112 17.984,-2.17 -5.129,9.446 2.014,1.094 z" id="path3277" style="marker-start:none;marker-end:none" /><path d="m 263.844,602.493 -20.014,4.275 -0.364,3.156 18.516,8.716 0.312,-2.704 -5.18,-2.366 0.848,-7.364 5.584,-1.125 0.298,-2.588 z m -8.835,10.115 -8.735,-4.025 9.419,-1.918 -0.684,5.943 z" id="path3279" style="marker-start:none;marker-end:none" /><path d="m 262.52,620.605 -18.643,5.339 3.337,11.656 2.205,-0.631 -2.628,-9.177 5.107,-1.463 2.449,8.551 2.204,-0.631 -2.449,-8.551 6.924,-1.983 2.628,9.177 2.204,-0.63 -3.338,-11.657 z" id="path3281" style="marker-start:none;marker-end:none" /><path d="m 276.319,646.829 -2.042,-2.651 -9.854,-0.157 -1.802,-2.339 6.108,-4.705 -1.574,-2.043 -15.362,11.835 3.052,3.962 c 0.678,0.88 1.294,1.58 1.85,2.101 0.554,0.521 1.213,0.914 1.977,1.18 0.757,0.272 1.528,0.356 2.313,0.25 0.784,-0.106 1.579,-0.469 2.383,-1.089 1.128,-0.869 1.851,-1.88 2.168,-3.034 0.316,-1.154 0.278,-2.363 -0.115,-3.627 l 10.898,0.317 z m -14.441,4.089 c -0.447,0.345 -0.905,0.572 -1.375,0.681 -0.469,0.11 -0.94,0.084 -1.415,-0.077 -0.415,-0.14 -0.81,-0.372 -1.186,-0.697 -0.376,-0.324 -0.783,-0.772 -1.224,-1.342 l -1.557,-2.023 5.797,-4.466 1.384,1.794 c 0.45,0.585 0.804,1.151 1.061,1.699 0.257,0.547 0.351,1.11 0.283,1.689 -0.062,0.518 -0.238,1.001 -0.528,1.45 -0.291,0.448 -0.703,0.879 -1.24,1.292 z" id="path3283" style="marker-start:none;marker-end:none" /><path d="m 282.221,669.295 c 1.045,-0.42 2.037,-1.097 2.975,-2.03 0.938,-0.934 1.776,-2.119 2.514,-3.555 0.718,-1.399 1.189,-2.752 1.413,-4.063 0.224,-1.309 0.196,-2.52 -0.084,-3.63 -0.29,-1.164 -0.806,-2.177 -1.548,-3.042 -0.742,-0.864 -1.677,-1.586 -2.805,-2.165 -1.165,-0.599 -2.317,-0.942 -3.455,-1.027 -1.136,-0.087 -2.241,0.088 -3.314,0.523 -1.057,0.424 -2.05,1.104 -2.98,2.041 -0.93,0.937 -1.759,2.113 -2.485,3.527 -0.746,1.452 -1.221,2.818 -1.425,4.1 -0.204,1.281 -0.176,2.486 0.084,3.615 0.272,1.106 0.775,2.098 1.508,2.977 0.735,0.881 1.68,1.618 2.84,2.212 1.173,0.603 2.336,0.942 3.489,1.017 1.153,0.074 2.243,-0.093 3.273,-0.5 z m 3.103,-6.811 c -0.588,1.143 -1.231,2.091 -1.93,2.845 -0.699,0.754 -1.421,1.304 -2.167,1.654 -0.761,0.361 -1.541,0.524 -2.338,0.49 -0.798,-0.034 -1.598,-0.257 -2.401,-0.669 -0.835,-0.429 -1.488,-0.947 -1.961,-1.557 -0.473,-0.609 -0.792,-1.341 -0.958,-2.197 -0.155,-0.821 -0.125,-1.737 0.087,-2.751 0.214,-1.013 0.608,-2.079 1.183,-3.199 1.162,-2.264 2.527,-3.752 4.093,-4.464 1.567,-0.714 3.15,-0.659 4.749,0.161 1.598,0.821 2.562,2.075 2.892,3.762 0.329,1.687 -0.087,3.661 -1.249,5.925 z" id="path3285" style="marker-start:none;marker-end:none" /><path d="m 308.086,661.862 c 0.042,-0.963 -0.104,-1.821 -0.436,-2.574 -0.333,-0.753 -0.797,-1.382 -1.392,-1.885 -0.704,-0.604 -1.467,-1.044 -2.289,-1.318 -0.823,-0.274 -1.894,-0.44 -3.212,-0.497 l -5.556,-0.239 -0.835,19.374 5.139,0.221 c 1.379,0.06 2.416,0.059 3.109,-0.002 0.694,-0.062 1.364,-0.248 2.012,-0.56 0.71,-0.342 1.239,-0.808 1.586,-1.397 0.347,-0.589 0.537,-1.291 0.573,-2.107 0.039,-0.91 -0.166,-1.736 -0.617,-2.477 -0.45,-0.741 -1.091,-1.334 -1.924,-1.777 l 0.005,-0.105 c 1.167,-0.262 2.085,-0.795 2.754,-1.595 0.669,-0.801 1.03,-1.822 1.083,-3.062 z m -3.966,8.537 c -0.02,0.468 -0.116,0.869 -0.286,1.206 -0.171,0.335 -0.435,0.596 -0.79,0.781 -0.427,0.216 -0.897,0.339 -1.411,0.368 -0.513,0.031 -1.222,0.026 -2.124,-0.013 l -2.472,-0.107 0.245,-5.672 2.927,0.126 c 0.807,0.035 1.399,0.101 1.777,0.201 0.379,0.099 0.765,0.287 1.162,0.564 0.38,0.269 0.643,0.61 0.79,1.025 0.147,0.415 0.208,0.922 0.182,1.521 z m 1.29,-8.757 c -0.031,0.728 -0.161,1.325 -0.39,1.789 -0.228,0.463 -0.666,0.846 -1.313,1.148 -0.417,0.199 -0.868,0.319 -1.352,0.359 -0.484,0.04 -1.169,0.041 -2.054,0.003 l -2.927,-0.126 0.309,-7.156 2.094,0.089 c 1.128,0.05 2.015,0.14 2.661,0.272 0.647,0.132 1.21,0.378 1.689,0.738 0.471,0.359 0.811,0.758 1.017,1.197 0.208,0.44 0.296,1.002 0.266,1.687 z" id="path3287" style="marker-start:none;marker-end:none" /><path d="m 309.044,656.067 12.875,15.908 2.979,-1.105 -0.614,-20.456 -2.552,0.947 0.236,5.691 -6.949,2.578 -3.532,-4.469 -2.443,0.906 z m 13.019,3.297 0.368,9.611 -5.977,-7.531 5.609,-2.08 z" id="path3289" style="marker-start:none;marker-end:none" /><path d="m 327.992,646.969 11.124,12.986 -4.946,4.237 1.492,1.741 11.849,-10.149 -1.491,-1.741 -4.946,4.236 -11.123,-12.988 -1.959,1.678 z" id="path3291" style="marker-start:none;marker-end:none" /><path d="m 339.217,633.28 -3.913,6.431 1.692,1.029 1.285,-2.114 13.186,8.021 -1.286,2.114 1.691,1.028 3.912,-6.431 -1.691,-1.028 -1.286,2.113 -13.186,-8.02 1.286,-2.114 -1.69,-1.029 z" id="path3293" style="marker-start:none;marker-end:none" /><path d="m 342.207,622.968 c -0.295,1.234 -0.357,2.417 -0.191,3.551 0.168,1.132 0.572,2.172 1.212,3.119 0.64,0.947 1.523,1.773 2.649,2.479 1.126,0.706 2.484,1.248 4.071,1.626 1.58,0.376 3.004,0.504 4.274,0.383 1.269,-0.122 2.431,-0.463 3.483,-1.024 1.024,-0.551 1.88,-1.289 2.57,-2.213 0.688,-0.925 1.185,-2.025 1.488,-3.301 0.152,-0.633 0.246,-1.237 0.285,-1.812 0.039,-0.576 0.043,-1.117 0.013,-1.625 -0.031,-0.435 -0.09,-0.889 -0.178,-1.361 -0.089,-0.471 -0.198,-0.942 -0.327,-1.41 l -3.028,-0.721 -0.048,0.203 c 0.15,0.268 0.328,0.609 0.532,1.023 0.205,0.415 0.387,0.905 0.547,1.47 0.147,0.544 0.238,1.118 0.272,1.724 0.034,0.606 -0.037,1.281 -0.215,2.024 -0.191,0.803 -0.537,1.524 -1.037,2.163 -0.5,0.64 -1.136,1.153 -1.907,1.541 -0.768,0.379 -1.674,0.6 -2.715,0.665 -1.042,0.064 -2.171,-0.049 -3.387,-0.339 -1.292,-0.308 -2.368,-0.729 -3.227,-1.264 -0.859,-0.535 -1.544,-1.149 -2.057,-1.842 -0.501,-0.673 -0.824,-1.402 -0.972,-2.187 -0.148,-0.785 -0.127,-1.574 0.062,-2.368 0.173,-0.727 0.422,-1.376 0.746,-1.951 0.325,-0.574 0.679,-1.069 1.064,-1.487 0.372,-0.402 0.736,-0.74 1.09,-1.011 0.356,-0.274 0.654,-0.483 0.894,-0.631 l 0.046,-0.191 -2.99,-0.712 c -0.293,0.368 -0.572,0.714 -0.837,1.039 -0.265,0.325 -0.544,0.73 -0.838,1.213 -0.308,0.508 -0.565,0.984 -0.769,1.43 -0.205,0.446 -0.396,1.046 -0.575,1.797 z" id="path3295" style="marker-start:none;marker-end:none" /></g><text transform="matrix(1,0,0,-1,296.851,554)" id="text3297" xml:space="preserve" style="font-size:25.79299927px;fill:#000000;stroke:none;font-family:Arial"><tspan x="0" y="0" id="tspan3299">C</tspan></text><text transform="matrix(0.894897,0.446243,0.446243,-0.894897,321.276,556.803)" id="text3301" xml:space="preserve" style="font-size:25.79299927px;fill:#000000;stroke:none;font-family:Arial"><tspan x="0" y="0" id="tspan3303">L</tspan></text><text transform="matrix(0.77066,0.637238,0.637238,-0.77066,335.514,563.286)" id="text3305" xml:space="preserve" style="font-size:25.79299927px;fill:#000000;stroke:none;font-family:Arial"><tspan x="0" y="0" id="tspan3307">U</tspan></text><text transform="matrix(0.561752,0.827301,0.827301,-0.561752,351.122,577.715)" id="text3309" xml:space="preserve" style="font-size:25.79299927px;fill:#000000;stroke:none;font-family:Arial"><tspan x="0" y="0" id="tspan3311">B</tspan></text></g></g></g></g></svg>
