<svg xmlns:dc="http://purl.org/dc/elements/1.1/" xmlns:cc="http://creativecommons.org/ns#" xmlns:rdf="http://www.w3.org/1999/02/22-rdf-syntax-ns#" xmlns:svg="http://www.w3.org/2000/svg" xmlns="http://www.w3.org/2000/svg" version="1.1" width="286" height="95" id="svg2"><defs id="defs4" /><g transform="translate(-365.57,-699.14)" id="layer1"><path d="m 502.57,784.23 c 0.82,-0.46 4.22,-1.07 7.56,-1.33 7.16,-0.57 13.64,-3.23 18.69,-7.66 5.26,-4.62 5.49,-6.34 1.58,-12.11 -1.83,-2.70 -3.57,-4.92 -3.87,-4.94 -0.29,-0.01 -1.09,2.05 -1.77,4.59 -0.93,3.50 -2.73,6.09 -7.45,10.75 -6.43,6.35 -13.01,9.63 -19.27,9.62 -5.02,-0.00 -17.61,-9.30 -16.04,-11.84 0.33,-0.54 3.04,1.39 6.02,4.30 6.90,6.73 10.45,7.50 14.75,3.20 2.39,-2.39 2.92,-3.67 2.62,-6.31 -0.25,-2.17 0.08,-3.48 0.99,-3.83 2.00,-0.76 2.04,-0.73 2.41,1.72 0.20,1.36 0.92,2.12 1.81,1.92 0.81,-0.17 -0.32,1.56 -2.52,3.87 -2.2,2.30 -3.1,3.70 -2,3.09 5.88,-3.21 12.34,-10.99 10.24,-12.32 -0.83,-0.53 -0.52,-0.79 0.94,-0.80 1.20,-0.00 2.47,-0.47 2.81,-1.03 0.34,-0.55 1.15,-0.71 1.80,-0.35 0.84,0.47 0.87,0.33 0.12,-0.49 -0.79,-0.87 -2.26,-0.79 -5.97,0.32 -2.70,0.81 -5.29,1.10 -5.75,0.64 -0.45,-0.45 1.01,-1.12 3.27,-1.49 2.26,-0.36 3.84,-1.09 3.51,-1.62 -0.32,-0.53 0.00,-0.73 0.74,-0.45 2.01,0.77 0.64,-10.13 -1.84,-14.65 -1.93,-3.51 -2.08,-3.58 -5.44,-2.5 -2.50,0.81 -3.54,1.78 -3.79,3.58 -0.38,2.72 4.54,13.01 6.26,13.06 2.19,0.06 -2.31,1.96 -6.05,2.55 -2.12,0.33 -4.01,0.75 -4.20,0.93 -0.18,0.18 -1.62,-1.12 -3.18,-2.89 -3.14,-3.58 -11.68,-8.59 -16.41,-9.62 -2.88,-0.62 -2.72,-0.74 2.60,-1.97 6.55,-1.51 8.32,-2.41 7.48,-3.78 -0.69,-1.11 -14.40,3.05 -16.09,4.89 -0.77,0.84 -0.58,0.98 0.74,0.51 1.07,-0.37 1.55,-0.23 1.19,0.35 -0.33,0.54 -1.59,0.99 -2.80,1.00 -1.90,0.01 -1.75,0.29 1.13,2.14 3.67,2.35 2.89,3.79 -2.07,3.82 -2.76,0.01 -6.75,-3.00 -6.75,-5.12 0,-0.62 -1.16,-2.21 -2.59,-3.54 -1.83,-1.70 -2.43,-3.05 -2.04,-4.62 0.42,-1.70 -0.12,-2.60 -2.40,-3.91 -1.76,-1.01 -2.95,-2.52 -2.95,-3.74 0,-1.12 -0.42,-2.04 -0.94,-2.04 -15.60,0 -53.34,-0.99 -55.50,-1.46 -7.15,-1.55 -16.71,-3.53 -17.11,-3.53 -0.23,0 -0.43,0.39 -0.43,0.87 0,3.19 32.79,6.60 57.18,5.93 14.33,-0.39 14.70,-0.35 15.68,1.79 0.91,2.01 0.64,2.28 -3.18,3.24 -4.88,1.21 -24.05,3.38 -30.94,3.5 -2.82,0.04 -4.62,0.50 -4.41,1.11 0.59,1.75 26.67,0.89 29.71,-0.98 0.33,-0.20 1.69,-0.59 3.03,-0.86 1.33,-0.27 3.84,-0.92 5.57,-1.45 3.44,-1.04 5.35,-0.01 5.35,2.92 0,1.44 -4.10,3.93 -7.5,4.55 -0.55,0.10 -3.66,0.89 -6.92,1.76 -3.25,0.86 -8.76,1.87 -12.25,2.22 -6.00,0.61 -7.84,1.59 -5.07,2.71 0.87,0.35 0.90,0.52 0.07,0.58 -0.64,0.04 -1.79,-0.53 -2.54,-1.29 -0.75,-0.75 -2.81,-2.11 -4.57,-3.02 -1.76,-0.91 -3.20,-2.21 -3.20,-2.90 0,-3.02 -4.64,-5.21 -14.5,-6.81 -12.45,-2.02 -17.11,-3.91 -18.72,-7.58 -0.67,-1.54 -3.42,-4.93 -6.11,-7.54 -3.11,-3.02 -4.67,-5.28 -4.30,-6.25 0.74,-1.93 3.04,-1.93 4.64,-0.01 1.07,1.29 7.89,1.5 50.08,1.5 48.36,0 48.85,0.02 50.79,2.10 2.79,2.99 1.87,5.56 -3.85,10.87 -4.93,4.56 -6.24,7.00 -3.77,7.03 0.83,0.01 0.75,0.33 -0.25,0.98 -0.82,0.53 -1.95,0.96 -2.5,0.96 -0.55,0 -0.32,-0.43 0.5,-0.96 0.82,-0.53 0.99,-0.97 0.37,-0.98 -0.62,-0.00 -1.74,0.74 -2.5,1.67 -0.75,0.93 -0.84,1.37 -0.20,0.99 0.64,-0.38 1.35,-0.13 1.58,0.55 0.54,1.62 13.17,-2.38 16.64,-5.29 3.51,-2.94 2.06,-3.30 -3.89,-0.95 -2.89,1.14 -5.43,1.89 -5.65,1.67 -0.21,-0.21 1.87,-1.25 4.65,-2.31 4.71,-1.79 4.95,-2.04 3.63,-3.85 -1.21,-1.65 -1.64,-1.74 -3.04,-0.58 -0.89,0.74 -1.88,1.10 -2.19,0.79 -0.30,-0.30 0.61,-1.33 2.04,-2.27 1.91,-1.25 2.45,-2.27 2.03,-3.82 -0.53,-1.96 -0.47,-1.99 0.83,-0.36 1.49,1.85 3.24,2.44 2.19,0.75 -0.84,-1.36 0.66,-1.25 4.40,0.31 1.72,0.72 2.82,1.62 2.44,2 -0.37,0.37 0.02,0.68 0.89,0.68 0.87,0 2.48,-1.23 3.58,-2.74 1.10,-1.51 2.33,-2.41 2.74,-2.00 0.40,0.40 -0.07,1.64 -1.07,2.74 -2.28,2.52 -2.24,2.52 9.23,-0.53 5.24,-1.39 9.99,-2.38 10.56,-2.19 0.56,0.18 -2.98,1.37 -7.88,2.63 -4.90,1.25 -10.42,2.80 -12.27,3.43 -3.15,1.07 -3.21,1.17 -1,1.71 5.00,1.21 26.04,-4.39 25.15,-6.70 -1.19,-3.11 2.83,-0.98 7.09,3.75 4.15,4.61 7.60,12.17 7.60,16.64 0,2.35 1.81,0.38 2.49,-2.70 0.90,-4.13 -1.82,-9.32 -6.56,-12.46 -4.49,-2.97 -5.17,-6.32 -1.92,-9.56 1.94,-1.94 3.33,-2 50.67,-2 43.47,0 48.86,-0.17 50.46,-1.62 1.74,-1.58 4.86,-1.30 4.86,0.42 0,0.47 -2.25,3.18 -5.02,6.02 -2.76,2.83 -5.44,6.27 -5.96,7.63 -0.54,1.43 -2.47,3.11 -4.55,3.99 -3.37,1.40 -17.51,4.42 -22.77,4.85 -2.52,0.20 -4.22,1.66 -6.96,5.94 -0.96,1.51 -2.35,2.75 -3.08,2.75 -0.72,0 -2.13,0.9 -3.13,2 -0.99,1.1 -2.23,2 -2.76,2 -0.52,0 -2.28,1.12 -3.92,2.5 -1.63,1.37 -3.55,2.5 -4.27,2.5 -0.71,0 -1.86,0.67 -2.54,1.5 -0.68,0.82 -1.92,1.5 -2.76,1.5 -0.83,0 -2.02,0.68 -2.63,1.52 -0.63,0.86 -5.12,2.34 -10.40,3.43 -10.05,2.06 -18.04,1.61 -20.83,-1.16 -1.31,-1.31 -2.20,-0.77 -7.67,4.65 -4.67,4.63 -7.50,6.55 -11.55,7.84 -5.45,1.73 -19.98,2.40 -17.13,0.79 z m 49,-12.03 c 0,-0.51 -0.81,-1.53 -1.81,-2.25 -2.90,-2.09 -6.48,-7.51 -5.74,-8.71 1.18,-1.92 2.61,-1.21 8.82,4.40 3.34,3.02 6.90,5.5 7.90,5.5 2.68,0 2.32,-0.47 -2.94,-3.85 -6.15,-3.94 -10.75,-8.70 -9.29,-9.60 0.60,-0.37 0.83,-1.09 0.52,-1.60 -0.96,-1.56 0.05,-1.13 10.82,4.56 9.47,5.01 14.72,6.70 14.71,4.75 -9.9e-4,-0.41 -5.40,-3.17 -12,-6.13 -6.59,-2.95 -11.99,-5.74 -11.99,-6.18 0,-2.07 4.54,-1.74 12.63,0.92 8.34,2.75 16.29,4.60 19.11,4.45 4.52,-0.23 5.25,-0.42 5.25,-1.31 0,-0.55 -1.46,-1.00 -3.25,-1.01 -1.78,-0.00 -7.3,-0.90 -12.25,-1.98 -15.60,-3.40 -17.5,-4.20 -17.5,-7.39 0,-3.30 1.31,-3.53 8.66,-1.49 8.89,2.46 15.57,3.35 25.25,3.37 10.17,0.01 12.23,-1.91 2.34,-2.20 -12.06,-0.34 -32.25,-3.37 -32.25,-4.83 0,-0.26 0.49,-1.26 1.10,-2.23 0.99,-1.59 2.65,-1.72 17.33,-1.37 26.35,0.63 58.65,-3.06 55.37,-6.35 -0.28,-0.28 -3.84,0.20 -7.91,1.08 -11.54,2.50 -17.71,2.92 -42.57,2.92 l -23.17,0 -0.51,2.56 c -0.29,1.46 -1.60,3.05 -3.07,3.72 -1.92,0.87 -2.56,1.91 -2.56,4.16 0,2.07 -0.75,3.49 -2.44,4.59 -1.34,0.87 -2.57,2.56 -2.75,3.73 -0.40,2.82 -4.73,5.19 -8.00,4.37 -2.37,-0.59 -2.52,-0.96 -2.04,-5.16 0.59,-5.26 -1.49,-11.46 -5.39,-15.99 -1.41,-1.65 -2.27,-2.42 -1.89,-1.72 0.44,0.83 -0.55,1.78 -2.89,2.76 -1.96,0.82 -3.56,1.59 -3.56,1.72 0.00,0.13 0.68,2.44 1.5,5.14 0.81,2.69 1.48,6.41 1.48,8.25 0,3.34 0.09,3.41 5,3.80 2.42,0.18 11,4.63 11,5.69 0,1.87 6.10,9.84 7.54,9.84 0.79,0 1.45,-0.42 1.45,-0.94 z m -42.68,-11.80 c -0.34,-0.96 -1.76,-3.73 -3.15,-6.16 -2.36,-4.11 -2.59,-4.26 -3.48,-2.27 -0.77,1.74 -0.32,2.85 2.43,6.07 3.67,4.27 5.19,5.12 4.20,2.36 z m -4.46,-14.97 c -0.73,-0.91 -0.82,-1.34 -0.19,-0.96 1.05,0.63 19.81,-5.30 23.34,-7.38 0.95,-0.56 -0.71,-0.80 -4.64,-0.65 -3.41,0.12 -5.89,0.63 -5.58,1.15 0.30,0.50 -0.21,0.62 -1.15,0.26 -0.94,-0.36 -1.47,-0.26 -1.17,0.21 0.29,0.47 -2.38,1.70 -5.94,2.72 -3.56,1.02 -6.48,2.22 -6.48,2.67 0,0.45 -0.53,0.48 -1.19,0.08 -0.65,-0.40 -0.12,0.76 1.19,2.61 1.32,1.86 2.56,2.81 2.79,2.14 0.22,-0.66 -0.20,-1.95 -0.94,-2.86 z m -48.18,26.68 c -4.86,-1.00 -9.36,-2.47 -10,-3.27 -0.63,-0.79 -1.83,-1.69 -2.65,-1.98 -1.03,-0.37 -0.86,-0.56 0.56,-0.61 2.49,-0.09 8.90,-3.08 16.74,-7.80 3.19,-1.92 5.95,-3.33 6.12,-3.13 0.17,0.19 0.61,1.31 0.97,2.48 0.54,1.76 -0.40,2.91 -5.51,6.71 -3.39,2.52 -6.66,4.76 -7.27,4.98 -0.61,0.22 -0.77,0.76 -0.36,1.20 0.91,0.98 4.49,-0.85 8.36,-4.29 1.58,-1.41 3.82,-3.40 4.98,-4.43 2.54,-2.26 5.85,-1.48 4.44,1.04 -0.50,0.90 -2.50,3.45 -4.43,5.65 -2.02,2.30 -3.03,4.16 -2.37,4.39 1.41,0.49 7.57,-6.58 8.38,-9.64 0.32,-1.23 1.34,-2.25 2.26,-2.25 0.91,0 2.72,-0.73 4.01,-1.64 2.25,-1.57 9.12,-2.68 9.07,-1.45 -0.07,1.73 -7.16,9.94 -10.55,12.23 -5.30,3.56 -11.80,4.08 -22.76,1.82 z m 55.35,-1.51 c 0.02,-1.38 1.79,-3.96 2.34,-3.41 0.25,0.25 -0.16,1.34 -0.94,2.41 -0.78,1.06 -1.41,1.51 -1.40,0.99 z m -12.01,-3.40 c 0,-0.83 8.17,-2.19 8.89,-1.47 0.76,0.76 -0.28,1.14 -4.64,1.70 -2.33,0.29 -4.25,0.19 -4.25,-0.23 z m -62.99,-3.78 c -4.16,-2.07 -5.15,-4.81 -1.78,-4.91 1.25,-0.03 3.40,-0.32 4.78,-0.64 1.37,-0.32 3.59,-0.81 4.92,-1.10 1.33,-0.29 5.98,-1.71 10.34,-3.16 6.03,-2.01 8.42,-2.39 10.07,-1.62 1.91,0.89 0.92,1.60 -8.62,6.20 -5.93,2.85 -11.43,5.29 -12.22,5.40 -0.79,0.11 -1.74,0.52 -2.13,0.90 -0.99,0.99 -1.44,0.90 -5.35,-1.05 z m 55.49,-33.24 c 0.33,-0.55 1.06,-1 1.61,-1 0.55,0 0.72,0.45 0.38,1 -0.33,0.55 -1.06,1 -1.61,1 -0.55,0 -0.72,-0.45 -0.38,-1 z m 25.5,-2.18 c -6.36,-1.88 -11.37,-1.92 -20.89,-0.16 -4.62,0.85 -3.25,-1.25 1.68,-2.58 8.25,-2.21 20.02,-1.10 24.73,2.33 3.18,2.33 1.40,2.46 -5.52,0.41 z m -127.22,-4.65 c 0.70,-0.44 1.54,-3.09 1.87,-5.89 0.58,-4.94 0.68,-5.07 3.72,-4.92 2.45,0.12 3.19,0.65 3.45,2.49 0.38,2.70 -2.58,6.47 -4.51,5.73 -1.18,-0.45 -1.75,0.62 -1.43,2.68 0.06,0.41 -0.89,0.74 -2.13,0.73 -1.53,-0.01 -1.84,-0.27 -0.97,-0.82 z m 7.22,-7.78 c 0,-1.30 -0.46,-2.37 -1.02,-2.37 -1.29,0 -3.18,4.84 -2.39,6.13 0.96,1.56 3.41,-1.12 3.41,-3.75 z m 140,7.65 c 0,-0.53 0.64,-0.72 1.43,-0.41 1.33,0.51 2.50,-2.80 3.04,-8.61 0.24,-2.61 2.53,-6 4.05,-6 0.80,0 1.46,0.43 1.46,0.96 0,0.53 -0.74,0.68 -1.66,0.33 -1.31,-0.50 -1.54,-0.18 -1.09,1.53 0.31,1.19 0.21,2.38 -0.22,2.65 -0.43,0.26 -1.10,2.18 -1.49,4.25 -0.38,2.06 -1.16,4.32 -1.73,5.01 -1.22,1.47 -3.78,1.66 -3.78,0.28 z m 63,-0.13 c 0,-0.60 0.65,-0.85 1.44,-0.55 1.60,0.61 2.46,-1.29 2.93,-6.52 0.38,-4.27 2.26,-7.81 4.15,-7.81 0.80,0 1.46,0.45 1.46,1 0,0.55 -0.50,0.88 -1.12,0.75 -0.61,-0.13 -1.33,0.31 -1.58,1 -0.43,1.19 1.90,1.75 5.95,1.42 0.96,-0.08 1.75,0.47 1.75,1.23 0,0.75 -0.77,1.31 -1.71,1.23 -0.98,-0.07 -1.87,0.71 -2.09,1.86 -0.21,1.1 -0.84,2.45 -1.40,3 -0.69,0.68 -0.80,-0.22 -0.34,-2.83 0.59,-3.32 0.44,-3.78 -1.08,-3.49 -1.14,0.22 -2.05,1.72 -2.58,4.25 -0.44,2.15 -1.30,4.51 -1.91,5.24 -1.33,1.61 -3.85,1.75 -3.85,0.22 z m -216.75,-2.55 c -0.68,-0.27 -1.25,-1.46 -1.25,-2.64 l 0,-2.13 1.55,2.22 c 1.83,2.62 3.26,2.83 4.11,0.62 0.39,-1.03 -0.40,-2.41 -2.28,-3.93 -2.79,-2.25 -2.83,-2.39 -1.09,-4.15 1.56,-1.57 1.71,-1.59 1.17,-0.14 -0.42,1.13 0.20,2.22 1.94,3.36 2.95,1.93 3.24,3.64 1.00,5.88 -1.59,1.59 -2.91,1.82 -5.17,0.90 z m 18,0 c -3.21,-1.29 -0.15,-8.84 3.31,-8.18 2.66,0.50 3.24,5.78 0.82,7.55 -1.88,1.38 -2.18,1.42 -4.14,0.63 z m 3.81,-3.00 c 1.08,-2.85 -0.04,-5.08 -1.97,-3.89 -1.37,0.85 -1.43,6.55 -0.06,6.55 0.56,0 1.48,-1.19 2.03,-2.66 z m 11.41,2.46 c -0.64,-1.67 -0.08,-6.99 0.89,-8.58 0.57,-0.92 1.03,-0.91 2.05,0.03 1.08,1.01 1.04,1.42 -0.19,2.33 -0.97,0.71 -1.33,2.06 -1.00,3.78 0.53,2.79 -0.85,4.73 -1.74,2.42 z m 19.77,0.54 c -2.84,-1.14 -0.53,-8.33 2.67,-8.33 3.00,0 3.38,2.89 0.55,4.19 -1.36,0.62 -2.48,1.43 -2.48,1.80 0,1.54 1.42,1.90 2.90,0.74 1.40,-1.09 1.43,-1.03 0.21,0.50 -1.42,1.82 -1.80,1.92 -3.87,1.08 z m 3.56,-6.27 c 0.25,-0.75 -0.12,-1.12 -0.87,-0.87 -0.72,0.24 -1.50,1.02 -1.75,1.75 -0.25,0.75 0.12,1.12 0.87,0.87 0.72,-0.24 1.50,-1.02 1.75,-1.75 z m 10.15,4.87 c -1.53,-2.85 1.25,-7.18 4.34,-6.74 2.81,0.40 3.45,4.31 1.11,6.89 -2.24,2.48 -4.08,2.43 -5.46,-0.14 z m 5.03,-3.55 c 0,-3.16 -2.77,-3.11 -3.57,0.06 -0.33,1.34 -0.30,2.94 0.07,3.54 1.06,1.71 3.50,-0.80 3.50,-3.61 z m 4.10,4.70 c -1.14,-0.72 -1.18,-1.70 -0.22,-5.53 0.64,-2.55 0.90,-5.07 0.58,-5.60 -0.32,-0.52 0.14,-0.94 1.04,-0.94 1.17,0 1.44,0.55 0.99,2 -0.44,1.40 -0.17,2 0.89,2 3.39,0 3.93,5.25 0.79,7.75 -1.85,1.47 -2.24,1.50 -4.08,0.33 z m 4.08,-2.61 c 0.88,-1.93 0.86,-2.81 -0.06,-3.74 -1.49,-1.49 -3.09,0.56 -3.11,4.01 -0.02,3.01 1.75,2.85 3.17,-0.27 z m 3.66,1.85 c -1.88,-2.26 0.88,-6.73 4.42,-7.14 2.63,-0.30 2.71,-0.17 2.34,3.90 -0.33,3.67 -0.71,4.25 -2.94,4.49 -1.40,0.15 -3.13,-0.41 -3.82,-1.24 z m 4.74,-2.87 c 0.35,-1.40 0.37,-2.81 0.04,-3.14 -0.98,-0.98 -3.64,1.79 -3.64,3.81 0,2.80 2.86,2.26 3.60,-0.66 z m 4.92,3.58 c -0.75,-1.22 0.05,-8.96 1.03,-9.87 0.39,-0.36 0.91,-0.09 1.15,0.59 0.24,0.68 1.53,1.25 2.86,1.25 2.23,0 2.38,0.31 2.03,4.25 -0.21,2.33 -0.77,4.02 -1.24,3.75 -0.47,-0.27 -0.72,-2.00 -0.56,-3.83 0.24,-2.70 -0.02,-3.27 -1.42,-3 -2.01,0.38 -3.76,5.53 -2.07,6.10 0.78,0.26 0.77,0.56 -0.03,1.06 -0.62,0.38 -1.40,0.25 -1.74,-0.29 z m 9.45,-0.56 c -2.51,-3.03 2.53,-9.36 5.27,-6.61 0.61,0.61 0.78,1.44 0.37,1.85 -0.40,0.40 -1.16,0.07 -1.68,-0.73 -0.83,-1.29 -1.06,-1.28 -1.93,0.02 -1.75,2.67 -1.18,4.99 1.23,5.01 1.81,0.01 1.96,0.20 0.75,0.98 -2.03,1.31 -2.54,1.24 -4.02,-0.52 z m 11.59,-0.04 c -1.95,-1.95 -1.98,-3.73 -0.11,-7.35 2.34,-4.54 8.54,-5.08 8.54,-0.74 0,2.10 -0.00,2.10 -1.55,-0.11 -1.21,-1.73 -1.95,-2.01 -3.38,-1.24 -2.33,1.24 -3.41,5.49 -2.04,8.05 1.27,2.38 2.33,2.48 4.41,0.40 0.86,-0.86 1.57,-1.10 1.57,-0.53 0,1.08 -3.16,3.10 -4.86,3.10 -0.54,0 -1.70,-0.70 -2.56,-1.57 z m 9.09,0.83 c -0.29,-0.47 -0.09,-2.83 0.44,-5.23 0.53,-2.40 0.75,-4.96 0.46,-5.69 -0.29,-0.76 0.16,-1.33 1.06,-1.33 1.29,0 1.44,0.67 0.80,3.75 -0.42,2.06 -0.84,4.75 -0.93,5.99 -0.19,2.58 -1.06,3.78 -1.85,2.51 z m 4.84,-0.57 c -0.72,-2.28 -10e-4,-7.67 0.99,-7.33 0.55,0.19 0.85,1.76 0.68,3.49 -0.33,3.35 1.48,4.40 2.42,1.40 1.62,-5.15 2.26,-5.59 1.95,-1.34 -0.28,3.94 -0.59,4.43 -2.99,4.68 -1.47,0.15 -2.85,-0.24 -3.05,-0.90 z m 8.98,0.30 c -0.34,-0.55 -0.27,-3.13 0.13,-5.75 0.41,-2.61 0.66,-5.08 0.56,-5.49 -0.10,-0.41 0.25,-0.75 0.80,-0.75 0.55,0 1,0.84 1,1.88 0,1.04 0.89,2.11 2,2.40 2.56,0.67 2.66,4.79 0.17,7.05 -2.07,1.88 -3.76,2.11 -4.67,0.65 z m 4.32,-3.93 c 0.22,-2.30 -0.05,-3.15 -0.94,-2.85 -1.39,0.46 -3.01,5.31 -2.08,6.24 1.29,1.29 2.72,-0.29 3.03,-3.39 z m 8.42,4.27 c -1.71,-0.69 -1.57,-5.82 0.20,-7.29 3.84,-3.18 7.61,2.74 4.03,6.33 -1.69,1.69 -2.15,1.79 -4.23,0.96 z m 3.65,-2.58 c 0.91,-2.46 0.41,-4.75 -1.04,-4.75 -1.20,0 -2.73,4.14 -2.12,5.75 0.74,1.94 2.24,1.47 3.16,-1 z m 13.34,2.58 c -0.68,-0.27 -1.22,-1.47 -1.18,-2.67 0.06,-2.16 0.06,-2.16 0.96,0.08 0.49,1.23 1.60,2.25 2.46,2.25 1.80,0 3.37,-3.20 1.82,-3.72 -2.99,-0.99 -4.53,-3.02 -3.87,-5.10 0.84,-2.67 2.56,-2.91 1.87,-0.27 -0.33,1.29 0.14,2.10 1.50,2.53 2.81,0.89 3.53,3.51 1.55,5.70 -1.68,1.86 -2.80,2.12 -5.11,1.19 z m 8.41,-0.00 c -1.21,-1.21 -0.69,-6.06 0.78,-7.29 2.29,-1.90 5.01,-0.83 5.35,2.09 0.44,3.81 -3.86,7.46 -6.13,5.20 z m 4.14,-4.16 c 0.17,-1.74 -0.14,-3.17 -0.71,-3.17 -1.50,0 -3.34,3.90 -2.67,5.66 0.94,2.46 3.05,0.92 3.38,-2.48 z m 4.63,3.94 c -0.98,-0.98 -0.39,-8.11 0.67,-8.11 0.73,0 0.93,1.22 0.56,3.5 -0.42,2.59 -0.20,3.5 0.82,3.5 0.79,0 1.67,-1.49 2.04,-3.5 0.90,-4.83 2.10,-4.39 1.86,0.66 -0.18,3.76 -0.46,4.17 -2.86,4.28 -1.46,0.06 -2.86,-0.08 -3.11,-0.33 z m 8.42,0.13 c -1.04,-6.09 1.15,-12.44 3.16,-9.18 0.47,0.77 0.47,1.62 -0.01,1.92 -1.47,0.91 -2.38,6.01 -1.07,6.01 0.64,0 0.88,0.45 0.54,1 -0.72,1.17 -2.44,1.33 -2.62,0.25 z m 9.65,-0.20 c -0.37,-0.60 -0.36,-2.48 0.00,-4.18 0.93,-4.24 -1.66,-3.38 -2.91,0.97 -1.54,5.39 -2.51,3.49 -1.16,-2.29 0.69,-3.00 1.03,-5.70 0.74,-6 -0.29,-0.29 -0.00,-0.52 0.63,-0.52 0.64,0 1.16,0.84 1.16,1.88 0,1.03 0.83,2.10 1.85,2.36 1.43,0.37 1.80,1.30 1.63,4.15 -0.24,4.04 -0.92,5.30 -1.95,3.63 z m 31.32,0.26 c -0.57,-3.21 -0.17,-8.24 0.63,-7.97 1.14,0.38 1.37,7.63 0.26,8.32 -0.41,0.25 -0.81,0.09 -0.89,-0.34 z m 4.15,-0.79 c -1.70,-2.05 -0.46,-6.23 2.09,-7.04 2.19,-0.69 4.80,0.95 3.52,2.23 -0.40,0.40 -1.11,0.13 -1.57,-0.61 -1.15,-1.87 -3.05,-0.44 -3.05,2.29 0,2.95 0.98,3.86 2.65,2.47 0.84,-0.70 1.34,-0.73 1.34,-0.09 0,0.55 -0.71,1.28 -1.58,1.62 -2.08,0.80 -1.99,0.82 -3.40,-0.88 z m 6.73,-0.32 c -1.73,-2.09 1.14,-6.61 4.46,-6.99 2.52,-0.29 2.62,-0.12 2.32,3.91 -0.28,3.79 -0.58,4.23 -2.97,4.34 -1.46,0.06 -3.17,-0.50 -3.80,-1.26 z m 4.65,-1.77 c 1.00,-2.62 0.68,-4.41 -0.78,-4.41 -1.43,0 -2.60,2.06 -2.60,4.58 0,1.92 2.63,1.80 3.39,-0.16 z m -223.14,-1.09 c 0.14,-3.65 0.38,-3.98 2.95,-3.98 1.70,0 2.79,0.53 2.79,1.37 0,0.75 -0.77,1.24 -1.71,1.08 -1.05,-0.18 -1.86,0.47 -2.09,1.70 -0.74,3.89 -2.09,3.77 -1.93,-0.18 z m 17.70,-1.56 c 3.38,-5.92 5.04,-7.06 5.04,-3.46 0,1.35 0.28,3.86 0.62,5.58 0.40,2.00 0.22,3.12 -0.48,3.12 -0.61,0 -1.41,-1.87 -1.77,-4.15 l -0.66,-4.15 -1.95,4.15 c -1.07,2.28 -2.36,4.15 -2.86,4.15 -0.50,0 0.43,-2.35 2.08,-5.24 z m 16.30,1.60 c 0.21,-3.65 0.48,-4.02 2.99,-4.02 1.67,-0.00 2.75,0.53 2.75,1.37 0,0.75 -0.77,1.24 -1.71,1.08 -1.05,-0.18 -1.86,0.47 -2.09,1.70 -0.76,3.97 -2.17,3.87 -1.93,-0.13 z m 152.03,-1.84 c 1.76,-3.01 3.46,-5.48 3.78,-5.5 0.32,-0.01 1.03,2.45 1.57,5.48 0.79,4.40 0.73,5.5 -0.33,5.5 -1.29,0 -1.74,-1.69 -1.38,-5.25 0.09,-0.96 -0.22,-1.75 -0.72,-1.75 -0.96,0 -3.68,5.00 -3.39,6.25 0.09,0.41 -0.47,0.75 -1.27,0.75 -1.05,0 -0.58,-1.49 1.75,-5.48 z m -207.03,-4.47 c -0.97,-1.56 -0.86,-1.75 0.79,-1.31 2.00,0.52 2.54,1.78 1.14,2.65 -0.43,0.27 -1.31,-0.32 -1.94,-1.33 z m 167.04,0.06 c -1.01,-1.63 -0.92,-1.82 0.69,-1.40 1.10,0.28 1.64,1.06 1.33,1.89 -0.67,1.75 -0.61,1.77 -2.02,-0.48 z m -72.30,-1.10 c 0,-0.55 0.45,-1 1,-1 0.55,0 1,0.45 1,1 0,0.55 -0.45,1 -1,1 -0.55,0 -1,-0.45 -1,-1 z m 135,0 c 0,-0.55 0.45,-1 1,-1 0.55,0 1,0.45 1,1 0,0.55 -0.45,1 -1,1 -0.55,0 -1,-0.45 -1,-1 z" id="path3160" style="fill:#fc806a" /><path d="m 510.07,784.14 c 9.68,-1.23 13.94,-3.26 20.32,-9.69 4.44,-4.48 5.19,-5.69 3.96,-6.39 -0.84,-0.47 -2.09,-2.21 -2.78,-3.88 -0.68,-1.66 -1.64,-3.02 -2.13,-3.02 -0.48,0 -0.87,-0.56 -0.87,-1.25 -1.1e-4,-1.78 5.34,-1.40 8.39,0.58 1.39,0.91 3.00,1.66 3.57,1.66 0.56,0 1.03,0.41 1.03,0.92 0,0.50 1.57,2.98 3.49,5.5 l 3.49,4.57 -3.08,0 c -1.69,0 -4.30,-0.86 -5.80,-1.93 l -2.71,-1.93 -4.26,4.95 c -6.01,6.98 -12.67,10.14 -22.11,10.51 l -7.5,0.28 7.00,-0.89 z m -19.56,-3.85 c -5.40,-3.47 -9.37,-7.64 -8.54,-8.97 0.33,-0.54 3.04,1.39 6.02,4.30 6.90,6.73 10.45,7.50 14.75,3.20 2.39,-2.39 2.92,-3.67 2.62,-6.31 -0.25,-2.17 0.08,-3.48 0.99,-3.83 2.00,-0.76 2.04,-0.73 2.41,1.72 0.20,1.36 0.92,2.12 1.81,1.92 0.81,-0.17 -0.32,1.56 -2.52,3.87 -2.2,2.30 -3.1,3.70 -2,3.09 5.88,-3.21 12.34,-10.99 10.24,-12.32 -0.83,-0.53 -0.52,-0.79 0.94,-0.80 1.20,-0.00 2.47,-0.47 2.81,-1.03 0.34,-0.55 1.15,-0.71 1.80,-0.35 0.84,0.47 0.87,0.33 0.12,-0.49 -0.79,-0.87 -2.26,-0.79 -5.97,0.32 -2.70,0.81 -5.29,1.10 -5.75,0.64 -0.45,-0.45 1.01,-1.12 3.27,-1.49 2.26,-0.36 3.84,-1.09 3.51,-1.62 -0.32,-0.53 0.00,-0.73 0.74,-0.45 2.01,0.77 0.64,-10.13 -1.84,-14.65 -1.93,-3.51 -2.08,-3.58 -5.44,-2.5 -2.50,0.81 -3.54,1.78 -3.79,3.58 -0.38,2.72 4.54,13.01 6.26,13.06 2.19,0.06 -2.31,1.96 -6.05,2.55 -2.12,0.33 -4.01,0.75 -4.20,0.93 -0.18,0.18 -1.62,-1.12 -3.18,-2.89 -3.14,-3.58 -11.68,-8.59 -16.41,-9.62 -2.88,-0.62 -2.72,-0.74 2.60,-1.97 6.55,-1.51 8.32,-2.41 7.48,-3.78 -0.69,-1.11 -14.40,3.05 -16.09,4.89 -0.77,0.84 -0.58,0.98 0.74,0.51 1.07,-0.37 1.55,-0.23 1.19,0.35 -0.97,1.58 -4.66,1.14 -6.02,-0.72 -1.12,-1.53 -0.51,-1.95 5.88,-4.01 6.68,-2.15 12.57,-5.67 11.41,-6.83 -0.28,-0.28 -2.87,0.42 -5.77,1.56 -2.89,1.14 -5.43,1.89 -5.65,1.67 -0.21,-0.21 1.87,-1.25 4.65,-2.31 4.71,-1.79 4.95,-2.04 3.63,-3.85 -1.21,-1.65 -1.64,-1.74 -3.04,-0.58 -0.89,0.74 -1.88,1.10 -2.19,0.79 -0.30,-0.30 0.61,-1.33 2.04,-2.27 1.91,-1.25 2.45,-2.27 2.03,-3.82 -0.53,-1.96 -0.47,-1.99 0.83,-0.36 1.49,1.85 3.24,2.44 2.19,0.75 -0.84,-1.36 0.66,-1.25 4.40,0.31 1.72,0.72 2.82,1.62 2.44,2 -0.37,0.37 0.02,0.68 0.89,0.68 0.87,0 2.48,-1.23 3.58,-2.74 1.10,-1.51 2.33,-2.41 2.74,-2.00 0.40,0.40 -0.07,1.64 -1.07,2.74 -2.28,2.52 -2.24,2.52 9.23,-0.53 5.24,-1.39 9.99,-2.38 10.56,-2.19 0.56,0.18 -2.98,1.37 -7.88,2.63 -4.90,1.25 -10.42,2.80 -12.27,3.43 -3.15,1.07 -3.21,1.17 -1,1.71 2.92,0.70 9.19,-0.37 18.51,-3.19 5.55,-1.68 7.04,-2.52 6.66,-3.76 -0.34,-1.11 0.00,-0.99 1.16,0.40 3.84,4.64 3.84,5.46 0.05,7.04 -1.95,0.81 -3.54,1.59 -3.54,1.72 0.00,0.13 0.68,2.44 1.5,5.14 3.29,10.86 0.90,19.39 -7.85,28.03 -9.74,9.61 -18.68,11.85 -26.71,6.69 z m 18.36,-19.89 c -0.34,-0.96 -1.76,-3.73 -3.15,-6.16 -2.36,-4.11 -2.59,-4.26 -3.48,-2.27 -0.77,1.74 -0.32,2.85 2.43,6.07 3.67,4.27 5.19,5.12 4.20,2.36 z m -4.46,-14.97 c -0.73,-0.91 -0.82,-1.34 -0.19,-0.96 1.05,0.63 19.81,-5.30 23.34,-7.38 0.95,-0.56 -0.71,-0.80 -4.64,-0.65 -3.41,0.12 -5.89,0.63 -5.58,1.15 0.30,0.50 -0.21,0.62 -1.15,0.26 -0.94,-0.36 -1.47,-0.26 -1.17,0.21 0.29,0.47 -2.38,1.70 -5.94,2.72 -3.56,1.02 -6.48,2.22 -6.48,2.67 0,0.45 -0.53,0.48 -1.19,0.08 -0.65,-0.40 -0.12,0.76 1.19,2.61 1.32,1.86 2.56,2.81 2.79,2.14 0.22,-0.66 -0.20,-1.95 -0.94,-2.86 z m -46.84,26.72 c -1.27,-0.82 -1.22,-0.97 0.30,-0.98 0.99,-0.00 4.18,-2.26 7.09,-5.01 6.69,-6.32 9.98,-6.87 5.86,-0.97 -4.86,6.95 -9.51,9.40 -13.27,6.97 z m 13.57,-1.67 c 1.36,-1.46 2.73,-3.70 3.05,-4.95 0.35,-1.42 2.14,-3.01 4.72,-4.22 4.04,-1.88 9.65,-3.30 9.65,-2.43 0,1.34 -6.41,9.44 -8.26,10.43 -1.20,0.64 -2.79,1.77 -3.53,2.51 -0.73,0.73 -2.86,1.34 -4.72,1.34 l -3.38,0 2.47,-2.67 z m 78.24,-1.52 c -2.17,-2.30 -4.35,-4.94 -4.84,-5.86 -1.74,-3.25 2.52,-1.53 8.19,3.31 5.11,4.36 9.84,6.17 9.84,3.75 0,-0.55 -0.39,-1 -0.87,-1 -1.01,0 -12.50,-8.75 -12.85,-9.80 -0.12,-0.38 0.16,-1.32 0.64,-2.09 0.73,-1.15 1.44,-1.04 4.23,0.65 6.78,4.14 14.93,8.24 16.38,8.24 1.22,0 1.27,0.34 0.25,1.97 -1.07,1.72 -11.49,5.02 -15.85,5.02 -0.64,0 -2.94,-1.88 -5.12,-4.19 z m -101.74,0.44 c -2.13,-1.73 -2.03,-1.81 8.82,-7.38 8.27,-4.24 11.11,-5.29 11.51,-4.25 0.65,1.69 -2.12,4.39 -9.72,9.49 -6.57,4.40 -7.58,4.60 -10.61,2.14 z m 63.95,1.19 c 0.02,-1.38 1.79,-3.96 2.34,-3.41 0.25,0.25 -0.16,1.34 -0.94,2.41 -0.78,1.06 -1.41,1.51 -1.40,0.99 z m -12.01,-3.40 c 0,-0.83 8.17,-2.19 8.89,-1.47 0.76,0.76 -0.28,1.14 -4.64,1.70 -2.33,0.29 -4.25,0.19 -4.25,-0.23 z m -61.56,-3.49 c -1.61,-0.68 -3.55,-1.98 -4.31,-2.88 -1.22,-1.48 -1.02,-1.65 2.00,-1.67 4.14,-0.02 20.50,-4.15 24.64,-6.21 1.66,-0.83 3.58,-1.16 4.26,-0.74 1.69,1.04 -1.66,3.13 -12.10,7.52 -4.63,1.94 -9.12,3.92 -9.98,4.38 -0.92,0.50 -2.74,0.34 -4.50,-0.38 z m 137.03,0.41 c -0.32,-0.52 -1.27,-0.96 -2.10,-0.96 -1.68,0 -15.56,-6.24 -19.25,-8.65 -5.00,-3.27 0.25,-2.98 10.71,0.58 5.86,2.00 12.45,3.76 14.63,3.90 4.72,0.30 5.39,0.78 3.47,2.50 -2.38,2.13 -6.80,3.68 -7.46,2.62 z m -103.32,-6.56 c -1.25,-0.88 -2.05,-2.21 -1.76,-2.96 0.29,-0.77 -0.77,-2.28 -2.47,-3.49 -1.65,-1.17 -2.92,-2.87 -2.83,-3.78 0.32,-3.32 -0.12,-4.21 -2.59,-5.15 -1.60,-0.61 -2.72,-1.98 -3.08,-3.79 l -0.56,-2.83 -13.66,0.41 c -16.87,0.51 -42.31,-1.11 -51.66,-3.32 -3.85,-0.90 -7.84,-1.81 -8.88,-2.02 -3.16,-0.63 -7.91,-5.14 -6.98,-6.64 0.84,-1.37 4.40,-0.87 5.01,0.70 0.50,1.30 6.92,1.5 49.39,1.5 43.04,0 49.00,0.18 50.39,1.57 2.74,2.74 1.89,6.00 -2.44,9.44 -5.00,3.96 -6.74,6.88 -4.83,8.09 0.88,0.56 0.94,0.86 0.17,0.87 -0.64,0.00 -1.88,0.72 -2.75,1.58 -0.86,0.86 -1.57,1.11 -1.57,0.54 0,-0.56 0.78,-1.48 1.75,-2.04 1.53,-0.89 1.54,-1.02 0.12,-1.04 -0.89,-0.01 -2.14,0.59 -2.78,1.35 -0.91,1.10 -0.21,2.33 3.45,6 2.53,2.53 5.13,4.61 5.78,4.62 1.73,0.02 -1.55,1.95 -3.35,1.96 -0.84,0.00 -2.55,-0.70 -3.81,-1.58 z m 67.13,0.97 c -0.90,-0.38 -0.93,-0.96 -0.11,-2.27 1.83,-2.94 -1.97,-12.91 -8.07,-21.10 -2.23,-3.00 -2.25,-3.14 -0.31,-2.11 3.63,1.94 9.19,12.11 9.23,16.88 0.02,2.29 1.69,4.85 2.58,3.96 0.39,-0.39 1.03,-2.83 1.42,-5.43 l 0.71,-4.72 -5.87,-5.60 c -3.23,-3.08 -5.87,-6.05 -5.87,-6.60 0,-0.55 1.04,-1.97 2.31,-3.17 2.31,-2.17 2.39,-2.17 50.87,-2.17 41.94,0 48.73,-0.20 49.80,-1.5 0.68,-0.82 1.86,-1.5 2.62,-1.5 2.34,0 1.52,2.69 -1.62,5.34 -1.65,1.38 -3,2.97 -3,3.52 0,0.55 -0.44,1.28 -0.98,1.61 -0.56,0.35 -0.73,-0.05 -0.39,-0.94 0.32,-0.85 0.43,-1.55 0.23,-1.54 -0.19,0.00 -5.08,0.95 -10.85,2.11 -8.74,1.75 -14.94,2.16 -37,2.42 -26.00,0.31 -26.50,0.35 -26.82,2.41 -0.17,1.15 -1.38,2.79 -2.69,3.64 -1.49,0.98 -2.48,2.71 -2.67,4.72 -0.20,2.15 -1.03,3.49 -2.55,4.15 -1.32,0.58 -2.25,1.86 -2.25,3.12 0,1.17 -0.56,2.60 -1.25,3.18 -1.60,1.33 -5.88,2.23 -7.45,1.57 z m -113.52,-3.09 c -1.50,-0.75 -3.21,-2.25 -3.78,-3.32 -0.97,-1.82 -0.66,-1.95 4.74,-2.10 11.03,-0.29 18.74,-1.27 27.24,-3.44 7.10,-1.81 7.70,-1.77 8.32,0.59 0.44,1.70 -0.40,2.27 -6.02,4.00 -3.59,1.11 -7.71,2.23 -9.15,2.50 -1.43,0.26 -3.73,0.71 -5.11,0.99 -1.37,0.28 -4.75,0.79 -7.5,1.12 -2.75,0.33 -5.22,0.70 -5.5,0.82 -0.27,0.11 -1.73,-0.40 -3.24,-1.16 z m 155.74,0.16 c -14.79,-2.16 -26.5,-5.70 -26.5,-8.03 0,-1.56 3.42,-3.65 4.39,-2.68 0.36,0.36 1.43,0.81 2.38,1.00 2.64,0.52 4.72,1.09 4.72,1.29 0,0.73 15.51,2.46 22.08,2.46 7.14,0 8.03,0.20 7.64,1.71 -0.24,0.94 -1.85,2.54 -3.58,3.55 -2.84,1.66 -3.89,1.73 -11.14,0.67 z m -163.09,-7.82 c -0.32,-0.83 -2.85,-1.64 -6.43,-2.04 -12.61,-1.42 -23.41,-5.31 -24.31,-8.76 -0.48,-1.86 -0.19,-1.99 3.15,-1.46 2.02,0.32 6.16,0.84 9.18,1.16 3.02,0.31 6.62,0.81 8,1.11 1.37,0.29 12.56,0.48 24.86,0.42 21.65,-0.10 25.13,0.31 25.13,3.02 0,1.91 -20.19,4.91 -33.06,4.91 -5.05,0 -6.04,0.26 -5.57,1.5 0.31,0.82 0.35,1.5 0.07,1.5 -0.27,0 -0.73,-0.61 -1.02,-1.37 z m 174.59,-1.32 c -5.92,-0.29 -22.23,-2.02 -25.5,-2.69 -6.46,-1.33 -7.26,-1.76 -6.76,-3.69 0.48,-1.84 1.63,-1.93 25.13,-1.98 13.54,-0.02 26.20,-0.20 28.12,-0.40 10.03,-1.01 14.62,-1.81 15.73,-2.72 0.97,-0.79 1.00,-0.36 0.16,2.05 -1.60,4.61 -8.30,6.76 -29.40,9.47 -1.1,0.14 -4.47,0.13 -7.5,-0.02 z m -100.5,-16.29 c 0.33,-0.55 1.06,-1 1.61,-1 0.55,0 0.72,0.45 0.38,1 -0.33,0.55 -1.06,1 -1.61,1 -0.55,0 -0.72,-0.45 -0.38,-1 z m 27,-2.15 c -3.91,-1.47 -6.95,-1.80 -14,-1.52 -8.95,0.36 -8.97,0.35 -4.5,-1.02 6.51,-2.01 19.68,-0.01 23.23,3.53 0.64,0.64 0.96,1.10 0.71,1.03 -0.24,-0.07 -2.7,-0.98 -5.45,-2.02 z m -128.72,-4.68 c 0.70,-0.44 1.54,-3.09 1.87,-5.89 0.58,-4.94 0.68,-5.07 3.72,-4.92 2.45,0.12 3.19,0.65 3.45,2.49 0.38,2.70 -2.58,6.47 -4.51,5.73 -1.18,-0.45 -1.75,0.62 -1.43,2.68 0.06,0.41 -0.89,0.74 -2.13,0.73 -1.53,-0.01 -1.84,-0.27 -0.97,-0.82 z m 7.22,-7.78 c 0,-1.30 -0.46,-2.37 -1.02,-2.37 -1.29,0 -3.18,4.84 -2.39,6.13 0.96,1.56 3.41,-1.12 3.41,-3.75 z m 140,7.65 c 0,-0.53 0.64,-0.72 1.43,-0.41 1.33,0.51 2.50,-2.80 3.04,-8.61 0.24,-2.61 2.53,-6 4.05,-6 0.80,0 1.46,0.43 1.46,0.96 0,0.53 -0.74,0.68 -1.66,0.33 -1.31,-0.50 -1.54,-0.18 -1.09,1.53 0.31,1.19 0.21,2.38 -0.22,2.65 -0.43,0.26 -1.10,2.18 -1.49,4.25 -0.38,2.06 -1.16,4.32 -1.73,5.01 -1.22,1.47 -3.78,1.66 -3.78,0.28 z m 63,-0.13 c 0,-0.60 0.65,-0.85 1.44,-0.55 1.60,0.61 2.46,-1.29 2.93,-6.52 0.38,-4.27 2.26,-7.81 4.15,-7.81 0.80,0 1.46,0.45 1.46,1 0,0.55 -0.50,0.88 -1.12,0.75 -0.61,-0.13 -1.33,0.31 -1.58,1 -0.43,1.19 1.90,1.75 5.95,1.42 0.96,-0.08 1.75,0.47 1.75,1.23 0,0.75 -0.77,1.31 -1.71,1.23 -0.98,-0.07 -1.87,0.71 -2.09,1.86 -0.21,1.1 -0.84,2.45 -1.40,3 -0.69,0.68 -0.80,-0.22 -0.34,-2.83 0.59,-3.32 0.44,-3.78 -1.08,-3.49 -1.14,0.22 -2.05,1.72 -2.58,4.25 -0.44,2.15 -1.30,4.51 -1.91,5.24 -1.33,1.61 -3.85,1.75 -3.85,0.22 z m -216.75,-2.55 c -0.68,-0.27 -1.25,-1.46 -1.25,-2.64 l 0,-2.13 1.55,2.22 c 1.83,2.62 3.26,2.83 4.11,0.62 0.39,-1.03 -0.40,-2.41 -2.28,-3.93 -2.79,-2.25 -2.83,-2.39 -1.09,-4.15 1.56,-1.57 1.71,-1.59 1.17,-0.14 -0.42,1.13 0.20,2.22 1.94,3.36 2.95,1.93 3.24,3.64 1.00,5.88 -1.59,1.59 -2.91,1.82 -5.17,0.90 z m 18,0 c -3.21,-1.29 -0.15,-8.84 3.31,-8.18 2.66,0.50 3.24,5.78 0.82,7.55 -1.88,1.38 -2.18,1.42 -4.14,0.63 z m 3.81,-3.00 c 1.08,-2.85 -0.04,-5.08 -1.97,-3.89 -1.37,0.85 -1.43,6.55 -0.06,6.55 0.56,0 1.48,-1.19 2.03,-2.66 z m 11.41,2.46 c -0.64,-1.67 -0.08,-6.99 0.89,-8.58 0.57,-0.92 1.03,-0.91 2.05,0.03 1.08,1.01 1.04,1.42 -0.19,2.33 -0.97,0.71 -1.33,2.06 -1.00,3.78 0.53,2.79 -0.85,4.73 -1.74,2.42 z m 19.77,0.54 c -2.84,-1.14 -0.53,-8.33 2.67,-8.33 3.00,0 3.38,2.89 0.55,4.19 -1.36,0.62 -2.48,1.43 -2.48,1.80 0,1.54 1.42,1.90 2.90,0.74 1.40,-1.09 1.43,-1.03 0.21,0.50 -1.42,1.82 -1.80,1.92 -3.87,1.08 z m 3.56,-6.27 c 0.25,-0.75 -0.12,-1.12 -0.87,-0.87 -0.72,0.24 -1.50,1.02 -1.75,1.75 -0.25,0.75 0.12,1.12 0.87,0.87 0.72,-0.24 1.50,-1.02 1.75,-1.75 z m 10.15,4.87 c -1.53,-2.85 1.25,-7.18 4.34,-6.74 2.81,0.40 3.45,4.31 1.11,6.89 -2.24,2.48 -4.08,2.43 -5.46,-0.14 z m 5.03,-3.55 c 0,-3.16 -2.77,-3.11 -3.57,0.06 -0.33,1.34 -0.30,2.94 0.07,3.54 1.06,1.71 3.50,-0.80 3.50,-3.61 z m 4.10,4.70 c -1.14,-0.72 -1.18,-1.70 -0.22,-5.53 0.64,-2.55 0.90,-5.07 0.58,-5.60 -0.32,-0.52 0.14,-0.94 1.04,-0.94 1.17,0 1.44,0.55 0.99,2 -0.44,1.40 -0.17,2 0.89,2 3.39,0 3.93,5.25 0.79,7.75 -1.85,1.47 -2.24,1.50 -4.08,0.33 z m 4.08,-2.61 c 0.88,-1.93 0.86,-2.81 -0.06,-3.74 -1.49,-1.49 -3.09,0.56 -3.11,4.01 -0.02,3.01 1.75,2.85 3.17,-0.27 z m 3.66,1.85 c -1.88,-2.26 0.88,-6.73 4.42,-7.14 2.63,-0.30 2.71,-0.17 2.34,3.90 -0.33,3.67 -0.71,4.25 -2.94,4.49 -1.40,0.15 -3.13,-0.41 -3.82,-1.24 z m 4.74,-2.87 c 0.35,-1.40 0.37,-2.81 0.04,-3.14 -0.98,-0.98 -3.64,1.79 -3.64,3.81 0,2.80 2.86,2.26 3.60,-0.66 z m 4.92,3.58 c -0.75,-1.22 0.05,-8.96 1.03,-9.87 0.39,-0.36 0.91,-0.09 1.15,0.59 0.24,0.68 1.53,1.25 2.86,1.25 2.23,0 2.38,0.31 2.03,4.25 -0.21,2.33 -0.77,4.02 -1.24,3.75 -0.47,-0.27 -0.72,-2.00 -0.56,-3.83 0.24,-2.70 -0.02,-3.27 -1.42,-3 -2.01,0.38 -3.76,5.53 -2.07,6.10 0.78,0.26 0.77,0.56 -0.03,1.06 -0.62,0.38 -1.40,0.25 -1.74,-0.29 z m 9.45,-0.56 c -2.51,-3.03 2.53,-9.36 5.27,-6.61 0.61,0.61 0.78,1.44 0.37,1.85 -0.40,0.40 -1.16,0.07 -1.68,-0.73 -0.83,-1.29 -1.06,-1.28 -1.93,0.02 -1.75,2.67 -1.18,4.99 1.23,5.01 1.81,0.01 1.96,0.20 0.75,0.98 -2.03,1.31 -2.54,1.24 -4.02,-0.52 z m 11.59,-0.04 c -1.95,-1.95 -1.98,-3.73 -0.11,-7.35 2.34,-4.54 8.54,-5.08 8.54,-0.74 0,2.10 -0.00,2.10 -1.55,-0.11 -1.21,-1.73 -1.95,-2.01 -3.38,-1.24 -2.33,1.24 -3.41,5.49 -2.04,8.05 1.27,2.38 2.33,2.48 4.41,0.40 0.86,-0.86 1.57,-1.10 1.57,-0.53 0,1.08 -3.16,3.10 -4.86,3.10 -0.54,0 -1.70,-0.70 -2.56,-1.57 z m 9.09,0.83 c -0.29,-0.47 -0.09,-2.83 0.44,-5.23 0.53,-2.40 0.75,-4.96 0.46,-5.69 -0.29,-0.76 0.16,-1.33 1.06,-1.33 1.29,0 1.44,0.67 0.80,3.75 -0.42,2.06 -0.84,4.75 -0.93,5.99 -0.19,2.58 -1.06,3.78 -1.85,2.51 z m 4.84,-0.57 c -0.72,-2.28 -10e-4,-7.67 0.99,-7.33 0.55,0.19 0.85,1.76 0.68,3.49 -0.33,3.35 1.48,4.40 2.42,1.40 1.62,-5.15 2.26,-5.59 1.95,-1.34 -0.28,3.94 -0.59,4.43 -2.99,4.68 -1.47,0.15 -2.85,-0.24 -3.05,-0.90 z m 8.98,0.30 c -0.34,-0.55 -0.27,-3.13 0.13,-5.75 0.41,-2.61 0.66,-5.08 0.56,-5.49 -0.10,-0.41 0.25,-0.75 0.80,-0.75 0.55,0 1,0.84 1,1.88 0,1.04 0.89,2.11 2,2.40 2.56,0.67 2.66,4.79 0.17,7.05 -2.07,1.88 -3.76,2.11 -4.67,0.65 z m 4.32,-3.93 c 0.22,-2.30 -0.05,-3.15 -0.94,-2.85 -1.39,0.46 -3.01,5.31 -2.08,6.24 1.29,1.29 2.72,-0.29 3.03,-3.39 z m 8.42,4.27 c -1.71,-0.69 -1.57,-5.82 0.20,-7.29 3.84,-3.18 7.61,2.74 4.03,6.33 -1.69,1.69 -2.15,1.79 -4.23,0.96 z m 3.65,-2.58 c 0.91,-2.46 0.41,-4.75 -1.04,-4.75 -1.20,0 -2.73,4.14 -2.12,5.75 0.74,1.94 2.24,1.47 3.16,-1 z m 13.34,2.58 c -0.68,-0.27 -1.22,-1.47 -1.18,-2.67 0.06,-2.16 0.06,-2.16 0.96,0.08 0.49,1.23 1.60,2.25 2.46,2.25 1.80,0 3.37,-3.20 1.82,-3.72 -2.99,-0.99 -4.53,-3.02 -3.87,-5.10 0.84,-2.67 2.56,-2.91 1.87,-0.27 -0.33,1.29 0.14,2.10 1.50,2.53 2.81,0.89 3.53,3.51 1.55,5.70 -1.68,1.86 -2.80,2.12 -5.11,1.19 z m 8.41,-0.00 c -1.21,-1.21 -0.69,-6.06 0.78,-7.29 2.29,-1.90 5.01,-0.83 5.35,2.09 0.44,3.81 -3.86,7.46 -6.13,5.20 z m 4.14,-4.16 c 0.17,-1.74 -0.14,-3.17 -0.71,-3.17 -1.50,0 -3.34,3.90 -2.67,5.66 0.94,2.46 3.05,0.92 3.38,-2.48 z m 4.63,3.94 c -0.98,-0.98 -0.39,-8.11 0.67,-8.11 0.73,0 0.93,1.22 0.56,3.5 -0.42,2.59 -0.20,3.5 0.82,3.5 0.79,0 1.67,-1.49 2.04,-3.5 0.90,-4.83 2.10,-4.39 1.86,0.66 -0.18,3.76 -0.46,4.17 -2.86,4.28 -1.46,0.06 -2.86,-0.08 -3.11,-0.33 z m 8.42,0.13 c -1.04,-6.09 1.15,-12.44 3.16,-9.18 0.47,0.77 0.47,1.62 -0.01,1.92 -1.47,0.91 -2.38,6.01 -1.07,6.01 0.64,0 0.88,0.45 0.54,1 -0.72,1.17 -2.44,1.33 -2.62,0.25 z m 9.65,-0.20 c -0.37,-0.60 -0.36,-2.48 0.00,-4.18 0.93,-4.24 -1.66,-3.38 -2.91,0.97 -1.54,5.39 -2.51,3.49 -1.16,-2.29 0.69,-3.00 1.03,-5.70 0.74,-6 -0.29,-0.29 -0.00,-0.52 0.63,-0.52 0.64,0 1.16,0.84 1.16,1.88 0,1.03 0.83,2.10 1.85,2.36 1.43,0.37 1.80,1.30 1.63,4.15 -0.24,4.04 -0.92,5.30 -1.95,3.63 z m 31.32,0.26 c -0.57,-3.21 -0.17,-8.24 0.63,-7.97 1.14,0.38 1.37,7.63 0.26,8.32 -0.41,0.25 -0.81,0.09 -0.89,-0.34 z m 4.15,-0.79 c -1.70,-2.05 -0.46,-6.23 2.09,-7.04 2.19,-0.69 4.80,0.95 3.52,2.23 -0.40,0.40 -1.11,0.13 -1.57,-0.61 -1.15,-1.87 -3.05,-0.44 -3.05,2.29 0,2.95 0.98,3.86 2.65,2.47 0.84,-0.70 1.34,-0.73 1.34,-0.09 0,0.55 -0.71,1.28 -1.58,1.62 -2.08,0.80 -1.99,0.82 -3.40,-0.88 z m 6.73,-0.32 c -1.73,-2.09 1.14,-6.61 4.46,-6.99 2.52,-0.29 2.62,-0.12 2.32,3.91 -0.28,3.79 -0.58,4.23 -2.97,4.34 -1.46,0.06 -3.17,-0.50 -3.80,-1.26 z m 4.65,-1.77 c 1.00,-2.62 0.68,-4.41 -0.78,-4.41 -1.43,0 -2.60,2.06 -2.60,4.58 0,1.92 2.63,1.80 3.39,-0.16 z m -223.14,-1.09 c 0.14,-3.65 0.38,-3.98 2.95,-3.98 1.70,0 2.79,0.53 2.79,1.37 0,0.75 -0.77,1.24 -1.71,1.08 -1.05,-0.18 -1.86,0.47 -2.09,1.70 -0.74,3.89 -2.09,3.77 -1.93,-0.18 z m 17.70,-1.56 c 3.38,-5.92 5.04,-7.06 5.04,-3.46 0,1.35 0.28,3.86 0.62,5.58 0.40,2.00 0.22,3.12 -0.48,3.12 -0.61,0 -1.41,-1.87 -1.77,-4.15 l -0.66,-4.15 -1.95,4.15 c -1.07,2.28 -2.36,4.15 -2.86,4.15 -0.50,0 0.43,-2.35 2.08,-5.24 z m 16.30,1.60 c 0.21,-3.65 0.48,-4.02 2.99,-4.02 1.67,-0.00 2.75,0.53 2.75,1.37 0,0.75 -0.77,1.24 -1.71,1.08 -1.05,-0.18 -1.86,0.47 -2.09,1.70 -0.76,3.97 -2.17,3.87 -1.93,-0.13 z m 152.03,-1.84 c 1.76,-3.01 3.46,-5.48 3.78,-5.5 0.32,-0.01 1.03,2.45 1.57,5.48 0.79,4.40 0.73,5.5 -0.33,5.5 -1.29,0 -1.74,-1.69 -1.38,-5.25 0.09,-0.96 -0.22,-1.75 -0.72,-1.75 -0.96,0 -3.68,5.00 -3.39,6.25 0.09,0.41 -0.47,0.75 -1.27,0.75 -1.05,0 -0.58,-1.49 1.75,-5.48 z m -207.03,-4.47 c -0.97,-1.56 -0.86,-1.75 0.79,-1.31 2.00,0.52 2.54,1.78 1.14,2.65 -0.43,0.27 -1.31,-0.32 -1.94,-1.33 z m 167.04,0.06 c -1.01,-1.63 -0.92,-1.82 0.69,-1.40 1.10,0.28 1.64,1.06 1.33,1.89 -0.67,1.75 -0.61,1.77 -2.02,-0.48 z m -72.30,-1.10 c 0,-0.55 0.45,-1 1,-1 0.55,0 1,0.45 1,1 0,0.55 -0.45,1 -1,1 -0.55,0 -1,-0.45 -1,-1 z m 135,0 c 0,-0.55 0.45,-1 1,-1 0.55,0 1,0.45 1,1 0,0.55 -0.45,1 -1,1 -0.55,0 -1,-0.45 -1,-1 z" id="path3156" style="fill:#f94630" /><path d="m 95.5,9 c -0.89,0 -1.35,0.41 -1.03,0.93 0.32,0.52 0.05,3.06 -0.59,5.62 -0.96,3.82 -0.92,4.80 0.21,5.53 1.84,1.16 2.23,1.12 4.09,-0.34 C 101.33,18.25 100.80,13 97.40,13 96.32,13 96.05,12.40 96.5,11 96.84,9.90 96.76,9.34 96.18,9.12 96.15,9.05 96.11,9 96.06,9 96.03,9 96.02,9.04 96,9.06 95.85,9.03 95.69,9 95.5,9 z m 22.93,0 C 118.19,9 118,9.45 118,10 c 0,0.13 0.04,0.25 0.09,0.37 0.05,0.12 0.11,0.24 0.21,0.34 0.08,0.08 0.20,0.14 0.31,0.18 0.13,0.05 0.28,0.09 0.43,0.09 0.17,-0.01 0.33,-0.06 0.46,-0.15 0.01,-0.01 0.02,-0.02 0.03,-0.03 C 119.82,10.63 120,10.33 120,10 c 0,-0.55 -0.45,-1 -1,-1 -0.12,0 -0.23,0.05 -0.34,0.09 -0.01,-0.00 -0.02,0.00 -0.03,0 C 118.55,9.05 118.49,9 118.43,9 z m 25.21,0 c -0.90,0 -1.38,0.58 -1.09,1.34 0.28,0.73 0.07,3.28 -0.46,5.68 -0.53,2.40 -0.73,4.74 -0.43,5.21 0.78,1.26 1.65,0.08 1.84,-2.5 0.09,-1.23 0.51,-3.93 0.93,-6 0.37,-1.82 0.46,-2.78 0.21,-3.28 C 144.61,9.10 144.46,9 144.18,9 c -0.04,0 -0.08,0.02 -0.12,0.03 C 143.93,9.00 143.81,9 143.65,9 z M 157,9 c -0.55,0 -0.92,0.33 -0.81,0.75 0.10,0.41 -0.14,2.88 -0.56,5.5 -0.28,1.80 -0.37,3.53 -0.31,4.65 0.02,0.50 0.08,0.92 0.18,1.09 0.90,1.46 2.57,1.22 4.65,-0.65 2.09,-1.89 2.36,-5.08 0.87,-6.46 -0.01,-0.01 -0.01,-0.04 -0.03,-0.06 -0.04,-0.04 -0.11,-0.08 -0.15,-0.12 -0.23,-0.22 -0.51,-0.42 -0.84,-0.53 -0.32,-0.10 -0.55,-0.16 -0.71,-0.18 C 158.53,12.50 158,11.67 158,10.87 c 0,-0.53 -0.11,-0.99 -0.31,-1.34 -0.00,-0.00 0.00,-0.02 0,-0.03 -0.07,-0.31 -0.22,-0.5 -0.40,-0.5 -0.03,0 -0.05,0.02 -0.09,0.03 -0.02,-0.00 -0.04,0.00 -0.06,0 C 157.08,9.01 157.04,9 157,9 z m 23.53,0 c -0.57,0 -1.23,0.48 -1.87,1.21 -0.16,0.05 -0.38,0.36 -0.62,0.81 -0.01,0.03 -0.04,0.05 -0.06,0.09 -0.76,1.15 -1.38,2.60 -1.5,3.87 -0.53,5.80 -1.69,9.13 -3.03,8.62 -0.10,-0.03 -0.18,-0.07 -0.28,-0.09 C 172.88,23.22 172.60,23 172.43,23 172.19,23 172,23.45 172,24 c -5.3e-4,0.01 0,0.02 0,0.03 0,0.13 0.05,0.23 0.09,0.34 0.04,0.09 0.08,0.20 0.15,0.28 0.01,0.01 0.01,0.02 0.03,0.03 0.02,0.02 0.06,0.03 0.09,0.06 0.03,0.02 0.05,0.04 0.09,0.06 0.11,0.07 0.25,0.09 0.40,0.12 0.06,0.01 0.11,0.06 0.18,0.06 0.06,0 0.10,-0.02 0.15,-0.03 0.83,0.01 1.89,-0.40 2.56,-1.21 0.56,-0.68 1.36,-2.93 1.75,-5 0.38,-2.06 1.06,-3.98 1.5,-4.25 0.43,-0.26 0.53,-1.46 0.21,-2.65 -0.44,-1.71 -0.22,-2.03 1.09,-1.53 C 181.25,10.66 182,10.50 182,9.96 182,9.43 181.33,9 180.53,9 z m 37.31,0 c -0.64,0 -0.94,0.24 -0.65,0.53 0.29,0.29 -0.05,2.99 -0.75,6 -1.34,5.78 -0.35,7.70 1.18,2.31 0.93,-3.26 2.63,-4.59 3.03,-3.25 -0.11,0.67 -0.20,1.48 -0.21,2.40 -0.00,0.14 -3e-5,0.24 0,0.37 -0.26,1.54 -0.23,3.11 0.09,3.65 1.03,1.66 1.72,0.41 1.96,-3.62 0.13,-2.21 -0.07,-3.27 -0.84,-3.81 -0.09,-0.36 -0.22,-0.59 -0.37,-0.59 -0.10,4.14e-4 -0.21,0.09 -0.31,0.28 -0.04,-0.01 -0.08,-0.01 -0.12,-0.03 C 219.82,12.98 219,11.91 219,10.87 219,10.43 218.87,10.07 218.71,9.75 218.65,9.27 218.51,9 218.28,9 c -0.07,0 -0.11,0.02 -0.18,0.06 C 218.00,9.02 217.93,9 217.84,9 z m 25.68,0 c -1.88,0 -3.77,3.54 -4.15,7.81 -0.46,5.23 -1.33,7.14 -2.93,6.53 C 235.64,23.03 235,23.29 235,23.90 c 0,1.53 2.50,1.36 3.84,-0.25 0.04,-0.05 0.11,-0.11 0.15,-0.18 0.02,0.00 0.03,0.01 0.06,0 0.23,-0.14 0.52,-0.88 0.81,-1.87 0.02,-0.05 0.04,-0.12 0.06,-0.18 0.32,-0.91 0.63,-1.95 0.84,-2.96 0.52,-2.53 1.41,-4.06 2.56,-4.28 1.53,-0.29 1.68,0.17 1.09,3.5 -0.21,1.21 -0.28,2.04 -0.25,2.53 -0.17,0.65 -0.11,0.96 0.18,0.68 0.06,-0.05 0.12,-0.11 0.18,-0.18 0.02,-0.01 0.03,-0.04 0.06,-0.06 0.05,-0.03 0.09,-0.06 0.15,-0.12 0.56,-0.55 1.19,-1.9 1.40,-3 0.22,-1.14 1.11,-1.95 2.09,-1.87 0.30,0.02 0.59,-6.57e-4 0.84,-0.09 C 249.30,15.82 249.48,16 249.59,16 249.80,16 250,15.32 250,14.5 c 0.00,-0.02 -5.8e-4,-0.04 0,-0.06 -2.9e-4,-0.01 4.4e-4,-0.02 0,-0.03 0,-0.10 -0.00,-0.21 -0.03,-0.31 C 249.85,13.46 249.47,13 249.03,13 c -0.15,0 -0.28,0.05 -0.37,0.15 -0.13,-0.01 -0.26,-0.01 -0.40,0 -4.04,0.33 -6.40,-0.20 -5.96,-1.40 0.25,-0.68 0.97,-1.13 1.59,-1 0.61,0.13 1.12,-0.2 1.12,-0.75 0,-0.55 -0.66,-1 -1.46,-1 z m 9.90,0 C 253.19,9 253,9.45 253,10 c 0,0.13 0.04,0.25 0.09,0.37 0.05,0.12 0.11,0.24 0.21,0.34 0.08,0.08 0.20,0.14 0.31,0.18 0.13,0.05 0.28,0.09 0.43,0.09 0.17,-0.01 0.33,-0.06 0.46,-0.15 0.01,-0.01 0.02,-0.02 0.03,-0.03 C 254.82,10.63 255,10.33 255,10 c 0,-0.55 -0.45,-1 -1,-1 -0.12,0 -0.23,0.05 -0.34,0.09 -0.01,-0.00 -0.02,0.00 -0.03,0 C 253.55,9.05 253.49,9 253.43,9 z M 137.62,9.37 c -0.43,0.03 -0.91,0.11 -1.37,0.28 L 136.37,9.5 136.18,9.68 136.12,9.71 c -1.41,0.54 -2.78,1.66 -3.65,3.34 -1.86,3.61 -1.86,5.42 0.09,7.37 0.86,0.86 2.01,1.56 2.56,1.56 1.70,0 4.87,-2.00 4.87,-3.09 0,-0.56 -0.69,-0.33 -1.56,0.53 -2.07,2.07 -3.15,1.98 -4.43,-0.40 -1.36,-2.55 -0.27,-6.81 2.06,-8.06 1.42,-0.76 2.15,-0.48 3.37,1.25 1.55,2.21 1.56,2.23 1.56,0.12 0,-0.08 -0.02,-0.16 -0.03,-0.25 0.00,-0.02 -0.00,-0.06 0,-0.09 C 140.98,11.84 141,11.67 141,11.5 141,10.67 140.56,10 140.03,10 139.41,9.49 138.56,9.29 137.62,9.37 z M 22.81,9.53 c -0.35,0.08 -0.17,0.52 0.43,1.5 0.10,0.17 0.25,0.32 0.37,0.46 0.00,0.01 0.02,0.02 0.03,0.03 C 23.96,12.33 24.34,13 24.5,13 c 0.08,0 0.25,-0.23 0.43,-0.56 0.10,0.00 0.17,-0.01 0.25,-0.06 1.06,-0.65 1.01,-1.50 0.06,-2.12 -0.01,-0.01 -0.04,-0.01 -0.06,-0.03 -0.08,-0.06 -0.16,-0.12 -0.28,-0.15 C 24.65,9.94 24.38,9.80 24.06,9.71 23.43,9.55 23.02,9.47 22.81,9.53 z m 166.96,0 c -0.33,0.09 -0.10,0.57 0.53,1.59 0.21,0.34 0.34,0.51 0.5,0.75 0.29,0.64 0.59,1.12 0.78,1.12 0.08,0 0.15,-0.11 0.21,-0.28 0.13,-0.18 0.28,-0.55 0.5,-1.12 0.31,-0.82 -0.21,-1.58 -1.31,-1.87 -0.60,-0.15 -1.01,-0.24 -1.21,-0.18 z m -2.81,0.5 c -0.44,0.06 -1.10,0.82 -1.53,2.15 -0.01,0.03 0.00,0.06 0,0.09 -0.31,0.44 -0.34,0.79 -0.09,1.21 0.19,1.52 1.55,2.89 3.78,3.68 0.52,0.72 0.71,1.40 0.59,2 C 189.32,20.11 188.45,21 187.5,21 c -0.75,0 -1.69,-0.78 -2.25,-1.81 -0.05,-0.09 -0.11,-0.18 -0.15,-0.28 -0.02,-0.05 -0.03,-0.10 -0.06,-0.15 -0.90,-2.24 -0.90,-2.26 -0.96,-0.09 -8.7e-4,0.02 1.7e-4,0.06 0,0.09 -0.03,0.22 -0.06,0.47 -0.06,0.75 0,0.72 0.34,1.32 0.78,1.46 0.14,0.17 0.29,0.30 0.46,0.37 2.14,0.86 3.25,0.67 4.75,-0.84 0.03,-0.01 0.06,-0.04 0.09,-0.06 0.26,-0.18 0.48,-0.43 0.62,-0.71 0.00,-0.01 0.02,-0.01 0.03,-0.03 0.00,-0.00 -0.00,-0.02 0,-0.03 1.48,-2.07 0.67,-4.38 -1.93,-5.21 -0.83,-0.26 -1.34,-0.67 -1.53,-1.25 -0.00,-0.00 0.00,-0.02 0,-0.03 -0.03,-0.12 -0.05,-0.26 -0.06,-0.40 -0.00,-0.15 0.01,-0.30 0.03,-0.46 0.01,-0.11 0.02,-0.24 0.06,-0.37 0.01,-0.05 0.01,-0.09 0.03,-0.15 0.32,-1.25 0.42,-1.69 0.03,-1.43 -0.09,-0.20 -0.21,-0.30 -0.40,-0.28 z m 47.12,0 c -0.32,0.01 -2.01,2.48 -3.78,5.5 -0.87,1.49 -1.50,2.62 -1.87,3.46 -0.00,0.01 0.00,0.02 0,0.03 C 228.17,19.36 228,19.74 228,20.06 c 0,0.09 0.02,0.16 0.03,0.25 0.00,0.06 -0.01,0.16 0,0.21 0.00,0.11 0.04,0.21 0.09,0.28 0.03,0.04 0.04,0.09 0.09,0.12 0.02,0.01 0.06,0.02 0.09,0.03 0.07,0.02 0.15,0.03 0.25,0.03 0.79,0 1.34,-0.33 1.25,-0.75 -0.29,-1.24 2.43,-6.25 3.40,-6.25 0.12,0 0.24,0.03 0.34,0.12 0.14,0.43 0.27,0.92 0.37,1.5 -0.00,0.04 0.00,0.08 0,0.12 -0.33,3.34 0.06,4.99 1.18,5.18 0.07,0.01 0.14,0.06 0.21,0.06 1.06,0 1.11,-1.09 0.31,-5.5 -0.20,-1.10 -0.40,-2.07 -0.62,-2.93 C 235.02,12.46 235,12.33 235,12.25 c 0,-1.48 -0.11,-1.99 -0.62,-1.81 -0.12,-0.27 -0.20,-0.40 -0.28,-0.40 z M 20.68,10.12 c -0.07,0.00 -0.22,0.09 -0.40,0.25 -0.08,0.01 -0.16,0.05 -0.28,0.12 -0.33,0.20 -0.58,0.52 -0.75,0.87 -1.55,1.57 -1.57,1.86 0.65,3.68 C 20.20,15.43 20.57,15.77 21,16 c 0.01,0.01 0.04,0.01 0.06,0.03 0.01,0.00 0.01,0.02 0.03,0.03 1.38,1.28 1.93,2.44 1.59,3.34 -0.84,2.21 -2.28,1.99 -4.12,-0.62 L 17,16.56 l 0,2.12 c 0,0.07 0.02,0.14 0.03,0.21 0.00,0.02 -0.00,0.04 0,0.06 C 17.01,19.13 17,19.31 17,19.5 c 0,0.70 0.32,1.27 0.75,1.43 0.00,0.00 -0.00,0.02 0,0.03 0.00,0.00 0.02,-0.00 0.03,0 0.14,0.16 0.30,0.30 0.46,0.37 2.26,0.91 3.59,0.68 5.18,-0.90 2.24,-2.24 1.92,-3.96 -1.03,-5.90 -1.74,-1.14 -2.36,-2.21 -1.93,-3.34 0.27,-0.72 0.38,-1.08 0.21,-1.06 z m 45.59,0.12 c -0.14,-0.00 -0.30,0.03 -0.5,0.15 -0.21,-0.15 -0.46,0.06 -0.81,0.62 -0.06,0.10 -0.10,0.23 -0.15,0.34 -0.75,0.90 -1.71,2.33 -2.87,4.37 -0.82,1.44 -1.46,2.76 -1.84,3.71 -0.03,0.01 -0.06,0.01 -0.09,0.03 -0.55,0.33 -1,0.81 -1,1.06 0,0.20 0.34,0.35 0.78,0.40 0.04,0.00 0.07,0.02 0.12,0.03 0.03,0.00 0.05,0 0.09,0 0.55,0 1,-0.48 1,-1.06 0,-0.01 3.99e-4,-0.01 0,-0.03 0.54,-0.76 1.17,-1.84 1.75,-3.06 L 64.65,12.75 c 0.01,0.06 0.03,0.12 0.06,0.18 0.00,0.00 -0.00,0.02 0,0.03 l 0.62,3.87 c 0.20,1.28 0.56,2.42 0.93,3.18 C 66.45,20.62 66.70,21 66.96,21 c 0.03,0 0.06,-0.02 0.09,-0.03 0.02,0.00 0.04,0.03 0.06,0.03 0.71,0 0.90,-1.12 0.5,-3.12 C 67.28,16.15 67,13.63 67,12.28 67,10.93 66.75,10.26 66.28,10.25 z M 112.87,11 c -0.10,0.01 -0.21,0.06 -0.31,0.15 -0.44,0.41 -0.84,2.24 -1.09,4.21 -0.10,0.57 -0.19,1.19 -0.25,1.87 -0.09,1.25 -0.05,2.34 0.09,3.03 0.03,0.15 0.04,0.29 0.09,0.40 0.00,0.00 -0.00,0.02 0,0.03 0.03,0.12 0.07,0.23 0.12,0.31 0.33,0.54 1.12,0.69 1.75,0.31 0.81,-0.50 0.81,-0.79 0.03,-1.06 -0.52,-0.17 -0.73,-0.80 -0.68,-1.59 0.00,-0.15 0.03,-0.33 0.06,-0.5 0.27,-1.68 1.42,-3.78 2.68,-4.03 1.40,-0.27 1.68,0.29 1.43,3 -0.03,0.46 -0.05,0.93 -0.06,1.34 -0.03,1.46 0.10,2.5 0.37,2.5 0.06,0 0.09,-0.01 0.15,-0.06 0.02,0.02 0.06,0.04 0.09,0.06 0.47,0.27 1.03,-1.41 1.25,-3.75 0.35,-3.93 0.20,-4.25 -2.03,-4.25 -0.96,0 -1.89,-0.29 -2.43,-0.71 -0.11,-0.17 -0.24,-0.31 -0.37,-0.40 -0.01,-0.00 -0.01,-0.02 -0.03,-0.03 -0.01,-0.02 -0.02,-0.06 -0.03,-0.09 C 113.53,11.23 113.19,10.95 112.87,11 z m 100.18,0 c -0.58,0 -1.08,0.33 -1.12,0.75 -0.00,0.00 0.00,0.11 0,0.12 -1.07,1.54 -1.72,5.50 -1.06,9.37 0.18,1.08 1.90,0.92 2.62,-0.25 0.33,-0.55 0.07,-1 -0.56,-1 -0.98,0 -0.69,-2.86 0.12,-4.68 0.03,-0.08 0.08,-0.14 0.12,-0.21 0.28,-0.48 0.57,-0.90 0.84,-1.12 0.04,-0.02 0.08,-0.05 0.12,-0.09 0.01,-0.01 0.01,-0.02 0.03,-0.03 0.94,-0.60 0.98,-0.77 0.18,-0.81 -0.02,-0.30 -0.14,-0.63 -0.34,-0.96 -0.12,-0.20 -0.24,-0.36 -0.37,-0.5 C 213.68,11.23 213.47,11 213.06,11 z M 53.21,11.53 c -0.31,-0.00 -0.55,0.22 -0.84,0.68 -0.97,1.58 -1.54,6.92 -0.90,8.59 0.88,2.30 2.28,0.36 1.75,-2.43 -0.32,-1.72 0.02,-3.06 1,-3.78 1.24,-0.91 1.26,-1.33 0.18,-2.34 -0.50,-0.47 -0.87,-0.71 -1.18,-0.71 z M 27.12,13 c -0.08,0.00 -0.00,0.21 0.21,0.62 0.05,0.10 0.07,0.28 0.09,0.5 -0.00,0.00 0.00,0.02 0,0.03 -0.35,0.70 -0.52,1.96 -0.78,4.12 -0.33,2.79 -1.17,5.42 -1.87,5.87 C 23.91,24.70 24.21,24.98 25.75,25 c 0.19,0.00 0.38,-0.01 0.56,-0.03 C 26.42,24.99 26.56,25 26.71,25 c 0.54,0 0.89,-0.17 0.96,-0.43 0.13,-0.09 0.20,-0.19 0.18,-0.31 -0.32,-2.05 0.25,-3.14 1.43,-2.68 0.71,0.27 1.56,-0.07 2.34,-0.75 0.01,0.07 0.04,0.18 0.06,0.18 0.38,0 0.79,-0.72 1.15,-1.68 0.67,-1.08 1.12,-2.35 0.96,-3.46 -0.10,-0.74 -0.30,-1.28 -0.65,-1.65 -0.50,-1.23 -0.96,-1.42 -1.28,-0.65 -0.00,-0.00 -0.02,0.00 -0.03,0 -0.41,-0.09 -0.90,-0.15 -1.5,-0.18 -1.22,-0.06 -1.97,-0.08 -2.46,0.25 C 27.47,13.19 27.21,12.99 27.12,13 z M 49,13 c -0.32,0 -0.59,0.16 -0.78,0.40 -0.30,-0.04 -0.63,-0.06 -1,-0.06 -0.45,0 -0.83,-0.00 -1.15,0.03 -0.24,-0.32 -0.43,-0.32 -0.62,0.15 -0.91,0.34 -1.08,1.26 -1.18,3.78 -0.03,0.93 0.02,1.65 0.12,2.15 L 44.06,21.5 44.59,20.15 C 45.01,20.81 45.72,19.93 46.18,17.5 46.42,16.26 47.22,15.59 48.28,15.78 49.22,15.94 50,15.47 50,14.71 c 0,-0.12 -0.05,-0.23 -0.09,-0.34 0.00,-0.00 -0.00,-0.02 0,-0.03 C 49.94,14.23 50,14.12 50,14 50,13.45 49.55,13 49,13 z m 24.93,0 c -3.21,0 -5.53,7.19 -2.68,8.34 2.07,0.83 2.44,0.72 3.87,-1.09 1.21,-1.54 1.18,-1.59 -0.21,-0.5 C 73.41,20.90 72,20.54 72,19 c 0,-0.37 1.10,-1.19 2.46,-1.81 0.15,-0.07 0.30,-0.13 0.43,-0.21 0.05,0.02 0.11,0.03 0.18,0.03 0.43,0 0.68,-0.33 0.75,-0.78 C 77.04,14.82 76.31,13 73.93,13 z m 9.09,0 c -0.27,0 -0.43,0.18 -0.5,0.46 -0.37,-0.08 -0.79,-0.12 -1.28,-0.12 -0.55,8.56e-4 -0.98,0.02 -1.34,0.09 -0.25,-0.13 -0.49,-0.03 -0.65,0.21 -0.70,0.42 -0.86,1.43 -1,3.71 -0.04,0.77 0.00,1.33 0.06,1.81 -0.47,1.96 -0.18,2.15 0.37,1.18 0.42,0.31 1.07,-0.63 1.5,-2.87 0.23,-1.23 1.03,-1.90 2.09,-1.71 0.36,0.06 0.72,0.04 1,-0.06 C 83.40,15.88 83.51,16 83.59,16 c 0.17,0 0.32,-0.43 0.37,-1.03 0.00,-0.03 -0.00,-0.06 0,-0.09 0.00,-0.05 0.02,-0.10 0.03,-0.15 0,-0.01 3.11e-4,-0.02 0,-0.03 0.00,-0.06 0,-0.12 0,-0.18 C 84,13.67 83.56,13 83.03,13 z m 41.65,0 c -1.11,0 -2.05,0.61 -2.71,1.62 -1.50,1.61 -2.36,4.20 -1,5.84 1.47,1.77 1.99,1.84 4.03,0.53 1.21,-0.78 1.06,-0.98 -0.75,-1 -0.90,-0.00 -1.54,-0.32 -1.90,-0.87 -0.00,-0.01 -0.02,-0.01 -0.03,-0.03 -0.01,-0.30 -0.04,-0.62 -0.09,-0.96 -0.07,-0.50 -0.06,-0.96 -0.03,-1.40 C 122.35,16.17 122.60,15.60 123,15 c 0.21,-0.32 0.40,-0.58 0.56,-0.75 0.34,-0.09 0.73,-0.01 1.09,0.31 0.09,0.12 0.16,0.22 0.28,0.40 0.04,0.06 0.11,0.09 0.15,0.15 0.03,0.04 0.05,0.11 0.09,0.15 0.33,0.49 0.54,0.67 0.65,0.5 0.30,0.13 0.57,0.14 0.78,-0.06 0.40,-0.40 0.23,-1.26 -0.37,-1.87 -0.24,-0.24 -0.50,-0.39 -0.78,-0.5 -0.01,-0.00 -0.01,-0.02 -0.03,-0.03 C 125.23,13.12 124.95,13 124.68,13 z m 71.90,0 c -0.13,0 -0.19,0.05 -0.21,0.12 -0.63,0.09 -1.30,0.38 -1.93,0.90 -1.47,1.22 -1.99,6.09 -0.78,7.31 1.61,1.61 4.26,0.21 5.5,-2.09 0.46,-0.70 0.69,-1.54 0.68,-2.37 -1e-4,-0.01 1.6e-4,-0.02 0,-0.03 0.00,-0.23 -0.00,-0.48 -0.03,-0.71 -0.17,-1.46 -0.95,-2.44 -1.96,-2.84 -0.05,-0.02 -0.10,-0.04 -0.15,-0.06 -0.07,-0.02 -0.14,-0.03 -0.21,-0.06 C 197.19,13.06 196.90,13 196.59,13 z m 6.53,0 c -1.06,0 -1.67,7.13 -0.68,8.12 0.24,0.24 1.66,0.40 3.12,0.34 2.40,-0.10 2.69,-0.54 2.87,-4.31 0.24,-5.06 -0.96,-5.48 -1.87,-0.65 -0.37,2.00 -1.23,3.5 -2.03,3.5 -1.03,0 -1.26,-0.90 -0.84,-3.5 0.36,-2.27 0.17,-3.5 -0.56,-3.5 z m 56.40,0 c -0.37,0 -0.78,0.14 -1.18,0.40 -0.00,0.00 -0.02,-0.00 -0.03,0 -0.07,0.01 -0.14,0.04 -0.21,0.06 C 255.54,14.27 254.29,18.44 256,20.5 c 1.41,1.70 1.31,1.70 3.40,0.90 0.86,-0.33 1.59,-1.06 1.59,-1.62 0,-0.63 -0.5,-0.60 -1.34,0.09 -1.12,0.93 -1.93,0.80 -2.34,-0.25 0.01,-0.41 -0.00,-0.90 -0.09,-1.5 -0.17,-1.18 -0.00,-2.23 0.34,-2.93 0.05,-0.11 0.12,-0.21 0.18,-0.31 0.00,-0.01 0.02,-0.01 0.03,-0.03 0.10,-0.12 0.20,-0.25 0.31,-0.34 0.38,-0.29 0.83,-0.34 1.25,-0.12 0.08,0.04 0.16,0.08 0.25,0.15 0.08,0.06 0.17,0.12 0.25,0.21 0.08,0.09 0.14,0.21 0.21,0.34 0.00,0.01 0.02,0.01 0.03,0.03 0.10,0.16 0.21,0.32 0.34,0.43 0.18,0.23 0.28,0.34 0.37,0.25 0.30,0.13 0.59,0.12 0.81,-0.09 0.77,-0.77 0.12,-1.71 -1,-2.15 C 260.35,13.20 259.96,13 259.53,13 z m -89.06,0.03 c -0.20,-0.00 -0.28,0.03 -0.25,0.15 -0.56,0.09 -1.18,0.34 -1.78,0.84 -1.77,1.47 -1.90,6.61 -0.18,7.31 2.07,0.83 2.52,0.72 4.21,-0.96 1.08,-1.08 1.49,-2.36 1.43,-3.56 -0.00,-0.04 0.00,-0.08 0,-0.12 0.04,-1.37 -0.43,-2.68 -1.5,-3.09 -0.21,-0.08 -0.31,-0.09 -0.5,-0.15 -0.03,-0.01 -0.05,-0.04 -0.09,-0.06 -0.20,-0.09 -0.40,-0.14 -0.62,-0.18 -0.28,-0.08 -0.56,-0.14 -0.71,-0.15 z m -63.31,0.06 c -0.25,0.01 -0.54,0.05 -0.87,0.09 -0.20,0.02 -0.39,0.07 -0.59,0.12 -0.01,0.00 -0.04,-0.00 -0.06,0 -0.12,0.02 -0.22,0.04 -0.31,0.09 -0.80,0.26 -1.53,0.73 -2.15,1.31 -0.10,-0.13 -0.22,-0.16 -0.34,-0.09 -0.20,0.12 -0.35,0.53 -0.5,1.06 -1.10,1.53 -1.49,3.42 -0.46,4.65 0.17,0.20 0.43,0.39 0.71,0.56 0.01,0.00 0.04,0.02 0.06,0.03 0.84,0.48 2.03,0.73 3.06,0.62 2.23,-0.23 2.60,-0.79 2.93,-4.46 0.32,-3.56 0.30,-4.12 -1.46,-4 z m 160.87,0 c -0.24,0.01 -0.49,0.05 -0.81,0.09 -0.12,0.01 -0.25,0.03 -0.37,0.06 -1.34,-0.07 -2.48,0.69 -3.18,2 -0.01,0.01 -0.02,0.04 -0.03,0.06 -1.32,1.57 -1.89,3.64 -0.87,4.87 0.63,0.75 2.34,1.34 3.81,1.28 2.39,-0.10 2.68,-0.54 2.96,-4.34 0.26,-3.54 0.20,-4.14 -1.5,-4.03 z M 38.93,13.12 c -3.18,0.29 -5.69,7.00 -2.68,8.21 1.95,0.79 2.26,0.72 4.15,-0.65 1.12,-0.82 1.58,-2.39 1.5,-3.90 0.15,-1.51 -0.30,-3.00 -1.43,-3.43 -0.23,-0.09 -0.47,-0.11 -0.71,-0.12 -0.06,-0.01 -0.12,-0.04 -0.18,-0.06 -0.21,-0.04 -0.41,-0.05 -0.62,-0.03 z M 88.75,13.15 c -0.99,0.04 -1.92,0.55 -2.65,1.31 -0.03,0.01 -0.05,0.00 -0.09,0.03 -0.15,0.09 -0.30,0.34 -0.43,0.62 -0.99,1.40 -1.39,3.31 -0.59,4.81 0.03,0.07 0.08,0.11 0.12,0.18 0.07,0.60 0.15,0.76 0.31,0.53 1.32,1.83 3.02,1.65 5.03,-0.56 0.73,-0.80 1.16,-1.76 1.34,-2.68 0.00,-0.01 -0.00,-0.04 0,-0.06 C 91.90,16.98 92,16.66 92,16.43 92,16.17 91.88,15.88 91.75,15.59 91.47,14.34 90.64,13.37 89.31,13.18 89.11,13.16 88.93,13.14 88.75,13.15 z M 147.65,13.25 c -0.03,0.01 -0.08,0.05 -0.12,0.12 -0.01,-0.00 -0.01,-0.02 -0.03,-0.03 -0.90,-0.31 -1.56,4.13 -1.12,6.65 0.01,0.05 0.02,0.10 0.03,0.15 0.01,0.12 0.03,0.24 0.06,0.34 0.01,0.05 0.01,0.13 0.03,0.18 0.20,0.65 1.58,1.06 3.06,0.90 2.39,-0.25 2.71,-0.74 3,-4.68 0.04,-0.58 0.05,-1.06 0.06,-1.46 0.01,-0.02 0.02,-0.06 0.03,-0.09 0.36,-1.00 0.34,-1.55 -0.03,-1.21 -0.02,0.02 -0.06,0.09 -0.09,0.12 -0.22,-0.72 -0.82,0.57 -1.90,4 -0.94,3.00 -2.77,1.94 -2.43,-1.40 0.12,-1.29 -0.00,-2.48 -0.31,-3.09 -0.00,-0.01 -0.02,-0.01 -0.03,-0.03 -0.05,-0.29 -0.10,-0.49 -0.18,-0.46 z m 104.68,0.09 c -0.52,0.25 -0.83,2.78 -0.75,5.31 3.5e-4,0.01 -3.6e-4,0.02 0,0.03 -0.06,0.26 -0.11,0.52 -0.18,0.71 -0.33,0.86 -0.17,1.59 0.37,1.59 0.00,0 0.02,7.82e-4 0.03,0 0.01,0.10 0.01,0.21 0.03,0.31 0.07,0.44 0.49,0.59 0.90,0.34 0.74,-0.46 0.89,-3.84 0.56,-6.15 -0.00,-1.04 -0.14,-1.90 -0.5,-2.12 -0.10,-0.06 -0.19,-0.04 -0.28,0 -0.00,-0.00 -0.02,0.00 -0.03,0 -0.00,-0.00 0.00,-0.02 0,-0.03 -0.05,-0.01 -0.10,-0.02 -0.15,0 z M 30.96,14 c 0.25,0 0.47,0.22 0.65,0.59 C 31.53,15.22 31.5,16.00 31.5,17 c 0,0.55 0.02,0.92 0.03,1.40 -0.75,1.72 -2.22,2.86 -2.93,1.71 C 27.79,18.83 29.67,14 30.96,14 z M 170.87,14 c 0.05,0 0.10,0.02 0.15,0.03 0.14,0.11 0.30,0.20 0.5,0.34 0.19,0.14 0.34,0.27 0.5,0.40 0.01,0.00 0.02,0.02 0.03,0.03 0.00,0.00 -0.00,0.02 0,0.03 0.42,0.88 0.41,2.36 -0.15,3.90 -0.91,2.47 -2.41,2.94 -3.15,1 -0.61,-1.60 0.91,-5.75 2.12,-5.75 z m 26.18,0 c 0.14,0.12 0.28,0.24 0.46,0.37 0.27,0.53 0.40,1.59 0.28,2.81 -0.33,3.37 -2.38,4.89 -3.34,2.53 0.05,-0.58 0.10,-1.37 0.12,-2.43 0.00,-0.08 -0.00,-0.11 0,-0.18 C 195.09,15.53 196.13,14.03 197.06,14 z M 88.5,14.03 c 0.58,-0.01 1.13,0.41 1.37,1.28 0.00,0.01 -0.00,0.02 0,0.03 0.00,0.01 -0.00,0.01 0,0.03 0.05,0.56 0.04,1.29 -0.06,2.21 -0.00,0.06 0.00,0.09 0,0.15 -0.59,2.16 -2.43,3.67 -3.31,2.25 -0.26,-0.42 -0.33,-1.36 -0.25,-2.34 0.03,-0.18 0.05,-0.26 0.09,-0.46 0.05,-0.28 0.05,-0.50 0.09,-0.75 0.00,-0.03 0.02,-0.06 0.03,-0.09 0.41,-1.52 1.25,-2.29 2.03,-2.31 z m 178.43,0.03 c 0.60,0.14 0.97,0.66 1.03,1.46 0.00,0.03 -0.00,0.06 0,0.09 -0.03,0.46 -0.12,1.03 -0.25,1.78 -0.00,0.02 0.00,0.06 0,0.09 -0.08,0.29 -0.19,0.58 -0.31,0.90 -0.75,1.96 -3.40,2.11 -3.40,0.18 0,-0.88 0.15,-1.70 0.40,-2.40 0.04,-0.11 0.07,-0.23 0.12,-0.34 0.08,-0.17 0.15,-0.34 0.25,-0.5 0.00,-0.01 0.02,-0.01 0.03,-0.03 0.41,-0.64 0.95,-1.03 1.59,-1.15 0.20,-0.03 0.36,-0.08 0.53,-0.09 z m -160.71,0.03 c 0.08,0.00 0.14,0.02 0.21,0.06 0.04,0.02 0.11,0.05 0.15,0.09 0.04,0.05 0.08,0.11 0.12,0.18 0.04,0.08 0.06,0.19 0.09,0.31 0.03,0.15 0.05,0.32 0.06,0.53 0.00,0.06 0.00,0.11 0,0.18 -0.00,0.28 -0.01,0.60 -0.06,0.93 -0.04,0.33 -0.13,0.71 -0.21,1.06 -0.57,2.30 -2.43,3.09 -3.21,2 0.09,-0.52 0.17,-1.11 0.18,-1.90 0.00,-0.42 -0.00,-0.82 -0.03,-1.18 0.68,-1.25 1.88,-2.34 2.68,-2.28 z M 39.06,14.12 c 1.28,-0.00 1.88,1.90 1,4.21 C 39.50,19.80 38.59,21 38.03,21 c -1.09,0 -1.30,-3.63 -0.62,-5.53 0.42,-0.59 0.91,-1.07 1.43,-1.31 0.00,-0.00 0.02,0.00 0.03,0 0.06,-0.01 0.12,-0.03 0.18,-0.03 z m 35.12,0 c 0.08,-0.01 0.18,-0.00 0.25,0 0.00,0.00 0.02,-0.00 0.03,0 0.29,0.20 0.35,0.66 0.18,1.21 -0.32,0.63 -0.96,1.26 -1.59,1.46 -0.60,0.20 -0.95,-0.01 -0.93,-0.5 0.21,-0.54 0.45,-1.03 0.75,-1.43 0.31,-0.31 0.70,-0.56 1.06,-0.68 0.09,-0.03 0.16,-0.05 0.25,-0.06 z m 85,0.03 c 0.64,-0.00 0.82,0.88 0.62,2.90 -0.30,3.09 -1.73,4.70 -3.03,3.40 -0.92,-0.92 0.69,-5.78 2.09,-6.25 0.11,-0.03 0.22,-0.06 0.31,-0.06 z M 97.03,14.25 c 0.32,-0.03 0.63,0.08 0.96,0.37 0.06,0.10 0.08,0.16 0.15,0.28 0.31,0.50 0.55,0.92 0.68,1.31 0.00,0.00 -0.00,0.02 0,0.03 0.00,0.57 -0.22,1.26 -0.65,2.21 -1.42,3.13 -3.20,3.29 -3.18,0.28 0.01,-2.58 0.95,-4.38 2.03,-4.5 z M 128.12,30 c -0.55,0 -1.28,0.45 -1.62,1 -0.33,0.55 -0.17,1 0.37,1 0.55,0 1.28,-0.45 1.62,-1 0.33,-0.55 0.17,-1 -0.37,-1 z m -7.93,1.09 c -0.11,0.04 0.01,0.54 0.28,1.53 0.42,1.55 -0.11,2.55 -2.03,3.81 -1.43,0.94 -2.37,1.97 -2.06,2.28 0.30,0.30 1.32,-0.03 2.21,-0.78 1.39,-1.16 1.81,-1.09 3.03,0.56 1.32,1.80 1.08,2.08 -3.62,3.87 -2.77,1.05 -4.87,2.09 -4.65,2.31 0.21,0.21 2.76,-0.54 5.65,-1.68 5.95,-2.34 7.43,-1.98 3.90,0.93 C 120.58,45.86 109.94,50 107.31,50 c -0.17,0 -0.30,-0.01 -0.43,-0.03 -0.02,-0.00 -0.04,-0.02 -0.06,-0.03 -0.21,-0.09 -0.44,-0.19 -0.65,-0.31 -0.01,-0.00 -0.01,-0.02 -0.03,-0.03 -0.34,-0.54 0.42,-1.55 2.12,-2.37 1.23,-0.59 1.76,-1.11 1.18,-1.15 -0.58,-0.03 -1.88,0.53 -2.90,1.28 -1.79,1.31 -1.79,1.42 0.06,3.96 0.73,1.01 1.76,1.77 2.81,2.21 0.78,0.51 1.34,0.69 1.43,0.40 1.13,0.15 2.15,-0.12 2.65,-0.93 0.36,-0.58 -0.11,-0.72 -1.18,-0.34 -1.32,0.46 -1.52,0.31 -0.75,-0.53 1.68,-1.84 15.40,-5.99 16.09,-4.87 0.66,1.08 -0.34,1.87 -4,2.90 -1.33,0.18 -2.61,0.51 -3.5,0.87 -0.02,0.00 -0.04,0.02 -0.06,0.03 -5.25,1.21 -5.39,1.31 -2.53,1.93 4.72,1.02 13.25,6.03 16.40,9.62 1.56,1.77 2.99,3.08 3.18,2.90 0.18,-0.18 2.09,-0.60 4.21,-0.93 3.73,-0.58 8.22,-2.50 6.03,-2.56 -1.71,-0.04 -6.63,-10.33 -6.25,-13.06 0.25,-1.79 1.27,-2.78 3.78,-3.59 3.35,-1.08 3.52,-1.01 5.46,2.5 2.49,4.51 3.86,15.43 1.84,14.65 -0.73,-0.28 -1.07,-0.06 -0.75,0.46 0.32,0.53 -1.23,1.26 -3.5,1.62 -2.26,0.36 -3.73,1.01 -3.28,1.46 0.45,0.45 3.04,0.18 5.75,-0.62 3.71,-1.11 5.16,-1.21 5.96,-0.34 0.75,0.82 0.71,0.97 -0.12,0.5 -0.64,-0.36 -1.46,-0.21 -1.81,0.34 -0.34,0.55 -1.60,1.02 -2.81,1.03 -1.46,0.01 -1.77,0.28 -0.93,0.81 0.95,0.60 0.12,2.54 -1.59,4.78 -0.00,0.01 -0.02,0.01 -0.03,0.03 -1.67,1.78 -3.59,3.68 -5.31,5.31 -0.01,0.01 -0.02,0.02 -0.03,0.03 -1.07,0.84 -2.18,1.59 -3.28,2.18 -1.1,0.60 -0.2,-0.78 2,-3.09 2.2,-2.30 3.34,-4.05 2.53,-3.87 -0.89,0.19 -1.60,-0.57 -1.81,-1.93 -0.37,-2.46 -0.43,-2.48 -2.43,-1.71 -0.90,0.34 -1.25,1.67 -1,3.84 0.30,2.63 -0.19,3.91 -2.59,6.31 -4.30,4.30 -7.88,3.51 -14.78,-3.21 -2.97,-2.90 -5.66,-4.85 -6,-4.31 -0.82,1.33 3.12,5.52 8.53,9 0.97,0.62 1.97,1.09 2.96,1.5 0.25,0.10 0.52,0.18 0.78,0.28 5.61,1.96 11.62,0.57 18.03,-4.21 3.86,-2.50 7.33,-5.81 9.56,-9.59 0.11,-0.20 0.14,-0.29 0.25,-0.46 4.63,-6.77 5.53,-13.80 2.96,-22.25 -0.81,-2.69 -1.49,-5.02 -1.5,-5.15 -0.00,-0.13 1.60,-0.90 3.56,-1.71 3.78,-1.58 3.77,-2.39 -0.06,-7.03 -1.16,-1.40 -1.53,-1.52 -1.18,-0.40 0.38,1.23 -1.09,2.06 -6.65,3.75 -6.46,1.95 -11.41,3.07 -14.84,3.34 -0.04,0.00 -0.08,-0.00 -0.12,0 -1.08,0.03 -2.02,0.01 -2.78,-0.03 -0.06,-0.00 -0.12,0.00 -0.18,0 -0.08,-0.01 -0.14,-0.01 -0.21,-0.03 -0.12,-0.02 -0.23,-0.03 -0.34,-0.06 -2.21,-0.53 -2.15,-0.64 1,-1.71 0.38,-0.13 0.99,-0.33 1.65,-0.53 1.69,-0.50 4.16,-1.20 6.78,-1.90 0.02,-0.00 0.06,0.00 0.09,0 0.65,-0.03 0.99,-0.13 0.96,-0.28 0.94,-0.24 1.82,-0.48 2.75,-0.71 4.90,-1.25 8.47,-2.43 7.90,-2.62 -0.56,-0.18 -5.31,0.79 -10.56,2.18 -11.47,3.05 -11.53,3.05 -9.25,0.53 0.99,-1.10 1.50,-2.34 1.09,-2.75 -0.40,-0.40 -1.64,0.48 -2.75,2 -1.10,1.51 -2.72,2.75 -3.59,2.75 -0.87,0 -1.28,-0.31 -0.90,-0.68 0.37,-0.37 -0.71,-1.27 -2.43,-2 C 124.16,31.74 122.65,31.63 123.5,33 c 0.25,0.40 0.33,0.68 0.31,0.84 -0.09,0.04 -0.18,0.10 -0.28,0.15 -0.01,-7.8e-4 -0.02,0.00 -0.03,0 -0.45,-0.06 -1.34,-0.70 -2.18,-1.75 -0.65,-0.81 -1.01,-1.20 -1.12,-1.15 z m 39.68,6.12 c 2.03,0.03 2.79,0.28 2.15,0.68 -0.01,0.00 -0.01,0.02 -0.03,0.03 L 161.87,38 c -3.77,2.13 -22.17,7.93 -23.21,7.31 -0.63,-0.38 -0.55,0.05 0.18,0.96 0.73,0.91 1.15,2.17 0.93,2.84 C 139.55,49.79 138.32,48.86 137,47 c -1.31,-1.84 -1.84,-3.03 -1.18,-2.62 0.65,0.40 1.18,0.35 1.18,-0.09 0,-0.45 2.93,-1.63 6.5,-2.65 3.56,-1.02 6.23,-2.24 5.93,-2.71 -0.29,-0.47 0.24,-0.58 1.18,-0.21 0.94,0.36 1.46,0.22 1.15,-0.28 -0.31,-0.51 2.14,-0.99 5.56,-1.12 0.98,-0.03 1.83,-0.07 2.53,-0.06 z M 137.53,51.56 c 0.49,-0.07 1.14,0.95 2.62,3.53 1.39,2.42 2.81,5.19 3.15,6.15 0.85,2.37 -0.17,2.07 -2.81,-0.78 -0.04,-0.04 -0.08,-0.07 -0.12,-0.12 -0.49,-0.61 -1.07,-1.33 -1.84,-2.18 -0.12,-0.13 -0.22,-0.24 -0.34,-0.37 -0.04,-0.05 -0.08,-0.10 -0.12,-0.15 -1.80,-2.27 -2.07,-3.32 -1.40,-4.81 0.33,-0.74 0.57,-1.20 0.87,-1.25 z m 3.68,14.81 C 138.61,66.49 134,67.40 134,68.03 c 0,0.42 1.91,0.54 4.25,0.25 4.36,-0.55 5.41,-0.95 4.65,-1.71 -0.17,-0.17 -0.81,-0.22 -1.68,-0.18 z m 6.87,1.59 c -0.70,0.14 -2.07,2.25 -2.09,3.46 -0.00,0.51 0.62,0.06 1.40,-1 0.78,-1.06 1.22,-2.14 0.96,-2.40 -0.06,-0.06 -0.17,-0.08 -0.28,-0.06 z" transform="translate(365.57,699.14)" id="path3154" style="fill:#032866;fill-opacity:1" /></g></svg>
