<svg xmlns:svg="http://www.w3.org/2000/svg" xmlns="http://www.w3.org/2000/svg" version="1.1" width="872" height="460" ><g transform="translate(486,-308)"><path d="m -195.426,311.932 c 4.374,-5.124 13.074,-4.25 16.912,0.975 4.8875,6.6625 -2.05,12.45 6,15.962 0,0 33.674,9.5 33.674,9.5 3.1875,0.9125 10.549,2.5375 12.312,5.15 1.975,2.3875 0.6625,16.062 0,18.937 -1.85,5.4375 -9.324,2.9625 -13.562,2.35 0,0 -27.499,-3.7625 -27.499,-3.7625 0,0 -13.612,-1.55 -13.612,-1.55 -3.8125,0.6625 -4.625,3.6625 -5.5875,6.9 0,0 -5.799,19.999 -5.799,19.999 4.612,1.6 19.962,6.187 21.487,10.337 1.162,2.1625 -0.2,12.425 0,15.912 0,0 -56.487,-7.499 -56.487,-7.499 0,0 2.5,-17.499 2.5,-17.499 0,0 24.999,-2.5 24.999,-2.5 0,0 0,-28.749 0,-28.749 0,0 -57.499,-7.5 -57.499,-7.5 0,0 3.75,-23.749 3.75,-23.749 0,0 54.999,0 54.999,0 0.3125,-3.85 0.85,-10.2125 3.4125,-13.2125 z m 19.087,117.387 c 0,0 12.499,0 12.499,0 0,0 10,-1.775 10,-1.775 8.937,-1.5625 22.399,-3.35 31.249,-2.8 0,0 31.249,-3.15 31.249,-3.15 0,0 21.249,-2.7625 21.249,-2.7625 0,0 12.499,0 12.499,0 0,0 13.749,-3.325 13.749,-3.325 0,0 19.999,-1.975 19.999,-1.975 0,0 21.24996,-3.174 21.24996,-3.174 0,0 38.74904,-2.7125 38.74904,-2.7125 0,0 21.249,-1.25 21.249,-1.25 0,0 63.749,0 63.749,0 0,0 26.249,1.25 26.249,1.25 8.524,0.1 45.237,3.3875 52.499,5.549 6.7375,2 15.6125,4.775 12.5,13.2 7.187,0.025 13.337,0.575 19.699,4.4125 0,0 6.712,4.974 6.712,4.974 0,0 31.087,11.3125 31.087,11.3125 5.075,1.85 17.049,4.6125 16.762,11.987 -0.2875,7.4875 -13.912,8.8375 -19.262,10.7625 -2.35,0.85 -7.325,2.9875 -6.725,6.224 0.4125,2.225 3.675,3.0375 5.4875,3.525 4.1375,1.1125 14.037,2.075 15.312,7.0625 1.4125,5.5625 -9.137,14.612 -14.074,15.949 0,0 -11.249,0 -11.249,0 -5.9125,1.15 -8.4625,3.9375 -15,3.325 -16.249,-1.5375 -19.824,0.4875 -34.999,1.7125 7.05,5.9875 13.074,3.125 21.249,2.6125 7.6875,-0.4875 9.6875,1.3375 13.749,1.2875 6.65,-0.1 6.8875,-3.3125 17.499,1.1 0,0 0,2.499 0,2.499 0,0 -13.749,6.25 -13.749,6.25 5.575,0.25 12.962,0.4 17.499,3.75 -14.412,1.9 -11.712,1.5 -24.999,6.25 6.575,7.612 8.5125,2.8375 17.5,0 0,0 -2.5,4.999 -2.5,4.999 0,0 11.037,-1.225 11.037,-1.225 0,0 8.975,-5.062 8.975,-5.062 0,0 27.487,0 27.487,0 -4.137,5.974 -16.974,3.55 -23.749,3.7875 0,0 0,2.499 0,2.499 0,0 108.749,0 108.749,0 0,0 -16.249,74.999 -16.249,74.999 0,0 -82.499,0 -82.499,0 0,0 0,6.249 0,6.249 0,0 64.999,0 64.999,0 0,0 -14.999,73.749 -14.999,73.749 0,0 -54.999,0 -54.999,0 -6.887,0.0125 -9.849,-0.8875 -12.499,6.25 0,0 81.249,0 81.249,0 0,0 -13.749,66.249 -13.749,66.249 0,0 -173.749,0 -173.749,0 0,0 14.999,-71.249 14.999,-71.249 0,0 -38.749,0 -38.749,0 -3.762,0.0125 -8.599,-0.6125 -11.049,2.8875 -1.475,2.125 -4.7125,18.462 -5.45,22.112 0,0 -9.749,46.249 -9.749,46.249 0,0 -173.749,0 -173.749,0 0,0 14.999,-71.249 14.999,-71.249 0,0 -11.774,2 -11.774,2 0,0 -5.475,19.249 -5.475,19.249 0,0 -10.249,49.999 -10.249,49.999 0,0 -92.499,0 -92.499,0 0,0 3.75,-17.499 3.75,-17.499 -21.274,12.7625 -42.299,21.212 -67.499,21.249 0,0 -38.749,0 -38.749,0 0,0 -77.499,0 -77.499,0 0,0 8.75,-44.999 8.75,-44.999 0,0 -69.999,-0.9 -69.999,-0.9 0,0 -19.999,-2.85 -19.999,-2.85 27.137,-11.687 62.812,-34.799 86.249,-52.937 0,0 19.999,-16.537 19.999,-16.537 2.4,-2.05 7.05,-5.65 8.212,-8.55 0.8375,-2.125 -0.6625,-11.074 -0.7125,-14.474 -0.237,-20.762 3.75,-37.024 16.9,-53.749 9.637,-12.2625 22.412,-22.137 36.849,-27.999 0,0 25.762,-8.95 25.762,-8.95 3.799,-3.287 10.599,-21.187 12.987,-26.799 9.225,-21.712 20.587,-54.087 22.499,-77.499 0,0 22.499,-2.075 22.499,-2.075 z m -253.749,14.524 c 0,0 21.249,-4.8125 21.249,-4.8125 0,0 10,0 10,0 0,0 12.499,-1.3875 12.499,-1.3875 0,0 29.999,0 29.999,0 0,0 37.499,0 37.499,0 0,0 21.249,-1.2375 21.249,-1.2375 0,0 14.999,1.2375 14.999,1.2375 18.149,0.2125 25.637,-1.9375 42.499,-3.7 0,0 9.999,0 9.999,0 8.25,-0.7375 11.4625,-3.649 19.999,-1.3 -6.699,19.2 -23.237,44.112 -35.999,59.999 -41.912,52.124 -101.624,86.937 -163.999,109.137 0,0 -67.499,19.612 -67.499,19.612 0,0 -8.749,-11.249 -8.749,-11.249 0,0 11.249,-1.25 11.249,-1.25 -2.0625,-1.8625 -6.624,-5.025 -5.649,-8.2625 0.625,-2.075 3.949,-3.3875 3.749,-6.799 -0.3625,-5.7125 -4.962,-4.4125 -1.849,-12.4375 -4.3125,-6.274 1.087,-7.299 2.499,-16.249 10.8,-5.6875 0.075,-10.762 3.825,-17.112 2.475,-4.1625 8.55,-1.6 11.125,-5.775 2.5625,-4.175 -1.8875,-7.799 -1.725,-10.949 0.1875,-3.35 3.9625,-4.6875 4.25,-7.675 0.2375,-2.45 -3.7125,-8.175 -4.975,-10.987 4.4,-2.475 5.912,-3.325 6.887,-8.55 0.7625,-4.0875 -1.174,-7.2 2.175,-10.2 0,0 0,-13.749 0,-13.749 0,0 0,-8.112 0,-8.112 0,0 6.9875,-5.975 6.9875,-5.975 0,0 5.2,-13.412 5.2,-13.412 0,0 -3.75,-2.5 -3.75,-2.5 8.6,-1.6125 9.424,-3.925 16.249,-6.3 z m 662.499,76.299 c 0,0 1.25,6.25 1.25,6.25 0,0 8.749,-7.5 8.749,-7.5 0,0 -9.999,1.25 -9.999,1.25 z m 59.999,0 c 0,0 0,2.5 0,2.5 0,0 -18.749,1.25 -18.749,1.25 3.2125,-4.6625 13.699,-5.7375 18.749,-3.75 z m -138.749,91.249 c -6.475,0.0375 -8.4375,-0.525 -10,6.249 0,0 49.999,0 49.999,0 0,0 1.25,-6.249 1.25,-6.249 0,0 -41.249,0 -41.249,0 z" style="fill:#2b5cab;fill-opacity:1;stroke:none" /><path d="m -208.218,553.112 c -40.199,0.0625 -86.9625,21.387 -87.5,67.5 -0.075,6.9875 -0.274,10.750 2.125,17.5 1.75,4.925 4.256,9.7 8.093,13.3125 10.975,10.349 37.568,16.181 52.281,19.968 8.912,2.3 21.218,5.425 26.968,13 4.875,6.4 1.85,13.268 -3.4375,18.281 -8.562,8.15 -20.918,10.425 -32.281,10.4375 l -75,0 -6.25,37.5 35,0 c 40.987,0 91.575,5.924 123.75,-25.0625 7.15,-6.887 12.781,-14.2625 16.156,-23.6875 2.3,-6.399 3.756,-14.45 3.843,-21.25 0.075,-6.399 0.375,-11.3 -1.6875,-17.5 -7.837,-23.487 -36.200,-27.6 -57.0625,-32.6875 -9.374,-2.2875 -26.212,-6.462 -31.5625,-14.875 -3.15,-4.95 -1.206,-9.431 2.218,-13.593 6.85,-8.312 15.468,-10.081 25.593,-10.093 l 56.25,0 20,1.25 20,0 -15.531,71.25 -16.968,82.5 55,0 15,-72.5 48.75,0 -13.75,72.5 126.25,0 9.8125,-1.968 4.75,-19.281 10.4375,-51.25 66.25,0 7.5,-38.75 -65,0 8.75,-42.5 87.5,0 -16.781,77.5 -15.718,76.25 136.25,0 7.5,-38.75 -81.25,0 7.5,-33.75 66.25,0 7.5,-38.75 -65,0 5.75,-28.75 3.718,-11.75 10.531,-2 61.25,0 7.843,-1.25 3.656,-10 4.75,-27.5 -196.25,0 -48.75,1.1875 c -10.374,1.1625 -21.675,3.375 -29.625,10.6875 -10.075,9.25 -11.637,27.725 -14.375,40.625 l -12.781,60 -8.218,41.25 -28.75,0 13.031,-58.75 13.218,-68.75 c 0.1375,-6.249 -0.031,-12.325 -4.281,-17.375 -4.475,-5.3375 -11.681,-6.837 -18.218,-7.9375 l -43.75,-0.9375 -17.5,0 -98.75,0 -21.25,-1.25 -53.75,0 z m 201.25,16.25 -6.25,31.25 47.5,0 -36.25,14.25 -15.093,7.5 -3.156,10.75 -4.25,21.25 -27.5,-19.156 -16.25,4.906 -32.5,11.75 22.625,-21.375 7.125,-8.656 -4.781,-6.656 -17.468,-13.3125 c 6.224,-2.4625 32.7375,-1.1375 41.25,-1.25 10.224,-0.15 11.3,-3.075 18.75,-9.5 7.9124,-6.8125 17.762,-16.3625 26.25,-21.75 z" style="fill:#fdb934;fill-opacity:1;stroke:none" /></g></svg> 
