<?xml version="1.0" encoding="UTF-8" standalone="no"?>
<!DOCTYPE svg PUBLIC "-//W3C//DTD SVG 20010904//EN"
              "http://www.w3.org/TR/2001/REC-SVG-20010904/DTD/svg10.dtd">

<svg xmlns="http://www.w3.org/2000/svg"
     width="9.69444in" height="5.11111in"
     viewBox="0 0 698 368">
  <path id="Selection#2"
        fill="none" stroke="black" stroke-width="1"
        d="M 233.73,3.43
           C 237.23,-0.67 244.19,0.03 247.26,4.21
             251.17,9.54 245.62,14.17 252.06,16.98
             252.06,16.98 279.00,24.58 279.00,24.58
             281.55,25.31 287.44,26.61 288.85,28.70
             290.43,30.61 289.38,41.55 288.85,43.85
             287.37,48.20 281.39,46.22 278.00,45.73
             278.00,45.73 256.00,42.72 256.00,42.72
             256.00,42.72 245.11,41.48 245.11,41.48
             242.06,42.01 241.41,44.41 240.64,47.00
             240.64,47.00 236.00,63.00 236.00,63.00
             239.69,64.28 251.97,67.95 253.19,71.27
             254.12,73.00 253.03,81.21 253.19,84.00
             253.19,84.00 208.00,78.00 208.00,78.00
             208.00,78.00 210.00,64.00 210.00,64.00
             210.00,64.00 230.00,62.00 230.00,62.00
             230.00,62.00 230.00,39.00 230.00,39.00
             230.00,39.00 184.00,33.00 184.00,33.00
             184.00,33.00 187.00,14.00 187.00,14.00
             187.00,14.00 231.00,14.00 231.00,14.00
             231.25,10.92 231.68,5.83 233.73,3.43 Z
           M 249.00,97.34
           C 249.00,97.34 259.00,97.34 259.00,97.34
             259.00,97.34 267.00,95.92 267.00,95.92
             274.15,94.67 284.92,93.24 292.00,93.68
             292.00,93.68 317.00,91.16 317.00,91.16
             317.00,91.16 334.00,88.95 334.00,88.95
             334.00,88.95 344.00,88.95 344.00,88.95
             344.00,88.95 355.00,86.29 355.00,86.29
             355.00,86.29 371.00,84.71 371.00,84.71
             371.00,84.71 388.00,82.17 388.00,82.17
             388.00,82.17 419.00,80.00 419.00,80.00
             419.00,80.00 436.00,79.00 436.00,79.00
             436.00,79.00 487.00,79.00 487.00,79.00
             487.00,79.00 508.00,80.00 508.00,80.00
             514.82,80.08 544.19,82.71 550.00,84.44
             555.39,86.04 562.49,88.26 560.00,95.00
             565.75,95.02 570.67,95.46 575.76,98.53
             575.76,98.53 581.13,102.51 581.13,102.51
             581.13,102.51 606.00,111.56 606.00,111.56
             610.06,113.04 619.64,115.25 619.41,121.15
             619.18,127.14 608.28,128.22 604.00,129.76
             602.12,130.44 598.14,132.15 598.62,134.74
             598.95,136.52 601.56,137.17 603.01,137.56
             606.32,138.45 614.24,139.22 615.26,143.21
             616.39,147.66 607.95,154.90 604.00,155.97
             604.00,155.97 595.00,155.97 595.00,155.97
             590.27,156.89 588.23,159.12 583.00,158.63
             570.00,157.40 567.14,159.02 555.00,160.00
             560.64,164.79 565.46,162.50 572.00,162.09
             578.15,161.70 579.75,163.16 583.00,163.12
             588.32,163.04 588.51,160.47 597.00,164.00
             597.00,164.00 597.00,166.00 597.00,166.00
             597.00,166.00 586.00,171.00 586.00,171.00
             590.46,171.20 596.37,171.32 600.00,174.00
             588.47,175.52 590.63,175.20 580.00,179.00
             585.26,185.09 586.81,181.27 594.00,179.00
             594.00,179.00 592.00,183.00 592.00,183.00
             592.00,183.00 600.83,182.02 600.83,182.02
             600.83,182.02 608.01,177.97 608.01,177.97
             608.01,177.97 630.00,177.97 630.00,177.97
             626.69,182.75 616.42,180.81 611.00,181.00
             611.00,181.00 611.00,183.00 611.00,183.00
             611.00,183.00 698.00,183.00 698.00,183.00
             698.00,183.00 685.00,243.00 685.00,243.00
             685.00,243.00 619.00,243.00 619.00,243.00
             619.00,243.00 619.00,248.00 619.00,248.00
             619.00,248.00 671.00,248.00 671.00,248.00
             671.00,248.00 659.00,307.00 659.00,307.00
             659.00,307.00 615.00,307.00 615.00,307.00
             609.49,307.01 607.12,306.29 605.00,312.00
             605.00,312.00 670.00,312.00 670.00,312.00
             670.00,312.00 659.00,365.00 659.00,365.00
             659.00,365.00 520.00,365.00 520.00,365.00
             520.00,365.00 532.00,308.00 532.00,308.00
             532.00,308.00 501.00,308.00 501.00,308.00
             497.99,308.01 494.12,307.51 492.16,310.31
             490.98,312.01 488.39,325.08 487.80,328.00
             487.80,328.00 480.00,365.00 480.00,365.00
             480.00,365.00 341.00,365.00 341.00,365.00
             341.00,365.00 353.00,308.00 353.00,308.00
             353.00,308.00 343.58,309.60 343.58,309.60
             343.58,309.60 339.20,325.00 339.20,325.00
             339.20,325.00 331.00,365.00 331.00,365.00
             331.00,365.00 257.00,365.00 257.00,365.00
             257.00,365.00 260.00,351.00 260.00,351.00
             242.98,361.21 226.16,367.97 206.00,368.00
             206.00,368.00 175.00,368.00 175.00,368.00
             175.00,368.00 113.00,368.00 113.00,368.00
             113.00,368.00 120.00,332.00 120.00,332.00
             120.00,332.00 64.00,331.28 64.00,331.28
             64.00,331.28 48.00,329.00 48.00,329.00
             69.71,319.65 98.25,301.16 117.00,286.65
             117.00,286.65 133.00,273.42 133.00,273.42
             134.92,271.78 138.64,268.90 139.57,266.58
             140.24,264.88 139.04,257.72 139.00,255.00
             138.81,238.39 142.00,225.38 152.52,212.00
             160.23,202.19 170.45,194.29 182.00,189.60
             182.00,189.60 202.61,182.44 202.61,182.44
             205.65,179.81 211.09,165.49 213.00,161.00
             220.38,143.63 229.47,117.73 231.00,99.00
             231.00,99.00 249.00,97.34 249.00,97.34 Z
           M 46.00,108.96
           C 46.00,108.96 63.00,105.11 63.00,105.11
             63.00,105.11 71.00,105.11 71.00,105.11
             71.00,105.11 81.00,104.00 81.00,104.00
             81.00,104.00 105.00,104.00 105.00,104.00
             105.00,104.00 135.00,104.00 135.00,104.00
             135.00,104.00 152.00,103.01 152.00,103.01
             152.00,103.01 164.00,104.00 164.00,104.00
             178.52,104.17 184.51,102.45 198.00,101.04
             198.00,101.04 206.00,101.04 206.00,101.04
             212.60,100.45 215.17,98.12 222.00,100.00
             216.64,115.36 203.41,135.29 193.20,148.00
             159.67,189.70 111.90,217.55 62.00,235.31
             62.00,235.31 8.00,251.00 8.00,251.00
             8.00,251.00 1.00,242.00 1.00,242.00
             1.00,242.00 10.00,241.00 10.00,241.00
             8.35,239.51 4.70,236.98 5.48,234.39
             5.98,232.73 8.64,231.68 8.48,228.95
             8.19,224.38 4.51,225.42 7.00,219.00
             3.55,213.98 7.87,213.16 9.00,206.00
             17.64,201.45 9.06,197.39 12.06,192.31
             14.04,188.98 18.90,191.03 20.96,187.69
             23.01,184.35 19.45,181.45 19.58,178.93
             19.73,176.25 22.75,175.18 22.98,172.79
             23.17,170.83 20.01,166.25 19.00,164.00
             22.52,162.02 23.73,161.34 24.51,157.16
             25.12,153.89 23.57,151.40 26.25,149.00
             26.25,149.00 26.25,138.00 26.25,138.00
             26.25,138.00 26.25,131.51 26.25,131.51
             26.25,131.51 31.84,126.73 31.84,126.73
             31.84,126.73 36.00,116.00 36.00,116.00
             36.00,116.00 33.00,114.00 33.00,114.00
             39.88,112.71 40.54,110.86 46.00,108.96 Z
           M 576.00,170.00
           C 576.00,170.00 577.00,175.00 577.00,175.00
             577.00,175.00 584.00,169.00 584.00,169.00
             584.00,169.00 576.00,170.00 576.00,170.00 Z
           M 624.00,170.00
           C 624.00,170.00 624.00,172.00 624.00,172.00
             624.00,172.00 609.00,173.00 609.00,173.00
             611.57,169.27 619.96,168.41 624.00,170.00 Z
           M 513.00,243.00
           C 507.82,243.03 506.25,242.58 505.00,248.00
             505.00,248.00 545.00,248.00 545.00,248.00
             545.00,248.00 546.00,243.00 546.00,243.00
             546.00,243.00 513.00,243.00 513.00,243.00 Z" />
</svg>
