<?xml version="1.0" encoding="UTF-8" standalone="no"?>
<!DOCTYPE svg PUBLIC "-//W3C//DTD SVG 20010904//EN"
              "http://www.w3.org/TR/2001/REC-SVG-20010904/DTD/svg10.dtd">

<svg xmlns="http://www.w3.org/2000/svg"
     width="9.69444in" height="5.11111in"
     viewBox="0 0 698 368">
  <path id="Selection#1"
        fill="none" stroke="black" stroke-width="1"
        d="M 197.00,324.00
           C 206.09,323.99 215.96,322.19 222.81,315.67
             227.04,311.66 229.47,306.16 225.57,301.04
             220.97,294.98 211.13,292.47 204.00,290.63
             192.23,287.60 170.96,282.95 162.18,274.67
             159.11,271.78 157.10,267.94 155.70,264.00
             153.78,258.60 153.94,255.59 154.00,250.00
             154.43,213.11 191.84,196.05 224.00,196.00
             224.00,196.00 267.00,196.00 267.00,196.00
             267.00,196.00 284.00,197.00 284.00,197.00
             284.00,197.00 363.00,197.00 363.00,197.00
             363.00,197.00 377.00,197.00 377.00,197.00
             377.00,197.00 412.00,197.75 412.00,197.75
             417.23,198.63 423.00,199.84 426.58,204.11
             429.98,208.15 430.10,213.00 429.99,218.00
             429.99,218.00 419.42,273.00 419.42,273.00
             419.42,273.00 409.00,320.00 409.00,320.00
             409.00,320.00 432.00,320.00 432.00,320.00
             432.00,320.00 438.58,287.00 438.58,287.00
             438.58,287.00 448.79,239.00 448.79,239.00
             450.98,228.68 452.24,213.92 460.30,206.52
             466.66,200.67 475.70,198.88 484.00,197.95
             484.00,197.95 523.00,197.00 523.00,197.00
             523.00,197.00 680.00,197.00 680.00,197.00
             680.00,197.00 676.20,219.00 676.20,219.00
             676.20,219.00 673.28,227.01 673.28,227.01
             673.28,227.01 667.00,228.00 667.00,228.00
             667.00,228.00 618.00,228.00 618.00,228.00
             618.00,228.00 609.58,229.60 609.58,229.60
             609.58,229.60 606.60,239.00 606.60,239.00
             606.60,239.00 602.00,262.00 602.00,262.00
             602.00,262.00 654.00,262.00 654.00,262.00
             654.00,262.00 648.00,293.00 648.00,293.00
             648.00,293.00 595.00,293.00 595.00,293.00
             595.00,293.00 589.00,320.00 589.00,320.00
             589.00,320.00 654.00,320.00 654.00,320.00
             654.00,320.00 648.00,351.00 648.00,351.00
             648.00,351.00 539.00,351.00 539.00,351.00
             539.00,351.00 551.58,290.00 551.58,290.00
             551.58,290.00 565.00,228.00 565.00,228.00
             565.00,228.00 495.00,228.00 495.00,228.00
             495.00,228.00 488.00,262.00 488.00,262.00
             488.00,262.00 540.00,262.00 540.00,262.00
             540.00,262.00 534.00,293.00 534.00,293.00
             534.00,293.00 481.00,293.00 481.00,293.00
             481.00,293.00 472.65,334.00 472.65,334.00
             472.65,334.00 468.84,349.43 468.84,349.43
             468.84,349.43 461.00,351.00 461.00,351.00
             461.00,351.00 360.00,351.00 360.00,351.00
             360.00,351.00 371.00,293.00 371.00,293.00
             371.00,293.00 332.00,293.00 332.00,293.00
             332.00,293.00 320.00,351.00 320.00,351.00
             320.00,351.00 276.00,351.00 276.00,351.00
             276.00,351.00 289.58,285.00 289.58,285.00
             289.58,285.00 302.00,228.00 302.00,228.00
             302.00,228.00 286.00,228.00 286.00,228.00
             286.00,228.00 270.00,227.00 270.00,227.00
             270.00,227.00 225.00,227.00 225.00,227.00
             216.90,227.01 210.01,228.44 204.53,235.09
             201.79,238.42 200.22,242.00 202.74,245.96
             207.02,252.69 220.50,256.04 228.00,257.87
             244.69,261.94 267.37,265.21 273.64,284.00
             275.29,288.96 275.06,292.88 275.00,298.00
             274.93,303.44 273.75,309.88 271.91,315.00
             269.21,322.54 264.72,328.45 259.00,333.96
             233.26,358.75 192.79,354.00 160.00,354.00
             160.00,354.00 132.00,354.00 132.00,354.00
             132.00,354.00 137.00,324.00 137.00,324.00
             137.00,324.00 197.00,324.00 197.00,324.00 Z
           M 364.00,226.42
           C 358.04,231.56 357.18,233.88 349.00,234.00
             342.19,234.09 320.98,233.03 316.00,235.00
             316.00,235.00 329.98,245.66 329.98,245.66
             329.98,245.66 333.80,250.98 333.80,250.98
             333.80,250.98 328.09,257.91 328.09,257.91
             328.09,257.91 310.00,275.00 310.00,275.00
             310.00,275.00 336.00,265.60 336.00,265.60
             336.00,265.60 349.00,261.69 349.00,261.69
             349.00,261.69 371.00,277.00 371.00,277.00
             371.00,277.00 374.40,260.00 374.40,260.00
             374.40,260.00 376.93,251.41 376.93,251.41
             376.93,251.41 389.00,245.42 389.00,245.42
             389.00,245.42 418.00,234.00 418.00,234.00
             418.00,234.00 380.00,234.00 380.00,234.00
             380.00,234.00 385.00,209.00 385.00,209.00
             378.21,213.31 370.33,220.97 364.00,226.42 Z" />
</svg>
