<svg xmlns:dc="http://purl.org/dc/elements/1.1/" xmlns:cc="http://creativecommons.org/ns#" xmlns:rdf="http://www.w3.org/1999/02/22-rdf-syntax-ns#" xmlns:svg="http://www.w3.org/2000/svg" xmlns="http://www.w3.org/2000/svg" version="1.1" width="510.39999" height="429.72501" id="svg2" xml:space="preserve"><metadata id="metadata8"><rdf:RDF><cc:Work rdf:about=""><dc:format>image/svg+xml</dc:format><dc:type rdf:resource="http://purl.org/dc/dcmitype/StillImage" /><dc:title></dc:title></cc:Work></rdf:RDF></metadata><defs id="defs6"><clipPath id="clipPath18"><path d="m 0,0 4083,0 0,3437.79 -4083,0 L 0,0 z" id="path20" /></clipPath></defs><g transform="matrix(1.25,0,0,-1.25,0,429.725)" id="g10"><g transform="scale(0.1,0.1)" id="g12"><g id="g14"><g clip-path="url(#clipPath18)" id="g16"><path d="m 4028.48,2503.96 -53.34,0 c 6.49,12.12 8.37,23.93 7.75,34.47 -3.52,67.01 -119.26,113.71 -164.08,129.3 -40.13,44.22 -101.08,87.26 -163.69,87.26 -1.21,0 -2.45,-0.02 -3.7,-0.06 -9.5,-0.25 -90.95,-2.81 -138,-4.3 l -369.46,659.19 c -9.69,17.3 -27.96,27.97 -47.72,27.97 -0.58,0 -190.71,-5.92 -190.71,-5.92 -17.15,-0.53 -33.05,-9.07 -42.96,-23.08 -9.91,-14 -12.69,-31.84 -7.49,-48.19 l 126.93,-399.31 c -14.12,-0.05 -30.08,-0.09 -30.08,-0.09 -93.71,-0.29 -155.68,-0.5 -162.76,-0.62 C 2199.2,2949.76 1577.19,2876.83 1082.6,2760.49 674.809,2664.57 166.328,2493.2 59.6875,2221.48 41.25,2174.51 33.4375,2123.11 36.457,2068.73 c 0.6914,-12.44 3.5625,-30.93 9.668,-46 C 24.7422,1991.9 10.6719,1959.99 4.32422,1926.96 -19.5,1802.97 54.5273,1685.81 240.496,1568.05 l 0,-439.79 c 0,-271.451 153.574,-479.612 483.32,-655.112 C 989.375,331.82 1378.53,200.75 2066.66,20.8516 l 1.44,-0.3907 c 0.59,-0.1601 81.31,-19.03121 81.31,-19.03121 C 2153.51,0.46875 2157.69,0 2161.87,0 c 4.18,0 8.36,0.46875 12.46,1.42969 l 79.53,18.60151 c 0.57,0.1172 2.82,0.7305 2.82,0.7305 688.49,179.9883 1077.64,311.0583 1343.2,452.3863 329.75,175.512 483.3,383.661 483.3,655.112 l 0,1320.99 c 0,30.21 -24.49,54.71 -54.7,54.71" id="path22" style="fill:#ffffff;fill-opacity:1;fill-rule:nonzero;stroke:none" /><path d="m 3902.77,2449.25 c -6.13,-2.48 -12.54,-4.92 -19.57,-7.25 -0.45,-1.15 -0.92,-2.28 -1.42,-3.39 -22.66,-50.42 -85.17,-58.5 -137.09,-59.9 -11.57,-0.31 -27.95,-0.86 -47.64,-1.51 -10.74,-0.36 -22.46,-0.75 -34.9,-1.16 15.97,-47.36 37.73,-111.01 60.7,-177.84 l 193.01,0 0.02,-1069.94 c 0,-413.951 -487.66,-630.971 -1702.19,-948.498 l -51.82,-12.121 -51.83,12.121 C 895.477,497.289 407.812,714.309 407.812,1128.26 l 0.004,348.04 c -40.746,19.71 -78.195,39.36 -112.601,58.98 l 0,-407.02 C 295.215,879.238 439.57,686.43 749.523,521.469 1011.03,382.27 1396.75,252.551 2080.88,73.6992 l 1.44,-0.3906 79.55,-18.5977 79.53,18.5977 1.44,0.3906 C 2926.93,252.551 3312.66,382.27 3574.18,521.469 c 309.94,164.961 454.3,357.769 454.3,606.791 l 0,1320.99 -125.71,0" id="path24" style="fill:#1d2953;fill-opacity:1;fill-rule:nonzero;stroke:none" /><path d="m 964.535,894.84 c -8.219,-8.211 -19.492,-12.18 -41.73,-12.18 l -71.25,0 c -22.235,0 -33.805,3.969 -42.035,12.18 -12.485,12.199 -23.145,35.629 -23.145,94.398 0,58.802 10.66,82.242 23.145,94.422 8.23,8.22 19.8,12.19 42.035,12.19 l 71.25,0 c 22.238,0 33.511,-3.97 41.73,-12.19 10.649,-10.67 15.828,-29.24 16.449,-72.17 l -61.218,0 c -0.911,26.49 -3.34,30.45 -5.176,32.29 -1.824,1.81 -4.875,2.42 -14.012,2.42 l -27.098,0 c -9.14,0 -12.183,-0.61 -14.019,-2.42 -2.125,-2.14 -5.77,-7.93 -5.77,-54.542 0,-46.886 3.645,-52.379 5.77,-54.496 1.836,-1.82 4.879,-2.441 14.019,-2.441 l 27.098,0 c 9.137,0 12.188,0.621 14.012,2.441 1.836,1.828 4.265,5.778 5.176,33.199 l 61.218,0 C 980.363,924.379 975.5,905.488 964.535,894.84" id="path26" style="fill:#1d2953;fill-opacity:1;fill-rule:nonzero;stroke:none" /><path d="m 1215.8,882.66 -65.47,0 0,82.539 -71.26,0 0,-82.539 -65.48,0 0,213.19 65.48,0 0,-80.1 71.26,0 0,80.1 65.47,0 0,-213.19" id="path28" style="fill:#1d2953;fill-opacity:1;fill-rule:nonzero;stroke:none" /><path d="m 1329.73,974.32 39.89,0 -18.27,62.76 -3.34,0 -18.28,-62.76 z m 52.68,-45.672 -65.47,0 -13.09,-45.988 -65.48,0 64.56,194 c 5.48,16.14 7.91,20.11 22.53,20.11 l 52.38,0 c 14.62,0 17.36,-4.28 22.53,-20.11 l 64.57,-194 -69.13,0 -13.4,45.988" id="path30" style="fill:#1d2953;fill-opacity:1;fill-rule:nonzero;stroke:none" /><path d="m 1741.49,882.66 -61.82,0 0,129.13 -3.04,0 -38.37,-116.95 c -3.05,-9.129 -5.79,-12.18 -13.72,-12.18 l -21.93,0 c -7.91,0 -10.96,3.36 -13.69,12.18 l -38.38,116.95 -3.04,0 0,-129.13 -60,0 0,213.19 81.62,0 c 9.44,0 12.79,-3.05 15.53,-12.49 l 29.54,-96.848 2.74,0 27.71,96.848 c 2.75,9.44 6.11,12.49 15.54,12.49 l 81.31,0 0,-213.19" id="path32" style="fill:#1d2953;fill-opacity:1;fill-rule:nonzero;stroke:none" /><path d="m 1880.08,997.48 c 11.88,0 15.23,0.61 17.06,2.43 3.35,3.05 4.87,7.3 4.87,22.83 0,15.55 -1.82,19.49 -4.87,22.25 -2.13,1.81 -5.18,2.42 -17.06,2.42 l -32.27,0 0,-49.93 32.27,0 z m 70.06,-38.988 c -7.62,-6.703 -20.41,-9.441 -39.59,-9.441 l -62.74,0 0,-66.391 -65.48,0 0,213.19 128.22,0 c 19.18,0 31.97,-2.76 39.59,-9.46 10.34,-9.12 19.48,-23.12 19.48,-63.94 0,-40.821 -9.14,-54.829 -19.48,-63.958" id="path34" style="fill:#1d2953;fill-opacity:1;fill-rule:nonzero;stroke:none" /><path d="m 1997.66,882.66 65.5195,0 0,213.191 -65.5195,0 0,-213.191 z" id="path36" style="fill:#1d2953;fill-opacity:1;fill-rule:nonzero;stroke:none" /><path d="m 2170.39,934.742 c 1.82,-1.82 4.86,-2.441 14,-2.441 l 27.09,0 c 9.15,0 12.19,0.621 14.01,2.441 2.14,2.117 5.8,7.918 5.8,54.496 0,46.612 -3.66,52.402 -5.8,54.542 -1.82,1.81 -4.86,2.42 -14.01,2.42 l -27.09,0 c -9.14,0 -12.18,-0.61 -14,-2.42 -2.14,-2.14 -5.79,-7.93 -5.79,-54.542 0,-46.886 3.65,-52.379 5.79,-54.496 z m 63.05,161.108 c 22.22,0 33.79,-3.97 42.01,-12.19 12.48,-12.18 23.14,-35.62 23.14,-94.422 0,-58.769 -10.66,-82.199 -23.14,-94.398 -8.22,-8.211 -19.79,-12.18 -42.01,-12.18 l -70.98,0 c -22.23,0 -33.81,3.969 -42.02,12.18 -12.49,12.199 -23.16,35.629 -23.16,94.398 0,58.802 10.67,82.242 23.16,94.422 8.21,8.22 19.79,12.19 42.02,12.19 l 70.98,0" id="path38" style="fill:#1d2953;fill-opacity:1;fill-rule:nonzero;stroke:none" /><path d="m 2534.33,882.66 -45.38,0 c -14.01,0 -20.71,3.969 -28.01,15.531 l -65.78,106.289 -1.53,0 0,-121.82 -61.81,0 0,213.19 55.72,0 c 14,0 21.01,-3.97 28.01,-15.55 l 55.45,-93.48 1.52,0 0,109.03 61.81,0 0,-213.19" id="path40" style="fill:#1d2953;fill-opacity:1;fill-rule:nonzero;stroke:none" /><path d="m 2740.54,893.02 c -6.4,-6.391 -16.46,-10.36 -33.51,-10.36 l -88.01,0 c -19.19,0 -30.15,2.449 -37.75,10.059 -8.86,8.82 -13.11,24.363 -13.11,61.82 l 59.98,0 c 0.63,-15.84 1.83,-20.098 3.36,-21.617 1.82,-1.84 5.48,-2.453 14.32,-2.453 l 30.76,0 c 8.83,0 14,0.613 15.53,2.152 1.81,1.82 2.74,6.078 2.74,13.699 0,6.09 -0.93,10.352 -2.74,12.172 -1.53,1.528 -7.31,2.738 -15.83,3.668 l -63.05,7.289 c -13.4,1.531 -22.24,4.871 -28.92,11.59 -8.24,8.199 -13.72,21.001 -13.72,50.551 0,27.1 6.69,44.15 16.44,53.9 6.41,6.39 16.76,10.36 32.9,10.36 l 81.92,0 c 19.79,0 31.06,-3.05 37.78,-9.75 9.12,-9.14 14,-22.54 14.29,-59.39 l -60,0 c -0.6,13.4 -1.52,17.07 -3.34,18.88 -1.83,1.82 -4.88,2.45 -12.78,2.45 l -30.45,0 c -7.33,0 -10.98,-0.32 -12.18,-1.53 -1.53,-1.52 -2.46,-5.49 -2.46,-12.49 0,-6.71 0.93,-10.36 2.75,-12.18 1.52,-1.52 5.48,-2.14 15.85,-3.36 l 63.64,-7.3 c 14.62,-1.83 22.23,-5.18 28.62,-11.559 8.23,-8.23 13.4,-21.633 13.4,-50.269 0,-29.231 -6.7,-46.59 -16.43,-56.332" id="path42" style="fill:#1d2953;fill-opacity:1;fill-rule:nonzero;stroke:none" /><path d="m 2993.03,882.66 -65.48,0 0,82.539 -71.27,0 0,-82.539 -65.48,0 0,213.19 65.48,0 0,-80.1 71.27,0 0,80.1 65.48,0 0,-213.19" id="path44" style="fill:#1d2953;fill-opacity:1;fill-rule:nonzero;stroke:none" /><path d="m 3034.75,882.66 65.4805,0 0,213.191 -65.4805,0 0,-213.191 z" id="path46" style="fill:#1d2953;fill-opacity:1;fill-rule:nonzero;stroke:none" /><path d="m 3239.73,997.48 c 11.87,0 15.23,0.61 17.05,2.43 3.34,3.05 4.88,7.3 4.88,22.83 0,15.55 -1.84,19.49 -4.88,22.25 -2.13,1.81 -5.18,2.42 -17.05,2.42 l -32.29,0 0,-49.93 32.29,0 z m 70.04,-38.988 c -7.6,-6.703 -20.39,-9.441 -39.6,-9.441 l -62.73,0 0,-66.391 -65.47,0 0,213.19 128.2,0 c 19.21,0 32,-2.76 39.6,-9.46 10.36,-9.12 19.51,-23.12 19.51,-63.94 0,-40.821 -9.15,-54.829 -19.51,-63.958" id="path48" style="fill:#1d2953;fill-opacity:1;fill-rule:nonzero;stroke:none" /><path d="m 3521.76,893.02 c -6.4,-6.391 -16.46,-10.36 -33.51,-10.36 l -88,0 c -19.19,0 -30.17,2.449 -37.76,10.059 -8.84,8.82 -13.1,24.363 -13.1,61.82 l 59.98,0 c 0.62,-15.84 1.82,-20.098 3.36,-21.617 1.82,-1.84 5.47,-2.453 14.31,-2.453 l 30.76,0 c 8.84,0 14,0.613 15.54,2.152 1.82,1.82 2.73,6.078 2.73,13.699 0,6.09 -0.91,10.352 -2.73,12.172 -1.54,1.528 -7.32,2.738 -15.85,3.668 l -63.04,7.289 c -13.39,1.531 -22.22,4.871 -28.94,11.59 -8.22,8.199 -13.69,21.001 -13.69,50.551 0,27.1 6.69,44.15 16.44,53.9 6.41,6.39 16.76,10.36 32.89,10.36 l 81.93,0 c 19.79,0 31.06,-3.05 37.76,-9.75 9.14,-9.14 14,-22.54 14.32,-59.39 l -60,0 c -0.62,13.4 -1.53,17.07 -3.36,18.88 -1.82,1.82 -4.87,2.45 -12.8,2.45 l -30.44,0 c -7.31,0 -10.96,-0.32 -12.17,-1.53 -1.53,-1.52 -2.45,-5.49 -2.45,-12.49 0,-6.71 0.92,-10.36 2.75,-12.18 1.51,-1.52 5.49,-2.14 15.83,-3.36 l 63.65,-7.3 c 14.61,-1.83 22.23,-5.18 28.61,-11.559 8.25,-8.23 13.42,-21.633 13.42,-50.269 0,-29.231 -6.7,-46.59 -16.44,-56.332" id="path50" style="fill:#1d2953;fill-opacity:1;fill-rule:nonzero;stroke:none" /><path d="m 818.438,1349.08 64.289,0 -3.95,102.86 -5.437,0 -54.902,-102.86 z m 112.757,198.82 c 32.645,0 35.614,-9.42 38.575,-44.51 l 24.242,-303.19 -105.848,0 -3.449,74.68 -104.36,0 -39.066,-74.68 -112.277,0 181.519,315.04 c 15.809,26.23 21.266,32.66 44.996,32.66 l 75.668,0" id="path52" style="fill:#c7193c;fill-opacity:1;fill-rule:nonzero;stroke:none" /><path d="m 1318.93,1200.2 -279.92,0 86.05,346.21 279.93,0 -19.78,-79.64 -173.6,0 -13.36,-53.9 125.64,0 -18.8,-73.7 -125.13,0 -14.84,-59.34 173.61,0 -19.8,-79.63" id="path54" style="fill:#c7193c;fill-opacity:1;fill-rule:nonzero;stroke:none" /><path d="m 1552.87,1467.77 -18.32,-74.18 54.41,0 c 19.3,0 26.21,0.99 31.17,5.92 3.95,3.95 8.89,11.38 13.34,29.69 4.45,18.78 3.47,28.68 -1.48,33.62 -3.46,3.47 -8.91,4.95 -30.66,4.95 l -48.46,0 z m 137.97,-267.57 -108.3,0 c 1.98,21.27 5.94,43.52 11.36,69.75 6.43,28.18 3.47,37.09 -1.97,42.52 -4.46,4.45 -10.88,6.44 -33.13,6.44 l -43.04,0 -29.17,-118.71 -106.34,0 86.06,346.21 201.78,0 c 37.09,0 60.34,-6.44 73.2,-22.75 13.35,-17.81 15.33,-44.51 4.46,-86.56 -14.35,-55.88 -38.58,-73.2 -78.16,-80.62 l 0,-0.99 c 34.64,-10.37 47.99,-25.21 37.11,-77.14 -6.44,-30.18 -11.39,-59.36 -13.86,-78.15" id="path56" style="fill:#c7193c;fill-opacity:1;fill-rule:nonzero;stroke:none" /><path d="m 1889.17,1284.77 c 2.96,-2.95 7.41,-4.45 25.7,-4.45 l 33.15,0 c 15.33,0 20.77,1 24.72,4.95 3.95,3.97 12.86,12.37 31.66,88.04 17.81,72.69 13.36,85.06 9.89,88.52 -2.97,2.97 -7.43,4.46 -25.71,4.46 l -33.15,0 c -15.32,0 -20.77,-0.99 -24.73,-4.95 -3.95,-3.96 -12.86,-12.37 -31.65,-88.03 -18.29,-72.72 -13.35,-85.07 -9.88,-88.54 z m -14.84,-84.57 c -44.01,0 -61.83,8.42 -71.71,18.3 -22.75,22.76 -32.16,70.24 -9.41,165.69 20.78,86.55 46.99,118.2 62.32,133.53 23.25,23.24 46.98,28.69 83.09,28.69 l 90.51,0 c 44.05,0 61.87,-8.42 71.73,-18.3 22.77,-22.77 32.16,-70.23 9.41,-165.69 -20.76,-86.53 -46.98,-118.19 -62.35,-133.55 -23.24,-23.22 -46.98,-28.67 -83.09,-28.67 l -90.5,0" id="path58" style="fill:#c7193c;fill-opacity:1;fill-rule:nonzero;stroke:none" /><path d="m 2307.6,1469.73 -14.85,-59.33 71.72,0 c 7.92,0 11.88,0.49 15.82,4.45 3.48,3.46 7.93,8.89 11.38,25.22 3.47,14.84 2.49,22.26 -0.99,25.72 -1.98,1.98 -4.93,3.94 -15.34,3.94 l -67.74,0 z m -31.16,-126.59 -16.82,-66.28 73.7,0 c 8.4,0 14.34,1.98 18.29,5.94 3.47,3.46 6.44,8.41 11.38,27.21 3.46,13.83 3.94,24.23 -0.49,28.68 -2.48,2.47 -6.44,4.45 -17.81,4.45 l -68.25,0 z m -141.94,-142.94 86.07,346.21 205.24,0 c 37.57,0 52.41,-6.44 62.8,-16.81 17.33,-17.31 20.28,-43.03 13.85,-73.21 -10.39,-47.98 -37.6,-70.72 -77.66,-80.11 l 0,-1 c 36.12,-11.38 55.9,-34.12 40.57,-89.51 -7.91,-29.18 -18.8,-45.02 -32.66,-58.85 -21.25,-21.27 -46.96,-26.72 -75.16,-26.72 l -223.05,0" id="path60" style="fill:#c7193c;fill-opacity:1;fill-rule:nonzero;stroke:none" /><path d="m 2664.67,1349.08 64.29,0 -3.96,102.86 -5.43,0 -54.9,-102.86 z m 112.75,198.82 c 32.64,0 35.61,-9.42 38.59,-44.51 l 24.22,-303.19 -105.84,0 -3.45,74.68 -104.37,0 -39.05,-74.68 -112.29,0 181.51,315.04 c 15.83,26.23 21.29,32.66 45.02,32.66 l 75.66,0" id="path62" style="fill:#c7193c;fill-opacity:1;fill-rule:nonzero;stroke:none" /><path d="m 3075.16,1465.79 -65.79,-265.59 -106.33,0 65.79,265.59 -99.91,0 20.28,80.62 308.59,0 -20.25,-80.62 -102.38,0" id="path64" style="fill:#c7193c;fill-opacity:1;fill-rule:nonzero;stroke:none" /><path d="m 3149.33,1200.2 86.06,346.21 106.32,0 -86.07,-346.21 -106.31,0" id="path66" style="fill:#c7193c;fill-opacity:1;fill-rule:nonzero;stroke:none" /><path d="m 3586.03,1409.42 c 7.91,41.04 4.95,49.44 1.98,52.41 -2.95,2.97 -7.43,4.46 -25.73,4.46 l -33.14,0 c -15.31,0 -20.76,-0.99 -24.71,-4.95 -3.95,-3.96 -12.86,-12.37 -31.66,-88.03 -18.29,-72.72 -13.36,-85.07 -9.88,-88.54 2.95,-2.95 7.42,-4.45 25.7,-4.45 l 33.15,0 c 15.33,0 20.76,1 24.72,4.95 3.45,3.47 9.4,9.39 22.27,53.42 l 99.39,0 c -17.79,-68.74 -32.63,-95.95 -46.48,-109.82 -23.24,-23.22 -46.97,-28.67 -83.09,-28.67 l -90.5,0 c -44.02,0 -61.83,8.42 -71.72,18.3 -22.77,22.76 -32.13,70.24 -9.41,165.69 20.78,86.55 47,118.2 62.33,133.53 23.25,23.24 46.98,28.69 83.09,28.69 l 90.51,0 c 44,0 61.82,-8.42 71.71,-18.3 18.8,-18.79 21.26,-53.92 9.4,-118.69 l -97.93,0" id="path68" style="fill:#c7193c;fill-opacity:1;fill-rule:nonzero;stroke:none" /><path d="m 731.609,1362.51 c -214.14,175.95 -348.179,347.08 -414.89,483.87 -9.629,-13.22 -14.992,-25.33 -17.684,-35.91 -23.23,-94.9 95.684,-244.19 432.574,-447.96" id="path70" style="fill:#1d2953;fill-opacity:1;fill-rule:nonzero;stroke:none" /><path d="m 1058.99,1759.16 c 0,-55.75 -7.19,-72.65 -20.87,-86.3 -11.5,-11.52 -25.88,-14.75 -58.257,-14.75 l -72.293,0 c -32.355,0 -46.738,3.23 -58.261,14.75 -13.657,13.65 -20.852,30.55 -20.852,86.3 l 0,150.69 77.316,0 0,-150.33 c 0,-23.36 1.797,-29.84 5.047,-33.08 2.875,-2.89 8.625,-3.96 20.852,-3.96 l 24.109,0 c 12.227,0 17.977,1.07 20.852,3.96 3.23,3.24 5.031,9.72 5.031,33.08 l 0,150.33 77.326,0 0,-150.69" id="path72" style="fill:#1d2953;fill-opacity:1;fill-rule:nonzero;stroke:none" /><path d="m 1088.11,1658.11 66.5391,0 0,66.5312 -66.5391,0 0,-66.5312 z" id="path74" style="fill:#1d2953;fill-opacity:1;fill-rule:nonzero;stroke:none" /><path d="m 1386.26,1670.34 c -7.56,-7.56 -19.42,-12.23 -39.56,-12.23 l -103.94,0 c -22.65,0 -35.6,2.87 -44.6,11.88 -10.43,10.41 -15.46,28.75 -15.46,72.99 l 70.85,0 c 0.72,-18.7 2.17,-23.73 3.96,-25.53 2.16,-2.17 6.46,-2.89 16.89,-2.89 l 36.33,0 c 10.43,0 16.54,0.72 18.33,2.53 2.16,2.16 3.25,7.19 3.25,16.18 0,7.2 -1.09,12.23 -3.25,14.39 -1.79,1.8 -8.63,3.24 -18.69,4.31 l -74.45,8.63 c -15.81,1.8 -26.24,5.75 -34.16,13.67 -9.72,9.72 -16.18,24.82 -16.18,59.7 0,32 7.9,52.15 19.41,63.65 7.57,7.56 19.78,12.23 38.85,12.23 l 96.74,0 c 23.38,0 36.68,-3.6 44.59,-11.51 10.8,-10.78 16.55,-26.6 16.9,-70.12 l -70.85,0 c -0.71,15.82 -1.79,20.13 -3.95,22.3 -2.16,2.15 -5.75,2.87 -15.09,2.87 l -35.98,0 c -8.63,0 -12.93,-0.37 -14.38,-1.8 -1.8,-1.8 -2.88,-6.48 -2.88,-14.74 0,-7.92 1.08,-12.23 3.24,-14.39 1.79,-1.8 6.48,-2.52 18.69,-3.96 l 75.18,-8.63 c 17.25,-2.16 26.24,-6.11 33.8,-13.67 9.72,-9.7 15.82,-25.53 15.82,-59.33 0,-34.53 -7.9,-55.03 -19.41,-66.53" id="path76" style="fill:#1d2953;fill-opacity:1;fill-rule:nonzero;stroke:none" /><path d="m 1433.72,1658.11 66.5508,0 0,66.5312 -66.5508,0 0,-66.5312 z" id="path78" style="fill:#1d2953;fill-opacity:1;fill-rule:nonzero;stroke:none" /><path d="m 1832.56,1658.11 -53.59,0 c -16.54,0 -24.45,4.67 -33.08,18.32 l -77.69,125.53 -1.79,0 0,-143.85 -73.01,0 0,251.74 65.81,0 c 16.55,0 24.82,-4.67 33.1,-18.34 l 65.44,-110.4 1.8,0 0,128.74 73.01,0 0,-251.74" id="path80" style="fill:#1d2953;fill-opacity:1;fill-rule:nonzero;stroke:none" /><path d="m 1967.06,1766.35 47.11,0 -21.57,74.1 -3.96,0 -21.58,-74.1 z m 62.23,-53.94 -77.33,0 -15.46,-54.3 -77.33,0 76.25,229.09 c 6.46,19.05 9.34,23.73 26.61,23.73 l 61.87,0 c 17.25,0 20.47,-5.03 26.6,-23.73 l 76.28,-229.09 -81.67,0 -15.82,54.3" id="path82" style="fill:#1d2953;fill-opacity:1;fill-rule:nonzero;stroke:none" /><path d="m 2259.49,1850.87 0,-192.76 -77.32,0 0,192.76 -73.73,0 0,58.98 226.56,0 0,-58.98 -75.51,0" id="path84" style="fill:#1d2953;fill-opacity:1;fill-rule:nonzero;stroke:none" /><path d="m 2364.51,1658.11 77.3203,0 0,251.742 -77.3203,0 0,-251.742 z" id="path86" style="fill:#1d2953;fill-opacity:1;fill-rule:nonzero;stroke:none" /><path d="m 2568.42,1719.6 c 2.16,-2.15 5.74,-2.87 16.54,-2.87 l 32,0 c 10.78,0 14.39,0.72 16.55,2.87 2.5,2.53 6.83,9.35 6.83,64.39 0,55.01 -4.33,61.85 -6.83,64.36 -2.16,2.17 -5.77,2.88 -16.55,2.88 l -32,0 c -10.8,0 -14.38,-0.71 -16.54,-2.88 -2.52,-2.51 -6.84,-9.35 -6.84,-64.36 0,-55.39 4.32,-61.86 6.84,-64.39 z m 74.45,190.25 c 26.23,0 39.9,-4.67 49.63,-14.38 14.73,-14.39 27.32,-42.08 27.32,-111.48 0,-69.43 -12.59,-97.13 -27.32,-111.5 -9.73,-9.71 -23.4,-14.38 -49.63,-14.38 l -83.82,0 c -26.26,0 -39.91,4.67 -49.62,14.38 -14.74,14.37 -27.32,42.07 -27.32,111.5 0,69.4 12.58,97.09 27.32,111.48 9.71,9.71 23.36,14.38 49.62,14.38 l 83.82,0" id="path88" style="fill:#1d2953;fill-opacity:1;fill-rule:nonzero;stroke:none" /><path d="m 2998.18,1658.11 -53.58,0 c -16.55,0 -24.45,4.67 -33.1,18.32 l -77.67,125.53 -1.8,0 0,-143.85 -73.01,0 0,251.74 65.8,0 c 16.57,0 24.84,-4.67 33.09,-18.34 l 65.47,-110.4 1.79,0 0,128.74 73.01,0 0,-251.74" id="path90" style="fill:#1d2953;fill-opacity:1;fill-rule:nonzero;stroke:none" /><path d="m 3132.69,1766.35 47.11,0 -21.58,74.1 -3.97,0 -21.56,-74.1 z m 62.21,-53.94 -77.31,0 -15.48,-54.3 -77.32,0 76.24,229.09 c 6.48,19.05 9.36,23.73 26.63,23.73 l 61.84,0 c 17.28,0 20.5,-5.03 26.63,-23.73 l 76.24,-229.09 -81.64,0 -15.83,54.3" id="path92" style="fill:#1d2953;fill-opacity:1;fill-rule:nonzero;stroke:none" /><path d="m 3396.31,1716 117.23,0 0,-57.89 -194.56,0 0,251.74 77.33,0 0,-193.85" id="path94" style="fill:#1d2953;fill-opacity:1;fill-rule:nonzero;stroke:none" /><path d="m 3203.81,2354.66 c -12.87,-1.27 -25.92,-1.91 -39.05,-1.91 -91.68,0 -168.45,30.91 -209.7,47.52 -5.33,2.15 -10.09,4.06 -14.17,5.61 -35.72,13.73 -164.34,63.05 -231.88,88.96 -6.06,0.09 -12.14,0.18 -18.22,0.25 L 2558.91,2376.5 c -8.87,-7.98 -20.27,-12.59 -32.19,-13.03 0,0 -2.4,-0.07 -3.01,-0.07 -6.27,0 -12.49,1.15 -18.38,3.42 l -102.23,39.46 c -13.53,5.24 -24.19,15.98 -29.31,29.54 -5.15,13.57 -4.26,28.68 2.44,41.55 l 8.32,15.99 C 956.152,2460.43 -983.523,2086.92 720.891,1360.89 c -359.485,214.65 -495.461,337.3 -465.942,457.85 77.778,306.55 1423.721,415.69 2426.471,401.81 5.66,-0.07 429.2,-3.92 612.56,-5.6 l -90.17,139.71" id="path96" style="fill:#c7193c;fill-opacity:1;fill-rule:nonzero;stroke:none" /><path d="m 2531.39,2665.24 596.23,18.61 -220.39,693.33 189,5.89 385.69,-688.19 c 0,0 157.53,5 170.99,5.36 49.09,1.3 102.67,-40.93 134.35,-79.7 61.22,-16.29 139.85,-63.38 140.98,-84.98 1.09,-18.36 -51.89,-40.51 -94.73,-50.76 0.71,-10.84 0.3,-19.44 -1.63,-23.72 -6.53,-14.53 -29.6,-26.07 -88.67,-27.67 -29.36,-0.79 -89.7,-3.09 -156.08,-4.86 26.81,-85.28 207.31,-605.19 207.31,-605.19 l -183.36,-5.76 -382.16,592.16 c -121.37,-23.43 -227.92,27.83 -269.94,43.78 -48.92,18.8 -273.82,105.03 -273.82,105.03 l -160.34,-144.16 -1.11,-0.04 -102.25,39.47 109.93,211.4" id="path98" style="fill:#1d2953;fill-opacity:1;fill-rule:evenodd;stroke:none" /><path d="m 2486.17,2688.76 c 8.52,16.35 25.2,26.86 43.63,27.42 l 528.81,16.53 -55.29,173.92 c -81.67,-0.25 -204.19,-0.6 -213.15,-0.77 C 1674.04,2885.4 279.359,2631.42 110.625,2201.5 95.0625,2161.84 88.5156,2118.2 91.0938,2071.76 267.957,2265.52 863.73,2566.79 2455.87,2630.47 l 30.3,58.29" id="path100" style="fill:#1d2953;fill-opacity:1;fill-rule:nonzero;stroke:none" /><path d="m 2831.63,54.8086 -10.93,0 0,55.3634 -0.33,0 -21.74,-55.3634 -6.91,0 -21.73,55.3634 -0.33,0 0,-55.3634 -10.94,0 0,66.3204 16.9,0 19.8,-50.379 19.47,50.379 16.74,0 0,-66.3204 z m -86.44,57.4614 -20.76,0 0,-57.4614 -10.93,0 0,57.4614 -20.79,0 0,8.859 52.48,0 0,-8.859" id="path102" style="fill:#1d2953;fill-opacity:1;fill-rule:nonzero;stroke:none" /><path d="m 2599.57,645.43 c 0.08,2.3 -0.07,4.109 -0.5,5.011 -1.48,3.02 -6.42,5.301 -18.91,5.258 -6.2,-0.039 -18.97,0.051 -33,0 5.1,18.18 39.79,128.903 39.79,128.903 l -38.76,0 -76.79,-127.301 c -25.79,4.14 -47.96,-7.379 -56.72,-11.031 -10.21,-4.29 -57.14,-23.981 -57.14,-23.981 l -34.81,29.383 -0.22,-0.012 -21.34,-9 24.61,-43.91 126.03,0 -44.93,-147.871 42.92,0 76.91,147.871 c 0,0 33.3,-0.012 36.14,0 10.37,0.039 21.41,9.32 27.86,17.719 12.8,3.84 29.1,14.301 29.2,18.871 0.11,3.89 -11.23,8.199 -20.34,10.09" id="path104" style="fill:#1d2953;fill-opacity:1;fill-rule:nonzero;stroke:none" /><path d="m 1808.52,784.602 -101.42,-333.704 84.36,0 101.42,333.704 -84.36,0" id="path106" style="fill:#c7193c;fill-opacity:1;fill-rule:nonzero;stroke:none" /><path d="m 1955.12,565.27 71.53,131.57 1.7,0 -5.96,-107.098 C 1998.57,583 1976,574.879 1955.12,565.27 z m 340.78,-18.59 c -6.3,-11.239 -13.7,-19.27 -22.62,-24.539 -7.24,-4.289 -14.84,-6.461 -22.58,-6.461 -4.4,0 -8.89,0.711 -13.32,2.109 -13.06,4.133 -19.92,15.121 -19.34,30.949 0.58,15.231 4.42,30.25 8.17,44.91 0.19,0.723 0.38,1.454 0.57,2.172 26.84,2.469 53.99,3.7 81.08,3.7 l -8.92,15.601 c -21.95,1.211 -44.19,1.758 -66.44,1.59 1.62,5.668 3.38,11.617 5.31,18.019 5.16,17.02 11,36.301 20.18,54.09 10.03,19.481 26.62,30.66 45.51,30.66 1.59,0 3.19,-0.082 4.83,-0.23 9.61,-0.961 16.15,-4.32 20.59,-10.578 3.48,-4.922 5.29,-10.871 5.71,-18.75 0.11,-2.07 0.13,-4.16 0.16,-6.274 l 0.01,-0.378 -0.1,-3.438 81.7,0.059 c 0.03,0.257 0.05,0.488 0.06,0.629 1.12,20.812 -1.46,38.55 -7.9,54.242 -5.83,14.168 -14.6,25.937 -26.06,34.968 -13.89,10.969 -30.62,17.559 -51.13,20.141 -6.94,0.879 -13.92,1.32 -20.75,1.32 -12.81,0 -25.45,-1.55 -37.59,-4.582 -20.68,-5.168 -39.14,-14.711 -54.88,-28.347 -15.75,-13.672 -28.31,-30.723 -38.41,-52.114 -9.52,-20.179 -15.99,-40.839 -22.34,-61.976 -3.18,-10.621 -6.28,-21.16 -9.14,-31.703 -15.91,-1.52 -31.65,-3.438 -47.13,-5.828 l 3.13,177.961 -103.18,0 -196.42,-333.704 88.23,0 -0.01,-0.019 c 0.01,0.012 0.02,0.012 0.02,0.019 l 0.03,0 0.06,0.102 c 31.53,39.691 75.47,70.699 126.91,93.91 l -5.23,-94.012 83.73,0 2.15,122.641 c 13.27,3.609 26.8,6.859 40.55,9.691 -1.93,-8.96 -3.61,-17.96 -4.86,-27.039 -1.8,-13.121 -1.57,-24.82 0.7,-35.761 7.28,-35.141 28.71,-58.789 63.7,-70.328 10.79,-3.543 22.45,-5.59 34.65,-6.071 1.87,-0.07 3.77,-0.109 5.69,-0.109 5.61,0 11.39,0.308 17.18,0.91 17.33,1.797 33.8,6.738 48.96,14.68 14.99,7.847 28.65,18.629 40.61,32.027 10.22,11.473 19.03,24.441 26.93,39.66 1.85,3.571 3.56,7.223 5.46,11.27 0.87,1.84 1.75,3.722 2.63,5.551 l 1.93,4.312 -85.49,0 -3.29,-5.652" id="path108" style="fill:#c7193c;fill-opacity:1;fill-rule:nonzero;stroke:none" /><path d="m 2530.22,450.43 -3.39,0 0,17.172 -0.1,0 -6.74,-17.172 -2.15,0 -6.74,17.172 -0.1,0 0,-17.172 -3.39,0 0,20.562 5.24,0 6.14,-15.621 6.04,15.621 5.19,0 0,-20.562 z m -26.81,17.82 -6.43,0 0,-17.82 -3.4,0 0,17.82 -6.44,0 0,2.742 16.27,0 0,-2.742" id="path110" style="fill:#1d2953;fill-opacity:1;fill-rule:nonzero;stroke:none" /></g></g></g></g></svg>
