<?xml version="1.0" encoding="UTF-8" standalone="no"?>
<!-- Created with Inkscape (http://www.inkscape.org/) -->

<svg
   xmlns:dc="http://purl.org/dc/elements/1.1/"
   xmlns:cc="http://creativecommons.org/ns#"
   xmlns:rdf="http://www.w3.org/1999/02/22-rdf-syntax-ns#"
   xmlns:svg="http://www.w3.org/2000/svg"
   xmlns="http://www.w3.org/2000/svg"
   version="1.1"
   width="1200"
   height="1200"
   id="svg3254">
  <metadata
     id="metadata3260">
    <rdf:RDF>
      <cc:Work
         rdf:about="">
        <dc:format>image/svg+xml</dc:format>
        <dc:type
           rdf:resource="http://purl.org/dc/dcmitype/StillImage" />
        <dc:title></dc:title>
      </cc:Work>
    </rdf:RDF>
  </metadata>
  <defs
     id="defs3258" />
  <path
     d="m 497.1789,1017.8155 c -0.38189,-0.3819 -0.69434,-1.7443 -0.69434,-3.0277 0,-1.2833 -0.42243,-2.3333 -0.93873,-2.3333 -0.5163,0 -1.24239,-2.025 -1.61354,-4.5 -0.37115,-2.475 -1.03417,-4.5 -1.47338,-4.5 -0.4392,0 -1.11822,-1.9125 -1.50892,-4.24995 -0.3907,-2.3375 -0.99275,-4.475 -1.3379,-4.75 -0.34514,-0.275 -1.73655,-3.875 -3.09202,-8 -1.35547,-4.125 -2.76601,-7.95 -3.13453,-8.5 -0.36852,-0.55 -0.99896,-2.575 -1.40098,-4.5 -0.40202,-1.925 -1.07702,-3.95 -1.5,-4.5 -0.42298,-0.55 -1.09798,-2.575 -1.5,-4.5 -0.40202,-1.925 -1.07702,-3.95 -1.5,-4.5 -0.42298,-0.55 -1.10352,-2.575 -1.5123,-4.5 -0.40879,-1.925 -1.36075,-4.38763 -2.11547,-5.47251 -0.75473,-1.08487 -1.37223,-2.90737 -1.37223,-4.05 0,-1.14262 -0.54,-2.61749 -1.2,-3.27749 -2.52184,-2.52184 0.7921,-3.26589 13.28213,-2.98213 12.41509,0.28207 12.41794,0.28269 12.70947,2.78213 0.16038,1.375 0.69664,3.4 1.19168,4.5 0.49505,1.1 1.34207,4.025 1.88228,6.5 0.5402,2.475 1.73866,6.975 2.66323,10 0.92458,3.025 2.19804,7.75 2.82992,10.5 0.63188,2.75 1.45768,5.47585 1.8351,6.05745 0.37742,0.5816 0.99619,3.3941 1.37504,6.25 1.13144,8.52925 1.9677,7.20045 5.54279,-8.80745 0.55274,-2.475 1.40324,-5.4 1.88999,-6.5 0.48675,-1.1 1.17506,-3.9125 1.52958,-6.25 0.35452,-2.3375 0.95826,-4.25 1.34163,-4.25 0.38337,0 1.20787,-2.3625 1.83221,-5.25 0.62434,-2.8875 1.68075,-7.6125 2.34757,-10.5 l 1.2124,-5.25 12.86749,0 c 12.20082,0 12.86749,0.10362 12.86749,2 0,1.1 -0.39891,2 -0.88646,2 -0.48755,0 -1.19012,2.025 -1.56127,4.5 -0.37115,2.475 -1.04615,4.5 -1.5,4.5 -0.45385,0 -1.12885,2.025 -1.5,4.5 -0.37115,2.475 -1.09724,4.5 -1.61354,4.5 -0.5163,0 -0.93873,1.02487 -0.93873,2.27749 0,1.25263 -0.6175,3.16513 -1.37223,4.25 -0.75472,1.08488 -1.70668,3.54751 -2.11547,5.47251 -0.40878,1.925 -1.08932,3.95 -1.5123,4.5 -0.42298,0.55 -1.09798,2.575 -1.5,4.5 -0.40202,1.925 -1.07702,3.95 -1.5,4.5 -0.42298,0.55 -1.09798,2.575 -1.5,4.5 -0.40202,1.925 -1.07702,3.95 -1.5,4.5 -0.42298,0.55 -1.08177,2.4625 -1.46398,4.24995 -0.38221,1.7875 -1.05808,3.25 -1.50193,3.25 -0.44385,0 -1.11067,2.025 -1.48182,4.5 -0.37115,2.475 -1.06735,4.5 -1.54712,4.5 -0.47977,0 -1.0147,1.2375 -1.18873,2.75 l -0.31642,2.75 -13.05566,0.2777 c -7.18062,0.1527 -13.36812,-0.035 -13.75,-0.4167 z m 60.30566,-38.86095 0,-39.5 12,0 12,0 0,39.5 0,39.49995 -12,0 -12,0 0,-39.49995 z m 39,0 0,-39.5 11.75,0.0153 c 6.4625,0.008 12.25185,0.34592 12.86522,0.75 0.61337,0.40408 1.43119,1.74719 1.81739,2.98469 0.38619,1.2375 1.08609,2.25 1.55532,2.25 0.46924,0 1.14967,1.35 1.51207,3 0.3624,1.65 1.04159,3 1.5093,3 0.46772,0 1.89446,2.1375 3.17055,4.75 1.27608,2.6125 2.88265,5.34464 3.57015,6.07143 0.6875,0.72678 1.25,1.96428 1.25,2.75 0,0.78571 0.41425,1.42857 0.92054,1.42857 0.5063,0 1.21706,1.35 1.57946,3 0.3624,1.65 1.04496,3 1.51679,3 0.47184,0 2.34858,3.02924 4.17055,6.73163 l 3.31266,6.73164 0.26843,-23.23164 0.26843,-23.23163 11.98157,0 11.98157,0 0,39.5 0,39.49996 -11.77776,0 c -12.81423,0 -14.33698,-0.6247 -15.80775,-6.4847 -0.34722,-1.3834 -1.00095,-2.5153 -1.45274,-2.5153 -0.4518,0 -1.86551,-2.1375 -3.1416,-4.75 -1.27608,-2.6125 -2.88265,-5.34456 -3.57015,-6.07136 -0.6875,-0.7268 -1.25,-1.9643 -1.25,-2.75 0,-0.7857 -0.34329,-1.4286 -0.76287,-1.4286 -0.41958,0 -1.20708,-0.8475 -1.75,-1.88334 -0.54292,-1.03584 -2.29765,-4.41084 -3.89939,-7.5 -1.60175,-3.08915 -3.25349,-5.61665 -3.67055,-5.61665 -0.41705,0 -1.05479,-1.35 -1.41719,-3 -1.69583,-7.72105 -2.5,-1.44849 -2.5,19.5 l 0,22.49995 -12,0 -12,0 0,-39.49995 z m 89.77256,-3.6e-4 -0.27256,-39.50035 12.25,3.5e-4 12.25,3.6e-4 0,14.62244 c 0,12.88435 0.1783,14.47448 1.5,13.37756 0.825,-0.68469 1.5,-1.6744 1.5,-2.19937 0,-0.52496 1.35,-2.30448 3,-3.95448 1.65,-1.65 3,-3.32473 3,-3.72163 0,-0.3969 1.8,-2.59489 4,-4.88444 2.2,-2.28954 4,-4.45813 4,-4.81909 0,-0.36096 1.76002,-2.4163 3.91115,-4.56744 l 3.91115,-3.91115 13.83274,0.2788 13.83274,0.2788 -4.24389,4.37058 c -2.33414,2.40382 -4.24389,4.65953 -4.24389,5.01269 0,0.35315 -2.7,3.40987 -6,6.79271 -3.3,3.38284 -6,6.46729 -6,6.85434 0,0.38705 -1.8,2.45056 -4,4.58559 -3.91272,3.79716 -4.98349,5.88409 -3.01905,5.88409 0.53952,0 1.25513,1.09244 1.59025,2.42764 0.33511,1.33521 1.24368,2.67108 2.01905,2.96862 0.77536,0.29753 1.40975,1.23009 1.40975,2.07236 0,0.84226 0.44143,1.53138 0.98095,1.53138 0.53952,0 1.25513,1.09244 1.59025,2.42764 0.33511,1.33521 1.24368,2.67108 2.01905,2.96862 0.77536,0.29753 1.40975,1.23009 1.40975,2.07236 0,0.84226 0.44143,1.53138 0.98095,1.53138 0.53952,0 1.25513,1.09244 1.59025,2.4276 0.33511,1.3352 1.24368,2.6711 2.01905,2.9687 0.77536,0.2975 1.40975,1.2301 1.40975,2.0723 0,0.8423 0.44143,1.53135 0.98095,1.53135 0.53952,0 1.25513,1.0924 1.59025,2.4276 0.33511,1.3352 1.24368,2.6711 2.01905,2.9687 0.77536,0.2975 1.40975,1.2301 1.40975,2.0723 0,0.8423 0.44143,1.5314 0.98095,1.5314 0.53952,0 1.25513,1.0924 1.59025,2.4276 0.33511,1.3352 1.24368,2.6711 2.01905,2.9687 0.77536,0.2975 1.40975,1.2424 1.40975,2.0998 0,1.3517 -1.8888,1.5219 -14.21319,1.2814 l -14.21318,-0.2775 -1.53682,-2.9643 c -0.84524,-1.6304 -2.09931,-3.575 -2.78681,-4.3214 -0.6875,-0.7465 -1.25,-2 -1.25,-2.7857 0,-0.7857 -0.34329,-1.4286 -0.76287,-1.4286 -0.75531,0 -1.33691,-0.9053 -4.22547,-6.57735 -0.81858,-1.6074 -2.05608,-3.5172 -2.75,-4.244 -0.69391,-0.7268 -1.26166,-1.9643 -1.26166,-2.75003 0,-0.78571 -0.45,-1.42857 -1,-1.42857 -0.55,0 -1,-0.675 -1,-1.5 0,-2.38658 -1.66667,-1.76666 -5.46667,2.03333 l -3.53333,3.53337 0,11.46655 0,11.4667 -11.97744,0 -11.97744,0 -0.27256,-39.50031 z M 1101.5471,606.06394 c -4.2935,-1.38566 -13.8746,-10.01259 -14.6789,-13.21701 -0.3302,-1.31581 -0.9165,-2.39238 -1.3028,-2.39238 -0.6587,0 -2.4184,-5.57701 -5.0482,-16 -3.3499,-13.27734 -2.8555,-44.50833 0.7995,-50.5 0.3355,-0.55 0.738,-1.8221 0.8944,-2.82689 0.1564,-1.00479 0.957,-2.49943 1.779,-3.32143 0.822,-0.82199 1.4945,-1.89688 1.4945,-2.38863 0,-1.01975 5.6037,-6.96305 6.5652,-6.96305 0.3479,0 2.205,-0.74618 4.1269,-1.65818 3.8635,-1.83334 5.2619,-0.96742 5.2926,3.27719 0.01,1.16546 0.6485,5.89046 1.4224,10.5 0.774,4.60954 1.7057,10.96366 2.0707,14.12025 0.634,5.485 0.5491,5.79137 -1.9175,6.91522 -4.5689,2.08172 -7.0707,15.15434 -4.3915,22.9463 1.2218,3.55328 4.2913,6.89922 6.3292,6.89922 1.7198,0 4.2544,-3.09538 4.9131,-6 0.5429,-2.39393 1.0308,-7.63476 2.0624,-22.15276 0.26,-3.65902 0.9238,-8.60902 1.4752,-11 0.5513,-2.39098 1.0134,-6.03474 1.0269,-8.09724 0.013,-2.0625 0.4169,-3.75 0.8966,-3.75 0.4797,0 1.149,-1.73091 1.4873,-3.84647 0.7686,-4.80702 5.3821,-10.72341 10.3508,-13.27411 3.774,-1.9374 13.8727,-2.36313 14.9439,-0.62998 0.2551,0.41281 1.1241,0.75056 1.9311,0.75056 0.807,0 3.368,1.91339 5.691,4.25198 9.9141,9.98051 15.8255,29.77917 15.7492,52.74802 -0.023,6.875 -0.5135,14.3 -1.0903,16.5 -0.5768,2.2 -1.4861,5.73477 -2.0206,7.85504 -0.5345,2.12027 -1.588,5.04527 -2.3409,6.5 -2.1079,4.07218 -10.765,12.14332 -13.0414,12.15861 -1.1178,0.008 -2.9885,0.27028 -4.1572,0.58393 -2.0877,0.56028 -2.1377,0.26475 -2.8514,-16.86705 l -0.7265,-17.43733 3.8392,-3.72859 3.8393,-3.7286 -0.1852,-8.57644 c -0.1018,-4.71704 -0.5792,-8.84264 -1.0608,-9.16801 -0.4816,-0.32536 -1.1772,-1.4078 -1.5458,-2.40543 -0.4952,-1.34038 -1.5087,-1.73194 -3.8826,-1.5 -3.0102,0.29411 -3.2907,0.66004 -4.4564,5.81387 -0.6841,3.025 -2.1365,12.7 -3.2275,21.5 -1.4805,11.94131 -2.6982,17.74404 -4.8005,22.87529 -5.6359,13.75571 -14.6423,18.98169 -26.2544,15.2341 z M 91.484561,587.39927 c -9.625,-0.38559 -26.275,-0.76278 -37,-0.8382 -10.725,-0.0754 -20.121975,-0.53107 -20.882167,-1.01253 -1.160321,-0.73489 -1.200347,-3.50115 -0.249372,-17.23469 2.595025,-37.47614 5.638594,-55.72329 11.181528,-67.03679 8.219032,-16.77558 23.436806,-26.31039 37.786932,-23.67567 7.764402,1.42556 15.543913,4.06366 17.727528,6.01156 1.13545,1.01288 2.39051,1.8416 2.78903,1.8416 1.91152,0 8.6244,8.19351 11.4701,14 5.46461,11.15025 5.96592,20.60268 2.81086,53 -0.88379,9.075 -1.88008,20.8875 -2.21399,26.25 l -0.6071,9.75 -2.65667,-0.17711 c -1.46118,-0.0974 -10.53168,-0.49259 -20.156679,-0.87817 z m 5.440914,-39.19472 c 1.701902,-12.83691 0.923413,-20.973 -2.540406,-26.55009 -3.06201,-4.93015 -17.776134,-9.14966 -24.05641,-6.89856 -1.839254,0.65926 -3.938741,1.76115 -4.665527,2.44865 -0.726785,0.6875 -1.656422,1.25 -2.065859,1.25 -0.409436,0 -1.73021,1.75396 -2.935052,3.89769 -2.321253,4.13011 -4.017079,10.90393 -5.095202,20.35231 l -0.656113,5.75 3.345249,0 c 3.197315,0 13.638435,1.05063 28.728406,2.89076 3.85,0.46949 7.534927,0.91113 8.188727,0.98143 0.67645,0.0727 1.431548,-1.70371 1.752187,-4.12219 z M 1133.0838,488.31277 c -0.2315,-0.74702 -1.4191,-5.85822 -2.6391,-11.35822 -3.1488,-14.19647 -4.7673,-19.21205 -6.402,-19.83935 -0.7845,-0.30101 -13.2684,2.79709 -27.7422,6.88467 -14.4737,4.08757 -27.2926,7.43707 -28.4864,7.44332 -1.6242,0.009 -2.3443,-0.77933 -2.8605,-3.12967 -0.3794,-1.72757 -2.4402,-8.56819 -4.5794,-15.20138 -2.1393,-6.63319 -3.8896,-12.35642 -3.8896,-12.71828 0,-0.36186 2.8125,-1.5986 6.25,-2.74831 27.9693,-9.35465 49.075,-17.09876 49.8006,-18.27292 0.714,-1.15518 -2.7876,-11.71363 -7.9945,-24.10653 -1.6809,-4.00052 -3.0561,-7.79969 -3.0561,-8.4426 0,-0.99963 15.8059,-8.36895 17.9499,-8.36895 1.8425,0 16.134,38.37057 22.7201,61 3.2242,11.07794 9.9122,37.56778 10.7764,42.68282 l 0.676,4.00124 -6.8112,1.25918 c -12.4468,2.30103 -13.2654,2.35565 -13.712,0.91498 z M 101.48456,464.98859 c -3.024999,-0.71866 -9.549999,-2.42424 -14.499999,-3.79018 -4.95,-1.36594 -13.5,-3.7234 -19,-5.2388 -5.5,-1.5154 -11.2375,-2.97505 -12.75,-3.24366 -3.238513,-0.57516 -3.146506,-0.0226 -1.183412,-7.10749 4.542915,-16.39565 9.796218,-31.15391 11.089442,-31.15391 0.766664,0 3.970193,0.93423 7.118953,2.07607 3.148759,1.14183 11.350017,4.04101 18.225017,6.44261 6.875,2.4016 15.143189,5.3159 18.373749,6.47621 3.8941,1.39864 6.9274,1.89114 9,1.46131 3.49727,-0.7253 9.6089,-4.4595 9.61942,-5.87746 0.004,-0.50669 0.71062,-1.69894 1.57082,-2.64944 1.9983,-2.2081 4.41891,-11.31363 3.96373,-14.91025 -0.39576,-3.12711 -2.30791,-6.84434 -4.52772,-8.80189 -1.44242,-1.27201 -15.21541,-8.21716 -16.29552,-8.21716 -0.28942,0 -3.88942,-1.575 -8,-3.5 -4.11058,-1.925 -7.737357,-3.5 -8.059498,-3.5 -0.32214,0 -3.047477,-1.12604 -6.056304,-2.5023 -3.008827,-1.37627 -6.669249,-2.95803 -8.134271,-3.51503 -2.27764,-0.86596 -2.564195,-1.4091 -1.977245,-3.7477 0.91502,-3.64574 15.19705,-33.23497 16.041744,-33.23497 1.054807,0 43.663424,22.0494 46.981094,24.3121 1.65,1.12532 4.83034,3.87796 7.06742,6.11697 6.0966,6.10185 6.79799,8.30909 6.85453,21.57093 0.0486,11.39469 -0.41276,13.97553 -4.4689,25 -1.72003,4.675 -3.62096,9.85 -4.22427,11.5 -1.98524,5.42938 -8.70175,18.23268 -10.23015,19.50113 -0.82424,0.68407 -1.49863,1.831 -1.49863,2.54873 0,0.71774 -1.125,2.1899 -2.5,3.27148 -1.375,1.08158 -2.5,2.46424 -2.5,3.07258 0,0.60834 -0.3375,1.10663 -0.75,1.1073 -0.4125,6.7e-4 -2.05749,1.12567 -3.65554,2.5 -1.59805,1.37433 -3.47305,2.49878 -4.16667,2.49878 -0.69362,0 -1.42867,0.50265 -1.63346,1.117 -0.55267,1.65801 -13.42893,1.9293 -19.79433,0.41704 z m 940.04484,-61.75208 c -1.2873,-2.90508 -4.524,-9.73522 -7.1927,-15.1781 -2.6686,-5.44287 -4.8521,-10.43037 -4.8521,-11.08333 0,-0.65296 1.3375,-2.4997 2.9722,-4.10386 3.717,-3.64754 3.7349,-5.07819 0.1453,-11.64413 -12.723,-23.27269 -15.8136,-27.31448 -19.2583,-25.18552 -0.6373,0.39386 -2.612,0.84652 -4.3882,1.0059 -3.0848,0.27681 -3.5711,-0.21172 -10.85208,-10.90156 -4.1924,-6.15525 -8.55927,-12.42886 -9.70416,-13.94136 -1.14489,-1.5125 -1.70658,-2.75037 -1.24821,-2.75082 0.45838,-4.5e-4 4.20841,-0.71347 8.33341,-1.58449 4.125,-0.87103 8.85004,-1.74835 10.50004,-1.94962 1.65,-0.20126 4.125,-0.58976 5.5,-0.86333 6.1554,-1.22466 8.8843,-1.61143 14.5,-2.05508 3.3,-0.26071 7.575,-0.73036 9.5,-1.04368 1.925,-0.31332 5.975,-0.77549 9,-1.02705 3.025,-0.25156 7.525,-0.68869 10,-0.9714 2.475,-0.28272 8.8387,-0.73072 14.1415,-0.99556 l 9.6415,-0.48153 3.9356,6.23628 c 5.7386,9.09317 10.663,17.49764 13.829,23.60179 l 2.7828,5.3655 -1.9152,3.6345 c -1.9735,3.74514 -2.8377,5.02528 -5.4152,8.02155 -0.825,0.95905 -2.3775,3.28929 -3.45,5.17833 -1.9153,3.37362 -2.8061,4.6169 -5.3,7.39789 -0.6875,0.76662 -1.25,1.89013 -1.25,2.49668 0,0.60654 -0.675,1.36183 -1.5,1.67841 -0.825,0.31659 -1.5,1.0508 -1.5,1.63158 0,0.85756 -20.0298,27.98792 -21.9492,29.73005 -0.3029,0.275 -2.3435,2.75 -4.5345,5.5 -2.1911,2.75 -4.9169,6.02688 -6.0573,7.28196 l -2.0736,2.28196 -2.3406,-5.28196 z m 8.9552,-52.28196 c 0.5228,-1.375 1.4116,-2.5 1.9752,-2.5 0.5637,0 1.0269,-0.5625 1.0296,-1.25 0,-0.6875 1.6787,-3.05 3.7246,-5.25 2.046,-2.2 3.7313,-4.30544 3.7453,-4.67876 0.025,-0.66525 1.5563,-2.42124 6.4884,-7.43946 l 2.4631,-2.50611 -5.4631,0.63272 c -8.1979,0.94947 -10.4631,1.27272 -10.4631,1.49315 0,0.10995 -2.25,0.384 -5,0.60899 -2.75,0.22499 -5.675,0.70196 -6.5,1.05995 -0.825,0.35798 -2.761,0.75209 -4.3023,0.87581 -4.0462,0.32478 -4.4263,1.22274 -1.6196,3.82533 1.365,1.2657 4.2323,5.74987 6.3717,9.96482 4.0783,8.03495 5.9673,9.32685 7.5502,5.16356 z M 182.48456,336.67787 c -17.56521,-11.5969 -42.60359,-27.22332 -43.62021,-27.22332 -1.10392,0 -9.3365,12.7461 -15.93984,24.67886 l -2.86588,5.17886 -8.53703,-4.53887 c -4.69537,-2.49639 -8.91422,-4.88906 -9.37522,-5.31705 -0.46101,-0.42799 0.258,-2.51599 1.59779,-4.63998 1.33979,-2.124 4.39536,-7.23682 6.79014,-11.36182 13.98966,-24.09708 36.30349,-56.03889 51.74998,-74.07907 2.56911,-3.00051 5.25567,-2.25421 11.20027,3.1113 3.025,2.73032 5.8375,4.96502 6.25,4.966 2.20823,0.005 -0.0332,4.21473 -6.58705,12.37093 -4.03537,5.02196 -8.57627,10.80193 -10.09087,12.84437 l -2.75383,3.71353 2.84088,2.63889 c 2.4295,2.25677 8.2873,6.62746 21.35553,15.93405 5.76901,4.10843 16.53744,11.99548 17.98534,13.1729 0.825,0.67089 2.6047,2.08774 3.95489,3.14856 2.23278,1.75427 2.32326,2.11355 1,3.97098 -0.80019,1.12321 -5.01453,7.25441 -9.3652,13.62488 -4.35067,6.37047 -8.40067,11.54995 -9,11.50994 -0.59933,-0.04 -3.56469,-1.70678 -6.58969,-3.70394 z m 804,-42.22749 c 0,-0.31362 -0.91313,-0.63901 -2.02917,-0.72307 -1.11605,-0.0841 -4.48819,-1.27863 -7.49365,-2.65458 -4.42443,-2.02557 -9.89082,-6.94865 -28.72083,-25.86625 -12.79099,-12.85049 -25.66418,-25.51195 -28.60708,-28.13656 l -5.35072,-4.77203 2.35072,-2.663 c 1.2929,-1.46465 2.57853,-2.89191 2.85695,-3.17167 0.27842,-0.27977 2.97842,-3.429 6,-6.99829 6.69503,-7.90861 9.28521,-10.9023 15.6018,-18.03234 2.69059,-3.03707 6.91698,-7.92175 9.39198,-10.85484 2.475,-2.93308 5.33453,-6.2982 6.35452,-7.47804 1.01998,-1.17984 3.69152,-4.28266 5.93676,-6.89516 2.24524,-2.6125 4.78571,-4.73726 5.64549,-4.7217 1.78423,0.0323 7.96654,5.68599 30.4321,27.82998 19.05547,18.78271 32.75997,36.23547 33.91657,43.19306 0.2239,1.34676 0.7605,3.26511 1.1925,4.26298 1.4202,3.28064 -0.2284,11.90346 -2.7046,14.14557 -7.1958,6.5158 -11.6672,7.44631 -19.3836,4.03377 -3.1334,-1.38576 -5.8365,-2.38024 -6.0067,-2.20995 -0.1703,0.17029 0.3645,2.53862 1.1884,5.26295 1.6962,5.6083 2.0195,11.92923 0.7716,15.08542 -1.2732,3.22005 -11.78109,11.64207 -14.05253,11.263 -0.43478,-0.0726 -1.01551,-0.0421 -1.29051,0.0677 -1.28523,0.51323 -6,0.53916 -6,0.033 z m -4.53301,-33.55306 c 3.31457,-4.38237 1.20943,-8.93046 -9.45744,-20.43247 l -8.39938,-9.05699 -5.30508,5.23918 c -2.9178,2.88156 -5.30509,5.7145 -5.30509,6.29543 0,1.41639 16.085,17.35631 19.10867,18.93631 3.36132,1.75645 7.6258,1.30921 9.35832,-0.98146 z m 18.73775,-21.42912 c 0.3876,-0.008 0.9767,-1.47615 1.3092,-3.26365 0.9025,-4.85155 -1.5079,-9.30316 -9.74008,-17.98817 l -7.33468,-7.73816 -5.21959,5.13815 c -2.87077,2.82598 -5.21959,5.45872 -5.21959,5.85053 0,1.11596 16.19369,16.20263 18.99264,17.69427 1.37905,0.73494 3.40736,1.10776 4.50736,0.82847 1.1,-0.27928 2.31714,-0.51393 2.70474,-0.52144 z m -777.3581,25.18797 c -1.45935,-0.1737 -6.40935,-2.24279 -11,-4.59799 -6.49922,-3.33436 -9.29427,-5.47977 -12.62801,-9.6929 -2.35476,-2.9759 -4.71726,-5.95424 -5.25,-6.61852 -0.53275,-0.66429 -0.96863,-1.81179 -0.96863,-2.55 0,-0.73822 -0.5625,-1.90535 -1.25,-2.59363 -0.85613,-0.8571 -1.22264,-4.62254 -1.16316,-11.95 0.0758,-9.33707 0.43877,-11.52577 2.85227,-17.19858 3.05189,-7.1733 9.10368,-16.67107 13.93234,-21.86562 4.53736,-4.88118 21.57176,-19.13438 22.86803,-19.13438 0.60667,0 1.8865,-0.70902 2.84407,-1.57561 0.95757,-0.86659 2.343,-1.67573 3.07874,-1.79809 0.73574,-0.12237 2.23771,-0.71719 3.33771,-1.32183 1.82665,-1.00405 8.83605,-3.21261 12.5,-3.93856 3.31099,-0.65602 11.65165,-0.61516 14.00176,0.0686 6.1655,1.79381 16.19898,7.74294 14.9833,8.88402 -0.26678,0.25041 -6.11006,4.85004 -12.98506,10.22139 -6.875,5.37135 -12.65,10.14724 -12.83333,10.6131 -0.45601,1.15872 -4.16667,1.07703 -4.16667,-0.0917 0,-1.30056 -8.16516,-2.40354 -11.8316,-1.59826 -3.25164,0.71418 -16.50706,12.18002 -15.66193,13.54746 0.28155,0.45556 -0.0861,1.42707 -0.8169,2.15891 -1.51157,1.51363 -1.99998,11.52074 -0.60438,12.38327 0.50314,0.31096 0.91481,1.34954 0.91481,2.30795 0,2.24296 11.71357,14.1394 13.92205,14.1394 0.92287,0 2.12114,0.44319 2.66282,0.98487 1.44793,1.44793 7.20248,1.85645 11.34374,0.80528 4.42132,-1.12225 13.14265,-8.99688 15.27289,-13.79015 2.48897,-5.60044 2.5694,-6.29805 1.1846,-10.2742 -1.54638,-4.4401 -2.31148,-3.57465 15.09581,-17.07577 7.4938,-5.8122 11.22596,-8.14159 11.75026,-7.33381 1.19906,1.84735 3.52733,10.36181 3.87854,14.18378 0.14297,1.55578 -1.19897,8.60195 -2.07912,10.91691 -0.43559,1.1457 -0.89456,2.53309 -1.01992,3.08309 -0.70423,3.08971 -3.36435,8.5 -4.17927,8.5 -0.52274,0 -0.70383,0.39901 -0.40243,0.88669 0.30141,0.48768 -0.12204,1.44278 -0.94098,2.12245 -0.81894,0.67961 -1.48899,1.8238 -1.48899,2.5426 0,2.41259 -24.04425,25.44821 -26.56247,25.44821 -0.62016,0 -1.93244,0.88939 -2.91619,1.97642 -0.98375,1.08703 -2.1275,1.76698 -2.54168,1.51101 -0.41418,-0.25598 -1.30913,0.20464 -1.9888,1.02358 -0.67966,0.81894 -2.08065,1.48899 -3.1133,1.48899 -1.03266,0 -1.87756,0.525 -1.87756,1.16667 0,0.64166 -0.28205,0.88461 -0.62678,0.53988 -0.34474,-0.34473 -1.80724,-0.0242 -3.25,0.71226 -3.87582,1.97845 -16.15111,3.51189 -22.27658,2.78281 z m 661.64328,-61.21793 c -0.34546,-0.55897 -1.01584,-0.77669 -1.48973,-0.48381 -1.22355,0.7562 -15.69907,-4.2019 -20.67826,-7.08264 -2.29794,-1.32948 -4.83034,-2.41724 -5.62756,-2.41724 -0.79721,0 -2.04895,-0.72232 -2.78164,-1.60515 -0.73269,-0.88284 -3.82529,-3.30832 -6.87244,-5.38995 -7.06615,-4.82718 -16.04674,-13.98637 -20.47094,-20.87806 -4.04374,-6.29903 -7.36835,-16.75665 -7.35232,-23.12684 0.0124,-4.9358 2.32391,-16.27373 3.92934,-19.2735 2.45515,-4.58748 11.42053,-13.7265 13.46571,-13.7265 0.67169,0 1.37125,-0.42043 1.55459,-0.93429 0.55727,-1.56196 14.0416,-4.81752 18.83535,-4.54747 12.24994,0.69007 24.22069,3.62313 32.99798,8.08511 6.29382,3.1995 20.42707,12.56646 23.78877,15.76626 1.80883,1.72172 5.97428,6.59521 9.25657,10.82998 10.01803,12.92516 13.97985,27.71335 10.13429,37.82796 -0.51702,1.35985 -0.9274,2.69745 -0.91196,2.97245 0.0154,0.275 -0.92945,2.37687 -2.09974,4.67083 -4.21305,8.25827 -13.89452,15.69204 -25.06715,19.24745 -4.30208,1.36903 -19.77483,1.41813 -20.61086,0.0654 z m -1.73992,-26.01721 c 0.1375,-0.11906 0.5875,-0.31044 1,-0.42527 5.61566,-1.56336 11.60438,-7.42963 14.99259,-14.68605 2.81843,-6.03614 2.45036,-14.70722 -0.81763,-19.2618 -3.89063,-5.42234 -12.98073,-11.59336 -17.07738,-11.59336 -0.95125,0 -1.97016,-0.38932 -2.26424,-0.86516 -0.65974,-1.06747 -3.75451,-0.7636 -9.37431,0.92044 -10.37306,3.10842 -18.25535,16.95053 -15.91293,27.94472 1.46735,6.88702 11.15304,16.21844 18.07659,17.41541 1.57999,0.27316 3.01865,0.64259 3.19703,0.82098 0.34345,0.34345 7.75434,0.0989 8.18028,-0.26991 z m -562.65471,19.27545 c -1.68648,-2.60806 -7.59356,-11.26693 -13.12684,-19.24193 -5.53329,-7.975 -11.58666,-16.75 -13.45195,-19.5 -1.86529,-2.75 -6.13275,-9.02861 -9.48326,-13.95246 -3.35051,-4.92386 -5.87088,-9.52827 -5.60082,-10.23202 0.27005,-0.70375 3.77074,-3.39069 7.77929,-5.97097 11.03862,-7.10548 23.03805,-14.34455 23.77742,-14.34455 0.36241,0 3.71329,5.175 7.4464,11.5 3.73311,6.325 6.97124,11.5 7.19584,11.5 0.22461,0 2.08693,-1.05628 4.1385,-2.34729 2.05157,-1.29101 9.46763,-5.37973 16.48013,-9.08606 7.0125,-3.70633 12.75,-6.90904 12.75,-7.11713 0,-0.20809 -2.475,-5.40046 -5.5,-11.53861 -3.025,-6.13815 -5.5,-11.706615 -5.5,-12.374365 0,-0.667756 3.7125,-2.926091 8.25,-5.018524 16.26796,-7.501846 18.30258,-8.417631 22.12212,-9.957233 2.12967,-0.858436 4.04785,-1.560793 4.26261,-1.560793 0.51325,0 4.90345,9.865744 7.90818,17.77144 1.31098,3.44928 3.04051,7.724285 3.8434,9.500005 0.80289,1.77571 3.78142,8.85356 6.61897,15.72856 2.83754,6.875 6.65292,16.1 8.47861,20.5 5.46438,13.16944 6.57549,11.1724 -10.52682,18.92038 -8.27819,3.75032 -15.21068,6.65246 -15.40553,6.4492 -0.19485,-0.20327 -3.38884,-6.44458 -7.09774,-13.86958 -3.70891,-7.425 -6.83977,-13.62397 -6.95747,-13.7755 -0.11769,-0.15152 -3.02074,1.31098 -6.45122,3.25 -3.43049,1.93903 -6.42256,3.5255 -6.64905,3.5255 -0.30818,0 -17.46222,9.44295 -19.18978,10.56358 -0.16155,0.10479 3.32595,6.37028 7.75,13.92331 4.42405,7.55303 8.04372,13.90835 8.04372,14.12295 0,0.21459 -0.43105,0.39016 -0.95789,0.39016 -0.52684,0 -6.03934,3.29906 -12.25,7.33124 -16.7849,10.89736 -15.11005,10.45747 -18.69682,4.91069 z m 471.40471,-40.7193 c -1.65,-0.78751 -7.5,-3.20718 -13,-5.37704 -15.418,-6.08271 -15.72522,-6.25673 -15.16851,-8.5921 0.26922,-1.12942 1.62119,-5.25981 3.00436,-9.17865 2.1575,-6.11269 2.36609,-7.7113 1.46787,-11.25 -0.57585,-2.26866 -1.41012,-4.12484 -1.85393,-4.12484 -0.44381,0 -1.53963,-0.7327 -2.43516,-1.62822 -1.48937,-1.48938 -19.60512,-8.37178 -22.03605,-8.37178 -0.57307,0 -1.62938,2.1375 -2.34735,4.75 -2.14779,7.8152 -6.34714,21.72578 -6.66651,22.08317 -0.16375,0.18324 -4.4978,-0.8163 -9.63122,-2.22119 -5.13343,-1.4049 -12.23431,-3.25564 -15.77975,-4.11276 -3.54544,-0.85711 -6.66596,-1.7781 -6.93449,-2.04662 -0.26852,-0.26853 0.0736,-2.84272 0.76033,-5.72042 0.68671,-2.8777 1.6848,-7.25718 2.21798,-9.73218 6.30653,-29.274611 11.06955,-51.520241 11.99017,-56.000005 1.75308,-8.530554 1.54907,-8.234945 5.16143,-7.478858 3.72531,0.779726 25.75801,6.202401 30.25083,7.445314 19.71549,5.454177 36.87695,11.337854 45.01089,15.431649 9.04534,4.552495 18.48911,12.289377 18.48911,15.14735 0,0.8 0.41356,1.454545 0.91902,1.454545 0.50545,0 1.36979,2.113545 1.92073,4.696766 0.89724,4.206854 0.71152,5.336814 -1.7805,10.832839 -4.16788,9.19207 -7.18826,10.63644 -23.85987,11.41005 -0.71535,0.0332 0.69107,1.97285 3.12537,4.31035 8.85532,8.50319 9.41677,13.51092 3.07039,27.38554 -1.35094,2.95345 -2.51541,6.94368 -2.58772,8.86718 -0.0723,1.9235 -0.17107,3.48703 -0.21945,3.47451 -0.0484,-0.0125 -1.43797,-0.6671 -3.08797,-1.4546 z M 779.21985,95.596215 c 1.98999,-1.06501 3.7733,-6.14167 2.15742,-6.14167 -0.45647,0 -0.63173,-0.5625 -0.38948,-1.25 1.21666,-3.452847 -6.66287,-7.150777 -28.17033,-13.220559 -1.91439,-0.540273 -2.34429,0.0054 -3.68654,4.679484 -2.82997,9.85463 -2.96032,10.790312 -1.50477,10.801757 0.74713,0.0059 5.97708,1.494305 11.62212,3.307619 10.29396,3.306659 16.1936,3.84528 19.97158,1.823369 z M 472.99382,128.35338 c 0.36553,-3.99333 3.20443,-18.17872 4.18245,-20.89883 0.29663,-0.825 0.71809,-3.26081 0.93657,-5.41292 0.21849,-2.152105 0.79837,-4.402105 1.28864,-5.000005 0.49027,-0.59789 1.69736,-4.91208 2.68243,-9.58708 0.98507,-4.675 2.11263,-8.726483 2.50568,-9.003295 0.39306,-0.276813 1.29526,-3.314312 2.00489,-6.75 0.70963,-3.435687 1.58903,-6.246705 1.95423,-6.246705 0.3652,0 0.92722,-1.912499 1.24892,-4.249999 0.32171,-2.337501 1.32555,-5.73198 2.23076,-7.54329 0.90522,-1.811309 1.75902,-3.836309 1.89735,-4.5 0.53896,-2.585884 2.54808,-6.708297 3.28407,-6.738421 0.42611,-0.01744 5.27475,-0.701083 10.77475,-1.519206 5.5,-0.818125 13.99436,-1.985953 18.87635,-2.595177 l 8.87635,-1.107679 3.12365,3.42464 c 1.71801,1.883552 4.01348,5.090651 5.10105,7.126886 1.08758,2.036236 2.32508,3.702247 2.75,3.702247 0.42493,0 0.7726,0.674999 0.7726,1.5 0,0.825 0.34767,1.5 0.7726,1.5 0.42492,0 1.66242,1.654414 2.75,3.676475 1.08757,2.022062 2.43683,4.159562 2.99836,4.75 0.56152,0.590439 2.57839,3.548524 4.48192,6.573524 1.90354,3.025 3.80661,5.65 4.22905,5.833333 0.42244,0.183334 0.76807,1.000859 0.76807,1.816722 0,0.815864 1.125,2.95834 2.5,4.761058 1.375,1.802718 2.5,3.642717 2.5,4.088887 0,0.44617 1.125,2.286169 2.5,4.088887 1.375,1.802718 2.5,3.982693 2.5,4.844393 0,0.8617 0.3375,1.57023 0.75,1.57452 0.4125,0.004 1.2362,1.01679 1.83044,2.25 0.59425,1.23321 2.74479,5.341665 4.77898,9.129885 2.0342,3.78823 3.55527,7.03097 3.38015,7.20608 -0.44511,0.44512 -25.11414,2.40624 -30.26816,2.40624 -3.12528,0 -4.4066,-0.45952 -4.87966,-1.75 -2.25533,-6.15237 -3.55691,-7.25 -8.59709,-7.25 -2.69292,0 -7.05587,0.42027 -9.69544,0.93393 -2.63957,0.51366 -8.62422,1.50657 -13.29922,2.20646 -4.675,0.6999 -9.02439,1.78438 -9.66532,2.40996 -0.64092,0.62558 -1.47729,3.21786 -1.8586,5.76062 -0.79057,5.27189 0.25991,4.71951 -15.47608,8.13782 -6.325,1.37397 -12.92862,2.91894 -14.6747,3.43327 l -3.1747,0.93514 0.35866,-3.91837 z m 45.15997,-33.322205 c 3.20692,-0.78285 8.49412,-1.683704 11.74933,-2.001889 3.2552,-0.318186 6.04527,-0.705239 6.20015,-0.860119 0.15488,-0.154881 -0.36378,-1.39153 -1.15257,-2.748111 -0.7888,-1.356581 -1.71885,-3.254011 -2.06679,-4.216511 -0.34794,-0.9625 -0.98999,-1.75 -1.42678,-1.75 -0.43678,0 -1.82347,-2.1375 -3.08151,-4.75 -1.25805,-2.6125 -2.87319,-5.344643 -3.58921,-6.071429 -0.71602,-0.726785 -1.30185,-1.909185 -1.30185,-2.627555 0,-0.71837 -0.675,-1.866327 -1.5,-2.551016 -0.825,-0.684689 -1.5,-2.089789 -1.5,-3.122445 0,-1.032655 -0.39375,-1.877554 -0.875,-1.877554 -0.94563,0 -2.125,4.78687 -2.125,8.624999 0,1.30625 -0.45,2.375 -1,2.375 -0.55,0 -1,1.323442 -1,2.940983 0,1.617541 -0.43035,3.206952 -0.95633,3.532026 -0.52598,0.325073 -0.71632,1.216466 -0.42299,1.980875 0.29333,0.764409 0.0931,2.212498 -0.44498,3.217975 -1.13784,2.126247 -2.65685,11.328141 -1.87001,11.328141 0.29303,0 3.15662,-0.64052 6.36354,-1.42337 z m 157.33077,26.829905 c -20.462,-3.28397 -54.1119,-6.34936 -70.09128,-6.38509 l -9.59127,-0.0214 -0.6561,-20.250005 c -0.36085,-11.1375 -0.65728,-29.636664 -0.65872,-41.109253 l -0.003,-20.859254 19.75,0.686943 c 19.08676,0.663873 42.25487,2.474415 56.75,4.4349 30.99705,4.192393 27.91183,3.179149 27.09687,8.899118 -1.86176,13.067069 -2.05688,13.706239 -4.11893,13.493143 -1.08787,-0.112423 -8.27794,-1.095837 -15.97794,-2.185365 -18.62628,-2.635565 -30.61015,-3.982301 -38.5,-4.32659 l -6.5,-0.283641 -0.2999,5.75 c -0.21912,4.201015 0.0503,5.752778 1,5.760316 7.76806,0.06166 44.96408,4.303104 49.12222,5.601388 1.00228,0.312938 1.60899,1.124906 1.34826,1.804373 -0.26074,0.679467 -0.78868,4.173212 -1.17321,7.763877 -0.98274,9.176704 -1.14068,9.33257 -8.14878,8.042046 -10.10824,-1.861405 -41.32889,-5.0619 -43.22219,-4.430799 -0.67631,0.225434 -1.1264,2.893437 -1.1264,6.676908 l 0,6.30144 5.25,0.63541 c 2.8875,0.34947 9.75,1.07469 15.25,1.61159 5.5,0.536905 12.7,1.395755 16,1.908575 3.3,0.51282 9.4875,1.46916 13.75,2.1252 7.14032,1.09897 7.75,1.37845 7.75,3.55268 0,4.85894 -2.44635,16.3927 -3.45355,16.28235 -0.57555,-0.063 -4.87145,-0.72852 -9.54645,-1.47882 z"
     id="path4140"
     style="fill:#000000" />
  <path
     d="m 438.84213,899.99732 c -5.73567,-1.599 -37.53959,-18.0322 -46.81961,-24.1919 -9.40947,-6.2457 -15.98822,-13.1245 -28.51197,-29.8123 -32.63556,-43.4868 -34.29321,-55.2912 -10.24377,-72.9476 3.60328,-2.6455 6.55142,-5.1316 6.55142,-5.5248 0,-0.9982 12.45303,-11.2666 19.57743,-16.1429 9.0013,-6.16094 13.56425,-10.97636 25.89941,-27.33238 6.22188,-8.25 14.66315,-18.6 18.7584,-23 8.9706,-9.63818 10.11603,-11.60407 9.2109,-15.80865 -1.72057,-7.99249 -5.40378,-12.21626 -24.94614,-28.60731 -20.46443,-17.16444 -28.53094,-25.56577 -42.79853,-44.57496 -12.83939,-17.10636 -32.10525,-48.28975 -36.96626,-59.83296 -1.5805,-3.75313 -4.83484,-14.55313 -7.23187,-24 -2.39703,-9.44686 -5.08348,-19.19509 -5.96991,-21.66272 -4.69974,-13.08322 -5.88886,-20.25005 -5.89241,-35.5134 -0.004,-15.86351 0.42389,-18.34532 6.41689,-37.24566 1.6124,-5.08511 4.48391,-15.24972 6.38111,-22.58803 4.37205,-16.91088 9.78486,-31.32632 17.40043,-46.34099 3.29884,-6.50393 7.66842,-16.10032 9.71018,-21.32532 2.04175,-5.225 4.71902,-11.525 5.9495,-14 1.23047,-2.475 4.17512,-11.475 6.54367,-20 4.24014,-15.26131 4.31745,-15.82339 5.02014,-36.5 0.39253,-11.55 1.18711,-22.47847 1.76574,-24.28548 5.21132,-16.27449 19.10417,-17.70295 35.21642,-3.62094 11.02449,9.63534 16.37743,15.1595 25.58795,26.40642 5.17978,6.325 11.91949,14.425 14.97713,18 9.86085,11.52932 19.87109,30.1951 30.56844,57 2.74369,6.875 8.16525,18.70279 12.0479,26.28399 6.7578,13.19513 7.46373,14.15516 16.52469,22.47253 10.52765,9.66368 15.82252,16.56347 22.55956,29.39754 2.49857,4.75974 6.37087,11.33213 8.60507,14.60533 5.615,8.22595 8.74,15.42973 11.6222,26.7919 3.0917,12.18754 3.1862,22.53765 0.339,37.09468 -2.7111,13.86105 -2.3042,31.5996 0.9326,40.65286 2.5783,7.21137 7.7593,14.54533 12.0427,17.04695 3.247,1.89633 3.2621,1.89535 5.6726,-0.36924 2.8323,-2.66075 4.0188,-5.97486 5.469,-15.27545 1.5527,-9.95844 5.1182,-18.51152 13.7888,-33.07772 8.7987,-14.78134 15.8482,-22.57263 27.4136,-30.29835 11.3367,-7.57297 25.2109,-12.15214 47.8037,-15.77766 5.225,-0.83847 15.738,-3.54686 23.3622,-6.01865 22.9175,-7.42988 39.236,-9.97688 45.9495,-7.17181 6.6368,2.77301 6.9715,4.70709 6.7752,39.1431 -0.2165,37.97198 -0.9538,45.45799 -7.6916,78.10169 -2.3556,11.4127 -7.3303,20.53004 -16.1768,29.64806 -19.4884,20.08638 -38.3411,32.53721 -54.9886,36.31591 -9.2863,2.10786 -10.0129,2.36017 -11.724,4.07128 -5.1396,5.1396 2.9431,12.77685 16.304,15.40545 14.6354,2.87934 33.3289,-0.28419 55.1901,-9.33992 14.3481,-5.94353 19.121,-6.97779 29.887,-6.47628 7.265,0.33841 11.4449,1.13006 17.113,3.24106 4.125,1.5363 14.025,5.13374 22,7.99432 7.975,2.86057 19.8848,7.56139 26.4662,10.44627 6.5815,2.88487 23.9065,8.83477 38.5,13.22199 14.5936,4.38722 33.7338,10.84755 42.5338,14.35629 8.8,3.50874 21.85,8.49026 29,11.07005 15.8356,5.71366 20.4275,7.97294 32,15.74463 4.95,3.32425 13.0445,8.4968 17.9878,11.49455 12.3233,7.47315 22.1528,15.02529 32.02866,24.60803 11.3541,11.017 13.1111,17.132 7.0069,24.3865 -3.4821,4.1381 -10.0104,6.6593 -29.27236,11.3045 -15.4235,3.7195 -18.4153,4.8375 -37.751,14.1063 -11.55,5.5366 -22.575,11.3787 -24.5,12.9825 -18.856,15.709 -23.7842,19.1179 -38.774,26.8203 -5.3493,2.7487 -13.326,7.0219 -17.726,9.4961 -11.1565,6.2732 -21.489,10.1095 -39.5,14.6655 -8.525,2.1564 -20.225,5.4317 -26,7.2784 -16.723,5.3474 -21.0901,6.0217 -39,6.0217 -18.2351,0 -21.9134,-0.5961 -41,-6.6448 -6.875,-2.1787 -17.225,-4.815 -23,-5.8583 -14.6043,-2.6386 -20.754,-4.9627 -34,-12.8494 -6.325,-3.7659 -16.9046,-9.8065 -23.5102,-13.4237 -6.6056,-3.6172 -15.7027,-9.1895 -20.2158,-12.3828 -4.5131,-3.1934 -16.108,-11.4312 -25.7666,-18.3062 -25.9713,-18.4864 -25.9947,-18.5 -32.0574,-18.5 -4.3421,0 -6.0988,0.6057 -10.5784,3.6472 -2.9544,2.006 -8.0716,5.1163 -11.3716,6.9118 -10.0947,5.4924 -16.14868,10.7456 -23.39068,20.2968 -3.81475,5.0311 -10.95311,12.9921 -15.86302,17.691 -8.30802,7.9511 -9.07431,9.0259 -11.0497,15.4984 -4.03893,13.2338 -13.63474,30.8263 -20.62954,37.8211 -7.43858,7.4385 -17.23594,9.9589 -27.54317,7.0856 z m 23.47607,-106.8926 c 3.85,-0.7916 12.11572,-1.9076 18.36826,-2.4801 8.12717,-0.7441 12.83954,-1.7144 16.52881,-3.4034 7.01187,-3.2102 30.38127,-17.8061 35.74947,-22.3283 2.3944,-2.0171 8.4335,-6.7064 13.4202,-10.4207 6.2886,-4.6841 12.8763,-11.08353 21.5,-20.8858 15.5202,-17.64138 21.5801,-26.5587 27.55,-40.54098 2.5831,-6.05 6.1488,-13.925 7.9237,-17.5 1.7748,-3.575 4.4081,-10.94169 5.8516,-16.37042 3.2211,-12.11345 8.1398,-22.76035 17.1077,-37.0302 7.735,-12.30796 15.6124,-21.22258 23.9466,-27.09938 16.2899,-11.48666 18.8554,-13.98356 34.9101,-33.97701 8.8431,-11.01265 16.9101,-21.59799 17.9266,-23.52299 1.5328,-2.90286 1.7929,-5.29142 1.5247,-14 -0.2887,-9.3736 -0.6235,-11.01196 -3.1208,-15.27239 -3.5414,-6.04153 -8.7308,-9.4852 -16.4594,-10.92248 -8.534,-1.58707 -16.6671,0.56878 -28.5322,7.56303 -14.28,8.41784 -18.9105,12.68353 -30.4167,28.02053 -5.8227,7.76122 -11.7968,15.68631 -13.2758,17.61131 -1.479,1.925 -7.4816,10.08955 -13.3392,18.14345 -14.4772,19.90562 -22.3324,26.7054 -40.6915,35.22448 -3.0097,1.39657 -10.8721,6.36541 -17.4721,11.04186 -10.866,7.69915 -25.43893,17.62064 -35.97891,24.49509 -6.27321,4.09155 -19.09217,16.72159 -27.5363,27.13049 -4.25452,5.24445 -10.60845,12.66945 -14.11984,16.5 -8.59324,9.37428 -10.61252,12.38394 -11.78589,17.5664 -0.54769,2.41903 -4.21943,14.29823 -8.15942,26.39823 -6.91446,21.23488 -7.1813,22.42188 -7.67199,34.12898 -0.9621,22.9539 0.89133,27.7563 12.08101,31.3027 7.57533,2.401 5.90501,2.327 14.1713,0.6276 z"
     id="path4096"
     style="fill:#ff0000;fill-opacity:1" />
  <path
     d="M 1182.5455,612 A 588,581.45453 0 1 1 6.5454712,612 588,581.45453 0 1 1 1182.5455,612 z"
     transform="matrix(0.99366874,0,0,1.001536,8.1278498,-14.26367)"
     id="path4098"
     style="fill:none;stroke:#000000;stroke-width:12.02893448;stroke-miterlimit:4;stroke-opacity:1;stroke-dasharray:none" />
</svg>
