<svg xmlns:dc="http://purl.org/dc/elements/1.1/" xmlns:cc="http://creativecommons.org/ns#" xmlns:rdf="http://www.w3.org/1999/02/22-rdf-syntax-ns#" xmlns:svg="http://www.w3.org/2000/svg" xmlns="http://www.w3.org/2000/svg" version="1.1" width="1200" height="1200"><path d="m 1174.5762,596.18646 a 582.20337,580.93219 0 1 1 -1164.406705,0 582.20337,580.93219 0 1 1 1164.406705,0 z" transform="translate(6,2)" style="fill:#ffffff;fill-opacity:1;stroke:#000000;stroke-width:10;stroke-miterlimit:4;stroke-opacity:1;stroke-dasharray:none" /><path d="m 497.17,1017.81 c -0.38,-0.38 -0.69,-1.74 -0.69,-3.02 0,-1.28 -0.42,-2.33 -0.93,-2.33 -0.51,0 -1.24,-2.02 -1.61,-4.5 -0.37,-2.47 -1.03,-4.5 -1.47,-4.5 -0.43,0 -1.11,-1.91 -1.5,-4.24 -0.39,-2.33 -0.99,-4.47 -1.33,-4.75 -0.34,-0.27 -1.73,-3.87 -3.09,-8 -1.35,-4.12 -2.76,-7.95 -3.13,-8.5 -0.36,-0.55 -0.99,-2.57 -1.4,-4.5 -0.4,-1.92 -1.07,-3.95 -1.5,-4.5 -0.42,-0.55 -1.09,-2.57 -1.5,-4.5 -0.4,-1.92 -1.07,-3.95 -1.5,-4.5 -0.42,-0.55 -1.1,-2.57 -1.51,-4.5 -0.4,-1.92 -1.36,-4.38 -2.11,-5.47 -0.75,-1.08 -1.37,-2.9 -1.37,-4.05 0,-1.14 -0.54,-2.61 -1.2,-3.27 -2.52,-2.52 0.79,-3.26 13.28,-2.98 12.41,0.28 12.41,0.28 12.7,2.78 0.16,1.37 0.69,3.4 1.19,4.5 0.49,1.1 1.34,4.02 1.88,6.5 0.54,2.47 1.73,6.97 2.66,10 0.92,3.02 2.19,7.75 2.82,10.5 0.63,2.75 1.45,5.47 1.83,6.05 0.37,0.58 0.99,3.39 1.37,6.25 1.13,8.52 1.96,7.2 5.54,-8.8 0.55,-2.47 1.4,-5.4 1.88,-6.5 0.48,-1.1 1.17,-3.91 1.52,-6.25 0.35,-2.33 0.95,-4.25 1.34,-4.25 0.38,0 1.2,-2.36 1.83,-5.25 0.62,-2.88 1.68,-7.61 2.34,-10.5 l 1.21,-5.25 12.86,0 c 12.2,0 12.86,0.1 12.86,2 0,1.1 -0.39,2 -0.88,2 -0.48,0 -1.19,2.02 -1.56,4.5 -0.37,2.47 -1.04,4.5 -1.5,4.5 -0.45,0 -1.12,2.02 -1.5,4.5 -0.37,2.47 -1.09,4.5 -1.61,4.5 -0.51,0 -0.93,1.02 -0.93,2.27 0,1.25 -0.61,3.16 -1.37,4.25 -0.75,1.08 -1.7,3.54 -2.11,5.47 -0.4,1.92 -1.08,3.95 -1.51,4.5 -0.42,0.55 -1.09,2.57 -1.5,4.5 -0.4,1.92 -1.07,3.95 -1.5,4.5 -0.42,0.55 -1.09,2.57 -1.5,4.5 -0.4,1.92 -1.07,3.95 -1.5,4.5 -0.42,0.55 -1.08,2.46 -1.46,4.24 -0.38,1.78 -1.05,3.25 -1.5,3.25 -0.44,0 -1.11,2.02 -1.48,4.5 -0.37,2.47 -1.06,4.5 -1.54,4.5 -0.47,0 -1.01,1.23 -1.18,2.75 l -0.31,2.75 -13.05,0.27 c -7.18,0.15 -13.36,-0.03 -13.75,-0.41 z m 60.3,-38.86 0,-39.5 12,0 12,0 0,39.5 0,39.49 -12,0 -12,0 0,-39.49 z m 39,0 0,-39.5 11.75,0.01 c 6.46,0 12.25,0.34 12.86,0.75 0.61,0.4 1.43,1.74 1.81,2.98 0.38,1.23 1.08,2.25 1.55,2.25 0.46,0 1.14,1.35 1.51,3 0.36,1.65 1.04,3 1.5,3 0.46,0 1.89,2.13 3.17,4.75 1.27,2.61 2.88,5.34 3.57,6.07 0.68,0.72 1.25,1.96 1.25,2.75 0,0.78 0.41,1.42 0.92,1.42 0.5,0 1.21,1.35 1.57,3 0.36,1.65 1.04,3 1.51,3 0.47,0 2.34,3.02 4.17,6.73 l 3.31,6.73 0.26,-23.23 0.26,-23.23 11.98,0 11.98,0 0,39.5 0,39.49 -11.77,0 c -12.81,0 -14.33,-0.62 -15.8,-6.48 -0.34,-1.38 -1,-2.51 -1.45,-2.51 -0.45,0 -1.86,-2.13 -3.14,-4.75 -1.27,-2.61 -2.88,-5.34 -3.57,-6.07 -0.68,-0.72 -1.25,-1.96 -1.25,-2.75 0,-0.78 -0.34,-1.42 -0.76,-1.42 -0.41,0 -1.2,-0.84 -1.75,-1.88 -0.54,-1.03 -2.29,-4.41 -3.89,-7.5 -1.6,-3.08 -3.25,-5.61 -3.67,-5.61 -0.41,0 -1.05,-1.35 -1.41,-3 -1.69,-7.72 -2.5,-1.44 -2.5,19.5 l 0,22.49 -12,0 -12,0 0,-39.49 z m 89.77,-3.6e-4 -0.27,-39.5 12.25,3.5e-4 12.25,3.6e-4 0,14.62 c 0,12.88 0.17,14.47 1.5,13.37 0.82,-0.68 1.5,-1.67 1.5,-2.19 0,-0.52 1.35,-2.3 3,-3.95 1.65,-1.65 3,-3.32 3,-3.72 0,-0.39 1.8,-2.59 4,-4.88 2.2,-2.28 4,-4.45 4,-4.81 0,-0.36 1.76,-2.41 3.91,-4.56 l 3.91,-3.91 13.83,0.27 13.83,0.27 -4.24,4.37 c -2.33,2.4 -4.24,4.65 -4.24,5.01 0,0.35 -2.7,3.4 -6,6.79 -3.3,3.38 -6,6.46 -6,6.85 0,0.38 -1.8,2.45 -4,4.58 -3.91,3.79 -4.98,5.88 -3.01,5.88 0.53,0 1.25,1.09 1.59,2.42 0.33,1.33 1.24,2.67 2.01,2.96 0.77,0.29 1.4,1.23 1.4,2.07 0,0.84 0.44,1.53 0.98,1.53 0.53,0 1.25,1.09 1.59,2.42 0.33,1.33 1.24,2.67 2.01,2.96 0.77,0.29 1.4,1.23 1.4,2.07 0,0.84 0.44,1.53 0.98,1.53 0.53,0 1.25,1.09 1.59,2.42 0.33,1.33 1.24,2.67 2.01,2.96 0.77,0.29 1.4,1.23 1.4,2.07 0,0.84 0.44,1.53005 0.98,1.53005 0.53,0 1.25,1.09 1.59,2.4199 0.33,1.3301 1.24,2.67 2.01,2.9601 0.77,0.2899 1.4,1.23 1.4,2.07 0,0.84 0.44,1.53 0.98,1.53 0.53,0 1.25,1.09 1.59,2.4199 0.33,1.3301 1.24,2.67 2.01,2.9601 0.77,0.2899 1.4,1.24 1.4,2.09 0,1.35 -1.88,1.52 -14.21,1.28 l -14.21,-0.27 -1.53,-2.96 c -0.84,-1.63 -2.09,-3.5701 -2.78,-4.3201 -0.68,-0.74 -1.25,-2 -1.25,-2.78 0,-0.7799 -0.34,-1.4199 -0.76,-1.4199 -0.75,0 -1.33,-0.9 -4.22,-6.57005 -0.81,-1.6 -2.05,-3.51 -2.75,-4.24 -0.69,-0.72 -1.26,-1.96 -1.26,-2.75 0,-0.78 -0.45,-1.42 -1,-1.42 -0.55,0 -1,-0.67 -1,-1.5 0,-2.38 -1.66,-1.76 -5.46,2.03 l -3.53,3.53 0,11.45995 0,11.4601 -11.97,0 -11.97,0 -0.27,-39.50005 z M 1101.54,606.06 c -4.29,-1.38 -13.87,-10.01 -14.67,-13.21 -0.33,-1.31 -0.91,-2.39 -1.3,-2.39 -0.65,0 -2.41,-5.57 -5.04,-16 -3.34,-13.27 -2.85,-44.5 0.79,-50.5 0.33,-0.55 0.73,-1.82 0.89,-2.82 0.15,-1 0.95,-2.49 1.77,-3.32 0.82,-0.82 1.49,-1.89 1.49,-2.38 0,-1.01 5.6,-6.96 6.56,-6.96 0.34,0 2.2,-0.74 4.12,-1.65 3.86,-1.83 5.26,-0.96 5.29,3.27 0.01,1.16 0.64,5.89 1.42,10.5 0.77,4.6 1.7,10.96 2.07,14.12 0.63,5.48 0.54,5.79 -1.91,6.91 -4.56,2.08 -7.07,15.15 -4.39,22.94 1.22,3.55 4.29,6.89 6.32,6.89 1.71,0 4.25,-3.09 4.91,-6 0.54,-2.39 1.03,-7.63 2.06,-22.15 0.26,-3.65 0.92,-8.6 1.47,-11 0.55,-2.39 1.01,-6.03 1.02,-8.09 0.01,-2.06 0.41,-3.75 0.89,-3.75 0.47,0 1.14,-1.73 1.48,-3.84 0.76,-4.8 5.38,-10.72 10.35,-13.27 3.77,-1.93 13.87,-2.36 14.94,-0.62 0.25,0.41 1.12,0.75 1.93,0.75 0.8,0 3.36,1.91 5.69,4.25 9.91,9.98 15.82,29.77 15.74,52.74 -0.02,6.87 -0.51,14.3 -1.09,16.5 -0.57,2.2 -1.48,5.73 -2.02,7.85 -0.53,2.12 -1.58,5.04 -2.34,6.5 -2.1,4.07 -10.76,12.14 -13.04,12.15 -1.11,0 -2.98,0.27 -4.15,0.58 -2.08,0.56 -2.13,0.26 -2.85,-16.86 l -0.72,-17.43 3.83,-3.72 3.83,-3.72 -0.18,-8.57 c -0.1,-4.71 -0.57,-8.84 -1.06,-9.16 -0.48,-0.32 -1.17,-1.4 -1.54,-2.4 -0.49,-1.34 -1.5,-1.73 -3.88,-1.5 -3.01,0.29 -3.29,0.66 -4.45,5.81 -0.68,3.02 -2.13,12.7 -3.22,21.5 -1.48,11.94 -2.69,17.74 -4.8,22.87 -5.63,13.75 -14.64,18.98 -26.25,15.23 z M 91.48,587.39 c -9.62,-0.38 -26.27,-0.76 -37,-0.83 -10.72,-0.07 -20.12,-0.53 -20.88,-1.01 -1.16,-0.73 -1.2,-3.5 -0.24,-17.23 2.59,-37.47 5.63,-55.72 11.18,-67.03 8.21,-16.77 23.43,-26.31 37.78,-23.67 7.76,1.42 15.54,4.06 17.72,6.01 1.13,1.01 2.39,1.84 2.78,1.84 1.91,0 8.62,8.19 11.47,14 5.46,11.15 5.96,20.6 2.81,53 -0.88,9.07 -1.88,20.88 -2.21,26.25 l -0.6,9.75 -2.65,-0.17 c -1.46,-0.09 -10.53,-0.49 -20.15,-0.87 z m 5.44,-39.19 c 1.7,-12.83 0.92,-20.97 -2.54,-26.55 -3.06,-4.93 -17.77,-9.14 -24.05,-6.89 -1.83,0.65 -3.93,1.76 -4.66,2.44 -0.72,0.68 -1.65,1.25 -2.06,1.25 -0.4,0 -1.73,1.75 -2.93,3.89 -2.32,4.13 -4.01,10.9 -5.09,20.35 l -0.65,5.75 3.34,0 c 3.19,0 13.63,1.05 28.72,2.89 3.85,0.46 7.53,0.91 8.18,0.98 0.67,0.07 1.43,-1.7 1.75,-4.12 z m 1036.16,-59.89 c -0.23,-0.74 -1.41,-5.85 -2.63,-11.35 -3.14,-14.19 -4.76,-19.21 -6.4,-19.83 -0.78,-0.3 -13.26,2.79 -27.74,6.88 -14.47,4.08 -27.29,7.43 -28.48,7.44 -1.62,0 -2.34,-0.77 -2.86,-3.12 -0.37,-1.72 -2.44,-8.56 -4.57,-15.2 -2.13,-6.63 -3.88,-12.35 -3.88,-12.71 0,-0.36 2.81,-1.59 6.25,-2.74 27.96,-9.35 49.07,-17.09 49.8,-18.27 0.71,-1.15 -2.78,-11.71 -7.99,-24.1 -1.68,-4 -3.05,-7.79 -3.05,-8.44 0,-0.99 15.8,-8.36 17.94,-8.36 1.84,0 16.13,38.37 22.72,61 3.22,11.07 9.91,37.56 10.77,42.68 l 0.67,4 -6.81,1.25 c -12.44,2.3 -13.26,2.35 -13.71,0.91 z M 101.48,464.98 c -3.02,-0.71 -9.54,-2.42 -14.49,-3.79 -4.95,-1.36 -13.5,-3.72 -19,-5.23 -5.5,-1.51 -11.23,-2.97 -12.75,-3.24 -3.23,-0.57 -3.14,-0.02 -1.18,-7.1 4.54,-16.39 9.79,-31.15 11.08,-31.15 0.76,0 3.97,0.93 7.11,2.07 3.14,1.14 11.35,4.04 18.22,6.44 6.87,2.4 15.14,5.31 18.37,6.47 3.89,1.39 6.92,1.89 9,1.46 3.49,-0.72 9.6,-4.45 9.61,-5.87 0,-0.5 0.71,-1.69 1.57,-2.64 1.99,-2.2 4.41,-11.31 3.96,-14.91 -0.39,-3.12 -2.3,-6.84 -4.52,-8.8 -1.44,-1.27 -15.21,-8.21 -16.29,-8.21 -0.28,0 -3.88,-1.57 -8,-3.5 -4.11,-1.92 -7.73,-3.5 -8.05,-3.5 -0.32,0 -3.04,-1.12 -6.05,-2.5 -3,-1.37 -6.66,-2.95 -8.13,-3.51 -2.27,-0.86 -2.56,-1.4 -1.97,-3.74 0.91,-3.64 15.19,-33.23 16.04,-33.23 1.05,0 43.66,22.04 46.98,24.31 1.65,1.12 4.83,3.87 7.06,6.11 6.09,6.1 6.79,8.3 6.85,21.57 0.04,11.39 -0.41,13.97 -4.46,25 -1.72,4.67 -3.62,9.85 -4.22,11.5 -1.98,5.42 -8.7,18.23 -10.23,19.5 -0.82,0.68 -1.49,1.83 -1.49,2.54 0,0.71 -1.12,2.18 -2.5,3.27 -1.37,1.08 -2.5,2.46 -2.5,3.07 0,0.6 -0.33,1.1 -0.75,1.1 -0.41,6.7e-4 -2.05,1.12 -3.65,2.5 -1.59,1.37 -3.47,2.49 -4.16,2.49 -0.69,0 -1.42,0.5 -1.63,1.11 -0.55,1.65 -13.42,1.92 -19.79,0.41 z m 940.04,-61.75 c -1.28,-2.9 -4.52,-9.73 -7.19,-15.17 -2.66,-5.44 -4.85,-10.43 -4.85,-11.08 0,-0.65 1.33,-2.49 2.97,-4.1 3.71,-3.64 3.73,-5.07 0.14,-11.64 -12.72,-23.27 -15.81,-27.31 -19.25,-25.18 -0.63,0.39 -2.61,0.84 -4.38,1 -3.08,0.27 -3.57,-0.21 -10.85,-10.9 -4.19,-6.15 -8.55,-12.42 -9.7,-13.94 -1.14,-1.51 -1.7,-2.75 -1.24,-2.75 0.45,-4.5e-4 4.2,-0.71 8.33,-1.58 4.12,-0.87 8.85,-1.74 10.5,-1.94 1.65,-0.2 4.12,-0.58 5.5,-0.86 6.15,-1.22 8.88,-1.61 14.5,-2.05 3.3,-0.26 7.57,-0.73 9.5,-1.04 1.92,-0.31 5.97,-0.77 9,-1.02 3.02,-0.25 7.52,-0.68 10,-0.97 2.47,-0.28 8.83,-0.73 14.14,-0.99 l 9.64,-0.48 3.93,6.23 c 5.73,9.09 10.66,17.49 13.82,23.6 l 2.78,5.36 -1.91,3.63 c -1.97,3.74 -2.83,5.02 -5.41,8.02 -0.82,0.95 -2.37,3.28 -3.45,5.17 -1.91,3.37 -2.8,4.61 -5.3,7.39 -0.68,0.76 -1.25,1.89 -1.25,2.49 0,0.6 -0.67,1.36 -1.5,1.67 -0.82,0.31 -1.5,1.05 -1.5,1.63 0,0.85 -20.02,27.98 -21.94,29.73 -0.3,0.27 -2.34,2.75 -4.53,5.5 -2.19,2.75 -4.91,6.02 -6.05,7.28 l -2.07,2.28 -2.34,-5.28 z m 8.95,-52.28 c 0.52,-1.37 1.41,-2.5 1.97,-2.5 0.56,0 1.02,-0.56 1.02,-1.25 0,-0.68 1.67,-3.05 3.72,-5.25 2.04,-2.2 3.73,-4.3 3.74,-4.67 0.02,-0.66 1.55,-2.42 6.48,-7.43 l 2.46,-2.5 -5.46,0.63 c -8.19,0.94 -10.46,1.27 -10.46,1.49 0,0.1 -2.25,0.38 -5,0.6 -2.75,0.22 -5.67,0.7 -6.5,1.05 -0.82,0.35 -2.76,0.75 -4.3,0.87 -4.04,0.32 -4.42,1.22 -1.61,3.82 1.36,1.26 4.23,5.74 6.37,9.96 4.07,8.03 5.96,9.32 7.55,5.16 z M 182.48,336.67 c -17.56,-11.59 -42.6,-27.22 -43.62,-27.22 -1.1,0 -9.33,12.74 -15.93,24.67 l -2.86,5.17 -8.53,-4.53 c -4.69,-2.49 -8.91,-4.88 -9.37,-5.31 -0.46,-0.42 0.25,-2.51 1.59,-4.63 1.33,-2.12 4.39,-7.23 6.79,-11.36 13.98,-24.09 36.3,-56.03 51.74,-74.07 2.56,-3 5.25,-2.25 11.2,3.11 3.02,2.73 5.83,4.96 6.25,4.96 2.2,0 -0.03,4.21 -6.58,12.37 -4.03,5.02 -8.57,10.8 -10.09,12.84 l -2.75,3.71 2.84,2.63 c 2.42,2.25 8.28,6.62 21.35,15.93 5.76,4.1 16.53,11.99 17.98,13.17 0.82,0.67 2.6,2.08 3.95,3.14 2.23,1.75 2.32,2.11 1,3.97 -0.8,1.12 -5.01,7.25 -9.36,13.62 -4.35,6.37 -8.4,11.54 -9,11.5 -0.59,-0.04 -3.56,-1.7 -6.58,-3.7 z m 804,-42.22 c 0,-0.31 -0.91,-0.63 -2.02,-0.72 -1.11,-0.08 -4.48,-1.27 -7.49,-2.65 -4.42,-2.02 -9.89,-6.94 -28.72,-25.86 -12.79,-12.85 -25.66,-25.51 -28.6,-28.13 l -5.35,-4.77 2.35,-2.66 c 1.29,-1.46 2.57,-2.89 2.85,-3.17 0.27,-0.27 2.97,-3.42 6,-6.99 6.69,-7.9 9.28,-10.9 15.6,-18.03 2.69,-3.03 6.91,-7.92 9.39,-10.85 2.47,-2.93 5.33,-6.29 6.35,-7.47 1.01,-1.17 3.69,-4.28 5.93,-6.89 2.24,-2.61 4.78,-4.73 5.64,-4.72 1.78,0.03 7.96,5.68 30.43,27.82 19.05,18.78 32.75,36.23 33.91,43.19 0.22,1.34 0.76,3.26 1.19,4.26 1.42,3.28 -0.22,11.9 -2.7,14.14 -7.19,6.51 -11.66,7.44 -19.38,4.03 -3.13,-1.38 -5.83,-2.38 -6,-2.2 -0.17,0.17 0.36,2.53 1.18,5.26 1.69,5.6 2.01,11.92 0.77,15.08 -1.27,3.22 -11.78,11.64 -14.05,11.26 -0.43,-0.07 -1.01,-0.04 -1.29,0.06 -1.28,0.51 -6,0.53 -6,0.03 z m -4.53,-33.55 c 3.31,-4.38 1.2,-8.93 -9.45,-20.43 l -8.39,-9.05 -5.3,5.23 c -2.91,2.88 -5.3,5.71 -5.3,6.29 0,1.41 16.08,17.35 19.1,18.93 3.36,1.75 7.62,1.3 9.35,-0.98 z m 18.73,-21.42 c 0.38,0 0.97,-1.47 1.3,-3.26 0.9,-4.85 -1.5,-9.3 -9.74,-17.98 l -7.33,-7.73 -5.21,5.13 c -2.87,2.82 -5.21,5.45 -5.21,5.85 0,1.11 16.19,16.2 18.99,17.69 1.37,0.73 3.4,1.1 4.5,0.82 1.1,-0.27 2.31,-0.51 2.7,-0.52 z m -777.35,25.18 c -1.45,-0.17 -6.4,-2.24 -11,-4.59 -6.49,-3.33 -9.29,-5.47 -12.62,-9.69 -2.35,-2.97 -4.71,-5.95 -5.25,-6.61 -0.53,-0.66 -0.96,-1.81 -0.96,-2.55 0,-0.73 -0.56,-1.9 -1.25,-2.59 -0.85,-0.85 -1.22,-4.62 -1.16,-11.95 0.07,-9.33 0.43,-11.52 2.85,-17.19 3.05,-7.17 9.1,-16.67 13.93,-21.86 4.53,-4.88 21.57,-19.13 22.86,-19.13 0.6,0 1.88,-0.7 2.84,-1.57 0.95,-0.86 2.34,-1.67 3.07,-1.79 0.73,-0.12 2.23,-0.71 3.33,-1.32 1.82,-1 8.83,-3.21 12.5,-3.93 3.31,-0.65 11.65,-0.61 14,0.06 6.16,1.79 16.19,7.74 14.98,8.88 -0.26,0.25 -6.11,4.85 -12.98,10.22 -6.87,5.37 -12.65,10.14 -12.83,10.61 -0.45,1.15 -4.16,1.07 -4.16,-0.09 0,-1.3 -8.16,-2.4 -11.83,-1.59 -3.25,0.71 -16.5,12.18 -15.66,13.54 0.28,0.45 -0.08,1.42 -0.81,2.15 -1.51,1.51 -1.99,11.52 -0.6,12.38 0.5,0.31 0.91,1.34 0.91,2.3 0,2.24 11.71,14.13 13.92,14.13 0.92,0 2.12,0.44 2.66,0.98 1.44,1.44 7.2,1.85 11.34,0.8 4.42,-1.12 13.14,-8.99 15.27,-13.79 2.48,-5.6 2.56,-6.29 1.18,-10.27 -1.54,-4.44 -2.31,-3.57 15.09,-17.07 7.49,-5.81 11.22,-8.14 11.75,-7.33 1.19,1.84 3.52,10.36 3.87,14.18 0.14,1.55 -1.19,8.6 -2.07,10.91 -0.43,1.14 -0.89,2.53 -1.01,3.08 -0.7,3.08 -3.36,8.5 -4.17,8.5 -0.52,0 -0.7,0.39 -0.4,0.88 0.3,0.48 -0.12,1.44 -0.94,2.12 -0.81,0.67 -1.48,1.82 -1.48,2.54 0,2.41 -24.04,25.44 -26.56,25.44 -0.62,0 -1.93,0.88 -2.91,1.97 -0.98,1.08 -2.12,1.76 -2.54,1.51 -0.41,-0.25 -1.3,0.2 -1.98,1.02 -0.67,0.81 -2.08,1.48 -3.11,1.48 -1.03,0 -1.87,0.52 -1.87,1.16 0,0.64 -0.28,0.88 -0.62,0.53 -0.34,-0.34 -1.8,-0.02 -3.25,0.71 -3.87,1.97 -16.15,3.51 -22.27,2.78 z m 661.64,-61.21 c -0.34,-0.55 -1.01,-0.77 -1.48,-0.48 -1.22,0.75 -15.69,-4.2 -20.67,-7.08 -2.29,-1.32 -4.83,-2.41 -5.62,-2.41 -0.79,0 -2.04,-0.72 -2.78,-1.6 -0.73,-0.88 -3.82,-3.3 -6.87,-5.38 -7.06,-4.82 -16.04,-13.98 -20.47,-20.87 -4.04,-6.29 -7.36,-16.75 -7.35,-23.12 0.01,-4.93 2.32,-16.27 3.92,-19.27 2.45,-4.58 11.42,-13.72 13.46,-13.72 0.67,0 1.37,-0.42 1.55,-0.93 0.55,-1.56 14.04,-4.81 18.83,-4.54 12.24,0.69 24.22,3.62 32.99,8.08 6.29,3.19 20.42,12.56 23.78,15.76 1.8,1.72 5.97,6.59 9.25,10.82 10.01,12.92 13.97,27.71 10.13,37.82 -0.51,1.35 -0.92,2.69 -0.91,2.97 0.01,0.27 -0.92,2.37 -2.09,4.67 -4.21,8.25 -13.89,15.69 -25.06,19.24 -4.3,1.36 -19.77,1.41 -20.61,0.06 z m -1.73,-26.01 c 0.13,-0.11 0.58,-0.31 1,-0.42 5.61,-1.56 11.6,-7.42 14.99,-14.68 2.81,-6.03 2.45,-14.7 -0.81,-19.26 -3.89,-5.42 -12.98,-11.59 -17.07,-11.59 -0.95,0 -1.97,-0.38 -2.26,-0.86 -0.65,-1.06 -3.75,-0.76 -9.37,0.92 -10.37,3.1 -18.25,16.95 -15.91,27.94 1.46,6.88 11.15,16.21 18.07,17.41 1.57,0.27 3.01,0.64 3.19,0.82 0.34,0.34 7.75,0.09 8.18,-0.26 z m -562.65,19.27 c -1.68,-2.6 -7.59,-11.26 -13.12,-19.24 -5.53,-7.97 -11.58,-16.75 -13.45,-19.5 -1.86,-2.75 -6.13,-9.02 -9.48,-13.95 -3.35,-4.92 -5.87,-9.52 -5.6,-10.23 0.27,-0.7 3.77,-3.39 7.77,-5.97 11.03,-7.1 23.03,-14.34 23.77,-14.34 0.36,0 3.71,5.17 7.44,11.5 3.73,6.32 6.97,11.5 7.19,11.5 0.22,0 2.08,-1.05 4.13,-2.34 2.05,-1.29 9.46,-5.37 16.48,-9.08 7.01,-3.7 12.75,-6.9 12.75,-7.11 0,-0.2 -2.47,-5.4 -5.5,-11.53 -3.02,-6.13 -5.5,-11.7 -5.5,-12.37 0,-0.66 3.71,-2.92 8.25,-5.01 16.26,-7.5 18.3,-8.41 22.12,-9.95 2.12,-0.85 4.04,-1.56 4.26,-1.56 0.51,0 4.9,9.86 7.9,17.77 1.31,3.44 3.04,7.72 3.84,9.5 0.8,1.77 3.78,8.85 6.61,15.72 2.83,6.87 6.65,16.1 8.47,20.5 5.46,13.16 6.57,11.17 -10.52,18.92 -8.27,3.75 -15.21,6.65 -15.4,6.44 -0.19,-0.2 -3.38,-6.44 -7.09,-13.86 -3.7,-7.42 -6.83,-13.62 -6.95,-13.77 -0.11,-0.15 -3.02,1.31 -6.45,3.25 -3.43,1.93 -6.42,3.52 -6.64,3.52 -0.3,0 -17.46,9.44 -19.18,10.56 -0.16,0.1 3.32,6.37 7.75,13.92 4.42,7.55 8.04,13.9 8.04,14.12 0,0.21 -0.43,0.39 -0.95,0.39 -0.52,0 -6.03,3.29 -12.25,7.33 -16.78,10.89 -15.11,10.45 -18.69,4.91 z M 791.99,156 c -1.65,-0.78 -7.5,-3.2 -13,-5.37 -15.41,-6.08 -15.72,-6.25 -15.16,-8.59 0.26,-1.12 1.62,-5.25 3,-9.17 2.15,-6.11 2.36,-7.71 1.46,-11.25 -0.57,-2.26 -1.41,-4.12 -1.85,-4.12 -0.44,0 -1.53,-0.73 -2.43,-1.62 -1.48,-1.48 -19.6,-8.37 -22.03,-8.37 -0.57,0 -1.62,2.13 -2.34,4.75 -2.14,7.81 -6.34,21.72 -6.66,22.08 -0.16,0.18 -4.49,-0.81 -9.63,-2.22 -5.13,-1.4 -12.23,-3.25 -15.77,-4.11 -3.54,-0.85 -6.66,-1.77 -6.93,-2.04 -0.26,-0.26 0.07,-2.84 0.76,-5.72 0.68,-2.87 1.68,-7.25 2.21,-9.73 6.3,-29.27 11.06,-51.52 11.99,-56 1.75,-8.53 1.54,-8.23 5.16,-7.47 3.72,0.77 25.75,6.2 30.25,7.44 19.71,5.45 36.87,11.33 45.01,15.43 9.04,4.55 18.48,12.28 18.48,15.14 0,0.8 0.41,1.45 0.91,1.45 0.5,0 1.36,2.11 1.92,4.69 0.89,4.2 0.71,5.33 -1.78,10.83 -4.16,9.19 -7.18,10.63 -23.85,11.41 -0.71,0.03 0.69,1.97 3.12,4.31 8.85,8.5 9.41,13.51 3.07,27.38 -1.35,2.95 -2.51,6.94 -2.58,8.86 -0.07,1.92 -0.17,3.48 -0.21,3.47 -0.04,-0.01 -1.43,-0.66 -3.08,-1.45 z M 779.21,95.59 c 1.98,-1.06 3.77,-6.14 2.15,-6.14 -0.45,0 -0.63,-0.56 -0.38,-1.25 1.21,-3.45 -6.66,-7.15 -28.17,-13.22 -1.91,-0.54 -2.34,0 -3.68,4.67 -2.82,9.85 -2.96,10.79 -1.5,10.8 0.74,0 5.97,1.49 11.62,3.3 10.29,3.3 16.19,3.84 19.97,1.82 z m -306.22,32.76 c 0.36,-3.99 3.2,-18.17 4.18,-20.89 0.29,-0.82 0.71,-3.26 0.93,-5.41 0.21,-2.15 0.79,-4.4 1.28,-5 0.49,-0.59 1.69,-4.91 2.68,-9.58 0.98,-4.67 2.11,-8.72 2.5,-9 0.39,-0.27 1.29,-3.31 2,-6.75 0.7,-3.43 1.58,-6.24 1.95,-6.24 0.36,0 0.92,-1.91 1.24,-4.24 0.32,-2.33 1.32,-5.73 2.23,-7.54 0.9,-1.81 1.75,-3.83 1.89,-4.5 0.53,-2.58 2.54,-6.7 3.28,-6.73 0.42,-0.01 5.27,-0.7 10.77,-1.51 5.5,-0.81 13.99,-1.98 18.87,-2.59 l 8.87,-1.1 3.12,3.42 c 1.71,1.88 4.01,5.09 5.1,7.12 1.08,2.03 2.32,3.7 2.75,3.7 0.42,0 0.77,0.67 0.77,1.5 0,0.82 0.34,1.5 0.77,1.5 0.42,0 1.66,1.65 2.75,3.67 1.08,2.02 2.43,4.15 2.99,4.75 0.56,0.59 2.57,3.54 4.48,6.57 1.9,3.02 3.8,5.65 4.22,5.83 0.42,0.18 0.76,1 0.76,1.81 0,0.81 1.12,2.95 2.5,4.76 1.37,1.8 2.5,3.64 2.5,4.08 0,0.44 1.12,2.28 2.5,4.08 1.37,1.8 2.5,3.98 2.5,4.84 0,0.86 0.33,1.57 0.75,1.57 0.41,0 1.23,1.01 1.83,2.25 0.59,1.23 2.74,5.34 4.77,9.12 2.03,3.78 3.55,7.03 3.38,7.2 -0.44,0.44 -25.11,2.4 -30.26,2.4 -3.12,0 -4.4,-0.45 -4.87,-1.75 -2.25,-6.15 -3.55,-7.25 -8.59,-7.25 -2.69,0 -7.05,0.42 -9.69,0.93 -2.63,0.51 -8.62,1.5 -13.29,2.2 -4.67,0.69 -9.02,1.78 -9.66,2.4 -0.64,0.62 -1.47,3.21 -1.85,5.76 -0.79,5.27 0.25,4.71 -15.47,8.13 -6.32,1.37 -12.92,2.91 -14.67,3.43 l -3.17,0.93 0.35,-3.91 z m 45.15,-33.32 c 3.2,-0.78 8.49,-1.68 11.74,-2 3.25,-0.31 6.04,-0.7 6.2,-0.86 0.15,-0.15 -0.36,-1.39 -1.15,-2.74 -0.78,-1.35 -1.71,-3.25 -2.06,-4.21 -0.34,-0.96 -0.98,-1.75 -1.42,-1.75 -0.43,0 -1.82,-2.13 -3.08,-4.75 -1.25,-2.61 -2.87,-5.34 -3.58,-6.07 -0.71,-0.72 -1.3,-1.9 -1.3,-2.62 0,-0.71 -0.67,-1.86 -1.5,-2.55 -0.82,-0.68 -1.5,-2.08 -1.5,-3.12 0,-1.03 -0.39,-1.87 -0.87,-1.87 -0.94,0 -2.12,4.78 -2.12,8.62 0,1.3 -0.45,2.37 -1,2.37 -0.55,0 -1,1.32 -1,2.94 0,1.61 -0.43,3.2 -0.95,3.53 -0.52,0.32 -0.71,1.21 -0.42,1.98 0.29,0.76 0.09,2.21 -0.44,3.21 -1.13,2.12 -2.65,11.32 -1.87,11.32 0.29,0 3.15,-0.64 6.36,-1.42 z m 157.33,26.82 c -20.46,-3.28 -54.11,-6.34 -70.09,-6.38 l -9.59,-0.02 -0.65,-20.25 c -0.36,-11.13 -0.65,-29.63 -0.65,-41.1 l 0,-20.85 19.75,0.68 c 19.08,0.66 42.25,2.47 56.75,4.43 30.99,4.19 27.91,3.17 27.09,8.89 -1.86,13.06 -2.05,13.7 -4.11,13.49 -1.08,-0.11 -8.27,-1.09 -15.97,-2.18 -18.62,-2.63 -30.61,-3.98 -38.5,-4.32 l -6.5,-0.28 -0.29,5.75 c -0.21,4.2 0.05,5.75 1,5.76 7.76,0.06 44.96,4.3 49.12,5.6 1,0.31 1.6,1.12 1.34,1.8 -0.26,0.67 -0.78,4.17 -1.17,7.76 -0.98,9.17 -1.14,9.33 -8.14,8.04 -10.1,-1.86 -41.32,-5.06 -43.22,-4.43 -0.67,0.22 -1.12,2.89 -1.12,6.67 l 0,6.3 5.25,0.63 c 2.88,0.34 9.75,1.07 15.25,1.61 5.5,0.53 12.7,1.39 16,1.9 3.3,0.51 9.48,1.46 13.75,2.12 7.14,1.09 7.75,1.37 7.75,3.55 0,4.85 -2.44,16.39 -3.45,16.28 -0.57,-0.06 -4.87,-0.72 -9.54,-1.47 z" style="fill:#000000" /><path d="m 438.84,899.99 c -5.73,-1.59 -37.53,-18.03 -46.81,-24.19 -9.4,-6.24 -15.98,-13.12 -28.51,-29.81 -32.63,-43.48 -34.29,-55.29 -10.24,-72.94 3.6,-2.64 6.55,-5.13 6.55,-5.52 0,-0.99 12.45,-11.26 19.57,-16.14 9,-6.16 13.56,-10.97 25.89,-27.33 6.22,-8.25 14.66,-18.6 18.75,-23 8.97,-9.63 10.11,-11.6 9.21,-15.8 -1.72,-7.99 -5.4,-12.21 -24.94,-28.6 -20.46,-17.16 -28.53,-25.56 -42.79,-44.57 -12.83,-17.1 -32.1,-48.28 -36.96,-59.83 -1.58,-3.75 -4.83,-14.55 -7.23,-24 -2.39,-9.44 -5.08,-19.19 -5.96,-21.66 -4.69,-13.08 -5.88,-20.25 -5.89,-35.51 0,-15.86 0.42,-18.34 6.41,-37.24 1.61,-5.08 4.48,-15.24 6.38,-22.58 4.37,-16.91 9.78,-31.32 17.4,-46.34 3.29,-6.5 7.66,-16.1 9.71,-21.32 2.04,-5.22 4.71,-11.52 5.94,-14 1.23,-2.47 4.17,-11.47 6.54,-20 4.24,-15.26 4.31,-15.82 5.02,-36.5 0.39,-11.55 1.18,-22.47 1.76,-24.28 5.21,-16.27 19.1,-17.7 35.21,-3.62 11.02,9.63 16.37,15.15 25.58,26.4 5.17,6.32 11.91,14.42 14.97,18 9.86,11.52 19.87,30.19 30.56,57 2.74,6.87 8.16,18.7 12.04,26.28 6.75,13.19 7.46,14.15 16.52,22.47 10.52,9.66 15.82,16.56 22.55,29.39 2.49,4.75 6.37,11.33 8.6,14.6 5.61,8.22 8.74,15.42 11.62,26.79 3.09,12.18 3.18,22.53 0.33,37.09 -2.71,13.86 -2.3,31.59 0.93,40.65 2.57,7.21 7.75,14.54 12.04,17.04 3.24,1.89 3.26,1.89 5.67,-0.36 2.83,-2.66 4.01,-5.97 5.46,-15.27 1.55,-9.95 5.11,-18.51 13.78,-33.07 8.79,-14.78 15.84,-22.57 27.41,-30.29 11.33,-7.57 25.21,-12.15 47.8,-15.77 5.22,-0.83 15.73,-3.54 23.36,-6.01 22.91,-7.42 39.23,-9.97 45.94,-7.17 6.63,2.77 6.97,4.7 6.77,39.14 -0.21,37.97 -0.95,45.45 -7.69,78.1 -2.35,11.41 -7.33,20.53 -16.17,29.64 -19.48,20.08 -38.34,32.53 -54.98,36.31 -9.28,2.1 -10.01,2.36 -11.72,4.07 -5.13,5.13 2.94,12.77 16.3,15.4 14.63,2.87 33.32,-0.28 55.19,-9.33 14.34,-5.94 19.12,-6.97 29.88,-6.47 7.26,0.33 11.44,1.13 17.11,3.24 4.12,1.53 14.02,5.13 22,7.99 7.97,2.86 19.88,7.56 26.46,10.44 6.58,2.88 23.9,8.83 38.5,13.22 14.59,4.38 33.73,10.84 42.53,14.35 8.8,3.5 21.85,8.49 29,11.07 15.83,5.71 20.42,7.97 32,15.74 4.95,3.32 13.04,8.49 17.98,11.49 12.32,7.47 22.15,15.02 32.02,24.6 11.35,11.01 13.11,17.13 7,24.38 -3.48,4.13 -10.01,6.65 -29.27,11.3 -15.42,3.71 -18.41,4.83 -37.75,14.1 -11.55,5.53 -22.57,11.37 -24.5,12.98 -18.85,15.7 -23.78,19.11 -38.77,26.82 -5.34,2.74 -13.32,7.02 -17.72,9.49 -11.15,6.27 -21.48,10.1 -39.5,14.66 -8.52,2.15 -20.22,5.43 -26,7.27 -16.72,5.34 -21.09,6.02 -39,6.02 -18.23,0 -21.91,-0.59 -41,-6.64 -6.87,-2.17 -17.22,-4.81 -23,-5.85 -14.6,-2.63 -20.75,-4.96 -34,-12.84 -6.32,-3.76 -16.9,-9.8 -23.51,-13.42 -6.6,-3.61 -15.7,-9.18 -20.21,-12.38 -4.51,-3.19 -16.1,-11.43 -25.76,-18.3 -25.97,-18.48 -25.99,-18.5 -32.05,-18.5 -4.34,0 -6.09,0.6 -10.57,3.64 -2.95,2 -8.07,5.11 -11.37,6.91 -10.09,5.49 -16.14,10.74 -23.39,20.29 -3.81,5.03 -10.95,12.99 -15.86,17.69 -8.3,7.95 -9.07,9.02 -11.04,15.49 -4.03,13.23 -13.63,30.82 -20.62,37.82 -7.43,7.43 -17.23,9.95 -27.54,7.08 z M 462.31,793.1 c 3.85,-0.79 12.11,-1.9 18.36,-2.48 8.12,-0.74 12.83,-1.71 16.52,-3.4 7.01,-3.21 30.38,-17.8 35.74,-22.32 2.39,-2.01 8.43,-6.7 13.42,-10.42 6.28,-4.68 12.87,-11.08 21.5,-20.88 15.52,-17.64 21.58,-26.55 27.55,-40.54 2.58,-6.05 6.14,-13.92 7.92,-17.5 1.77,-3.57 4.4,-10.94 5.85,-16.37 3.22,-12.11 8.13,-22.76 17.1,-37.03 7.73,-12.3 15.61,-21.22 23.94,-27.09 16.28,-11.48 18.85,-13.98 34.91,-33.97 8.84,-11.01 16.91,-21.59 17.92,-23.52 1.53,-2.9 1.79,-5.29 1.52,-14 -0.28,-9.37 -0.62,-11.01 -3.12,-15.27 -3.54,-6.04 -8.73,-9.48 -16.45,-10.92 -8.53,-1.58 -16.66,0.56 -28.53,7.56 -14.28,8.41 -18.91,12.68 -30.41,28.02 -5.82,7.76 -11.79,15.68 -13.27,17.61 -1.47,1.92 -7.48,10.08 -13.33,18.14 -14.47,19.9 -22.33,26.7 -40.69,35.22 -3,1.39 -10.87,6.36 -17.47,11.04 -10.86,7.69 -25.43,17.62 -35.97,24.49 -6.27,4.09 -19.09,16.72 -27.53,27.13 -4.25,5.24 -10.6,12.66 -14.11,16.5 -8.59,9.37 -10.61,12.38 -11.78,17.56 -0.54,2.41 -4.21,14.29 -8.15,26.39 -6.91,21.23 -7.18,22.42 -7.67,34.12 -0.96,22.95 0.89,27.75 12.08,31.3 7.57,2.4 5.9,2.32 14.17,0.62 z" style="fill:#ff0000;fill-opacity:1" /></svg>
