<?xml version="1.0" standalone="no"?>
<!DOCTYPE svg PUBLIC "-//W3C//DTD SVG 1.2//EN" "http://www.w3.org/Graphics/SVG/1.2/DTD/svg12.dtd">
<svg xmlns="http://www.w3.org/2000/svg" version="1.2" baseProfile="tiny" id="selectedFigureSvg" width="600px" height="600px" viewBox="-40.99 -31.93 109.99 167.55"><g id="sequence"><g id="figure-2"><path d="M 0,0 m -4,0 a4,4 0 1 1 0,0.01" style="stroke: black; stroke-width: 1px; fill: black;"/><path d="M 4,0 l 40,0" style="stroke-dasharray: 5, 3; stroke: red; stroke-width: 1.5px; fill: none; vector-effect: non-scaling-stroke;" class="line" id="figure-2-entry"/><path d="M 44,0 l 0,20" style="stroke: black; stroke-width: 1.5px; fill: none; vector-effect: non-scaling-stroke;" class="line" id="figure-2-roll0-gap0"/><path d="M 44,20 m 15.25,0 l 0,8 " style="stroke: black; stroke-width: 1.5px; fill: none; vector-effect: non-scaling-stroke;"/><path d="M 44,20 m 16,0 l -24,12 l 0,-12 z" style="stroke: black; stroke-width: 1.5px; fill: red;"/><path d="M 44,28 l 0,60" style="stroke: black; stroke-width: 1.5px; fill: none; vector-effect: non-scaling-stroke;" class="line" id="figure-2-roll0-gap1"/><path d="M 44,88 a40,40 0 0 1 -11.72,28.28" style="stroke: black; stroke-width: 1.5px; fill: none; vector-effect: non-scaling-stroke;"/><path d="M 32.28,116.28 a40,40 0 0 1 -28.28,11.72" style="stroke: black; stroke-width: 1.5px; fill: none; vector-effect: non-scaling-stroke;"/><path d="M 4,128 a40,40 0 0 1 -28.28,-11.72" style="stroke: black; stroke-width: 1.5px; fill: none; vector-effect: non-scaling-stroke;"/><path d="M -24.28,116.28 a40,40 0 0 1 28.28,-68.28" style="stroke: black; stroke-width: 1.5px; fill: none; vector-effect: non-scaling-stroke;"/><path d="M 4,48 l 60,0" style="stroke-dasharray: 5, 3; stroke: red; stroke-width: 1.5px; fill: none; vector-effect: non-scaling-stroke;" class="line" id="figure-2-exit"/><path d="M 64,48 m 0,10 l 0,-20" style="stroke: black; stroke-width: 1.5px; fill: none; vector-effect: non-scaling-stroke;"/></g></g></svg>