<?xml version="1.0" encoding="UTF-8" standalone="no"?>
<!-- Created with Inkscape (http://www.inkscape.org/) -->

<svg
   xmlns:dc="http://purl.org/dc/elements/1.1/"
   xmlns:cc="http://creativecommons.org/ns#"
   xmlns:rdf="http://www.w3.org/1999/02/22-rdf-syntax-ns#"
   xmlns:svg="http://www.w3.org/2000/svg"
   xmlns="http://www.w3.org/2000/svg"
   version="1.1"
   width="56.338001in"
   height="56.338001in"
   viewBox="0 0 4000 4000"
   id="svg3068">
  <metadata
     id="metadata3075">
    <rdf:RDF>
      <cc:Work
         rdf:about="">
        <dc:format>image/svg+xml</dc:format>
        <dc:type
           rdf:resource="http://purl.org/dc/dcmitype/StillImage" />
        <dc:title></dc:title>
      </cc:Work>
    </rdf:RDF>
  </metadata>
  <defs
     id="defs3073" />
  <path
     d="m 3998.59,0.46 c 0,1332.66 0,2665.33 0,3997.99 -1332.66,0 -2665.33,0 -3998.00,0 0,-1332.66 0,-2665.33 0,-3997.99 1332.66,0 2665.33,0 3998.00,0 z M 25.59,523.46 c 0,985.66 0,1971.33 0,2956.99 649.66,0 1299.33,0 1949.00,0 -721.18,-1.89 -1391.79,-609.95 -1444.18,-1332.96 -15.56,-150.66 -8.08,-303.88 24.18,-451.95 -126.98,-6.15 -262.85,25.16 -381.34,-35.53 -136.18,29.06 -53.80,-228.85 46.33,-141.54 85.31,-75.73 -112.65,-253.08 48.77,-269.81 118.08,14.51 214.14,-102.62 307.27,-119.10 73.85,72.10 227.59,133.11 255.37,-10.81 C 888.89,1009.00 971.18,911.51 1078.65,848.06 1322.88,661.74 1620.71,539.50 1929.19,524.93 1294.66,521.57 660.12,524.40 25.59,523.46 z m 2010.00,0 c 520.35,14.83 1027.81,322.10 1264.54,788.66 83.65,48.24 261.37,108.61 154.15,227.28 -47.09,144.27 -25.01,342.91 123.98,418.15 82.10,38.35 196.64,21.26 252.00,104.19 24.05,134.03 -158.04,83.39 -235.21,60.25 -104.48,-17.68 -151.98,99.59 -162.51,183.54 -18.67,208.30 -122.02,398.83 -243.08,565.33 -261.55,345.89 -671.75,591.53 -1110.62,605.67 610.54,9.09 1221.17,1.07 1831.75,3.88 0,-985.66 0,-1971.33 0,-2956.99 -625,2e-4 -1250,-4e-4 -1875,3e-4 z"
     id="white"
     style="fill:#ffffff;fill-opacity:1;stroke:none" />
  <path
     d="m 1950.37,601.98 c 3.72,1.25 8.85,5.43 12,7.88 0,0 22,17.97 22,17.97 5.29,4.3 10.86,8.33 14,14.61 3.27,6.54 2.61,13.97 3.09,21 0,0 2,30 2,30 0,0 5,75 5,75 0,0 1.91,27 1.91,27 0.02,4.82 0.46,12.66 -1.13,17 -2.84,7.73 -16.74,20.37 -22.59,27 -3.72,4.22 -14.6,16.83 -19.32,18.53 -4.51,1.62 -23.02,2.15 -28.96,2.56 0,0 -40,3 -40,3 0,0 -10,0.91 -10,0.91 -3.25,0.03 -10.18,0.28 -13,-0.72 -3.26,-1.17 -8.17,-5.41 -11,-7.68 0,0 -18,-14.6 -18,-14.6 -6.1,-4.9 -14.49,-10.63 -17.52,-18 -2.69,-6.57 -2.1,-13.21 -2.57,-20 0,0 -2,-30 -2,-30 0,0 -4.91,-67 -4.91,-67 0,0 0,-9 0,-9 0,0 -2,-25 -2,-25 -0.05,-5 -0.46,-13.5 1.11,-18 2.59,-7.47 19.65,-24.61 25.88,-31 4.92,-5.06 10.2,-13.06 17.01,-15.2 0,0 24,-1.89 24,-1.89 0,0 34,-2.82 34,-2.82 0,0 22,-1.55 22,-1.55 3.05,-0.49 5.99,-0.82 9,0 z m 199,7.31 c 0,0 50,6.88 50,6.88 6.53,0.93 17.59,1.54 22.96,4.88 5.75,3.57 17.65,20.21 22.46,26.39 3.67,4.71 13.42,15.72 14.36,21 1.1,6.23 -2.31,29.45 -3.36,37 -0.75,5.44 -0.9,10.18 -4.12,15 -3.39,5.09 -9.84,9.88 -14.3,14.09 -1.72,1.63 -4.85,4.43 -5.05,6.91 -0.23,2.94 7.2,12.22 9.19,15 4.4,6.14 18.87,25.34 20.89,31 0.95,2.66 1.04,5.2 0.93,8 0,0 -3.69,29 -3.69,29 -0.69,4.82 -1.22,10.89 -3.97,15 -3.4,5.08 -20.47,17.41 -26.3,22 -3.64,2.86 -16.61,13.34 -20,14.44 -1.96,0.64 -4.92,0.59 -7,0.55 0,0 -37,-4.86 -37,-4.86 0,0 -64,-8.86 -64,-8.86 -8.54,-1.23 -24.71,-1.1 -28.26,-10.27 -0.9,-2.33 -0.77,-6.44 -0.74,-9 0,0 8.72,-71 8.72,-71 0,0 13.86,-108 13.86,-108 0,0 5.14,-40 5.14,-40 0.94,-7.24 0.94,-13.25 7.32,-17.98 9.52,-3.24 31.33,1.55 41.96,2.83 z m -246,22.24 c 0,0 -8,0.87 -8,0.87 -3.77,0.17 -17.25,0.68 -20,2.06 -3.36,1.69 -6.63,6.15 -9.16,8.98 0,0 -12.1,14 -12.1,14 -2.91,4.74 -1.39,9.9 -0.91,15 0,0 1,15 1,15 0,0 1.26,24 1.26,24 0,0 2.91,42 2.91,42 0,0 0.91,11 0.91,11 0,0 1.18,23 1.18,23 0,0 0.87,8 0.87,8 0.19,4.26 0.19,16.46 2.06,19.83 1.16,2.08 5.07,5.26 6.98,6.9 4.02,3.45 14.55,13.72 19,14.83 0,0 22,-1.52 22,-1.52 0,0 9,0 9,0 0,0 20,-2.11 20,-2.11 0,0 8,0 8,0 7.69,-1.48 16.7,-14.07 21.83,-19.93 2.87,-3.28 4.77,-5.53 5.11,-10 0,0 -1.85,-26 -1.85,-26 0,0 -2.18,-36 -2.18,-36 0,0 -1.91,-25 -1.91,-25 0,0 -0.91,-14 -0.91,-14 0,0 -1.92,-30 -1.92,-30 -0.42,-4.4 -0.28,-16.13 -1.77,-19.96 -1.24,-3.2 -6.69,-7.31 -9.4,-9.62 -8.8,-7.49 -12.92,-14.25 -25,-13.14 0,0 -27,1.81 -27,1.81 z m 269,97.91 c 0,0 21,1.7 21,1.7 0,0 18,-13.9 18,-13.9 0,0 7.44,-7.81 7.44,-7.81 0,0 2.98,-19.99 2.98,-19.99 0,0 1.57,-18 1.57,-18 0,0 -4.7,-8 -4.7,-8 0,0 -14.46,-18.4 -14.46,-18.4 0,0 -19.83,-3.87 -19.83,-3.87 0,0 -50,-6.73 -50,-6.73 0,0 -4.72,40 -4.72,40 0,0 -6.28,48 -6.28,48 0,0 49,7 49,7 z m -575.88,-9 c 0,0 17.59,65 17.59,65 0,0 16,59 16,59 0,0 10.17,38 10.17,38 1.67,6.35 4.95,15.76 5.11,22 0.05,2.39 0.09,5.74 -0.69,7.98 -2.45,7.03 -12.61,9.71 -19.3,9.98 -3.57,0.14 -7.82,0.06 -10.61,-2.47 -2.97,-2.69 -3.77,-7.75 -4.81,-11.49 0,0 -7.43,-27 -7.43,-27 0,0 -26.3,-97 -26.3,-97 0,0 -11.48,-42 -11.48,-42 0,0 -12.36,-46 -12.36,-46 -1.84,-6.73 -3.38,-14.25 3.1,-19.15 5.14,-3.9 25.62,-9.15 32.89,-11.27 0,0 63,-18.58 63,-18.58 9.17,-2.64 25,-8.77 34,-6.21 0,0 34,17.9 34,17.9 5.05,2.74 11.9,5.68 15.35,10.35 3.25,4.39 7.1,21.69 8.8,27.96 1.42,5.26 5.14,16.99 4.48,22 -0.7,5.39 -11.24,23.74 -14.38,30 0,0 -8.5,16 -8.5,16 -1.51,3.02 -3.79,8.15 -6.28,10.3 -2.78,2.41 -10.72,4.33 -14.47,5.41 0,0 -30,9.29 -30,9.29 0,0 36,20.4 36,20.4 0,0 58,33.8 58,33.8 8.69,5.18 18.27,7.7 19.52,18.8 0.39,3.42 -0.49,6.99 -2.51,9.81 -4.4,6.16 -18.05,8.64 -25.01,6.54 -3.24,-0.97 -9.73,-5.38 -13,-7.35 0,0 -66,-40.4 -66,-40.4 -8.68,-5.23 -31.85,-18.58 -37.91,-24.69 -6.97,-7.03 -9.2,-14.26 -9.09,-23.91 0.05,-3.49 0.09,-6.03 2.43,-8.89 3.18,-3.9 9.83,-5.3 14.57,-6.69 0,0 30,-8.76 30,-8.76 4.45,-1.39 9.35,-2.18 12.61,-5.79 0,0 12.62,-21.87 12.62,-21.87 1.39,-2.55 4.41,-7.38 4.83,-10 0.46,-2.96 -1.86,-10.76 -2.69,-14 -0.86,-3.36 -3.95,-15.56 -5.46,-17.79 -1.8,-2.67 -5.16,-4.08 -7.91,-5.63 -4.35,-2.47 -21.25,-12.12 -25,-12.65 -3.49,-0.48 -19.5,4.77 -24,6.07 0,0 -57,16 -57,16 0,0 7.12,27 7.12,27 z m 745.88,99 c 0,0 -14.33,43 -14.33,43 0,0 -11.66,32.89 -11.66,32.89 -5.59,8.05 -22.87,4.17 -28.5,-2.23 -2.74,-3.1 -3.69,-8.63 -3.41,-12.66 0.34,-5.01 6.92,-23.01 8.9,-29 0,0 18,-55 18,-55 0,0 7.33,-22 7.33,-22 1.28,-3.82 2.57,-8.81 5.09,-11.91 2.63,-3.24 16.36,-13.23 20.58,-16.51 0,0 43,-33.23 43,-33.23 0,0 30,-23.22 30,-23.22 3.97,-3.01 11.78,-9.53 16,-11.14 7.49,-2.85 21.73,1.17 25.91,8.05 0,0 9.24,31.96 9.24,31.96 0,0 18.73,70 18.73,70 0,0 5.83,22 5.83,22 1.47,5.16 3.63,11.66 3.11,17 0,0 -7.15,24 -7.15,24 0,0 -14,42 -14,42 0,0 -11.34,35 -11.34,35 -1.47,4.44 -4.14,13.54 -6.83,16.94 -6.63,8.4 -24.56,3.55 -29.76,-4.04 -1.95,-2.85 -1.81,-6.58 -1.73,-9.9 0.19,-7.54 7.28,-25.88 9.99,-34 0,0 21,-64 21,-64 0,0 -69,-24.31 -69,-24.31 0,0 -38,-13.69 -38,-13.69 -0.62,6.88 -4.71,17.13 -7,24 z m 65,-83.27 c 0,0 -42,36.27 -42,36.27 0,0 92,32 92,32 0,0 -13.58,-64 -13.58,-64 0,0 -6.42,-29 -6.42,-29 0,0 -30,24.73 -30,24.73 z m -983,124.02 c 0,0 21,-11 21,-11 0,0 28,-13.39 28,-13.39 14.57,-4.66 19.95,11.08 15.55,19.62 -2.95,5.72 -11.05,8.35 -16.55,11.33 0,0 -40,20.44 -40,20.44 0,0 -13.99,7.03 -13.99,7.03 -1.47,0.81 -3.89,2 -4.38,3.75 -0.5,1.75 2.02,6.68 2.79,8.47 0,0 11.34,24 11.34,24 2.23,4.55 8.26,18.79 11.45,21.3 2.87,2.26 19.23,7.18 23.79,8.7 2.93,0.98 6.94,2.68 10,2.18 2.84,-0.46 17.35,-8.11 21,-9.93 0,0 45,-23 45,-23 7.68,-3.84 21.97,-13.14 29.61,-5.02 2.04,2.17 3.03,4.84 3.28,7.77 1.19,13.77 -11.31,16.55 -20.89,21.86 0,0 -60,30.39 -60,30.39 -10.48,5.24 -16.89,11.72 -29,8.32 0,0 -37,-12.88 -37,-12.88 -4.82,-1.71 -13.18,-3.78 -16.79,-7.08 -3.53,-3.23 -5.53,-9.28 -7.52,-13.61 0,0 -10.94,-23 -10.94,-23 0,0 -33.01,-70 -33.01,-70 -3.78,-7.82 -14.99,-29.83 -16.55,-37 -0.27,-2.37 -0.22,-5.55 0,-8 -0.09,-7.09 1.75,-9.57 4.13,-16 0,0 10.48,-27 10.48,-27 1.76,-4.49 4.09,-12.17 7.59,-15.37 0,0 15.61,-8.63 15.61,-8.63 0,0 46,-23.25 46,-23.25 0,0 27,-13.99 27,-13.99 5.64,-2.78 10.77,-5.06 16.96,-2.11 8.04,3.83 9.75,19.17 -3.96,26.57 0,0 -56,28.52 -56,28.52 -4.79,2.48 -22.85,10.73 -25.49,13.65 -2.64,2.9 -6.35,17.08 -7.65,21.61 -0.57,1.96 -1.88,5.53 -1.74,7.42 0.26,3.29 5.93,14.07 7.62,17.58 0,0 19.26,42 19.26,42 0,0 24,-12.25 24,-12.25 z m 1192,-78.95 c -5.29,-3.16 -15.62,-8.58 -19.67,-12.47 -5.96,-5.71 -6.32,-17.99 1.69,-22.16 9.9,-5.14 27.4,8.22 35.98,13.11 0,0 96,56 96,56 10.25,5.84 32.56,15.26 23.86,30.7 -3.45,6.14 -10.7,7.12 -16.86,4.89 0,0 -38,-21.67 -38,-21.67 -3.88,-2.31 -13.44,-9.87 -17.37,-5.92 0,0 -9.87,17.72 -9.87,17.72 0,0 -16.02,30 -16.02,30 0,0 -50.43,93 -50.43,93 0,0 -19.05,34.99 -19.05,34.99 -2.5,4.82 -6.01,13.19 -11.28,15.26 -10.06,3.96 -26.7,-6.17 -26.8,-17.26 -0.06,-6.82 7.67,-19.6 11.13,-26 0,0 60.38,-112 60.38,-112 0,0 31.31,-58 31.31,-58 0,0 -35,-20.2 -35,-20.2 z m -504.27,30.2 c 0,0 -2.08,16 -2.08,16 -0.2,2.07 -1,5.65 0,7.57 1.2,2.62 6.73,2.96 9.35,3.28 0,0 27,3.73 27,3.73 0,0 32,4.42 32,4.42 3.7,0.51 10.57,1.88 14,0.75 3.38,-1.13 10.81,-7.41 14,-9.87 3.18,-2.45 14.37,-10.77 16.18,-13.32 1.82,-2.58 1.71,-5.56 2.1,-8.56 0.56,-4.3 2.89,-18.68 2.04,-22 -0.91,-3.53 -7.22,-12.31 -9.51,-16 -1.75,-2.81 -8.3,-13.54 -10.42,-15.02 -1.78,-1.25 -6.16,-1.67 -8.39,-1.98 0,0 -17,-2.28 -17,-2.28 0,0 -61,-8.72 -61,-8.72 0,0 -8.27,62 -8.27,62 z m 613.85,226.00 c 0,0 55.57,-77.00 55.57,-77.00 0,0 23.27,-32 23.27,-32 0,0 9.95,-14 9.95,-14 2.54,-5.16 -3.81,-8.38 -7.37,-11.12 -2.55,-1.97 -7.66,-5.75 -9.6,-8.05 -4.28,-5.15 -4.75,-14.57 0,-19.6 7.56,-8.04 18.17,-0.48 24.6,4.56 0,0 50,38.79 50,38.79 6.78,5.28 15.46,10.76 14.89,20.42 -0.52,8.84 -7.38,13.65 -15.89,11.44 -7.2,-1.86 -17.8,-12.25 -25,-16.44 0,0 -29.58,42 -29.58,42 0,0 -53.3,74.00 -53.3,74.00 0,0 -23.24,32 -23.24,32 -1.72,2.34 -8.21,10.63 -8.35,12.99 -0.2,3.36 5.08,6.57 7.47,8.43 6.98,5.45 15.76,10.5 14.89,20.58 -0.71,8.34 -6.14,11.36 -13.89,10.96 -7.91,-0.41 -15.94,-7.99 -22,-12.75 0,0 -41,-32 -41,-32 -6.63,-5.2 -15.44,-9.92 -15.96,-19.21 -0.53,-9.57 5.64,-17.48 15.96,-14.49 4.22,1.23 18.74,13.08 23,16.49 0,0 25.58,-36 25.58,-36 z m -1459.58,-45.42 c 0,0 -35,26.29 -35,26.29 0,0 -15.99,11.88 -15.99,11.88 -2.46,1.94 -4.9,3.78 -3.9,7.25 0,0 15.47,23 15.47,23 0,0 25.76,37 25.76,37 0,0 12.26,18 12.26,18 5.07,9.79 2.13,17.8 -6.6,23.96 -4.03,2.84 -6.94,4.36 -12,3.93 -8.5,-0.71 -11.95,-6.63 -16.42,-12.89 0,0 -21.6,-31 -21.6,-31 0,0 -28.65,-41 -28.65,-41 -7.88,-11.67 -12.31,-14.19 -12.33,-29 0,0 -2,-96.00 -2,-96.00 0,0 -0.96,-12 -0.96,-12 0,0 0,-17 0,-17 -0.03,-4.01 -0.08,-8.26 1.61,-12 2.93,-6.51 12.1,-13.07 19.35,-12.95 6.25,0.12 26.99,8.48 34,11.14 0,0 63,23.39 63,23.39 0,0 21,7.76 21,7.76 3.72,1.31 11.05,3.75 13.91,6.08 3.65,2.96 11.74,15.11 14.76,19.58 0,0 21.61,31 21.61,31 0,0 29.05,42.00 29.05,42.00 4.39,6.63 7.93,14.42 2.94,21.96 -4.64,7.01 -18.15,14.33 -26.18,8.48 -3.7,-2.69 -15.32,-20.46 -18.81,-25.44 0,0 -24.42,-35.00 -24.42,-35.00 -4.09,-5.74 -13.41,-18.22 -15.86,-24 0,0 -34,25.58 -34,25.58 z m -74.01,-71.58 c 0,0 1.84,25 1.84,25 0,0 1.26,23 1.26,23 0,0 2,28 2,28 0,0 0.91,12.00 0.91,12.00 0,0 45,-33.63 45,-33.63 0,0 34,-26.37 34,-26.37 0,0 -30,-12.58 -30,-12.58 0,0 -33,-14.56 -33,-14.56 0,0 -22.01,-9.86 -22.01,-9.86 0,0 0,9 0,9 z m 41.73,370.00 c 15.11,-17.15 34.46,-35.43 51.28,-51.09 72.11,-67.15 150.32,-122.23 238,-167.17 247.69,-126.95 541.36,-149.47 805,-59.74 29.77,10.13 59.25,21.07 88,33.86 119.04,52.96 226.87,127.01 319,219.14 60.48,60.48 113.54,128.64 157.55,202 0,0 30.19,54 30.19,54 0,0 22.51,46 22.51,46 13.24,26.74 23.38,55.14 33.94,83 0,0 8.14,23 8.14,23 1.01,3.01 2.94,7.89 2.32,11 -0.84,4.15 -7.58,9.93 -10.65,13 0,0 -29,27.42 -29,27.42 0,0 -35,30.73 -35,30.73 -3.76,3.32 -12.75,12.07 -17,13.34 -2,0.6 -4.88,0.51 -7,0.51 0,0 -18,0 -18,0 0,0 -16,-1 -16,-1 0,0 -49,0 -49,0 0,0 -17,-1 -17,-1 0,0 -138,0 -138,0 0,0 -15,1 -15,1 0,0 -83,2 -83,2 0,0 -15,1 -15,1 0,0 -34,1 -34,1 0,0 -23,1 -23,1 0,0 -23,1 -23,1 0,0 -18,1 -18,1 0,0 -16,1 -16,1 0,0 -21,1 -21,1 0,0 -41,2 -41,2 0,0 -10,0.96 -10,0.96 0,0 -9,0 -9,0 0,0 -18,1.04 -18,1.04 0,0 -11,0.96 -11,0.96 0,0 -42,2.87 -42,2.87 0,0 -23,1.26 -23,1.26 0,0 -26,1.91 -26,1.91 -5.79,0.01 -10.32,0.25 -16,1.75 -12.47,3.31 -24.49,11.08 -35,18.37 -19.61,13.58 -37.1,30.33 -53.17,47.89 -3.32,3.63 -15.75,13.61 -12.29,18.86 2.25,3.42 6.82,3.89 10.46,4.55 0,0 26,5 26,5 0,0 102,19 102,19 0,0 82,15.38 82,15.38 0,0 59,10.77 59,10.77 0,0 75,9.71 75,9.71 0,0 92,11.87 92,11.87 0,0 78,10.13 78,10.13 0,0 38,4.72 38,4.72 -1.17,7.26 -7.76,11.67 -13,16.28 0,0 -27,24.72 -27,24.72 0,0 -43,39.17 -43,39.17 0,0 -81,73 -81,73 0,0 -196,173.55 -196,173.55 0,0 -144,124 -144,124 0,0 -66,55.86 -66,55.86 0,0 -34.54,29.7 -34.54,29.7 0,0 -32.93,43.72 -32.93,43.72 0,0 -18.9,25 -18.9,25 0,0 -9.28,13 -9.28,13 -2.09,4.76 2.41,9.12 4.84,13 0,0 21,33 21,33 0,0 57.86,91 57.86,91 0,0 28.42,45 28.42,45 3.34,7.34 -4.52,11.21 -9.47,15.43 0,0 -38.96,35.4 -38.96,35.4 -3.5,3.27 -15.54,11.79 -12.33,17.03 1.64,2.68 5.42,3.43 8.29,3.85 0,0 20,2.34 20,2.34 0,0 81,10 81,10 8.15,1.06 11.4,9.55 15.42,15.95 1.66,2.64 4.3,7.32 7.62,7.87 3.04,0.5 7.4,-2.89 9.96,-4.42 4.91,-2.95 18.99,-11.79 24,-11.96 0,0 7,0.51 7,0.51 0,0 15,0 15,0 0,0 23,-2 23,-2 0,0 9,0 9,0 0,0 65,-4.91 65,-4.91 0,0 42,-2.92 42,-2.92 4.53,-0.43 9.76,0.36 14,-1.02 4.84,-1.57 15.37,-8.48 20,-11.46 0,0 35,-23.58 35,-23.58 6.72,-5.03 19.96,-15.53 24.44,-22.11 1.69,-2.48 4.43,-10.05 3.64,-12.98 -1.11,-4.14 -5.56,-5.9 -9.08,-7.44 0,0 -26,-11.58 -26,-11.58 0,0 -52,-23.3 -52,-23.3 0,0 -28,-11.92 -28,-11.92 0,0 -26,2.22 -26,2.22 0,0 -21.49,-65 -21.49,-65 0,0 -33.18,-100 -33.18,-100 0,0 -15.35,-46 -15.35,-46 -2.49,-7.92 -5.6,-14.4 -5.94,-23 -0.86,-21.8 13.52,-31.21 28.96,-42.63 0,0 57,-40.8 57,-40.8 0,0 30,-21.55 30,-21.55 0,0 137,-96 137,-96 80.34,-55.37 161.56,-109.75 244,-161.97 0,0 130,-79.25 130,-79.25 0,0 43,-25.08 43,-25.08 0,0 20,-11.07 20,-11.07 6.01,-1.81 14.84,0.82 21,1.93 0,0 44,8.22 44,8.22 3.7,0.74 18.09,2.52 20.1,4.93 1.84,2.44 0.54,10.26 0,13.27 0,0 0,11 0,11 0,0 -1.1,18 -1.1,18 0,0 -0.91,10 -0.91,10 -2.12,30.76 -5.56,61.58 -10.84,92 -10.4,59.92 -24.13,116.6 -44.56,174 -31.74,89.2 -74.11,173.3 -128.41,251 -131.84,188.66 -325.2,332.57 -545.28,400.98 -64.4,20.01 -130.88,34.48 -198,41.19 0,0 -45,3.92 -45,3.92 0,0 -12,0.91 -12,0.91 0,0 -20,1 -20,1 0,0 -73,0 -73,0 0,0 -15,-1 -15,-1 0,0 -30,-1.91 -30,-1.91 -52.83,-3.63 -105.44,-11.98 -157,-24.21 -184.08,-43.65 -347.23,-133.03 -484,-263.84 0,0 -10,-9.05 -10,-9.05 0,0 -20.04,-20.99 -20.04,-20.99 -82.35,-86.09 -148.93,-183.71 -198.65,-292 -37.92,-82.58 -63.73,-170.49 -78.74,-260 0,0 -8.4,-61 -8.4,-61 0,0 -2.34,-29 -2.34,-29 0,0 -1.83,-22 -1.83,-22 0,0 -1,-22 -1,-22 0,0 0,-61 0,-61 7.62,0.19 17.24,4.71 25,7 0,0 48.00,11.59 48.00,11.59 19.52,3.27 39.25,4.38 59,4.41 0,0 15,1 15,1 0,0 23,0 23,0 11.43,0.02 17.9,4.45 28,9.22 0,0 32,14.47 32,14.47 0,0 102,46.62 102,46.62 0,0 33,15.27 33,15.27 0,0 87,39.64 87,39.64 0,0 21,9.54 21,9.54 3.71,1.81 6.47,2.26 8,6.24 0,0 -35,2.91 -35,2.91 0,0 -102,9.07 -102,9.07 0,0 -33,3.23 -33,3.23 -3.56,0.74 -7.86,4.23 -7.85,8.21 0.01,2.47 2.31,4.89 3.9,6.57 3.79,3.98 10.33,8.83 14.95,11.98 0,0 65,38.33 65,38.33 0,0 53,28.78 53,28.78 0,0 31,15.43 31,15.43 8.13,2.28 22.22,2.81 31,3.66 0,0 39,4 39,4 0,0 101,10.66 101,10.66 0,0 59,6.17 59,6.17 0,0 -3.91,54 -3.91,54 0,0 -5,65 -5,65 0,0 -2.26,33 -2.26,33 0,0 -3,39 -3,39 -1.35,14.15 -3.3,24.33 2.75,38 8.36,18.88 25.69,32.8 42.42,44 30.51,20.43 63.99,35.92 97,51.78 0,0 36,16.37 36,16.37 3.16,1.36 11,5.65 14.13,4.35 2.63,-1.08 4.67,-4.28 6.29,-6.5 0,0 11.46,-16 11.46,-16 0,0 45,-63 45,-63 0,0 36.69,-51 36.69,-51 0,0 91.57,-128 91.57,-128 0,0 37.15,-52 37.15,-52 8.26,-11.4 14.93,-16.23 18.79,-31 2.57,-9.84 0.99,-25.59 -7.13,-32.48 -4.44,-3.77 -18.6,-11.02 -20.93,-14.84 -0.84,-1.38 -0.77,-2.22 -1.02,-3.68 7.32,-0.97 28.28,-2.87 28.27,-12.99 0,-3.08 -3.13,-5.25 -5.27,-7.01 0,0 -18,-14.4 -18,-14.4 -24.36,-19.46 -48.56,-38.97 -75,-55.55 0,0 -25,-14.9 -25,-14.9 -2.37,-1.37 -7.24,-3.57 -5.83,-7.02 0.7,-1.72 5.08,-5.38 6.62,-7.14 4.12,-4.71 6.73,-10.73 7.12,-16.99 0.62,-10.07 -5.4,-21.67 -13.91,-27.01 -3.27,-2.05 -7.29,-3.26 -11,-4.21 -2.98,-0.76 -5.88,-1.79 -9,-1.42 -13.69,1.65 -21,16.37 -22,28.64 -17.34,0 -18.51,-0.59 -36,3.21 -4.85,1.05 -14.76,5.33 -19,4.03 -3.27,-1.01 -15.58,-10.31 -19,-12.87 0,0 -36,-25.95 -36,-25.95 0,0 -130,-94 -130,-94 0,0 -206,-148.85 -206,-148.85 0,0 -106,-76.69 -106,-76.69 0,0 -65,-41.93 -65,-41.93 0,0 -59,-38 -59,-38 0,0 -25,-15.95 -25,-15.95 0,0 0,-3 0,-3 0,0 42,-13.02 42,-13.02 0,0 104,-32 104,-32 0,0 347,-106.96 347,-106.96 0,0 120,-37 120,-37 0,0 25,-7.68 25,-7.68 5.78,-1.82 11.46,-3.8 13.44,-10.34 1.29,-4.27 -2.4,-6.76 -5.44,-8.96 0,0 -22,-15.7 -22,-15.7 0,0 -96,-67.76 -96,-67.76 0,0 -81,-56.91 -81,-56.91 -11.44,-7.6 -33.95,-22.32 -47,-24.88 -4.06,-0.8 -24.28,2.43 -30,3.05 0,0 -75,8.99 -75,8.99 0,0 -73,8.88 -73,8.88 0,0 -109,12.57 -109,12.57 0,0 -58,7 -58,7 0,0 -45,4.72 -45,4.72 2.2,-7.49 12.43,-16 17.72,-22 z m 1704.28,-277 c 0,0 31,0 31,0 2.45,0 5.72,-0.13 8,0.74 5.28,2.01 15.98,14.63 20.17,19.26 0,0 19.83,20 19.83,20 0,0 18.17,19 18.17,19 2.77,3.08 6.25,6.1 7.82,10 1.16,2.86 1.01,5.97 1.01,9 0,0 1,43 1,43 -0.02,9.9 -0.72,22.12 -14,20.89 -3.25,-0.3 -5.43,-1.45 -8,-3.42 -13.96,-10.7 -8.02,-23.57 -8,-38.47 0,0 0,-15 0,-15 0,-2.09 0.12,-5.06 -0.6,-7 -1.47,-4 -11.88,-13.48 -15.4,-17 0,0 -16.91,-17 -16.91,-17 -2.8,-3 -6.55,-8.2 -10.09,-9.98 -1.73,-0.87 -17.19,-1.98 -20,-2.02 -3.36,-0.04 -14.46,-0.34 -17,0.6 -4.13,1.52 -8.38,7.11 -11.28,10.4 0,0 -16.89,18 -16.89,18 0,0 -15.74,16 -15.74,16 0,0 -34.09,36 -34.09,36 0,0 -15.01,16 -15.01,16 -2.6,2.66 -7.13,6.58 -8.39,10 -0.88,2.4 -0.61,10.06 -0.6,13 0,0 1,15 1,15 0.01,2.67 -0.2,6.54 0.74,9 1.39,3.66 6.42,8.16 9.26,11 0,0 20,20 20,20 3.23,3.28 9.53,11.24 13,12.98 2.97,1.49 10.44,1.04 14,1.02 0,0 32,-1.9 32,-1.9 13.02,0.97 21.45,19.26 15.26,27.69 -3.64,4.97 -12.65,5.2 -18.26,5.21 0,0 -43,0 -43,0 -9.78,-0.13 -12.42,-4.41 -19,-11 0,0 -26,-27 -26,-27 0,0 -20.42,-21 -20.42,-21 -2.19,-2.53 -5.88,-6.16 -7.27,-9 -2.07,-4.26 -1.25,-16.71 -1.31,-22 0,0 -1,-13 -1,-13 0,0 0,-22 0,-22 0,-3 -0.1,-6.11 0.8,-9 2.11,-6.73 13.08,-16.85 18.2,-22 0,0 11.04,-12 11.04,-12 0,0 31.87,-33 31.87,-33 0,0 35.09,-37 35.09,-37 6.52,-6.53 9.6,-12.24 19,-14.53 7.09,-1 12.96,0.52 20,0.53 z m -2677.00,233.5 c 12.74,4.45 27.19,12.5 39,19.22 0,0 20,12.17 20,12.17 2.74,1.84 7.46,5.25 8.98,8.15 1.24,2.38 1.07,6.28 1.01,8.96 -0.18,7.25 -4.13,18.1 -6.8,25 -6.73,17.37 -17.87,35.93 -31.19,48.99 -8.03,7.87 -17.54,14.4 -29,15.54 -8.9,0.89 -13.55,-3.77 -20,-8.93 0,0 -19,-15.35 -19,-15.35 -7.86,-6.54 -15.88,-12.85 -22.96,-20.25 -14.99,-15.67 -29.09,-40.41 -36.04,-61 0,0 -5.99,-21 -5.99,-21 -0.89,-3.43 -1.7,-7.66 0.73,-10.7 2.1,-2.64 6.15,-3.04 9.26,-3.72 0,0 24.91,-4.09 24.91,-4.09 21.67,-2.05 46.5,-0.17 67.09,7.01 z m 463,291.92 c -15.89,-11.23 -35.58,-20.73 -44.74,-38.42 -8.38,-16.18 -5.82,-16.84 -10.88,-30 -3.36,-8.75 -8.64,-17.54 -14.28,-25 -27.93,-36.96 -65.86,-57.85 -104.1,-82.05 0,0 -64,-38.96 -64,-38.96 0,0 -39,-21.67 -39,-21.67 0,0 -17,-7.19 -17,-7.19 0,0 -14,-6.27 -14,-6.27 -16.32,-5.68 -43.63,-8.78 -61,-8.86 -3.39,-0.02 -19.67,-1.08 -22,-2.14 0,0 -17.98,-12.09 -17.98,-12.09 -1.84,-1.29 -5.15,-3.6 -3.85,-6.28 0.99,-2.04 10.33,-5.58 12.83,-6.72 6.16,-2.81 24.81,-9.91 30.99,-10.59 0,0 15.01,0 15.01,0 0,0 21,0.82 21,0.82 22.55,0.04 40.15,0.16 62,7.52 15.17,5.1 37.94,19.68 52,28.29 0,0 112,69.74 112,69.74 0,0 109,67.5 109,67.5 0,0 39,24.37 39,24.37 0,0 19,11.58 19,11.58 4.16,-5.46 9.6,0.56 14,3.49 0,0 36,22.32 36,22.32 39.1,23.95 79.7,45.09 120,66.88 0,0 28,14.56 28,14.56 2.58,1.29 9.52,4.02 10.13,6.96 0.45,2.18 -4,10.18 -5.13,12.79 6.82,3.05 17.25,10.11 24.00,14.32 0,0 36,22.26 36,22.26 0,0 116,72.19 116,72.19 0,0 114,70.81 114,70.81 0,0 58,36.17 58,36.17 0,0 14,10.39 14,10.39 0,0 58,42.44 58,42.44 0,0 181,132.27 181,132.27 0,0 144,105.28 144,105.28 0,0 36,26.16 36,26.16 4.69,3.38 13.19,8.25 15,13.71 0,0 -37,0 -37,0 0,0 -27,1 -27,1 0,0 -56,0 -56,0 -10.32,-0.02 -14.33,-4.37 -23,-9.6 0,0 -36,-21.8 -36,-21.8 0,0 -144,-87.29 -144,-87.29 0,0 -199,-120.4 -199,-120.4 0,0 -71,-42.91 -71,-42.91 0,0 -23,-14 -23,-14 0,0 -15.88,-9.71 -15.88,-9.71 -6.9,-4.86 -4.38,-10.57 -12.16,-16.2 0,0 -10.96,-6.77 -10.96,-6.77 0,0 -33,-20.37 -33,-20.37 0,0 -118.00,-73 -118.00,-73 0,0 -57,-35.37 -57,-35.37 0,0 -29,-17.62 -29,-17.62 -1.44,-0.6 -2.42,-0.95 -4,-0.59 -2.86,0.67 -12.69,9.76 -16,12.26 -17.69,13.35 -33.38,23.37 -54,31.77 -28.49,11.59 -59.6,16.01 -90,10.34 -10.18,-1.9 -19.27,-5.56 -29,-8.79 0,0 -9,-2.02 -9,-2.02 0,0 -16,-9.08 -16,-9.08 0,0 -32,-18.27 -32,-18.27 0,0 -36,-20.43 -36,-20.43 -4.59,-2.62 -11.17,-4.87 -13,-10.15 9.95,1.77 19.71,5.35 30,4.96 23.63,-0.89 48.4,-7.68 66,-24.05 8.96,-8.33 14.82,-15.96 21.72,-25.91 0,0 9.91,-14.35 9.91,-14.35 2.57,-1.97 5.08,0.01 7.37,1.35 0,0 3,-8 3,-8 0,0 -5,-2 -5,-2 0,0 2,-5 2,-5 0,0 -32,-18.72 -32,-18.72 0,0 -86,-52.08 -86,-52.08 0,0 -111,-67.19 -111,-67.19 -16.96,-9.97 -62.71,-36.89 -76,-47.46 -3.36,-2.68 -14.09,-10.9 -15.16,-14.59 -0.97,-3.37 2.33,-8.02 3.93,-10.96 0,0 12.97,-24 12.97,-24 5.15,-10.64 6.33,-19.5 6.98,-20.7 1.03,-1.87 2.36,-2.04 4.32,-1.62 0,0 20.96,10.02 20.96,10.02 0,0 43,24.7 43,24.7 0,0 77,47.91 77,47.91 24.77,15.95 46.18,29.68 65.56,52.69 7.54,8.94 14.82,20.05 19.01,31 0,0 3.35,12 3.35,12 1.69,6.15 6.97,17.63 10.43,23 9.44,14.66 22.49,22.21 36.65,31.67 0,0 26,17.33 26,17.33 3.18,-8.23 1.8,-7.11 -13,-17.58 z m 944.00,-127.65 c 0,0 -112,24.81 -112,24.81 0,0 -365,80.84 -365,80.84 0,0 -136,30.03 -136,30.03 0,0 -43,9.63 -43,9.63 0,0 -11.00,2.49 -11.00,2.49 -4.16,0.28 -10.22,-3.41 -13.99,-5.33 0,0 -28,-14.6 -28,-14.6 0,0 -36,-19.33 -36,-19.33 0,0 -84,-47.12 -84,-47.12 0,0 -36,-22.33 -36,-22.33 -2.13,-1.38 -10.7,-6.06 -8.83,-9.3 1.36,-2.36 11.05,-2.56 13.83,-3 0,0 39,-6.64 39,-6.64 0,0 162.00,-27.35 162.00,-27.35 0,0 407.00,-67.98 407.00,-67.98 0,0 70,-12.15 70,-12.15 0,0 48,-7.64 48,-7.64 0,0 34,-5.88 34,-5.88 3.53,-0.59 11.83,-2.5 14.91,-1.32 3.39,1.3 8.71,9.33 11.38,12.4 6.69,7.69 16.36,16.68 24.71,22.56 11.06,7.79 23.67,12.4 36,17.72 0,0 46,20.14 46,20.14 0,0 21,9.16 21,9.16 3.96,1.69 7.38,2.21 9,6.42 0,0 -63,13.77 -63,13.77 z m 1370,342.23 c 0,0 48,-44.09 48,-44.09 0,0 89,-82.82 89,-82.82 0,0 30,-27.18 30,-27.18 0,0 11,-10.82 11,-10.82 0,0 18,-16.18 18,-16.18 0,0 45,-41.12 45,-41.12 0,0 10,-5.79 10,-5.79 5.86,-3.35 13.54,-8.69 20,-10 -0.25,1.57 -0.22,2.45 -1.02,3.96 -1.23,2.32 -14.16,14.3 -16.98,17.05 0,0 -46,45.99 -46,45.99 0,0 -23,22.01 -23,22.01 0,0 -106,104.99 -106,104.99 0,0 -15.49,14.69 -15.49,14.69 0,0 -35.51,35.31 -35.51,35.31 -4.76,4.76 -9.62,12.05 -17,11.75 0,0 -8,0 -8,0 -8.6,-0.13 -9.41,-1.01 -19,0 1.9,-5.55 12.27,-13.1 17,-17.75 z M 84.37,1597.45 c 0,0 56.00,-12.78 56.00,-12.78 0,0 96,-22 96,-22 0,0 51,-11.51 51,-11.51 0,0 37,-8.37 37,-8.37 0,0 33,-7.75 33,-7.75 0,0 27,-5.17 27,-5.17 0,0 21,11.15 21,11.15 0,0 44,25.14 44,25.14 0,0 59,33.7 59,33.7 0,0 19.43,11.53 19.43,11.53 0,0 1.57,3.05 1.57,3.05 0,0 -75,8.83 -75,8.83 0,0 -56,6.88 -56,6.88 0,0 -8,0.58 -8,0.58 0,0 -106,13.42 -106,13.42 0,0 -8,0.58 -8,0.58 0,0 -33,4.43 -33,4.43 0,0 -25,2.71 -25,2.71 0,0 -22,2.84 -22,2.84 -2.92,0.42 -10.51,1.75 -13,1.48 0,0 -28,-10.55 -28,-10.55 0,0 -70.00,-28 -70.00,-28 -7.25,-2.85 -22.29,-7.39 -25,-15.2 0,0 24,-4.99 24,-4.99 z m 2897.00,154.84 c 0,0 46,-39.77 46,-39.77 0,0 134,-115.35 134,-115.35 22.7,-19.43 27.66,-25.61 55,-39.98 6.46,-3.4 10.67,-7.37 18,-8.75 -2.37,8.05 -12.96,15.26 -19,21.04 0,0 -47,44.24 -47,44.24 0,0 -14,13.63 -14,13.63 0,0 -35,33 -35,33 0,0 -47,44 -47,44 0,0 -26.58,24.82 -26.58,24.82 0,0 -30.33,28.4 -30.33,28.4 -8.11,7.5 -9.5,12.85 -21.09,12.87 0,0 -31,0 -31,0 2.24,-7 12.47,-13.31 18,-18.15 z m -753,106.15 c 0,0 31,-1.91 31,-1.91 0,0 55,-3.18 55,-3.18 0,0 20,-1.91 20,-1.91 0,0 9,0 9,0 0,0 10,-1 10,-1 0,0 63,-4 63,-4 0,0 10,-0.91 10,-0.91 0,0 25,-2 25,-2 0,0 24,-1.18 24,-1.18 0,0 46,-3.82 46,-3.82 77.73,-5.31 155.41,-11.74 233,-19.26 0,0 31,-3.66 31,-3.66 0,0 64,-7.92 64,-7.92 0,0 26,-4.75 26,-4.75 7.78,-1.84 10.2,-4.39 19,-4.5 0,0 18,0 18,0 4.69,0.01 16.43,-0.73 14.67,6.91 -0.74,3.22 -4.04,4.94 -6.67,6.47 -5.84,3.41 -14.46,5.87 -21,7.96 -22.44,7.19 -72.37,16.8 -97,21.24 -78.91,14.22 -158.52,24.55 -238,34.7 0,0 -95,11.87 -95,11.87 0,0 -43,5.02 -43,5.02 0,0 -10,1.65 -10,1.65 -4.38,0.33 -13.37,-1.61 -18,-2.39 0,0 -33,-5 -33,-5 0,0 -107,-15.85 -107,-15.85 0,0 -36,-5.47 -36,-5.47 -4.61,-1.04 -10.26,-1.27 -12,-6.11 0,0 18,-1 18,-1 z m 280,40.17 c 0,0 114,-12.89 114,-12.89 75.74,-9.44 173.82,-22.61 247,-40.91 23.31,-5.82 52.5,-13.22 74,-23.63 5.87,-2.84 11.99,-5.84 17,-10.06 3.05,-2.58 6.9,-7.87 10.04,-9.08 2.11,-0.81 8.44,-0.64 10.96,-0.6 7.49,0.14 7.1,2.2 7,10 -0.16,12 -8.61,22.09 -17,29.91 -18.24,16.99 -48.13,29.58 -71,39.37 -36.57,15.66 -90.89,30.42 -130,40.19 0,0 -50,11.74 -50,11.74 0,0 -24,4.75 -24,4.75 0,0 -38,-4.69 -38,-4.69 0,0 -71,-10 -71,-10 0,0 -56,-7.55 -56,-7.55 0,0 -34,-4.87 -34,-4.87 0,0 -20,-2.98 -20,-2.98 -4.54,-0.64 -7.37,-0.2 -9,-4.87 0,0 40,-3.83 40,-3.83 z m 246,40.41 c 0,0 46,-10.71 46,-10.71 41.93,-10.48 99.13,-27.68 137,-47.65 12.19,-6.43 26.79,-15.2 37,-24.39 0,0 14.44,-14.84 14.44,-14.84 1.39,-0.84 2.09,-0.75 3.56,-0.99 0,4.46 0.36,11.95 -0.79,16 -4.03,14.21 -20.67,27.73 -32.21,36.15 -18.39,13.41 -37.44,22.71 -58,32.16 0,0 -47,20.03 -47,20.03 0,0 -31,11.33 -31,11.33 -3.42,1.14 -11.74,4.13 -15,4.02 -5.48,-0.2 -10.3,-7.13 -20,-9.9 -4.69,-1.34 -12.07,-1.48 -17,-1.96 0,0 -32,-2.83 -32,-2.83 1.97,-5.65 9.87,-5.3 15,-6.42 z m 427.04,65.42 c 0,0 0.96,-11 0.96,-11 0,0 -0.91,-12 -0.91,-12 0,0 0,-18 0,-18 0,0 -3.24,-37 -3.24,-37 0,0 -5.85,-33 -5.85,-33 0,0 -3.36,-13.9 -3.36,-13.9 0.26,-2.91 3.21,-4.46 5.36,-5.98 0,0 14,-10.22 14,-10.22 2.43,-1.77 4.82,-3.73 8,-2.93 3.16,0.79 13.86,9.54 17,12.03 0,0 36,29.71 36,29.71 0,0 50,44.38 50,44.38 0,0 26,24.82 26,24.82 0,0 45,43.09 45,43.09 0,0 35,34 35,34 4.94,4.94 11.83,9.78 13,17 0,0 -62,-11.74 -62,-11.74 0,0 -174.96,-33.26 -174.96,-33.26 0,0 0,-16 0,-16 z m 89.96,-130.14 c 36.5,10.47 72.56,27.91 107,43.83 61.07,28.24 121.2,58.21 181,89.05 0,0 91,47.4 91,47.4 0,0 33,17.17 33,17.17 0,0 55,29.45 55,29.45 0,0 21,11.38 21,11.38 4.8,2.4 9.22,3.44 11,8.86 0,0 -20,-3.75 -20,-3.75 0,0 -61,-10.83 -61,-10.83 0,0 -117,-20.81 -117,-20.81 0,0 -57,-10.18 -57,-10.18 0,0 -29,-5.45 -29,-5.45 -3.24,-1.66 -9.95,-9.03 -13,-11.94 0,0 -27,-24.76 -27,-24.76 0,0 -51,-46.11 -51,-46.11 0,0 -49,-42.04 -49,-42.04 -23.8,-20.39 -48.81,-39.47 -74,-58.11 0,0 -20,-13.69 -20,-13.69 -3.6,-2.42 -7.44,-4.17 -9,-8.33 7.83,0.71 19.65,6.46 28,8.86 z m -260,104.48 c 0,0 22,-13.8 22,-13.8 0,0 46,-32.02 46,-32.02 0,0 20,-11.92 20,-11.92 5.83,-3.45 21.48,-13.25 27,-14.6 -0.57,6.8 -3.47,16.2 -5.27,23 0,0 -15.39,50 -15.39,50 0,0 -5.68,16 -5.68,16 -0.96,2.7 -2,6.18 -4.87,7.24 -2.35,1.15 -6.31,0.25 -8.79,0 0,0 -17,-3.16 -17,-3.16 0,0 -67,-12.08 -67,-12.08 1.61,-4.9 4.8,-5.93 9,-8.66 z m -571.99,328.57 c 0,0 16.99,-15.9 16.99,-15.9 0,0 22,-20.1 22,-20.1 0,0 53,-49.08 53,-49.08 0,0 47,-43.74 47,-43.74 0,0 71,-65.18 71,-65.18 0,0 54,-50.08 54,-50.08 0,0 53,-49 53,-49 0,0 20.28,-18.69 20.28,-18.69 0,0 31.72,-11.56 31.72,-11.56 0,0 43,-16.58 43,-16.58 -1.87,6.38 -6.18,8.99 -10.91,13.25 0,0 -15.37,15.17 -15.37,15.17 0,0 -46.72,46.57 -46.72,46.57 0,0 -19,18.01 -19,18.01 0,0 -53.09,52.93 -53.09,52.93 0,0 -16.91,16.07 -16.91,16.07 0,0 -42,41.79 -42,41.79 0,0 -45,31.23 -45,31.23 0,0 -80,55.07 -80,55.07 0,0 -60,41.33 -60,41.33 -6.84,4.84 -23.87,17.82 -31,19.58 0.95,-5.96 3.82,-7.11 8.01,-11.09 z m -349.42,236.09 c -1.55,-2.77 -7.15,-12.4 -7,-15 0.23,-4.28 6.33,-8.2 9.41,-10.66 0,0 25,-21.61 25,-21.61 0,0 102,-87.81 102,-87.81 0,0 54,-46.64 54,-46.64 0,0 86,-74 86,-74 0,0 131,-112.56 131,-112.56 0,0 115,-99.3 115,-99.3 0,0 89,-76.55 89,-76.55 0,0 22,-18.94 22,-18.94 3.5,-3.19 5.95,-6.83 11.04,-6.27 0,0 21.96,3.07 21.96,3.07 3.98,0.58 7.8,0.82 10.4,4.4 2.08,2.86 1.6,7.46 1.6,10.87 -5.55,2.63 -14.17,11.43 -19,15.91 0,0 -33,30.01 -33,30.01 0,0 -103,93.99 -103,93.99 0,0 -93,84.26 -93,84.26 0,0 -65,59.66 -65,59.66 0,0 -172,156.34 -172,156.34 0,0 -121,110.11 -121,110.11 0,0 -28,25.72 -28,25.72 -4.69,4.47 -10.49,10.95 -17,12 0,0 -20.41,-37 -20.41,-37 z m -191.59,-429.99 c 9.04,-0.2 17.38,0.36 19,10.99 0,0 -39,0 -39,0 -5.05,-0.03 -7.04,0.45 -8,-5 10.01,-2.28 16.86,-5.73 28,-5.99 z m 1315,39.57 c 0,0 85,18.54 85,18.54 0,0 26,5.67 26,5.67 5.75,1.24 12.11,2.24 16.83,6 5.02,4 9.74,13.46 13.02,19.21 0,0 18.16,32 18.16,32 2.56,6.82 -3.25,27.23 -5.14,35 0,0 -18.08,80 -18.08,80 -2.67,12.37 -3.16,26.87 -19.79,25.91 0,0 -56,-11.7 -56,-11.7 0,0 -121,-26.33 -121,-26.33 0,0 -42,-9.3 -42,-9.3 -6.02,-1.33 -15.29,-2.68 -19.77,-6.97 -4,-3.82 -3.66,-10.54 -2.77,-15.61 0,0 8.33,-37 8.33,-37 0,0 12.79,-57 12.79,-57 1.29,-5.82 5.04,-24.86 7.51,-28.96 2.66,-4.43 10.53,-9.06 14.91,-12.18 9.72,-6.92 28.24,-21.84 39,-24.39 10.33,-1.44 31.92,4.67 43,7.11 z m -2364.00,11.42 c 5.41,3.61 25.54,16.25 28.49,20.09 3.2,4.17 6.09,21.88 7.31,27.91 0,0 8.08,38 8.08,38 0,0 5.08,26 5.08,26 0.35,9.12 -3.45,12.74 -8.29,20 0,0 -16,24 -16,24 -2.62,3.93 -6.69,10.45 -10.11,13.44 -8.02,7.03 -18.97,3.3 -22.68,-6.44 -1.69,-4.43 -2.76,-12.49 -1.16,-17 1.02,-2.85 5.22,-8.31 7.14,-11 0,0 19.46,-28 19.46,-28 2.14,-4.34 -0.38,-11.39 -1.44,-16 0,0 -6.67,-31 -6.67,-31 -0.95,-4.46 -1.56,-11.41 -4.52,-14.82 0,0 -22.69,-16.32 -22.69,-16.32 -2.88,-2.05 -7.53,-5.77 -11,-6.28 -2.82,-0.41 -8.99,1.34 -12,2 0,0 -20,4.02 -20,4.02 0,0 -76,15.6 -76,15.6 0,0 -23,4.72 -23,4.72 -3.45,0.62 -12.2,2.14 -14.82,3.93 -2.92,2.01 -5.5,7.06 -7.38,10.15 0,0 -14.58,24.42 -14.58,24.42 -0.61,2.68 1.93,12.39 2.66,15.58 0,0 6.7,31 6.7,31 1.17,5.34 1.22,10.62 5.55,14.47 0,0 29.87,18.47 29.87,18.47 4.17,2.56 9.5,4.93 12.27,9.1 2.25,3.4 2.68,8.96 2.73,12.96 0.02,2.22 0.11,5.94 -0.51,8 -2.48,8.16 -11.6,8.99 -18.49,6.44 0,0 -37,-23.02 -37,-23.02 -4.49,-2.81 -12.23,-7 -14.91,-11.46 -2.13,-3.54 -4,-13.56 -4.89,-17.96 0,0 -6,-28 -6,-28 0,0 -9.16,-45 -9.16,-45 -0.09,-2.27 -0.05,-4.83 0.66,-7 0,0 19.3,-31 19.3,-31 3.89,-5.9 10.34,-18.2 16.04,-21.64 4.65,-2.8 13.44,-4.06 18.96,-5.16 0,0 32,-6.6 32,-6.6 0,0 108,-22.12 108,-22.12 12,-1.15 23.36,9.09 33,15.52 z m 2487.65,111 c 1.09,-4.83 6.21,-25.64 5.79,-29 -0.39,-3.18 -3.18,-7.21 -4.84,-10 0,0 -10.69,-17.86 -10.69,-17.86 -3.68,-4.62 -14.19,-5.71 -19.91,-6.93 0,0 -52,-11.21 -52,-11.21 0,0 -61,-13.21 -61,-13.21 -4.42,-0.95 -21.82,-5.45 -25,-4.77 -2.52,0.54 -5.81,3.15 -8,4.64 -4.32,2.92 -18.82,11.93 -21.02,15.51 0,0 -6.63,26.83 -6.63,26.83 0,0 -8.77,39 -8.77,39 -1.63,7.36 -4.42,16.75 -4.58,24 0,0 36,7.35 36,7.35 0,0 52,11.23 52,11.23 0,0 65,14.21 65,14.21 0,0 50,11.21 50,11.21 0,0 13.65,-61 13.65,-61 z m -2402.75,115 c 0.72,10.5 -5.45,13.38 -13.9,17.14 0,0 -30,13.01 -30,13.01 0,0 -105,45.7 -105,45.7 0,0 -27,11.73 -27,11.73 -4.4,1.91 -8.97,3.06 -11.47,7.47 0,0 -8.11,20.95 -8.11,20.95 -1.03,2.74 -3.4,8.29 -3.26,11 0.17,3.36 7.66,18.83 9.54,23 0,0 21.07,47 21.07,47 4.29,9.4 14.88,30.43 -1.77,34.47 -5.48,1.33 -11.68,-0.39 -15.45,-4.68 -1.98,-2.27 -4.35,-7.84 -5.79,-10.79 0,0 -11.34,-25 -11.34,-25 0,0 -18.73,-42 -18.73,-42 -3.1,-6.78 -9.39,-18.84 -9.65,-26 -0.24,-6.98 3.96,-15.5 6.56,-22 0,0 14.45,-36 14.45,-36 3.22,-6.7 9.53,-8.63 15.95,-11.42 0,0 32,-14 32,-14 0,0 92,-39.86 92,-39.86 0,0 49,-20.25 49,-20.25 12.78,-1.51 20.09,8.62 20.9,20.53 z m 2174.10,54.25 c 0,0 -42,-20.03 -42,-20.03 -6.96,-3.29 -13.76,-5.55 -14.66,-14.22 -0.77,-7.32 6.16,-26.71 19.66,-24.52 4.46,0.73 15.57,6.06 20,8.27 0,0 32,15.47 32,15.47 0,0 74,35.04 74,35.04 0,0 42,20.43 42,20.43 0,0 42,20.06 42,20.06 6.53,3.27 13.7,5.95 14.66,14.25 0.48,4.12 -1.17,8.35 -2.92,12 -4.4,9.17 -8.86,13.97 -19.74,11.47 -4.75,-1.09 -16.23,-6.84 -21,-9.22 0,0 -28,-13.49 -28,-13.49 -2.99,-1.47 -16.68,-7.98 -19,-8.19 -3.07,-0.28 -10.63,2.96 -14,4.1 0,0 -33,11.91 -33,11.91 0,0 -72,25.73 -72,25.73 0,0 -37,13.69 -37,13.69 0,0 32,14.75 32,14.75 0,0 43,20.5 43,20.5 0,0 50,23.99 50,23.99 0,0 32,15.34 32,15.34 5.12,2.23 14.71,6.08 17.85,10.6 5.59,8.04 -0.93,25.22 -8.89,29.51 -2.8,1.5 -6.88,1.52 -9.96,0.98 -5.16,-0.9 -13.81,-5.98 -19,-8.36 0,0 -38,-18.06 -38,-18.06 0,0 -62,-29.51 -62,-29.51 0,0 -47,-22.88 -47,-22.88 0,0 -43,-20.61 -43,-20.61 -9.67,-4.84 -16.45,-7.79 -13.24,-20.25 1.24,-4.82 4.55,-11.37 8.34,-14.61 3.38,-2.88 7.84,-3.69 11.9,-5.2 0,0 26,-9.19 26,-9.19 0,0 78,-27.66 78,-27.66 0,0 51,-18.34 51,-18.34 0,0 -50,-23.75 -50,-23.75 z m -865.51,67.83 c 2.37,1.38 4.82,11.05 5.65,13.92 0,0 10.2,32 10.2,32 1.27,3.67 5.31,14.71 5.42,18 0.16,4.5 -2.85,7.03 -5.76,10 0,0 -12.95,13.58 -12.95,13.58 0,0 -33.09,34.42 -33.09,34.42 0,0 -21.54,22 -21.54,22 0,0 -16.42,16.98 -16.42,16.98 -1.86,1.77 -4.79,5.06 -7.67,3.85 -2.08,-0.87 -4.76,-5.83 -5.9,-7.83 0,0 -12.29,-22 -12.29,-22 0,0 -12.42,-22 -12.42,-22 -1.48,-2.6 -4.56,-6.96 -3.91,-10 0.72,-3.37 6.57,-8.3 9.19,-10.58 0,0 20,-18.7 20,-18.7 0,0 19,-18.63 19,-18.63 0,0 29,-27.09 29,-27.09 0,0 29.98,-27.92 29.98,-27.92 0.39,-0.08 1.82,-0.99 3.51,0 z m -1229.49,55.96 c 2.08,-0.1 5.06,-0.04 7,0.7 7.69,2.94 19.42,19.71 10.57,29.96 -2.24,2.6 -10.3,7.83 -13.57,10.16 0,0 -28.00,19.48 -28.00,19.48 0,0 -78,54.32 -78,54.32 0,0 -30,20.68 -30,20.68 -3.2,2.18 -12.02,7.84 -13.69,10.84 -1.46,2.64 -1.19,5.91 -1.48,8.82 -0.46,4.59 -2.93,22.81 -1.89,26 0.97,2.98 13.82,20.06 16.64,24 0,0 13,18 13,18 1.96,2.72 4.79,7.3 7.59,9.02 2.57,1.56 15.97,4.17 19.83,5.11 3.25,0.79 11.07,3.12 14,2.7 4.04,-0.58 17.8,-11.17 22,-14.11 0,0 52.00,-36.3 52.00,-36.3 0,0 82.00,-57 82.00,-57 6.04,-4.26 11.32,-7.91 19,-5.43 9.9,3.21 19.77,20.33 12.35,29.83 -1.93,2.47 -10.32,8.06 -13.35,10.16 0,0 -25,17.44 -25,17.44 0,0 -89.00,62 -89.00,62 0,0 -24,16.6 -24,16.6 -10.05,6.94 -11.35,10.12 -24,9.98 0,0 -39,-6.58 -39,-6.58 -5.08,-0.91 -16.95,-2.75 -20.99,-5.27 -3.71,-2.31 -6.32,-6.66 -8.89,-10.15 0,0 -15.27,-21 -15.27,-21 0,0 -21,-29 -21,-29 -6.45,-8.84 -11.09,-12.57 -10.84,-24 0,0 5.57,-38 5.57,-38 0.76,-4.94 1.99,-15.91 3.99,-20 2.64,-5.42 9.51,-9 14.43,-12.34 0,0 29,-20.38 29,-20.38 0,0 86,-59.95 86,-59.95 8.8,-5.94 30.83,-22.64 39.00,-25.69 0,0 4.00,-0.6 4.00,-0.6 z m 1973,259.31 c 0,0 36,27.77 36,27.77 4.97,3.82 24.48,18.25 26.99,22.05 6.06,9.15 -1.87,21.97 -9.99,26.82 -7.2,4.31 -15.88,0.9 -22,-3.66 0,0 -39,-29.96 -39,-29.96 0,0 -35,-26.95 -35,-26.95 -3.86,-3.01 -15.18,-11.35 -17.7,-14.46 -2.56,-3.15 -3.97,-8.98 -5.3,-12.96 0,0 -7.72,-24 -7.72,-24 0,0 -23.28,-72 -23.28,-72 -2.77,-8.38 -10.88,-29.34 -7.78,-37 0.91,-2.25 2.79,-5.09 4.3,-7 8.77,-11.19 13.95,-9.36 26.48,-8.08 0,0 9,0 9,0 0,0 25,1.99 25,1.99 0,0 59,4 59,4 0,0 28,1.92 28,1.92 4.25,0.41 9.1,-0.41 13,1.26 3.82,1.63 16.04,11.4 20,14.49 0,0 37,28.55 37,28.55 0,0 36,27.87 36,27.87 6.07,4.85 11.5,9.41 9.61,18 -0.72,3.29 -2.81,6.36 -4.85,8.99 -5.85,7.54 -13.35,11.92 -22.76,7.33 0,0 -27,-20.19 -27,-20.19 0,0 -56,-43.13 -56,-43.13 0,0 -53,67 -53,67 0,0 -20,26 -20,26 6.09,3.22 15.21,10.89 21,15.35 z m -45,-127.63 c 0,0 -27,-2.72 -27,-2.72 0,0 19.42,54 19.42,54 0,0 12.58,36 12.58,36 6.4,-4.8 18.88,-21.85 24.6,-29 0,0 40.4,-51 40.4,-51 0,0 -70,-7.28 -70,-7.28 z m -1737,310.28 c -0.02,14.58 -5.2,15.98 -14.99,26 -5.92,6.07 -12.12,15.05 -20.01,18.47 -4.96,2.15 -12.51,1.52 -18,1.53 0,0 -16,1 -16,1 0,0 -25,0 -25,0 -11.29,-0.02 -12.66,-3.93 -21,-11.28 0,0 -10,-9.55 -10,-9.55 0,0 -24,-22.16 -24,-22.16 0,0 -41,-37.97 -41,-37.97 -7.45,-7.12 -13.56,-9.49 -12.96,-21.04 0.41,-7.85 5.76,-11.78 10.96,-17 0,0 16,-17 16,-17 0,0 77,-80 77,-80 0,0 13.04,-14 13.04,-14 0,0 21.92,-22 21.92,-22 0,0 13.04,-14 13.04,-14 5.41,-5.41 14.25,-16.17 22,-16.89 8.8,-0.82 14.2,5.33 20,10.85 0,0 28,26 28,26 0,0 30,27.87 30,27.87 5.11,4.63 13.07,10.77 15.78,17.17 2.3,5.45 3.14,27.16 3.22,34 0,0 0.96,10 0.96,10 0,0 0,12 0,12 0.02,12.63 -4.6,13.12 -12.87,22 -5.36,5.75 -13.46,15.86 -20.09,19.64 -6.08,3.46 -28.41,5.35 -36,5.36 0,0 0,51 0,51 z m -33,-182 c 0,0 -32,33 -32,33 -2.82,2.82 -13.82,13.37 -13.8,17 0.01,2.67 3.97,6.2 5.8,7.96 0,0 18,16.62 18,16.62 0,0 18,16.51 18,16.51 7.6,7.08 7.3,9.89 18,9.91 5.46,0.01 21.61,0.32 26,-1.1 4.55,-1.49 7.78,-6.49 11.04,-9.9 3.93,-4.11 16.77,-15.68 18.36,-20 0.73,-1.98 0.64,-5.82 0.59,-8 0,0 -0.99,-17 -0.99,-17 0,-2.02 0.12,-5.11 -0.6,-6.96 -1.05,-2.73 -11.67,-12.4 -14.4,-14.87 0,0 -40,-37.17 -40,-37.17 -5.38,3.89 -9.33,9.31 -14,14 z m 1535.99,60 c 0,0 28.03,31 28.03,31 0,0 37.15,41 37.15,41 0,0 34.55,38 34.55,38 0,0 16.2,18 16.2,18 2.66,2.89 5.71,7.16 9.08,9.02 3.6,1.97 8.98,1.97 13,1.98 0,0 19,0.98 19,0.98 1.88,-0.08 3.26,-0.14 5,-1 2.4,-1.19 15.12,-12.47 18,-15.03 0,0 36,-31.23 36,-31.23 0,0 15,-13.19 15,-13.19 14.24,-10.93 27.06,-3.06 25.8,9.47 -0.69,6.93 -4.96,10.6 -9.8,14.95 0,0 -22,19.2 -22,19.2 0,0 -39,34 -39,34 -3.99,3.52 -13.21,11.93 -18,13.34 -2.04,0.6 -4.86,0.51 -7,0.51 0,0 -39,-2 -39,-2 -3.59,-0.05 -19.35,-1.23 -22,-2.43 -3.9,-1.77 -8.04,-6.46 -11.02,-9.58 0,0 -19,-20.99 -19,-20.99 0,0 -72.96,-81 -72.96,-81 0,0 -23.19,-26 -23.19,-26 -6.08,-6.76 -11.34,-10.17 -10.79,-20 0.54,-9.57 9.81,-15.4 17.96,-18.35 9,-1.42 13.14,3.37 18.99,9.35 z m -1629,37 c 0,0 -35.99,38 -35.99,38 0,0 46,43 46,43 3.14,3.09 15.79,15.22 19,16.4 1.94,0.72 4.91,0.6 7,0.6 0,0 27,0 27,0 10.69,-0.02 9.47,-2.27 17.01,-10 2.77,-2.83 9.37,-8.88 10.97,-12 1.7,-3.32 2.01,-11.17 2.17,-15 0,0 0,-15 0,-15 0.1,-2.41 0.97,-5.72 0,-7.96 -0.73,-2.77 -4.04,-5.15 -6.15,-7.13 0,0 -13,-12.08 -13,-12.08 0,0 -22,-20.74 -22,-20.74 0,0 -26,-24.09 -26,-24.09 0,0 -26.01,26 -26.01,26 z m 1532.21,90 c 0,0 -20.88,-34 -20.88,-34 -3.61,-5.73 -8.88,-12.91 -8.12,-20 1.23,-11.42 22.03,-22.02 31.59,-14.35 3.12,2.5 8.65,12.47 11.02,16.35 0,0 19.87,32 19.87,32 0,0 74,120 74,120 0,0 15.37,25 15.37,25 3.03,4.85 7.19,11.02 6.73,17 -0.57,7.29 -6.71,11.97 -12.78,15.01 -16.13,8.06 -20.91,-1.94 -28.42,-14.01 0,0 -21.63,-35 -21.63,-35 -1.95,-3.11 -8.13,-13.58 -10.33,-15.44 -2.88,-2.43 -10.74,-3.55 -14.62,-4.44 0,0 -33,-7.33 -33,-7.33 0,0 -68,-15.37 -68,-15.37 0,0 -46,-10.42 -46,-10.42 0,0 44.05,71 44.05,71 0,0 28.35,46 28.35,46 0,0 18.41,30 18.41,30 2.89,4.72 7.3,10.67 8.5,16 2.71,12 -10.68,21.42 -21.31,21.96 -11.26,0.57 -13.43,-6.39 -18.6,-14.96 0,0 -13.72,-22 -13.72,-22 0,0 -75.26,-122 -75.26,-122 0,0 -25.22,-41 -25.22,-41 -4.09,-6.8 -6.77,-14.08 -0.86,-20.91 2.12,-2.45 4.84,-4.23 7.66,-5.78 10.31,-5.66 16.41,-3.09 27,-0.73 0,0 19,4.3 19,4.3 0,0 74,16.77 74,16.77 0,0 63,14.35 63,14.35 0,0 -29.8,-48 -29.8,-48 z m -1075.2,19.75 c 0,0 21,10 21,10 0,0 30,14.94 30,14.94 5.08,2.33 14.89,6.23 18.78,9.84 3.44,3.19 6.18,11.88 8.02,16.47 4.4,10.97 15.78,34.11 15.11,45 -0.66,10.68 -11.55,28.11 -16.65,38 0,0 -38.01,76 -38.01,76 0,0 -12,23 -12,23 -2.72,5.44 -5.31,11.62 -10.29,15.37 -5.77,4.34 -15.02,6.13 -21.96,8.05 0,0 -37,9.9 -37,9.9 -6.43,1.15 -11.43,-2.31 -17,-5.07 0,0 -23,-11 -23,-11 0,0 -33,-16 -33,-16 -3.73,-1.87 -14.14,-6.76 -16.78,-9.04 -3.55,-3.05 -6.2,-11.67 -8.02,-16.21 0,0 -10,-25 -10,-25 -2.46,-6.16 -5.42,-13.2 -4.88,-20 0.96,-12 14.61,-35.8 20.82,-47 0,0 6.97,-14 6.97,-14 0,0 27.58,-54 27.58,-54 5.07,-9.37 13.91,-31.6 21.33,-37.47 6.05,-4.8 14.59,-6.46 21.98,-8.41 0,0 35,-9.61 35,-9.61 9.61,-1.5 13.74,2.11 22,6.24 z m -39,30.25 c -2.61,0.86 -7.64,2.1 -9.61,3.72 -2.26,1.86 -4.29,6.58 -5.64,9.28 0,0 -8.61,17 -8.61,17 0,0 -36.39,72 -36.39,72 0,0 -15,30 -15,30 -1.51,3.02 -5.76,10.04 -5.73,13 0.02,2.42 2.95,9.38 3.93,12 1.43,3.83 5.6,16.12 7.75,18.61 2.1,2.45 8.22,5.1 11.3,6.64 0,0 24,12 24,12 0,0 17,8.01 17,8.01 3.2,1.54 6.33,3.5 10,3.46 3.61,-0.03 18.46,-4.97 23,-6.3 3.1,-0.9 7.18,-1.72 9.61,-3.93 2.65,-2.4 8.19,-14.58 10.14,-18.49 0,0 20.5,-41 20.5,-41 0,0 25.17,-50 25.17,-50 0,0 10.33,-20 10.33,-20 1.23,-2.46 4.02,-7.47 4.24,-10 0.22,-2.53 -1.5,-6.56 -2.41,-9 -1.48,-3.91 -7.55,-21.26 -9.39,-23.37 -1.75,-2 -7.6,-4.58 -10.19,-5.88 0,0 -23,-11 -23,-11 -6.6,-3.27 -22.72,-12.49 -29,-13.22 0,0 -22,6.47 -22,6.47 z m 796,61.66 c -14.64,-1.5 -15.24,-16.07 -9.58,-22.45 3.46,-3.91 15.32,-7.94 20.58,-10.01 0,0 50,-19.4 50,-19.4 5.57,-2.19 19.5,-8.14 25,-7.43 13.17,1.68 12.7,17.06 8.35,22.42 -3.99,4.93 -21.75,10.59 -28.35,13.21 0,0 15.8,39 15.8,39 0,0 38.6,95 38.6,95 0,0 12.45,31 12.45,31 0,0 9.15,25 9.15,25 8.54,-2.96 24.55,-11.3 33,-9.77 11.34,2.04 12.73,17.28 4.79,23.98 -4.36,3.68 -24.4,11.11 -30.79,13.47 0,0 -49,19.27 -49,19.27 -4.16,1.51 -9.58,3.42 -14,2.51 -9.61,-1.99 -14.53,-12.98 -8.99,-21.36 2.37,-3.59 6.2,-4.78 9.99,-6.3 0,0 20,-7.8 20,-7.8 0,0 -13.42,-32 -13.42,-32 0,0 -32.18,-79 -32.18,-79 0,0 -19.41,-48 -19.41,-48 0,0 -11.99,-31 -11.99,-31 -6.92,2.77 -23.29,10.35 -30,9.66 z m -131.58,183.34 c 0,0 10.23,47 10.23,47 1.36,6.03 6.72,28.3 5.78,33 -1.92,9.63 -12.06,11.9 -20.43,12 -3.65,0.04 -8.88,0.51 -11.94,-1.6 -4.31,-2.96 -5.05,-8.66 -6.06,-13.4 0,0 -6.6,-30 -6.6,-30 0,0 -22.82,-104 -22.82,-104 0,0 -10.57,-52 -10.57,-52 -0.3,-13.58 6.48,-19.5 14.14,-30 3.81,-5.22 18.11,-25.63 21.94,-28.28 3.34,-2.31 16.28,-4.58 20.91,-5.52 0,0 41,-8.78 41,-8.78 6.27,-1.37 29.04,-6.43 34,-6.03 8.79,0.71 13.24,8.29 11.77,16.61 -1.82,10.35 -14.49,11 -22.77,12.79 0,0 -45,9.61 -45,9.61 -4.13,0.83 -18.06,3.35 -20.82,5.33 -2.79,2.01 -5.56,7.26 -7.52,10.27 -2.25,3.44 -9.36,13.56 -9.98,17 -0.52,2.89 2.73,15.31 3.53,19 0,0 5.44,25 5.44,25 0,0 4.35,20 4.35,20 0,0 20,-4 20,-4 0,0 40,-8.21 40,-8.21 0,0 24,-4.75 24,-4.75 3.97,-0.16 7.49,0.07 10.66,2.76 6.12,5.21 6.69,18.27 -3.66,23.14 -6.02,2.84 -18.92,4.77 -26,6.27 0,0 -30,6.39 -30,6.39 0,0 -29,6.4 -29,6.4 0,0 5.42,24 5.42,24 z m -400.42,-64.88 c 0,0 40,10.8 40,10.8 11.35,5.5 10.33,21.73 -2,25.29 -6.6,1.91 -16.47,-1.29 -23,-3.06 0,0 -43,-11.28 -43,-11.28 0,0 -15,-3.99 -15,-3.99 -1.84,-0.47 -4.91,-1.39 -6.7,-0.56 -2.28,1.05 -2.86,4.49 -3.43,6.68 0,0 -4.87,18 -4.87,18 0,0 -15.14,55 -15.14,55 -1.62,5.71 -4.27,18.65 -8.25,22.44 -6.54,6.23 -20.57,2.65 -27.57,-1.26 -8.09,-4.53 -6.1,-12.79 -4.16,-20.18 0,0 13.49,-50 13.49,-50 0,0 25.75,-95 25.75,-95 0,0 7.59,-28 7.59,-28 1.59,-5.59 2.95,-11.36 6.68,-15.98 4.63,-5.75 13.04,-8.96 19.61,-12.27 10.15,-5.11 23.38,-13.28 34,-16.66 7.81,-2.48 17.16,1.57 25,3.54 0,0 49,13 49,13 5.72,1.44 20.75,4.67 24.79,8.02 6.03,4.99 5.61,17.15 -0.89,21.61 -2.85,1.96 -6.58,1.8 -9.9,1.73 -6.77,-0.16 -15.35,-3.04 -22,-4.84 0,0 -37,-9.52 -37,-9.52 0,0 -18,-4.64 -18,-4.64 -5.3,-0.63 -12.4,4.67 -17,7.29 -3.79,2.16 -11.86,6.34 -14.07,9.82 -1.5,2.37 -4.38,14.39 -5.35,17.9 0,0 -12.58,45 -12.58,45 0,0 44,11.12 44,11.12 z"
     id="blue"
     style="fill:#1c20aa;fill-opacity:1;stroke:none" />
  <path
     d="m 2034.08,1365.04 c -71.20,-51.48 -110.26,-149.99 -77.02,-234.05 7.85,-36.76 36.18,-49.51 63.38,-66.92 78.56,-73.87 216.34,-62.86 282.86,21.57 61.54,69.59 59.74,183.06 -3.41,251.09 -8.94,17.92 -73.60,47.21 -25.55,41.68 48.90,0.98 97.82,1.22 146.75,1 -2.16,-16.73 3.41,-26.29 18.85,-23.29 9.58,5.51 1.46,26.97 3.14,38.76 -3.71,11.59 8.19,38.82 -7.41,38.52 -7.99,-6.86 -17.50,-12.21 -15.58,-29 -96.16,-0.12 -192.28,-1.46 -288.46,-1.16 -78.66,-1.97 -157.46,0.12 -236.13,-1.83 -27.48,-4.01 -45.20,39.66 -71.11,4.99 -36.04,-18.88 -10.15,-60.67 24.87,-46.40 18.98,0.56 26.18,26.82 48.66,18.40 50.72,0 101.44,0 152.17,0 -3.51,-6.32 -10.49,-9.19 -16,-13.37 z m 48,-324.18 c -77.15,28.49 -125.56,113.80 -112.96,194.48 7.12,69.31 64.52,124.18 131.13,138.03 78.89,18.27 168.42,-18.47 205.32,-92.31 41.35,-75.44 20.46,-184.58 -58.33,-226.89 -48.87,-29.53 -112.12,-33.95 -165.14,-13.31 z m -602,180.55 c 3.19,-27.53 -1.41,-56.26 2.91,-83.09 21.88,-2.08 8.61,40.10 17.92,55.30 5.03,27.44 16.68,52.80 28.16,77.99 -24.35,12.79 -27.20,-51.16 -35,-34.78 -3.70,11.88 8.16,38.26 -7.39,39.11 -14.19,-0.13 -3.07,-27.46 -6.60,-39.06 0,-5.15 0,-10.30 0,-15.46 z m 678.46,379 c 10.89,11.63 32.40,6.97 47.50,19.38 19.45,8.21 38.03,19.35 58.03,25.66 74.96,-66.80 145.87,-138.69 221,-205.31 28.95,2.23 43.32,-27.52 64.11,-42.84 16.07,-13.06 29.10,-31.32 47.38,-40.58 12.79,9.34 3.64,30.39 6.41,44.81 0.55,56.27 -1.79,112.48 -0.79,168.76 27.39,14.81 56.23,21.90 83.87,6.10 15.33,26.33 30.66,52.66 46,79 -31.36,-3.05 -62.69,-6.36 -94,-10 0.20,-14.56 -14.84,-14.03 3.46,-31.74 -7.71,-20.88 -53.21,-20.08 -39.46,12.93 0,45.93 0,91.87 0,137.81 -19.28,4.20 -27.72,-2.43 -23,-22.24 -0.40,-93.74 0.96,-187.43 1.49,-281.15 -3.84,-19.41 9.19,-19.68 8.28,-36.40 0.50,-14.71 0.08,-29.46 0.22,-44.19 -90.77,81.42 -177.74,167.54 -267.16,250.67 -13.52,12.84 -44.70,33.74 -6.62,39.99 28.17,6.15 43.00,34.81 13.79,49.37 -22.43,19.94 -43.57,41.56 -67,60.22 -27.02,3.47 -27.98,-34.70 -42.39,-49.92 -17.79,8.53 -28.21,29.89 -46.59,37.12 -24.24,-19.44 -28.33,-55.11 -47.23,-78.26 -15.71,22.62 -26.24,-2.45 -38.97,-14.24 -18.81,-12.98 1.67,-22.74 11.69,-33.37 17.43,-16.59 34.97,-33.07 52.48,-49.58 l 3.90,3.90 3.55,4.09 0,0 z m -327.77,-217.99 c -5.46,39.01 50.44,-19.49 5.57,-5.93 l -3.10,2.43 -2.46,3.49 0,0 z m -189.69,181.77 c 52.95,-25.05 106.01,-49.90 158.87,-75.19 3.36,-29.21 30.53,-24.36 52.19,-26.28 47.50,-1.53 43.21,79.06 -5.06,71.69 -23.93,-11.16 -40.04,-26.55 -64.83,-6.04 -60.48,28.96 -121.53,56.85 -181.56,86.69 -3.86,24.25 0.16,49.68 -2.6,74.35 27.94,1.33 69.01,-12.67 55.94,-36 30.36,0.13 60.67,-1.70 91.05,-1 -16.92,25.62 -34.69,51.09 -54,75 -12.81,-48.66 -62.92,-9.69 -92.88,-7.82 -0.34,64.94 0.42,129.91 -1.11,194.82 -27.82,-6.94 -21.68,-33.89 -22,-55.12 0,-26.62 0,-53.24 0,-79.87 -28.07,-7.67 -52.03,-12.39 -63,19 -20.69,-23.51 -33.73,-52.44 -50,-79 26.96,2.19 53.90,4.97 81,4 32.98,-2.37 -15.37,32.62 14.29,29.22 21.26,8.89 18.62,-8.61 17.70,-24.22 2.04,-33.61 0.53,-67.33 1,-101 -31.84,11.05 -60.91,31.21 -93.14,40.12 -15.71,-12.64 -14.86,-35.38 -13.50,-57.05 4.28,-14.10 -6.61,-36.41 7.64,-44.14 25.50,-14.15 11.39,23.73 15,38.08 1.45,12.67 -6.66,40.26 13.48,23.81 23.24,-11.15 47.41,-20.78 69.49,-34.03 1.75,-19.40 2.14,-39.18 2.02,-58.79 37.57,-22.11 18.13,24.69 22,48 14,-6.40 28,-12.81 42,-19.22 z m 186.82,-75.78 c 2.97,64.12 71.59,-38.80 3.28,-4.59 l -3.28,4.59 z m 860.46,121 c -22.15,-9.81 -21.00,27.38 7.72,17 l -2.86,-8.86 -4.85,-8.13 z m -542.28,27.63 c -37.91,16.21 -0.46,29.88 19.11,38.11 24.44,15.34 43.95,17.41 22.84,-13.91 -3.51,-24.67 -20.27,-13.31 -29.77,-11.94 -3.62,-4.31 -6.34,-10.41 -12.18,-12.26 z m 119,104.79 c 15.87,-15.21 33.01,-29.30 47.92,-45.36 -8.44,-12.58 -29.65,-16.06 -43.56,-24.71 -24.89,-10.69 -48.67,-25.28 -74.36,-33.33 17.18,38.70 36.22,76.56 54,115 6.89,-1.28 11.04,-7.29 16,-11.58 z m -591,-74.42 c 3.20,26.87 25.61,20.96 23.53,-0.90 -7.84,0.30 -15.68,0.60 -23.53,0.90 z m 488.78,58 c 8.71,25.51 51.31,-25.57 12.14,-23.96 -41.76,-23.12 -25.26,-5.00 -12.14,23.96 z m -673.78,11 c 6.22,19.20 22.45,34.29 18.40,5.67 10.00,-9.17 -15.34,-3.41 -18.40,-5.67 z m 665,81.32 c -17.07,18.46 -44.61,7.85 -66.95,10.68 -66.47,-2.18 -133.20,-0.42 -199.63,-0.99 -17.03,43.54 -76.57,24.40 -82.95,-16.01 -5.76,-40.12 64.32,-37.84 79.08,-11.86 40.35,4.23 81.81,0.70 122.60,1.86 45.77,1.83 91.66,0.77 137.49,0.90 18.62,-12.84 41.68,3.01 10.36,15.41 z m -323.21,-14.28 c -25.31,44.00 63.92,16.17 24.82,-8.29 -8.75,-1.57 -19.37,0.70 -24.82,8.29 z m 262.33,54.96 c 12.37,12.78 -22.23,38.20 -24.24,10 -9.28,-15.22 16.38,-31.29 24.24,-10 z m -86.63,80 c -21.25,-22.06 17.95,-38.14 25.33,-10.41 -3.38,4.66 -19.83,27.81 -25.33,10.41 z m -283.49,9 c 0.15,15.08 15.04,15.42 9,36.71 0.04,15.28 4.08,38.38 -14.02,18.15 -17.17,-12.55 -23.93,-13.10 -8.93,-20.81 4.12,-11.09 -7.44,-38.04 10.84,-34.05 l 2.47,0 0.64,0 z m 243,45 c -21.77,43.54 -52.80,-25.70 -13.65,-17.79 4.94,5.61 9.43,11.62 13.65,17.79 z m -863,42 c 0.10,15.32 -5.25,36.11 17.29,29 16.52,-4.11 31.51,19.94 21.75,26 -12.22,-3.04 -38.15,8.78 -34.05,-12 -11.71,3.18 -2.24,27.99 -5.77,39.53 -0.75,27.55 -31.02,-4.18 -22.34,-21.85 0.54,-18.21 0.71,-36.45 1.11,-54.67 14.05,2.04 3.45,-12.74 22,-6 z m 761.74,20 c 17.76,-53.00 49.47,34.78 8.32,11.09 -2.77,-3.69 -5.55,-7.39 -8.32,-11.09 z m -605.74,9 c 6.27,7.72 22.89,14.20 14.52,25 -12.08,-2.75 -38.17,7.91 -36.47,-11.43 -29.41,-15.71 9.65,-14.36 21.94,-13.56 z m 1005.4,90.02 c 3.02,26.71 -0.81,54.62 0.6,81.87 -0.53,29.92 1.10,59.99 -0.87,89.82 -16.47,27.11 -27.33,17.86 -21.35,-8.04 0.53,-15.87 0.07,-31.78 0.22,-47.66 16.65,1.63 4.11,-25.92 8,-37.06 0.79,-26.63 1.30,-53.26 1,-79.93 l 6.48,-0.05 5.91,1.07 z m 439.77,27.98 c 0.21,24.43 -2.86,45.38 -28.02,19.26 -27.85,8.98 -17.94,51.40 -10.01,71.14 -1.52,23.68 0,47.55 17.89,65.62 10.89,33.19 -30.44,-18.79 -19.02,19.72 1.14,87.73 -2.09,175.40 -0.43,263.09 3.19,17.45 -2.48,35.66 -0.56,55.37 -2.64,18.15 7.89,53.50 -21.41,47.75 -28.52,0 -57.05,0 -85.58,0 -2.43,30.65 -22.17,59.37 7.86,76.85 12.76,13.95 -35.62,26.05 -51.16,38.62 -16.07,11.71 -25.09,13.63 -23.99,-2.56 -15.98,8.20 -1.65,-24.02 -4.15,-33.81 2.63,-14.65 -1.21,-42.72 17.92,-40.15 28.08,14.44 44.30,-56.66 4.81,-39.94 -41.99,-0.75 -84.32,1.49 -126.10,-1.10 -12.61,-9.21 -33.23,5.70 -40.62,-7.83 -12.74,-19.55 3.10,-18.40 19.15,-17.05 89.79,-0.57 179.48,1.75 269.28,1 -2.13,-14.14 1.79,-52.38 -21.88,-32.65 -18.35,18.43 -13.89,0.30 -18.46,-5.56 -14.03,4.21 -4.00,-25.66 -7.80,-36.24 0.75,-12.94 -6.35,-35.59 6.14,-38.00 6.46,-2.02 25.54,6.23 34.90,12.21 18.25,16.15 20.60,5.01 18.09,-14.46 1.30,-77.06 0.93,-154.17 2,-231.24 -0.81,-27.48 3.31,-55.70 -7,-82.04 17.34,-5.07 -19.71,-5.70 -27.29,-5 -15.91,0.24 -31.80,-0.33 -47.70,-1 21.39,-20.68 52.14,-10.58 78.69,-13.02 1.74,-30.87 15.93,-56.70 44.82,-69.50 11.00,-4.61 25.41,-24.92 19.65,0.52 z m -422.17,77 c 3.06,-15.42 -7.21,-40.79 7.58,-48.06 16.70,0.21 -3.13,36.73 11.35,39.06 17.01,0 34.03,0 51.05,0 -10.18,23.61 -42.03,8.22 -56.06,16.47 -2.82,11.77 6.44,37.45 -12.38,35.39 0.94,-14.92 -16.39,-11.99 -9.55,-31.86 5.70,1.15 10.99,-5.22 8,-11 z m 261,60.24 c 12.85,-8.41 -10.59,-65.51 17.29,-45.59 -5.98,30.10 21.38,42.99 44.18,29.56 2.62,28.70 2.13,60.81 4.52,90.78 -26.88,-16.31 -53.38,-33.25 -80,-50 -10.64,-20.75 -7.56,-11.69 14,-24.76 z m -982,-9.82 c 23.05,14.27 44.26,-37.76 73,-17.42 -21.78,11.93 -69.94,28.67 -40.41,56.04 -11.81,17.55 -31.69,-28.48 -43.88,8.62 -74.51,85.75 -63.89,234.40 31.87,300.37 95.64,73.99 246.66,59.16 323.98,-34.62 36.31,-41.67 55.41,-97.28 52.65,-152.42 16.20,-38.38 21.29,-14.21 21.97,10.34 7.17,91.22 -48.92,179.73 -128.89,221.28 1.91,7.55 29.82,1.35 42.19,3.37 59.79,-0.20 119.52,1.71 179.33,1.02 15.39,14.65 33.38,37.50 26.16,61.37 -13.46,1.87 -21.85,-12.37 -21.98,-26.81 2.97,-18.53 -25.22,-5.88 -37.06,-9.58 -84.45,-0.82 -168.91,-1.14 -253.39,-1.17 -32.41,-1.36 -64.78,0.49 -97.24,-0.82 -94.59,-0.18 -189.14,-1.47 -283.75,-1.14 -30.56,-3.69 -57.26,50.83 -86.63,8.12 -20.78,-14.68 -22.37,-61.06 10.98,-54.07 29.82,-12.99 45.71,14.32 66.58,23.09 74.17,0 148.35,0 222.52,0 -34.01,-22.53 -68.38,-46.99 -91.43,-81.81 -64.14,-77.85 -66.23,-198.43 -3.39,-277.61 31.14,-3.13 33.78,-22.44 12.12,-41.10 -11.38,-33.86 17.02,-1.51 24.70,4.95 z m 1011,31.58 c -26.00,-5.62 25.72,31.45 12.24,-2.28 3.01,-12.46 -9.66,-0.87 -12.24,2.28 z m 48.98,286.12 c 5.30,-21.94 -29.94,-19.85 -16.98,7.88 l 8.64,-3.34 8.33,-4.54 z m 17.02,21.88 c -2.16,13.98 9.41,-2.01 0,0 z m -1309.66,56 c -0.38,63.74 72.40,-36.37 3.60,-4.81 l -3.60,4.81 0,0 z m 1189.66,82.36 c -17.94,0.09 -7.55,39.91 11.41,11.03 4.92,-5.84 -8.51,-7.40 -11.41,-11.03 z"
     id="Selection"
     style="fill:#6870b0;fill-opacity:1;stroke:none" />
  <path
     d="m 747.06,1221.68 c 31.44,-52.18 69.14,-100.13 105.24,-149 -37.76,-78.43 42.82,-79.64 85.54,-95.00 277.01,-289.59 674.79,-458.45 1075.76,-452.99 463.41,0.52 915.50,238.96 1184.49,615.02 58.07,82.31 111.09,169.07 150.38,261.97 54.12,-27.44 107.59,-62.05 168.99,-69.17 31.46,33.11 -10.97,81.92 -19.73,119.13 -25.44,49.32 -48.82,99.49 -73.82,149.03 23.44,99.44 44.30,200.43 50.71,302.9 91.19,41.24 189.51,72.54 281.90,113.33 49.00,22.20 100.88,39.47 147.71,65.78 -2.21,52.04 -82.02,84.68 -132.58,68.99 -99.40,-14.91 -198.71,-30.51 -298.18,-45.01 -30.64,499.39 -339.03,967.69 -781.34,1199.84 -448.17,244.20 -1023.74,228.14 -1457.04,-41.79 -401.88,-241.29 -675.77,-682.45 -708.10,-1150.61 -10.72,-139.47 -1.02,-280.43 27.50,-417.43 -98.41,-1.09 -197.69,3.30 -295.54,0.01 -71.75,-30.97 -149.26,-51.75 -215.28,-93.38 -42.56,-40.69 29.29,-49.20 57.15,-58.88 66.62,-20.01 132.89,-41.34 199.67,-60.73 -76.39,-35.08 -64.00,-114.04 -123.66,-160 -47.41,-49.46 -23.55,-114.78 49.50,-93.18 72.28,42.92 137.98,-10.84 215.15,-9.98 45.12,-2.99 75.10,7.21 31.85,-43.89 -42.95,-62.51 26.16,-114.28 81.06,-68.35 64.31,-46.82 86.26,49.08 105.03,91.29 21.15,17.48 44.71,83.73 64.47,61.50 7.72,-13.13 15.44,-26.26 23.16,-39.39 z m 2303.42,407.04 c 84.17,-78.19 176.13,-147.63 271.59,-211.22 -197.33,-459.49 -651.92,-796.41 -1149.22,-852.25 -410.49,-51.14 -839.87,85.22 -1144.25,366.24 -25.80,31.66 -124.58,95.37 -35.10,70.22 49.59,19.00 37.22,78.93 65.52,112.76 34.16,48.52 69.88,96.14 100.18,147.20 -4.32,60.81 -57.90,4.26 -87.46,-5.63 -39.66,-20.99 -79.13,-42.50 -118.24,-64.36 -16.13,59.64 -43.00,117.18 -85,163 100.93,-12.61 202.10,-23.78 302.91,-37.17 188.49,-224.30 467.98,-371.07 761.94,-386.36 316.15,-20.57 636.60,109.66 850.14,343.53 103.29,110.75 181.42,244.07 231,387 12,-10.98 24,-21.97 36,-32.96 z m -1094,-1037.20 c 39.40,21.58 65.38,57.98 59.40,104.02 0.29,42.45 13.02,87.49 0.94,128.01 -21.87,43.81 -64.67,53.00 -108.80,51.60 -59.97,11.82 -105.45,-50.63 -96.23,-106.80 1.90,-44.02 -18.10,-93.16 5.08,-132.55 21.59,-38.34 61.00,-44.59 101.19,-44.07 12.79,-0.52 25.67,-3.11 38.41,-0.20 z m 186,4.74 c 54.09,3.58 116.52,15.59 129.82,77.42 -5.32,50.22 -37.21,79.28 2.98,123.94 5.53,60.46 -59.24,105.21 -114.46,85.98 -31.76,-8.39 -71.31,-1.19 -97.02,-22.91 -6.92,-47.46 9.90,-97.16 12.67,-145.54 7.58,-38.64 4.28,-81.25 21.34,-116.58 12.86,-11.08 30.22,-3.21 44.66,-2.29 z m -223,8.51 c -49.90,-4.76 -109.46,24.66 -99.84,82.77 3.42,45.35 4.26,91.23 10.76,136.13 29.77,52.70 87.26,37.91 136.04,33.53 47.36,-25.39 45.33,-75.11 39.13,-120.53 -6.98,-41.37 8.52,-95.98 -36.22,-119.21 -13.68,-15.65 -30.71,-15.67 -49.86,-12.69 z m 331.92,113.91 c 25.52,-54.58 -25.31,-110.83 -82.06,-105.33 -42.35,-14.02 -79.83,-4.65 -72.77,47.34 -6.34,64.24 -20.94,128.89 -21.34,192.97 41.07,14.57 89.12,16.20 133.26,21.51 54.28,-19.62 71.15,-86.32 27.35,-124.24 -19.39,-15.87 10.75,-17.66 15.56,-32.24 z m -599.55,160 c 28.20,80.20 -72.00,57.83 -63.92,-5.11 -15.52,-63.81 -38.41,-126.42 -48.80,-191.06 22.78,-33.99 74.17,-30.99 110.35,-46.82 50.31,-20.46 113.55,26.01 110.91,81 -5.68,53.92 -87.51,82.30 -10.84,103.46 80.66,13.41 39.68,107.18 -18.19,56.43 -32.24,-20.35 -65.73,-38.90 -96.87,-60.89 5.79,21 11.58,42 17.37,63 z m 303.63,-237.25 c 21.91,25.10 9.81,65.40 16.36,97.30 -1.07,33.48 18.91,78.13 -22.37,95.87 -46.05,10.37 -102.18,-1.68 -90.56,-61.37 0.17,-39.82 -11.29,-82.53 -2.33,-120.23 16.26,-27.63 76.30,-31.78 98.90,-11.57 z m 228,-1.17 c 63.30,-1.95 46.35,111.05 -13.31,90.09 -38.42,1.89 -57.36,-11.09 -42.12,-50.19 -2.75,-38.37 10.31,-55.64 48.94,-40.75 l 4.83,0.63 1.66,0.21 0,0 z m -480,140.28 c 36.59,-19.60 53.16,-72.46 30.15,-110.54 -41.74,-45.52 -95.42,-15.72 -143.98,-2.98 -58.63,0.08 -27.21,54.26 -20.52,86.89 16.42,55.09 27.28,113.12 48.16,165.96 52.33,1.68 8.45,-64.08 6.49,-94.37 -12.06,-43.95 -23.41,-88.10 -36.29,-131.82 39.55,-7.27 91.03,-43.35 119.25,1.67 39.69,73.02 -139.28,76.21 -34.78,129.64 33.32,17.30 63.10,45.47 99.25,54.40 41.51,-24.96 -34.20,-46.17 -53.93,-62.91 -21.54,-18.47 -74.89,-25.70 -13.79,-35.95 z m 204,-136.77 c -52.39,-7.26 -41.80,48.42 -38.42,81.63 7.07,33.36 -10.30,87.67 30.29,98.86 45.49,8.45 75.58,-22.33 60.73,-67.92 -5.34,-35.64 2.20,-77.22 -15.87,-107.47 -9.52,-11.62 -24.43,-4.12 -36.73,-5.10 z m 267,74.04 c 68.18,-3.96 27.54,-83.93 -25.83,-68.71 -2.01,14.39 -28.02,71.53 8.15,66.26 5.89,0.81 11.78,1.63 17.68,2.45 z m 206,101.54 c -34.62,-21.09 -31.42,34.88 -43.58,55.33 -21.62,82.75 -90.03,2.09 -49.04,-44.95 12.62,-40.32 22.58,-83.77 64.03,-103.99 29.03,-19.93 53.78,-47.82 86.59,-60.83 48.36,5.07 39.84,65.17 54.91,99.50 9.79,34.51 22.96,69.98 2.99,103.80 -17.24,32.92 -13.77,107.44 -66.90,89.69 -35.13,-22.73 0.67,-65.89 5.34,-96.91 21.36,-33.37 -35.36,-28.18 -54.34,-41.63 l 0,0 z m 50,3.99 c 43.93,2.53 12.86,44.44 7.75,69.78 -32.74,77.43 37.79,51.93 38.52,-7.88 15.72,-35.98 22.31,-73.14 5.79,-110.11 -14.60,-31.92 -7.28,-85.74 -45.08,-96.56 -40.74,29.04 -85.61,58.11 -117.58,95.72 -10.81,36.63 -25.26,72.31 -34.21,109.39 37.83,45.33 43.61,-44.17 57.50,-70.12 3.85,-39.00 47.54,3.53 70.63,3.89 5.55,1.96 11.10,3.92 16.65,5.89 z m -796.99,-60.44 c 72.06,12.96 86.11,-101.62 8.96,-71.79 -47.98,0.43 -33.00,40.45 -21.70,72.82 2.57,6.59 2.62,23.56 12.74,-1.02 z m -193.43,164.78 c 35.37,62.26 93.90,-42.09 139.04,-9.97 18.96,46.55 -47.40,54.57 -75.78,74.89 -40.28,27.54 -109.46,0.42 -121.69,-46.33 -17.31,-41.71 -43.50,-80.63 -53.81,-124.59 3.04,-58.86 51.91,-84.10 99.03,-104.94 68.55,-47.18 71.77,47.48 6.59,54.49 -48.53,5.39 -54.85,64.23 -22.61,83.21 30.69,-30.24 125.71,-43.34 74.40,19.48 -19.63,18.61 -78.28,16.50 -45.15,53.74 z m 1005.22,-186 c -0.76,21.82 31.89,82.12 -9.77,56.85 -32.12,-13.00 -99.08,-22.50 -42.16,-51.95 20.85,-14.79 51.14,-59.40 50.87,-9.43 l 1.07,4.53 z m -1064.55,91 c -30.37,-60.51 56.11,-69.01 89.81,-97.24 1.45,-44.61 -55.41,8.18 -78.86,13.84 -53.17,18.03 -59.07,86.71 -28.27,127.62 19.37,33.07 27.31,77.21 57.08,100.45 36.96,23.14 73.60,9.09 107.36,-12.30 54.28,-13.97 45.56,-64.57 -8.73,-23.26 -36.10,30.53 -90.83,26.49 -100.20,-28.33 -14.34,-38.13 60.27,-32.71 70.41,-65.34 -22.25,-37.56 -77.62,48.78 -95.92,12.26 -4.22,-9.23 -8.44,-18.46 -12.66,-27.69 z m 1022.75,-77.42 c -40.43,13.45 65.20,52.62 33.04,7.55 -7.14,-29.25 0.37,-42.37 -33.04,-7.55 z m 200,32.27 c -63.15,-44.81 23.53,-69.70 54,-27.86 34.43,20.89 70.53,39.32 103.7,62.1 27.07,84.71 -65.87,3.24 -79.44,27.34 -33.72,57.77 -60.50,120.76 -98.58,175.26 -74.89,10.87 -34.42,-64.93 -12.35,-98.15 21.63,-40.13 43.28,-80.27 64.68,-120.53 -10.66,-6.05 -21.33,-12.1 -32,-18.15 z m 109,48.43 c 69.58,39.79 28.05,-25.54 -10.42,-35.04 -33.72,-17.74 -65.31,-42.59 -101.00,-54.02 -27.35,40.02 83.75,37.88 38.50,79.51 -29.75,56.45 -62.15,111.72 -89.71,169.20 25.37,49.27 48.21,-23.60 62.62,-45.96 23.22,-43.70 47.65,-86.84 70.00,-130.96 10,5.76 20,11.52 30,17.28 z m -531,-78.7 c 35.61,-3.84 58.29,43.16 39.00,70.41 -25.42,34.55 -67.03,13.71 -102.00,11.73 -21.50,-13.50 2.24,-54.40 -0.53,-78.91 -0.15,-25.62 46.10,0.57 63.53,-3.23 z m -12,75.69 c 84.71,-1.89 23.70,-83.76 -33.48,-68.52 -8.01,7.49 -25.04,66.24 0.98,64.19 10.83,1.44 21.66,2.89 32.50,4.33 z m 613.01,53.73 c 21.52,-61.87 80.50,15.55 111.86,36.27 17.92,64.27 -64.24,8.15 -74.36,69.47 -24.41,34.48 -50.22,68.00 -73.50,103.25 58.31,57.25 -38.07,60.35 -62.88,14.98 -65.82,-32.24 -17.48,-74.60 22.21,-65.11 32.10,-44.13 64.10,-88.34 95.67,-132.86 -10.21,-4.56 -18.62,-14.58 -18.99,-26 z m -1542.43,172.00 c 48.44,31.70 40.85,137.68 -21.44,76 -23.55,-41.50 -69.77,-75.95 -63.74,-127.73 2.51,-42.65 -11.15,-89.91 6.92,-128.46 38.40,-27.05 83.22,16.25 123.63,23.99 52.33,10.15 70.15,64.86 100.76,102.20 46.46,69.01 -55.42,71.88 -67.41,10.04 -13.52,-39.75 -41.10,-21.55 -63.62,0.49 -17.00,15.38 -44.22,18.63 -15.10,43.46 z m 1436.42,-0.57 c -35.45,21.61 48.64,70.47 72.57,74.32 -19.63,-31.40 -12.21,-58.64 19.21,-90.56 26.09,-35.41 50.92,-71.91 77.72,-106.71 70.56,39.43 19.99,-31.39 -14.11,-45.58 -53.56,-36.89 -13.35,15.07 -23.84,36.99 -35.51,49.70 -72.44,98.48 -106.54,149.12 l -12.84,-9.71 -12.15,-7.85 0,0 z m -1339.72,-40.43 c 14.74,53.03 75.04,23.62 31.28,-16.03 -26.44,-34.87 -44.59,-81.56 -92.83,-88.82 -33.34,-8.69 -66.30,-33.55 -100.14,-27.98 -19.17,27.88 -4.28,67.29 -7.32,100.47 -5.24,39.38 8.65,74.06 34.53,103.37 12.15,46.56 93.98,74.56 45.44,3.99 -18.46,-29.24 -60.06,-63.73 -9.23,-81.12 22.89,-8.36 52.80,-59.75 70.26,-34.80 9.33,13.64 18.67,27.28 28.01,40.93 z m -124.28,-98.30 c 14.08,13.00 81.75,21.05 55.31,39.09 -23.30,17.58 -46.59,35.18 -70.31,52.20 -2.17,-33.34 -4.11,-66.70 -7,-100.00 7.33,2.9 14.66,5.8 22,8.7 z m 13,20.02 c -31.94,-33.16 -20.67,55.92 -8.14,40.50 20.82,-18.33 56.58,-29.07 8.14,-40.50 z m 1408,1023.56 c -147.65,-17.84 -295.05,-37.37 -440.70,-67.92 -28.10,-7.41 -59.67,-6.91 -85.58,-19.41 26.86,-41.45 72.73,-86.19 126.02,-88.56 218.83,-14.92 437.94,-24.98 657.26,-18.37 37.77,-19.09 68.69,-53.46 98.62,-84.17 -119.33,-391.56 -491.47,-689.35 -899.62,-721.00 -323.82,-30.92 -659.08,101.80 -872,348.17 129.75,-14.39 259.27,-30.93 389,-45.47 77.37,38.02 144.01,95.72 215.81,143.59 38.48,15.62 44.69,48.44 -4.12,51.59 -203.43,63.48 -407.81,124.22 -610.69,189.27 179.21,110.04 344.84,240.00 516.30,361.41 43.32,30.74 85.60,63.13 129.69,92.70 48.38,13.25 78.49,-75.99 110.58,-8.58 -35.91,40.43 19.68,47.31 46.12,71.15 23.26,18.91 48.71,35.72 70.10,56.60 -59.53,16.36 35.48,46.29 -12.77,90.49 -79.49,107.03 -153.77,219.03 -235.04,324.10 -65.41,-27.20 -137.52,-53.37 -185.38,-107.76 -18.89,-45.47 0.69,-96.69 -0.55,-144.85 3.22,-31.03 3.99,-62.21 6.94,-93.28 -76.32,-8.18 -152.72,-15.66 -229,-24.3 -57.21,-30.99 -121.09,-56.35 -168.45,-100.79 17.78,-23.06 60.83,-10.27 89.14,-18.24 21.88,-5.25 96.64,-1.53 74.97,-14.66 -96.85,-43.15 -192.72,-88.50 -289.66,-131.46 -59.45,-0.98 -120.21,-1.91 -176.00,-25.53 -12.86,357.47 178.09,711.22 479.74,902.20 313.09,205.76 738.54,220.83 1064.76,35.99 317.84,-172.37 532.41,-519.21 540.48,-881.19 -31.10,-18.04 -87.61,-30.35 -119.41,-0.36 -222.27,128.93 -432.74,276.91 -640.91,427.19 -30.68,36.20 7.74,80.91 14.96,120.29 16.02,46.99 30.95,94.4 47.20,141.27 49.64,-0.57 93.59,32.34 138.77,50.49 -10.42,49.38 -78.15,81.18 -129.65,78.64 -46.26,5.84 -95.09,2.26 -139.46,13.02 -32.09,22.01 -54.02,-30.57 -95.68,-19.68 -28.23,-1.57 -86.97,-5.14 -38.03,-36.81 27.67,-20.34 52.63,-44.37 19.52,-73.28 -29.91,-50.56 -67.29,-98.47 -92.34,-150.77 34.78,-51.56 73.78,-99.78 124.52,-136.49 181.79,-153.56 359.7,-311.65 535.31,-472.25 20.48,-14.46 -23.97,-8.83 -30.79,-12.96 z m -1778.00,-926.28 c 14.43,112.69 128.05,162.10 217.00,209 24.75,12.77 96.26,60.87 67.05,1.04 -63.93,-90.21 -120.00,-196.74 -226.47,-243.36 -27.36,-11.56 -64.48,-4.40 -57.57,33.31 z m 2083.00,-35.77 c 37.88,-6.71 64.03,16.44 87,43.77 35.76,26.00 37.96,73.65 27.2,113 -77.83,38.11 -22.43,-98.26 -94.77,-99.25 -35.90,-1.70 -51.64,42.51 -77.99,61.94 -51.83,25.89 -34.90,99.89 20.44,101.50 69.47,-14.93 58.11,77.87 -7.12,55.81 -45.00,3.98 -66.45,-45.67 -97.10,-71.01 -10.33,-37.73 -12.22,-86.37 23.10,-112.01 32.98,-30.52 59.06,-70.33 97.25,-93.73 7.33,0 14.66,0 22,0 z m -40.01,29.77 c -30.94,33.87 -65.35,65.22 -93.62,101.02 -3.45,34.52 -5.13,72.88 27.62,93.93 20.99,28.71 49.65,46.15 86.01,39.04 61.62,-34.50 -50.28,-17.35 -61.85,-49.93 -36.77,-24.71 -27.60,-73.03 5.94,-95.64 23.44,-24.65 47.08,-49.12 70.91,-73.39 39.15,-10.88 78.68,25.86 82.50,61.71 -13.95,48.55 42.52,58.22 27.92,2.89 4.59,-42.12 -41.20,-62.75 -63.70,-92.76 -25.41,-2.24 -65.79,-12.50 -81.74,13.13 z m -2271.66,225 c -11.26,35.72 45.25,42.07 65.67,64.20 24.34,20.63 85.92,51.92 43.32,-0.06 -62.01,-84.79 -122.67,-186.66 -229.21,-217.53 -77.46,7.02 -7.56,135.35 49.37,138.25 12.16,-0.44 58.52,-117.39 33.75,-40.30 -48.50,56.84 47.92,99.69 44.25,15.83 32.37,-23.27 -12.47,32.60 -7.16,39.62 z m 227.8,-136 c -43.67,57.40 -84.93,117.09 -118.51,181 26.46,91.65 100.71,-17.68 126.76,-58.31 28.66,-25.57 54.14,-160.53 -8.25,-122.68 z m -89.13,246.25 c 47.40,-2.98 103.62,-2.07 125.19,-54.36 18.30,-39.39 62.68,-95.97 42.80,-135.54 -39.10,-46.94 -32.39,30.16 -53.3,54.74 -13.20,57.24 -104.17,102.76 -114.7,135.16 l 0,0 z m -42,-14.94 c -79.58,-48.09 -156.44,-112.42 -251.56,-122.98 -39.02,5.17 -164.32,6.57 -148.98,42.34 42.08,19.71 96.07,8.25 136.42,38.03 71.30,44.78 156.68,78.69 205.07,150.70 -11.73,44.07 91.21,85.12 64.04,93.25 -69.93,-28.46 -66.42,-118.92 -134.53,-150.73 -53.44,-32.60 -104.86,-70.20 -162.46,-94.92 -31.79,48.05 -33.58,86.70 23.55,108.32 62.73,38.09 123.94,81.58 191.97,109.11 27.02,11.69 77.58,32.41 80.47,55.56 -35.31,-26.04 -74.12,-44.57 -114.72,-59.47 -75.55,-42.91 -150.98,-86.49 -221.18,-137.87 -41.22,-3.94 -94.89,-6.91 -42.90,34.50 38.72,45.88 89.78,80.83 130.07,123.78 -49.30,-1.78 -97.84,-51.84 -141.47,-77.60 -29.22,-22.94 -143.39,-124.04 -83.55,-32.06 68.16,63.95 157.24,99.13 235.76,148.57 69.95,37.94 137.44,82.19 208.99,116.11 75.50,49.64 148.34,-42.14 208.29,-36.00 78.57,49.37 158.59,96.62 236.31,147.23 48.16,59.03 31.89,159.81 32.69,205.89 154.70,71.47 310.97,140.21 464.84,213.11 43.83,33.21 15.46,92.89 17.84,139.27 -1.71,51.17 -12.89,102.87 -6.95,153.52 19.99,28.24 95.34,103.08 105.66,34.41 36.10,-91.91 74.79,-182.96 109.29,-275.41 -61.67,-7.83 -117.62,-44.83 -180,-52.23 -44.16,-22.31 -91.68,-48.20 -125.97,-83.56 18.96,-25.98 61.32,-10.53 91.22,-15.20 68.55,-1.43 137.15,-1.85 205.74,-1.89 -91.39,-75.31 -192.19,-140.33 -287.17,-211.78 -124.59,-88.73 -246.32,-183.79 -379.30,-258.90 -33.93,5.04 -63.16,-25.55 -94.88,-36.30 -114.26,-58.53 -234.70,-109.96 -335.31,-190.50 -42.66,-39.24 20.46,-55.33 -37.31,-76.29 z m -539,-109.02 c -55.81,10.14 6.39,87.37 29.71,108.89 42.97,63.04 112.39,7.58 115.92,-56.60 -29.42,-40.85 -95.20,-60.30 -145.64,-52.29 z m 1573.00,133.43 c -51.13,-33.15 -97.31,-76.30 -154,-99.33 -44.17,44.74 60.26,80.31 100.17,97.67 19.53,7.06 80.59,43.82 64.83,9.34 -3.66,-2.56 -7.33,-5.12 -11.00,-7.69 z m -234,-89.57 c -252.67,30.29 -505.39,60.48 -758.00,91.4 -26.58,74.20 111.23,101.49 158.87,142.04 83.72,44.47 168.07,88.12 254.12,127.84 52.01,-5.37 53.90,-23.09 7.01,-41.21 -51.80,-19.01 -2.69,-34.08 26.71,-39.52 181.16,-52.31 361.98,-105.82 543.27,-157.70 -58.26,-37.14 -145.17,-42.62 -176.68,-112 12.69,-34.52 -37.46,-7.14 -55.32,-10.85 z m -1171.00,3.85 c -34.72,18.04 112.18,1.85 41.04,63 -31.68,19.13 -122.10,11.61 -38.92,18.81 66.70,14.66 101.52,-111.15 -2.11,-81.81 z m 864.00,22 c 1.04,3.31 1.84,-1.37 0,0 z m 1838.51,600 c -42.19,-60.04 13.97,-136.01 60.50,-176.65 76.19,-73.34 148.78,-150.51 226.98,-221.72 34.59,-26.02 90.06,30.56 114.01,-4.93 20.80,-50.71 75.20,-117.55 51.98,-164.25 -152.86,46.49 -282.19,147.87 -402.87,249.64 -65.12,56.28 -126.06,117.70 -189.12,175.92 44.05,0.46 88.03,1.00 132,1.72 26.27,74.10 -74.10,138.73 -134.58,166.69 -48.53,21.24 -99.28,52.46 -151.50,58.08 -16.12,-32.34 -86.40,-35.08 -106.68,2.21 -189.89,173.60 -383.52,343.10 -579.89,509.32 14.59,42.96 44.01,85.25 66.14,127.38 22.01,36.62 39.94,75.96 63.71,111.30 41.80,-3.50 83.30,-12.12 124.82,-18.73 -24.18,-80.20 -56.77,-158.50 -76.04,-239.72 13.14,-49.78 70.78,-66.85 106.81,-98.75 209.21,-150.82 425.07,-292.34 648.68,-420.89 14.11,-16.66 81.79,-31.62 45.04,-56.62 z m -2770.51,-522.87 c -32.00,23.50 69.34,62.65 87.33,88.00 33.63,24.87 107.05,68.63 40.80,14.94 -40.44,-35.60 -79.54,-73.47 -110.13,-118.07 -6,5.04 -12,10.08 -18,15.13 z m 1523.00,22.14 c -42.98,-29.84 -20.28,10.78 13,15.19 43.70,20.07 -6.02,-8.70 -13,-15.19 z m 19,28.04 c -30.61,-15.89 -62.36,-32.34 -95.68,-13.97 -185.38,54.39 -371.06,107.82 -556.31,162.66 30.34,15.15 60.13,52.02 95.99,31.92 188.64,-58.04 377.25,-116.24 566.00,-173.92 l -4.38,-4.07 -5.61,-2.61 0,0 z m -1251.00,200.27 c -87.89,-49.24 -174.40,-101.31 -263,-149.06 -90.34,27.48 -181.16,54.41 -270.74,83.87 2.92,39.35 60.29,45.33 90.92,61.61 35.58,16.16 71.94,30.58 111.69,22.87 116.00,-2.12 232.09,-5.55 348.12,-7.85 l -7.75,-6.41 -9.25,-5.04 0,0 z m 2813.19,19.42 c -38.99,63.97 -92.84,116.48 -147.19,167 67.74,21.78 134.68,45.94 202,69 -6.34,-85.70 -20.50,-170.78 -42,-254 l -6.85,8.49 -5.95,9.51 0,0 z m -2764.19,8.58 c -33.05,-15.77 -73.12,-1.75 -109.24,-5.09 -98.61,2.03 -197.15,5.32 -295.75,6.51 52.15,33.93 116.42,13.65 174.87,19 86.68,-1.62 173.52,0.06 260.12,-3 -10,-5.80 -20,-11.61 -30,-17.42 z m 517.96,328.9 c 40.22,-49.91 10.06,-127.52 -17.33,-176.77 -77.37,-47.83 -153.97,-97.51 -232.62,-142.92 -34.11,32.27 -120.82,57.18 -133.82,58.90 54.53,14.85 99.55,-52.56 146.19,-36.09 70.32,42.47 141.50,83.58 211.40,126.73 31.94,51.16 34.78,130.38 26.18,170.15 z m 1926.04,68.52 c -19.86,399.57 -284.90,772.20 -653.83,925.67 -340.04,148.08 -755.05,99.62 -1051.54,-123.49 -279.67,-203.30 -451.79,-547.70 -438.81,-893.90 -41.52,-41.24 -107.21,-75.11 -132.48,-137.00 -32.67,-35.54 -35.74,-97.15 -81.53,-118.99 -35.06,-29.31 -81.71,-21.91 -124.06,-19.64 -95.45,420.74 16.00,881.00 289.73,1214.38 277.36,346.38 720.48,552.88 1164.30,537 448.74,-8.59 882.99,-245.06 1140.37,-611.58 153.11,-214.62 246.49,-472.02 262.87,-735.41 -124.83,-21.73 -249.16,-46.28 -374,-68 -0.33,10.33 -0.66,20.66 -1,31 z m -145,-142.69 c 54.90,-25.96 120.43,-73.98 122.44,-139.3 -204.77,-3.77 -409.70,-8.83 -614.31,4.03 -66.28,3.62 -132.84,6.21 -198.90,12.39 -11.26,39.81 -151.80,90.90 -49.59,69.25 41.02,-11.38 85.39,8.05 127.77,10.34 42.31,8.66 89.62,8.42 128.55,24.00 -58.29,28.33 15.15,22.49 43.22,29.40 93.18,13.31 187.32,21.97 279.82,38.55 36.19,30.60 116.33,-34.33 161,-48.68 z m -715,-120.92 c -44.63,14.30 -110.73,91.66 -29.76,36.32 7.41,0.49 64.71,-51.41 29.76,-36.32 z m 1597,344.66 c 24.43,-4.67 121.68,-40.74 71.52,-65.55 -212.22,-90.96 -427.14,-176.78 -647.52,-246.00 -79.20,57.97 -162.85,109.68 -246,161.83 -17.79,18.41 50.76,14.27 69.92,23.20 122.33,22.72 244.79,44.77 367.07,67.81 32.48,-11.78 64.92,-22.35 99.40,-10.41 90.58,17.73 183.49,28.74 272.51,51.32 -22.53,23.20 -7.35,10.78 13.07,17.80 z m -1435,-247.13 c -59.58,-7.26 -119.26,-21.71 -178.78,-23.64 -2.14,15.98 60.67,15.78 87.32,24.44 41.03,3.62 83.70,24.77 123.66,14.70 36.34,-13.20 -25.00,-11.09 -32.20,-15.5 z m 1372,228.5 c -89.66,-15.66 -179.10,-32.77 -269,-47.05 -48.73,11.88 6.96,16.02 29.10,19.53 87.08,11.54 174.53,30.46 261.46,36.75 15.71,-7.92 -18.93,-6.53 -21.56,-9.24 z m -1830.3,-9.69 c -92.54,-6.43 -2.03,19.88 0,0 z m 1287.3,20.39 c 51.01,13.86 107.13,16.77 153.54,40.78 42.95,39.97 28.91,92.69 15.36,141.64 -3.58,38.80 -20.91,87.29 -70.43,61.37 -71.56,-17.79 -146.31,-27.04 -215.48,-51.27 -14.84,-48.68 15.63,-103.44 23.42,-153.64 25.83,-20.83 56.81,-55.08 93.59,-38.88 z m -2347.00,14.55 c 54.11,20.56 48.04,86.58 57.47,133.33 -9.76,45.36 -90.26,100.30 -79.24,17.37 41.49,-26.16 21.69,-116.32 -32.37,-99.27 -40.22,11.27 -87.79,10.23 -122.17,31.90 -39.49,54.05 42.13,82.24 48.51,124.08 -36.68,54.05 -112.29,-25.00 -107.48,-77.46 -18.77,-41.41 6.13,-80.01 34.29,-109.64 57.13,-14.34 116.02,-28.00 174.39,-34.97 10.10,2.35 18.17,9.10 26.60,14.67 z m 1201.00,65.65 c -41.67,-24.43 -82.49,-53.73 -122.04,-78.97 -52.99,-6.40 17.86,32.04 33.07,46.80 36.49,25.46 -34.50,18.77 -52.75,23.38 -59.13,5.34 -118.35,10.26 -177.28,17.46 42.30,13.14 83.97,33.25 126.80,41.81 68.27,-12.84 136.18,-27.64 204.19,-41.81 -4,-2.89 -8,-5.78 -12,-8.68 z m -140,-59.93 c -30.95,-32.48 -79.36,-11.34 -119.12,-15.74 -71.66,1.45 -143.27,3.13 -214.87,5.35 48.22,37.19 103.38,84.52 168.27,66.96 70.54,-7.17 141.52,-11.66 211.72,-20.96 -15.33,-11.87 -30.66,-23.74 -46,-35.61 z m 1218,14.03 c -29.72,25.72 -24.07,73.04 -36.82,108.85 -23.06,43.61 25.85,50.41 58.58,55.56 60.46,12.10 120.43,28.47 181.23,37.77 23.05,-27.78 20.42,-71.79 32.13,-106.61 16.57,-54.59 -34.32,-99.88 -86.94,-98.84 -39.06,-4.85 -79.05,-25.63 -117.52,-17.79 -10.81,6.13 -20.58,13.83 -30.65,21.06 z m -2347.00,-15.22 c -42.21,9.55 -85.46,15.66 -126.96,27.65 -30.18,30.18 -41.36,68.60 -24.63,108.50 -14.08,44.20 95.22,107.84 70.06,43.81 -47.72,-17.27 -66.97,-83.64 -29.26,-120.32 48.96,-11.27 98.35,-21.32 147.79,-30.35 39.92,14.58 61.93,77.35 30.09,109.58 -36.24,73.00 57.67,13.68 44.10,-29.08 -10.13,-38.09 -7.58,-86.26 -50.2,-103 -18.08,-20.32 -39.35,-10.87 -61,-6.8 z m 722.00,16.94 c -24.76,-16.08 -51.52,-19.85 -80,-13.31 -35.66,3.03 -71.34,5.96 -107,9.17 40.85,31.10 90.03,48.76 141.71,43.96 46.39,1.09 92.99,4.38 139.28,3.04 -31.33,-14.28 -62.66,-28.57 -94,-42.86 z m 148.07,83.86 c -18.17,-45.61 -74.89,-25.53 -113.18,-31.83 -52.74,-3.93 -107.76,2.48 -158.69,-10.28 -36.39,-11.94 -66.01,-49.87 -106.18,-41.88 48.02,32.45 100.08,61.54 152.84,84.91 75.32,8.25 150.70,16.06 226.15,23.08 l 0.71,-11.68 -1.64,-12.31 z m 1479.05,-32 c 3.28,-51.85 57.77,-43.98 93.17,-32.32 32.81,7.35 65.86,13.73 98.52,21.75 35.66,33.92 2.81,81.92 -0.82,122.57 -68.65,-15.03 -137.31,-30.07 -206,-45 5.04,-22.33 10.08,-44.66 15.12,-67 z m 192.76,43 c 17.35,-52.42 -48.04,-47.45 -80.22,-57.68 -34.05,-3.77 -91.98,-36.49 -99.65,17.68 -6.72,29.27 -24.64,65.66 21.31,61.38 48.83,10.81 97.71,21.39 146.68,31.61 3.96,-17.66 7.92,-35.33 11.88,-53 z m -1516.88,350.77 c 36.46,18.15 48.43,-41.56 71.91,-62.34 62.62,-88.68 127.88,-175.99 188.57,-265.71 7.10,-58.04 -63.69,-47.02 -100.11,-35.09 -31.19,10.70 -73.48,6.02 -95.57,29.38 -40.92,102.00 -81.86,204.00 -122.8,306 19.33,9.25 38.66,18.51 58,27.77 z m -877.00,-257.13 c 43.79,47.13 -28.71,64.95 -61.82,80.01 -37.96,19.92 -84.94,29.53 -116.24,57.11 -16.88,42.71 42.61,80.96 27.75,124.21 -46.62,37.33 -59.22,-43.19 -76.95,-72.67 -31.19,-48.68 4.29,-118.54 59.12,-130.20 52.68,-19.93 103.12,-50.59 157.59,-62.70 l 10.56,4.23 z m -65,28.08 c -46.87,22.77 -99.30,37.67 -142.13,66.29 -19.28,34.62 -24.71,71.74 -0.74,105.67 3.73,25.98 49.30,92.47 43.61,32.35 -12.72,-36.02 -46.73,-72.28 -22.18,-109.98 58.50,-31.53 123.07,-53.24 182.95,-82.91 18.96,-51.40 -41.46,-22.37 -61.50,-11.41 z m 2243.00,68.59 c -53.53,-5.00 -106.42,-91.95 -22,-79.31 70.43,34.79 142.70,66.20 211.96,103.1 25.32,93.91 -75.12,19.03 -114.55,28.20 -35.13,12.55 -70.27,25.13 -105.40,37.69 50.96,25.88 105.02,46.91 153.37,77 18.24,74.47 -61.94,41.14 -96.55,18.98 -53.54,-27.54 -110.66,-49.10 -161.88,-80.48 -19.67,-58.23 62.70,-59.25 99.82,-78.34 10.67,-8.05 78.50,-17.03 35.25,-26.84 z m -16,70.74 c 37.43,-12.60 74.07,-27.77 112,-38.76 26.04,25.65 125.12,42.66 67.61,-7.68 -67.86,-32.04 -134.98,-65.85 -203.61,-96.18 -47.97,29.88 24.91,47.78 48.80,61.54 41.35,13.57 47.47,25.53 1.19,35.08 -44.11,18.23 -93.76,27.40 -133.49,52.88 -6.13,36.34 49.27,38.52 73.46,56.87 48.96,23.07 97.26,47.75 147.03,68.99 48.75,-30.43 -27.53,-48.67 -52,-63.55 -36.52,-17.02 -72.72,-34.72 -109,-52.26 16,-5.65 32,-11.3 48,-16.95 z m -1030,-8.05 c -12.90,27.95 -62.61,55.18 -36.26,86.22 33.69,51.70 65.10,104.98 100.44,155.54 21.98,-14.75 88.57,-0.91 50.66,-40.36 -38.08,-66.84 -74.31,-137.87 -114.84,-201.40 z m -1039,36.75 c 53.41,36.62 -16.00,70.61 -46.00,91.94 -33.09,24.04 -68.36,45.55 -99.97,71.31 -11.92,54.28 56.37,96.70 92.96,47.91 43.81,-28.14 83.87,-63.45 130.37,-86.49 73.39,18.65 7.14,73.45 -29.37,92.24 -42.93,25.26 -79.87,66.13 -127.98,78.32 -39.06,-2.80 -77.07,-13.82 -94.69,-51.95 -28.90,-28.82 -36.18,-65.65 -24.62,-104.39 15.70,-41.07 65.22,-55.93 97.32,-83.94 33.52,-16.89 62.78,-59.76 102.00,-54.95 z m -32.00,22.11 c -50.17,36.42 -103.59,69.20 -151.55,108.14 -15.28,40.69 -6.93,80.37 23.69,110.95 18.91,37.51 77.21,52.18 110.86,27.12 48.47,-34.15 97.75,-67.18 145.56,-102.25 -0.72,-57.01 -56.75,-1.88 -80.57,12.96 -34.76,23.84 -68.89,48.62 -103.99,71.96 -40.06,2.11 -70.58,-39.43 -73.17,-74.32 0.87,-38.22 48.87,-48.05 73.19,-71.46 30.87,-25.09 71.48,-42.23 95.65,-73.07 -1.74,-23.66 -25.77,-25.82 -39.67,-10.02 z m 1941.00,77.05 c 52.38,7.85 113.37,-6.45 153.15,36.08 23.56,26.50 84.55,42.50 69.14,84.99 -34.35,44.87 -74.48,-16.90 -106.89,-35.24 -24.43,-8.37 -37.57,37.35 -56.61,52.08 -21.38,26.55 34.33,40.93 48.95,60.61 61.88,61.95 -42.49,73.55 -72.47,23.02 -37.15,-23.69 -66.76,-54.20 -73.59,-99.31 -7.84,-34.45 -29.86,-67.98 -24.58,-103.40 11.72,-27.30 39.46,-21.07 62.90,-18.84 z m 126,77.46 c 27.03,12.29 64.09,73.98 87.59,30.63 -20.58,-34.29 -63.16,-53.15 -93.16,-80.75 -46.46,-15.85 -99.93,-9.49 -149.42,-16.24 -45.85,14.00 -3.57,68.15 1.08,100.93 7.84,42.07 30.70,75.13 67.83,96.61 24.12,39.79 114.06,46.17 50.34,-7.07 -14.56,-19.48 -66.73,-32.67 -52.42,-58.28 22.26,-27.82 44.78,-55.45 67.15,-83.19 l 9.94,8.99 11.05,8.37 z m -68,-30.21 c 46.84,0.02 -28.07,52.30 -36.14,74.67 -18.71,22.86 -23.49,-44.17 -35.41,-60.52 -23.60,-39.06 34.10,-12.91 55.61,-15.79 5.31,0.54 10.63,1.09 15.95,1.64 z m -21,11 c -45.23,-15.89 -39.06,9.09 -23.05,41.91 -1.91,13.40 65.51,-53.74 23.05,-41.91 z m -793,88.84 c 84.29,4.10 168.67,7.27 253,10.58 77.23,-28.90 4.39,-51.30 -31.45,-66.56 -46.68,-27.43 -100.61,-0.27 -150.99,2.69 -41.89,10.45 -93.56,1.36 -119.03,43.48 -20.72,15.39 40.79,5.92 48.48,9.80 z m -962,208 c -9.73,56.42 -70.71,61.83 -116.84,55.94 -38.14,-32.39 -79.63,-65.26 -110.16,-105.05 5.54,-40.80 50.17,-63.63 74.19,-95.57 35.08,-33.75 65.76,-72.60 103.29,-103.33 47.36,5.71 88.00,59.48 115.96,96.34 16.02,52.35 -16.39,107.33 -66.44,114.54 0,12.37 0,24.74 0,37.12 z m 889,-214 c 20.66,-5.08 59.07,-56.30 0,0 z m -953,-4 c -48.85,51.40 -98.61,101.95 -147.2,153.62 -0.88,33.42 42.60,51.18 62.80,76.56 23.83,33.99 62.68,36.24 100.39,29.27 60.54,-26.80 5.63,-109.54 82.27,-110.55 35.70,-29.79 25.75,-93.81 -13.50,-117.34 -25.78,-15.90 -56.27,-79.43 -84.77,-31.57 z m 952,4 c 1.04,3.31 1.84,-1.37 0,0 z m 252,24 c -83.33,-3.08 -166.61,-8.16 -250,-9.8 -54.26,25.94 30.00,19.87 53.51,26.86 77.75,15.57 156.27,1.96 234.48,-2.01 55.64,-21.49 -25.67,-11.21 -38,-15.05 z m -1163,-2.01 c 22.53,22.7 57.71,41.67 48.2,79.01 -26.38,53.41 -79.59,28.62 -105.77,-7.30 -31.46,-12.78 44.66,-81.61 57.57,-71.70 z m -23,86.18 c 73.39,47.05 64.44,-75.60 8.78,-69.44 -33.22,32.88 -51.79,39.35 -8.78,69.44 z m 1016,-53.17 c 1.60,20.42 31.32,-4.70 0,0 z m 532.17,30 c 40.19,43.41 78.53,88.62 119.83,130.98 52.44,13.33 71.53,-68.00 121.95,-62.22 44.63,34.23 -24.07,66.09 -46.33,91.05 -23.31,33.19 -61.89,29.46 -97.22,25.38 -39.85,-12.03 -60.19,-56.32 -90.66,-83.64 -22.42,-30.04 -59.23,-53.14 -68.34,-90.04 5.96,-27.56 46.06,-40.65 60.77,-11.50 z m -47.06,14 c 29.79,49.32 77.18,88.98 114.33,134.24 23.01,31.51 81.79,37.40 110.22,9.96 18.44,-24.21 77.48,-46.92 58.33,-77.26 -45.41,10.89 -68.38,82.20 -123,62.05 -44.76,-46.83 -86.52,-96.55 -131.42,-143.28 -10.77,-9.27 -26.52,2.96 -28.46,14.29 z m -1518.11,45.83 c 36.99,19.63 19.38,90.47 -25.62,81.17 -31.90,1.06 -87.91,-50.27 -77.19,-72.50 21.30,-11.42 41.33,-65.89 63.60,-44.61 13.07,11.98 26.14,23.96 39.21,35.94 z m -61,-15.83 c -38.48,24.02 -27.04,51.43 7,73.17 51.92,44.05 83.45,-43.45 26.51,-65.11 -10.61,-8.93 -21.93,-28.56 -33.51,-8.05 z m 1495.2,73 c -57.83,-74.06 55.12,-82.77 65.55,-12.84 32.33,52.57 64.91,104.99 96.78,157.84 -5.88,82.95 -75.93,15.29 -90.75,-27.28 -42.49,-11.54 -85.91,-19.59 -128.79,-29.72 28.66,48.08 61.07,94.25 86.54,144 -18.19,72.72 -73.61,10.71 -88.60,-28.58 -30.95,-51.60 -64.88,-101.62 -93.64,-154.41 2.94,-55.69 64.95,-28.68 98.97,-22.43 31.89,13.43 88.21,10.38 79.17,14.28 -8.41,-13.61 -16.82,-27.23 -25.23,-40.85 z m -45.2,77.35 c 41.52,9.68 83.36,18.05 124.68,28.58 9.33,34.29 81.86,104.26 63,31.07 -39.39,-63.06 -77.18,-127.23 -117.86,-189.43 -58.76,-0.42 -1.87,59.44 11.47,85.95 35.42,39.20 1.66,29.23 -31.29,19.82 -45.26,-7.20 -91.26,-28.26 -136,-22.88 -20.99,27.21 24.20,58.35 33.76,86.26 27.91,44.61 54.78,89.92 83.44,134.03 59.83,3.20 2.62,-59.25 -10.76,-85.54 -19.68,-32.15 -39.62,-64.15 -59.44,-96.22 13,2.78 26,5.56 39,8.35 z m -1023,-61.09 c 36.24,17.30 87.12,27.03 105,65.74 35.54,46.84 -3.89,92.88 -23.77,135.74 -19.90,37.77 -34.48,87.91 -85.04,89.78 -43.56,16.68 -82.11,-23.76 -120.99,-38.20 -44.27,-49.26 -18.02,-105.55 10.86,-153.48 21.32,-37.59 32.41,-91.74 85.03,-93.68 9.62,-1.95 18.84,-7.24 28.92,-5.89 z m -41,23.03 c -41.34,12.49 -46.53,65.10 -68.86,97.71 -29.07,39.71 -40.55,102.22 8.86,130.25 34.28,14.16 67.89,45.39 105.94,24.27 47.05,-8.59 51.60,-67.04 75.31,-101.52 20.03,-32.47 36.87,-68.97 12.32,-104 -21.41,-29.56 -65.75,-48.11 -101.28,-55.42 -10.76,2.90 -21.52,5.81 -32.29,8.71 z m 818,99.53 c -65.06,-16.95 1.29,-65.11 37.76,-69.33 47.87,-35.78 91.17,15.50 43.02,48.10 21.12,53.24 43.18,106.11 64.20,159.40 75.34,-22.59 39.87,61.53 -11.69,61.09 -61.46,39.39 -87.51,-14.84 -51.73,-50.67 -20.50,-51.48 -41.90,-102.60 -61.56,-154.42 l -9.94,3.12 -10.06,2.69 0,0 z m -748,-68.07 c 55.43,12.46 45.55,69.46 17.98,105.77 -18.02,29.07 -26.54,68.53 -52.98,88.81 -39.68,15.35 -117.67,-25.65 -91.06,-73.70 21.15,-41.25 40.95,-83.29 63.45,-123.79 21.23,-10.32 42.53,-14.08 62.61,2.91 z m 837.99,17.16 c -1.41,-40.75 -57.38,3.41 -81.84,7.26 -63.10,38.02 25.50,10.63 25.45,38.82 22.17,57.87 49.15,115.08 68.50,173.31 -69.44,33.70 13.39,36.41 43.29,11.97 47.17,-7.78 34.03,-49.42 -8.87,-29.35 -25.52,-62.63 -50.84,-125.35 -76.53,-187.93 l 16.17,-5.59 13.81,-8.49 0,0 z m -891.6,-9.21 c -22.74,43.97 -47.28,87.57 -65.97,133.3 17.73,51.13 97.99,58.99 106.94,-4.14 11.84,-36.34 52.78,-71.27 35.82,-109.64 -23.48,-11.13 -50.39,-37.47 -76.8,-19.51 z m 711.61,155.42 c 83.05,-24.70 47.53,66.49 -13,55.88 -40.90,0.56 -8.37,48.53 -8.67,72.87 26.23,65.03 -79.33,65.55 -64.90,-3.92 -10.39,-56.45 -29.24,-112.26 -32.09,-169.31 17.37,-55.51 71.21,-68.93 122.24,-76.16 72.31,-13.57 35.71,67.42 -18.97,56.64 -46.02,-6.40 -48.99,54.09 -27.82,72.90 14.40,-2.96 28.81,-5.93 43.22,-8.89 z m -494.12,61.88 c -0.94,46.06 -51.06,128.12 -78.74,53.01 17.60,-66.88 33.99,-134.55 55.96,-200.01 39.86,-46.46 97.32,-34.87 147.76,-17.74 78.35,32.89 -11.36,71.29 -53.59,39.71 -34.01,-24.53 -72.74,58.01 -33.41,58.97 42.80,-2.26 109.05,54.58 34.02,62.76 -21.90,3.10 -75.31,-40.23 -72.00,3.29 z m 425.91,-84 c -18.25,-71.92 82.41,-39.73 103.01,-78.20 -22.52,-22.86 -63.86,6.34 -93.93,6.12 -47.67,21.70 -54.20,76.81 -35.25,121.89 11.67,45.56 17.07,93.81 33.03,137.56 56.81,8.93 13.95,-63.60 13.60,-94.55 -10.92,-40.84 61.89,-21.80 84.63,-41.20 7.33,-40.66 -54.05,-7.39 -78.68,-7.54 -28.05,14.40 -17.55,-29.02 -26.41,-44.06 z m -410.67,-22 c 8.82,-54.43 65.79,-30.34 101.06,-20.87 59.56,2.57 -2.74,-37.07 -32.05,-34.78 -55.11,-25.90 -109.21,21.62 -112.56,77.36 -11.18,48.77 -30.57,96.97 -36.12,146.19 42.55,29.38 40.34,-39.30 51.52,-65.15 -2.28,-45.70 31.59,-28.71 60.80,-19.80 58.74,24.40 47.90,-28.66 -3.50,-27.70 -38.77,-0.68 -47.34,-18.82 -29.86,-52.59 l 0.70,-2.63 0,0 z"
     id="black"
     style="fill:#000000;fill-opacity:1;stroke:none" />
</svg>
