<?xml version="1.0" encoding="UTF-8" standalone="no"?>
<!-- Created with Inkscape (http://www.inkscape.org/) -->

<svg
   xmlns:dc="http://purl.org/dc/elements/1.1/"
   xmlns:cc="http://creativecommons.org/ns#"
   xmlns:rdf="http://www.w3.org/1999/02/22-rdf-syntax-ns#"
   xmlns:svg="http://www.w3.org/2000/svg"
   xmlns="http://www.w3.org/2000/svg"
   version="1.1"
   width="56.338001in"
   height="56.338001in"
   viewBox="0 0 4000 4000"
   id="svg3068">
  <metadata
     id="metadata3075">
    <rdf:RDF>
      <cc:Work
         rdf:about="">
        <dc:format>image/svg+xml</dc:format>
        <dc:type
           rdf:resource="http://purl.org/dc/dcmitype/StillImage" />
        <dc:title></dc:title>
      </cc:Work>
    </rdf:RDF>
  </metadata>
  <defs
     id="defs3073" />
  <path
     d="m 3998.5912,0.46870981 c 0,1332.66659019 0,2665.33329019 0,3997.99989019 -1332.6668,0 -2665.3335,0 -3998.00030682,0 0,-1332.6666 0,-2665.3333 0,-3997.99989019 1332.66680682,0 2665.33350682,0 3998.00030682,0 z M 25.590894,523.4687 c 0,985.6666 0,1971.3333 0,2956.9999 649.666766,0 1299.333506,0 1949.000306,0 -721.186,-1.8927 -1391.79715,-609.9589 -1444.18727,-1332.9697 -15.56605,-150.6643 -8.08556,-303.8871 24.18698,-451.9503 -126.98374,-6.1573 -262.85827,25.1627 -381.34173,-35.5367 -136.18707,29.0688 -53.80712,-228.8553 46.33297,-141.5495 85.31852,-75.7371 -112.65169,-253.0811 48.77252,-269.8155 118.08577,14.5147 214.14591,-102.6262 307.27646,-119.1019 73.85288,72.1041 227.59512,133.1145 255.37746,-10.8134 C 888.89989,1009.0048 971.18412,911.51566 1078.658,848.06449 1322.8884,661.7454 1620.7121,539.50074 1929.1918,524.93614 1294.6629,521.5709 660.12378,524.40368 25.590894,523.4687 z m 2010.000306,0 c 520.3567,14.83671 1027.8109,322.1029 1264.5459,788.6668 83.6581,48.2404 261.3778,108.615 154.1566,227.2839 -47.0965,144.2708 -25.016,342.9133 123.9859,418.1578 82.1009,38.3551 196.6451,21.2616 252.0053,104.1933 24.0576,134.0354 -158.0435,83.3932 -235.2189,60.2549 -104.4857,-17.6839 -151.9879,99.5909 -162.5163,183.544 -18.6793,208.3017 -122.02,398.8312 -243.0807,565.3385 -261.5526,345.8967 -671.7502,591.5307 -1110.6284,605.6719 610.5495,9.0992 1221.1707,1.073 1831.7506,3.8885 0,-985.6666 0,-1971.3333 0,-2956.9999 -625,2e-4 -1250,-4e-4 -1875,3e-4 z"
     id="white"
     style="fill:#ffffff;fill-opacity:1;stroke:none" />
  <path
     d="m 1950.3784,601.98594 c 3.72,1.25 8.85,5.43 12,7.88 0,0 22,17.97 22,17.97 5.29,4.3 10.86,8.33 14,14.61 3.27,6.54 2.61,13.97 3.09,21 0,0 2,30 2,30 0,0 5,75 5,75 0,0 1.91,27 1.91,27 0.02,4.82 0.46,12.66 -1.13,17 -2.84,7.73 -16.74,20.37 -22.59,27 -3.72,4.22 -14.6,16.83 -19.32,18.53 -4.51,1.62 -23.02,2.15 -28.96,2.56 0,0 -40,3 -40,3 0,0 -10,0.91 -10,0.91 -3.25,0.03 -10.18,0.28 -13,-0.72 -3.26,-1.17 -8.17,-5.41 -11,-7.68 0,0 -18,-14.6 -18,-14.6 -6.1,-4.9 -14.49,-10.63 -17.52,-18 -2.69,-6.57 -2.1,-13.21 -2.57,-20 0,0 -2,-30 -2,-30 0,0 -4.91,-67 -4.91,-67 0,0 0,-9 0,-9 0,0 -2,-25 -2,-25 -0.05,-5 -0.46,-13.5 1.11,-18 2.59,-7.47 19.65,-24.61 25.88,-31 4.92,-5.06 10.2,-13.06 17.01,-15.2 0,0 24,-1.89 24,-1.89 0,0 34,-2.82 34,-2.82 0,0 22,-1.55 22,-1.55 3.05,-0.49 5.99,-0.82 9,0 z m 199,7.31 c 0,0 50,6.88 50,6.88 6.53,0.93 17.59,1.54 22.96,4.88 5.75,3.57 17.65,20.21 22.46,26.39 3.67,4.71 13.42,15.72 14.36,21 1.1,6.23 -2.31,29.45 -3.36,37 -0.75,5.44 -0.9,10.18 -4.12,15 -3.39,5.09 -9.84,9.88 -14.3,14.09 -1.72,1.63 -4.85,4.43 -5.05,6.91 -0.23,2.94 7.2,12.22 9.19,15 4.4,6.14 18.87,25.34 20.89,31 0.95,2.66 1.04,5.2 0.93,8 0,0 -3.69,29 -3.69,29 -0.69,4.82 -1.22,10.89 -3.97,15 -3.4,5.08 -20.47,17.41 -26.3,22 -3.64,2.86 -16.61,13.34 -20,14.44 -1.96,0.64 -4.92,0.59 -7,0.55 0,0 -37,-4.86 -37,-4.86 0,0 -64,-8.86 -64,-8.86 -8.54,-1.23 -24.71,-1.1 -28.26,-10.27 -0.9,-2.33 -0.77,-6.44 -0.74,-9 0,0 8.72,-71 8.72,-71 0,0 13.86,-108 13.86,-108 0,0 5.14,-40 5.14,-40 0.94,-7.24 0.94,-13.25 7.32,-17.98 9.52,-3.24 31.33,1.55 41.96,2.83 z m -246,22.24 c 0,0 -8,0.87 -8,0.87 -3.77,0.17 -17.25,0.68 -20,2.06 -3.36,1.69 -6.63,6.15 -9.16,8.98 0,0 -12.1,14 -12.1,14 -2.91,4.74 -1.39,9.9 -0.91,15 0,0 1,15 1,15 0,0 1.26,24 1.26,24 0,0 2.91,42 2.91,42 0,0 0.91,11 0.91,11 0,0 1.18,23 1.18,23 0,0 0.87,8 0.87,8 0.19,4.26 0.19,16.46 2.06,19.83 1.16,2.08 5.07,5.26 6.98,6.9 4.02,3.45 14.55,13.72 19,14.83 0,0 22,-1.52 22,-1.52 0,0 9,0 9,0 0,0 20,-2.11 20,-2.11 0,0 8,0 8,0 7.69,-1.48 16.7,-14.07 21.83,-19.93 2.87,-3.28 4.77,-5.53 5.11,-10 0,0 -1.85,-26 -1.85,-26 0,0 -2.18,-36 -2.18,-36 0,0 -1.91,-25 -1.91,-25 0,0 -0.91,-14 -0.91,-14 0,0 -1.92,-30 -1.92,-30 -0.42,-4.4 -0.28,-16.13 -1.77,-19.96 -1.24,-3.2 -6.69,-7.31 -9.4,-9.62 -8.8,-7.49 -12.92,-14.25 -25,-13.14 0,0 -27,1.81 -27,1.81 z m 269,97.91 c 0,0 21,1.7 21,1.7 0,0 18,-13.9 18,-13.9 0,0 7.44,-7.81 7.44,-7.81 0,0 2.98,-19.99 2.98,-19.99 0,0 1.57,-18 1.57,-18 0,0 -4.7,-8 -4.7,-8 0,0 -14.46,-18.4 -14.46,-18.4 0,0 -19.83,-3.87 -19.83,-3.87 0,0 -50,-6.73 -50,-6.73 0,0 -4.72,40 -4.72,40 0,0 -6.28,48 -6.28,48 0,0 49,7 49,7 z m -575.88,-9 c 0,0 17.59,65 17.59,65 0,0 16,59 16,59 0,0 10.17,38 10.17,38 1.67,6.35 4.95,15.76 5.11,22 0.05,2.39 0.09,5.74 -0.69,7.98 -2.45,7.03 -12.61,9.71 -19.3,9.98 -3.57,0.14 -7.82,0.06 -10.61,-2.47 -2.97,-2.69 -3.77,-7.75 -4.81,-11.49 0,0 -7.43,-27 -7.43,-27 0,0 -26.3,-97 -26.3,-97 0,0 -11.48,-42 -11.48,-42 0,0 -12.36,-46 -12.36,-46 -1.84,-6.73 -3.38,-14.25 3.1,-19.15 5.14,-3.9 25.62,-9.15 32.89,-11.27 0,0 63,-18.58 63,-18.58 9.17,-2.64 25,-8.77 34,-6.21 0,0 34,17.9 34,17.9 5.05,2.74 11.9,5.68 15.35,10.35 3.25,4.39 7.1,21.69 8.8,27.96 1.42,5.26 5.14,16.99 4.48,22 -0.7,5.39 -11.24,23.74 -14.38,30 0,0 -8.5,16 -8.5,16 -1.51,3.02 -3.79,8.15 -6.28,10.3 -2.78,2.41 -10.72,4.33 -14.47,5.41 0,0 -30,9.29 -30,9.29 0,0 36,20.4 36,20.4 0,0 58,33.8 58,33.8 8.69,5.18 18.27,7.7 19.52,18.8 0.39,3.42 -0.49,6.99 -2.51,9.81 -4.4,6.16 -18.05,8.64 -25.01,6.54 -3.24,-0.97 -9.73,-5.38 -13,-7.35 0,0 -66,-40.4 -66,-40.4 -8.68,-5.23 -31.85,-18.58 -37.91,-24.69 -6.97,-7.03 -9.2,-14.26 -9.09,-23.91 0.05,-3.49 0.09,-6.03 2.43,-8.89 3.18,-3.9 9.83,-5.3 14.57,-6.69 0,0 30,-8.76 30,-8.76 4.45,-1.39 9.35,-2.18 12.61,-5.79 0,0 12.62,-21.87 12.62,-21.87 1.39,-2.55 4.41,-7.38 4.83,-10 0.46,-2.96 -1.86,-10.76 -2.69,-14 -0.86,-3.36 -3.95,-15.56 -5.46,-17.79 -1.8,-2.67 -5.16,-4.08 -7.91,-5.63 -4.35,-2.47 -21.25,-12.12 -25,-12.65 -3.49,-0.48 -19.5,4.77 -24,6.07 0,0 -57,16 -57,16 0,0 7.12,27 7.12,27 z m 745.88,99 c 0,0 -14.33,43 -14.33,43 0,0 -11.66,32.89 -11.66,32.89 -5.59,8.05 -22.87,4.17 -28.5,-2.23 -2.74,-3.1 -3.69,-8.63 -3.41,-12.66 0.34,-5.01 6.92,-23.01 8.9,-29 0,0 18,-55 18,-55 0,0 7.33,-22 7.33,-22 1.28,-3.82 2.57,-8.81 5.09,-11.91 2.63,-3.24 16.36,-13.23 20.58,-16.51 0,0 43,-33.23 43,-33.23 0,0 30,-23.22 30,-23.22 3.97,-3.01 11.78,-9.53 16,-11.14 7.49,-2.85 21.73,1.17 25.91,8.05 0,0 9.24,31.96 9.24,31.96 0,0 18.73,70 18.73,70 0,0 5.83,22 5.83,22 1.47,5.16 3.63,11.66 3.11,17 0,0 -7.15,24 -7.15,24 0,0 -14,42 -14,42 0,0 -11.34,35 -11.34,35 -1.47,4.44 -4.14,13.54 -6.83,16.94 -6.63,8.4 -24.56,3.55 -29.76,-4.04 -1.95,-2.85 -1.81,-6.58 -1.73,-9.9 0.19,-7.54 7.28,-25.88 9.99,-34 0,0 21,-64 21,-64 0,0 -69,-24.31 -69,-24.31 0,0 -38,-13.69 -38,-13.69 -0.62,6.88 -4.71,17.13 -7,24 z m 65,-83.27 c 0,0 -42,36.27 -42,36.27 0,0 92,32 92,32 0,0 -13.58,-64 -13.58,-64 0,0 -6.42,-29 -6.42,-29 0,0 -30,24.73 -30,24.73 z m -983,124.02 c 0,0 21,-11 21,-11 0,0 28,-13.39 28,-13.39 14.57,-4.66 19.95,11.08 15.55,19.62 -2.95,5.72 -11.05,8.35 -16.55,11.33 0,0 -40,20.44 -40,20.44 0,0 -13.99,7.03 -13.99,7.03 -1.47,0.81 -3.89,2 -4.38,3.75 -0.5,1.75 2.02,6.68 2.79,8.47 0,0 11.34,24 11.34,24 2.23,4.55 8.26,18.79 11.45,21.3 2.87,2.26 19.23,7.18 23.79,8.7 2.93,0.98 6.94,2.68 10,2.18 2.84,-0.46 17.35,-8.11 21,-9.93 0,0 45,-23 45,-23 7.68,-3.84 21.97,-13.14 29.61,-5.02 2.04,2.17 3.03,4.84 3.28,7.77 1.19,13.77 -11.31,16.55 -20.89,21.86 0,0 -60,30.39 -60,30.39 -10.48,5.24 -16.89,11.72 -29,8.32 0,0 -37,-12.88 -37,-12.88 -4.82,-1.71 -13.18,-3.78 -16.79,-7.08 -3.53,-3.23 -5.53,-9.28 -7.52,-13.61 0,0 -10.94,-23 -10.94,-23 0,0 -33.01,-70 -33.01,-70 -3.78,-7.82 -14.99,-29.83 -16.55,-37 -0.27,-2.37 -0.22,-5.55 0,-8 -0.09,-7.09 1.75,-9.57 4.13,-16 0,0 10.48,-27 10.48,-27 1.76,-4.49 4.09,-12.17 7.59,-15.37 0,0 15.61,-8.63 15.61,-8.63 0,0 46,-23.25 46,-23.25 0,0 27,-13.99 27,-13.99 5.64,-2.78 10.77,-5.06 16.96,-2.11 8.04,3.83 9.75,19.17 -3.96,26.57 0,0 -56,28.52 -56,28.52 -4.79,2.48 -22.85,10.73 -25.49,13.65 -2.64,2.9 -6.35,17.08 -7.65,21.61 -0.57,1.96 -1.88,5.53 -1.74,7.42 0.26,3.29 5.93,14.07 7.62,17.58 0,0 19.26,42 19.26,42 0,0 24,-12.25 24,-12.25 z m 1192,-78.95 c -5.29,-3.16 -15.62,-8.58 -19.67,-12.47 -5.96,-5.71 -6.32,-17.99 1.69,-22.16 9.9,-5.14 27.4,8.22 35.98,13.11 0,0 96,56 96,56 10.25,5.84 32.56,15.26 23.86,30.7 -3.45,6.14 -10.7,7.12 -16.86,4.89 0,0 -38,-21.67 -38,-21.67 -3.88,-2.31 -13.44,-9.87 -17.37,-5.92 0,0 -9.87,17.72 -9.87,17.72 0,0 -16.02,30 -16.02,30 0,0 -50.43,93 -50.43,93 0,0 -19.05,34.99998 -19.05,34.99998 -2.5,4.82008 -6.01,13.19018 -11.28,15.26018 -10.06,3.96 -26.7,-6.1701 -26.8,-17.26016 -0.06,-6.82 7.67,-19.6 11.13,-26 0,0 60.38,-112 60.38,-112 0,0 31.31,-58 31.31,-58 0,0 -35,-20.2 -35,-20.2 z m -504.27,30.2 c 0,0 -2.08,16 -2.08,16 -0.2,2.07 -1,5.65 0,7.57 1.2,2.62 6.73,2.96 9.35,3.28 0,0 27,3.73 27,3.73 0,0 32,4.42 32,4.42 3.7,0.51 10.57,1.88 14,0.75 3.38,-1.13 10.81,-7.41 14,-9.87 3.18,-2.45 14.37,-10.77 16.18,-13.32 1.82,-2.58 1.71,-5.56 2.1,-8.56 0.56,-4.3 2.89,-18.68 2.04,-22 -0.91,-3.53 -7.22,-12.31 -9.51,-16 -1.75,-2.81 -8.3,-13.54 -10.42,-15.02 -1.78,-1.25 -6.16,-1.67 -8.39,-1.98 0,0 -17,-2.28 -17,-2.28 0,0 -61,-8.72 -61,-8.72 0,0 -8.27,62 -8.27,62 z m 613.85,226.00016 c 0,0 55.57,-77.00016 55.57,-77.00016 0,0 23.27,-32 23.27,-32 0,0 9.95,-14 9.95,-14 2.54,-5.16 -3.81,-8.38 -7.37,-11.12 -2.55,-1.97 -7.66,-5.75 -9.6,-8.05 -4.28,-5.15 -4.75,-14.57 0,-19.6 7.56,-8.04 18.17,-0.48 24.6,4.56 0,0 50,38.79 50,38.79 6.78,5.28 15.46,10.76 14.89,20.42 -0.52,8.84 -7.38,13.65 -15.89,11.44 -7.2,-1.86 -17.8,-12.25 -25,-16.44 0,0 -29.58,42 -29.58,42 0,0 -53.3,74.00016 -53.3,74.00016 0,0 -23.24,32 -23.24,32 -1.72,2.34 -8.21,10.63 -8.35,12.99 -0.2,3.36 5.08,6.57 7.47,8.43 6.98,5.45 15.76,10.5 14.89,20.58 -0.71,8.34 -6.14,11.36 -13.89,10.96 -7.91,-0.41 -15.94,-7.99 -22,-12.75 0,0 -41,-32 -41,-32 -6.63,-5.2 -15.44,-9.92 -15.96,-19.21 -0.53,-9.57 5.64,-17.48 15.96,-14.49 4.22,1.23 18.74,13.08 23,16.49 0,0 25.58,-36 25.58,-36 z m -1459.58,-45.42016 c 0,0 -35,26.29016 -35,26.29016 0,0 -15.99,11.88 -15.99,11.88 -2.46,1.94 -4.9,3.78 -3.9,7.25 0,0 15.47,23 15.47,23 0,0 25.76,37 25.76,37 0,0 12.26,18 12.26,18 5.07,9.79 2.13,17.8 -6.6,23.96 -4.03,2.84 -6.94,4.36 -12,3.93 -8.5,-0.71 -11.95,-6.63 -16.42,-12.89 0,0 -21.6,-31 -21.6,-31 0,0 -28.65,-41 -28.65,-41 -7.88,-11.67 -12.31,-14.19 -12.33,-29 0,0 -2,-96.00016 -2,-96.00016 0,0 -0.96,-12 -0.96,-12 0,0 0,-17 0,-17 -0.03,-4.01 -0.08,-8.26 1.61,-12 2.93,-6.51 12.1,-13.07 19.35,-12.95 6.25,0.12 26.99,8.48 34,11.14 0,0 63,23.39 63,23.39 0,0 21,7.76 21,7.76 3.72,1.31 11.05,3.75 13.91,6.08 3.65,2.96 11.74,15.11 14.76,19.58 0,0 21.61,31 21.61,31 0,0 29.05,42.00016 29.05,42.00016 4.39,6.63 7.93,14.42 2.94,21.96 -4.64,7.01 -18.15,14.33 -26.18,8.48 -3.7,-2.69 -15.32,-20.46 -18.81,-25.44 0,0 -24.42,-35.00016 -24.42,-35.00016 -4.09,-5.74 -13.41,-18.22 -15.86,-24 0,0 -34,25.58 -34,25.58 z m -74.01,-71.58 c 0,0 1.84,25 1.84,25 0,0 1.26,23 1.26,23 0,0 2,28 2,28 0,0 0.91,12.00006 0.91,12.00006 0,0 45,-33.63006 45,-33.63006 0,0 34,-26.37 34,-26.37 0,0 -30,-12.58 -30,-12.58 0,0 -33,-14.56 -33,-14.56 0,0 -22.01,-9.86 -22.01,-9.86 0,0 0,9 0,9 z m 41.73,370.00016 c 15.11,-17.15 34.46,-35.43 51.28,-51.09 72.11,-67.15 150.32,-122.23 238,-167.17 247.69,-126.95016 541.36,-149.47016 805,-59.74 29.77,10.13 59.25,21.07 88,33.86 119.04,52.96 226.87,127.01 319,219.14 60.48,60.48 113.54,128.64 157.55,202 0,0 30.19,54 30.19,54 0,0 22.51,46 22.51,46 13.24,26.74 23.38,55.14 33.94,83 0,0 8.14,23 8.14,23 1.01,3.01 2.94,7.89 2.32,11 -0.84,4.15 -7.58,9.93 -10.65,13 0,0 -29,27.42 -29,27.42 0,0 -35,30.73 -35,30.73 -3.76,3.32 -12.75,12.07 -17,13.34 -2,0.6 -4.88,0.51 -7,0.51 0,0 -18,0 -18,0 0,0 -16,-1 -16,-1 0,0 -49,0 -49,0 0,0 -17,-1 -17,-1 0,0 -138,0 -138,0 0,0 -15,1 -15,1 0,0 -83,2 -83,2 0,0 -15,1 -15,1 0,0 -34,1 -34,1 0,0 -23,1 -23,1 0,0 -23,1 -23,1 0,0 -18,1 -18,1 0,0 -16,1 -16,1 0,0 -21,1 -21,1 0,0 -41,2 -41,2 0,0 -10,0.96 -10,0.96 0,0 -9,0 -9,0 0,0 -18,1.04 -18,1.04 0,0 -11,0.96 -11,0.96 0,0 -42,2.87 -42,2.87 0,0 -23,1.26 -23,1.26 0,0 -26,1.91 -26,1.91 -5.79,0.01 -10.32,0.25 -16,1.75 -12.47,3.31 -24.49,11.08 -35,18.37 -19.61,13.58 -37.1,30.33 -53.17,47.89 -3.32,3.63 -15.75,13.61 -12.29,18.86 2.25,3.42 6.82,3.89 10.46,4.55 0,0 26,5 26,5 0,0 102,19 102,19 0,0 82,15.38 82,15.38 0,0 59,10.77 59,10.77 0,0 75,9.71 75,9.71 0,0 92,11.87 92,11.87 0,0 78,10.13 78,10.13 0,0 38,4.72 38,4.72 -1.17,7.26 -7.76,11.67 -13,16.28 0,0 -27,24.72 -27,24.72 0,0 -43,39.17 -43,39.17 0,0 -81,73 -81,73 0,0 -196,173.55 -196,173.55 0,0 -144,124 -144,124 0,0 -66,55.86 -66,55.86 0,0 -34.54,29.7 -34.54,29.7 0,0 -32.93,43.72 -32.93,43.72 0,0 -18.9,25 -18.9,25 0,0 -9.28,13 -9.28,13 -2.09,4.76 2.41,9.12 4.84,13 0,0 21,33 21,33 0,0 57.86,91 57.86,91 0,0 28.42,45 28.42,45 3.34,7.34 -4.52,11.21 -9.47,15.43 0,0 -38.96,35.4 -38.96,35.4 -3.5,3.27 -15.54,11.79 -12.33,17.03 1.64,2.68 5.42,3.43 8.29,3.85 0,0 20,2.34 20,2.34 0,0 81,10 81,10 8.15,1.06 11.4,9.55 15.42,15.95 1.66,2.64 4.3,7.32 7.62,7.87 3.04,0.5 7.4,-2.89 9.96,-4.42 4.91,-2.95 18.99,-11.79 24,-11.96 0,0 7,0.51 7,0.51 0,0 15,0 15,0 0,0 23,-2 23,-2 0,0 9,0 9,0 0,0 65,-4.91 65,-4.91 0,0 42,-2.92 42,-2.92 4.53,-0.43 9.76,0.36 14,-1.02 4.84,-1.57 15.37,-8.48 20,-11.46 0,0 35,-23.58 35,-23.58 6.72,-5.03 19.96,-15.53 24.44,-22.11 1.69,-2.48 4.43,-10.05 3.64,-12.98 -1.11,-4.14 -5.56,-5.9 -9.08,-7.44 0,0 -26,-11.58 -26,-11.58 0,0 -52,-23.3 -52,-23.3 0,0 -28,-11.92 -28,-11.92 0,0 -26,2.22 -26,2.22 0,0 -21.49,-65 -21.49,-65 0,0 -33.18,-100 -33.18,-100 0,0 -15.35,-46 -15.35,-46 -2.49,-7.92 -5.6,-14.4 -5.94,-23 -0.86,-21.8 13.52,-31.21 28.96,-42.63 0,0 57,-40.8 57,-40.8 0,0 30,-21.55 30,-21.55 0,0 137,-96 137,-96 80.34,-55.37 161.56,-109.75 244,-161.97 0,0 130,-79.25 130,-79.25 0,0 43,-25.08 43,-25.08 0,0 20,-11.07 20,-11.07 6.01,-1.81 14.84,0.82 21,1.93 0,0 44,8.22 44,8.22 3.7,0.74 18.09,2.52 20.1,4.93 1.84,2.44 0.54,10.26 0,13.27 0,0 0,11 0,11 0,0 -1.1,18 -1.1,18 0,0 -0.91,10 -0.91,10 -2.12,30.76 -5.56,61.58 -10.84,92 -10.4,59.92 -24.13,116.6 -44.56,174 -31.74,89.2 -74.11,173.3 -128.41,251 -131.84,188.66 -325.2,332.57 -545.28,400.98 -64.4,20.01 -130.88,34.48 -198,41.19 0,0 -45,3.92 -45,3.92 0,0 -12,0.91 -12,0.91 0,0 -20,1 -20,1 0,0 -73,0 -73,0 0,0 -15,-1 -15,-1 0,0 -30,-1.91 -30,-1.91 -52.83,-3.63 -105.44,-11.98 -157,-24.21 -184.08,-43.65 -347.23,-133.03 -484,-263.84 0,0 -10,-9.05 -10,-9.05 0,0 -20.04,-20.99 -20.04,-20.99 -82.35,-86.09 -148.93,-183.71 -198.65,-292 -37.9201,-82.58 -63.73018,-170.49 -78.74018,-260 0,0 -8.4,-61 -8.4,-61 0,0 -2.34,-29 -2.34,-29 0,0 -1.83,-22 -1.83,-22 0,0 -1,-22 -1,-22 0,0 0,-61 0,-61 7.62,0.19 17.24,4.71 25,7 0,0 48.00018,11.59 48.00018,11.59 19.52,3.27 39.25,4.38 59,4.41 0,0 15,1 15,1 0,0 23,0 23,0 11.43,0.02 17.9,4.45 28,9.22 0,0 32,14.47 32,14.47 0,0 102,46.62 102,46.62 0,0 33,15.27 33,15.27 0,0 87,39.64 87,39.64 0,0 21,9.54 21,9.54 3.71,1.81 6.47,2.26 8,6.24 0,0 -35,2.91 -35,2.91 0,0 -102,9.07 -102,9.07 0,0 -33,3.23 -33,3.23 -3.56,0.74 -7.86,4.23 -7.85,8.21 0.01,2.47 2.31,4.89 3.9,6.57 3.79,3.98 10.33,8.83 14.95,11.98 0,0 65,38.33 65,38.33 0,0 53,28.78 53,28.78 0,0 31,15.43 31,15.43 8.13,2.28 22.22,2.81 31,3.66 0,0 39,4 39,4 0,0 101,10.66 101,10.66 0,0 59,6.17 59,6.17 0,0 -3.91,54 -3.91,54 0,0 -5,65 -5,65 0,0 -2.26,33 -2.26,33 0,0 -3,39 -3,39 -1.35,14.15 -3.3,24.33 2.75,38 8.36,18.88 25.69,32.8 42.42,44 30.51,20.43 63.99,35.92 97,51.78 0,0 36,16.37 36,16.37 3.16,1.36 11,5.65 14.13,4.35 2.63,-1.08 4.67,-4.28 6.29,-6.5 0,0 11.46,-16 11.46,-16 0,0 45,-63 45,-63 0,0 36.69,-51 36.69,-51 0,0 91.57,-128 91.57,-128 0,0 37.15,-52 37.15,-52 8.26,-11.4 14.93,-16.23 18.79,-31 2.57,-9.84 0.99,-25.59 -7.13,-32.48 -4.44,-3.77 -18.6,-11.02 -20.93,-14.84 -0.84,-1.38 -0.77,-2.22 -1.02,-3.68 7.32,-0.97 28.28,-2.87 28.27,-12.99 0,-3.08 -3.13,-5.25 -5.27,-7.01 0,0 -18,-14.4 -18,-14.4 -24.36,-19.46 -48.56,-38.97 -75,-55.55 0,0 -25,-14.9 -25,-14.9 -2.37,-1.37 -7.24,-3.57 -5.83,-7.02 0.7,-1.72 5.08,-5.38 6.62,-7.14 4.12,-4.71 6.73,-10.73 7.12,-16.99 0.62,-10.07 -5.4,-21.67 -13.91,-27.01 -3.27,-2.05 -7.29,-3.26 -11,-4.21 -2.98,-0.76 -5.88,-1.79 -9,-1.42 -13.69,1.65 -21,16.37 -22,28.64 -17.34,0 -18.51,-0.59 -36,3.21 -4.85,1.05 -14.76,5.33 -19,4.03 -3.27,-1.01 -15.58,-10.31 -19,-12.87 0,0 -36,-25.95 -36,-25.95 0,0 -130,-94 -130,-94 0,0 -206,-148.85 -206,-148.85 0,0 -106,-76.69 -106,-76.69 0,0 -65,-41.93 -65,-41.93 0,0 -59,-38 -59,-38 0,0 -25,-15.95 -25,-15.95 0,0 0,-3 0,-3 0,0 42,-13.02 42,-13.02 0,0 104,-32 104,-32 0,0 347,-106.96 347,-106.96 0,0 120,-37 120,-37 0,0 25,-7.68 25,-7.68 5.78,-1.82 11.46,-3.8 13.44,-10.34 1.29,-4.27 -2.4,-6.76 -5.44,-8.96 0,0 -22,-15.7 -22,-15.7 0,0 -96,-67.76 -96,-67.76 0,0 -81,-56.91 -81,-56.91 -11.44,-7.6 -33.95,-22.32 -47,-24.88 -4.06,-0.8 -24.28,2.43 -30,3.05 0,0 -75,8.99 -75,8.99 0,0 -73,8.88 -73,8.88 0,0 -109,12.57 -109,12.57 0,0 -58,7 -58,7 0,0 -45,4.72 -45,4.72 2.2,-7.49 12.43,-16 17.72,-22 z m 1704.28,-277 c 0,0 31,0 31,0 2.45,0 5.72,-0.13 8,0.74 5.28,2.01 15.98,14.63 20.17,19.26 0,0 19.83,20 19.83,20 0,0 18.17,19 18.17,19 2.77,3.08 6.25,6.1 7.82,10 1.16,2.86 1.01,5.97 1.01,9 0,0 1,43 1,43 -0.02,9.9 -0.72,22.12 -14,20.89 -3.25,-0.3 -5.43,-1.45 -8,-3.42 -13.96,-10.7 -8.02,-23.57 -8,-38.47 0,0 0,-15 0,-15 0,-2.09 0.12,-5.06 -0.6,-7 -1.47,-4 -11.88,-13.48 -15.4,-17 0,0 -16.91,-17 -16.91,-17 -2.8,-3 -6.55,-8.2 -10.09,-9.98 -1.73,-0.87 -17.19,-1.98 -20,-2.02 -3.36,-0.04 -14.46,-0.34 -17,0.6 -4.13,1.52 -8.38,7.11 -11.28,10.4 0,0 -16.89,18 -16.89,18 0,0 -15.74,16 -15.74,16 0,0 -34.09,36 -34.09,36 0,0 -15.01,16 -15.01,16 -2.6,2.66 -7.13,6.58 -8.39,10 -0.88,2.4 -0.61,10.06 -0.6,13 0,0 1,15 1,15 0.01,2.67 -0.2,6.54 0.74,9 1.39,3.66 6.42,8.16 9.26,11 0,0 20,20 20,20 3.23,3.28 9.53,11.24 13,12.98 2.97,1.49 10.44,1.04 14,1.02 0,0 32,-1.9 32,-1.9 13.02,0.97 21.45,19.26 15.26,27.69 -3.64,4.97 -12.65,5.2 -18.26,5.21 0,0 -43,0 -43,0 -9.78,-0.13 -12.42,-4.41 -19,-11 0,0 -26,-27 -26,-27 0,0 -20.42,-21 -20.42,-21 -2.19,-2.53 -5.88,-6.16 -7.27,-9 -2.07,-4.26 -1.25,-16.71 -1.31,-22 0,0 -1,-13 -1,-13 0,0 0,-22 0,-22 0,-3 -0.1,-6.11 0.8,-9 2.11,-6.73 13.08,-16.85 18.2,-22 0,0 11.04,-12 11.04,-12 0,0 31.87,-33 31.87,-33 0,0 35.09,-37 35.09,-37 6.52,-6.53 9.6,-12.24 19,-14.53 7.09,-1 12.96,0.52 20,0.53 z m -2677.00018,233.5 c 12.74,4.45 27.19,12.5 39,19.22 0,0 20,12.17 20,12.17 2.74,1.84 7.46,5.25 8.98,8.15 1.24,2.38 1.07,6.28 1.01,8.96 -0.18,7.25 -4.13,18.1 -6.8,25 -6.73,17.37 -17.87,35.93 -31.19,48.99 -8.03,7.87 -17.54,14.4 -29,15.54 -8.9,0.89 -13.55,-3.77 -20,-8.93 0,0 -19,-15.35 -19,-15.35 -7.86,-6.54 -15.88,-12.85 -22.96,-20.25 -14.99,-15.67 -29.09,-40.41 -36.04,-61 0,0 -5.99,-21 -5.99,-21 -0.89,-3.43 -1.7,-7.66 0.73,-10.7 2.1,-2.64 6.15,-3.04 9.26,-3.72 0,0 24.91,-4.09 24.91,-4.09 21.67,-2.05 46.5,-0.17 67.09,7.01 z m 463,291.92 c -15.89,-11.23 -35.58,-20.73 -44.74,-38.42 -8.38,-16.18 -5.82,-16.84 -10.88,-30 -3.36,-8.75 -8.64,-17.54 -14.28,-25 -27.93,-36.96 -65.86,-57.85 -104.1,-82.05 0,0 -64,-38.96 -64,-38.96 0,0 -39,-21.67 -39,-21.67 0,0 -17,-7.19 -17,-7.19 0,0 -14,-6.27 -14,-6.27 -16.32,-5.68 -43.63,-8.78 -61,-8.86 -3.39,-0.02 -19.67,-1.08 -22,-2.14 0,0 -17.98,-12.09 -17.98,-12.09 -1.84,-1.29 -5.15,-3.6 -3.85,-6.28 0.99,-2.04 10.33,-5.58 12.83,-6.72 6.16,-2.81 24.81,-9.91 30.99,-10.59 0,0 15.01,0 15.01,0 0,0 21,0.82 21,0.82 22.55,0.04 40.15,0.16 62,7.52 15.17,5.1 37.94,19.68 52,28.29 0,0 112,69.74 112,69.74 0,0 109,67.5 109,67.5 0,0 39,24.37 39,24.37 0,0 19,11.58 19,11.58 4.16,-5.46 9.6,0.56 14,3.49 0,0 36,22.32 36,22.32 39.1,23.95 79.7,45.09 120,66.88 0,0 28,14.56 28,14.56 2.58,1.29 9.52,4.02 10.13,6.96 0.45,2.18 -4,10.18 -5.13,12.79 6.82,3.05 17.25008,10.11 24.00018,14.32 0,0 36,22.26 36,22.26 0,0 116,72.19 116,72.19 0,0 114,70.81 114,70.81 0,0 58,36.17 58,36.17 0,0 14,10.39 14,10.39 0,0 58,42.44 58,42.44 0,0 181,132.27 181,132.27 0,0 144,105.28 144,105.28 0,0 36,26.16 36,26.16 4.69,3.38 13.19,8.25 15,13.71 0,0 -37,0 -37,0 0,0 -27,1 -27,1 0,0 -56,0 -56,0 -10.32,-0.02 -14.33,-4.37 -23,-9.6 0,0 -36,-21.8 -36,-21.8 0,0 -144,-87.29 -144,-87.29 0,0 -199,-120.4 -199,-120.4 0,0 -71,-42.91 -71,-42.91 0,0 -23,-14 -23,-14 0,0 -15.88,-9.71 -15.88,-9.71 -6.9,-4.86 -4.38,-10.57 -12.16,-16.2 0,0 -10.96,-6.77 -10.96,-6.77 0,0 -33,-20.37 -33,-20.37 0,0 -118.00018,-73 -118.00018,-73 0,0 -57,-35.37 -57,-35.37 0,0 -29,-17.62 -29,-17.62 -1.44,-0.6 -2.42,-0.95 -4,-0.59 -2.86,0.67 -12.69,9.76 -16,12.26 -17.69,13.35 -33.38,23.37 -54,31.77 -28.49,11.59 -59.6,16.01 -90,10.34 -10.18,-1.9 -19.27,-5.56 -29,-8.79 0,0 -9,-2.02 -9,-2.02 0,0 -16,-9.08 -16,-9.08 0,0 -32,-18.27 -32,-18.27 0,0 -36,-20.43 -36,-20.43 -4.59,-2.62 -11.17,-4.87 -13,-10.15 9.95,1.77 19.71,5.35 30,4.96 23.63,-0.89 48.4,-7.68 66,-24.05 8.96,-8.33 14.82,-15.96 21.72,-25.91 0,0 9.91,-14.35 9.91,-14.35 2.57,-1.97 5.08,0.01 7.37,1.35 0,0 3,-8 3,-8 0,0 -5,-2 -5,-2 0,0 2,-5 2,-5 0,0 -32,-18.72 -32,-18.72 0,0 -86,-52.08 -86,-52.08 0,0 -111,-67.19 -111,-67.19 -16.96,-9.97 -62.71,-36.89 -76,-47.46 -3.36,-2.68 -14.09,-10.9 -15.16,-14.59 -0.97,-3.37 2.33,-8.02 3.93,-10.96 0,0 12.97,-24 12.97,-24 5.15,-10.64 6.33,-19.5 6.98,-20.7 1.03,-1.87 2.36,-2.04 4.32,-1.62 0,0 20.96,10.02 20.96,10.02 0,0 43,24.7 43,24.7 0,0 77,47.91 77,47.91 24.77,15.95 46.18,29.68 65.56,52.69 7.54,8.94 14.82,20.05 19.01,31 0,0 3.35,12 3.35,12 1.69,6.15 6.97,17.63 10.43,23 9.44,14.66 22.49,22.21 36.65,31.67 0,0 26,17.33 26,17.33 3.18,-8.23 1.8,-7.11 -13,-17.58 z m 944.00018,-127.65 c 0,0 -112,24.81 -112,24.81 0,0 -365,80.84 -365,80.84 0,0 -136,30.03 -136,30.03 0,0 -43,9.63 -43,9.63 0,0 -11.0002,2.49 -11.0002,2.49 -4.16998,0.28 -10.22998,-3.41 -13.99998,-5.33 0,0 -28,-14.6 -28,-14.6 0,0 -36,-19.33 -36,-19.33 0,0 -84,-47.12 -84,-47.12 0,0 -36,-22.33 -36,-22.33 -2.13,-1.38 -10.7,-6.06 -8.83,-9.3 1.36,-2.36 11.05,-2.56 13.83,-3 0,0 39,-6.64 39,-6.64 0,0 162.00008,-27.35 162.00008,-27.35 0,0 407.0001,-67.98 407.0001,-67.98 0,0 70,-12.15 70,-12.15 0,0 48,-7.64 48,-7.64 0,0 34,-5.88 34,-5.88 3.53,-0.59 11.83,-2.5 14.91,-1.32 3.39,1.3 8.71,9.33 11.38,12.4 6.69,7.69 16.36,16.68 24.71,22.56 11.06,7.79 23.67,12.4 36,17.72 0,0 46,20.14 46,20.14 0,0 21,9.16 21,9.16 3.96,1.69 7.38,2.21 9,6.42 0,0 -63,13.77 -63,13.77 z m 1370,342.23 c 0,0 48,-44.09 48,-44.09 0,0 89,-82.82 89,-82.82 0,0 30,-27.18 30,-27.18 0,0 11,-10.82 11,-10.82 0,0 18,-16.18 18,-16.18 0,0 45,-41.12 45,-41.12 0,0 10,-5.79 10,-5.79 5.86,-3.35 13.54,-8.69 20,-10 -0.25,1.57 -0.22,2.45 -1.02,3.96 -1.23,2.32 -14.16,14.3 -16.98,17.05 0,0 -46,45.99 -46,45.99 0,0 -23,22.01 -23,22.01 0,0 -106,104.99 -106,104.99 0,0 -15.49,14.69 -15.49,14.69 0,0 -35.51,35.31 -35.51,35.31 -4.76,4.76 -9.62,12.05 -17,11.75 0,0 -8,0 -8,0 -8.6,-0.13 -9.41,-1.01 -19,0 1.9,-5.55 12.27,-13.1 17,-17.75 z M 84.378209,1597.4561 c 0,0 56.000011,-12.78 56.000011,-12.78 0,0 96,-22 96,-22 0,0 51,-11.51 51,-11.51 0,0 37,-8.37 37,-8.37 0,0 33,-7.75 33,-7.75 0,0 27,-5.17 27,-5.17 0,0 21,11.15 21,11.15 0,0 44,25.14 44,25.14 0,0 59,33.7 59,33.7 0,0 19.43,11.53 19.43,11.53 0,0 1.57,3.05 1.57,3.05 0,0 -75,8.83 -75,8.83 0,0 -56,6.88 -56,6.88 0,0 -8,0.58 -8,0.58 0,0 -106,13.42 -106,13.42 0,0 -8,0.58 -8,0.58 0,0 -33,4.43 -33,4.43 0,0 -25,2.71 -25,2.71 0,0 -22,2.84 -22,2.84 -2.92,0.42 -10.51,1.75 -13,1.48 0,0 -28,-10.55 -28,-10.55 0,0 -70.000011,-28 -70.000011,-28 -7.25,-2.85 -22.29,-7.39 -25,-15.2 0,0 24,-4.99 24,-4.99 z m 2897.000191,154.84 c 0,0 46,-39.77 46,-39.77 0,0 134,-115.35 134,-115.35 22.7,-19.43 27.66,-25.61 55,-39.98 6.46,-3.4 10.67,-7.37 18,-8.75 -2.37,8.05 -12.96,15.26 -19,21.04 0,0 -47,44.24 -47,44.24 0,0 -14,13.63 -14,13.63 0,0 -35,33 -35,33 0,0 -47,44 -47,44 0,0 -26.58,24.82 -26.58,24.82 0,0 -30.33,28.4 -30.33,28.4 -8.11,7.5 -9.5,12.85 -21.09,12.87 0,0 -31,0 -31,0 2.24,-7 12.47,-13.31 18,-18.15 z m -753,106.15 c 0,0 31,-1.91 31,-1.91 0,0 55,-3.18 55,-3.18 0,0 20,-1.91 20,-1.91 0,0 9,0 9,0 0,0 10,-1 10,-1 0,0 63,-4 63,-4 0,0 10,-0.91 10,-0.91 0,0 25,-2 25,-2 0,0 24,-1.18 24,-1.18 0,0 46,-3.82 46,-3.82 77.73,-5.31 155.41,-11.74 233,-19.26 0,0 31,-3.66 31,-3.66 0,0 64,-7.92 64,-7.92 0,0 26,-4.75 26,-4.75 7.78,-1.84 10.2,-4.39 19,-4.5 0,0 18,0 18,0 4.69,0.01 16.43,-0.73 14.67,6.91 -0.74,3.22 -4.04,4.94 -6.67,6.47 -5.84,3.41 -14.46,5.87 -21,7.96 -22.44,7.19 -72.37,16.8 -97,21.24 -78.91,14.22 -158.52,24.55 -238,34.7 0,0 -95,11.87 -95,11.87 0,0 -43,5.02 -43,5.02 0,0 -10,1.65 -10,1.65 -4.38,0.33 -13.37,-1.61 -18,-2.39 0,0 -33,-5 -33,-5 0,0 -107,-15.85 -107,-15.85 0,0 -36,-5.47 -36,-5.47 -4.61,-1.04 -10.26,-1.27 -12,-6.11 0,0 18,-1 18,-1 z m 280,40.17 c 0,0 114,-12.89 114,-12.89 75.74,-9.44 173.82,-22.61 247,-40.91 23.31,-5.82 52.5,-13.22 74,-23.63 5.87,-2.84 11.99,-5.84 17,-10.06 3.05,-2.58 6.9,-7.87 10.04,-9.08 2.11,-0.81 8.44,-0.64 10.96,-0.6 7.49,0.14 7.1,2.2 7,10 -0.16,12 -8.61,22.09 -17,29.91 -18.24,16.99 -48.13,29.58 -71,39.37 -36.57,15.66 -90.89,30.42 -130,40.19 0,0 -50,11.74 -50,11.74 0,0 -24,4.75 -24,4.75 0,0 -38,-4.69 -38,-4.69 0,0 -71,-10 -71,-10 0,0 -56,-7.55 -56,-7.55 0,0 -34,-4.87 -34,-4.87 0,0 -20,-2.98 -20,-2.98 -4.54,-0.64 -7.37,-0.2 -9,-4.87 0,0 40,-3.83 40,-3.83 z m 246,40.41 c 0,0 46,-10.71 46,-10.71 41.93,-10.48 99.13,-27.68 137,-47.65 12.19,-6.43 26.79,-15.2 37,-24.39 0,0 14.44,-14.84 14.44,-14.84 1.39,-0.84 2.09,-0.75 3.56,-0.99 0,4.46 0.36,11.95 -0.79,16 -4.03,14.21 -20.67,27.73 -32.21,36.15 -18.39,13.41 -37.44,22.71 -58,32.16 0,0 -47,20.03 -47,20.03 0,0 -31,11.33 -31,11.33 -3.42,1.14 -11.74,4.13 -15,4.02 -5.48,-0.2 -10.3,-7.13 -20,-9.9 -4.69,-1.34 -12.07,-1.48 -17,-1.96 0,0 -32,-2.83 -32,-2.83 1.97,-5.65 9.87,-5.3 15,-6.42 z m 427.04,65.42 c 0,0 0.96,-11 0.96,-11 0,0 -0.91,-12 -0.91,-12 0,0 0,-18 0,-18 0,0 -3.24,-37 -3.24,-37 0,0 -5.85,-33 -5.85,-33 0,0 -3.36,-13.9 -3.36,-13.9 0.26,-2.91 3.21,-4.46 5.36,-5.98 0,0 14,-10.22 14,-10.22 2.43,-1.77 4.82,-3.73 8,-2.93 3.16,0.79 13.86,9.54 17,12.03 0,0 36,29.71 36,29.71 0,0 50,44.38 50,44.38 0,0 26,24.82 26,24.82 0,0 45,43.09 45,43.09 0,0 35,34 35,34 4.94,4.94 11.83,9.78 13,17 0,0 -62,-11.74 -62,-11.74 0,0 -174.96,-33.26 -174.96,-33.26 0,0 0,-16 0,-16 z m 89.96,-130.14 c 36.5,10.47 72.56,27.91 107,43.83 61.07,28.24 121.2,58.21 181,89.05 0,0 91,47.4 91,47.4 0,0 33,17.17 33,17.17 0,0 55,29.45 55,29.45 0,0 21,11.38 21,11.38 4.8,2.4 9.22,3.44 11,8.86 0,0 -20,-3.75 -20,-3.75 0,0 -61,-10.83 -61,-10.83 0,0 -117,-20.81 -117,-20.81 0,0 -57,-10.18 -57,-10.18 0,0 -29,-5.45 -29,-5.45 -3.24,-1.66 -9.95,-9.03 -13,-11.94 0,0 -27,-24.76 -27,-24.76 0,0 -51,-46.11 -51,-46.11 0,0 -49,-42.04 -49,-42.04 -23.8,-20.39 -48.81,-39.47 -74,-58.11 0,0 -20,-13.69 -20,-13.69 -3.6,-2.42 -7.44,-4.17 -9,-8.33 7.83,0.71 19.65,6.46 28,8.86 z m -260,104.48 c 0,0 22,-13.8 22,-13.8 0,0 46,-32.02 46,-32.02 0,0 20,-11.92 20,-11.92 5.83,-3.45 21.48,-13.25 27,-14.6 -0.57,6.8 -3.47,16.2 -5.27,23 0,0 -15.39,50 -15.39,50 0,0 -5.68,16 -5.68,16 -0.96,2.7 -2,6.18 -4.87,7.24 -2.35,1.15 -6.31,0.25 -8.79,0 0,0 -17,-3.16 -17,-3.16 0,0 -67,-12.08 -67,-12.08 1.61,-4.9 4.8,-5.93 9,-8.66 z m -571.99,328.57 c 0,0 16.99,-15.9 16.99,-15.9 0,0 22,-20.1 22,-20.1 0,0 53,-49.08 53,-49.08 0,0 47,-43.74 47,-43.74 0,0 71,-65.18 71,-65.18 0,0 54,-50.08 54,-50.08 0,0 53,-49 53,-49 0,0 20.28,-18.69 20.28,-18.69 0,0 31.72,-11.56 31.72,-11.56 0,0 43,-16.58 43,-16.58 -1.87,6.38 -6.18,8.99 -10.91,13.25 0,0 -15.37,15.17 -15.37,15.17 0,0 -46.72,46.57 -46.72,46.57 0,0 -19,18.01 -19,18.01 0,0 -53.09,52.93 -53.09,52.93 0,0 -16.91,16.07 -16.91,16.07 0,0 -42,41.79 -42,41.79 0,0 -45,31.23 -45,31.23 0,0 -80,55.07 -80,55.07 0,0 -60,41.33 -60,41.33 -6.84,4.84 -23.87,17.82 -31,19.58 0.95,-5.96 3.82,-7.11 8.01,-11.09 z m -349.42,236.09 c -1.55,-2.77 -7.15,-12.4 -7,-15 0.23,-4.28 6.33,-8.2 9.41,-10.66 0,0 25,-21.61 25,-21.61 0,0 102,-87.81 102,-87.81 0,0 54,-46.64 54,-46.64 0,0 86,-74 86,-74 0,0 131,-112.56 131,-112.56 0,0 115,-99.3 115,-99.3 0,0 89,-76.55 89,-76.55 0,0 22,-18.94 22,-18.94 3.5,-3.19 5.95,-6.83 11.04,-6.27 0,0 21.96,3.07 21.96,3.07 3.98,0.58 7.8,0.82 10.4,4.4 2.08,2.86 1.6,7.46 1.6,10.87 -5.55,2.63 -14.17,11.43 -19,15.91 0,0 -33,30.01 -33,30.01 0,0 -103,93.99 -103,93.99 0,0 -93,84.26 -93,84.26 0,0 -65,59.66 -65,59.66 0,0 -172,156.34 -172,156.34 0,0 -121,110.11 -121,110.11 0,0 -28,25.72 -28,25.72 -4.69,4.47 -10.49,10.95 -17,12 0,0 -20.41,-37 -20.41,-37 z m -191.59,-429.99 c 9.04,-0.2 17.38,0.36 19,10.99 0,0 -39,0 -39,0 -5.05,-0.03 -7.04,0.45 -8,-5 10.01,-2.28 16.86,-5.73 28,-5.99 z m 1315,39.57 c 0,0 85,18.54 85,18.54 0,0 26,5.67 26,5.67 5.75,1.24 12.11,2.24 16.83,6 5.02,4 9.74,13.46 13.02,19.21 0,0 18.16,32 18.16,32 2.56,6.82 -3.25,27.23 -5.14,35 0,0 -18.08,80 -18.08,80 -2.67,12.37 -3.16,26.87 -19.79,25.91 0,0 -56,-11.7 -56,-11.7 0,0 -121,-26.33 -121,-26.33 0,0 -42,-9.3 -42,-9.3 -6.02,-1.33 -15.29,-2.68 -19.77,-6.97 -4,-3.82 -3.66,-10.54 -2.77,-15.61 0,0 8.33,-37 8.33,-37 0,0 12.79,-57 12.79,-57 1.29,-5.82 5.04,-24.86 7.51,-28.96 2.66,-4.43 10.53,-9.06 14.91,-12.18 9.72,-6.92 28.24,-21.84 39,-24.39 10.33,-1.44 31.92,4.67 43,7.11 z m -2364.00018,11.42 c 5.41,3.61 25.54,16.25 28.49,20.09 3.2,4.17 6.09,21.88 7.31,27.91 0,0 8.08,38 8.08,38 0,0 5.08,26 5.08,26 0.35,9.12 -3.45,12.74 -8.29,20 0,0 -16,24 -16,24 -2.62,3.93 -6.69,10.45 -10.11,13.44 -8.02,7.03 -18.97,3.3 -22.68,-6.44 -1.69,-4.43 -2.76,-12.49 -1.16,-17 1.02,-2.85 5.22,-8.31 7.14,-11 0,0 19.46,-28 19.46,-28 2.14,-4.34 -0.38,-11.39 -1.44,-16 0,0 -6.67,-31 -6.67,-31 -0.95,-4.46 -1.56,-11.41 -4.52,-14.82 0,0 -22.69,-16.32 -22.69,-16.32 -2.88,-2.05 -7.53,-5.77 -11,-6.28 -2.82,-0.41 -8.99,1.34 -12,2 0,0 -20,4.02 -20,4.02 0,0 -76,15.6 -76,15.6 0,0 -23,4.72 -23,4.72 -3.45,0.62 -12.2,2.14 -14.82,3.93 -2.92,2.01 -5.5,7.06 -7.38,10.15 0,0 -14.58,24.42 -14.58,24.42 -0.61,2.68 1.93,12.39 2.66,15.58 0,0 6.7,31 6.7,31 1.17,5.34 1.22,10.62 5.55,14.47 0,0 29.87,18.47 29.87,18.47 4.17,2.56 9.5,4.93 12.27,9.1 2.25,3.4 2.68,8.96 2.73,12.96 0.02,2.22 0.11,5.94 -0.51,8 -2.48,8.16 -11.6,8.99 -18.49,6.44 0,0 -37,-23.02 -37,-23.02 -4.49,-2.81 -12.23,-7 -14.91,-11.46 -2.13,-3.54 -4,-13.56 -4.89,-17.96 0,0 -6,-28 -6,-28 0,0 -9.16,-45 -9.16,-45 -0.09,-2.27 -0.05,-4.83 0.66,-7 0,0 19.3,-31 19.3,-31 3.89,-5.9 10.34,-18.2 16.04,-21.64 4.65,-2.8 13.44,-4.06 18.96,-5.16 0,0 32,-6.6 32,-6.6 0,0 108,-22.12 108,-22.12 12,-1.15 23.36,9.09 33,15.52 z m 2487.65018,111 c 1.09,-4.83 6.21,-25.64 5.79,-29 -0.39,-3.18 -3.18,-7.21 -4.84,-10 0,0 -10.69,-17.86 -10.69,-17.86 -3.68,-4.62 -14.19,-5.71 -19.91,-6.93 0,0 -52,-11.21 -52,-11.21 0,0 -61,-13.21 -61,-13.21 -4.42,-0.95 -21.82,-5.45 -25,-4.77 -2.52,0.54 -5.81,3.15 -8,4.64 -4.32,2.92 -18.82,11.93 -21.02,15.51 0,0 -6.63,26.83 -6.63,26.83 0,0 -8.77,39 -8.77,39 -1.63,7.36 -4.42,16.75 -4.58,24 0,0 36,7.35 36,7.35 0,0 52,11.23 52,11.23 0,0 65,14.21 65,14.21 0,0 50,11.21 50,11.21 0,0 13.65,-61 13.65,-61 z m -2402.75018,115 c 0.72,10.5 -5.45,13.38 -13.9,17.14 0,0 -30,13.01 -30,13.01 0,0 -105,45.7 -105,45.7 0,0 -27,11.73 -27,11.73 -4.4,1.91 -8.97,3.06 -11.47,7.47 0,0 -8.11,20.95 -8.11,20.95 -1.03,2.74 -3.4,8.29 -3.26,11 0.17,3.36 7.66,18.83 9.54,23 0,0 21.07,47 21.07,47 4.29,9.4 14.88,30.43 -1.77,34.47 -5.48,1.33 -11.68,-0.39 -15.45,-4.68 -1.98,-2.27 -4.35,-7.84 -5.79,-10.79 0,0 -11.34,-25 -11.34,-25 0,0 -18.73,-42 -18.73,-42 -3.1,-6.78 -9.39,-18.84 -9.65,-26 -0.24,-6.98 3.96,-15.5 6.56,-22 0,0 14.45,-36 14.45,-36 3.22,-6.7 9.53,-8.63 15.95,-11.42 0,0 32,-14 32,-14 0,0 92,-39.86 92,-39.86 0,0 49,-20.25 49,-20.25 12.78,-1.51 20.09,8.62 20.9,20.53 z m 2174.10018,54.25 c 0,0 -42,-20.03 -42,-20.03 -6.96,-3.29 -13.76,-5.55 -14.66,-14.22 -0.77,-7.32 6.16,-26.71 19.66,-24.52 4.46,0.73 15.57,6.06 20,8.27 0,0 32,15.47 32,15.47 0,0 74,35.04 74,35.04 0,0 42,20.43 42,20.43 0,0 42,20.06 42,20.06 6.53,3.27 13.7,5.95 14.66,14.25 0.48,4.12 -1.17,8.35 -2.92,12 -4.4,9.17 -8.86,13.97 -19.74,11.47 -4.75,-1.09 -16.23,-6.84 -21,-9.22 0,0 -28,-13.49 -28,-13.49 -2.99,-1.47 -16.68,-7.98 -19,-8.19 -3.07,-0.28 -10.63,2.96 -14,4.1 0,0 -33,11.91 -33,11.91 0,0 -72,25.73 -72,25.73 0,0 -37,13.69 -37,13.69 0,0 32,14.75 32,14.75 0,0 43,20.5 43,20.5 0,0 50,23.99 50,23.99 0,0 32,15.34 32,15.34 5.12,2.23 14.71,6.08 17.85,10.6 5.59,8.04 -0.93,25.22 -8.89,29.51 -2.8,1.5 -6.88,1.52 -9.96,0.98 -5.16,-0.9 -13.81,-5.98 -19,-8.36 0,0 -38,-18.06 -38,-18.06 0,0 -62,-29.51 -62,-29.51 0,0 -47,-22.88 -47,-22.88 0,0 -43,-20.61 -43,-20.61 -9.67,-4.84 -16.45,-7.79 -13.24,-20.25 1.24,-4.82 4.55,-11.37 8.34,-14.61 3.38,-2.88 7.84,-3.69 11.9,-5.2 0,0 26,-9.19 26,-9.19 0,0 78,-27.66 78,-27.66 0,0 51,-18.34 51,-18.34 0,0 -50,-23.75 -50,-23.75 z m -865.51,67.83 c 2.37,1.38 4.82,11.05 5.65,13.92 0,0 10.2,32 10.2,32 1.27,3.67 5.31,14.71 5.42,18 0.16,4.5 -2.85,7.03 -5.76,10 0,0 -12.95,13.58 -12.95,13.58 0,0 -33.09,34.42 -33.09,34.42 0,0 -21.54,22 -21.54,22 0,0 -16.42,16.98 -16.42,16.98 -1.86,1.77 -4.79,5.06 -7.67,3.85 -2.08,-0.87 -4.76,-5.83 -5.9,-7.83 0,0 -12.29,-22 -12.29,-22 0,0 -12.42,-22 -12.42,-22 -1.48,-2.6 -4.56,-6.96 -3.91,-10 0.72,-3.37 6.57,-8.3 9.19,-10.58 0,0 20,-18.7 20,-18.7 0,0 19,-18.63 19,-18.63 0,0 29,-27.09 29,-27.09 0,0 29.98,-27.92 29.98,-27.92 0.39,-0.08 1.82,-0.99 3.51,0 z m -1229.49,55.96 c 2.08,-0.1 5.06,-0.04 7,0.7 7.69,2.94 19.42,19.71 10.57,29.96 -2.24,2.6 -10.3,7.83 -13.57,10.16 0,0 -28.00018,19.48 -28.00018,19.48 0,0 -78,54.32 -78,54.32 0,0 -30,20.68 -30,20.68 -3.2,2.18 -12.02,7.84 -13.69,10.84 -1.46,2.64 -1.19,5.91 -1.48,8.82 -0.46,4.59 -2.93,22.81 -1.89,26 0.97,2.98 13.82,20.06 16.64,24 0,0 13,18 13,18 1.96,2.72 4.79,7.3 7.59,9.02 2.57,1.56 15.97,4.17 19.83,5.11 3.25,0.79 11.07,3.12 14,2.7 4.04,-0.58 17.8,-11.17 22,-14.11 0,0 52.00008,-36.3 52.00008,-36.3 0,0 82.0001,-57 82.0001,-57 6.04,-4.26 11.32,-7.91 19,-5.43 9.9,3.21 19.77,20.33 12.35,29.83 -1.93,2.47 -10.32,8.06 -13.35,10.16 0,0 -25,17.44 -25,17.44 0,0 -89.00018,62 -89.00018,62 0,0 -24,16.6 -24,16.6 -10.05,6.94 -11.35,10.12 -24,9.98 0,0 -39,-6.58 -39,-6.58 -5.08,-0.91 -16.95,-2.75 -20.99,-5.27 -3.71,-2.31 -6.32,-6.66 -8.89,-10.15 0,0 -15.27,-21 -15.27,-21 0,0 -21,-29 -21,-29 -6.45,-8.84 -11.09,-12.57 -10.84,-24 0,0 5.57,-38 5.57,-38 0.76,-4.94 1.99,-15.91 3.99,-20 2.64,-5.42 9.51,-9 14.43,-12.34 0,0 29,-20.38 29,-20.38 0,0 86,-59.95 86,-59.95 8.8,-5.94 30.83998,-22.64 39.00008,-25.69 0,0 4.0001,-0.6 4.0001,-0.6 z m 1973,259.31 c 0,0 36,27.77 36,27.77 4.97,3.82 24.48,18.25 26.99,22.05 6.06,9.15 -1.87,21.97 -9.99,26.82 -7.2,4.31 -15.88,0.9 -22,-3.66 0,0 -39,-29.96 -39,-29.96 0,0 -35,-26.95 -35,-26.95 -3.86,-3.01 -15.18,-11.35 -17.7,-14.46 -2.56,-3.15 -3.97,-8.98 -5.3,-12.96 0,0 -7.72,-24 -7.72,-24 0,0 -23.28,-72 -23.28,-72 -2.77,-8.38 -10.88,-29.34 -7.78,-37 0.91,-2.25 2.79,-5.09 4.3,-7 8.77,-11.19 13.95,-9.36 26.48,-8.08 0,0 9,0 9,0 0,0 25,1.99 25,1.99 0,0 59,4 59,4 0,0 28,1.92 28,1.92 4.25,0.41 9.1,-0.41 13,1.26 3.82,1.63 16.04,11.4 20,14.49 0,0 37,28.55 37,28.55 0,0 36,27.87 36,27.87 6.07,4.85 11.5,9.41 9.61,18 -0.72,3.29 -2.81,6.36 -4.85,8.99 -5.85,7.54 -13.35,11.92 -22.76,7.33 0,0 -27,-20.19 -27,-20.19 0,0 -56,-43.13 -56,-43.13 0,0 -53,67 -53,67 0,0 -20,26 -20,26 6.09,3.22 15.21,10.89 21,15.35 z m -45,-127.63 c 0,0 -27,-2.72 -27,-2.72 0,0 19.42,54 19.42,54 0,0 12.58,36 12.58,36 6.4,-4.8 18.88,-21.85 24.6,-29 0,0 40.4,-51 40.4,-51 0,0 -70,-7.28 -70,-7.28 z m -1737,310.28 c -0.02,14.58 -5.2,15.98 -14.99,26 -5.92,6.07 -12.12,15.05 -20.01,18.47 -4.96,2.15 -12.51,1.52 -18,1.53 0,0 -16,1 -16,1 0,0 -25,0 -25,0 -11.29,-0.02 -12.66,-3.93 -21,-11.28 0,0 -10,-9.55 -10,-9.55 0,0 -24,-22.16 -24,-22.16 0,0 -41,-37.97 -41,-37.97 -7.4501,-7.12 -13.5602,-9.49 -12.9602,-21.04 0.41,-7.85 5.7601,-11.78 10.9602,-17 0,0 16,-17 16,-17 0,0 77,-80 77,-80 0,0 13.04,-14 13.04,-14 0,0 21.92,-22 21.92,-22 0,0 13.04,-14 13.04,-14 5.41,-5.41 14.25,-16.17 22,-16.89 8.8,-0.82 14.2,5.33 20,10.85 0,0 28,26 28,26 0,0 30,27.87 30,27.87 5.11,4.63 13.07,10.77 15.78,17.17 2.3,5.45 3.14,27.16 3.22,34 0,0 0.96,10 0.96,10 0,0 0,12 0,12 0.02,12.63 -4.6,13.12 -12.87,22 -5.36,5.75 -13.46,15.86 -20.09,19.64 -6.08,3.46 -28.41,5.35 -36,5.36 0,0 0,51 0,51 z m -33,-182 c 0,0 -32,33 -32,33 -2.82,2.82 -13.82,13.37 -13.8,17 0.01,2.67 3.97,6.2 5.8,7.96 0,0 18,16.62 18,16.62 0,0 18,16.51 18,16.51 7.6,7.08 7.3,9.89 18,9.91 5.46,0.01 21.61,0.32 26,-1.1 4.55,-1.49 7.78,-6.49 11.04,-9.9 3.93,-4.11 16.77,-15.68 18.36,-20 0.73,-1.98 0.64,-5.82 0.59,-8 0,0 -0.99,-17 -0.99,-17 0,-2.02 0.12,-5.11 -0.6,-6.96 -1.05,-2.73 -11.67,-12.4 -14.4,-14.87 0,0 -40,-37.17 -40,-37.17 -5.38,3.89 -9.33,9.31 -14,14 z m 1535.99,60 c 0,0 28.03,31 28.03,31 0,0 37.15,41 37.15,41 0,0 34.55,38 34.55,38 0,0 16.2,18 16.2,18 2.66,2.89 5.71,7.16 9.08,9.02 3.6,1.97 8.98,1.97 13,1.98 0,0 19,0.98 19,0.98 1.88,-0.08 3.26,-0.14 5,-1 2.4,-1.19 15.12,-12.47 18,-15.03 0,0 36,-31.23 36,-31.23 0,0 15,-13.19 15,-13.19 14.24,-10.93 27.06,-3.06 25.8,9.47 -0.69,6.93 -4.96,10.6 -9.8,14.95 0,0 -22,19.2 -22,19.2 0,0 -39,34 -39,34 -3.99,3.52 -13.21,11.93 -18,13.34 -2.04,0.6 -4.86,0.51 -7,0.51 0,0 -39,-2 -39,-2 -3.59,-0.05 -19.35,-1.23 -22,-2.43 -3.9,-1.77 -8.04,-6.46 -11.02,-9.58 0,0 -19,-20.99 -19,-20.99 0,0 -72.96,-81 -72.96,-81 0,0 -23.19,-26 -23.19,-26 -6.08,-6.76 -11.34,-10.17 -10.79,-20 0.54,-9.57 9.81,-15.4 17.96,-18.35 9,-1.42 13.14,3.37 18.99,9.35 z m -1629,37 c 0,0 -35.99,38 -35.99,38 0,0 46,43 46,43 3.14,3.09 15.79,15.22 19,16.4 1.94,0.72 4.91,0.6 7,0.6 0,0 27,0 27,0 10.69,-0.02 9.47,-2.27 17.01,-10 2.77,-2.83 9.37,-8.88 10.97,-12 1.7,-3.32 2.01,-11.17 2.17,-15 0,0 0,-15 0,-15 0.1,-2.41 0.97,-5.72 0,-7.96 -0.73,-2.77 -4.04,-5.15 -6.15,-7.13 0,0 -13,-12.08 -13,-12.08 0,0 -22,-20.74 -22,-20.74 0,0 -26,-24.09 -26,-24.09 0,0 -26.01,26 -26.01,26 z m 1532.21,90 c 0,0 -20.88,-34 -20.88,-34 -3.61,-5.73 -8.88,-12.91 -8.12,-20 1.23,-11.42 22.03,-22.02 31.59,-14.35 3.12,2.5 8.65,12.47 11.02,16.35 0,0 19.87,32 19.87,32 0,0 74,120 74,120 0,0 15.37,25 15.37,25 3.03,4.85 7.19,11.02 6.73,17 -0.57,7.29 -6.71,11.97 -12.78,15.01 -16.13,8.06 -20.91,-1.94 -28.42,-14.01 0,0 -21.63,-35 -21.63,-35 -1.95,-3.11 -8.13,-13.58 -10.33,-15.44 -2.88,-2.43 -10.74,-3.55 -14.62,-4.44 0,0 -33,-7.33 -33,-7.33 0,0 -68,-15.37 -68,-15.37 0,0 -46,-10.42 -46,-10.42 0,0 44.05,71 44.05,71 0,0 28.35,46 28.35,46 0,0 18.41,30 18.41,30 2.89,4.72 7.3,10.67 8.5,16 2.71,12 -10.68,21.42 -21.31,21.96 -11.26,0.57 -13.43,-6.39 -18.6,-14.96 0,0 -13.72,-22 -13.72,-22 0,0 -75.26,-122 -75.26,-122 0,0 -25.22,-41 -25.22,-41 -4.09,-6.8 -6.77,-14.08 -0.86,-20.91 2.12,-2.45 4.84,-4.23 7.66,-5.78 10.31,-5.66 16.41,-3.09 27,-0.73 0,0 19,4.3 19,4.3 0,0 74,16.77 74,16.77 0,0 63,14.35 63,14.35 0,0 -29.8,-48 -29.8,-48 z m -1075.2,19.75 c 0,0 21,10 21,10 0,0 30,14.94 30,14.94 5.08,2.33 14.89,6.23 18.78,9.84 3.44,3.19 6.18,11.88 8.02,16.47 4.4,10.97 15.78,34.11 15.11,45 -0.66,10.68 -11.55,28.11 -16.65,38 0,0 -38.01,76 -38.01,76 0,0 -12,23 -12,23 -2.72,5.44 -5.31,11.62 -10.29,15.37 -5.77,4.34 -15.02,6.13 -21.96,8.05 0,0 -37,9.9 -37,9.9 -6.43,1.15 -11.43,-2.31 -17,-5.07 0,0 -23,-11 -23,-11 0,0 -33,-16 -33,-16 -3.73,-1.87 -14.14,-6.76 -16.78,-9.04 -3.55,-3.05 -6.2,-11.67 -8.02,-16.21 0,0 -10,-25 -10,-25 -2.46,-6.16 -5.42,-13.2 -4.88,-20 0.96,-12 14.61,-35.8 20.82,-47 0,0 6.97,-14 6.97,-14 0,0 27.58,-54 27.58,-54 5.07,-9.37 13.91,-31.6 21.33,-37.47 6.05,-4.8 14.59,-6.46 21.98,-8.41 0,0 35,-9.61 35,-9.61 9.61,-1.5 13.74,2.11 22,6.24 z m -39,30.25 c -2.61,0.86 -7.64,2.1 -9.61,3.72 -2.26,1.86 -4.29,6.58 -5.64,9.28 0,0 -8.61,17 -8.61,17 0,0 -36.39,72 -36.39,72 0,0 -15,30 -15,30 -1.51,3.02 -5.76,10.04 -5.73,13 0.02,2.42 2.95,9.38 3.93,12 1.43,3.83 5.6,16.12 7.75,18.61 2.1,2.45 8.22,5.1 11.3,6.64 0,0 24,12 24,12 0,0 17,8.01 17,8.01 3.2,1.54 6.33,3.5 10,3.46 3.61,-0.03 18.46,-4.97 23,-6.3 3.1,-0.9 7.18,-1.72 9.61,-3.93 2.65,-2.4 8.19,-14.58 10.14,-18.49 0,0 20.5,-41 20.5,-41 0,0 25.17,-50 25.17,-50 0,0 10.33,-20 10.33,-20 1.23,-2.46 4.02,-7.47 4.24,-10 0.22,-2.53 -1.5,-6.56 -2.41,-9 -1.48,-3.91 -7.55,-21.26 -9.39,-23.37 -1.75,-2 -7.6,-4.58 -10.19,-5.88 0,0 -23,-11 -23,-11 -6.6,-3.27 -22.72,-12.49 -29,-13.22 0,0 -22,6.47 -22,6.47 z m 796,61.66 c -14.64,-1.5 -15.24,-16.07 -9.58,-22.45 3.46,-3.91 15.32,-7.94 20.58,-10.01 0,0 50,-19.4 50,-19.4 5.57,-2.19 19.5,-8.14 25,-7.43 13.17,1.68 12.7,17.06 8.35,22.42 -3.99,4.93 -21.75,10.59 -28.35,13.21 0,0 15.8,39 15.8,39 0,0 38.6,95 38.6,95 0,0 12.45,31 12.45,31 0,0 9.15,25 9.15,25 8.54,-2.96 24.55,-11.3 33,-9.77 11.34,2.04 12.73,17.28 4.79,23.98 -4.36,3.68 -24.4,11.11 -30.79,13.47 0,0 -49,19.27 -49,19.27 -4.16,1.51 -9.58,3.42 -14,2.51 -9.61,-1.99 -14.53,-12.98 -8.99,-21.36 2.37,-3.59 6.2,-4.78 9.99,-6.3 0,0 20,-7.8 20,-7.8 0,0 -13.42,-32 -13.42,-32 0,0 -32.18,-79 -32.18,-79 0,0 -19.41,-48 -19.41,-48 0,0 -11.99,-31 -11.99,-31 -6.92,2.77 -23.29,10.35 -30,9.66 z m -131.58,183.34 c 0,0 10.23,47 10.23,47 1.36,6.03 6.72,28.3 5.78,33 -1.92,9.63 -12.06,11.9 -20.43,12 -3.65,0.04 -8.88,0.51 -11.94,-1.6 -4.31,-2.96 -5.05,-8.66 -6.06,-13.4 0,0 -6.6,-30 -6.6,-30 0,0 -22.82,-104 -22.82,-104 0,0 -10.57,-52 -10.57,-52 -0.3,-13.58 6.48,-19.5 14.14,-30 3.81,-5.22 18.11,-25.63 21.94,-28.28 3.34,-2.31 16.28,-4.58 20.91,-5.52 0,0 41,-8.78 41,-8.78 6.27,-1.37 29.04,-6.43 34,-6.03 8.79,0.71 13.24,8.29 11.77,16.61 -1.82,10.35 -14.49,11 -22.77,12.79 0,0 -45,9.61 -45,9.61 -4.13,0.83 -18.06,3.35 -20.82,5.33 -2.79,2.01 -5.56,7.26 -7.52,10.27 -2.25,3.44 -9.36,13.56 -9.98,17 -0.52,2.89 2.73,15.31 3.53,19 0,0 5.44,25 5.44,25 0,0 4.35,20 4.35,20 0,0 20,-4 20,-4 0,0 40,-8.21 40,-8.21 0,0 24,-4.75 24,-4.75 3.97,-0.16 7.49,0.07 10.66,2.76 6.12,5.21 6.69,18.27 -3.66,23.14 -6.02,2.84 -18.92,4.77 -26,6.27 0,0 -30,6.39 -30,6.39 0,0 -29,6.4 -29,6.4 0,0 5.42,24 5.42,24 z m -400.42,-64.88 c 0,0 40,10.8 40,10.8 11.35,5.5 10.33,21.73 -2,25.29 -6.6,1.91 -16.47,-1.29 -23,-3.06 0,0 -43,-11.28 -43,-11.28 0,0 -15,-3.99 -15,-3.99 -1.84,-0.47 -4.91,-1.39 -6.7,-0.56 -2.28,1.05 -2.86,4.49 -3.43,6.68 0,0 -4.87,18 -4.87,18 0,0 -15.14,55 -15.14,55 -1.62,5.71 -4.27,18.65 -8.25,22.44 -6.54,6.23 -20.57,2.65 -27.57,-1.26 -8.09,-4.53 -6.1,-12.79 -4.16,-20.18 0,0 13.49,-50 13.49,-50 0,0 25.75,-95 25.75,-95 0,0 7.59,-28 7.59,-28 1.59,-5.59 2.95,-11.36 6.68,-15.98 4.63,-5.75 13.04,-8.96 19.61,-12.27 10.15,-5.11 23.38,-13.28 34,-16.66 7.81,-2.48 17.16,1.57 25,3.54 0,0 49,13 49,13 5.72,1.44 20.75,4.67 24.79,8.02 6.03,4.99 5.61,17.15 -0.89,21.61 -2.85,1.96 -6.58,1.8 -9.9,1.73 -6.77,-0.16 -15.35,-3.04 -22,-4.84 0,0 -37,-9.52 -37,-9.52 0,0 -18,-4.64 -18,-4.64 -5.3,-0.63 -12.4,4.67 -17,7.29 -3.79,2.16 -11.86,6.34 -14.07,9.82 -1.5,2.37 -4.38,14.39 -5.35,17.9 0,0 -12.58,45 -12.58,45 0,0 44,11.12 44,11.12 z"
     id="blue"
     style="fill:#1c20aa;fill-opacity:1;stroke:none" />
  <path
     d="m 2034.083,1365.0425 c -71.2047,-51.4851 -110.2618,-149.9936 -77.0284,-234.0517 7.8513,-36.7692 36.1849,-49.512 63.3851,-66.9285 78.5643,-73.87954 216.3459,-62.8688 282.8625,21.5731 61.5439,69.5924 59.7402,183.0637 -3.4197,251.0913 -8.9493,17.9294 -73.6095,47.2136 -25.5584,41.6858 48.9005,0.9861 97.823,1.2204 146.7589,1 -2.1687,-16.7352 3.4178,-26.2986 18.8598,-23.2957 9.5891,5.5121 1.4661,26.9769 3.1402,38.7669 -3.7186,11.5956 8.1943,38.8227 -7.4137,38.5288 -7.9988,-6.8633 -17.5088,-12.2154 -15.5863,-29 -96.1641,-0.1222 -192.2874,-1.4699 -288.4658,-1.1644 -78.6652,-1.9729 -157.4658,0.1211 -236.1315,-1.8356 -27.4808,-4.0173 -45.2049,39.6617 -71.1122,4.9998 -36.0412,-18.8821 -10.1544,-60.6708 24.8732,-46.4048 18.9833,0.565 26.1856,26.8258 48.6637,18.405 50.7242,0 101.4484,0 152.1726,0 -3.5126,-6.3271 -10.4902,-9.1978 -16,-13.37 z m 48,-324.18 c -77.1598,28.4993 -125.5655,113.8027 -112.9693,194.4875 7.128,69.3161 64.527,124.1865 131.1318,138.0387 78.8915,18.2798 168.4235,-18.4727 205.3263,-92.3146 41.3555,-75.4441 20.4643,-184.5803 -58.3399,-226.8945 -48.8759,-29.5358 -112.1242,-33.9559 -165.1489,-13.3171 z m -602,180.55 c 3.198,-27.5333 -1.4113,-56.2695 2.9152,-83.0978 21.8837,-2.0812 8.613,40.104 17.924,55.3045 5.0318,27.445 16.6813,52.8041 28.1608,77.9933 -24.3599,12.7904 -27.2045,-51.1654 -35,-34.7863 -3.702,11.8864 8.1621,38.2665 -7.3949,39.1145 -14.1981,-0.1388 -3.0786,-27.4681 -6.6051,-39.068 0,-5.1534 0,-10.3068 0,-15.4602 z m 678.46,379 c 10.8955,11.635 32.4066,6.9766 47.506,19.3821 19.4578,8.2171 38.0394,19.3518 58.034,25.6679 74.9691,-66.8037 145.8712,-138.6952 221,-205.31 28.9573,2.2359 43.3261,-27.5232 64.1197,-42.8405 16.0798,-13.0678 29.1071,-31.3249 47.3836,-40.5876 12.799,9.3432 3.643,30.3963 6.4167,44.8142 0.5511,56.2782 -1.7915,112.4822 -0.7962,168.7652 27.3902,14.8136 56.2363,21.9083 83.8762,6.1087 15.3333,26.3333 30.6667,52.6667 46,79 -31.3626,-3.0584 -62.6984,-6.3685 -94,-10 0.2097,-14.5675 -14.8452,-14.0356 3.4612,-31.7475 -7.7161,-20.8801 -53.2126,-20.0824 -39.4612,12.9311 0,45.9388 0,91.8776 0,137.8164 -19.2855,4.2052 -27.7259,-2.4349 -23,-22.2411 -0.4036,-93.7488 0.9674,-187.4384 1.4932,-281.1562 -3.8414,-19.4108 9.198,-19.6855 8.2861,-36.4096 0.5014,-14.7198 0.084,-29.4637 0.2207,-44.1931 -90.7792,81.4264 -177.7419,167.5431 -267.1649,250.6746 -13.5205,12.8431 -44.7001,33.7439 -6.6287,39.9901 28.1723,6.1523 43.0095,34.8127 13.7936,49.3753 -22.439,19.9427 -43.5745,41.5667 -67,60.22 -27.0275,3.4764 -27.9877,-34.7017 -42.39,-49.92 -17.7918,8.536 -28.2146,29.898 -46.59,37.12 -24.2471,-19.4447 -28.3318,-55.1147 -47.23,-78.26 -15.7144,22.6294 -26.2467,-2.4574 -38.9757,-14.2402 -18.8161,-12.9846 1.6789,-22.7497 11.6964,-33.3729 17.4339,-16.5951 34.9792,-33.0724 52.4893,-49.5869 l 3.9025,3.9025 3.5575,4.0975 0,0 z m -327.77,-217.99 c -5.4664,39.0121 50.4436,-19.4945 5.5713,-5.93 l -3.1077,2.4353 -2.4636,3.4947 0,0 z m -189.69,181.77 c 52.9597,-25.059 106.0194,-49.9023 158.87,-75.19 3.3623,-29.2121 30.5319,-24.3672 52.1928,-26.2841 47.5053,-1.5399 43.2176,79.0665 -5.0628,71.6941 -23.9387,-11.1646 -40.0462,-26.5533 -64.8332,-6.0463 -60.4871,28.9614 -121.5321,56.8529 -181.5668,86.6963 -3.8675,24.2506 0.1686,49.6801 -2.6,74.35 27.9402,1.3394 69.0102,-12.6704 55.9425,-36 30.3661,0.1314 60.6744,-1.7072 91.0575,-1 -16.9296,25.6254 -34.6911,51.0977 -54,75 -12.813,-48.6693 -62.9201,-9.692 -92.8838,-7.82 -0.3424,64.9459 0.4299,129.9183 -1.1162,194.82 -27.8288,-6.9469 -21.6849,-33.899 -22,-55.1261 0,-26.6246 0,-53.2493 0,-79.8739 -28.076,-7.6784 -52.0309,-12.3977 -63,19 -20.6938,-23.5161 -33.7306,-52.4482 -50,-79 26.9647,2.1979 53.9083,4.97 81,4 32.9886,-2.3784 -15.371,32.6254 14.2949,29.2295 21.2606,8.8949 18.6269,-8.6131 17.7051,-24.2295 2.0433,-33.6164 0.5389,-67.3371 1,-101 -31.8499,11.057 -60.914,31.216 -93.1458,40.122 -15.7102,-12.6483 -14.8608,-35.3885 -13.5021,-57.0519 4.284,-14.1026 -6.6154,-36.4151 7.6479,-44.1401 25.5021,-14.1568 11.3979,23.7398 15,38.081 1.4545,12.6729 -6.6656,40.262 13.4808,23.8148 23.2496,-11.15 47.4127,-20.7851 69.4992,-34.0358 1.7584,-19.4026 2.1427,-39.1808 2.02,-58.79 37.5702,-22.1134 18.1328,24.6947 22,48 14,-6.4067 28,-12.8133 42,-19.22 z m 186.82,-75.78 c 2.9768,64.1283 71.593,-38.8095 3.2877,-4.5942 l -3.2877,4.5942 z m 860.46,121 c -22.1528,-9.819 -21.008,27.3885 7.72,17 l -2.8625,-8.8675 -4.8575,-8.1325 z m -542.28,27.63 c -37.9108,16.2125 -0.4643,29.8822 19.1105,38.1192 24.4491,15.3423 43.9531,17.4111 22.8452,-13.9137 -3.5197,-24.6782 -20.2742,-13.3134 -29.7719,-11.9416 -3.627,-4.3178 -6.3476,-10.4134 -12.1838,-12.2639 z m 119,104.79 c 15.8777,-15.2157 33.0167,-29.3012 47.9275,-45.3662 -8.4497,-12.5811 -29.6595,-16.0665 -43.562,-24.7169 -24.899,-10.6937 -48.6733,-25.2867 -74.3655,-33.3369 17.1856,38.7097 36.2204,76.5614 54,115 6.8948,-1.2855 11.0498,-7.2948 16,-11.58 z m -591,-74.42 c 3.2081,26.8771 25.6125,20.9616 23.5306,-0.905 -7.8435,0.3017 -15.6871,0.6033 -23.5306,0.905 z m 488.78,58 c 8.7116,25.5197 51.3141,-25.5703 12.1481,-23.9653 -41.7655,-23.1284 -25.2638,-5.0029 -12.1481,23.9653 z m -673.78,11 c 6.2266,19.2067 22.4507,34.2939 18.4003,5.6795 10.0009,-9.1779 -15.3433,-3.4142 -18.4003,-5.6795 z m 665,81.32 c -17.0721,18.4653 -44.6119,7.8589 -66.9535,10.68 -66.4785,-2.1874 -133.2002,-0.4247 -199.6365,-0.99 -17.0342,43.5427 -76.5751,24.4091 -82.95,-16.01 -5.7663,-40.1226 64.3202,-37.848 79.0836,-11.8608 40.3581,4.232 81.8125,0.7012 122.6045,1.8608 45.7779,1.8304 91.6633,0.7724 137.4907,0.9012 18.6249,-12.8477 41.6825,3.0174 10.3612,15.4188 z m -323.21,-14.28 c -25.3175,44.0075 63.9289,16.1798 24.8263,-8.2937 -8.7528,-1.5786 -19.3752,0.7052 -24.8263,8.2937 z m 262.33,54.96 c 12.3728,12.7865 -22.2327,38.2031 -24.24,10 -9.281,-15.2268 16.3825,-31.2952 24.24,-10 z m -86.63,80 c -21.2568,-22.0636 17.9556,-38.1429 25.3332,-10.4103 -3.3846,4.6664 -19.8304,27.8194 -25.3332,10.4103 z m -283.49,9 c 0.1543,15.0831 15.0455,15.4294 9,36.7124 0.045,15.2833 4.0879,38.3858 -14.0237,18.1594 -17.1713,-12.5574 -23.9354,-13.1034 -8.9363,-20.8143 4.124,-11.0952 -7.4454,-38.0477 10.8449,-34.0575 l 2.4713,0 0.6438,0 z m 243,45 c -21.7758,43.5439 -52.8038,-25.701 -13.6589,-17.7947 4.9495,5.615 9.4361,11.6205 13.6589,17.7947 z m -863,42 c 0.1074,15.3255 -5.2541,36.1199 17.2987,29 16.5233,-4.1134 31.516,19.9462 21.7588,26 -12.2286,-3.0478 -38.1511,8.7868 -34.0575,-12 -11.7192,3.1893 -2.2463,27.9904 -5.7751,39.5322 -0.7576,27.5522 -31.0244,-4.1836 -22.3433,-21.8576 0.5466,-18.2171 0.7165,-36.451 1.1184,-54.6746 14.0525,2.0404 3.458,-12.7408 22,-6 z m 761.74,20 c 17.768,-53.0073 49.4726,34.7804 8.3264,11.094 -2.7755,-3.698 -5.5509,-7.396 -8.3264,-11.094 z m -605.74,9 c 6.2735,7.7257 22.8942,14.2054 14.5288,25 -12.0882,-2.7507 -38.1787,7.9115 -36.4737,-11.4377 -29.4173,-15.7162 9.6596,-14.3686 21.9449,-13.5623 z m 1005.4,90.02 c 3.028,26.7123 -0.8118,54.6238 0.6,81.876 -0.5378,29.9245 1.1067,59.991 -0.8781,89.8213 -16.4767,27.1143 -27.3358,17.8605 -21.3511,-8.0494 0.5329,-15.8751 0.078,-31.7809 0.2292,-47.6679 16.6568,1.634 4.1193,-25.9264 8,-37.0685 0.7965,-26.6302 1.3097,-53.2688 1,-79.9315 l 6.4888,-0.052 5.9112,1.0725 z m 439.77,27.98 c 0.2132,24.4314 -2.8658,45.3827 -28.0225,19.2688 -27.8542,8.9826 -17.9415,51.4037 -10.0175,71.1449 -1.5213,23.6827 0,47.5522 17.8944,65.6283 10.8919,33.1912 -30.4478,-18.7976 -19.0244,19.7279 1.1497,87.7313 -2.0997,175.4082 -0.4351,263.0989 3.1993,17.4559 -2.4875,35.6616 -0.5649,55.3723 -2.6473,18.1505 7.8966,53.5002 -21.4137,47.7589 -28.5288,0 -57.0575,0 -85.5863,0 -2.4389,30.6559 -22.1778,59.3797 7.8688,76.8563 12.7666,13.9503 -35.6275,26.057 -51.1642,38.6219 -16.0762,11.7185 -25.0975,13.6364 -23.9991,-2.5604 -15.9832,8.2079 -1.6549,-24.0282 -4.1513,-33.8155 2.6353,-14.653 -1.2179,-42.7254 17.9231,-40.1559 28.0892,14.4472 44.3053,-56.6652 4.8103,-39.9464 -41.9916,-0.7523 -84.3223,1.4944 -126.1053,-1.1035 -12.6175,-9.2186 -33.2379,5.7074 -40.6273,-7.8391 -12.7442,-19.5546 3.1014,-18.4042 19.1574,-17.0574 89.7927,-0.5748 179.4888,1.7548 269.2876,1 -2.1341,-14.1454 1.7938,-52.3809 -21.88,-32.6512 -18.3587,18.4387 -13.8919,0.3012 -18.4644,-5.5673 -14.0315,4.2131 -4.0029,-25.661 -7.8007,-36.2485 0.7515,-12.9454 -6.3519,-35.59 6.1451,-38.0042 6.4614,-2.0202 25.5413,6.2385 34.9014,12.2192 18.2551,16.1501 20.6062,5.0131 18.0986,-14.4604 1.3021,-77.0639 0.9379,-154.1747 2,-231.2411 -0.8145,-27.4869 3.3139,-55.7033 -7,-82.0465 17.3428,-5.0775 -19.7158,-5.703 -27.2987,-5 -15.9112,0.2476 -31.807,-0.3332 -47.7013,-1 21.3915,-20.682 52.1468,-10.5882 78.69,-13.02 1.7422,-30.8767 15.932,-56.7035 44.8265,-69.5052 11.0095,-4.6156 25.4134,-24.9273 19.6535,0.5252 z m -422.17,77 c 3.0659,-15.423 -7.217,-40.7979 7.585,-48.0637 16.7014,0.2182 -3.1346,36.738 11.3575,39.0637 17.0191,0 34.0383,0 51.0575,0 -10.1876,23.6115 -42.0368,8.2279 -56.0635,16.4704 -2.8282,11.7733 6.4454,37.4574 -12.3821,35.3905 0.9434,-14.9262 -16.3916,-11.9922 -9.5544,-31.8609 5.7056,1.1513 10.9907,-5.2214 8,-11 z m 261,60.24 c 12.8526,-8.4151 -10.5993,-65.5167 17.2909,-45.598 -5.9808,30.1069 21.3846,42.9937 44.1815,29.569 2.6258,28.7049 2.133,60.8156 4.5276,90.789 -26.8868,-16.3129 -53.3832,-33.2533 -80,-50 -10.6488,-20.7558 -7.5671,-11.6991 14,-24.76 z m -982,-9.82 c 23.0595,14.2714 44.2673,-37.761 73,-17.42 -21.784,11.9337 -69.943,28.6745 -40.4141,56.0492 -11.816,17.5561 -31.6953,-28.4823 -43.8871,8.6208 -74.5194,85.754 -63.8969,234.4044 31.8763,300.3726 95.6496,73.9915 246.6696,59.1677 323.9812,-34.6206 36.3159,-41.6735 55.4107,-97.2839 52.6537,-152.422 16.2065,-38.3862 21.2906,-14.2137 21.9782,10.3429 7.1744,91.2211 -48.9204,179.739 -128.8982,221.2871 1.9189,7.5543 29.8211,1.3503 42.1922,3.37 59.7978,-0.2051 119.5225,1.7191 179.3378,1.0262 15.3954,14.6597 33.3895,37.5072 26.16,61.3738 -13.462,1.872 -21.8565,-12.3703 -21.98,-26.8137 2.9785,-18.5301 -25.2226,-5.8806 -37.0685,-9.5863 -84.451,-0.8232 -168.9199,-1.1433 -253.3965,-1.1761 -32.4143,-1.3672 -64.7849,0.4921 -97.2474,-0.8239 -94.5916,-0.185 -189.1449,-1.4718 -283.7547,-1.1422 -30.5619,-3.6941 -57.2619,50.8358 -86.6352,8.1284 -20.7873,-14.6815 -22.3719,-61.0654 10.9872,-54.0762 29.8209,-12.9992 45.7147,14.3239 66.5863,23.09 74.1763,0 148.3525,0 222.5288,0 -34.0117,-22.5341 -68.3807,-46.9937 -91.4307,-81.8187 -64.141,-77.8578 -66.2382,-198.4366 -3.3968,-277.6163 31.1478,-3.1387 33.7871,-22.4487 12.1255,-41.1047 -11.3828,-33.8622 17.02,-1.5175 24.702,4.9597 z m 1011,31.58 c -26.0095,-5.6259 25.7201,31.4508 12.2486,-2.2823 3.019,-12.4656 -9.6699,-0.8739 -12.2486,2.2823 z m 48.98,286.12 c 5.3022,-21.945 -29.9474,-19.8559 -16.98,7.88 l 8.6475,-3.34 8.3325,-4.54 z m 17.02,21.88 c -2.1626,13.9857 9.4104,-2.0177 0,0 z m -1309.66,56 c -0.3832,63.7482 72.4072,-36.3795 3.6047,-4.815 l -3.6047,4.815 0,0 z m 1189.66,82.36 c -17.9403,0.095 -7.5592,39.9187 11.41,11.03 4.9203,-5.8457 -8.5187,-7.4011 -11.41,-11.03 z"
     id="Selection"
     style="fill:#6870b0;fill-opacity:1;stroke:none" />
  <path
     d="m 747.06099,1221.6839 c 31.44281,-52.1823 69.14256,-100.1325 105.24,-149 -37.76784,-78.43694 42.8257,-79.64155 85.54079,-95.0066 277.01702,-289.59784 674.79632,-458.45308 1075.76572,-452.99344 463.4108,0.52894 915.5046,238.96046 1184.4906,615.02964 58.0702,82.317 111.0996,169.0727 150.3829,261.9704 54.1262,-27.4493 107.5922,-62.0557 168.99,-69.17 31.4652,33.1115 -10.9755,81.9223 -19.73,119.1388 -25.4451,49.3234 -48.8206,99.4949 -73.82,149.0312 23.4446,99.4491 44.3014,200.4307 50.71,302.9 91.1932,41.2489 189.5172,72.5407 281.9098,113.3383 49.0055,22.2088 100.8887,39.4719 147.7102,65.7817 -2.2184,52.0476 -82.0251,84.6852 -132.5899,68.9978 -99.4069,-14.9151 -198.7124,-30.5192 -298.1801,-45.0178 -30.6467,499.3954 -339.0392,967.6956 -781.3464,1199.8456 -448.1701,244.2085 -1023.746,228.1407 -1457.0497,-41.7992 -401.8813,-241.2942 -675.77201,-682.4515 -708.10659,-1150.6112 -10.72473,-139.4755 -1.02683,-280.4379 27.50268,-417.4352 -98.41365,-1.099 -197.69219,3.304 -295.54451,0.01 -71.75131,-30.9757 -149.26536,-51.7562 -215.289713,-93.3873 -42.5615905,-40.6925 29.294441,-49.2022 57.158013,-58.8804 66.62601,-20.0147 132.89224,-41.349 199.67621,-60.7373 -76.39133,-35.0847 -64.00071,-114.0457 -123.66,-160 -47.41471,-49.4621 -23.55365,-114.785 49.50125,-93.1825 72.28198,42.9229 137.98857,-10.8458 215.15875,-9.9875 45.12939,-2.9912 75.10738,7.2152 31.85,-43.89 -42.95781,-62.5149 26.16136,-114.2879 81.06,-68.35 64.31942,-46.8212 86.26577,49.0858 105.03266,91.297 21.15432,17.4877 44.71962,83.7311 64.47136,61.5058 7.72199,-13.1309 15.44399,-26.2619 23.16598,-39.3928 z m 2303.42001,407.04 c 84.1765,-78.1959 176.1381,-147.632 271.59,-211.22 -197.3389,-459.49249 -651.9274,-796.41183 -1149.228,-852.25113 -410.497,-51.14924 -839.8775,85.22519 -1144.2521,366.24086 -25.8053,31.66382 -124.5898,95.37327 -35.10991,70.22027 49.59341,19.0081 37.22671,78.9374 65.52271,112.7667 34.162,48.5215 69.8859,96.1418 100.1873,147.2033 -4.3297,60.8136 -57.9099,4.2621 -87.4629,-5.6318 -39.6614,-20.9994 -79.138,-42.5035 -118.24711,-64.3682 -16.13952,59.648 -43.00739,117.1871 -85,163 100.93787,-12.6104 202.10631,-23.7803 302.91001,-37.17 188.4937,-224.3047 467.9826,-371.07362 761.9452,-386.36186 316.1536,-20.57029 636.6093,109.66026 850.1448,343.53186 103.2929,110.7584 181.4229,244.078 231,387 12,-10.9867 24,-21.9733 36,-32.96 z m -1094,-1037.20004 c 39.4004,21.58943 65.3861,57.98724 59.4089,104.02124 0.2991,42.45219 13.0264,87.49818 0.9466,128.01579 -21.87,43.81193 -64.6723,53.0028 -108.8068,51.60235 -59.9736,11.82425 -105.4563,-50.63994 -96.2389,-106.80288 1.9092,-44.02702 -18.1055,-93.16958 5.0852,-132.55025 21.5998,-38.34132 61.0057,-44.59235 101.1935,-44.07828 12.7966,-0.52769 25.6704,-3.11836 38.4115,-0.20797 z m 186,4.74 c 54.0943,3.58753 116.5288,15.59201 129.82,77.42 -5.3284,50.22811 -37.2152,79.28063 2.9887,123.94 5.5353,60.46139 -59.2402,105.2195 -114.4656,85.98253 -31.7678,-8.39333 -71.3101,-1.19142 -97.0281,-22.91503 -6.9231,-47.46066 9.9047,-97.16266 12.6779,-145.54544 7.5856,-38.64953 4.282,-81.25331 21.3407,-116.58644 12.8666,-11.08273 30.2202,-3.2186 44.6664,-2.29562 z m -223,8.51 c -49.9018,-4.76848 -109.4672,24.66297 -99.8488,82.77924 3.4208,45.35398 4.2637,91.23611 10.7688,136.13076 29.7779,52.7023 87.2633,37.91611 136.04,33.53 47.3682,-25.39657 45.3326,-75.11095 39.13,-120.53 -6.9897,-41.3745 8.5245,-95.98198 -36.2273,-119.21413 -13.6878,-15.65219 -30.7199,-15.67823 -49.8627,-12.69587 z m 331.92,113.91 c 25.5269,-54.5854 -25.3189,-110.83188 -82.0668,-105.33553 -42.3521,-14.02599 -79.8345,-4.65932 -72.7704,47.34323 -6.3409,64.24963 -20.9437,128.89347 -21.3428,192.9723 41.0763,14.57767 89.1266,16.20309 133.26,21.51 54.2871,-19.62938 71.1513,-86.32722 27.356,-124.2483 -19.3922,-15.87291 10.7511,-17.66668 15.564,-32.2417 z m -599.55,160 c 28.2027,80.20931 -72.0048,57.83978 -63.926,-5.1109 -15.527,-63.81071 -38.4188,-126.42114 -48.8027,-191.0666 22.7815,-33.99122 74.1752,-30.99624 110.3587,-46.8225 50.3178,-20.46104 113.5568,26.0178 110.91,81 -5.6809,53.92428 -87.5116,82.30467 -10.8449,103.46593 80.6639,13.41458 39.6852,107.18443 -18.1943,56.43196 -32.242,-20.35154 -65.7353,-38.90458 -96.8708,-60.89789 5.79,21 11.58,42 17.37,63 z m 303.63,-237.25 c 21.9198,25.10953 9.8139,65.4086 16.3677,97.30042 -1.078,33.48325 18.9112,78.13646 -22.3777,95.87958 -46.0569,10.37543 -102.1815,-1.68901 -90.562,-61.37447 0.1751,-39.82999 -11.2953,-82.53579 -2.3342,-120.23019 16.2613,-27.63436 76.3007,-31.78875 98.9062,-11.57534 z m 228,-1.17 c 63.3043,-1.95376 46.356,111.05424 -13.3125,90.09625 -38.428,1.89439 -57.3664,-11.09919 -42.1287,-50.19965 -2.7595,-38.37809 10.3157,-55.64817 48.9431,-40.75175 l 4.8335,0.63609 1.6646,0.21906 0,0 z m -480,140.28 c 36.5974,-19.60417 53.1632,-72.4622 30.15,-110.54 -41.7453,-45.52577 -95.4291,-15.7275 -143.9891,-2.98202 -58.6329,0.0826 -27.2101,54.26919 -20.5249,86.89905 16.4206,55.0925 27.2889,113.12962 48.1615,165.96078 52.3334,1.68534 8.455,-64.08207 6.4992,-94.3757 -12.0631,-43.95029 -23.4136,-88.1018 -36.2967,-131.82211 39.5559,-7.27344 91.0363,-43.35995 119.2587,1.6775 39.6908,73.02198 -139.282,76.21157 -34.7884,129.64453 33.3215,17.30762 63.1081,45.47081 99.2549,54.40844 41.5131,-24.96651 -34.2036,-46.17043 -53.9322,-62.91406 -21.5445,-18.47685 -74.8996,-25.70432 -13.793,-35.95641 z m 204,-136.77 c -52.3978,-7.26421 -41.8054,48.42774 -38.4253,81.63775 7.0765,33.36322 -10.3053,87.67277 30.2913,98.86334 45.4901,8.45522 75.5832,-22.3379 60.7369,-67.92478 -5.3409,-35.6425 2.2038,-77.22943 -15.8704,-107.47131 -9.5246,-11.62745 -24.4381,-4.12674 -36.7325,-5.105 z m 267,74.04 c 68.1884,-3.96726 27.5476,-83.93654 -25.8347,-68.71338 -2.0147,14.39884 -28.0238,71.53736 8.1508,66.26153 5.8946,0.81728 11.7893,1.63457 17.6839,2.45185 z m 206,101.54 c -34.6296,-21.09062 -31.423,34.88273 -43.58,55.33 -21.6201,82.75259 -90.0391,2.09109 -49.0444,-44.95579 12.6265,-40.32203 22.583,-83.77226 64.0318,-103.99806 29.0386,-19.9308 53.7843,-47.82576 86.5926,-60.83615 48.3654,5.0719 39.8416,65.1727 54.918,99.50959 9.7993,34.51186 22.9626,69.98807 2.9903,103.80539 -17.241,32.92093 -13.7793,107.44355 -66.9083,89.69502 -35.1391,-22.73493 0.6726,-65.89067 5.3412,-96.91275 21.3664,-33.37948 -35.3679,-28.18274 -54.3412,-41.63725 l 0,0 z m 50,3.99 c 43.9318,2.53366 12.8694,44.44781 7.7591,69.78805 -32.7492,77.43831 37.7987,51.93786 38.5284,-7.88087 15.7212,-35.98298 22.3189,-73.14211 5.7992,-110.11954 -14.6036,-31.92471 -7.2874,-85.74168 -45.0867,-96.56764 -40.7403,29.0422 -85.6123,58.11633 -117.5825,95.7275 -10.818,36.63389 -25.2674,72.3104 -34.2175,109.3925 37.8309,45.33192 43.6145,-44.17572 57.5095,-70.12624 3.8521,-39.00522 47.5466,3.53039 70.6345,3.89291 5.552,1.96444 11.104,3.92889 16.656,5.89333 z m -796.99,-60.44 c 72.0647,12.96482 86.119,-101.62626 8.9613,-71.79432 -47.9842,0.43014 -33.0017,40.45729 -21.7057,72.82202 2.571,6.5957 2.6208,23.56798 12.7444,-1.0277 z m -193.43,164.78 c 35.3791,62.26303 93.9071,-42.09741 139.0437,-9.97 18.9633,46.55929 -47.4031,54.57765 -75.7886,74.89547 -40.2849,27.54917 -109.4648,0.42733 -121.6998,-46.33248 -17.3174,-41.71041 -43.5073,-80.63353 -53.8153,-124.59299 3.041,-58.86415 51.9151,-84.10076 99.0335,-104.94418 68.5553,-47.18772 71.7768,47.48475 6.5951,54.497 -48.5305,5.39137 -54.8597,64.23321 -22.6149,83.21401 30.6928,-30.24865 125.714,-43.34298 74.405,19.48942 -19.6387,18.61152 -78.2879,16.50022 -45.1587,53.74375 z m 1005.22,-186 c -0.7621,21.8258 31.8945,82.12067 -9.7756,56.85644 -32.129,-13.00531 -99.0823,-22.50349 -42.1692,-51.95234 20.8588,-14.79682 51.1467,-59.40752 50.8733,-9.43719 l 1.0715,4.53309 z m -1064.55,91 c -30.3768,-60.51641 56.111,-69.01909 89.8144,-97.24531 1.4506,-44.6134 -55.4124,8.18384 -78.8673,13.8491 -53.1797,18.0332 -59.07,86.71509 -28.2791,127.62958 19.3708,33.07129 27.3199,77.21529 57.082,100.45663 36.9682,23.14194 73.6011,9.099 107.3673,-12.30915 54.2854,-13.97816 45.5699,-64.57725 -8.7349,-23.2623 -36.1016,30.53333 -90.8317,26.49911 -100.2015,-28.33724 -14.3449,-38.13311 60.2797,-32.71509 70.4128,-65.34881 -22.2588,-37.56894 -77.6279,48.78919 -95.9264,12.26672 -4.2224,-9.23307 -8.4449,-18.46615 -12.6673,-27.69922 z m 1022.75,-77.42 c -40.4357,13.45473 65.2018,52.6293 33.0464,7.55255 -7.1429,-29.25824 0.3726,-42.37933 -33.0464,-7.55255 z m 200,32.27 c -63.1559,-44.81153 23.5345,-69.70258 54,-27.86 34.4359,20.89144 70.5301,39.32985 103.7,62.1 27.0703,84.71244 -65.8747,3.24452 -79.4413,27.3425 -33.7235,57.77209 -60.5023,120.76455 -98.5886,175.26254 -74.892,10.8717 -34.4272,-64.933 -12.3595,-98.15538 21.6398,-40.13878 43.2822,-80.27616 64.6894,-120.53966 -10.6667,-6.05 -21.3333,-12.1 -32,-18.15 z m 109,48.43 c 69.5816,39.79008 28.0527,-25.54475 -10.4229,-35.04181 -33.7206,-17.74415 -65.3195,-42.59983 -101.0013,-54.02944 -27.3508,40.0205 83.7501,37.8841 38.5068,79.51953 -29.7576,56.45185 -62.1546,111.72961 -89.7189,169.20921 25.3756,49.27525 48.2123,-23.60012 62.6274,-45.96782 23.2297,-43.70798 47.6538,-86.84031 70.0089,-130.96967 10,5.76 20,11.52 30,17.28 z m -531,-78.7 c 35.6193,-3.84014 58.2958,43.16406 39.0055,70.41355 -25.424,34.55376 -67.0311,13.7138 -102.0055,11.73645 -21.5022,-13.50521 2.245,-54.40745 -0.5308,-78.91303 -0.1564,-25.62502 46.1012,0.57295 63.5308,-3.23697 z m -12,75.69 c 84.7119,-1.8953 23.7034,-83.76797 -33.4866,-68.52963 -8.0199,7.49037 -25.0495,66.24385 0.9838,64.19362 10.8343,1.44534 21.6685,2.89067 32.5028,4.33601 z m 613.01,53.73 c 21.5209,-61.87586 80.5028,15.5593 111.8612,36.27375 17.9286,64.27477 -64.2493,8.15628 -74.3677,69.47557 -24.4104,34.48172 -50.2299,68.00482 -73.5035,103.25072 58.3161,57.2571 -38.0775,60.3561 -62.8858,14.9816 -65.8275,-32.2451 -17.4826,-74.6017 22.212,-65.1196 32.1064,-44.1307 64.106,-88.34362 95.6738,-132.86204 -10.2166,-4.5659 -18.6238,-14.58334 -18.99,-26 z m -1542.43,172.00004 c 48.4489,31.7081 40.8526,137.6831 -21.44,76 -23.5583,-41.5021 -69.7732,-75.9561 -63.7482,-127.7314 2.5138,-42.65667 -11.1561,-89.91651 6.9207,-128.46364 38.4043,-27.05661 83.2233,16.25127 123.6384,23.99375 52.3301,10.15028 70.1519,64.86774 100.7691,102.20129 46.4645,69.018 -55.4252,71.8882 -67.4158,10.0414 -13.5206,-39.75273 -41.1046,-21.55904 -63.6202,0.4922 -17.008,15.3812 -44.2225,18.6354 -15.104,43.4664 z m 1436.42,-0.57 c -35.4582,21.6189 48.6405,70.4729 72.575,74.32 -19.6305,-31.4025 -12.2193,-58.6422 19.211,-90.5601 26.0966,-35.4139 50.9238,-71.91769 77.7227,-106.71869 70.5694,39.43086 19.9917,-31.39493 -14.1198,-45.58627 -53.5643,-36.89731 -13.3582,15.07962 -23.8414,36.99501 -35.5154,49.70103 -72.4484,98.48005 -106.5475,149.12005 l -12.845,-9.715 -12.155,-7.855 0,0 z m -1339.72,-40.43 c 14.7416,53.0336 75.0434,23.623 31.285,-16.0301 -26.4422,-34.8783 -44.591,-81.5665 -92.8386,-88.82883 -33.3409,-8.69355 -66.3016,-33.55579 -100.1489,-27.98861 -19.1767,27.8894 -4.2875,67.29259 -7.3254,100.47098 -5.2457,39.38676 8.6556,74.06526 34.5391,103.37536 12.1553,46.5606 93.9854,74.56 45.4444,3.9994 -18.4659,-29.2406 -60.0605,-63.7364 -9.2356,-81.1282 22.8934,-8.3673 52.801,-59.75812 70.2615,-34.80117 9.3395,13.64372 18.679,27.28747 28.0185,40.93117 z m -124.28,-98.30004 c 14.089,13.00826 81.75,21.05447 55.3133,39.09372 -23.3059,17.58027 -46.5957,35.18228 -70.3133,52.20632 -2.1796,-33.34345 -4.1136,-66.70819 -7,-100.00004 7.3333,2.9 14.6667,5.8 22,8.7 z m 13,20.02 c -31.9415,-33.16312 -20.6771,55.92694 -8.1469,40.50072 20.8213,-18.33741 56.5806,-29.07676 8.1469,-40.50072 z m 1408,1023.56004 c -147.6534,-17.8469 -295.0566,-37.3706 -440.7072,-67.9216 -28.1023,-7.4123 -59.675,-6.9171 -85.5828,-19.4184 26.8614,-41.4509 72.7396,-86.1923 126.0205,-88.5628 218.8303,-14.9289 437.9402,-24.9895 657.2695,-18.3772 37.7778,-19.0961 68.691,-53.4606 98.62,-84.17 -119.331,-391.5677 -491.4788,-689.35227 -899.62,-721.00004 -323.8237,-30.92538 -659.0808,101.80684 -872,348.17004 129.7541,-14.3921 259.2701,-30.9327 389,-45.47 77.3756,38.026 144.0158,95.7206 215.8194,143.5931 38.4814,15.6276 44.695,48.4472 -4.1258,51.5987 -203.4321,63.4801 -407.8133,124.2216 -610.6936,189.2782 179.2116,110.0498 344.8417,240.0081 516.3089,361.4126 43.3291,30.7475 85.6066,63.1331 129.6911,92.7074 48.3861,13.2525 78.492,-75.998 110.5875,-8.5875 -35.9136,40.4348 19.6849,47.3173 46.121,71.1582 23.2631,18.9178 48.7144,35.7255 70.1015,56.6093 -59.535,16.3614 35.4874,46.2947 -12.7763,90.4902 -79.4919,107.0386 -153.7754,219.0386 -235.0437,324.1098 -65.4175,-27.2047 -137.526,-53.3759 -185.3838,-107.76 -18.8918,-45.4746 0.698,-96.6908 -0.5507,-144.8501 3.2204,-31.0393 3.9925,-62.2121 6.9445,-93.2899 -76.3236,-8.1854 -152.7291,-15.6675 -229,-24.3 -57.218,-30.9997 -121.0996,-56.3561 -168.4589,-100.7956 17.7816,-23.0682 60.8339,-10.2796 89.1476,-18.2446 21.8828,-5.2531 96.6499,-1.5362 74.9764,-14.6674 -96.8581,-43.1512 -192.7239,-88.5056 -289.6651,-131.4624 -59.4581,-0.9876 -120.2109,-1.9126 -176.00001,-25.53 -12.8641,357.473 178.09081,711.2212 479.74901,902.2026 313.0903,205.7627 738.5425,220.8345 1064.7642,35.9907 317.8454,-172.3702 532.4126,-519.2149 540.4868,-881.1933 -31.1005,-18.0406 -87.6115,-30.3528 -119.4103,-0.3667 -222.2733,128.9392 -432.7443,276.9185 -640.916,427.1967 -30.6867,36.2076 7.7492,80.9181 14.9658,120.2915 16.0202,46.9986 30.953,94.4 47.2005,141.2785 49.6425,-0.5715 93.5917,32.3437 138.7753,50.4933 -10.4283,49.3819 -78.1506,81.1832 -129.6596,78.6436 -46.2609,5.8402 -95.0973,2.2635 -139.4687,13.027 -32.0929,22.0152 -54.0272,-30.575 -95.6813,-19.6851 -28.2392,-1.5745 -86.9713,-5.1465 -38.0379,-36.8165 27.678,-20.3444 52.6364,-44.3763 19.524,-73.2862 -29.9112,-50.5656 -67.2942,-98.4726 -92.3418,-150.7761 34.7897,-51.5646 73.7839,-99.7875 124.5274,-136.4928 181.7954,-153.5616 359.7,-311.6532 535.3176,-472.2585 20.4857,-14.4606 -23.9747,-8.8323 -30.795,-12.9687 z m -1778.00001,-926.28 c 14.43002,112.6986 128.0566,162.1068 217.00001,209 24.7592,12.7754 96.2689,60.8763 67.0516,1.0441 -63.9321,-90.2146 -120.0091,-196.7412 -226.47788,-243.3634 -27.36638,-11.56536 -64.48074,-4.40798 -57.57373,33.3193 z m 2083.00001,-35.77 c 37.8842,-6.71316 64.0365,16.4475 87,43.77 35.7626,26.0054 37.9607,73.6508 27.2,113 -77.8336,38.1178 -22.4335,-98.2689 -94.7725,-99.255 -35.9065,-1.7012 -51.6456,42.5186 -77.9977,61.9438 -51.8322,25.8979 -34.9043,99.8963 20.4454,101.5012 69.4755,-14.9322 58.1147,77.8744 -7.1265,55.81 -45.0067,3.9884 -66.456,-45.6725 -97.1075,-71.0187 -10.3312,-37.7338 -12.2243,-86.3707 23.1083,-112.018 32.9852,-30.5247 59.0677,-70.3349 97.2505,-93.7333 7.3333,0 14.6667,0 22,0 z m -40.01,29.77 c -30.94,33.8743 -65.3535,65.2298 -93.6259,101.0278 -3.4512,34.5257 -5.1346,72.8838 27.6216,93.9304 20.9901,28.7125 49.6559,46.1592 86.016,39.0418 61.6263,-34.5074 -50.2804,-17.353 -61.852,-49.9386 -36.7787,-24.7163 -27.6033,-73.0339 5.9427,-95.6469 23.44,-24.6577 47.0857,-49.1212 70.9176,-73.3945 39.1575,-10.8891 78.6812,25.8621 82.5031,61.7183 -13.9509,48.5557 42.5212,58.2287 27.9202,2.8922 4.5961,-42.1245 -41.2091,-62.7527 -63.7033,-92.7667 -25.4174,-2.2484 -65.7933,-12.509 -81.74,13.1362 z m -2271.66001,225 c -11.26557,35.7232 45.25685,42.0754 65.67136,64.2054 24.34861,20.6343 85.92359,51.9244 43.32649,-0.069 -62.01366,-84.7985 -122.67379,-186.6617 -229.21687,-217.5316 -77.46455,7.029 -7.56768,135.3553 49.37669,138.252 12.1662,-0.442 58.52226,-117.3992 33.75858,-40.3098 -48.50731,56.8441 47.92222,99.6938 44.25,15.8313 32.37528,-23.2741 -12.47518,32.6081 -7.16625,39.6212 z m 227.8,-136 c -43.67478,57.4008 -84.93382,117.0905 -118.51,181 26.46227,91.6589 100.71521,-17.6873 126.76477,-58.3123 28.66397,-25.5754 54.14812,-160.5325 -8.25477,-122.6877 z m -89.13,246.25 c 47.40281,-2.9899 103.62839,-2.0774 125.19375,-54.367 18.30468,-39.3995 62.68568,-95.9702 42.80625,-135.543 -39.10563,-46.9464 -32.39065,30.1692 -53.3,54.7467 -13.2019,57.245 -104.17989,102.7633 -114.7,135.1633 l 0,0 z m -42,-14.94 c -79.58766,-48.0914 -156.44939,-112.4237 -251.56203,-122.9886 -39.0234,5.177 -164.3253,6.572 -148.98405,42.3473 42.08296,19.7196 96.07158,8.2514 136.42647,38.0399 71.3072,44.7829 156.68366,78.6915 205.07883,150.7008 -11.73671,44.0707 91.21467,85.1266 64.04078,93.2506 -69.93535,-28.4618 -66.42914,-118.921 -134.53453,-150.732 -53.44656,-32.607 -104.86917,-70.2011 -162.46547,-94.928 -31.79275,48.0583 -33.58231,86.701 23.55869,108.3225 62.73878,38.0974 123.94767,81.5863 191.97006,109.1125 27.02279,11.692 77.58055,32.4129 80.47125,55.565 -35.31713,-26.0495 -74.12532,-44.5768 -114.72868,-59.4735 -75.55473,-42.9114 -150.98945,-86.4976 -221.18132,-137.8765 -41.2287,-3.9467 -94.89036,-6.9109 -42.9063,34.5072 38.72058,45.8826 89.78278,80.8319 130.0763,123.7828 -49.30347,-1.7854 -97.84707,-51.8424 -141.47182,-77.609 -29.22735,-22.9486 -143.39872,-124.0413 -83.55068,-32.0672 68.16713,63.9569 157.24722,99.1332 235.76544,148.5751 69.95744,37.9432 137.44354,82.1986 208.99706,116.1111 75.50753,49.6441 148.34599,-42.1404 208.29045,-36.0078 78.57445,49.3774 158.59066,96.626 236.31956,147.2378 48.1699,59.0391 31.899,159.8123 32.6929,205.8981 154.7085,71.4798 310.9789,140.219 464.8458,213.1181 43.8351,33.2155 15.4631,92.8963 17.8468,139.2746 -1.7108,51.1725 -12.8921,102.8789 -6.9555,153.5292 19.9935,28.2473 95.346,103.0839 105.6653,34.4178 36.1062,-91.9186 74.792,-182.9682 109.2947,-275.4178 -61.672,-7.8342 -117.6273,-44.8314 -180,-52.23 -44.168,-22.3158 -91.6877,-48.2096 -125.9744,-83.5639 18.9662,-25.986 61.3294,-10.5344 91.2257,-15.2061 68.5581,-1.4325 137.1575,-1.8548 205.7487,-1.89 -91.3931,-75.3148 -192.1961,-140.3392 -287.1796,-211.7894 -124.5974,-88.7315 -246.3249,-183.7945 -379.3057,-258.9039 -33.9385,5.0494 -63.1652,-25.5524 -94.8872,-36.3029 -114.26328,-58.5389 -234.70556,-109.9628 -335.31626,-190.5075 -42.6606,-39.247 20.46699,-55.3369 -37.31125,-76.2963 z m -539,-109.02 c -55.8161,10.1454 6.3983,87.3775 29.71996,108.894 42.97799,63.0489 112.39157,7.5814 115.92598,-56.6035 -29.42796,-40.853 -95.20372,-60.3097 -145.64594,-52.2905 z m 1573.00001,133.43 c -51.1361,-33.1543 -97.3165,-76.3049 -154,-99.33 -44.1728,44.7439 60.2607,80.3195 100.172,97.6765 19.5324,7.061 80.5948,43.8244 64.8362,9.3476 -3.6694,-2.5647 -7.3388,-5.1294 -11.0082,-7.6941 z m -234,-89.57 c -252.6768,30.2903 -505.3973,60.4814 -758.00001,91.4 -26.58711,74.2058 111.23366,101.4937 158.87211,142.0458 83.7272,44.4714 168.0771,88.1207 254.1279,127.8442 52.0158,-5.3733 53.9046,-23.095 7.0113,-41.2134 -51.8036,-19.0169 -2.6931,-34.0814 26.717,-39.5213 181.1649,-52.3115 361.984,-105.8236 543.2717,-157.7053 -58.2629,-37.1487 -145.1711,-42.6217 -176.68,-112 12.6983,-34.5275 -37.4662,-7.1441 -55.32,-10.85 z m -1171.00001,3.85 c -34.72934,18.0441 112.18338,1.8526 41.04125,63 -31.6873,19.1375 -122.10392,11.6173 -38.9244,18.8123 66.70781,14.6639 101.52408,-111.1566 -2.11685,-81.8123 z m 864.00001,22 c 1.0404,3.3166 1.8452,-1.3738 0,0 z m 1838.51,600 c -42.1958,-60.041 13.9753,-136.0148 60.5036,-176.6511 76.1984,-73.3472 148.7891,-150.5122 226.9864,-221.7289 34.5964,-26.0292 90.0601,30.5688 114.0156,-4.9368 20.8028,-50.714 75.2044,-117.5521 51.9844,-164.2532 -152.862,46.4959 -282.1977,147.8733 -402.875,249.643 -65.1255,56.2836 -126.0629,117.7083 -189.125,175.927 44.0566,0.4683 88.0337,1.0036 132,1.72 26.2757,74.1027 -74.1077,138.7313 -134.5887,166.6921 -48.5388,21.2448 -99.2868,52.4693 -151.5043,58.0846 -16.1267,-32.3434 -86.4065,-35.089 -106.6887,2.2158 -189.8931,173.6057 -383.5216,343.1054 -579.8983,509.3275 14.597,42.9613 44.0111,85.2597 66.1408,127.3811 22.0189,36.6239 39.9471,75.965 63.7192,111.3089 41.8072,-3.5042 83.3089,-12.1221 124.82,-18.73 -24.1811,-80.2053 -56.7752,-158.5018 -76.0406,-239.7209 13.1416,-49.7803 70.7839,-66.8509 106.8152,-98.7551 209.2184,-150.8223 425.0771,-292.3416 648.6885,-420.8964 14.1105,-16.665 81.7976,-31.6237 45.0469,-56.6276 z m -2770.51001,-522.87 c -32.00167,23.501 69.34735,62.6513 87.33062,88.0023 33.63981,24.8723 107.05571,68.6389 40.80613,14.9449 -40.44339,-35.6014 -79.54985,-73.4762 -110.13675,-118.0772 -6,5.0433 -12,10.0867 -18,15.13 z m 1523.00001,22.14 c -42.9841,-29.849 -20.2811,10.7875 13,15.19 43.702,20.0787 -6.0211,-8.7043 -13,-15.19 z m 19,28.04 c -30.6183,-15.8909 -62.3632,-32.3412 -95.6821,-13.9715 -185.3873,54.3967 -371.0625,107.8213 -556.3179,162.6615 30.3409,15.1504 60.1347,52.0204 95.9908,31.9278 188.6475,-58.0453 377.2517,-116.2481 566.0092,-173.9278 l -4.3888,-4.0762 -5.6112,-2.6138 0,0 z m -1251.00001,200.27 c -87.89038,-49.2487 -174.4056,-101.3126 -263,-149.06 -90.34794,27.4804 -181.16,54.4105 -270.745004,83.8762 2.92101,39.3538 60.290334,45.3367 90.924934,61.6154 35.58348,16.167 71.9486,30.5822 111.69529,22.8784 116.00466,-2.1291 232.09636,-5.5571 348.12478,-7.85 l -7.75,-6.4125 -9.25,-5.0475 0,0 z m 2813.19001,19.42 c -38.9974,63.9777 -92.8441,116.4813 -147.19,167 67.744,21.7839 134.6872,45.9417 202,69 -6.3409,-85.7052 -20.5023,-170.7879 -42,-254 l -6.855,8.49 -5.955,9.51 0,0 z m -2764.19001,8.58 c -33.05767,-15.7726 -73.12513,-1.7517 -109.24724,-5.0925 -98.61281,2.0373 -197.15294,5.3232 -295.75276,6.5125 52.15855,33.9344 116.42879,13.6597 174.87868,19 86.68871,-1.6221 173.52395,0.062 260.12132,-3 -10,-5.8067 -20,-11.6133 -30,-17.42 z m 517.96001,328.9 c 40.2283,-49.9199 10.065,-127.5261 -17.3377,-176.7758 -77.3728,-47.8363 -153.97291,-97.5189 -232.62231,-142.9242 -34.11949,32.2799 -120.82456,57.1862 -133.8275,58.9075 54.53269,14.8537 99.55039,-52.5654 146.19995,-36.0902 70.32987,42.4717 141.50446,83.5821 211.40756,126.7327 31.9465,51.1672 34.7821,130.3816 26.18,170.15 z m 1926.04,68.52 c -19.8651,399.5786 -284.9033,772.2096 -653.8338,925.6742 -340.0456,148.0829 -755.0598,99.6213 -1051.5469,-123.4986 -279.6712,-203.3068 -451.79165,-547.7015 -438.81931,-893.9044 -41.52829,-41.2434 -107.21632,-75.1189 -132.48375,-137.0087 -32.67672,-35.5402 -35.7427,-97.1583 -81.53094,-118.9928 -35.06363,-29.3112 -81.71004,-21.9161 -124.06531,-19.6497 -95.45014,420.7479 16.00086,881.007 289.73,1214.38 277.36801,346.3878 720.48801,552.8857 1164.30041,537 448.7481,-8.592 882.9926,-245.0664 1140.3783,-611.5832 153.1134,-214.6254 246.4947,-472.0271 262.8713,-735.4168 -124.8335,-21.7358 -249.1677,-46.2852 -374,-68 -0.3333,10.3333 -0.6667,20.6667 -1,31 z m -145,-142.69 c 54.9086,-25.9658 120.4398,-73.9878 122.44,-139.3 -204.7763,-3.7721 -409.7094,-8.8356 -614.3152,4.03 -66.2896,3.6254 -132.8457,6.2151 -198.9048,12.39 -11.2629,39.8132 -151.8068,90.9047 -49.5925,69.2575 41.0222,-11.3874 85.3959,8.0598 127.7715,10.3413 42.3108,8.6627 89.6208,8.4253 128.551,24.0012 -58.2931,28.3318 15.1555,22.496 43.2213,29.4029 93.1822,13.3135 187.3286,21.9726 279.8287,38.5571 36.1968,30.6096 116.3395,-34.333 161,-48.68 z m -715,-120.92 c -44.6347,14.3049 -110.7344,91.6689 -29.7688,36.325 7.414,0.4965 64.7178,-51.4174 29.7688,-36.325 z m 1597,344.66 c 24.4325,-4.6751 121.6876,-40.7436 71.5213,-65.5558 -212.2267,-90.9652 -427.1497,-176.7846 -647.5213,-246.0042 -79.2043,57.9711 -162.8548,109.6896 -246,161.83 -17.7972,18.4151 50.7624,14.2789 69.9244,23.2059 122.3368,22.7216 244.7984,44.7709 367.0756,67.8141 32.4835,-11.7831 64.9202,-22.3531 99.4043,-10.4153 90.5867,17.7344 183.4973,28.7482 272.5194,51.3208 -22.5363,23.2039 -7.3575,10.7814 13.0763,17.8045 z m -1435,-247.13 c -59.5895,-7.2641 -119.2609,-21.7143 -178.782,-23.6469 -2.1465,15.9847 60.6752,15.78 87.3221,24.4463 41.0366,3.6249 83.7038,24.775 123.6611,14.7006 36.3448,-13.2034 -25.0094,-11.0971 -32.2012,-15.5 z m 1372,228.5 c -89.6666,-15.6694 -179.1024,-32.7745 -269,-47.05 -48.7317,11.887 6.9697,16.0279 29.103,19.5382 87.088,11.5445 174.5331,30.4608 261.4639,36.7584 15.714,-7.9259 -18.9355,-6.536 -21.5669,-9.2466 z m -1830.3,-9.69 c -92.5491,-6.433 -2.0317,19.8881 0,0 z m 1287.3,20.39 c 51.0153,13.8696 107.1374,16.7781 153.5423,40.7889 42.9501,39.9788 28.9133,92.6994 15.3665,141.6453 -3.5805,38.8096 -20.9101,87.2995 -70.436,61.3715 -71.5605,-17.7923 -146.3114,-27.0419 -215.4894,-51.2766 -14.8445,-48.6811 15.6332,-103.4435 23.4266,-153.6491 25.8362,-20.8379 56.8194,-55.0873 93.59,-38.88 z m -2347.00001,14.55 c 54.11732,20.5695 48.04156,86.5853 57.47,133.33 -9.76975,45.3644 -90.26721,100.3068 -79.24313,17.3731 41.49986,-26.1633 21.6981,-116.3231 -32.372,-99.2753 -40.2267,11.2792 -87.79371,10.2392 -122.17487,31.9022 -39.49323,54.0564 42.13506,82.2465 48.51141,124.0819 -36.6849,54.0532 -112.29306,-25.0015 -107.48474,-77.4652 -18.77723,-41.4152 6.13951,-80.0197 34.29333,-109.6467 57.13896,-14.3406 116.02326,-28.0086 174.39797,-34.9728 10.10169,2.3581 18.17973,9.1007 26.60203,14.6728 z m 1201.00001,65.65 c -41.6721,-24.4391 -82.4945,-53.733 -122.0406,-78.9726 -52.9966,-6.405 17.8697,32.0472 33.0756,46.8088 36.494,25.4603 -34.5017,18.7786 -52.7511,23.3814 -59.1321,5.348 -118.3539,10.2657 -177.2839,17.4624 42.3053,13.1449 83.9795,33.2586 126.8047,41.8136 68.2736,-12.8446 136.1812,-27.646 204.1953,-41.8136 -4,-2.8933 -8,-5.7867 -12,-8.68 z m -140,-59.93 c -30.9529,-32.4842 -79.3644,-11.3411 -119.1204,-15.7462 -71.6651,1.452 -143.2758,3.1319 -214.8796,5.3562 48.2229,37.1923 103.38,84.5275 168.276,66.9631 70.5412,-7.1777 141.5222,-11.6693 211.724,-20.9631 -15.3333,-11.87 -30.6667,-23.74 -46,-35.61 z m 1218,14.03 c -29.7249,25.7231 -24.0769,73.0495 -36.8227,108.8574 -23.0628,43.6144 25.8572,50.4191 58.586,55.5612 60.4698,12.1038 120.4313,28.4745 181.2367,37.7714 23.0579,-27.7816 20.4272,-71.7925 32.13,-106.61 16.5768,-54.5947 -34.3286,-99.8852 -86.9454,-98.8479 -39.0614,-4.8543 -79.0532,-25.6304 -117.5255,-17.7991 -10.8135,6.1348 -20.5854,13.8389 -30.6591,21.067 z m -2347.00001,-15.22 c -42.2183,9.5507 -85.46932,15.667 -126.96,27.65 -30.18358,30.181 -41.36474,68.6003 -24.63121,108.5086 -14.08615,44.2009 95.22934,107.8476 70.06878,43.8147 -47.72809,-17.2714 -66.9764,-83.645 -29.26757,-120.3233 48.96654,-11.2736 98.35901,-21.3225 147.79,-30.35 39.92866,14.5842 61.93768,77.3505 30.09433,109.5878 -36.24902,73.0093 57.67969,13.6819 44.10567,-29.0878 -10.13299,-38.0913 -7.58891,-86.2661 -50.2,-103 -18.08305,-20.3235 -39.35824,-10.8703 -61,-6.8 z m 722.00001,16.94 c -24.7615,-16.0831 -51.5231,-19.8505 -80,-13.31 -35.6685,3.0357 -71.3459,5.9679 -107,9.17 40.8505,31.1035 90.0304,48.7695 141.7156,43.96 46.3944,1.096 92.9952,4.3871 139.2844,3.04 -31.3333,-14.2867 -62.6667,-28.5733 -94,-42.86 z m 148.07,83.86 c -18.171,-45.6168 -74.8947,-25.5326 -113.1864,-31.8321 -52.7445,-3.9383 -107.7672,2.4807 -158.6999,-10.2816 -36.3936,-11.9498 -66.0137,-49.8779 -106.1837,-41.8863 48.0293,32.4514 100.0812,61.5404 152.843,84.9192 75.3238,8.2568 150.7054,16.0697 226.157,23.0808 l 0.7125,-11.6812 -1.6425,-12.3188 z m 1479.05,-32 c 3.2826,-51.8588 57.7754,-43.9814 93.1745,-32.3254 32.8176,7.3569 65.8622,13.7354 98.5255,21.7554 35.6622,33.9294 2.8133,81.926 -0.82,122.57 -68.6599,-15.031 -137.316,-30.0794 -206,-45 5.04,-22.3333 10.08,-44.6667 15.12,-67 z m 192.76,43 c 17.357,-52.4223 -48.0458,-47.4595 -80.2252,-57.6808 -34.0586,-3.7758 -91.9825,-36.4905 -99.6548,17.6808 -6.7281,29.2704 -24.6403,65.6629 21.3184,61.3827 48.8343,10.8151 97.7188,21.3987 146.6816,31.6173 3.96,-17.6667 7.92,-35.3333 11.88,-53 z m -1516.88,350.77 c 36.4681,18.1535 48.431,-41.5654 71.9113,-62.3417 62.6246,-88.6846 127.8831,-175.9907 188.5779,-265.7172 7.1049,-58.0497 -63.6969,-47.029 -100.1112,-35.0963 -31.1926,10.7007 -73.4887,6.0223 -95.578,29.3852 -40.9264,102.0026 -81.8663,204.0002 -122.8,306 19.3333,9.2567 38.6667,18.5133 58,27.77 z m -877.00001,-257.13 c 43.79103,47.1399 -28.71194,64.9534 -61.8298,80.0133 -37.96433,19.924 -84.94179,29.5347 -116.24395,57.1155 -16.88145,42.7131 42.61019,80.9676 27.75375,124.2146 -46.62996,37.3328 -59.2253,-43.1936 -76.95595,-72.6708 -31.19743,-48.6849 4.29559,-118.5418 59.1238,-130.2043 52.68826,-19.9316 103.12233,-50.5986 157.5909,-62.707 l 10.56125,4.2387 z m -65,28.08 c -46.87991,22.7762 -99.30649,37.6763 -142.13,66.29 -19.28622,34.6275 -24.71112,71.7409 -0.74519,105.6734 3.73694,25.9855 49.30473,92.471 43.61003,32.3505 -12.72304,-36.0258 -46.73554,-72.2817 -22.18484,-109.9839 58.50533,-31.5385 123.07232,-53.2444 182.95375,-82.9187 18.96188,-51.4001 -41.46727,-22.3724 -61.50375,-11.4113 z m 2243.00001,68.59 c -53.5371,-5.0084 -106.4274,-91.9547 -22,-79.31 70.4323,34.7905 142.7081,66.2067 211.96,103.1 25.3285,93.9125 -75.1295,19.0378 -114.5508,28.2008 -35.1398,12.5569 -70.2727,25.133 -105.4092,37.6992 50.9648,25.8854 105.0243,46.911 153.37,77 18.2451,74.4787 -61.947,41.1423 -96.5575,18.9856 -53.5493,-27.5428 -110.6658,-49.1087 -161.8888,-80.4843 -19.6749,-58.2398 62.7052,-59.2584 99.8206,-78.3423 10.6725,-8.0585 78.5078,-17.0337 35.2557,-26.849 z m -16,70.74 c 37.4356,-12.6073 74.0708,-27.7772 112,-38.76 26.0455,25.6551 125.1293,42.6687 67.6151,-7.6808 -67.8679,-32.0469 -134.9873,-65.8585 -203.6151,-96.1892 -47.9736,29.881 24.9194,47.7878 48.8077,61.5428 41.3541,13.5721 47.4766,25.5302 1.1923,35.0872 -44.1184,18.2341 -93.7674,27.4077 -133.4958,52.8809 -6.133,36.3466 49.272,38.5267 73.4608,56.8794 48.9696,23.0705 97.2615,47.7559 147.035,68.9997 48.7515,-30.4383 -27.5322,-48.6795 -52,-63.55 -36.5206,-17.0267 -72.7234,-34.7226 -109,-52.26 16,-5.65 32,-11.3 48,-16.95 z m -1030,-8.05 c -12.9078,27.9511 -62.6102,55.1846 -36.2678,86.2277 33.6905,51.7007 65.1045,104.9842 100.4478,155.5423 21.9825,-14.7559 88.5726,-0.9155 50.6636,-40.3675 -38.0818,-66.8471 -74.3181,-137.8751 -114.8436,-201.4025 z m -1039,36.75 c 53.4133,36.629 -16.0094,70.6137 -46.00198,91.9496 -33.09156,24.045 -68.36189,45.5588 -99.97803,71.3104 -11.92951,54.2883 56.37436,96.7041 92.96176,47.9115 43.81505,-28.1445 83.87265,-63.452 130.37945,-86.4909 73.3902,18.6594 7.1412,73.4507 -29.3782,92.2474 -42.9344,25.2686 -79.87874,66.139 -127.98301,78.322 -39.06805,-2.8083 -77.07206,-13.8299 -94.69681,-51.9577 -28.90857,-28.8204 -36.18978,-65.6576 -24.62819,-104.3911 15.70565,-41.0713 65.22037,-55.9302 97.32349,-83.9475 33.52449,-16.8972 62.78347,-59.7662 102.00152,-54.9537 z m -32.00001,22.11 c -50.1729,36.4267 -103.59171,69.2023 -151.55,108.14 -15.28379,40.6963 -6.93633,80.3778 23.69098,110.9547 18.9126,37.5184 77.21475,52.1846 110.86111,27.1212 48.47192,-34.1538 97.75712,-67.1849 145.56792,-102.2559 -0.7212,-57.0177 -56.7534,-1.8842 -80.5772,12.965 -34.7611,23.847 -68.89622,48.621 -103.99281,71.965 -40.06512,2.1127 -70.58392,-39.4391 -73.17709,-74.3285 0.876,-38.2213 48.8772,-48.0502 73.19265,-71.4615 30.87027,-25.0925 71.48945,-42.2386 95.65885,-73.0716 -1.7461,-23.6608 -25.7752,-25.8229 -39.67441,-10.0284 z m 1941.00001,77.05 c 52.388,7.855 113.3729,-6.4551 153.1543,36.0851 23.5666,26.501 84.5557,42.5044 69.1413,84.9963 -34.353,44.8766 -74.4866,-16.9062 -106.8989,-35.245 -24.4304,-8.3768 -37.5796,37.3569 -56.611,52.0853 -21.3835,26.5556 34.3377,40.9376 48.956,60.6176 61.8807,61.9543 -42.4964,73.5599 -72.47,23.0256 -37.1533,-23.6941 -66.7605,-54.2081 -73.593,-99.3133 -7.8472,-34.4521 -29.8615,-67.9873 -24.5862,-103.4091 11.7202,-27.3004 39.4695,-21.0779 62.9075,-18.8425 z m 126,77.46 c 27.0366,12.2967 64.0959,73.9861 87.59,30.63 -20.583,-34.2935 -63.1657,-53.1509 -93.1688,-80.7525 -46.4688,-15.8507 -99.9394,-9.4994 -149.4212,-16.2475 -45.8593,14.0085 -3.5752,68.1533 1.0874,100.9394 7.8484,42.0706 30.7018,75.1391 67.8345,96.6198 24.1212,39.7911 114.0691,46.1733 50.3449,-7.078 -14.5656,-19.4812 -66.7353,-32.6791 -52.4213,-58.2881 22.2695,-27.8238 44.7834,-55.451 67.1545,-83.1931 l 9.945,8.9925 11.055,8.3775 z m -68,-30.21 c 46.8494,0.029 -28.0799,52.3052 -36.1498,74.6794 -18.7193,22.8695 -23.4991,-44.1732 -35.4184,-60.5293 -23.6063,-39.0681 34.1042,-12.9181 55.6106,-15.7984 5.3192,0.5494 10.6384,1.0989 15.9576,1.6483 z m -21,11 c -45.2373,-15.8984 -39.0678,9.0904 -23.0527,41.9101 -1.9146,13.4085 65.5176,-53.7412 23.0527,-41.9101 z m -793,88.84 c 84.2993,4.1023 168.6758,7.2755 253,10.58 77.2392,-28.9057 4.3932,-51.3036 -31.455,-66.56 -46.6854,-27.4304 -100.6158,-0.2786 -150.9901,2.6912 -41.8958,10.4522 -93.5627,1.3666 -119.0374,43.4813 -20.7243,15.3999 40.7942,5.9282 48.4825,9.8075 z m -962,208 c -9.736,56.428 -70.7191,61.8395 -116.8453,55.9428 -38.1447,-32.3957 -79.6341,-65.2618 -110.16955,-105.0511 5.54148,-40.8044 50.17635,-63.6383 74.19765,-95.5739 35.0885,-33.7548 65.7613,-72.6051 103.297,-103.3362 47.3625,5.7193 88.0078,59.4872 115.9602,96.3459 16.0263,52.351 -16.3987,107.335 -66.44,114.5477 0,12.3749 0,24.7499 0,37.1248 z m 889,-214 c 20.6659,-5.0839 59.0754,-56.3049 0,0 z m -953,-4 c -48.8527,51.4088 -98.6114,101.9567 -147.2,153.6225 -0.8898,33.4209 42.6069,51.1836 62.8049,76.5697 23.8382,33.9971 62.6877,36.2444 100.3951,29.2778 60.5481,-26.8097 5.6325,-109.5472 82.275,-110.5525 35.7071,-29.79 25.7512,-93.8171 -13.501,-117.3456 -25.7842,-15.9028 -56.2768,-79.4372 -84.774,-31.5719 z m 952,4 c 1.0404,3.3166 1.8452,-1.3738 0,0 z m 252,24 c -83.3322,-3.0847 -166.6151,-8.164 -250,-9.8 -54.2655,25.9495 30.0034,19.8782 53.5166,26.8627 77.7541,15.5741 156.2776,1.9654 234.4834,-2.0127 55.6469,-21.4991 -25.6702,-11.2165 -38,-15.05 z m -1163,-2.01 c 22.5346,22.7 57.7172,41.6799 48.2,79.01 -26.3856,53.4174 -79.5943,28.629 -105.7733,-7.3065 -31.4619,-12.7866 44.6667,-81.6156 57.5733,-71.7035 z m -23,86.18 c 73.3905,47.0586 64.4482,-75.6052 8.7875,-69.44 -33.2272,32.8884 -51.7941,39.3547 -8.7875,69.44 z m 1016,-53.17 c 1.6089,20.4213 31.3204,-4.7068 0,0 z m 532.17,30 c 40.1977,43.4189 78.5345,88.6248 119.83,130.98 52.4417,13.3302 71.5315,-68.0062 121.9555,-62.2264 44.6395,34.2328 -24.0761,66.0963 -46.3304,91.0527 -23.314,33.1971 -61.8962,29.4648 -97.2233,25.3883 -39.8527,-12.0311 -60.1986,-56.3282 -90.6612,-83.6403 -22.4264,-30.0465 -59.2317,-53.141 -68.3428,-90.0487 5.9699,-27.5667 46.0667,-40.6539 60.7722,-11.5056 z m -47.06,14 c 29.7939,49.3288 77.1836,88.988 114.3327,134.2474 23.0127,31.5123 81.7975,37.4019 110.2263,9.9622 18.4449,-24.2192 77.4804,-46.9241 58.331,-77.2696 -45.413,10.8988 -68.3891,82.2039 -123,62.05 -44.7695,-46.8334 -86.5285,-96.5573 -131.4225,-143.2825 -10.7713,-9.2716 -26.5287,2.961 -28.4675,14.2925 z m -1518.11,45.83 c 36.9956,19.6357 19.3849,90.4774 -25.6256,81.17 -31.9018,1.0629 -87.9135,-50.2774 -77.1953,-72.5022 21.3028,-11.422 41.3329,-65.8965 63.6026,-44.6153 13.0728,11.9825 26.1455,23.965 39.2183,35.9475 z m -61,-15.83 c -38.4848,24.0232 -27.0445,51.4374 7,73.17 51.9214,44.0532 83.4551,-43.4504 26.5167,-65.1121 -10.6186,-8.9312 -21.9398,-28.5669 -33.5167,-8.0579 z m 1495.2,73 c -57.8391,-74.0615 55.1231,-82.7706 65.5572,-12.8493 32.331,52.5736 64.919,104.99 96.7828,157.8493 -5.8828,82.9544 -75.9325,15.2973 -90.75,-27.28 -42.4944,-11.5493 -85.9179,-19.592 -128.79,-29.72 28.6686,48.0891 61.0734,94.2503 86.54,144 -18.1905,72.7231 -73.6172,10.7176 -88.6056,-28.5863 -30.9584,-51.6083 -64.8837,-101.6245 -93.6444,-154.4137 2.9461,-55.6904 64.9565,-28.6891 98.9773,-22.4324 31.8999,13.4377 88.2123,10.3845 79.1704,14.2848 -8.4126,-13.6175 -16.8251,-27.2349 -25.2377,-40.8524 z m -45.2,77.35 c 41.5222,9.6859 83.3633,18.0535 124.68,28.58 9.3374,34.2998 81.862,104.2682 63,31.07 -39.3915,-63.0649 -77.1899,-127.2356 -117.86,-189.43 -58.7627,-0.4292 -1.8718,59.4481 11.4778,85.959 35.4263,39.2087 1.665,29.231 -31.2978,19.821 -45.2629,-7.2076 -91.2645,-28.2672 -136,-22.88 -20.9961,27.2167 24.2034,58.3512 33.7601,86.2687 27.9162,44.6106 54.7862,89.9223 83.4499,134.0313 59.8341,3.2006 2.6214,-59.2526 -10.7665,-85.5417 -19.6874,-32.1545 -39.6235,-64.1556 -59.4435,-96.2283 13,2.7833 26,5.5667 39,8.35 z m -1023,-61.09 c 36.2409,17.3017 87.12,27.0322 105,65.74 35.5416,46.8499 -3.8984,92.886 -23.775,135.7404 -19.905,37.7721 -34.4815,87.9187 -85.0456,89.7853 -43.561,16.6886 -82.1179,-23.7667 -120.9994,-38.2057 -44.2744,-49.2655 -18.0247,-105.5599 10.8603,-153.4803 21.325,-37.592 32.4177,-91.743 85.0374,-93.6856 9.6273,-1.9588 18.8478,-7.2447 28.9223,-5.8941 z m -41,23.03 c -41.3432,12.4909 -46.5362,65.1033 -68.86,97.71 -29.073,39.7125 -40.5521,102.2211 8.86,130.25 34.2818,14.1607 67.896,45.3986 105.9403,24.2708 47.0567,-8.5918 51.6073,-67.0473 75.3197,-101.5208 20.0318,-32.4787 36.871,-68.9761 12.32,-104 -21.4106,-29.5645 -65.7536,-48.1159 -101.2867,-55.4292 -10.7644,2.9064 -21.5289,5.8128 -32.2933,8.7192 z m 818,99.53 c -65.069,-16.954 1.2923,-65.1137 37.7657,-69.333 47.8768,-35.7833 91.1796,15.5056 43.0289,48.1054 21.1252,53.244 43.1893,106.1169 64.2054,159.4076 75.3406,-22.5955 39.8707,61.5347 -11.6958,61.0936 -61.4664,39.3917 -87.519,-14.8495 -51.736,-50.6732 -20.507,-51.4808 -41.9067,-102.6054 -61.5682,-154.4204 l -9.94,3.1275 -10.06,2.6925 0,0 z m -748,-68.07 c 55.4376,12.4647 45.5593,69.4628 17.9882,105.7737 -18.025,29.0706 -26.542,68.5314 -52.9882,88.8163 -39.6879,15.3552 -117.6721,-25.6524 -91.0697,-73.7005 21.1595,-41.2508 40.9574,-83.2974 63.4597,-123.7995 21.2304,-10.329 42.5314,-14.0844 62.61,2.91 z m 837.99,17.16 c -1.4194,-40.7501 -57.3867,3.4192 -81.8497,7.2698 -63.1063,38.0232 25.5083,10.6374 25.4597,38.8202 22.1737,57.8763 49.1577,115.0817 68.5069,173.3147 -69.4403,33.7091 13.3976,36.413 43.2937,11.9714 47.1764,-7.7812 34.0345,-49.4211 -8.8706,-29.3561 -25.5209,-62.6388 -50.8496,-125.3561 -76.53,-187.93 l 16.1725,-5.5975 13.8175,-8.4925 0,0 z m -891.6,-9.21 c -22.742,43.9756 -47.2846,87.5714 -65.97,133.3 17.7387,51.1359 97.9987,58.9909 106.9485,-4.1447 11.8453,-36.3466 52.7844,-71.2777 35.8215,-109.6453 -23.4859,-11.1329 -50.3997,-37.475 -76.8,-19.51 z m 711.61,155.42 c 83.054,-24.7087 47.5386,66.4914 -13,55.88 -40.9014,0.5637 -8.3752,48.5399 -8.6792,72.8755 26.2328,65.038 -79.3331,65.551 -64.9081,-3.9259 -10.399,-56.4598 -29.2464,-112.2622 -32.0927,-169.3184 17.3791,-55.5116 71.2128,-68.9325 122.2472,-76.1627 72.3154,-13.5741 35.7195,67.4241 -18.9704,56.6405 -46.0249,-6.4073 -48.9933,54.094 -27.8217,72.9081 14.4083,-2.9657 28.8166,-5.9314 43.2249,-8.8971 z m -494.12,61.88 c -0.9425,46.0664 -51.0626,128.1283 -78.745,53.0113 17.6081,-66.889 33.9981,-134.5559 55.965,-200.0113 39.8614,-46.4647 97.3268,-34.8706 147.7676,-17.7448 78.3566,32.8984 -11.3654,71.2945 -53.5907,39.7101 -34.0147,-24.5353 -72.7472,58.0118 -33.4112,58.9712 42.8038,-2.2613 109.0506,54.5817 34.0218,62.7697 -21.9014,3.1007 -75.3107,-40.2334 -72.0075,3.2938 z m 425.91,-84 c -18.2597,-71.928 82.4107,-39.7397 103.0125,-78.2072 -22.527,-22.8689 -63.8691,6.3403 -93.93,6.1272 -47.6746,21.7071 -54.2079,76.8105 -35.2561,121.8914 11.672,45.5608 17.0739,93.8197 33.0397,137.5619 56.8111,8.9322 13.9586,-63.6024 13.6013,-94.5591 -10.9205,-40.8469 61.8906,-21.803 84.6326,-41.2042 7.3378,-40.6693 -54.0513,-7.3924 -78.6873,-7.5419 -28.051,14.4081 -17.5516,-29.0271 -26.4127,-44.0681 z m -410.67,-22 c 8.8215,-54.4343 65.7921,-30.3491 101.0679,-20.8793 59.5634,2.5747 -2.7424,-37.0792 -32.0501,-34.7807 -55.1114,-25.9028 -109.2112,21.6213 -112.5647,77.365 -11.1835,48.7771 -30.5704,96.975 -36.1231,146.195 42.5584,29.3827 40.3495,-39.3083 51.5268,-65.1583 -2.2895,-45.7001 31.5914,-28.7144 60.8093,-19.8098 58.7439,24.4074 47.9043,-28.6616 -3.5056,-27.7004 -38.7799,-0.683 -47.341,-18.8284 -29.8696,-52.5987 l 0.7091,-2.6328 0,0 z"
     id="black"
     style="fill:#000000;fill-opacity:1;stroke:none" />
</svg>
