<?xml version="1.0" encoding="UTF-8" standalone="no"?>
<!DOCTYPE svg PUBLIC "-//W3C//DTD SVG 20010904//EN"
              "http://www.w3.org/TR/2001/REC-SVG-20010904/DTD/svg10.dtd">

<svg xmlns="http://www.w3.org/2000/svg"
     width="56.338in" height="56.338in"
     viewBox="0 0 4000 4000">
  <path id="blue"
        fill="none" stroke="black" stroke-width="1"
        d="M 1950.00,602.54
           C 1953.72,603.79 1958.85,607.97 1962.00,610.42
             1962.00,610.42 1984.00,628.39 1984.00,628.39
             1989.29,632.69 1994.86,636.72 1998.00,643.00
             2001.27,649.54 2000.61,656.97 2001.09,664.00
             2001.09,664.00 2003.09,694.00 2003.09,694.00
             2003.09,694.00 2008.09,769.00 2008.09,769.00
             2008.09,769.00 2010.00,796.00 2010.00,796.00
             2010.02,800.82 2010.46,808.66 2008.87,813.00
             2006.03,820.73 1992.13,833.37 1986.28,840.00
             1982.56,844.22 1971.68,856.83 1966.96,858.53
             1962.45,860.15 1943.94,860.68 1938.00,861.09
             1938.00,861.09 1898.00,864.09 1898.00,864.09
             1898.00,864.09 1888.00,865.00 1888.00,865.00
             1884.75,865.03 1877.82,865.28 1875.00,864.28
             1871.74,863.11 1866.83,858.87 1864.00,856.60
             1864.00,856.60 1846.00,842.00 1846.00,842.00
             1839.90,837.10 1831.51,831.37 1828.48,824.00
             1825.79,817.43 1826.38,810.79 1825.91,804.00
             1825.91,804.00 1823.91,774.00 1823.91,774.00
             1823.91,774.00 1819.00,707.00 1819.00,707.00
             1819.00,707.00 1819.00,698.00 1819.00,698.00
             1819.00,698.00 1817.00,673.00 1817.00,673.00
             1816.95,668.00 1816.54,659.50 1818.11,655.00
             1820.70,647.53 1837.76,630.39 1843.99,624.00
             1848.91,618.94 1854.19,610.94 1861.00,608.80
             1861.00,608.80 1885.00,606.91 1885.00,606.91
             1885.00,606.91 1919.00,604.09 1919.00,604.09
             1919.00,604.09 1941.00,602.54 1941.00,602.54
             1944.05,602.05 1946.99,601.72 1950.00,602.54 Z
           M 2149.00,609.85
           C 2149.00,609.85 2199.00,616.73 2199.00,616.73
             2205.53,617.66 2216.59,618.27 2221.96,621.61
             2227.71,625.18 2239.61,641.82 2244.42,648.00
             2248.09,652.71 2257.84,663.72 2258.78,669.00
             2259.88,675.23 2256.47,698.45 2255.42,706.00
             2254.67,711.44 2254.52,716.18 2251.30,721.00
             2247.91,726.09 2241.46,730.88 2237.00,735.09
             2235.28,736.72 2232.15,739.52 2231.95,742.00
             2231.72,744.94 2239.15,754.22 2241.14,757.00
             2245.54,763.14 2260.01,782.34 2262.03,788.00
             2262.98,790.66 2263.07,793.20 2262.96,796.00
             2262.96,796.00 2259.27,825.00 2259.27,825.00
             2258.58,829.82 2258.05,835.89 2255.30,840.00
             2251.90,845.08 2234.83,857.41 2229.00,862.00
             2225.36,864.86 2212.39,875.34 2209.00,876.44
             2207.04,877.08 2204.08,877.03 2202.00,876.99
             2202.00,876.99 2165.00,872.13 2165.00,872.13
             2165.00,872.13 2101.00,863.27 2101.00,863.27
             2092.46,862.04 2076.29,862.17 2072.74,853.00
             2071.84,850.67 2071.97,846.56 2072.00,844.00
             2072.00,844.00 2080.72,773.00 2080.72,773.00
             2080.72,773.00 2094.58,665.00 2094.58,665.00
             2094.58,665.00 2099.72,625.00 2099.72,625.00
             2100.66,617.76 2100.66,611.75 2107.04,607.02
             2116.56,603.78 2138.37,608.57 2149.00,609.85 Z
           M 1903.00,632.09
           C 1903.00,632.09 1895.00,632.96 1895.00,632.96
             1891.23,633.13 1877.75,633.64 1875.00,635.02
             1871.64,636.71 1868.37,641.17 1865.84,644.00
             1865.84,644.00 1853.74,658.00 1853.74,658.00
             1850.83,662.74 1852.35,667.90 1852.83,673.00
             1852.83,673.00 1853.83,688.00 1853.83,688.00
             1853.83,688.00 1855.09,712.00 1855.09,712.00
             1855.09,712.00 1858.00,754.00 1858.00,754.00
             1858.00,754.00 1858.91,765.00 1858.91,765.00
             1858.91,765.00 1860.09,788.00 1860.09,788.00
             1860.09,788.00 1860.96,796.00 1860.96,796.00
             1861.15,800.26 1861.15,812.46 1863.02,815.83
             1864.18,817.91 1868.09,821.09 1870.00,822.73
             1874.02,826.18 1884.55,836.45 1889.00,837.56
             1889.00,837.56 1911.00,836.04 1911.00,836.04
             1911.00,836.04 1920.00,836.04 1920.00,836.04
             1920.00,836.04 1940.00,833.93 1940.00,833.93
             1940.00,833.93 1948.00,833.93 1948.00,833.93
             1955.69,832.45 1964.70,819.86 1969.83,814.00
             1972.70,810.72 1974.60,808.47 1974.94,804.00
             1974.94,804.00 1973.09,778.00 1973.09,778.00
             1973.09,778.00 1970.91,742.00 1970.91,742.00
             1970.91,742.00 1969.00,717.00 1969.00,717.00
             1969.00,717.00 1968.09,703.00 1968.09,703.00
             1968.09,703.00 1966.17,673.00 1966.17,673.00
             1965.75,668.60 1965.89,656.87 1964.40,653.04
             1963.16,649.84 1957.71,645.73 1955.00,643.42
             1946.20,635.93 1942.08,629.17 1930.00,630.28
             1930.00,630.28 1903.00,632.09 1903.00,632.09 Z
           M 2172.00,730.00
           C 2172.00,730.00 2193.00,731.70 2193.00,731.70
             2193.00,731.70 2211.00,717.80 2211.00,717.80
             2211.00,717.80 2218.44,709.99 2218.44,709.99
             2218.44,709.99 2221.42,690.00 2221.42,690.00
             2221.42,690.00 2222.99,672.00 2222.99,672.00
             2222.99,672.00 2218.29,664.00 2218.29,664.00
             2218.29,664.00 2203.83,645.60 2203.83,645.60
             2203.83,645.60 2184.00,641.73 2184.00,641.73
             2184.00,641.73 2134.00,635.00 2134.00,635.00
             2134.00,635.00 2129.28,675.00 2129.28,675.00
             2129.28,675.00 2123.00,723.00 2123.00,723.00
             2123.00,723.00 2172.00,730.00 2172.00,730.00 Z
           M 1596.12,721.00
           C 1596.12,721.00 1613.71,786.00 1613.71,786.00
             1613.71,786.00 1629.71,845.00 1629.71,845.00
             1629.71,845.00 1639.88,883.00 1639.88,883.00
             1641.55,889.35 1644.83,898.76 1644.99,905.00
             1645.04,907.39 1645.08,910.74 1644.30,912.98
             1641.85,920.01 1631.69,922.69 1625.00,922.96
             1621.43,923.10 1617.18,923.02 1614.39,920.49
             1611.42,917.80 1610.62,912.74 1609.58,909.00
             1609.58,909.00 1602.15,882.00 1602.15,882.00
             1602.15,882.00 1575.85,785.00 1575.85,785.00
             1575.85,785.00 1564.37,743.00 1564.37,743.00
             1564.37,743.00 1552.01,697.00 1552.01,697.00
             1550.17,690.27 1548.63,682.75 1555.11,677.85
             1560.25,673.95 1580.73,668.70 1588.00,666.58
             1588.00,666.58 1651.00,648.00 1651.00,648.00
             1660.17,645.36 1676.00,639.23 1685.00,641.79
             1685.00,641.79 1719.00,659.69 1719.00,659.69
             1724.05,662.43 1730.90,665.37 1734.35,670.04
             1737.60,674.43 1741.45,691.73 1743.15,698.00
             1744.57,703.26 1748.29,714.99 1747.63,720.00
             1746.93,725.39 1736.39,743.74 1733.25,750.00
             1733.25,750.00 1724.75,766.00 1724.75,766.00
             1723.24,769.02 1720.96,774.15 1718.47,776.30
             1715.69,778.71 1707.75,780.63 1704.00,781.71
             1704.00,781.71 1674.00,791.00 1674.00,791.00
             1674.00,791.00 1710.00,811.40 1710.00,811.40
             1710.00,811.40 1768.00,845.20 1768.00,845.20
             1776.69,850.38 1786.27,852.90 1787.52,864.00
             1787.91,867.42 1787.03,870.99 1785.01,873.81
             1780.61,879.97 1766.96,882.45 1760.00,880.35
             1756.76,879.38 1750.27,874.97 1747.00,873.00
             1747.00,873.00 1681.00,832.60 1681.00,832.60
             1672.32,827.37 1649.15,814.02 1643.09,807.91
             1636.12,800.88 1633.89,793.65 1634.00,784.00
             1634.05,780.51 1634.09,777.97 1636.43,775.11
             1639.61,771.21 1646.26,769.81 1651.00,768.42
             1651.00,768.42 1681.00,759.66 1681.00,759.66
             1685.45,758.27 1690.35,757.48 1693.61,753.87
             1693.61,753.87 1706.23,732.00 1706.23,732.00
             1707.62,729.45 1710.64,724.62 1711.06,722.00
             1711.52,719.04 1709.20,711.24 1708.37,708.00
             1707.51,704.64 1704.42,692.44 1702.91,690.21
             1701.11,687.54 1697.75,686.13 1695.00,684.58
             1690.65,682.11 1673.75,672.46 1670.00,671.93
             1666.51,671.45 1650.50,676.70 1646.00,678.00
             1646.00,678.00 1589.00,694.00 1589.00,694.00
             1589.00,694.00 1596.12,721.00 1596.12,721.00 Z
           M 2342.00,820.00
           C 2342.00,820.00 2327.67,863.00 2327.67,863.00
             2327.67,863.00 2316.01,895.89 2316.01,895.89
             2310.42,903.94 2293.14,900.06 2287.51,893.66
             2284.77,890.56 2283.82,885.03 2284.10,881.00
             2284.44,875.99 2291.02,857.99 2293.00,852.00
             2293.00,852.00 2311.00,797.00 2311.00,797.00
             2311.00,797.00 2318.33,775.00 2318.33,775.00
             2319.61,771.18 2320.90,766.19 2323.42,763.09
             2326.05,759.85 2339.78,749.86 2344.00,746.58
             2344.00,746.58 2387.00,713.35 2387.00,713.35
             2387.00,713.35 2417.00,690.13 2417.00,690.13
             2420.97,687.12 2428.78,680.60 2433.00,678.99
             2440.49,676.14 2454.73,680.16 2458.91,687.04
             2458.91,687.04 2468.15,719.00 2468.15,719.00
             2468.15,719.00 2486.88,789.00 2486.88,789.00
             2486.88,789.00 2492.71,811.00 2492.71,811.00
             2494.18,816.16 2496.34,822.66 2495.82,828.00
             2495.82,828.00 2488.67,852.00 2488.67,852.00
             2488.67,852.00 2474.67,894.00 2474.67,894.00
             2474.67,894.00 2463.33,929.00 2463.33,929.00
             2461.86,933.44 2459.19,942.54 2456.50,945.94
             2449.87,954.34 2431.94,949.49 2426.74,941.90
             2424.79,939.05 2424.93,935.32 2425.01,932.00
             2425.20,924.46 2432.29,906.12 2435.00,898.00
             2435.00,898.00 2456.00,834.00 2456.00,834.00
             2456.00,834.00 2387.00,809.69 2387.00,809.69
             2387.00,809.69 2349.00,796.00 2349.00,796.00
             2348.38,802.88 2344.29,813.13 2342.00,820.00 Z
           M 2407.00,736.73
           C 2407.00,736.73 2365.00,773.00 2365.00,773.00
             2365.00,773.00 2457.00,805.00 2457.00,805.00
             2457.00,805.00 2443.42,741.00 2443.42,741.00
             2443.42,741.00 2437.00,712.00 2437.00,712.00
             2437.00,712.00 2407.00,736.73 2407.00,736.73 Z
           M 1424.00,860.75
           C 1424.00,860.75 1445.00,849.75 1445.00,849.75
             1445.00,849.75 1473.00,836.36 1473.00,836.36
             1487.57,831.70 1492.95,847.44 1488.55,855.98
             1485.60,861.70 1477.50,864.33 1472.00,867.31
             1472.00,867.31 1432.00,887.75 1432.00,887.75
             1432.00,887.75 1418.01,894.78 1418.01,894.78
             1416.54,895.59 1414.12,896.78 1413.63,898.53
             1413.13,900.28 1415.65,905.21 1416.42,907.00
             1416.42,907.00 1427.76,931.00 1427.76,931.00
             1429.99,935.55 1436.02,949.79 1439.21,952.30
             1442.08,954.56 1458.44,959.48 1463.00,961.00
             1465.93,961.98 1469.94,963.68 1473.00,963.18
             1475.84,962.72 1490.35,955.07 1494.00,953.25
             1494.00,953.25 1539.00,930.25 1539.00,930.25
             1546.68,926.41 1560.97,917.11 1568.61,925.23
             1570.65,927.40 1571.64,930.07 1571.89,933.00
             1573.08,946.77 1560.58,949.55 1551.00,954.86
             1551.00,954.86 1491.00,985.25 1491.00,985.25
             1480.52,990.49 1474.11,996.97 1462.00,993.57
             1462.00,993.57 1425.00,980.69 1425.00,980.69
             1420.18,978.98 1411.82,976.91 1408.21,973.61
             1404.68,970.38 1402.68,964.33 1400.69,960.00
             1400.69,960.00 1389.75,937.00 1389.75,937.00
             1389.75,937.00 1356.74,867.00 1356.74,867.00
             1352.96,859.18 1341.75,837.17 1340.19,830.00
             1339.92,827.63 1339.97,824.45 1340.19,822.00
             1340.10,814.91 1341.94,812.43 1344.32,806.00
             1344.32,806.00 1354.80,779.00 1354.80,779.00
             1356.56,774.51 1358.89,766.83 1362.39,763.63
             1362.39,763.63 1378.00,755.00 1378.00,755.00
             1378.00,755.00 1424.00,731.75 1424.00,731.75
             1424.00,731.75 1451.00,717.76 1451.00,717.76
             1456.64,714.98 1461.77,712.70 1467.96,715.65
             1476.00,719.48 1477.71,734.82 1464.00,742.22
             1464.00,742.22 1408.00,770.74 1408.00,770.74
             1403.21,773.22 1385.15,781.47 1382.51,784.39
             1379.87,787.29 1376.16,801.47 1374.86,806.00
             1374.29,807.96 1372.98,811.53 1373.12,813.42
             1373.38,816.71 1379.05,827.49 1380.74,831.00
             1380.74,831.00 1400.00,873.00 1400.00,873.00
             1400.00,873.00 1424.00,860.75 1424.00,860.75 Z
           M 2616.00,781.80
           C 2610.71,778.64 2600.38,773.22 2596.33,769.33
             2590.37,763.62 2590.01,751.34 2598.02,747.17
             2607.92,742.03 2625.42,755.39 2634.00,760.28
             2634.00,760.28 2730.00,816.28 2730.00,816.28
             2740.25,822.12 2762.56,831.54 2753.86,846.98
             2750.41,853.12 2743.16,854.10 2737.00,851.87
             2737.00,851.87 2699.00,830.20 2699.00,830.20
             2695.12,827.89 2685.56,820.33 2681.63,824.28
             2681.63,824.28 2671.76,842.00 2671.76,842.00
             2671.76,842.00 2655.74,872.00 2655.74,872.00
             2655.74,872.00 2605.31,965.00 2605.31,965.00
             2605.31,965.00 2586.26,1000.00 2586.26,1000.00
             2583.76,1004.82 2580.25,1013.19 2574.98,1015.26
             2564.92,1019.22 2548.28,1009.09 2548.18,998.00
             2548.12,991.18 2555.85,978.40 2559.31,972.00
             2559.31,972.00 2619.69,860.00 2619.69,860.00
             2619.69,860.00 2651.00,802.00 2651.00,802.00
             2651.00,802.00 2616.00,781.80 2616.00,781.80 Z
           M 2111.73,812.00
           C 2111.73,812.00 2109.65,828.00 2109.65,828.00
             2109.45,830.07 2108.65,833.65 2109.65,835.57
             2110.85,838.19 2116.38,838.53 2119.00,838.85
             2119.00,838.85 2146.00,842.58 2146.00,842.58
             2146.00,842.58 2178.00,847.00 2178.00,847.00
             2181.70,847.51 2188.57,848.88 2192.00,847.75
             2195.38,846.62 2202.81,840.34 2206.00,837.88
             2209.18,835.43 2220.37,827.11 2222.18,824.56
             2224.00,821.98 2223.89,819.00 2224.28,816.00
             2224.84,811.70 2227.17,797.32 2226.32,794.00
             2225.41,790.47 2219.10,781.69 2216.81,778.00
             2215.06,775.19 2208.51,764.46 2206.39,762.98
             2204.61,761.73 2200.23,761.31 2198.00,761.00
             2198.00,761.00 2181.00,758.72 2181.00,758.72
             2181.00,758.72 2120.00,750.00 2120.00,750.00
             2120.00,750.00 2111.73,812.00 2111.73,812.00 Z
           M 2725.58,1038.00
           C 2725.58,1038.00 2781.15,961.00 2781.15,961.00
             2781.15,961.00 2804.42,929.00 2804.42,929.00
             2804.42,929.00 2814.37,915.00 2814.37,915.00
             2816.91,909.84 2810.56,906.62 2807.00,903.88
             2804.45,901.91 2799.34,898.13 2797.40,895.83
             2793.12,890.68 2792.65,881.26 2797.40,876.23
             2804.96,868.19 2815.57,875.75 2822.00,880.79
             2822.00,880.79 2872.00,919.58 2872.00,919.58
             2878.78,924.86 2887.46,930.34 2886.89,940.00
             2886.37,948.84 2879.51,953.65 2871.00,951.44
             2863.80,949.58 2853.20,939.19 2846.00,935.00
             2846.00,935.00 2816.42,977.00 2816.42,977.00
             2816.42,977.00 2763.12,1051.00 2763.12,1051.00
             2763.12,1051.00 2739.88,1083.00 2739.88,1083.00
             2738.16,1085.34 2731.67,1093.63 2731.53,1095.99
             2731.33,1099.35 2736.61,1102.56 2739.00,1104.42
             2745.98,1109.87 2754.76,1114.92 2753.89,1125.00
             2753.18,1133.34 2747.75,1136.36 2740.00,1135.96
             2732.09,1135.55 2724.06,1127.97 2718.00,1123.21
             2718.00,1123.21 2677.00,1091.21 2677.00,1091.21
             2670.37,1086.01 2661.56,1081.29 2661.04,1072.00
             2660.51,1062.43 2666.68,1054.52 2677.00,1057.51
             2681.22,1058.74 2695.74,1070.59 2700.00,1074.00
             2700.00,1074.00 2725.58,1038.00 2725.58,1038.00 Z
           M 1266.00,992.58
           C 1266.00,992.58 1231.00,1018.87 1231.00,1018.87
             1231.00,1018.87 1215.01,1030.75 1215.01,1030.75
             1212.55,1032.69 1210.11,1034.53 1211.11,1038.00
             1211.11,1038.00 1226.58,1061.00 1226.58,1061.00
             1226.58,1061.00 1252.34,1098.00 1252.34,1098.00
             1252.34,1098.00 1264.60,1116.00 1264.60,1116.00
             1269.67,1125.79 1266.73,1133.80 1258.00,1139.96
             1253.97,1142.80 1251.06,1144.32 1246.00,1143.89
             1237.50,1143.18 1234.05,1137.26 1229.58,1131.00
             1229.58,1131.00 1207.98,1100.00 1207.98,1100.00
             1207.98,1100.00 1179.33,1059.00 1179.33,1059.00
             1171.45,1047.33 1167.02,1044.81 1167.00,1030.00
             1167.00,1030.00 1165.00,934.00 1165.00,934.00
             1165.00,934.00 1164.04,922.00 1164.04,922.00
             1164.04,922.00 1164.04,905.00 1164.04,905.00
             1164.01,900.99 1163.96,896.74 1165.65,893.00
             1168.58,886.49 1177.75,879.93 1185.00,880.05
             1191.25,880.17 1211.99,888.53 1219.00,891.19
             1219.00,891.19 1282.00,914.58 1282.00,914.58
             1282.00,914.58 1303.00,922.34 1303.00,922.34
             1306.72,923.65 1314.05,926.09 1316.91,928.42
             1320.56,931.38 1328.65,943.53 1331.67,948.00
             1331.67,948.00 1353.28,979.00 1353.28,979.00
             1353.28,979.00 1382.33,1021.00 1382.33,1021.00
             1386.72,1027.63 1390.26,1035.42 1385.27,1042.96
             1380.63,1049.97 1367.12,1057.29 1359.09,1051.44
             1355.39,1048.75 1343.77,1030.98 1340.28,1026.00
             1340.28,1026.00 1315.86,991.00 1315.86,991.00
             1311.77,985.26 1302.45,972.78 1300.00,967.00
             1300.00,967.00 1266.00,992.58 1266.00,992.58 Z
           M 1191.99,921.00
           C 1191.99,921.00 1193.83,946.00 1193.83,946.00
             1193.83,946.00 1195.09,969.00 1195.09,969.00
             1195.09,969.00 1197.09,997.00 1197.09,997.00
             1197.09,997.00 1198.00,1009.00 1198.00,1009.00
             1198.00,1009.00 1243.00,975.37 1243.00,975.37
             1243.00,975.37 1277.00,949.00 1277.00,949.00
             1277.00,949.00 1247.00,936.42 1247.00,936.42
             1247.00,936.42 1214.00,921.86 1214.00,921.86
             1214.00,921.86 1191.99,912.00 1191.99,912.00
             1191.99,912.00 1191.99,921.00 1191.99,921.00 Z
           M 1233.72,1291.00
           C 1248.83,1273.85 1268.18,1255.57 1285.00,1239.91
             1357.11,1172.76 1435.32,1117.68 1523.00,1072.74
             1770.69,945.79 2064.36,923.27 2328.00,1013.00
             2357.77,1023.13 2387.25,1034.07 2416.00,1046.86
             2535.04,1099.82 2642.87,1173.87 2735.00,1266.00
             2795.48,1326.48 2848.54,1394.64 2892.55,1468.00
             2892.55,1468.00 2922.74,1522.00 2922.74,1522.00
             2922.74,1522.00 2945.25,1568.00 2945.25,1568.00
             2958.49,1594.74 2968.63,1623.14 2979.19,1651.00
             2979.19,1651.00 2987.33,1674.00 2987.33,1674.00
             2988.34,1677.01 2990.27,1681.89 2989.65,1685.00
             2988.81,1689.15 2982.07,1694.93 2979.00,1698.00
             2979.00,1698.00 2950.00,1725.42 2950.00,1725.42
             2950.00,1725.42 2915.00,1756.15 2915.00,1756.15
             2911.24,1759.47 2902.25,1768.22 2898.00,1769.49
             2896.00,1770.09 2893.12,1770.00 2891.00,1770.00
             2891.00,1770.00 2873.00,1770.00 2873.00,1770.00
             2873.00,1770.00 2857.00,1769.00 2857.00,1769.00
             2857.00,1769.00 2808.00,1769.00 2808.00,1769.00
             2808.00,1769.00 2791.00,1768.00 2791.00,1768.00
             2791.00,1768.00 2653.00,1768.00 2653.00,1768.00
             2653.00,1768.00 2638.00,1769.00 2638.00,1769.00
             2638.00,1769.00 2555.00,1771.00 2555.00,1771.00
             2555.00,1771.00 2540.00,1772.00 2540.00,1772.00
             2540.00,1772.00 2506.00,1773.00 2506.00,1773.00
             2506.00,1773.00 2483.00,1774.00 2483.00,1774.00
             2483.00,1774.00 2460.00,1775.00 2460.00,1775.00
             2460.00,1775.00 2442.00,1776.00 2442.00,1776.00
             2442.00,1776.00 2426.00,1777.00 2426.00,1777.00
             2426.00,1777.00 2405.00,1778.00 2405.00,1778.00
             2405.00,1778.00 2364.00,1780.00 2364.00,1780.00
             2364.00,1780.00 2354.00,1780.96 2354.00,1780.96
             2354.00,1780.96 2345.00,1780.96 2345.00,1780.96
             2345.00,1780.96 2327.00,1782.00 2327.00,1782.00
             2327.00,1782.00 2316.00,1782.96 2316.00,1782.96
             2316.00,1782.96 2274.00,1785.83 2274.00,1785.83
             2274.00,1785.83 2251.00,1787.09 2251.00,1787.09
             2251.00,1787.09 2225.00,1789.00 2225.00,1789.00
             2219.21,1789.01 2214.68,1789.25 2209.00,1790.75
             2196.53,1794.06 2184.51,1801.83 2174.00,1809.12
             2154.39,1822.70 2136.90,1839.45 2120.83,1857.01
             2117.51,1860.64 2105.08,1870.62 2108.54,1875.87
             2110.79,1879.29 2115.36,1879.76 2119.00,1880.42
             2119.00,1880.42 2145.00,1885.42 2145.00,1885.42
             2145.00,1885.42 2247.00,1904.42 2247.00,1904.42
             2247.00,1904.42 2329.00,1919.80 2329.00,1919.80
             2329.00,1919.80 2388.00,1930.57 2388.00,1930.57
             2388.00,1930.57 2463.00,1940.28 2463.00,1940.28
             2463.00,1940.28 2555.00,1952.15 2555.00,1952.15
             2555.00,1952.15 2633.00,1962.28 2633.00,1962.28
             2633.00,1962.28 2671.00,1967.00 2671.00,1967.00
             2669.83,1974.26 2663.24,1978.67 2658.00,1983.28
             2658.00,1983.28 2631.00,2008.00 2631.00,2008.00
             2631.00,2008.00 2588.00,2047.17 2588.00,2047.17
             2588.00,2047.17 2507.00,2120.17 2507.00,2120.17
             2507.00,2120.17 2311.00,2293.72 2311.00,2293.72
             2311.00,2293.72 2167.00,2417.72 2167.00,2417.72
             2167.00,2417.72 2101.00,2473.58 2101.00,2473.58
             2101.00,2473.58 2066.46,2503.28 2066.46,2503.28
             2066.46,2503.28 2033.53,2547.00 2033.53,2547.00
             2033.53,2547.00 2014.63,2572.00 2014.63,2572.00
             2014.63,2572.00 2005.35,2585.00 2005.35,2585.00
             2003.26,2589.76 2007.76,2594.12 2010.19,2598.00
             2010.19,2598.00 2031.19,2631.00 2031.19,2631.00
             2031.19,2631.00 2089.05,2722.00 2089.05,2722.00
             2089.05,2722.00 2117.47,2767.00 2117.47,2767.00
             2120.81,2774.34 2112.95,2778.21 2108.00,2782.43
             2108.00,2782.43 2069.04,2817.83 2069.04,2817.83
             2065.54,2821.10 2053.50,2829.62 2056.71,2834.86
             2058.35,2837.54 2062.13,2838.29 2065.00,2838.71
             2065.00,2838.71 2085.00,2841.05 2085.00,2841.05
             2085.00,2841.05 2166.00,2851.05 2166.00,2851.05
             2174.15,2852.11 2177.40,2860.60 2181.42,2867.00
             2183.08,2869.64 2185.72,2874.32 2189.04,2874.87
             2192.08,2875.37 2196.44,2871.98 2199.00,2870.45
             2203.91,2867.50 2217.99,2858.66 2223.00,2858.49
             2223.00,2858.49 2230.00,2859.00 2230.00,2859.00
             2230.00,2859.00 2245.00,2859.00 2245.00,2859.00
             2245.00,2859.00 2268.00,2857.00 2268.00,2857.00
             2268.00,2857.00 2277.00,2857.00 2277.00,2857.00
             2277.00,2857.00 2342.00,2852.09 2342.00,2852.09
             2342.00,2852.09 2384.00,2849.17 2384.00,2849.17
             2388.53,2848.74 2393.76,2849.53 2398.00,2848.15
             2402.84,2846.58 2413.37,2839.67 2418.00,2836.69
             2418.00,2836.69 2453.00,2813.11 2453.00,2813.11
             2459.72,2808.08 2472.96,2797.58 2477.44,2791.00
             2479.13,2788.52 2481.87,2780.95 2481.08,2778.02
             2479.97,2773.88 2475.52,2772.12 2472.00,2770.58
             2472.00,2770.58 2446.00,2759.00 2446.00,2759.00
             2446.00,2759.00 2394.00,2735.70 2394.00,2735.70
             2394.00,2735.70 2366.00,2723.78 2366.00,2723.78
             2366.00,2723.78 2340.00,2726.00 2340.00,2726.00
             2340.00,2726.00 2318.51,2661.00 2318.51,2661.00
             2318.51,2661.00 2285.33,2561.00 2285.33,2561.00
             2285.33,2561.00 2269.98,2515.00 2269.98,2515.00
             2267.49,2507.08 2264.38,2500.60 2264.04,2492.00
             2263.18,2470.20 2277.56,2460.79 2293.00,2449.37
             2293.00,2449.37 2350.00,2408.57 2350.00,2408.57
             2350.00,2408.57 2380.00,2387.02 2380.00,2387.02
             2380.00,2387.02 2517.00,2291.02 2517.00,2291.02
             2597.34,2235.65 2678.56,2181.27 2761.00,2129.05
             2761.00,2129.05 2891.00,2049.80 2891.00,2049.80
             2891.00,2049.80 2934.00,2024.72 2934.00,2024.72
             2934.00,2024.72 2954.00,2013.65 2954.00,2013.65
             2960.01,2011.84 2968.84,2014.47 2975.00,2015.58
             2975.00,2015.58 3019.00,2023.80 3019.00,2023.80
             3022.70,2024.54 3037.09,2026.32 3039.10,2028.73
             3040.94,2031.17 3039.64,2038.99 3039.10,2042.00
             3039.10,2042.00 3039.10,2053.00 3039.10,2053.00
             3039.10,2053.00 3038.00,2071.00 3038.00,2071.00
             3038.00,2071.00 3037.09,2081.00 3037.09,2081.00
             3034.97,2111.76 3031.53,2142.58 3026.25,2173.00
             3015.85,2232.92 3002.12,2289.60 2981.69,2347.00
             2949.95,2436.20 2907.58,2520.30 2853.28,2598.00
             2721.44,2786.66 2528.08,2930.57 2308.00,2998.98
             2243.60,3018.99 2177.12,3033.46 2110.00,3040.17
             2110.00,3040.17 2065.00,3044.09 2065.00,3044.09
             2065.00,3044.09 2053.00,3045.00 2053.00,3045.00
             2053.00,3045.00 2033.00,3046.00 2033.00,3046.00
             2033.00,3046.00 1960.00,3046.00 1960.00,3046.00
             1960.00,3046.00 1945.00,3045.00 1945.00,3045.00
             1945.00,3045.00 1915.00,3043.09 1915.00,3043.09
             1862.17,3039.46 1809.56,3031.11 1758.00,3018.88
             1573.92,2975.23 1410.77,2885.85 1274.00,2755.04
             1274.00,2755.04 1264.00,2745.99 1264.00,2745.99
             1264.00,2745.99 1243.96,2725.00 1243.96,2725.00
             1161.61,2638.91 1095.03,2541.29 1045.31,2433.00
             1007.39,2350.42 981.58,2262.51 966.57,2173.00
             966.57,2173.00 958.17,2112.00 958.17,2112.00
             958.17,2112.00 955.83,2083.00 955.83,2083.00
             955.83,2083.00 954.00,2061.00 954.00,2061.00
             954.00,2061.00 953.00,2039.00 953.00,2039.00
             953.00,2039.00 953.00,1978.00 953.00,1978.00
             960.62,1978.19 970.24,1982.71 978.00,1985.00
             978.00,1985.00 1026.00,1996.59 1026.00,1996.59
             1045.52,1999.86 1065.25,2000.97 1085.00,2001.00
             1085.00,2001.00 1100.00,2002.00 1100.00,2002.00
             1100.00,2002.00 1123.00,2002.00 1123.00,2002.00
             1134.43,2002.02 1140.90,2006.45 1151.00,2011.22
             1151.00,2011.22 1183.00,2025.69 1183.00,2025.69
             1183.00,2025.69 1285.00,2072.31 1285.00,2072.31
             1285.00,2072.31 1318.00,2087.58 1318.00,2087.58
             1318.00,2087.58 1405.00,2127.22 1405.00,2127.22
             1405.00,2127.22 1426.00,2136.76 1426.00,2136.76
             1429.71,2138.57 1432.47,2139.02 1434.00,2143.00
             1434.00,2143.00 1399.00,2145.91 1399.00,2145.91
             1399.00,2145.91 1297.00,2154.98 1297.00,2154.98
             1297.00,2154.98 1264.00,2158.21 1264.00,2158.21
             1260.44,2158.95 1256.14,2162.44 1256.15,2166.42
             1256.16,2168.89 1258.46,2171.31 1260.05,2172.99
             1263.84,2176.97 1270.38,2181.82 1275.00,2184.97
             1275.00,2184.97 1340.00,2223.30 1340.00,2223.30
             1340.00,2223.30 1393.00,2252.08 1393.00,2252.08
             1393.00,2252.08 1424.00,2267.51 1424.00,2267.51
             1432.13,2269.79 1446.22,2270.32 1455.00,2271.17
             1455.00,2271.17 1494.00,2275.17 1494.00,2275.17
             1494.00,2275.17 1595.00,2285.83 1595.00,2285.83
             1595.00,2285.83 1654.00,2292.00 1654.00,2292.00
             1654.00,2292.00 1650.09,2346.00 1650.09,2346.00
             1650.09,2346.00 1645.09,2411.00 1645.09,2411.00
             1645.09,2411.00 1642.83,2444.00 1642.83,2444.00
             1642.83,2444.00 1639.83,2483.00 1639.83,2483.00
             1638.48,2497.15 1636.53,2507.33 1642.58,2521.00
             1650.94,2539.88 1668.27,2553.80 1685.00,2565.00
             1715.51,2585.43 1748.99,2600.92 1782.00,2616.78
             1782.00,2616.78 1818.00,2633.15 1818.00,2633.15
             1821.16,2634.51 1829.00,2638.80 1832.13,2637.50
             1834.76,2636.42 1836.80,2633.22 1838.42,2631.00
             1838.42,2631.00 1849.88,2615.00 1849.88,2615.00
             1849.88,2615.00 1894.88,2552.00 1894.88,2552.00
             1894.88,2552.00 1931.57,2501.00 1931.57,2501.00
             1931.57,2501.00 2023.14,2373.00 2023.14,2373.00
             2023.14,2373.00 2060.29,2321.00 2060.29,2321.00
             2068.55,2309.60 2075.22,2304.77 2079.08,2290.00
             2081.65,2280.16 2080.07,2264.41 2071.95,2257.52
             2067.51,2253.75 2053.35,2246.50 2051.02,2242.68
             2050.18,2241.30 2050.25,2240.46 2050.00,2239.00
             2057.32,2238.03 2078.28,2236.13 2078.27,2226.01
             2078.27,2222.93 2075.14,2220.76 2073.00,2219.00
             2073.00,2219.00 2055.00,2204.60 2055.00,2204.60
             2030.64,2185.14 2006.44,2165.63 1980.00,2149.05
             1980.00,2149.05 1955.00,2134.15 1955.00,2134.15
             1952.63,2132.78 1947.76,2130.58 1949.17,2127.13
             1949.87,2125.41 1954.25,2121.75 1955.79,2119.99
             1959.91,2115.28 1962.52,2109.26 1962.91,2103.00
             1963.53,2092.93 1957.51,2081.33 1949.00,2075.99
             1945.73,2073.94 1941.71,2072.73 1938.00,2071.78
             1935.02,2071.02 1932.12,2069.99 1929.00,2070.36
             1915.31,2072.01 1908.00,2086.73 1907.00,2099.00
             1889.66,2099.00 1888.49,2098.41 1871.00,2102.21
             1866.15,2103.26 1856.24,2107.54 1852.00,2106.24
             1848.73,2105.23 1836.42,2095.93 1833.00,2093.37
             1833.00,2093.37 1797.00,2067.42 1797.00,2067.42
             1797.00,2067.42 1667.00,1973.42 1667.00,1973.42
             1667.00,1973.42 1461.00,1824.57 1461.00,1824.57
             1461.00,1824.57 1355.00,1747.88 1355.00,1747.88
             1355.00,1747.88 1290.00,1705.95 1290.00,1705.95
             1290.00,1705.95 1231.00,1667.95 1231.00,1667.95
             1231.00,1667.95 1206.00,1652.00 1206.00,1652.00
             1206.00,1652.00 1206.00,1649.00 1206.00,1649.00
             1206.00,1649.00 1248.00,1635.98 1248.00,1635.98
             1248.00,1635.98 1352.00,1603.98 1352.00,1603.98
             1352.00,1603.98 1699.00,1497.02 1699.00,1497.02
             1699.00,1497.02 1819.00,1460.02 1819.00,1460.02
             1819.00,1460.02 1844.00,1452.34 1844.00,1452.34
             1849.78,1450.52 1855.46,1448.54 1857.44,1442.00
             1858.73,1437.73 1855.04,1435.24 1852.00,1433.04
             1852.00,1433.04 1830.00,1417.34 1830.00,1417.34
             1830.00,1417.34 1734.00,1349.58 1734.00,1349.58
             1734.00,1349.58 1653.00,1292.67 1653.00,1292.67
             1641.56,1285.07 1619.05,1270.35 1606.00,1267.79
             1601.94,1266.99 1581.72,1270.22 1576.00,1270.84
             1576.00,1270.84 1501.00,1279.83 1501.00,1279.83
             1501.00,1279.83 1428.00,1288.71 1428.00,1288.71
             1428.00,1288.71 1319.00,1301.28 1319.00,1301.28
             1319.00,1301.28 1261.00,1308.28 1261.00,1308.28
             1261.00,1308.28 1216.00,1313.00 1216.00,1313.00
             1218.20,1305.51 1228.43,1297.00 1233.72,1291.00 Z
           M 2938.00,1014.00
           C 2938.00,1014.00 2969.00,1014.00 2969.00,1014.00
             2971.45,1014.00 2974.72,1013.87 2977.00,1014.74
             2982.28,1016.75 2992.98,1029.37 2997.17,1034.00
             2997.17,1034.00 3017.00,1054.00 3017.00,1054.00
             3017.00,1054.00 3035.17,1073.00 3035.17,1073.00
             3037.94,1076.08 3041.42,1079.10 3042.99,1083.00
             3044.15,1085.86 3044.00,1088.97 3044.00,1092.00
             3044.00,1092.00 3045.00,1135.00 3045.00,1135.00
             3044.98,1144.90 3044.28,1157.12 3031.00,1155.89
             3027.75,1155.59 3025.57,1154.44 3023.00,1152.47
             3009.04,1141.77 3014.98,1128.90 3015.00,1114.00
             3015.00,1114.00 3015.00,1099.00 3015.00,1099.00
             3015.00,1096.91 3015.12,1093.94 3014.40,1092.00
             3012.93,1088.00 3002.52,1078.52 2999.00,1075.00
             2999.00,1075.00 2982.09,1058.00 2982.09,1058.00
             2979.29,1055.00 2975.54,1049.80 2972.00,1048.02
             2970.27,1047.15 2954.81,1046.04 2952.00,1046.00
             2948.64,1045.96 2937.54,1045.66 2935.00,1046.60
             2930.87,1048.12 2926.62,1053.71 2923.72,1057.00
             2923.72,1057.00 2906.83,1075.00 2906.83,1075.00
             2906.83,1075.00 2891.09,1091.00 2891.09,1091.00
             2891.09,1091.00 2857.00,1127.00 2857.00,1127.00
             2857.00,1127.00 2841.99,1143.00 2841.99,1143.00
             2839.39,1145.66 2834.86,1149.58 2833.60,1153.00
             2832.72,1155.40 2832.99,1163.06 2833.00,1166.00
             2833.00,1166.00 2834.00,1181.00 2834.00,1181.00
             2834.01,1183.67 2833.80,1187.54 2834.74,1190.00
             2836.13,1193.66 2841.16,1198.16 2844.00,1201.00
             2844.00,1201.00 2864.00,1221.00 2864.00,1221.00
             2867.23,1224.28 2873.53,1232.24 2877.00,1233.98
             2879.97,1235.47 2887.44,1235.02 2891.00,1235.00
             2891.00,1235.00 2923.00,1233.10 2923.00,1233.10
             2936.02,1234.07 2944.45,1252.36 2938.26,1260.79
             2934.62,1265.76 2925.61,1265.99 2920.00,1266.00
             2920.00,1266.00 2877.00,1266.00 2877.00,1266.00
             2867.22,1265.87 2864.58,1261.59 2858.00,1255.00
             2858.00,1255.00 2832.00,1228.00 2832.00,1228.00
             2832.00,1228.00 2811.58,1207.00 2811.58,1207.00
             2809.39,1204.47 2805.70,1200.84 2804.31,1198.00
             2802.24,1193.74 2803.06,1181.29 2803.00,1176.00
             2803.00,1176.00 2802.00,1163.00 2802.00,1163.00
             2802.00,1163.00 2802.00,1141.00 2802.00,1141.00
             2802.00,1138.00 2801.90,1134.89 2802.80,1132.00
             2804.91,1125.27 2815.88,1115.15 2821.00,1110.00
             2821.00,1110.00 2832.04,1098.00 2832.04,1098.00
             2832.04,1098.00 2863.91,1065.00 2863.91,1065.00
             2863.91,1065.00 2899.00,1028.00 2899.00,1028.00
             2905.52,1021.47 2908.60,1015.76 2918.00,1013.47
             2925.09,1012.47 2930.96,1013.99 2938.00,1014.00 Z
           M 261.00,1247.50
           C 273.74,1251.95 288.19,1260.00 300.00,1266.72
             300.00,1266.72 320.00,1278.89 320.00,1278.89
             322.74,1280.73 327.46,1284.14 328.98,1287.04
             330.22,1289.42 330.05,1293.32 329.99,1296.00
             329.81,1303.25 325.86,1314.10 323.19,1321.00
             316.46,1338.37 305.32,1356.93 292.00,1369.99
             283.97,1377.86 274.46,1384.39 263.00,1385.53
             254.10,1386.42 249.45,1381.76 243.00,1376.60
             243.00,1376.60 224.00,1361.25 224.00,1361.25
             216.14,1354.71 208.12,1348.40 201.04,1341.00
             186.05,1325.33 171.95,1300.59 165.00,1280.00
             165.00,1280.00 159.01,1259.00 159.01,1259.00
             158.12,1255.57 157.31,1251.34 159.74,1248.30
             161.84,1245.66 165.89,1245.26 169.00,1244.58
             169.00,1244.58 193.91,1240.49 193.91,1240.49
             215.58,1238.44 240.41,1240.32 261.00,1247.50 Z
           M 724.00,1539.42
           C 708.11,1528.19 688.42,1518.69 679.26,1501.00
             670.88,1484.82 673.44,1484.16 668.38,1471.00
             665.02,1462.25 659.74,1453.46 654.10,1446.00
             626.17,1409.04 588.24,1388.15 550.00,1363.95
             550.00,1363.95 486.00,1324.99 486.00,1324.99
             486.00,1324.99 447.00,1303.32 447.00,1303.32
             447.00,1303.32 430.00,1296.13 430.00,1296.13
             430.00,1296.13 416.00,1289.86 416.00,1289.86
             399.68,1284.18 372.37,1281.08 355.00,1281.00
             351.61,1280.98 335.33,1279.92 333.00,1278.86
             333.00,1278.86 315.02,1266.77 315.02,1266.77
             313.18,1265.48 309.87,1263.17 311.17,1260.49
             312.16,1258.45 321.50,1254.91 324.00,1253.77
             330.16,1250.96 348.81,1243.86 354.99,1243.18
             354.99,1243.18 370.00,1243.18 370.00,1243.18
             370.00,1243.18 391.00,1244.00 391.00,1244.00
             413.55,1244.04 431.15,1244.16 453.00,1251.52
             468.17,1256.62 490.94,1271.20 505.00,1279.81
             505.00,1279.81 617.00,1349.55 617.00,1349.55
             617.00,1349.55 726.00,1417.05 726.00,1417.05
             726.00,1417.05 765.00,1441.42 765.00,1441.42
             765.00,1441.42 784.00,1453.00 784.00,1453.00
             788.16,1447.54 793.60,1453.56 798.00,1456.49
             798.00,1456.49 834.00,1478.81 834.00,1478.81
             873.10,1502.76 913.70,1523.90 954.00,1545.69
             954.00,1545.69 982.00,1560.25 982.00,1560.25
             984.58,1561.54 991.52,1564.27 992.13,1567.21
             992.58,1569.39 988.13,1577.39 987.00,1580.00
             993.82,1583.05 1004.25,1590.11 1011.00,1594.32
             1011.00,1594.32 1047.00,1616.58 1047.00,1616.58
             1047.00,1616.58 1163.00,1688.77 1163.00,1688.77
             1163.00,1688.77 1277.00,1759.58 1277.00,1759.58
             1277.00,1759.58 1335.00,1795.75 1335.00,1795.75
             1335.00,1795.75 1349.00,1806.14 1349.00,1806.14
             1349.00,1806.14 1407.00,1848.58 1407.00,1848.58
             1407.00,1848.58 1588.00,1980.85 1588.00,1980.85
             1588.00,1980.85 1732.00,2086.13 1732.00,2086.13
             1732.00,2086.13 1768.00,2112.29 1768.00,2112.29
             1772.69,2115.67 1781.19,2120.54 1783.00,2126.00
             1783.00,2126.00 1746.00,2126.00 1746.00,2126.00
             1746.00,2126.00 1719.00,2127.00 1719.00,2127.00
             1719.00,2127.00 1663.00,2127.00 1663.00,2127.00
             1652.68,2126.98 1648.67,2122.63 1640.00,2117.40
             1640.00,2117.40 1604.00,2095.60 1604.00,2095.60
             1604.00,2095.60 1460.00,2008.31 1460.00,2008.31
             1460.00,2008.31 1261.00,1887.91 1261.00,1887.91
             1261.00,1887.91 1190.00,1845.00 1190.00,1845.00
             1190.00,1845.00 1167.00,1831.00 1167.00,1831.00
             1167.00,1831.00 1151.12,1821.29 1151.12,1821.29
             1144.22,1816.43 1146.74,1810.72 1138.96,1805.09
             1138.96,1805.09 1128.00,1798.32 1128.00,1798.32
             1128.00,1798.32 1095.00,1777.95 1095.00,1777.95
             1095.00,1777.95 977.00,1704.95 977.00,1704.95
             977.00,1704.95 920.00,1669.58 920.00,1669.58
             920.00,1669.58 891.00,1651.96 891.00,1651.96
             889.56,1651.36 888.58,1651.01 887.00,1651.37
             884.14,1652.04 874.31,1661.13 871.00,1663.63
             853.31,1676.98 837.62,1687.00 817.00,1695.40
             788.51,1706.99 757.40,1711.41 727.00,1705.74
             716.82,1703.84 707.73,1700.18 698.00,1696.95
             698.00,1696.95 689.00,1694.93 689.00,1694.93
             689.00,1694.93 673.00,1685.85 673.00,1685.85
             673.00,1685.85 641.00,1667.58 641.00,1667.58
             641.00,1667.58 605.00,1647.15 605.00,1647.15
             600.41,1644.53 593.83,1642.28 592.00,1637.00
             601.95,1638.77 611.71,1642.35 622.00,1641.96
             645.63,1641.07 670.40,1634.28 688.00,1617.91
             696.96,1609.58 702.82,1601.95 709.72,1592.00
             709.72,1592.00 719.63,1577.65 719.63,1577.65
             722.20,1575.68 724.71,1577.66 727.00,1579.00
             727.00,1579.00 730.00,1571.00 730.00,1571.00
             730.00,1571.00 725.00,1569.00 725.00,1569.00
             725.00,1569.00 727.00,1564.00 727.00,1564.00
             727.00,1564.00 695.00,1545.28 695.00,1545.28
             695.00,1545.28 609.00,1493.20 609.00,1493.20
             609.00,1493.20 498.00,1426.01 498.00,1426.01
             481.04,1416.04 435.29,1389.12 422.00,1378.55
             418.64,1375.87 407.91,1367.65 406.84,1363.96
             405.87,1360.59 409.17,1355.94 410.77,1353.00
             410.77,1353.00 423.74,1329.00 423.74,1329.00
             428.89,1318.36 430.07,1309.50 430.72,1308.30
             431.75,1306.43 433.08,1306.26 435.04,1306.68
             435.04,1306.68 456.00,1316.70 456.00,1316.70
             456.00,1316.70 499.00,1341.40 499.00,1341.40
             499.00,1341.40 576.00,1389.31 576.00,1389.31
             600.77,1405.26 622.18,1418.99 641.56,1442.00
             649.10,1450.94 656.38,1462.05 660.57,1473.00
             660.57,1473.00 663.92,1485.00 663.92,1485.00
             665.61,1491.15 670.89,1502.63 674.35,1508.00
             683.79,1522.66 696.84,1530.21 711.00,1539.67
             711.00,1539.67 737.00,1557.00 737.00,1557.00
             740.18,1548.77 738.80,1549.89 724.00,1539.42 Z
           M 1668.00,1411.77
           C 1668.00,1411.77 1556.00,1436.58 1556.00,1436.58
             1556.00,1436.58 1191.00,1517.42 1191.00,1517.42
             1191.00,1517.42 1055.00,1547.45 1055.00,1547.45
             1055.00,1547.45 1012.00,1557.08 1012.00,1557.08
             1012.00,1557.08 1001.00,1559.57 1001.00,1559.57
             996.83,1559.85 990.77,1556.16 987.00,1554.24
             987.00,1554.24 959.00,1539.64 959.00,1539.64
             959.00,1539.64 923.00,1520.31 923.00,1520.31
             923.00,1520.31 839.00,1473.19 839.00,1473.19
             839.00,1473.19 803.00,1450.86 803.00,1450.86
             800.87,1449.48 792.30,1444.80 794.17,1441.56
             795.53,1439.20 805.22,1439.00 808.00,1438.56
             808.00,1438.56 847.00,1431.92 847.00,1431.92
             847.00,1431.92 1009.00,1404.57 1009.00,1404.57
             1009.00,1404.57 1416.00,1336.59 1416.00,1336.59
             1416.00,1336.59 1486.00,1324.44 1486.00,1324.44
             1486.00,1324.44 1534.00,1316.80 1534.00,1316.80
             1534.00,1316.80 1568.00,1310.92 1568.00,1310.92
             1571.53,1310.33 1579.83,1308.42 1582.91,1309.60
             1586.30,1310.90 1591.62,1318.93 1594.29,1322.00
             1600.98,1329.69 1610.65,1338.68 1619.00,1344.56
             1630.06,1352.35 1642.67,1356.96 1655.00,1362.28
             1655.00,1362.28 1701.00,1382.42 1701.00,1382.42
             1701.00,1382.42 1722.00,1391.58 1722.00,1391.58
             1725.96,1393.27 1729.38,1393.79 1731.00,1398.00
             1731.00,1398.00 1668.00,1411.77 1668.00,1411.77 Z
           M 3038.00,1754.00
           C 3038.00,1754.00 3086.00,1709.91 3086.00,1709.91
             3086.00,1709.91 3175.00,1627.09 3175.00,1627.09
             3175.00,1627.09 3205.00,1599.91 3205.00,1599.91
             3205.00,1599.91 3216.00,1589.09 3216.00,1589.09
             3216.00,1589.09 3234.00,1572.91 3234.00,1572.91
             3234.00,1572.91 3279.00,1531.79 3279.00,1531.79
             3279.00,1531.79 3289.00,1526.00 3289.00,1526.00
             3294.86,1522.65 3302.54,1517.31 3309.00,1516.00
             3308.75,1517.57 3308.78,1518.45 3307.98,1519.96
             3306.75,1522.28 3293.82,1534.26 3291.00,1537.01
             3291.00,1537.01 3245.00,1583.00 3245.00,1583.00
             3245.00,1583.00 3222.00,1605.01 3222.00,1605.01
             3222.00,1605.01 3116.00,1710.00 3116.00,1710.00
             3116.00,1710.00 3100.51,1724.69 3100.51,1724.69
             3100.51,1724.69 3065.00,1760.00 3065.00,1760.00
             3060.24,1764.76 3055.38,1772.05 3048.00,1771.75
             3048.00,1771.75 3040.00,1771.75 3040.00,1771.75
             3031.40,1771.62 3030.59,1770.74 3021.00,1771.75
             3022.90,1766.20 3033.27,1758.65 3038.00,1754.00 Z
           M 84.00,1598.01
           C 84.00,1598.01 140.00,1585.23 140.00,1585.23
             140.00,1585.23 236.00,1563.23 236.00,1563.23
             236.00,1563.23 287.00,1551.72 287.00,1551.72
             287.00,1551.72 324.00,1543.35 324.00,1543.35
             324.00,1543.35 357.00,1535.60 357.00,1535.60
             357.00,1535.60 384.00,1530.43 384.00,1530.43
             384.00,1530.43 405.00,1541.58 405.00,1541.58
             405.00,1541.58 449.00,1566.72 449.00,1566.72
             449.00,1566.72 508.00,1600.42 508.00,1600.42
             508.00,1600.42 527.43,1611.95 527.43,1611.95
             527.43,1611.95 529.00,1615.00 529.00,1615.00
             529.00,1615.00 454.00,1623.83 454.00,1623.83
             454.00,1623.83 398.00,1630.71 398.00,1630.71
             398.00,1630.71 390.00,1631.29 390.00,1631.29
             390.00,1631.29 284.00,1644.71 284.00,1644.71
             284.00,1644.71 276.00,1645.29 276.00,1645.29
             276.00,1645.29 243.00,1649.72 243.00,1649.72
             243.00,1649.72 218.00,1652.43 218.00,1652.43
             218.00,1652.43 196.00,1655.27 196.00,1655.27
             193.08,1655.69 185.49,1657.02 183.00,1656.75
             183.00,1656.75 155.00,1646.20 155.00,1646.20
             155.00,1646.20 85.00,1618.20 85.00,1618.20
             77.75,1615.35 62.71,1610.81 60.00,1603.00
             60.00,1603.00 84.00,1598.01 84.00,1598.01 Z
           M 2981.00,1752.85
           C 2981.00,1752.85 3027.00,1713.08 3027.00,1713.08
             3027.00,1713.08 3161.00,1597.73 3161.00,1597.73
             3183.70,1578.30 3188.66,1572.12 3216.00,1557.75
             3222.46,1554.35 3226.67,1550.38 3234.00,1549.00
             3231.63,1557.05 3221.04,1564.26 3215.00,1570.04
             3215.00,1570.04 3168.00,1614.28 3168.00,1614.28
             3168.00,1614.28 3154.00,1627.91 3154.00,1627.91
             3154.00,1627.91 3119.00,1660.91 3119.00,1660.91
             3119.00,1660.91 3072.00,1704.91 3072.00,1704.91
             3072.00,1704.91 3045.42,1729.73 3045.42,1729.73
             3045.42,1729.73 3015.09,1758.13 3015.09,1758.13
             3006.98,1765.63 3005.59,1770.98 2994.00,1771.00
             2994.00,1771.00 2963.00,1771.00 2963.00,1771.00
             2965.24,1764.00 2975.47,1757.69 2981.00,1752.85 Z
           M 2228.00,1859.00
           C 2228.00,1859.00 2259.00,1857.09 2259.00,1857.09
             2259.00,1857.09 2314.00,1853.91 2314.00,1853.91
             2314.00,1853.91 2334.00,1852.00 2334.00,1852.00
             2334.00,1852.00 2343.00,1852.00 2343.00,1852.00
             2343.00,1852.00 2353.00,1851.00 2353.00,1851.00
             2353.00,1851.00 2416.00,1847.00 2416.00,1847.00
             2416.00,1847.00 2426.00,1846.09 2426.00,1846.09
             2426.00,1846.09 2451.00,1844.09 2451.00,1844.09
             2451.00,1844.09 2475.00,1842.91 2475.00,1842.91
             2475.00,1842.91 2521.00,1839.09 2521.00,1839.09
             2598.73,1833.78 2676.41,1827.35 2754.00,1819.83
             2754.00,1819.83 2785.00,1816.17 2785.00,1816.17
             2785.00,1816.17 2849.00,1808.25 2849.00,1808.25
             2849.00,1808.25 2875.00,1803.50 2875.00,1803.50
             2882.78,1801.66 2885.20,1799.11 2894.00,1799.00
             2894.00,1799.00 2912.00,1799.00 2912.00,1799.00
             2916.69,1799.01 2928.43,1798.27 2926.67,1805.91
             2925.93,1809.13 2922.63,1810.85 2920.00,1812.38
             2914.16,1815.79 2905.54,1818.25 2899.00,1820.34
             2876.56,1827.53 2826.63,1837.14 2802.00,1841.58
             2723.09,1855.80 2643.48,1866.13 2564.00,1876.28
             2564.00,1876.28 2469.00,1888.15 2469.00,1888.15
             2469.00,1888.15 2426.00,1893.17 2426.00,1893.17
             2426.00,1893.17 2416.00,1894.82 2416.00,1894.82
             2411.62,1895.15 2402.63,1893.21 2398.00,1892.43
             2398.00,1892.43 2365.00,1887.43 2365.00,1887.43
             2365.00,1887.43 2258.00,1871.58 2258.00,1871.58
             2258.00,1871.58 2222.00,1866.11 2222.00,1866.11
             2217.39,1865.07 2211.74,1864.84 2210.00,1860.00
             2210.00,1860.00 2228.00,1859.00 2228.00,1859.00 Z
           M 2508.00,1899.17
           C 2508.00,1899.17 2622.00,1886.28 2622.00,1886.28
             2697.74,1876.84 2795.82,1863.67 2869.00,1845.37
             2892.31,1839.55 2921.50,1832.15 2943.00,1821.74
             2948.87,1818.90 2954.99,1815.90 2960.00,1811.68
             2963.05,1809.10 2966.90,1803.81 2970.04,1802.60
             2972.15,1801.79 2978.48,1801.96 2981.00,1802.00
             2988.49,1802.14 2988.10,1804.20 2988.00,1812.00
             2987.84,1824.00 2979.39,1834.09 2971.00,1841.91
             2952.76,1858.90 2922.87,1871.49 2900.00,1881.28
             2863.43,1896.94 2809.11,1911.70 2770.00,1921.47
             2770.00,1921.47 2720.00,1933.21 2720.00,1933.21
             2720.00,1933.21 2696.00,1937.96 2696.00,1937.96
             2696.00,1937.96 2658.00,1933.27 2658.00,1933.27
             2658.00,1933.27 2587.00,1923.27 2587.00,1923.27
             2587.00,1923.27 2531.00,1915.72 2531.00,1915.72
             2531.00,1915.72 2497.00,1910.85 2497.00,1910.85
             2497.00,1910.85 2477.00,1907.87 2477.00,1907.87
             2472.46,1907.23 2469.63,1907.67 2468.00,1903.00
             2468.00,1903.00 2508.00,1899.17 2508.00,1899.17 Z
           M 2754.00,1939.58
           C 2754.00,1939.58 2800.00,1928.87 2800.00,1928.87
             2841.93,1918.39 2899.13,1901.19 2937.00,1881.22
             2949.19,1874.79 2963.79,1866.02 2974.00,1856.83
             2974.00,1856.83 2988.44,1841.99 2988.44,1841.99
             2989.83,1841.15 2990.53,1841.24 2992.00,1841.00
             2992.00,1845.46 2992.36,1852.95 2991.21,1857.00
             2987.18,1871.21 2970.54,1884.73 2959.00,1893.15
             2940.61,1906.56 2921.56,1915.86 2901.00,1925.31
             2901.00,1925.31 2854.00,1945.34 2854.00,1945.34
             2854.00,1945.34 2823.00,1956.67 2823.00,1956.67
             2819.58,1957.81 2811.26,1960.80 2808.00,1960.69
             2802.52,1960.49 2797.70,1953.56 2788.00,1950.79
             2783.31,1949.45 2775.93,1949.31 2771.00,1948.83
             2771.00,1948.83 2739.00,1946.00 2739.00,1946.00
             2740.97,1940.35 2748.87,1940.70 2754.00,1939.58 Z
           M 3181.04,2005.00
           C 3181.04,2005.00 3182.00,1994.00 3182.00,1994.00
             3182.00,1994.00 3181.09,1982.00 3181.09,1982.00
             3181.09,1982.00 3181.09,1964.00 3181.09,1964.00
             3181.09,1964.00 3177.85,1927.00 3177.85,1927.00
             3177.85,1927.00 3172.00,1894.00 3172.00,1894.00
             3172.00,1894.00 3168.64,1880.10 3168.64,1880.10
             3168.90,1877.19 3171.85,1875.64 3174.00,1874.12
             3174.00,1874.12 3188.00,1863.90 3188.00,1863.90
             3190.43,1862.13 3192.82,1860.17 3196.00,1860.97
             3199.16,1861.76 3209.86,1870.51 3213.00,1873.00
             3213.00,1873.00 3249.00,1902.71 3249.00,1902.71
             3249.00,1902.71 3299.00,1947.09 3299.00,1947.09
             3299.00,1947.09 3325.00,1971.91 3325.00,1971.91
             3325.00,1971.91 3370.00,2015.00 3370.00,2015.00
             3370.00,2015.00 3405.00,2049.00 3405.00,2049.00
             3409.94,2053.94 3416.83,2058.78 3418.00,2066.00
             3418.00,2066.00 3356.00,2054.26 3356.00,2054.26
             3356.00,2054.26 3181.04,2021.00 3181.04,2021.00
             3181.04,2021.00 3181.04,2005.00 3181.04,2005.00 Z
           M 3271.00,1874.86
           C 3307.50,1885.33 3343.56,1902.77 3378.00,1918.69
             3439.07,1946.93 3499.20,1976.90 3559.00,2007.74
             3559.00,2007.74 3650.00,2055.14 3650.00,2055.14
             3650.00,2055.14 3683.00,2072.31 3683.00,2072.31
             3683.00,2072.31 3738.00,2101.76 3738.00,2101.76
             3738.00,2101.76 3759.00,2113.14 3759.00,2113.14
             3763.80,2115.54 3768.22,2116.58 3770.00,2122.00
             3770.00,2122.00 3750.00,2118.25 3750.00,2118.25
             3750.00,2118.25 3689.00,2107.42 3689.00,2107.42
             3689.00,2107.42 3572.00,2086.61 3572.00,2086.61
             3572.00,2086.61 3515.00,2076.43 3515.00,2076.43
             3515.00,2076.43 3486.00,2070.98 3486.00,2070.98
             3482.76,2069.32 3476.05,2061.95 3473.00,2059.04
             3473.00,2059.04 3446.00,2034.28 3446.00,2034.28
             3446.00,2034.28 3395.00,1988.17 3395.00,1988.17
             3395.00,1988.17 3346.00,1946.13 3346.00,1946.13
             3322.20,1925.74 3297.19,1906.66 3272.00,1888.02
             3272.00,1888.02 3252.00,1874.33 3252.00,1874.33
             3248.40,1871.91 3244.56,1870.16 3243.00,1866.00
             3250.83,1866.71 3262.65,1872.46 3271.00,1874.86 Z
           M 3011.00,1979.34
           C 3011.00,1979.34 3033.00,1965.54 3033.00,1965.54
             3033.00,1965.54 3079.00,1933.52 3079.00,1933.52
             3079.00,1933.52 3099.00,1921.60 3099.00,1921.60
             3104.83,1918.15 3120.48,1908.35 3126.00,1907.00
             3125.43,1913.80 3122.53,1923.20 3120.73,1930.00
             3120.73,1930.00 3105.34,1980.00 3105.34,1980.00
             3105.34,1980.00 3099.66,1996.00 3099.66,1996.00
             3098.70,1998.70 3097.66,2002.18 3094.79,2003.24
             3092.44,2004.39 3088.48,2003.49 3086.00,2003.24
             3086.00,2003.24 3069.00,2000.08 3069.00,2000.08
             3069.00,2000.08 3002.00,1988.00 3002.00,1988.00
             3003.61,1983.10 3006.80,1982.07 3011.00,1979.34 Z
           M 2439.01,2307.91
           C 2439.01,2307.91 2456.00,2292.01 2456.00,2292.01
             2456.00,2292.01 2478.00,2271.91 2478.00,2271.91
             2478.00,2271.91 2531.00,2222.83 2531.00,2222.83
             2531.00,2222.83 2578.00,2179.09 2578.00,2179.09
             2578.00,2179.09 2649.00,2113.91 2649.00,2113.91
             2649.00,2113.91 2703.00,2063.83 2703.00,2063.83
             2703.00,2063.83 2756.00,2014.83 2756.00,2014.83
             2756.00,2014.83 2776.28,1996.14 2776.28,1996.14
             2776.28,1996.14 2808.00,1984.58 2808.00,1984.58
             2808.00,1984.58 2851.00,1968.00 2851.00,1968.00
             2849.13,1974.38 2844.82,1976.99 2840.09,1981.25
             2840.09,1981.25 2824.72,1996.42 2824.72,1996.42
             2824.72,1996.42 2778.00,2042.99 2778.00,2042.99
             2778.00,2042.99 2759.00,2061.00 2759.00,2061.00
             2759.00,2061.00 2705.91,2113.93 2705.91,2113.93
             2705.91,2113.93 2689.00,2130.00 2689.00,2130.00
             2689.00,2130.00 2647.00,2171.79 2647.00,2171.79
             2647.00,2171.79 2602.00,2203.02 2602.00,2203.02
             2602.00,2203.02 2522.00,2258.09 2522.00,2258.09
             2522.00,2258.09 2462.00,2299.42 2462.00,2299.42
             2455.16,2304.26 2438.13,2317.24 2431.00,2319.00
             2431.95,2313.04 2434.82,2311.89 2439.01,2307.91 Z
           M 2089.59,2544.00
           C 2088.04,2541.23 2082.44,2531.60 2082.59,2529.00
             2082.82,2524.72 2088.92,2520.80 2092.00,2518.34
             2092.00,2518.34 2117.00,2496.73 2117.00,2496.73
             2117.00,2496.73 2219.00,2408.92 2219.00,2408.92
             2219.00,2408.92 2273.00,2362.28 2273.00,2362.28
             2273.00,2362.28 2359.00,2288.28 2359.00,2288.28
             2359.00,2288.28 2490.00,2175.72 2490.00,2175.72
             2490.00,2175.72 2605.00,2076.42 2605.00,2076.42
             2605.00,2076.42 2694.00,1999.87 2694.00,1999.87
             2694.00,1999.87 2716.00,1980.93 2716.00,1980.93
             2719.50,1977.74 2721.95,1974.10 2727.04,1974.66
             2727.04,1974.66 2749.00,1977.73 2749.00,1977.73
             2752.98,1978.31 2756.80,1978.55 2759.40,1982.13
             2761.48,1984.99 2761.00,1989.59 2761.00,1993.00
             2755.45,1995.63 2746.83,2004.43 2742.00,2008.91
             2742.00,2008.91 2709.00,2038.92 2709.00,2038.92
             2709.00,2038.92 2606.00,2132.91 2606.00,2132.91
             2606.00,2132.91 2513.00,2217.17 2513.00,2217.17
             2513.00,2217.17 2448.00,2276.83 2448.00,2276.83
             2448.00,2276.83 2276.00,2433.17 2276.00,2433.17
             2276.00,2433.17 2155.00,2543.28 2155.00,2543.28
             2155.00,2543.28 2127.00,2569.00 2127.00,2569.00
             2122.31,2573.47 2116.51,2579.95 2110.00,2581.00
             2110.00,2581.00 2089.59,2544.00 2089.59,2544.00 Z
           M 1898.00,2114.01
           C 1907.04,2113.81 1915.38,2114.37 1917.00,2125.00
             1917.00,2125.00 1878.00,2125.00 1878.00,2125.00
             1872.95,2124.97 1870.96,2125.45 1870.00,2120.00
             1880.01,2117.72 1886.86,2114.27 1898.00,2114.01 Z
           M 3213.00,2153.58
           C 3213.00,2153.58 3298.00,2172.12 3298.00,2172.12
             3298.00,2172.12 3324.00,2177.79 3324.00,2177.79
             3329.75,2179.03 3336.11,2180.03 3340.83,2183.79
             3345.85,2187.79 3350.57,2197.25 3353.85,2203.00
             3353.85,2203.00 3372.01,2235.00 3372.01,2235.00
             3374.57,2241.82 3368.76,2262.23 3366.87,2270.00
             3366.87,2270.00 3348.79,2350.00 3348.79,2350.00
             3346.12,2362.37 3345.63,2376.87 3329.00,2375.91
             3329.00,2375.91 3273.00,2364.21 3273.00,2364.21
             3273.00,2364.21 3152.00,2337.88 3152.00,2337.88
             3152.00,2337.88 3110.00,2328.58 3110.00,2328.58
             3103.98,2327.25 3094.71,2325.90 3090.23,2321.61
             3086.23,2317.79 3086.57,2311.07 3087.46,2306.00
             3087.46,2306.00 3095.79,2269.00 3095.79,2269.00
             3095.79,2269.00 3108.58,2212.00 3108.58,2212.00
             3109.87,2206.18 3113.62,2187.14 3116.09,2183.04
             3118.75,2178.61 3126.62,2173.98 3131.00,2170.86
             3140.72,2163.94 3159.24,2149.02 3170.00,2146.47
             3180.33,2145.03 3201.92,2151.14 3213.00,2153.58 Z
           M 849.00,2165.00
           C 854.41,2168.61 874.54,2181.25 877.49,2185.09
             880.69,2189.26 883.58,2206.97 884.80,2213.00
             884.80,2213.00 892.88,2251.00 892.88,2251.00
             892.88,2251.00 897.96,2277.00 897.96,2277.00
             898.31,2286.12 894.51,2289.74 889.67,2297.00
             889.67,2297.00 873.67,2321.00 873.67,2321.00
             871.05,2324.93 866.98,2331.45 863.56,2334.44
             855.54,2341.47 844.59,2337.74 840.88,2328.00
             839.19,2323.57 838.12,2315.51 839.72,2311.00
             840.74,2308.15 844.94,2302.69 846.86,2300.00
             846.86,2300.00 866.32,2272.00 866.32,2272.00
             868.46,2267.66 865.94,2260.61 864.88,2256.00
             864.88,2256.00 858.21,2225.00 858.21,2225.00
             857.26,2220.54 856.65,2213.59 853.69,2210.18
             853.69,2210.18 831.00,2193.86 831.00,2193.86
             828.12,2191.81 823.47,2188.09 820.00,2187.58
             817.18,2187.17 811.01,2188.92 808.00,2189.58
             808.00,2189.58 788.00,2193.60 788.00,2193.60
             788.00,2193.60 712.00,2209.20 712.00,2209.20
             712.00,2209.20 689.00,2213.92 689.00,2213.92
             685.55,2214.54 676.80,2216.06 674.18,2217.85
             671.26,2219.86 668.68,2224.91 666.80,2228.00
             666.80,2228.00 652.22,2252.42 652.22,2252.42
             651.61,2255.10 654.15,2264.81 654.88,2268.00
             654.88,2268.00 661.58,2299.00 661.58,2299.00
             662.75,2304.34 662.80,2309.62 667.13,2313.47
             667.13,2313.47 697.00,2331.94 697.00,2331.94
             701.17,2334.50 706.50,2336.87 709.27,2341.04
             711.52,2344.44 711.95,2350.00 712.00,2354.00
             712.02,2356.22 712.11,2359.94 711.49,2362.00
             709.01,2370.16 699.89,2370.99 693.00,2368.44
             693.00,2368.44 656.00,2345.42 656.00,2345.42
             651.51,2342.61 643.77,2338.42 641.09,2333.96
             638.96,2330.42 637.09,2320.40 636.20,2316.00
             636.20,2316.00 630.20,2288.00 630.20,2288.00
             630.20,2288.00 621.04,2243.00 621.04,2243.00
             620.95,2240.73 620.99,2238.17 621.70,2236.00
             621.70,2236.00 641.00,2205.00 641.00,2205.00
             644.89,2199.10 651.34,2186.80 657.04,2183.36
             661.69,2180.56 670.48,2179.30 676.00,2178.20
             676.00,2178.20 708.00,2171.60 708.00,2171.60
             708.00,2171.60 816.00,2149.48 816.00,2149.48
             828.00,2148.33 839.36,2158.57 849.00,2165.00 Z
           M 3336.65,2276.00
           C 3337.74,2271.17 3342.86,2250.36 3342.44,2247.00
             3342.05,2243.82 3339.26,2239.79 3337.60,2237.00
             3337.60,2237.00 3326.91,2219.14 3326.91,2219.14
             3323.23,2214.52 3312.72,2213.43 3307.00,2212.21
             3307.00,2212.21 3255.00,2201.00 3255.00,2201.00
             3255.00,2201.00 3194.00,2187.79 3194.00,2187.79
             3189.58,2186.84 3172.18,2182.34 3169.00,2183.02
             3166.48,2183.56 3163.19,2186.17 3161.00,2187.66
             3156.68,2190.58 3142.18,2199.59 3139.98,2203.17
             3139.98,2203.17 3133.35,2230.00 3133.35,2230.00
             3133.35,2230.00 3124.58,2269.00 3124.58,2269.00
             3122.95,2276.36 3120.16,2285.75 3120.00,2293.00
             3120.00,2293.00 3156.00,2300.35 3156.00,2300.35
             3156.00,2300.35 3208.00,2311.58 3208.00,2311.58
             3208.00,2311.58 3273.00,2325.79 3273.00,2325.79
             3273.00,2325.79 3323.00,2337.00 3323.00,2337.00
             3323.00,2337.00 3336.65,2276.00 3336.65,2276.00 Z
           M 933.90,2391.00
           C 934.62,2401.50 928.45,2404.38 920.00,2408.14
             920.00,2408.14 890.00,2421.15 890.00,2421.15
             890.00,2421.15 785.00,2466.85 785.00,2466.85
             785.00,2466.85 758.00,2478.58 758.00,2478.58
             753.60,2480.49 749.03,2481.64 746.53,2486.05
             746.53,2486.05 738.42,2507.00 738.42,2507.00
             737.39,2509.74 735.02,2515.29 735.16,2518.00
             735.33,2521.36 742.82,2536.83 744.70,2541.00
             744.70,2541.00 765.77,2588.00 765.77,2588.00
             770.06,2597.40 780.65,2618.43 764.00,2622.47
             758.52,2623.80 752.32,2622.08 748.55,2617.79
             746.57,2615.52 744.20,2609.95 742.76,2607.00
             742.76,2607.00 731.42,2582.00 731.42,2582.00
             731.42,2582.00 712.69,2540.00 712.69,2540.00
             709.59,2533.22 703.30,2521.16 703.04,2514.00
             702.80,2507.02 707.00,2498.50 709.60,2492.00
             709.60,2492.00 724.05,2456.00 724.05,2456.00
             727.27,2449.30 733.58,2447.37 740.00,2444.58
             740.00,2444.58 772.00,2430.58 772.00,2430.58
             772.00,2430.58 864.00,2390.72 864.00,2390.72
             864.00,2390.72 913.00,2370.47 913.00,2370.47
             925.78,2368.96 933.09,2379.09 933.90,2391.00 Z
           M 3108.00,2445.25
           C 3108.00,2445.25 3066.00,2425.22 3066.00,2425.22
             3059.04,2421.93 3052.24,2419.67 3051.34,2411.00
             3050.57,2403.68 3057.50,2384.29 3071.00,2386.48
             3075.46,2387.21 3086.57,2392.54 3091.00,2394.75
             3091.00,2394.75 3123.00,2410.22 3123.00,2410.22
             3123.00,2410.22 3197.00,2445.26 3197.00,2445.26
             3197.00,2445.26 3239.00,2465.69 3239.00,2465.69
             3239.00,2465.69 3281.00,2485.75 3281.00,2485.75
             3287.53,2489.02 3294.70,2491.70 3295.66,2500.00
             3296.14,2504.12 3294.49,2508.35 3292.74,2512.00
             3288.34,2521.17 3283.88,2525.97 3273.00,2523.47
             3268.25,2522.38 3256.77,2516.63 3252.00,2514.25
             3252.00,2514.25 3224.00,2500.76 3224.00,2500.76
             3221.01,2499.29 3207.32,2492.78 3205.00,2492.57
             3201.93,2492.29 3194.37,2495.53 3191.00,2496.67
             3191.00,2496.67 3158.00,2508.58 3158.00,2508.58
             3158.00,2508.58 3086.00,2534.31 3086.00,2534.31
             3086.00,2534.31 3049.00,2548.00 3049.00,2548.00
             3049.00,2548.00 3081.00,2562.75 3081.00,2562.75
             3081.00,2562.75 3124.00,2583.25 3124.00,2583.25
             3124.00,2583.25 3174.00,2607.24 3174.00,2607.24
             3174.00,2607.24 3206.00,2622.58 3206.00,2622.58
             3211.12,2624.81 3220.71,2628.66 3223.85,2633.18
             3229.44,2641.22 3222.92,2658.40 3214.96,2662.69
             3212.16,2664.19 3208.08,2664.21 3205.00,2663.67
             3199.84,2662.77 3191.19,2657.69 3186.00,2655.31
             3186.00,2655.31 3148.00,2637.25 3148.00,2637.25
             3148.00,2637.25 3086.00,2607.74 3086.00,2607.74
             3086.00,2607.74 3039.00,2584.86 3039.00,2584.86
             3039.00,2584.86 2996.00,2564.25 2996.00,2564.25
             2986.33,2559.41 2979.55,2556.46 2982.76,2544.00
             2984.00,2539.18 2987.31,2532.63 2991.10,2529.39
             2994.48,2526.51 2998.94,2525.70 3003.00,2524.19
             3003.00,2524.19 3029.00,2515.00 3029.00,2515.00
             3029.00,2515.00 3107.00,2487.34 3107.00,2487.34
             3107.00,2487.34 3158.00,2469.00 3158.00,2469.00
             3158.00,2469.00 3108.00,2445.25 3108.00,2445.25 Z
           M 2242.49,2513.08
           C 2244.86,2514.46 2247.31,2524.13 2248.14,2527.00
             2248.14,2527.00 2258.34,2559.00 2258.34,2559.00
             2259.61,2562.67 2263.65,2573.71 2263.76,2577.00
             2263.92,2581.50 2260.91,2584.03 2258.00,2587.00
             2258.00,2587.00 2245.05,2600.58 2245.05,2600.58
             2245.05,2600.58 2211.96,2635.00 2211.96,2635.00
             2211.96,2635.00 2190.42,2657.00 2190.42,2657.00
             2190.42,2657.00 2174.00,2673.98 2174.00,2673.98
             2172.14,2675.75 2169.21,2679.04 2166.33,2677.83
             2164.25,2676.96 2161.57,2672.00 2160.43,2670.00
             2160.43,2670.00 2148.14,2648.00 2148.14,2648.00
             2148.14,2648.00 2135.72,2626.00 2135.72,2626.00
             2134.24,2623.40 2131.16,2619.04 2131.81,2616.00
             2132.53,2612.63 2138.38,2607.70 2141.00,2605.42
             2141.00,2605.42 2161.00,2586.72 2161.00,2586.72
             2161.00,2586.72 2180.00,2568.09 2180.00,2568.09
             2180.00,2568.09 2209.00,2541.00 2209.00,2541.00
             2209.00,2541.00 2238.98,2513.08 2238.98,2513.08
             2239.37,2513.00 2240.80,2512.09 2242.49,2513.08 Z
           M 1013.00,2569.04
           C 1015.08,2568.94 1018.06,2569.00 1020.00,2569.74
             1027.69,2572.68 1039.42,2589.45 1030.57,2599.70
             1028.33,2602.30 1020.27,2607.53 1017.00,2609.86
             1017.00,2609.86 989.00,2629.34 989.00,2629.34
             989.00,2629.34 911.00,2683.66 911.00,2683.66
             911.00,2683.66 881.00,2704.34 881.00,2704.34
             877.80,2706.52 868.98,2712.18 867.31,2715.18
             865.85,2717.82 866.12,2721.09 865.83,2724.00
             865.37,2728.59 862.90,2746.81 863.94,2750.00
             864.91,2752.98 877.76,2770.06 880.58,2774.00
             880.58,2774.00 893.58,2792.00 893.58,2792.00
             895.54,2794.72 898.37,2799.30 901.17,2801.02
             903.74,2802.58 917.14,2805.19 921.00,2806.13
             924.25,2806.92 932.07,2809.25 935.00,2808.83
             939.04,2808.25 952.80,2797.66 957.00,2794.72
             957.00,2794.72 1009.00,2758.42 1009.00,2758.42
             1009.00,2758.42 1091.00,2701.42 1091.00,2701.42
             1097.04,2697.16 1102.32,2693.51 1110.00,2695.99
             1119.90,2699.20 1129.77,2716.32 1122.35,2725.82
             1120.42,2728.29 1112.03,2733.88 1109.00,2735.98
             1109.00,2735.98 1084.00,2753.42 1084.00,2753.42
             1084.00,2753.42 995.00,2815.42 995.00,2815.42
             995.00,2815.42 971.00,2832.02 971.00,2832.02
             960.95,2838.96 959.65,2842.14 947.00,2842.00
             947.00,2842.00 908.00,2835.42 908.00,2835.42
             902.92,2834.51 891.05,2832.67 887.01,2830.15
             883.30,2827.84 880.69,2823.49 878.12,2820.00
             878.12,2820.00 862.85,2799.00 862.85,2799.00
             862.85,2799.00 841.85,2770.00 841.85,2770.00
             835.40,2761.16 830.76,2757.43 831.01,2746.00
             831.01,2746.00 836.58,2708.00 836.58,2708.00
             837.34,2703.06 838.57,2692.09 840.57,2688.00
             843.21,2682.58 850.08,2679.00 855.00,2675.66
             855.00,2675.66 884.00,2655.28 884.00,2655.28
             884.00,2655.28 970.00,2595.33 970.00,2595.33
             978.80,2589.39 1000.84,2572.69 1009.00,2569.64
             1009.00,2569.64 1013.00,2569.04 1013.00,2569.04 Z
           M 2986.00,2828.35
           C 2986.00,2828.35 3022.00,2856.12 3022.00,2856.12
             3026.97,2859.94 3046.48,2874.37 3048.99,2878.17
             3055.05,2887.32 3047.12,2900.14 3039.00,2904.99
             3031.80,2909.30 3023.12,2905.89 3017.00,2901.33
             3017.00,2901.33 2978.00,2871.37 2978.00,2871.37
             2978.00,2871.37 2943.00,2844.42 2943.00,2844.42
             2939.14,2841.41 2927.82,2833.07 2925.30,2829.96
             2922.74,2826.81 2921.33,2820.98 2920.00,2817.00
             2920.00,2817.00 2912.28,2793.00 2912.28,2793.00
             2912.28,2793.00 2889.00,2721.00 2889.00,2721.00
             2886.23,2712.62 2878.12,2691.66 2881.22,2684.00
             2882.13,2681.75 2884.01,2678.91 2885.52,2677.00
             2894.29,2665.81 2899.47,2667.64 2912.00,2668.92
             2912.00,2668.92 2921.00,2668.92 2921.00,2668.92
             2921.00,2668.92 2946.00,2670.91 2946.00,2670.91
             2946.00,2670.91 3005.00,2674.91 3005.00,2674.91
             3005.00,2674.91 3033.00,2676.83 3033.00,2676.83
             3037.25,2677.24 3042.10,2676.42 3046.00,2678.09
             3049.82,2679.72 3062.04,2689.49 3066.00,2692.58
             3066.00,2692.58 3103.00,2721.13 3103.00,2721.13
             3103.00,2721.13 3139.00,2749.00 3139.00,2749.00
             3145.07,2753.85 3150.50,2758.41 3148.61,2767.00
             3147.89,2770.29 3145.80,2773.36 3143.76,2775.99
             3137.91,2783.53 3130.41,2787.91 3121.00,2783.32
             3121.00,2783.32 3094.00,2763.13 3094.00,2763.13
             3094.00,2763.13 3038.00,2720.00 3038.00,2720.00
             3038.00,2720.00 2985.00,2787.00 2985.00,2787.00
             2985.00,2787.00 2965.00,2813.00 2965.00,2813.00
             2971.09,2816.22 2980.21,2823.89 2986.00,2828.35 Z
           M 2941.00,2700.72
           C 2941.00,2700.72 2914.00,2698.00 2914.00,2698.00
             2914.00,2698.00 2933.42,2752.00 2933.42,2752.00
             2933.42,2752.00 2946.00,2788.00 2946.00,2788.00
             2952.40,2783.20 2964.88,2766.15 2970.60,2759.00
             2970.60,2759.00 3011.00,2708.00 3011.00,2708.00
             3011.00,2708.00 2941.00,2700.72 2941.00,2700.72 Z
           M 1204.00,3011.00
           C 1203.98,3025.58 1198.80,3026.98 1189.01,3037.00
             1183.09,3043.07 1176.89,3052.05 1169.00,3055.47
             1164.04,3057.62 1156.49,3056.99 1151.00,3057.00
             1151.00,3057.00 1135.00,3058.00 1135.00,3058.00
             1135.00,3058.00 1110.00,3058.00 1110.00,3058.00
             1098.71,3057.98 1097.34,3054.07 1089.00,3046.72
             1089.00,3046.72 1079.00,3037.17 1079.00,3037.17
             1079.00,3037.17 1055.00,3015.01 1055.00,3015.01
             1055.00,3015.01 1014.00,2977.04 1014.00,2977.04
             1006.55,2969.92 1000.44,2967.55 1001.04,2956.00
             1001.45,2948.15 1006.80,2944.22 1012.00,2939.00
             1012.00,2939.00 1028.00,2922.00 1028.00,2922.00
             1028.00,2922.00 1105.00,2842.00 1105.00,2842.00
             1105.00,2842.00 1118.04,2828.00 1118.04,2828.00
             1118.04,2828.00 1139.96,2806.00 1139.96,2806.00
             1139.96,2806.00 1153.00,2792.00 1153.00,2792.00
             1158.41,2786.59 1167.25,2775.83 1175.00,2775.11
             1183.80,2774.29 1189.20,2780.44 1195.00,2785.96
             1195.00,2785.96 1223.00,2811.96 1223.00,2811.96
             1223.00,2811.96 1253.00,2839.83 1253.00,2839.83
             1258.11,2844.46 1266.07,2850.60 1268.78,2857.00
             1271.08,2862.45 1271.92,2884.16 1272.00,2891.00
             1272.00,2891.00 1272.96,2901.00 1272.96,2901.00
             1272.96,2901.00 1272.96,2913.00 1272.96,2913.00
             1272.98,2925.63 1268.36,2926.12 1260.09,2935.00
             1254.73,2940.75 1246.63,2950.86 1240.00,2954.64
             1233.92,2958.10 1211.59,2959.99 1204.00,2960.00
             1204.00,2960.00 1204.00,3011.00 1204.00,3011.00 Z
           M 1171.00,2829.00
           C 1171.00,2829.00 1139.00,2862.00 1139.00,2862.00
             1136.18,2864.82 1125.18,2875.37 1125.20,2879.00
             1125.21,2881.67 1129.17,2885.20 1131.00,2886.96
             1131.00,2886.96 1149.00,2903.58 1149.00,2903.58
             1149.00,2903.58 1167.00,2920.09 1167.00,2920.09
             1174.60,2927.17 1174.30,2929.98 1185.00,2930.00
             1190.46,2930.01 1206.61,2930.32 1211.00,2928.90
             1215.55,2927.41 1218.78,2922.41 1222.04,2919.00
             1225.97,2914.89 1238.81,2903.32 1240.40,2899.00
             1241.13,2897.02 1241.04,2893.18 1240.99,2891.00
             1240.99,2891.00 1240.00,2874.00 1240.00,2874.00
             1240.00,2871.98 1240.12,2868.89 1239.40,2867.04
             1238.35,2864.31 1227.73,2854.64 1225.00,2852.17
             1225.00,2852.17 1185.00,2815.00 1185.00,2815.00
             1179.62,2818.89 1175.67,2824.31 1171.00,2829.00 Z
           M 2706.99,2889.00
           C 2706.99,2889.00 2735.02,2920.00 2735.02,2920.00
             2735.02,2920.00 2772.17,2961.00 2772.17,2961.00
             2772.17,2961.00 2806.72,2999.00 2806.72,2999.00
             2806.72,2999.00 2822.92,3017.00 2822.92,3017.00
             2825.58,3019.89 2828.63,3024.16 2832.00,3026.02
             2835.60,3027.99 2840.98,3027.99 2845.00,3028.00
             2845.00,3028.00 2864.00,3028.98 2864.00,3028.98
             2865.88,3028.90 2867.26,3028.84 2869.00,3027.98
             2871.40,3026.79 2884.12,3015.51 2887.00,3012.95
             2887.00,3012.95 2923.00,2981.72 2923.00,2981.72
             2923.00,2981.72 2938.00,2968.53 2938.00,2968.53
             2952.24,2957.60 2965.06,2965.47 2963.80,2978.00
             2963.11,2984.93 2958.84,2988.60 2954.00,2992.95
             2954.00,2992.95 2932.00,3012.15 2932.00,3012.15
             2932.00,3012.15 2893.00,3046.15 2893.00,3046.15
             2889.01,3049.67 2879.79,3058.08 2875.00,3059.49
             2872.96,3060.09 2870.14,3060.00 2868.00,3060.00
             2868.00,3060.00 2829.00,3058.00 2829.00,3058.00
             2825.41,3057.95 2809.65,3056.77 2807.00,3055.57
             2803.10,3053.80 2798.96,3049.11 2795.98,3045.99
             2795.98,3045.99 2776.98,3025.00 2776.98,3025.00
             2776.98,3025.00 2704.02,2944.00 2704.02,2944.00
             2704.02,2944.00 2680.83,2918.00 2680.83,2918.00
             2674.75,2911.24 2669.49,2907.83 2670.04,2898.00
             2670.58,2888.43 2679.85,2882.60 2688.00,2879.65
             2697.00,2878.23 2701.14,2883.02 2706.99,2889.00 Z
           M 1077.99,2926.00
           C 1077.99,2926.00 1042.00,2964.00 1042.00,2964.00
             1042.00,2964.00 1088.00,3007.00 1088.00,3007.00
             1091.14,3010.09 1103.79,3022.22 1107.00,3023.40
             1108.94,3024.12 1111.91,3024.00 1114.00,3024.00
             1114.00,3024.00 1141.00,3024.00 1141.00,3024.00
             1151.69,3023.98 1150.47,3021.73 1158.01,3014.00
             1160.78,3011.17 1167.38,3005.12 1168.98,3002.00
             1170.68,2998.68 1170.99,2990.83 1171.15,2987.00
             1171.15,2987.00 1171.15,2972.00 1171.15,2972.00
             1171.25,2969.59 1172.12,2966.28 1171.15,2964.04
             1170.42,2961.27 1167.11,2958.89 1165.00,2956.91
             1165.00,2956.91 1152.00,2944.83 1152.00,2944.83
             1152.00,2944.83 1130.00,2924.09 1130.00,2924.09
             1130.00,2924.09 1104.00,2900.00 1104.00,2900.00
             1104.00,2900.00 1077.99,2926.00 1077.99,2926.00 Z
           M 2610.20,3016.00
           C 2610.20,3016.00 2589.32,2982.00 2589.32,2982.00
             2585.71,2976.27 2580.44,2969.09 2581.20,2962.00
             2582.43,2950.58 2603.23,2939.98 2612.79,2947.65
             2615.91,2950.15 2621.44,2960.12 2623.81,2964.00
             2623.81,2964.00 2643.68,2996.00 2643.68,2996.00
             2643.68,2996.00 2717.68,3116.00 2717.68,3116.00
             2717.68,3116.00 2733.05,3141.00 2733.05,3141.00
             2736.08,3145.85 2740.24,3152.02 2739.78,3158.00
             2739.21,3165.29 2733.07,3169.97 2727.00,3173.01
             2710.87,3181.07 2706.09,3171.07 2698.58,3159.00
             2698.58,3159.00 2676.95,3124.00 2676.95,3124.00
             2675.00,3120.89 2668.82,3110.42 2666.62,3108.56
             2663.74,3106.13 2655.88,3105.01 2652.00,3104.12
             2652.00,3104.12 2619.00,3096.79 2619.00,3096.79
             2619.00,3096.79 2551.00,3081.42 2551.00,3081.42
             2551.00,3081.42 2505.00,3071.00 2505.00,3071.00
             2505.00,3071.00 2549.05,3142.00 2549.05,3142.00
             2549.05,3142.00 2577.40,3188.00 2577.40,3188.00
             2577.40,3188.00 2595.81,3218.00 2595.81,3218.00
             2598.70,3222.72 2603.11,3228.67 2604.31,3234.00
             2607.02,3246.00 2593.63,3255.42 2583.00,3255.96
             2571.74,3256.53 2569.57,3249.57 2564.40,3241.00
             2564.40,3241.00 2550.68,3219.00 2550.68,3219.00
             2550.68,3219.00 2475.42,3097.00 2475.42,3097.00
             2475.42,3097.00 2450.20,3056.00 2450.20,3056.00
             2446.11,3049.20 2443.43,3041.92 2449.34,3035.09
             2451.46,3032.64 2454.18,3030.86 2457.00,3029.31
             2467.31,3023.65 2473.41,3026.22 2484.00,3028.58
             2484.00,3028.58 2503.00,3032.88 2503.00,3032.88
             2503.00,3032.88 2577.00,3049.65 2577.00,3049.65
             2577.00,3049.65 2640.00,3064.00 2640.00,3064.00
             2640.00,3064.00 2610.20,3016.00 2610.20,3016.00 Z
           M 1535.00,3035.75
           C 1535.00,3035.75 1556.00,3045.75 1556.00,3045.75
             1556.00,3045.75 1586.00,3060.69 1586.00,3060.69
             1591.08,3063.02 1600.89,3066.92 1604.78,3070.53
             1608.22,3073.72 1610.96,3082.41 1612.80,3087.00
             1617.20,3097.97 1628.58,3121.11 1627.91,3132.00
             1627.25,3142.68 1616.36,3160.11 1611.26,3170.00
             1611.26,3170.00 1573.25,3246.00 1573.25,3246.00
             1573.25,3246.00 1561.25,3269.00 1561.25,3269.00
             1558.53,3274.44 1555.94,3280.62 1550.96,3284.37
             1545.19,3288.71 1535.94,3290.50 1529.00,3292.42
             1529.00,3292.42 1492.00,3302.32 1492.00,3302.32
             1485.57,3303.47 1480.57,3300.01 1475.00,3297.25
             1475.00,3297.25 1452.00,3286.25 1452.00,3286.25
             1452.00,3286.25 1419.00,3270.25 1419.00,3270.25
             1415.27,3268.38 1404.86,3263.49 1402.22,3261.21
             1398.67,3258.16 1396.02,3249.54 1394.20,3245.00
             1394.20,3245.00 1384.20,3220.00 1384.20,3220.00
             1381.74,3213.84 1378.78,3206.80 1379.32,3200.00
             1380.28,3188.00 1393.93,3164.20 1400.14,3153.00
             1400.14,3153.00 1407.11,3139.00 1407.11,3139.00
             1407.11,3139.00 1434.69,3085.00 1434.69,3085.00
             1439.76,3075.63 1448.60,3053.40 1456.02,3047.53
             1462.07,3042.73 1470.61,3041.07 1478.00,3039.12
             1478.00,3039.12 1513.00,3029.51 1513.00,3029.51
             1522.61,3028.01 1526.74,3031.62 1535.00,3035.75 Z
           M 1496.00,3066.00
           C 1493.39,3066.86 1488.36,3068.10 1486.39,3069.72
             1484.13,3071.58 1482.10,3076.30 1480.75,3079.00
             1480.75,3079.00 1472.14,3096.00 1472.14,3096.00
             1472.14,3096.00 1435.75,3168.00 1435.75,3168.00
             1435.75,3168.00 1420.75,3198.00 1420.75,3198.00
             1419.24,3201.02 1414.99,3208.04 1415.02,3211.00
             1415.04,3213.42 1417.97,3220.38 1418.95,3223.00
             1420.38,3226.83 1424.55,3239.12 1426.70,3241.61
             1428.80,3244.06 1434.92,3246.71 1438.00,3248.25
             1438.00,3248.25 1462.00,3260.25 1462.00,3260.25
             1462.00,3260.25 1479.00,3268.26 1479.00,3268.26
             1482.20,3269.80 1485.33,3271.76 1489.00,3271.72
             1492.61,3271.69 1507.46,3266.75 1512.00,3265.42
             1515.10,3264.52 1519.18,3263.70 1521.61,3261.49
             1524.26,3259.09 1529.80,3246.91 1531.75,3243.00
             1531.75,3243.00 1552.25,3202.00 1552.25,3202.00
             1552.25,3202.00 1577.42,3152.00 1577.42,3152.00
             1577.42,3152.00 1587.75,3132.00 1587.75,3132.00
             1588.98,3129.54 1591.77,3124.53 1591.99,3122.00
             1592.21,3119.47 1590.49,3115.44 1589.58,3113.00
             1588.10,3109.09 1582.03,3091.74 1580.19,3089.63
             1578.44,3087.63 1572.59,3085.05 1570.00,3083.75
             1570.00,3083.75 1547.00,3072.75 1547.00,3072.75
             1540.40,3069.48 1524.28,3060.26 1518.00,3059.53
             1518.00,3059.53 1496.00,3066.00 1496.00,3066.00 Z
           M 2292.00,3127.66
           C 2277.36,3126.16 2276.76,3111.59 2282.42,3105.21
             2285.88,3101.30 2297.74,3097.27 2303.00,3095.20
             2303.00,3095.20 2353.00,3075.80 2353.00,3075.80
             2358.57,3073.61 2372.50,3067.66 2378.00,3068.37
             2391.17,3070.05 2390.70,3085.43 2386.35,3090.79
             2382.36,3095.72 2364.60,3101.38 2358.00,3104.00
             2358.00,3104.00 2373.80,3143.00 2373.80,3143.00
             2373.80,3143.00 2412.40,3238.00 2412.40,3238.00
             2412.40,3238.00 2424.85,3269.00 2424.85,3269.00
             2424.85,3269.00 2434.00,3294.00 2434.00,3294.00
             2442.54,3291.04 2458.55,3282.70 2467.00,3284.23
             2478.34,3286.27 2479.73,3301.51 2471.79,3308.21
             2467.43,3311.89 2447.39,3319.32 2441.00,3321.68
             2441.00,3321.68 2392.00,3340.95 2392.00,3340.95
             2387.84,3342.46 2382.42,3344.37 2378.00,3343.46
             2368.39,3341.47 2363.47,3330.48 2369.01,3322.10
             2371.38,3318.51 2375.21,3317.32 2379.00,3315.80
             2379.00,3315.80 2399.00,3308.00 2399.00,3308.00
             2399.00,3308.00 2385.58,3276.00 2385.58,3276.00
             2385.58,3276.00 2353.40,3197.00 2353.40,3197.00
             2353.40,3197.00 2333.99,3149.00 2333.99,3149.00
             2333.99,3149.00 2322.00,3118.00 2322.00,3118.00
             2315.08,3120.77 2298.71,3128.35 2292.00,3127.66 Z
           M 2160.42,3311.00
           C 2160.42,3311.00 2170.65,3358.00 2170.65,3358.00
             2172.01,3364.03 2177.37,3386.30 2176.43,3391.00
             2174.51,3400.63 2164.37,3402.90 2156.00,3403.00
             2152.35,3403.04 2147.12,3403.51 2144.06,3401.40
             2139.75,3398.44 2139.01,3392.74 2138.00,3388.00
             2138.00,3388.00 2131.40,3358.00 2131.40,3358.00
             2131.40,3358.00 2108.58,3254.00 2108.58,3254.00
             2108.58,3254.00 2098.01,3202.00 2098.01,3202.00
             2097.71,3188.42 2104.49,3182.50 2112.15,3172.00
             2115.96,3166.78 2130.26,3146.37 2134.09,3143.72
             2137.43,3141.41 2150.37,3139.14 2155.00,3138.20
             2155.00,3138.20 2196.00,3129.42 2196.00,3129.42
             2202.27,3128.05 2225.04,3122.99 2230.00,3123.39
             2238.79,3124.10 2243.24,3131.68 2241.77,3140.00
             2239.95,3150.35 2227.28,3151.00 2219.00,3152.79
             2219.00,3152.79 2174.00,3162.40 2174.00,3162.40
             2169.87,3163.23 2155.94,3165.75 2153.18,3167.73
             2150.39,3169.74 2147.62,3174.99 2145.66,3178.00
             2143.41,3181.44 2136.30,3191.56 2135.68,3195.00
             2135.16,3197.89 2138.41,3210.31 2139.21,3214.00
             2139.21,3214.00 2144.65,3239.00 2144.65,3239.00
             2144.65,3239.00 2149.00,3259.00 2149.00,3259.00
             2149.00,3259.00 2169.00,3255.00 2169.00,3255.00
             2169.00,3255.00 2209.00,3246.79 2209.00,3246.79
             2209.00,3246.79 2233.00,3242.04 2233.00,3242.04
             2236.97,3241.88 2240.49,3242.11 2243.66,3244.80
             2249.78,3250.01 2250.35,3263.07 2240.00,3267.94
             2233.98,3270.78 2221.08,3272.71 2214.00,3274.21
             2214.00,3274.21 2184.00,3280.60 2184.00,3280.60
             2184.00,3280.60 2155.00,3287.00 2155.00,3287.00
             2155.00,3287.00 2160.42,3311.00 2160.42,3311.00 Z
           M 1760.00,3246.12
           C 1760.00,3246.12 1800.00,3256.92 1800.00,3256.92
             1811.35,3262.42 1810.33,3278.65 1798.00,3282.21
             1791.40,3284.12 1781.53,3280.92 1775.00,3279.15
             1775.00,3279.15 1732.00,3267.87 1732.00,3267.87
             1732.00,3267.87 1717.00,3263.88 1717.00,3263.88
             1715.16,3263.41 1712.09,3262.49 1710.30,3263.32
             1708.02,3264.37 1707.44,3267.81 1706.87,3270.00
             1706.87,3270.00 1702.00,3288.00 1702.00,3288.00
             1702.00,3288.00 1686.86,3343.00 1686.86,3343.00
             1685.24,3348.71 1682.59,3361.65 1678.61,3365.44
             1672.07,3371.67 1658.04,3368.09 1651.04,3364.18
             1642.95,3359.65 1644.94,3351.39 1646.88,3344.00
             1646.88,3344.00 1660.37,3294.00 1660.37,3294.00
             1660.37,3294.00 1686.12,3199.00 1686.12,3199.00
             1686.12,3199.00 1693.71,3171.00 1693.71,3171.00
             1695.30,3165.41 1696.66,3159.64 1700.39,3155.02
             1705.02,3149.27 1713.43,3146.06 1720.00,3142.75
             1730.15,3137.64 1743.38,3129.47 1754.00,3126.09
             1761.81,3123.61 1771.16,3127.66 1779.00,3129.63
             1779.00,3129.63 1828.00,3142.63 1828.00,3142.63
             1833.72,3144.07 1848.75,3147.30 1852.79,3150.65
             1858.82,3155.64 1858.40,3167.80 1851.90,3172.26
             1849.05,3174.22 1845.32,3174.06 1842.00,3173.99
             1835.23,3173.83 1826.65,3170.95 1820.00,3169.15
             1820.00,3169.15 1783.00,3159.63 1783.00,3159.63
             1783.00,3159.63 1765.00,3154.99 1765.00,3154.99
             1759.70,3154.36 1752.60,3159.66 1748.00,3162.28
             1744.21,3164.44 1736.14,3168.62 1733.93,3172.10
             1732.43,3174.47 1729.55,3186.49 1728.58,3190.00
             1728.58,3190.00 1716.00,3235.00 1716.00,3235.00
             1716.00,3235.00 1760.00,3246.12 1760.00,3246.12 Z" />
</svg>
