<?xml version="1.0" encoding="UTF-8" standalone="no"?>
<!DOCTYPE svg PUBLIC "-//W3C//DTD SVG 20010904//EN"
              "http://www.w3.org/TR/2001/REC-SVG-20010904/DTD/svg10.dtd">

<svg xmlns="http://www.w3.org/2000/svg"
     width="56.338in" height="56.338in"
     viewBox="0 0 4000 4000">
  <path id="Selection"
        fill="none" stroke="black" stroke-width="1"
        d="M 2033.00,1367.63
           C 2022.29,1359.63 2013.18,1351.96 2004.17,1342.00
             1964.11,1297.71 1943.30,1253.05 1944.00,1193.00
             1944.00,1193.00 1944.91,1183.00 1944.91,1183.00
             1946.89,1155.86 1955.51,1129.60 1969.00,1106.00
             1971.81,1101.09 1980.63,1086.43 1985.09,1084.02
             1986.96,1083.01 1988.94,1083.04 1991.00,1083.00
             1993.54,1082.96 1997.72,1083.24 2000.00,1082.40
             2002.72,1081.41 2007.63,1076.80 2010.00,1074.72
             2010.00,1074.72 2030.00,1057.47 2030.00,1057.47
             2049.06,1043.16 2073.80,1030.25 2097.00,1024.37
             2128.95,1016.28 2159.59,1014.17 2192.00,1021.50
             2229.30,1029.93 2263.56,1048.40 2290.96,1075.09
             2290.96,1075.09 2304.60,1091.00 2304.60,1091.00
             2330.20,1123.05 2344.24,1159.18 2347.09,1200.00
             2347.09,1200.00 2348.00,1213.00 2348.00,1213.00
             2348.00,1213.00 2347.09,1223.00 2347.09,1223.00
             2343.73,1271.03 2325.58,1310.66 2292.83,1345.99
             2287.68,1351.54 2272.45,1364.11 2266.00,1368.85
             2261.04,1372.49 2253.90,1375.50 2251.00,1381.00
             2251.00,1381.00 2298.00,1381.00 2298.00,1381.00
             2298.00,1381.00 2315.00,1382.00 2315.00,1382.00
             2315.00,1382.00 2420.00,1382.00 2420.00,1382.00
             2420.00,1382.00 2421.00,1361.00 2421.00,1361.00
             2421.00,1361.00 2429.00,1361.00 2429.00,1361.00
             2429.00,1361.00 2429.00,1358.00 2429.00,1358.00
             2429.00,1358.00 2443.00,1359.00 2443.00,1359.00
             2443.00,1359.00 2443.00,1379.00 2443.00,1379.00
             2443.00,1379.00 2442.00,1395.00 2442.00,1395.00
             2442.00,1395.00 2442.00,1436.00 2442.00,1436.00
             2442.00,1436.00 2428.00,1436.00 2428.00,1436.00
             2428.00,1436.00 2428.00,1424.00 2428.00,1424.00
             2428.00,1424.00 2419.00,1424.00 2419.00,1424.00
             2419.00,1424.00 2419.00,1407.00 2419.00,1407.00
             2419.00,1407.00 2323.00,1407.00 2323.00,1407.00
             2323.00,1407.00 2308.00,1406.00 2308.00,1406.00
             2308.00,1406.00 2133.00,1406.00 2133.00,1406.00
             2133.00,1406.00 2118.00,1405.00 2118.00,1405.00
             2118.00,1405.00 1944.00,1405.00 1944.00,1405.00
             1944.00,1405.00 1929.00,1404.00 1929.00,1404.00
             1929.00,1404.00 1883.00,1404.00 1883.00,1404.00
             1880.61,1404.00 1877.31,1403.79 1875.21,1405.02
             1872.84,1406.40 1870.63,1410.68 1868.67,1412.99
             1864.16,1418.31 1854.28,1424.44 1847.00,1423.69
             1842.94,1423.27 1836.53,1417.93 1833.00,1415.50
             1820.70,1407.04 1803.93,1398.49 1805.32,1381.00
             1805.74,1375.78 1808.25,1366.71 1813.10,1364.02
             1816.29,1362.25 1831.45,1363.05 1836.00,1363.00
             1840.92,1362.94 1855.67,1361.65 1859.54,1363.99
             1859.54,1363.99 1874.18,1379.98 1874.18,1379.98
             1876.35,1381.21 1879.56,1381.00 1882.00,1381.00
             1882.00,1381.00 2049.00,1381.00 2049.00,1381.00
             2046.14,1375.28 2038.21,1371.51 2033.00,1367.63 Z
           M 2081.00,1043.45
           C 2029.80,1063.77 1991.56,1104.73 1974.52,1157.00
             1969.75,1171.63 1967.63,1186.72 1966.96,1202.00
             1966.96,1202.00 1966.03,1212.00 1966.03,1212.00
             1966.03,1212.00 1967.04,1221.00 1967.04,1221.00
             1967.04,1221.00 1967.04,1230.00 1967.04,1230.00
             1969.20,1251.24 1975.23,1271.94 1984.75,1291.00
             1988.62,1298.73 1991.65,1304.97 1996.90,1312.00
             2015.58,1337.06 2044.13,1356.49 2073.00,1368.00
             2086.64,1373.44 2111.46,1379.83 2126.00,1380.00
             2126.00,1380.00 2155.00,1380.00 2155.00,1380.00
             2162.78,1379.99 2163.72,1379.34 2171.00,1378.27
             2197.60,1374.35 2223.78,1364.15 2246.00,1348.97
             2308.08,1306.57 2337.20,1232.11 2320.65,1159.00
             2315.94,1138.18 2307.83,1117.39 2295.26,1100.00
             2290.08,1092.84 2286.14,1089.13 2280.00,1083.00
             2253.22,1056.26 2216.45,1038.13 2179.00,1032.73
             2172.61,1031.81 2168.58,1031.01 2162.00,1031.10
             2162.00,1031.10 2136.00,1031.10 2136.00,1031.10
             2136.00,1031.10 2131.00,1031.10 2131.00,1031.10
             2112.51,1034.00 2098.64,1036.45 2081.00,1043.45 Z
           M 1479.00,1224.00
           C 1479.00,1224.00 1480.14,1207.00 1480.14,1207.00
             1480.14,1207.00 1480.14,1151.00 1480.14,1151.00
             1480.00,1149.06 1479.92,1145.82 1480.14,1144.02
             1481.77,1139.27 1486.70,1136.51 1490.70,1140.32
             1494.45,1143.89 1493.90,1150.29 1494.01,1155.00
             1494.01,1155.00 1496.92,1181.00 1496.92,1181.00
             1500.32,1201.17 1505.67,1221.96 1513.20,1241.00
             1513.20,1241.00 1528.00,1274.20 1528.00,1274.20
             1524.64,1274.27 1518.14,1275.67 1515.21,1274.20
             1512.14,1273.07 1509.68,1266.99 1508.31,1264.00
             1508.31,1264.00 1499.42,1243.00 1499.42,1243.00
             1497.63,1238.25 1497.58,1234.72 1493.00,1232.00
             1493.00,1232.00 1493.00,1278.00 1493.00,1278.00
             1493.00,1278.00 1479.00,1279.00 1479.00,1279.00
             1479.00,1279.00 1479.00,1224.00 1479.00,1224.00 Z
           M 2157.46,1603.00
           C 2159.40,1605.70 2160.78,1609.64 2164.02,1611.18
             2168.90,1613.49 2169.99,1607.17 2177.00,1609.37
             2177.00,1609.37 2196.00,1618.22 2196.00,1618.22
             2196.00,1618.22 2234.00,1635.86 2234.00,1635.86
             2234.00,1635.86 2254.00,1645.26 2254.00,1645.26
             2256.56,1646.49 2260.08,1648.72 2263.00,1648.05
             2266.77,1647.19 2274.89,1638.05 2278.00,1635.01
             2278.00,1635.01 2311.00,1604.00 2311.00,1604.00
             2311.00,1604.00 2356.00,1561.91 2356.00,1561.91
             2356.00,1561.91 2425.00,1496.83 2425.00,1496.83
             2425.00,1496.83 2437.00,1485.09 2437.00,1485.09
             2437.00,1485.09 2460.00,1463.99 2460.00,1463.99
             2460.00,1463.99 2474.00,1450.99 2474.00,1450.99
             2476.75,1448.30 2480.43,1444.10 2484.00,1442.74
             2486.91,1441.63 2493.61,1442.06 2497.00,1442.00
             2507.21,1441.81 2514.02,1431.48 2521.00,1425.17
             2521.00,1425.17 2574.09,1375.70 2574.09,1375.70
             2578.29,1371.84 2587.38,1362.01 2592.00,1359.99
             2596.98,1357.80 2600.87,1361.07 2601.92,1366.00
             2601.92,1366.00 2601.92,1372.00 2601.92,1372.00
             2601.92,1372.00 2601.92,1473.00 2601.92,1473.00
             2601.92,1473.00 2601.00,1488.00 2601.00,1488.00
             2601.00,1488.00 2601.00,1568.00 2601.00,1568.00
             2601.01,1570.93 2600.55,1575.12 2603.31,1576.98
             2604.87,1578.02 2613.47,1578.94 2616.00,1579.45
             2624.56,1581.17 2632.90,1583.77 2641.00,1587.00
             2643.50,1588.00 2653.14,1592.52 2654.91,1592.41
             2659.35,1592.14 2661.35,1584.58 2666.09,1582.02
             2669.48,1580.19 2674.94,1582.13 2685.00,1579.00
             2685.00,1579.00 2731.00,1658.00 2731.00,1658.00
             2731.00,1658.00 2683.00,1653.17 2683.00,1653.17
             2683.00,1653.17 2637.00,1648.00 2637.00,1648.00
             2637.66,1646.25 2640.05,1641.67 2639.90,1640.23
             2639.51,1636.58 2630.06,1636.55 2627.00,1636.00
             2627.00,1636.00 2637.98,1620.00 2637.98,1620.00
             2639.17,1618.26 2642.10,1614.34 2641.90,1612.22
             2641.58,1608.98 2634.60,1607.57 2632.00,1606.88
             2622.05,1604.26 2611.31,1602.23 2601.00,1602.00
             2601.00,1602.00 2601.00,1767.00 2601.00,1767.00
             2601.00,1767.00 2578.00,1767.00 2578.00,1767.00
             2578.00,1767.00 2578.00,1605.00 2578.00,1605.00
             2578.00,1605.00 2579.00,1590.00 2579.00,1590.00
             2579.00,1590.00 2579.00,1471.00 2579.00,1471.00
             2579.00,1471.00 2580.00,1456.00 2580.00,1456.00
             2580.00,1456.00 2580.00,1442.00 2580.00,1442.00
             2580.00,1442.00 2587.00,1442.00 2587.00,1442.00
             2587.00,1442.00 2588.00,1423.00 2588.00,1423.00
             2588.00,1423.00 2588.00,1383.00 2588.00,1383.00
             2580.59,1386.50 2569.50,1398.95 2563.00,1404.83
             2563.00,1404.83 2511.00,1453.99 2511.00,1453.99
             2511.00,1453.99 2483.00,1480.09 2483.00,1480.09
             2483.00,1480.09 2416.00,1543.91 2416.00,1543.91
             2416.00,1543.91 2364.00,1593.00 2364.00,1593.00
             2364.00,1593.00 2312.00,1642.00 2312.00,1642.00
             2312.00,1642.00 2299.00,1654.17 2299.00,1654.17
             2297.40,1655.63 2293.91,1658.83 2293.34,1660.90
             2292.14,1665.20 2304.80,1669.27 2308.00,1670.78
             2313.00,1673.14 2333.96,1682.59 2336.57,1685.39
             2339.08,1688.09 2338.59,1690.50 2340.01,1692.61
             2342.03,1695.62 2347.64,1696.77 2347.38,1702.00
             2347.21,1705.44 2344.25,1707.97 2341.96,1710.17
             2341.96,1710.17 2328.00,1723.04 2328.00,1723.04
             2328.00,1723.04 2279.00,1768.09 2279.00,1768.09
             2275.13,1771.69 2265.49,1781.56 2261.00,1783.26
             2258.89,1784.06 2255.28,1784.08 2253.00,1783.98
             2246.53,1783.71 2247.42,1781.52 2243.66,1777.37
             2242.02,1775.57 2240.91,1775.07 2239.35,1772.79
             2239.35,1772.79 2226.42,1747.00 2226.42,1747.00
             2225.24,1744.28 2221.22,1734.17 2218.61,1733.34
             2215.85,1732.45 2209.18,1739.37 2207.00,1741.28
             2207.00,1741.28 2194.00,1753.96 2194.00,1753.96
             2194.00,1753.96 2184.00,1763.01 2184.00,1763.01
             2181.03,1765.90 2176.63,1771.23 2172.02,1770.46
             2167.04,1769.63 2165.70,1763.59 2161.83,1759.28
             2152.49,1748.88 2142.83,1724.39 2136.24,1711.00
             2136.24,1711.00 2128.74,1696.02 2128.74,1696.02
             2127.92,1694.55 2126.77,1692.20 2124.79,1692.20
             2122.79,1692.20 2120.41,1694.68 2119.00,1695.93
             2115.76,1698.79 2112.55,1701.54 2109.00,1704.00
             2109.00,1704.00 2098.70,1691.05 2098.70,1691.05
             2098.70,1691.05 2090.29,1683.87 2090.29,1683.87
             2090.29,1683.87 2076.00,1665.00 2076.00,1665.00
             2076.00,1665.00 2115.00,1627.99 2115.00,1627.99
             2115.00,1627.99 2150.00,1595.00 2150.00,1595.00
             2152.30,1597.30 2155.62,1600.44 2157.46,1603.00 Z
           M 1829.69,1385.01
           C 1825.54,1393.09 1828.17,1399.90 1838.00,1398.69
             1842.86,1398.09 1847.39,1395.95 1850.35,1391.96
             1856.95,1383.06 1854.61,1375.92 1843.00,1376.36
             1837.30,1377.56 1832.50,1379.53 1829.69,1385.01 Z
           M 1640.00,1566.78
           C 1640.00,1566.78 1712.00,1532.76 1712.00,1532.76
             1712.00,1532.76 1741.00,1519.22 1741.00,1519.22
             1741.00,1519.22 1772.00,1504.31 1772.00,1504.31
             1772.00,1504.31 1798.87,1491.59 1798.87,1491.59
             1805.28,1487.48 1801.67,1476.62 1810.18,1469.31
             1813.05,1466.85 1815.46,1467.02 1819.00,1466.92
             1819.00,1466.92 1835.00,1466.92 1835.00,1466.92
             1835.00,1466.92 1847.00,1465.09 1847.00,1465.09
             1850.01,1464.92 1864.64,1466.81 1866.99,1468.02
             1869.83,1469.49 1873.68,1474.43 1875.87,1477.00
             1886.87,1489.97 1889.84,1505.19 1880.30,1520.00
             1877.10,1524.97 1874.07,1528.40 1869.00,1531.53
             1860.68,1536.67 1855.40,1537.11 1846.00,1537.00
             1836.90,1536.89 1828.72,1532.98 1822.17,1526.70
             1817.84,1522.54 1815.80,1516.80 1811.91,1516.95
             1810.28,1517.01 1801.30,1521.42 1799.00,1522.42
             1799.00,1522.42 1765.00,1538.69 1765.00,1538.69
             1765.00,1538.69 1680.00,1578.78 1680.00,1578.78
             1680.00,1578.78 1645.00,1595.58 1645.00,1595.58
             1645.00,1595.58 1613.00,1610.75 1613.00,1610.75
             1610.43,1612.04 1600.96,1616.13 1599.60,1617.65
             1597.66,1619.80 1598.01,1623.28 1598.00,1626.00
             1598.00,1626.00 1598.00,1675.00 1598.00,1675.00
             1598.00,1675.00 1597.00,1692.00 1597.00,1692.00
             1608.96,1691.74 1632.14,1687.49 1643.00,1682.69
             1646.27,1681.25 1654.53,1678.34 1655.59,1674.90
             1656.31,1672.55 1654.51,1669.97 1653.42,1668.00
             1651.10,1663.79 1649.33,1660.67 1648.00,1656.00
             1648.00,1656.00 1679.00,1656.00 1679.00,1656.00
             1679.00,1656.00 1696.00,1655.00 1696.00,1655.00
             1696.00,1655.00 1744.00,1655.00 1744.00,1655.00
             1741.62,1660.62 1736.50,1666.91 1732.86,1672.00
             1732.86,1672.00 1713.42,1699.00 1713.42,1699.00
             1708.23,1706.26 1695.82,1725.15 1690.00,1730.00
             1681.87,1714.62 1682.48,1720.46 1677.77,1712.00
             1676.35,1709.44 1673.48,1703.33 1670.79,1702.23
             1667.94,1701.07 1655.86,1707.69 1652.00,1709.00
             1640.35,1712.94 1628.19,1715.25 1616.00,1716.72
             1611.99,1717.20 1602.03,1716.37 1599.31,1718.17
             1596.53,1720.03 1597.01,1724.06 1597.00,1727.00
             1597.00,1727.00 1597.00,1876.00 1597.00,1876.00
             1597.00,1876.00 1596.00,1891.00 1596.00,1891.00
             1596.00,1891.00 1596.00,1917.00 1596.00,1917.00
             1591.73,1914.92 1577.13,1905.38 1575.02,1901.71
             1573.78,1899.56 1574.00,1896.43 1574.00,1894.00
             1574.00,1894.00 1574.00,1782.00 1574.00,1782.00
             1562.95,1782.00 1553.56,1779.83 1543.00,1776.71
             1540.13,1775.86 1532.59,1772.29 1530.32,1773.23
             1528.21,1774.11 1525.33,1779.01 1524.00,1781.00
             1524.00,1781.00 1511.00,1801.00 1511.00,1801.00
             1503.74,1794.66 1492.29,1775.80 1487.00,1767.00
             1487.00,1767.00 1461.00,1722.00 1461.00,1722.00
             1461.00,1722.00 1487.00,1724.09 1487.00,1724.09
             1487.00,1724.09 1511.00,1726.00 1511.00,1726.00
             1511.00,1726.00 1542.00,1726.00 1542.00,1726.00
             1545.10,1731.49 1550.35,1730.00 1556.00,1730.00
             1556.00,1730.00 1544.00,1754.00 1544.00,1754.00
             1544.00,1754.00 1574.00,1757.00 1574.00,1757.00
             1574.00,1757.00 1574.00,1731.00 1574.00,1731.00
             1574.00,1731.00 1575.00,1714.00 1575.00,1714.00
             1575.00,1714.00 1575.00,1630.00 1575.00,1630.00
             1566.65,1631.56 1557.78,1637.12 1550.00,1640.69
             1550.00,1640.69 1503.00,1662.78 1503.00,1662.78
             1496.57,1665.82 1480.81,1676.97 1477.21,1664.98
             1476.96,1663.31 1477.02,1660.77 1477.21,1659.00
             1473.18,1658.56 1470.35,1657.93 1468.74,1653.96
             1467.71,1651.43 1468.00,1644.98 1468.00,1642.00
             1468.00,1642.00 1468.00,1618.00 1468.00,1618.00
             1468.00,1618.00 1469.00,1604.00 1469.00,1604.00
             1469.00,1604.00 1469.00,1578.00 1469.00,1578.00
             1469.01,1576.17 1468.83,1573.23 1469.99,1571.72
             1471.15,1570.23 1474.23,1569.53 1476.00,1568.93
             1480.88,1567.27 1485.86,1565.53 1491.00,1565.00
             1491.00,1565.00 1491.00,1637.00 1491.00,1637.00
             1491.00,1637.00 1521.00,1623.26 1521.00,1623.26
             1521.00,1623.26 1556.00,1606.75 1556.00,1606.75
             1559.99,1604.76 1572.10,1599.96 1573.98,1596.79
             1575.20,1594.71 1575.00,1591.37 1575.04,1589.00
             1575.04,1589.00 1575.04,1576.00 1575.04,1576.00
             1575.04,1576.00 1576.00,1564.00 1576.00,1564.00
             1576.00,1564.00 1576.00,1538.00 1576.00,1538.00
             1576.00,1538.00 1600.00,1531.00 1600.00,1531.00
             1597.58,1549.33 1598.00,1567.54 1598.00,1586.00
             1598.00,1586.00 1640.00,1566.78 1640.00,1566.78 Z
           M 1826.82,1491.00
           C 1825.08,1494.74 1823.53,1504.97 1826.82,1508.35
             1829.11,1511.14 1834.45,1511.90 1838.00,1511.99
             1845.51,1512.17 1851.25,1511.28 1856.90,1505.82
             1861.74,1501.13 1867.28,1488.42 1861.49,1482.65
             1857.41,1478.57 1849.32,1478.77 1844.00,1479.30
             1836.44,1480.78 1830.77,1483.95 1826.82,1491.00 Z
           M 2687.28,1612.00
           C 2686.23,1610.20 2684.45,1606.59 2682.00,1606.59
             2679.88,1606.59 2677.98,1609.51 2676.86,1611.02
             2673.22,1615.89 2669.23,1620.96 2668.00,1627.00
             2668.00,1627.00 2695.00,1629.00 2695.00,1629.00
             2694.28,1622.23 2690.66,1617.79 2687.28,1612.00 Z
           M 2145.00,1639.63
           C 2141.28,1639.63 2132.04,1649.82 2129.06,1652.72
             2127.52,1654.21 2125.06,1656.18 2126.17,1658.63
             2127.44,1661.42 2140.58,1666.55 2144.00,1668.25
             2144.00,1668.25 2178.00,1684.31 2178.00,1684.31
             2185.08,1687.56 2191.20,1691.78 2199.00,1693.00
             2198.60,1685.85 2195.39,1681.28 2192.25,1675.00
             2192.25,1675.00 2183.24,1656.00 2183.24,1656.00
             2181.91,1653.28 2178.73,1645.49 2175.79,1644.74
             2172.22,1643.84 2162.96,1653.43 2160.00,1656.00
             2157.45,1652.33 2149.29,1639.63 2145.00,1639.63 Z
           M 2264.00,1744.42
           C 2264.00,1744.42 2299.00,1712.09 2299.00,1712.09
             2302.60,1708.73 2306.65,1705.77 2309.85,1702.00
             2311.25,1700.35 2313.29,1697.91 2311.95,1695.65
             2310.93,1693.93 2305.94,1692.14 2304.00,1691.22
             2304.00,1691.22 2284.00,1681.74 2284.00,1681.74
             2284.00,1681.74 2227.00,1654.75 2227.00,1654.75
             2227.00,1654.75 2199.00,1641.63 2199.00,1641.63
             2197.19,1641.12 2195.83,1641.10 2194.00,1641.00
             2194.00,1641.00 2206.14,1668.00 2206.14,1668.00
             2206.14,1668.00 2217.74,1692.00 2217.74,1692.00
             2217.74,1692.00 2235.26,1729.00 2235.26,1729.00
             2235.26,1729.00 2248.00,1756.00 2248.00,1756.00
             2255.20,1754.47 2258.58,1749.13 2264.00,1744.42 Z
           M 1673.00,1670.00
           C 1673.00,1670.00 1683.00,1691.00 1683.00,1691.00
             1683.00,1691.00 1686.00,1691.00 1686.00,1691.00
             1690.37,1684.09 1697.86,1677.21 1699.00,1669.00
             1699.00,1669.00 1673.00,1670.00 1673.00,1670.00 Z
           M 2161.78,1728.00
           C 2163.24,1731.08 2165.67,1738.33 2170.04,1736.85
             2173.79,1735.57 2184.70,1724.31 2187.98,1721.04
             2189.34,1719.69 2192.41,1717.09 2192.41,1715.04
             2192.41,1712.05 2184.41,1708.93 2182.00,1707.86
             2173.82,1704.22 2153.14,1693.34 2146.00,1692.00
             2146.73,1698.86 2158.11,1720.23 2161.78,1728.00 Z
           M 1488.00,1739.00
           C 1488.00,1739.00 1501.00,1763.00 1501.00,1763.00
             1501.00,1763.00 1504.00,1763.00 1504.00,1763.00
             1507.16,1757.34 1511.78,1753.01 1504.00,1749.00
             1504.00,1749.00 1509.00,1740.00 1509.00,1740.00
             1509.00,1740.00 1488.00,1739.00 1488.00,1739.00 Z
           M 2153.00,1820.32
           C 2144.84,1827.13 2144.24,1830.98 2133.00,1831.00
             2133.00,1831.00 2084.00,1831.00 2084.00,1831.00
             2084.00,1831.00 2067.00,1830.01 2067.00,1830.01
             2067.00,1830.01 1904.00,1830.01 1904.00,1830.01
             1899.86,1829.99 1889.21,1828.18 1886.41,1830.01
             1884.07,1831.57 1882.12,1838.22 1876.82,1843.96
             1867.71,1853.83 1852.97,1858.19 1840.00,1854.71
             1826.43,1851.07 1821.98,1844.50 1814.11,1834.00
             1808.67,1826.76 1805.15,1823.36 1803.46,1814.00
             1802.02,1806.01 1804.21,1791.18 1812.04,1787.02
             1814.33,1785.81 1817.46,1786.01 1820.00,1785.91
             1820.00,1785.91 1834.00,1785.91 1834.00,1785.91
             1842.18,1784.95 1839.87,1783.87 1851.00,1784.00
             1854.77,1784.05 1866.79,1785.48 1869.54,1787.60
             1876.78,1793.19 1878.49,1803.80 1889.00,1804.00
             1889.00,1804.00 2014.00,1804.00 2014.00,1804.00
             2014.00,1804.00 2029.00,1805.00 2029.00,1805.00
             2029.00,1805.00 2087.00,1805.00 2087.00,1805.00
             2087.00,1805.00 2138.00,1805.00 2138.00,1805.00
             2141.37,1804.99 2144.00,1805.28 2147.00,1803.40
             2149.65,1801.75 2152.22,1798.20 2155.00,1798.20
             2157.78,1798.20 2160.35,1801.74 2163.00,1803.40
             2165.82,1805.17 2168.99,1804.80 2172.00,1806.00
             2165.34,1810.17 2159.04,1815.29 2153.00,1820.32 Z
           M 1829.79,1806.04
           C 1826.43,1810.52 1822.64,1821.44 1826.82,1826.35
             1829.50,1829.50 1835.17,1829.95 1839.00,1830.00
             1846.98,1830.09 1853.03,1829.45 1858.61,1822.91
             1862.62,1818.20 1866.77,1805.70 1861.49,1800.70
             1858.29,1797.67 1851.19,1796.99 1847.00,1797.29
             1839.82,1798.47 1834.41,1799.85 1829.79,1806.04 Z
           M 2092.12,1861.00
           C 2092.12,1861.00 2096.80,1868.00 2096.80,1868.00
             2096.80,1868.00 2092.00,1874.42 2092.00,1874.42
             2092.00,1874.42 2079.00,1886.00 2079.00,1886.00
             2070.15,1876.36 2072.80,1877.04 2067.88,1871.00
             2066.27,1869.02 2063.62,1866.87 2064.34,1864.00
             2065.22,1860.47 2076.77,1851.08 2080.00,1848.00
             2080.00,1848.00 2092.12,1861.00 2092.12,1861.00 Z
           M 2005.49,1941.00
           C 2005.49,1941.00 2001.59,1935.00 2001.59,1935.00
             2000.19,1933.13 1997.19,1930.41 1997.20,1928.00
             1997.20,1925.18 2002.01,1920.95 2004.00,1919.09
             2006.00,1917.22 2011.28,1912.16 2014.00,1912.19
             2016.22,1912.22 2018.41,1914.47 2019.78,1916.02
             2019.78,1916.02 2024.49,1923.00 2024.49,1923.00
             2024.49,1923.00 2032.00,1932.00 2032.00,1932.00
             2032.00,1932.00 2012.00,1949.00 2012.00,1949.00
             2012.00,1949.00 2005.49,1941.00 2005.49,1941.00 Z
           M 1722.00,1950.00
           C 1722.00,1950.00 1722.00,1962.00 1722.00,1962.00
             1722.00,1962.00 1731.00,1962.00 1731.00,1962.00
             1731.00,1962.00 1731.00,2015.00 1731.00,2015.00
             1731.00,2015.00 1695.00,1989.00 1695.00,1989.00
             1695.00,1989.00 1708.04,1989.00 1708.04,1989.00
             1708.04,1989.00 1708.04,1977.00 1708.04,1977.00
             1708.04,1977.00 1709.00,1966.00 1709.00,1966.00
             1709.00,1966.00 1709.00,1950.00 1709.00,1950.00
             1709.00,1950.00 1722.00,1950.00 1722.00,1950.00 Z
           M 1965.00,1995.00
           C 1962.04,1997.96 1950.38,2009.86 1947.00,2010.67
             1941.93,2011.88 1937.91,2003.26 1935.51,2000.00
             1935.51,2000.00 1932.13,1996.00 1932.13,1996.00
             1930.65,1994.12 1929.28,1992.54 1930.17,1990.00
             1930.94,1987.81 1944.29,1975.71 1947.00,1973.00
             1951.83,1976.62 1961.38,1989.60 1965.00,1995.00 Z
           M 1102.00,2037.00
           C 1102.00,2037.00 1102.00,2066.00 1102.00,2066.00
             1102.00,2066.00 1129.00,2066.00 1129.00,2066.00
             1129.00,2066.00 1135.98,2067.60 1135.98,2067.60
             1135.98,2067.60 1137.00,2078.00 1137.00,2078.00
             1138.99,2078.01 1142.81,2077.76 1144.40,2079.02
             1146.73,2080.87 1146.00,2089.06 1146.00,2092.00
             1146.00,2092.00 1108.00,2092.00 1108.00,2092.00
             1108.00,2092.00 1107.00,2080.00 1107.00,2080.00
             1107.00,2080.00 1102.00,2080.00 1102.00,2080.00
             1102.00,2080.00 1101.00,2131.00 1101.00,2131.00
             1098.06,2131.00 1089.87,2131.73 1088.02,2129.40
             1086.60,2127.60 1087.00,2121.41 1087.00,2119.00
             1078.69,2118.97 1077.82,2118.75 1078.01,2110.00
             1078.01,2110.00 1079.00,2096.00 1079.00,2096.00
             1079.00,2096.00 1080.00,2043.00 1080.00,2043.00
             1080.00,2043.00 1088.00,2043.00 1088.00,2043.00
             1088.00,2043.00 1088.00,2036.00 1088.00,2036.00
             1088.00,2036.00 1102.00,2037.00 1102.00,2037.00 Z
           M 1863.74,2057.00
           C 1861.54,2052.25 1871.65,2044.03 1875.00,2041.11
             1876.36,2039.93 1878.08,2038.36 1880.00,2038.34
             1884.40,2038.28 1887.83,2044.87 1889.88,2048.00
             1891.66,2050.73 1896.80,2055.26 1896.80,2057.99
             1896.80,2060.53 1893.71,2062.74 1892.00,2064.28
             1887.45,2068.38 1883.59,2073.36 1878.00,2076.00
             1878.00,2076.00 1863.74,2057.00 1863.74,2057.00 Z
           M 1258.00,2066.00
           C 1258.00,2066.00 1265.01,2067.74 1265.01,2067.74
             1265.01,2067.74 1266.00,2078.00 1266.00,2078.00
             1266.00,2078.00 1275.00,2078.00 1275.00,2078.00
             1275.00,2078.00 1275.00,2091.00 1275.00,2091.00
             1275.00,2091.00 1244.00,2091.00 1244.00,2091.00
             1244.00,2091.00 1237.02,2089.40 1237.02,2089.40
             1237.02,2089.40 1236.00,2079.00 1236.00,2079.00
             1226.14,2078.96 1227.00,2078.38 1227.00,2066.00
             1227.00,2066.00 1258.00,2066.00 1258.00,2066.00 Z
           M 2263.40,2156.02
           C 2265.38,2157.59 2265.00,2161.70 2264.96,2164.00
             2264.96,2164.00 2264.96,2176.00 2264.96,2176.00
             2264.96,2176.00 2264.00,2186.00 2264.00,2186.00
             2264.00,2186.00 2264.00,2321.00 2264.00,2321.00
             2263.98,2332.11 2259.26,2333.28 2251.00,2340.42
             2247.34,2343.59 2245.48,2345.88 2241.00,2348.00
             2241.00,2348.00 2241.00,2332.00 2241.00,2332.00
             2241.00,2332.00 2242.00,2316.00 2242.00,2316.00
             2242.00,2316.00 2242.00,2272.00 2242.00,2272.00
             2242.00,2272.00 2250.00,2272.00 2250.00,2272.00
             2250.00,2272.00 2250.00,2223.00 2250.00,2223.00
             2250.00,2223.00 2251.00,2206.00 2251.00,2206.00
             2251.00,2206.00 2251.00,2155.00 2251.00,2155.00
             2253.66,2155.00 2261.51,2154.52 2263.40,2156.02 Z
           M 2703.17,2184.00
           C 2703.17,2184.00 2700.00,2218.00 2700.00,2218.00
             2692.98,2214.87 2686.50,2210.42 2680.00,2206.32
             2677.91,2205.00 2672.44,2201.18 2670.13,2201.29
             2666.74,2201.46 2663.73,2210.16 2662.61,2213.00
             2657.50,2226.08 2655.00,2240.01 2655.00,2254.00
             2663.77,2254.94 2664.90,2258.87 2665.13,2267.00
             2665.13,2267.00 2665.13,2302.00 2665.13,2302.00
             2665.00,2304.19 2664.93,2306.88 2665.13,2309.00
             2666.71,2315.12 2676.36,2330.41 2680.18,2336.00
             2680.18,2336.00 2687.21,2345.99 2687.21,2345.99
             2689.15,2350.81 2681.67,2355.92 2678.09,2354.18
             2673.63,2352.00 2671.43,2343.69 2664.00,2340.00
             2664.00,2340.00 2664.00,2506.00 2664.00,2506.00
             2664.00,2506.00 2663.00,2521.00 2663.00,2521.00
             2663.00,2521.00 2663.00,2560.00 2663.00,2560.00
             2663.00,2560.00 2663.00,2613.00 2663.00,2613.00
             2663.00,2613.00 2664.02,2630.82 2664.02,2630.82
             2664.02,2630.82 2667.00,2634.00 2667.00,2634.00
             2661.22,2640.89 2663.00,2647.38 2663.00,2656.00
             2663.00,2656.00 2663.00,2687.00 2663.00,2687.00
             2663.00,2687.00 2662.00,2704.00 2662.00,2704.00
             2661.99,2710.33 2663.96,2722.41 2656.96,2725.26
             2654.82,2726.13 2651.34,2726.00 2649.00,2726.00
             2649.00,2726.00 2556.00,2726.00 2556.00,2726.00
             2555.74,2737.69 2551.55,2755.75 2547.97,2767.00
             2546.95,2770.21 2542.14,2780.08 2543.23,2782.67
             2544.48,2785.61 2558.53,2793.00 2562.00,2795.00
             2560.17,2802.86 2565.48,2804.09 2572.00,2807.00
             2567.23,2812.45 2550.17,2820.87 2543.00,2824.77
             2543.00,2824.77 2490.00,2854.00 2490.00,2854.00
             2490.00,2854.00 2491.00,2838.00 2491.00,2838.00
             2491.00,2838.00 2481.00,2842.00 2481.00,2842.00
             2481.00,2842.00 2485.72,2793.00 2485.72,2793.00
             2485.72,2793.00 2488.42,2771.13 2488.42,2771.13
             2490.48,2765.21 2495.35,2771.30 2498.00,2763.00
             2503.31,2764.96 2511.71,2770.44 2517.79,2767.69
             2520.89,2766.29 2522.80,2760.08 2523.95,2757.00
             2527.80,2746.71 2531.11,2736.00 2532.00,2725.00
             2532.00,2725.00 2386.00,2725.00 2386.00,2725.00
             2386.00,2725.00 2365.00,2720.19 2365.00,2720.19
             2365.00,2720.19 2344.41,2722.39 2344.41,2722.39
             2344.41,2722.39 2340.52,2716.00 2340.52,2716.00
             2340.52,2716.00 2335.00,2699.00 2335.00,2699.00
             2335.00,2699.00 2478.00,2699.00 2478.00,2699.00
             2478.00,2699.00 2493.00,2700.00 2493.00,2700.00
             2493.00,2700.00 2629.00,2700.00 2629.00,2700.00
             2629.00,2700.00 2627.54,2679.00 2627.54,2679.00
             2627.54,2679.00 2623.00,2661.00 2623.00,2661.00
             2614.00,2661.95 2600.32,2671.98 2591.00,2676.00
             2591.00,2676.00 2591.00,2661.00 2591.00,2661.00
             2591.00,2661.00 2582.00,2664.00 2582.00,2664.00
             2582.00,2664.00 2581.00,2628.00 2581.00,2628.00
             2581.00,2628.00 2580.00,2611.00 2580.00,2611.00
             2580.00,2611.00 2580.00,2590.00 2580.00,2590.00
             2580.00,2590.00 2587.00,2590.00 2587.00,2590.00
             2587.00,2590.00 2587.00,2585.00 2587.00,2585.00
             2587.00,2585.00 2597.00,2589.35 2597.00,2589.35
             2597.00,2589.35 2609.00,2592.44 2609.00,2592.44
             2609.00,2592.44 2640.00,2610.00 2640.00,2610.00
             2640.00,2610.00 2640.00,2556.00 2640.00,2556.00
             2640.00,2556.00 2641.00,2539.00 2641.00,2539.00
             2641.00,2539.00 2641.00,2416.00 2641.00,2416.00
             2641.00,2416.00 2642.00,2401.00 2642.00,2401.00
             2642.00,2401.00 2642.00,2304.00 2642.00,2304.00
             2641.99,2295.66 2637.34,2280.84 2635.00,2272.00
             2635.00,2272.00 2641.00,2272.00 2641.00,2272.00
             2641.00,2272.00 2641.00,2268.00 2641.00,2268.00
             2641.00,2268.00 2625.00,2267.00 2625.00,2267.00
             2625.00,2267.00 2587.00,2267.00 2587.00,2267.00
             2587.00,2267.00 2560.00,2266.00 2560.00,2266.00
             2565.56,2262.81 2574.60,2255.27 2580.00,2253.65
             2583.27,2252.66 2592.14,2253.00 2596.00,2252.98
             2596.00,2252.98 2626.00,2252.98 2626.00,2252.98
             2628.70,2253.00 2636.98,2253.98 2638.69,2252.98
             2641.46,2251.25 2641.36,2242.42 2641.92,2239.00
             2643.14,2231.58 2647.48,2210.63 2651.70,2205.21
             2653.35,2203.09 2663.97,2196.40 2667.00,2194.34
             2667.00,2194.34 2704.00,2170.00 2704.00,2170.00
             2704.00,2170.00 2703.17,2184.00 2703.17,2184.00 Z
           M 2281.00,2261.00
           C 2281.00,2261.00 2281.00,2223.00 2281.00,2223.00
             2281.00,2220.50 2280.62,2215.70 2282.74,2213.99
             2284.58,2212.50 2292.40,2213.00 2295.00,2213.00
             2295.00,2213.00 2295.00,2252.00 2295.00,2252.00
             2295.00,2252.00 2351.00,2252.00 2351.00,2252.00
             2348.18,2255.92 2340.49,2263.77 2336.00,2265.40
             2333.53,2266.30 2326.00,2266.00 2323.00,2266.00
             2323.00,2266.00 2295.00,2266.00 2295.00,2266.00
             2295.00,2266.00 2294.28,2294.00 2294.28,2294.00
             2294.28,2294.00 2292.40,2302.98 2292.40,2302.98
             2292.40,2302.98 2281.00,2304.00 2281.00,2304.00
             2281.00,2304.00 2281.00,2291.00 2281.00,2291.00
             2281.00,2291.00 2272.00,2291.00 2272.00,2291.00
             2272.00,2291.00 2273.00,2272.00 2273.00,2272.00
             2281.52,2271.70 2280.99,2268.47 2281.00,2261.00 Z
           M 2542.00,2321.24
           C 2544.53,2319.96 2549.46,2317.79 2550.19,2314.82
             2550.80,2312.33 2548.34,2308.29 2547.31,2306.00
             2544.71,2300.21 2542.87,2294.15 2541.22,2288.00
             2540.79,2285.62 2539.80,2282.63 2541.22,2280.32
             2542.27,2278.10 2547.74,2274.86 2550.00,2273.28
             2553.52,2270.83 2554.91,2269.59 2559.00,2268.00
             2559.00,2278.34 2560.61,2287.99 2563.13,2298.00
             2564.98,2305.37 2565.36,2309.84 2574.00,2309.80
             2574.00,2309.80 2592.00,2309.80 2592.00,2309.80
             2592.00,2309.80 2604.00,2305.00 2604.00,2305.00
             2604.00,2305.00 2605.00,2327.00 2605.00,2327.00
             2605.00,2327.00 2606.00,2360.00 2606.00,2360.00
             2606.00,2360.00 2607.00,2377.00 2607.00,2377.00
             2607.00,2377.00 2608.00,2396.00 2608.00,2396.00
             2608.00,2396.00 2581.00,2379.42 2581.00,2379.42
             2581.00,2379.42 2528.00,2346.00 2528.00,2346.00
             2532.06,2339.60 2523.99,2337.26 2519.00,2334.00
             2523.47,2330.44 2536.37,2324.11 2542.00,2321.24 Z
           M 1560.00,2311.42
           C 1562.14,2313.28 1566.11,2317.67 1569.00,2317.42
             1571.41,2317.21 1579.47,2310.25 1582.00,2308.43
             1582.00,2308.43 1601.00,2295.81 1601.00,2295.81
             1603.46,2294.30 1608.35,2291.13 1611.00,2290.79
             1612.96,2290.18 1617.61,2290.88 1620.00,2290.79
             1624.39,2291.21 1629.40,2291.33 1633.00,2294.00
             1618.84,2300.68 1604.55,2308.50 1592.00,2317.89
             1589.73,2319.59 1580.98,2325.90 1580.34,2328.17
             1579.63,2330.66 1582.20,2333.09 1583.48,2335.00
             1583.48,2335.00 1587.29,2341.00 1587.29,2341.00
             1591.35,2346.16 1595.84,2347.77 1589.94,2353.96
             1588.43,2355.54 1586.76,2356.74 1585.00,2358.00
             1585.00,2358.00 1573.00,2346.04 1573.00,2346.04
             1571.22,2344.38 1568.66,2341.78 1566.00,2342.03
             1563.32,2342.28 1559.85,2346.13 1558.01,2348.00
             1552.40,2353.71 1544.79,2363.41 1540.01,2370.00
             1520.39,2397.04 1506.47,2430.89 1501.73,2464.00
             1501.73,2464.00 1500.00,2480.00 1500.00,2480.00
             1500.00,2480.00 1500.00,2508.00 1500.00,2508.00
             1500.05,2541.36 1516.14,2585.61 1534.75,2613.00
             1548.32,2632.97 1568.17,2650.72 1588.00,2664.34
             1680.28,2727.70 1807.69,2718.73 1889.00,2640.96
             1917.66,2613.55 1941.59,2574.82 1950.77,2536.00
             1953.79,2523.23 1956.98,2506.03 1957.21,2493.00
             1957.21,2493.00 1957.21,2472.00 1957.21,2472.00
             1958.82,2466.64 1970.51,2451.50 1975.00,2448.00
             1975.00,2448.00 1980.00,2489.00 1980.00,2489.00
             1980.75,2553.57 1957.87,2608.83 1913.91,2656.00
             1903.87,2666.77 1885.51,2681.75 1873.00,2689.78
             1873.00,2689.78 1850.29,2703.63 1850.29,2703.63
             1848.85,2704.95 1848.83,2705.43 1848.00,2707.00
             1848.00,2707.00 1956.00,2707.00 1956.00,2707.00
             1956.00,2707.00 1971.00,2708.00 1971.00,2708.00
             1971.00,2708.00 2068.00,2708.00 2068.00,2708.00
             2070.22,2708.00 2073.50,2707.74 2075.40,2708.99
             2077.61,2710.45 2081.86,2717.50 2083.42,2720.00
             2083.42,2720.00 2098.30,2744.00 2098.30,2744.00
             2098.98,2746.01 2098.97,2747.92 2099.00,2750.00
             2099.04,2753.39 2099.64,2767.30 2097.98,2769.40
             2096.20,2771.65 2087.80,2771.65 2086.02,2769.40
             2084.85,2767.92 2085.01,2764.82 2085.00,2763.00
             2085.00,2763.00 2085.00,2759.00 2085.00,2759.00
             2085.00,2759.00 2077.60,2757.98 2077.60,2757.98
             2077.60,2757.98 2076.00,2750.00 2076.00,2750.00
             2076.00,2750.00 2076.00,2733.00 2076.00,2733.00
             2076.00,2733.00 1979.00,2733.00 1979.00,2733.00
             1979.00,2733.00 1964.00,2732.00 1964.00,2732.00
             1964.00,2732.00 1788.00,2732.00 1788.00,2732.00
             1788.00,2732.00 1774.00,2731.00 1774.00,2731.00
             1774.00,2731.00 1752.00,2731.00 1752.00,2731.00
             1752.00,2731.00 1742.00,2731.95 1742.00,2731.95
             1742.00,2731.95 1728.00,2731.95 1728.00,2731.95
             1728.00,2731.95 1713.00,2731.00 1713.00,2731.00
             1713.00,2731.00 1597.00,2731.00 1597.00,2731.00
             1597.00,2731.00 1582.00,2730.00 1582.00,2730.00
             1582.00,2730.00 1407.00,2730.00 1407.00,2730.00
             1407.00,2730.00 1390.00,2729.02 1390.00,2729.02
             1381.90,2729.35 1380.21,2737.71 1374.96,2742.96
             1367.65,2750.27 1357.37,2754.38 1347.00,2753.96
             1336.28,2753.53 1326.14,2748.20 1319.33,2740.00
             1319.33,2740.00 1313.64,2732.00 1313.64,2732.00
             1308.90,2725.90 1305.64,2722.89 1303.49,2715.00
             1302.69,2712.07 1301.96,2708.03 1302.10,2705.00
             1302.37,2699.47 1306.24,2687.84 1311.18,2685.02
             1313.33,2683.80 1316.57,2684.00 1319.00,2683.91
             1319.00,2683.91 1334.00,2683.91 1334.00,2683.91
             1341.46,2683.03 1339.04,2681.88 1350.00,2682.00
             1354.35,2682.05 1366.48,2683.53 1369.54,2686.31
             1369.54,2686.31 1379.91,2699.00 1379.91,2699.00
             1381.64,2701.53 1383.23,2705.16 1386.18,2706.40
             1387.90,2707.12 1391.09,2707.00 1393.00,2707.00
             1393.00,2707.00 1618.00,2707.00 1618.00,2707.00
             1615.03,2701.70 1601.77,2695.40 1596.00,2691.81
             1582.87,2683.63 1570.31,2673.45 1559.00,2662.91
             1548.86,2653.46 1540.31,2642.87 1531.79,2632.00
             1503.35,2595.72 1484.37,2558.21 1478.85,2512.00
             1478.85,2512.00 1477.00,2492.00 1477.00,2492.00
             1477.00,2492.00 1477.00,2477.00 1477.00,2477.00
             1477.00,2477.00 1478.85,2456.00 1478.85,2456.00
             1483.20,2419.58 1497.10,2383.85 1518.43,2354.00
             1520.88,2350.56 1525.10,2344.08 1529.01,2342.60
             1532.31,2341.35 1539.34,2342.61 1542.99,2341.49
             1546.03,2340.55 1548.09,2338.27 1550.15,2335.96
             1551.02,2334.98 1552.64,2333.22 1553.09,2332.00
             1554.42,2328.41 1550.23,2325.32 1548.09,2323.00
             1548.09,2323.00 1540.57,2314.58 1540.57,2314.58
             1537.25,2310.15 1539.75,2309.39 1530.00,2302.00
             1532.28,2297.19 1534.73,2295.06 1539.00,2292.00
             1539.00,2292.00 1560.00,2311.42 1560.00,2311.42 Z
           M 2571.00,2343.00
           C 2567.07,2336.13 2561.59,2342.19 2561.59,2344.00
             2561.59,2346.21 2565.37,2348.27 2567.00,2349.32
             2572.35,2352.75 2577.68,2356.80 2584.00,2358.00
             2584.00,2358.00 2583.00,2335.00 2583.00,2335.00
             2576.93,2336.29 2575.29,2338.75 2571.00,2343.00 Z
           M 2619.98,2629.12
           C 2621.88,2627.96 2625.07,2626.03 2623.83,2623.34
             2623.08,2621.71 2619.54,2619.66 2618.00,2618.68
             2612.72,2615.32 2608.31,2611.71 2602.00,2611.00
             2602.00,2611.00 2603.00,2637.00 2603.00,2637.00
             2607.54,2636.08 2615.86,2631.64 2619.98,2629.12 Z
           M 2637.00,2651.00
           C 2637.00,2651.00 2637.00,2656.00 2637.00,2656.00
             2637.00,2656.00 2640.00,2656.00 2640.00,2656.00
             2640.00,2656.00 2640.00,2651.00 2640.00,2651.00
             2640.00,2651.00 2637.00,2651.00 2637.00,2651.00 Z
           M 1327.34,2707.00
           C 1324.96,2711.23 1323.21,2721.68 1327.34,2725.30
             1330.07,2727.73 1334.52,2727.96 1338.00,2728.00
             1346.73,2728.10 1352.72,2727.30 1358.61,2719.98
             1362.46,2715.21 1366.18,2704.69 1361.44,2699.42
             1358.22,2695.83 1350.54,2694.95 1346.00,2695.30
             1337.85,2696.83 1331.69,2699.41 1327.34,2707.00 Z
           M 2517.00,2789.36
           C 2515.49,2788.51 2513.24,2787.12 2511.43,2787.70
             2509.03,2788.48 2509.13,2791.99 2508.98,2794.00
             2508.98,2794.00 2508.00,2811.00 2508.00,2811.00
             2512.47,2810.09 2525.46,2803.76 2528.41,2800.39
             2529.58,2799.05 2529.50,2798.53 2530.00,2797.00
             2530.00,2797.00 2517.00,2789.36 2517.00,2789.36 Z" />
</svg>
