<?xml version="1.0" encoding="UTF-8" standalone="no"?>
<!DOCTYPE svg PUBLIC "-//W3C//DTD SVG 20010904//EN"
              "http://www.w3.org/TR/2001/REC-SVG-20010904/DTD/svg10.dtd">

<svg xmlns="http://www.w3.org/2000/svg"
     width="56.338in" height="56.338in"
     viewBox="0 0 4000 4000">
  <path id="white"
        fill="none" stroke="black" stroke-width="1"
        d="M 3999.00,1.00
           C 3999.00,1.00 3999.00,3999.00 3999.00,3999.00
             3999.00,3999.00 1.00,3999.00 1.00,3999.00
             1.00,3999.00 1.00,1.00 1.00,1.00
             1.00,1.00 3999.00,1.00 3999.00,1.00 Z
           M 26.00,524.00
           C 26.00,524.00 26.00,3481.00 26.00,3481.00
             26.00,3481.00 1975.00,3481.00 1975.00,3481.00
             1975.00,3481.00 1975.00,3478.00 1975.00,3478.00
             1975.00,3478.00 1946.00,3478.00 1946.00,3478.00
             1946.00,3478.00 1925.00,3477.00 1925.00,3477.00
             1925.00,3477.00 1911.00,3476.00 1911.00,3476.00
             1911.00,3476.00 1873.00,3473.09 1873.00,3473.09
             1873.00,3473.09 1810.00,3466.28 1810.00,3466.28
             1767.93,3460.91 1726.41,3453.57 1685.00,3444.42
             1573.80,3419.87 1466.49,3382.87 1364.00,3333.26
             1313.95,3309.04 1265.02,3282.73 1218.00,3252.95
             1138.15,3202.37 1070.04,3149.20 1000.00,3085.83
             1000.00,3085.83 987.00,3073.09 987.00,3073.09
             987.00,3073.09 933.04,3020.00 933.04,3020.00
             933.04,3020.00 913.91,2999.00 913.91,2999.00
             747.75,2820.58 626.02,2594.50 566.89,2358.00
             549.83,2289.73 537.53,2220.01 530.83,2150.00
             530.83,2150.00 527.00,2112.00 527.00,2112.00
             527.00,2112.00 527.00,2103.00 527.00,2103.00
             527.00,2103.00 525.00,2074.00 525.00,2074.00
             525.00,2074.00 524.00,2061.00 524.00,2061.00
             524.00,2061.00 524.00,2042.00 524.00,2042.00
             524.00,2042.00 523.00,2025.00 523.00,2025.00
             523.00,2025.00 523.00,1979.00 523.00,1979.00
             523.00,1979.00 524.00,1964.00 524.00,1964.00
             524.00,1964.00 524.00,1946.00 524.00,1946.00
             524.00,1946.00 525.00,1931.00 525.00,1931.00
             525.00,1931.00 527.00,1902.00 527.00,1902.00
             527.00,1902.00 527.00,1893.00 527.00,1893.00
             527.00,1893.00 531.17,1848.00 531.17,1848.00
             531.17,1848.00 532.84,1836.00 532.84,1836.00
             532.84,1836.00 542.43,1765.00 542.43,1765.00
             542.43,1765.00 550.80,1719.00 550.80,1719.00
             550.80,1719.00 555.00,1696.08 555.00,1696.08
             555.00,1696.08 464.96,1696.08 464.96,1696.08
             464.96,1696.08 444.00,1697.09 444.00,1697.09
             444.00,1697.09 313.99,1697.09 313.99,1697.09
             313.99,1697.09 302.00,1697.87 302.00,1697.87
             302.00,1697.87 271.00,1697.87 271.00,1697.87
             268.73,1698.00 266.21,1698.07 264.00,1697.87
             264.00,1697.87 228.00,1683.60 228.00,1683.60
             228.00,1683.60 145.00,1650.60 145.00,1650.60
             145.00,1650.60 92.00,1629.42 92.00,1629.42
             71.81,1620.96 71.11,1622.98 52.00,1608.63
             44.14,1602.72 28.43,1588.99 29.85,1578.00
             30.93,1569.72 38.82,1565.09 46.00,1562.81
             46.00,1562.81 93.00,1548.34 93.00,1548.34
             93.00,1548.34 231.00,1506.12 231.00,1506.12
             231.00,1506.12 272.00,1493.50 272.00,1493.50
             272.00,1493.50 300.00,1485.00 300.00,1485.00
             299.67,1483.01 299.72,1482.06 298.40,1480.32
             298.40,1480.32 282.00,1467.87 282.00,1467.87
             266.56,1456.13 254.91,1445.68 242.16,1431.00
             233.74,1421.31 223.94,1407.29 223.21,1394.00
             222.80,1386.56 228.56,1378.07 225.96,1373.29
             224.53,1370.64 216.71,1364.79 214.00,1362.58
             206.82,1356.69 200.49,1350.64 194.01,1344.00
             176.96,1326.52 164.98,1302.78 156.78,1280.00
             154.91,1274.80 149.52,1257.86 149.60,1253.00
             149.72,1245.86 156.61,1239.63 163.00,1237.67
             174.61,1234.10 197.79,1231.15 210.00,1231.00
             229.69,1230.77 249.74,1234.47 268.00,1241.80
             275.83,1244.94 279.74,1247.28 287.00,1251.16
             290.24,1252.90 295.32,1255.86 299.00,1255.77
             302.35,1255.68 315.00,1249.11 319.00,1247.30
             329.77,1242.45 345.52,1236.93 357.00,1234.13
             381.72,1228.10 404.80,1225.35 430.00,1222.83
             430.00,1222.83 475.00,1219.02 475.00,1219.02
             475.00,1219.02 500.00,1222.00 500.00,1222.00
             499.75,1220.36 499.76,1219.61 499.07,1218.00
             499.07,1218.00 483.00,1193.00 483.00,1193.00
             472.42,1174.48 461.75,1149.57 462.00,1128.00
             462.06,1123.43 462.69,1119.37 464.04,1115.00
             465.73,1109.52 467.96,1106.09 472.04,1102.04
             487.50,1086.71 513.04,1093.47 531.00,1100.05
             536.19,1101.96 540.17,1103.70 545.00,1106.42
             547.28,1107.71 551.39,1110.38 554.00,1110.30
             558.72,1110.14 561.35,1104.00 569.00,1099.98
             584.64,1091.78 599.36,1097.83 612.00,1108.44
             628.28,1122.11 638.55,1143.68 643.63,1164.00
             643.63,1164.00 647.85,1188.00 647.85,1188.00
             647.85,1188.00 665.13,1211.00 665.13,1211.00
             665.13,1211.00 702.71,1261.00 702.71,1261.00
             704.81,1263.91 712.46,1276.29 716.51,1273.96
             718.76,1272.66 724.89,1260.94 726.58,1258.00
             726.58,1258.00 750.42,1219.00 750.42,1219.00
             771.41,1185.47 794.17,1152.65 817.89,1121.00
             817.89,1121.00 841.20,1091.00 841.20,1091.00
             843.45,1088.17 852.05,1077.55 853.03,1075.00
             854.37,1071.47 852.46,1067.41 851.33,1064.00
             849.51,1058.50 847.71,1051.70 846.75,1046.00
             843.43,1026.07 846.80,1001.51 868.00,992.93
             875.57,989.86 880.07,989.91 888.00,990.00
             895.14,990.09 903.14,991.92 910.00,993.86
             912.71,994.63 918.50,996.84 921.00,996.22
             924.55,995.34 927.94,990.66 930.28,988.00
             930.28,988.00 946.00,972.00 946.00,972.00
             946.00,972.00 1010.00,910.17 1010.00,910.17
             1064.51,861.10 1121.95,815.70 1183.00,775.00
             1183.00,775.00 1220.00,750.81 1220.00,750.81
             1220.00,750.81 1294.00,707.31 1294.00,707.31
             1442.03,627.24 1593.83,573.38 1760.00,545.92
             1760.00,545.92 1845.00,534.17 1845.00,534.17
             1845.00,534.17 1884.00,530.83 1884.00,530.83
             1884.00,530.83 1929.00,528.00 1929.00,528.00
             1929.00,528.00 1942.00,527.00 1942.00,527.00
             1942.00,527.00 1963.00,527.00 1963.00,527.00
             1963.00,527.00 1963.00,524.00 1963.00,524.00
             1963.00,524.00 26.00,524.00 26.00,524.00 Z
           M 2036.00,524.00
           C 2036.00,524.00 2036.00,527.00 2036.00,527.00
             2036.00,527.00 2056.00,527.00 2056.00,527.00
             2056.00,527.00 2077.00,528.00 2077.00,528.00
             2077.00,528.00 2090.00,529.00 2090.00,529.00
             2090.00,529.00 2138.00,532.83 2138.00,532.83
             2193.20,538.11 2247.71,546.25 2302.00,557.79
             2519.32,603.98 2723.51,698.05 2899.00,834.58
             2937.44,864.48 2974.37,895.90 3010.00,929.09
             3010.00,929.09 3024.00,942.96 3024.00,942.96
             3024.00,942.96 3045.91,964.04 3045.91,964.04
             3045.91,964.04 3053.04,972.00 3053.04,972.00
             3053.04,972.00 3068.96,988.00 3068.96,988.00
             3068.96,988.00 3111.72,1035.00 3111.72,1035.00
             3177.21,1110.42 3233.44,1189.39 3283.15,1276.00
             3293.51,1294.04 3319.24,1341.28 3327.14,1359.00
             3327.14,1359.00 3341.75,1390.00 3341.75,1390.00
             3342.92,1392.35 3346.09,1400.08 3347.65,1401.36
             3350.70,1403.87 3355.21,1400.41 3358.00,1398.86
             3358.00,1398.86 3386.00,1383.26 3386.00,1383.26
             3414.46,1368.57 3456.80,1347.72 3487.00,1338.72
             3487.00,1338.72 3507.00,1334.57 3507.00,1334.57
             3509.63,1334.13 3513.43,1333.00 3515.96,1333.83
             3519.63,1335.02 3528.36,1346.33 3529.78,1350.00
             3531.55,1354.59 3528.08,1365.19 3526.71,1370.00
             3526.71,1370.00 3510.20,1418.00 3510.20,1418.00
             3510.20,1418.00 3487.27,1469.00 3487.27,1469.00
             3487.27,1469.00 3480.74,1483.00 3480.74,1483.00
             3480.74,1483.00 3457.37,1527.00 3457.37,1527.00
             3457.37,1527.00 3453.72,1536.00 3453.72,1536.00
             3453.72,1536.00 3444.69,1556.00 3444.69,1556.00
             3444.69,1556.00 3429.22,1587.00 3429.22,1587.00
             3427.32,1590.60 3422.47,1598.44 3421.72,1602.00
             3420.78,1606.48 3425.75,1621.79 3427.12,1627.00
             3427.12,1627.00 3441.74,1687.00 3441.74,1687.00
             3441.74,1687.00 3454.58,1752.00 3454.58,1752.00
             3461.08,1788.06 3465.64,1824.56 3469.17,1861.00
             3469.17,1861.00 3472.09,1897.00 3472.09,1897.00
             3472.09,1897.00 3473.00,1908.00 3473.00,1908.00
             3473.00,1908.00 3510.00,1921.58 3510.00,1921.58
             3510.00,1921.58 3590.00,1952.19 3590.00,1952.19
             3663.71,1980.75 3737.39,2010.03 3810.00,2041.28
             3810.00,2041.28 3888.00,2074.72 3888.00,2074.72
             3897.46,2078.80 3910.31,2085.41 3905.53,2098.00
             3902.63,2105.65 3895.30,2113.15 3889.00,2118.19
             3879.24,2126.00 3852.41,2138.97 3840.00,2145.46
             3840.00,2145.46 3824.00,2153.26 3824.00,2153.26
             3820.64,2154.89 3816.79,2157.37 3813.00,2157.35
             3813.00,2157.35 3785.00,2153.27 3785.00,2153.27
             3785.00,2153.27 3727.00,2144.42 3727.00,2144.42
             3727.00,2144.42 3563.00,2119.58 3563.00,2119.58
             3563.00,2119.58 3505.00,2110.58 3505.00,2110.58
             3505.00,2110.58 3472.00,2106.00 3472.00,2106.00
             3472.00,2106.00 3469.17,2144.00 3469.17,2144.00
             3469.17,2144.00 3464.72,2186.00 3464.72,2186.00
             3464.72,2186.00 3459.28,2223.00 3459.28,2223.00
             3459.28,2223.00 3450.61,2274.00 3450.61,2274.00
             3433.37,2365.95 3407.20,2456.14 3372.45,2543.00
             3287.89,2754.37 3163.58,2932.72 2997.00,3087.91
             2967.37,3115.51 2935.92,3141.52 2904.00,3166.42
             2731.88,3300.74 2532.30,3396.32 2319.00,3443.42
             2261.26,3456.18 2202.86,3466.13 2144.00,3471.83
             2144.00,3471.83 2125.00,3473.17 2125.00,3473.17
             2125.00,3473.17 2090.00,3476.00 2090.00,3476.00
             2090.00,3476.00 2073.00,3477.00 2073.00,3477.00
             2073.00,3477.00 2053.00,3478.00 2053.00,3478.00
             2053.00,3478.00 2025.00,3478.00 2025.00,3478.00
             2025.00,3478.00 2025.00,3481.00 2025.00,3481.00
             2025.00,3481.00 3911.00,3481.00 3911.00,3481.00
             3911.00,3481.00 3911.00,524.00 3911.00,524.00
             3911.00,524.00 2036.00,524.00 2036.00,524.00 Z" />
</svg>
